<?xml version="1.0" encoding="utf-8"?>
<!-- Generator: Adobe Illustrator 22.0.1, SVG Export Plug-In . SVG Version: 6.00 Build 0)  -->
<svg version="1.1" id="Layer_1" xmlns="http://www.w3.org/2000/svg" xmlns:xlink="http://www.w3.org/1999/xlink" x="0px" y="0px"
	 viewBox="0 0 130 130" style="enable-background:new 0 0 130 130;" xml:space="preserve">
<style type="text/css">
	.st0{fill-rule:evenodd;clip-rule:evenodd;fill:none;stroke:#202C5C;stroke-width:1.5;stroke-miterlimit:10;}
	.st1{fill-rule:evenodd;clip-rule:evenodd;fill:#202C5C;}
	.st2{fill:#FFFFFF;}
</style>
<g>
	<path class="st0" d="M25,114.9c-5.7-5.9-11.3-11.8-17-17.7c0.5-0.6,0.9-1.2,1.3-1.7c5.6-5.7,11.1-11.6,16.8-17.2
		c2.1-2,4.6-3.7,7.1-5.2c3.8-2.1,8-2.5,12.3-1.3C57.1,75,68.7,78,80.2,81.1c2.6,0.7,4.5,2.1,5.1,4.8c1,4.5-2.7,8.2-7.3,7.3
		c-2.8-0.5-5.6-1.3-8.3-2c-3.7-1-7.3-2-10.9-2.9c-0.7-0.2-1.4-0.4-2.1-0.5c-0.9-0.2-1.7,0-2,1c-0.4,1.1,0.3,1.7,1.3,2.1
		c0.4,0.2,0.9,0.2,1.3,0.4c6,1.6,11.9,3.2,17.9,4.7c1.6,0.4,3.3,0.7,4.9,0.6c3.6-0.1,6.4-1.6,7.9-5.1c1.5-3.4,1-6.7-1.2-9.6
		c-0.5-0.7-1.2-1.3-1.9-2.1c0.7-0.6,1.3-1.1,1.9-1.6c7.3-5.5,14.7-11.1,22-16.6c3.6-2.7,8.6-2.2,11.4,1.3c2.9,3.5,2.4,8.6-1.2,11.6
		c-10.7,8.9-21.4,17.8-32,26.7c-3.1,2.6-6.3,5.1-9.3,7.8c-3.3,2.9-7,3.7-11.3,2.5c-8.9-2.4-17.8-4.7-26.6-7.2
		c-2-0.5-3.2-0.2-4.6,1.2c-2.4,2.5-5,4.9-7.5,7.4C26.9,113.2,26.2,113.8,25,114.9z"/>
	<g>
		<path class="st1" d="M76.9,71.7c-6.2-0.3-12.4-0.9-18.3-2.6c-0.7-0.2-1.4-0.5-2.2-0.7c-4.8-1.4-6.8-4.8-7.1-9.3
			c-0.2-3.2,0.4-6.3,1.4-9.3c2.5-7,6.7-13.2,12.1-18.5c3.8-3.8,8.5-4.6,13.6-2.5c2.7,1.1,4.9,2.8,6.8,4.9c3.9,4.3,6.5,9.4,8.2,14.8
			c1.2,3.8,2,7.7,1.8,11.8c-0.1,2.1-0.5,4.2-1.4,6.1c-1.2,2.4-3.1,4-5.9,4.3C82.9,71.2,79.9,71.4,76.9,71.7z"/>
		<path class="st1" d="M68.5,25.8c-0.2-0.5-0.5-1-0.7-1.4c-0.3-0.5-0.5-0.9-1.1-1.2c0.4,0.9,0.7,1.7,1.1,2.7c-0.8,0.5-1.6,1-2.4,1.5
			c-1.3-0.9-2-2.2-2.3-3.7c-0.3-1.5,0.2-2.5,1.7-3c2.6-0.8,4.8-2.2,6.9-3.8c1.5-1.1,3.3-1.6,5.1-1.7c1.3-0.1,1.7,0.3,1.8,1.5
			c0,0.2,0,0.4,0,0.5c-0.3,3.2-1.5,6-3,8.7C73.2,25.8,70.9,25.8,68.5,25.8z"/>
		<path class="st1" d="M77.7,27.9c-0.6-0.6-1-1.1-1.4-1.6c0.9-2.2,1.8-4.3,2.7-6.5c1.3,0.1,2.4,0.6,3.4,1.4c1.3,1,1.4,2.1,0.5,3.3
			C81.5,26.1,79.8,27.1,77.7,27.9z"/>
		<path class="st1" d="M76.9,28.3c-3.6-1.1-7.1-1.3-10.8-0.2c1.1-1.4,3.1-2,6.2-1.8C75.2,26.4,76,26.8,76.9,28.3z"/>
		<path class="st1" d="M62.2,23.3c0.6,1.2,1.1,2.4,1.7,3.7c-1.3-0.3-2.2-0.8-2.6-1.8C60.9,24.5,61.1,23.7,62.2,23.3z"/>
	</g>
	<g>
		<path class="st2" d="M66.7,42.5h9.7l0,0c-0.6,0.9-0.9,1.3-1,1.4h-2.6c0.3,0.4,0.6,0.9,0.7,1.5h2.7c0.1,0,0.1,0,0.1,0.1
			c-0.6,0.9-0.9,1.4-0.9,1.4h-1.8c-0.1,0.5-0.3,1-0.7,1.7c-0.6,0.7-1.1,1.1-1.6,1.3c-0.9,0.5-1.8,0.7-2.7,0.7l0,0
			c0,0.1,1.9,2.3,5.8,6.9h-2.6c-3.8-4.4-5.7-6.6-5.7-6.6v-1.3v-0.1c0.3,0.1,0.7,0.1,1.2,0.1c2.1,0,3.4-0.7,3.9-2.1
			c0.1-0.2,0.1-0.4,0.1-0.6h-5.7c0,0-0.1,0-0.1-0.1c0.6-0.9,1-1.4,1-1.4h4.6l0,0c-0.3-0.5-0.7-0.9-1.5-1.3c-0.6-0.1-1.1-0.2-1.5-0.2
			h-2.6v-0.1C66.4,42.9,66.7,42.5,66.7,42.5z"/>
	</g>
</g>
</svg>
