<?xml version="1.0" encoding="utf-8"?>
<!-- Generator: Adobe Illustrator 22.0.1, SVG Export Plug-In . SVG Version: 6.00 Build 0)  -->
<svg version="1.1" id="Layer_1" xmlns="http://www.w3.org/2000/svg" xmlns:xlink="http://www.w3.org/1999/xlink" x="0px" y="0px"
	 viewBox="0 0 130 130" style="enable-background:new 0 0 130 130;" xml:space="preserve">
<style type="text/css">
	.st0{fill:#212E5C;}
</style>
<g>
	<path class="st0" d="M121,56.9l-6.5-15.6l-11.7,2.5c-2.9-4.1-6.5-7.7-10.6-10.7l2.5-11.7l-15.6-6.5l-6.5,10c-5-0.8-10-0.8-15.1,0
		l-6.5-10l-15.6,6.4l2.5,11.7c-4.1,2.9-7.7,6.5-10.7,10.6l-11.7-2.5L9,56.8l10,6.5c-0.8,5-0.8,10.2,0,15.3l2.5-0.4
		c-1.4-5.2-0.2-16.2,0.3-16.1l-9.7-6.3L17,44.1l11.3,2.4C31,42,35.5,38,40.7,34.2l-2.4-11.3L50,18.1l6.3,9.7
		c5.7-1.2,11.5-1.2,17.5,0l6.3-9.7L91.8,23l-2.4,11.3c5,3.5,9.2,7.5,12.3,12.4l11.3-2.4l4.8,11.7l-9.7,6.3l0.2,0.8
		c0.9,5,1,10.1,0.1,15.2l2.5,0.4c0.8-5.1,0.9-10.2,0-15.2L121,56.9z"/>
	<path class="st0" d="M93.1,115.1V99.7h4.6V88h-4.6V54.1h-2.6V88H86v11.7h4.6v15.3H93.1z M88.6,90.5h6.6v6.6h-6.6V90.5z"/>
	<path class="st0" d="M75.2,115.1V82.2h4.6V70.4h-4.6V54.1h-2.6v16.3h-4.6v11.7h4.6v32.9H75.2z M70.6,73h6.6v6.6h-6.6V73z"/>
	<path class="st0" d="M61.9,79.4V67.7h-4.6V54.1h-2.6v13.6h-4.6v11.7h4.6v35.7h2.6V79.4H61.9z M52.7,70.2h6.6v6.6h-6.6V70.2z"/>
	<path class="st0" d="M36.8,54.1v41.6h-4.6v11.7h4.6v7.6h2.6v-7.6H44V95.8h-4.6V54.1H36.8z M41.4,105h-6.6v-6.6h6.6V105z"/>
</g>
</svg>
