<?xml version="1.0" encoding="utf-8"?>
<!-- Generator: Adobe Illustrator 22.0.1, SVG Export Plug-In . SVG Version: 6.00 Build 0)  -->
<svg version="1.1" id="Layer_1" xmlns="http://www.w3.org/2000/svg" xmlns:xlink="http://www.w3.org/1999/xlink" x="0px" y="0px"
	 viewBox="0 0 130 130" style="enable-background:new 0 0 130 130;" xml:space="preserve">
<style type="text/css">
	.st0{fill-rule:evenodd;clip-rule:evenodd;fill:#202D5C;}
	.st1{fill:#202D5C;}
	.st2{fill:#202C5C;}
</style>
<g>
	<path class="st0" d="M94.5,55.9h11.6v24.7h5.5l-11.3,14.1L89,80.6h5.5V55.9z M90.4,51.8v24.7h-9.9l19.7,24.7L120,76.5h-9.9V51.8
		H90.4z"/>
	<path class="st1" d="M57.6,17.4c13.1,0,25,5.3,33.7,13.9c4.6,4.6,8.3,10.2,10.7,16.4h-4.4c-2.2-5.1-5.3-9.6-9.2-13.5
		c-7.9-7.9-18.8-12.7-30.8-12.7s-22.9,4.9-30.8,12.7C18.9,42.1,14.1,53,14.1,65s4.9,22.9,12.7,30.8c7.9,7.9,18.8,12.7,30.8,12.7
		s22.9-4.9,30.8-12.7c0.4-0.4,0.8-0.9,1.3-1.3l2.6,3.2c-0.3,0.3-0.6,0.6-0.9,1c-8.6,8.6-20.5,13.9-33.7,13.9
		c-13.1,0-25-5.3-33.7-13.9C15.3,90,10,78.1,10,65c0-13.1,5.3-25,13.9-33.7C32.6,22.7,44.5,17.4,57.6,17.4"/>
</g>
<g>
	<path class="st2" d="M48.7,50.6H72l0,0c-1.4,2.1-2.2,3.2-2.3,3.4h-6.2c0.8,1,1.4,2.2,1.8,3.6h6.6c0.1,0,0.1,0,0.1,0.1
		c-1.5,2.2-2.2,3.3-2.2,3.3h-4.3c-0.1,1.1-0.7,2.5-1.7,4.1c-1.4,1.7-2.6,2.6-3.9,3.2c-2.2,1.1-4.4,1.7-6.5,1.7l0,0
		c0,0.1,4.7,5.6,13.9,16.5h-6.2c-9.1-10.6-13.6-15.8-13.6-16v-3.2v-0.1c0.8,0.1,1.8,0.1,2.9,0.1c5.1,0,8.3-1.7,9.5-5
		c0.1-0.6,0.3-1,0.3-1.5H46.5c0,0-0.1,0-0.1-0.1c1.5-2.2,2.3-3.3,2.3-3.3h11l0,0c-0.7-1.2-1.8-2.2-3.6-3c-1.4-0.3-2.6-0.4-3.6-0.4
		h-6.2v-0.1C47.9,51.7,48.6,50.6,48.7,50.6z"/>
</g>
</svg>
