<?xml version="1.0" encoding="utf-8"?>
<!-- Generator: Adobe Illustrator 22.0.1, SVG Export Plug-In . SVG Version: 6.00 Build 0)  -->
<svg version="1.1" id="Layer_1" xmlns="http://www.w3.org/2000/svg" xmlns:xlink="http://www.w3.org/1999/xlink" x="0px" y="0px"
	 viewBox="0 0 100 100" style="enable-background:new 0 0 100 100;" xml:space="preserve">
<style type="text/css">
	.st0{fill:none;stroke:#FFFFFF;stroke-width:2;stroke-linecap:round;stroke-miterlimit:10;}
	.st1{fill:none;stroke:#FFFFFF;stroke-width:2;stroke-miterlimit:10;}
</style>
<g>
	<path class="st0" d="M38,32.5c-0.8-1-1.2-2.3-1.2-3.6c0-3.3,2.7-6,6-6c3.3,0,6,2.7,6,6c0,1-0.2,1.9-0.7,2.8"/>
	<path class="st0" d="M30.4,29.9c-9.8,2.9-19,12.1-19,21.8c0,4.3,0.6,7.9,2.4,10.9c2.1,3.2,3.4,6.9,4.2,10.7c0.4,2,0.1,4.3,0.9,6.7
		c0.7,2.1,2.7,3.5,5,3.5h3.6c2.4,0,4.2-2.3,3.5-4.6c-1-3.3-1.1-8-0.9-13.2"/>
	<path class="st1" d="M68.1,75.6C94.3,71,97,58.4,97,53.6c0-1-0.8-1.8-1.9-1.8h-1.9C90,41.3,78.2,36,78.2,36c0.3-3,2.4-6.5,3.7-8.3
		c0.4-0.6-0.1-1.3-0.8-1.2c-4.9,0.6-8.8,1.7-12,4.3c-3.4-1.5-9.2-3.6-14.2-3.8"/>
	<path class="st0" d="M30.2,74.8c7.1,2.5,17,2.5,17.2,2.5c2,0,3.9-0.1,5.8-0.2c1.6-0.1,3.1,0.9,3.6,2.5c0.2,0.5,0.3,1,0.5,1.5
		c0.5,1.4,1.9,2.4,3.4,2.4h4.7c2.5,0,4.2-2.4,3.5-4.8c-0.5-1.7-1.7-8.8-1.5-13.4"/>
	<path class="st1" d="M83.2,47c0-0.6-0.5-1.1-1.1-1.1c-0.6,0-1.1,0.5-1.1,1.1c0,0.6,0.5,1.1,1.1,1.1C82.7,48.1,83.2,47.6,83.2,47z"
		/>
	<path class="st0" d="M76.9,47.8c0,2.4,1.9,4.4,4.4,4.4"/>
	<path class="st0" d="M93.2,51.8c0,0,0.2,3-1.2,5.7"/>
	<path class="st0" d="M28.6,36.8c0,0,12.1-7.9,29.4-2.8"/>
	<path class="st0" d="M54.5,32.9c0.4-1.3,0.7-2.6,0.7-4c0-6.9-5.6-12.4-12.4-12.4c-6.9,0-12.4,5.6-12.4,12.4c0,2.2,0.6,4.3,1.6,6.1"
		/>
	<path class="st0" d="M69.1,30.7c0,0-2,1.8-3.4,4.1"/>
	<path class="st0" d="M11.4,49.6c-1.8,2.1-4.9,2.3-6.9,0.6c-1.7-1.4-2-3.8-0.6-5.4c1.1-1.3,2.9-1.5,4.2-0.3c0.9,0.9,1,2.4,0.2,3.2"
		/>
</g>
</svg>
