<?xml version="1.0" encoding="utf-8"?>
<!-- Generator: Adobe Illustrator 22.0.1, SVG Export Plug-In . SVG Version: 6.00 Build 0)  -->
<svg version="1.1" id="Layer_1" xmlns="http://www.w3.org/2000/svg" xmlns:xlink="http://www.w3.org/1999/xlink" x="0px" y="0px"
	 viewBox="0 0 130 130" style="enable-background:new 0 0 130 130;" xml:space="preserve">
<style type="text/css">
	.st0{fill:#20295C;}
</style>
<g>
	<path class="st0" d="M7,55h4.3l0,0c-0.3,0.4-0.4,0.6-0.4,0.6H9.8c0.2,0.2,0.3,0.4,0.3,0.7h1.2c0,0,0,0,0,0
		c-0.3,0.4-0.4,0.6-0.4,0.6h-0.8c0,0.2-0.1,0.5-0.3,0.8c-0.3,0.3-0.5,0.5-0.7,0.6c-0.4,0.2-0.8,0.3-1.2,0.3l0,0c0,0,0.9,1,2.6,3.1
		H9.4c-1.7-1.9-2.5-2.9-2.5-2.9v-0.6v0c0.2,0,0.3,0,0.5,0c0.9,0,1.5-0.3,1.7-0.9c0-0.1,0.1-0.2,0.1-0.3H6.6c0,0,0,0,0,0
		C6.9,56.5,7,56.3,7,56.3h2l0,0c-0.1-0.2-0.4-0.4-0.7-0.5c-0.2-0.1-0.5-0.1-0.6-0.1H6.6v0C6.9,55.2,7,55,7,55z"/>
</g>
<g>
	<path class="st0" d="M29,55h4.3l0,0c-0.3,0.4-0.4,0.6-0.4,0.6h-1.1c0.2,0.2,0.3,0.4,0.3,0.7h1.2c0,0,0,0,0,0
		c-0.3,0.4-0.4,0.6-0.4,0.6h-0.8c0,0.2-0.1,0.5-0.3,0.8c-0.3,0.3-0.5,0.5-0.7,0.6c-0.4,0.2-0.8,0.3-1.2,0.3l0,0c0,0,0.9,1,2.6,3.1
		h-1.1c-1.7-1.9-2.5-2.9-2.5-2.9v-0.6v0c0.2,0,0.3,0,0.5,0c0.9,0,1.5-0.3,1.7-0.9c0-0.1,0.1-0.2,0.1-0.3h-2.6c0,0,0,0,0,0
		c0.3-0.4,0.4-0.6,0.4-0.6h2l0,0c-0.1-0.2-0.4-0.4-0.7-0.5c-0.2-0.1-0.5-0.1-0.6-0.1h-1.1v0C28.9,55.2,29,55,29,55z"/>
</g>
<g>
	<path class="st0" d="M51,55h4.3l0,0c-0.3,0.4-0.4,0.6-0.4,0.6h-1.1c0.2,0.2,0.3,0.4,0.3,0.7h1.2c0,0,0,0,0,0
		c-0.3,0.4-0.4,0.6-0.4,0.6h-0.8c0,0.2-0.1,0.5-0.3,0.8c-0.3,0.3-0.5,0.5-0.7,0.6c-0.4,0.2-0.8,0.3-1.2,0.3l0,0c0,0,0.9,1,2.6,3.1
		h-1.1c-1.7-1.9-2.5-2.9-2.5-2.9v-0.6v0c0.2,0,0.3,0,0.5,0c0.9,0,1.5-0.3,1.7-0.9c0-0.1,0.1-0.2,0.1-0.3h-2.6c0,0,0,0,0,0
		c0.3-0.4,0.4-0.6,0.4-0.6h2l0,0c-0.1-0.2-0.4-0.4-0.7-0.5c-0.2-0.1-0.5-0.1-0.6-0.1h-1.1v0C50.9,55.2,51,55,51,55z"/>
</g>
<g>
	<path class="st0" d="M73,55h4.3l0,0c-0.3,0.4-0.4,0.6-0.4,0.6h-1.1c0.2,0.2,0.3,0.4,0.3,0.7h1.2c0,0,0,0,0,0
		c-0.3,0.4-0.4,0.6-0.4,0.6h-0.8c0,0.2-0.1,0.5-0.3,0.8c-0.3,0.3-0.5,0.5-0.7,0.6c-0.4,0.2-0.8,0.3-1.2,0.3l0,0c0,0,0.9,1,2.6,3.1
		h-1.1c-1.7-1.9-2.5-2.9-2.5-2.9v-0.6v0c0.2,0,0.3,0,0.5,0c0.9,0,1.5-0.3,1.7-0.9c0-0.1,0.1-0.2,0.1-0.3h-2.6c0,0,0,0,0,0
		c0.3-0.4,0.4-0.6,0.4-0.6h2l0,0c-0.1-0.2-0.4-0.4-0.7-0.5c-0.2-0.1-0.5-0.1-0.6-0.1h-1.1v0C72.9,55.2,73,55,73,55z"/>
</g>
<g>
	<path class="st0" d="M95,55h4.3l0,0c-0.3,0.4-0.4,0.6-0.4,0.6h-1.1c0.2,0.2,0.3,0.4,0.3,0.7h1.2c0,0,0,0,0,0
		c-0.3,0.4-0.4,0.6-0.4,0.6h-0.8c0,0.2-0.1,0.5-0.3,0.8c-0.3,0.3-0.5,0.5-0.7,0.6c-0.4,0.2-0.8,0.3-1.2,0.3l0,0c0,0,0.9,1,2.6,3.1
		h-1.1c-1.7-1.9-2.5-2.9-2.5-2.9v-0.6v0c0.2,0,0.3,0,0.5,0c0.9,0,1.5-0.3,1.7-0.9c0-0.1,0.1-0.2,0.1-0.3h-2.6c0,0,0,0,0,0
		c0.3-0.4,0.4-0.6,0.4-0.6h2l0,0c-0.1-0.2-0.4-0.4-0.7-0.5c-0.2-0.1-0.5-0.1-0.6-0.1h-1.1v0C94.9,55.2,95,55,95,55z"/>
</g>
<path class="st0" d="M12.8,81.4H5.9C5.4,81.4,5,81,5,80.6V64.3c0-0.5,0.4-0.9,0.9-0.9h6.9c0.5,0,0.9,0.4,0.9,0.9v16.3
	C13.6,81,13.2,81.4,12.8,81.4z M6.7,79.7h5.1V65.2H6.7V79.7z"/>
<path class="st0" d="M34.6,81.4h-6.9c-0.5,0-0.9-0.4-0.9-0.9V64.3c0-0.5,0.4-0.9,0.9-0.9h6.9c0.5,0,0.9,0.4,0.9,0.9v16.3
	C35.5,81,35.1,81.4,34.6,81.4z M28.6,79.7h5.1V65.2h-5.1V79.7z"/>
<path class="st0" d="M56.5,81.4h-6.9c-0.5,0-0.9-0.4-0.9-0.9V64.3c0-0.5,0.4-0.9,0.9-0.9h6.9c0.5,0,0.9,0.4,0.9,0.9v16.3
	C57.4,81,57,81.4,56.5,81.4z M50.5,79.7h5.1V65.2h-5.1V79.7z"/>
<path class="st0" d="M78.4,81.4h-6.9c-0.5,0-0.9-0.4-0.9-0.9V64.3c0-0.5,0.4-0.9,0.9-0.9h6.9c0.5,0,0.9,0.4,0.9,0.9v16.3
	C79.3,81,78.9,81.4,78.4,81.4z M72.4,79.7h5.1V65.2h-5.1V79.7z"/>
<path class="st0" d="M111,80.8c-0.2,0-0.3,0-0.4-0.1c-0.3-0.2-0.4-0.4-0.4-0.8V64.8c0-0.3,0.2-0.6,0.4-0.8c0.3-0.2,0.6-0.2,0.9,0
	l13.1,7.6c0.3,0.2,0.4,0.4,0.4,0.8c0,0.3-0.2,0.6-0.4,0.8l-13.1,7.6C111.3,80.8,111.2,80.8,111,80.8z M111.9,66.3v12.1l10.5-6
	L111.9,66.3z"/>
<path class="st0" d="M100.3,81.4h-6.9c-0.5,0-0.9-0.4-0.9-0.9V64.3c0-0.5,0.4-0.9,0.9-0.9h6.9c0.5,0,0.9,0.4,0.9,0.9v16.3
	C101.1,81,100.8,81.4,100.3,81.4z M94.3,79.7h5.1V65.2h-5.1V79.7z"/>
<rect x="100.3" y="71.5" class="st0" width="10.8" height="1.7"/>
<rect x="56.5" y="71.5" class="st0" width="15" height="1.7"/>
<rect x="12.8" y="71.5" class="st0" width="15" height="1.7"/>
<rect x="34.6" y="71.5" class="st0" width="15" height="1.7"/>
<rect x="78.4" y="71.5" class="st0" width="15" height="1.7"/>
</svg>
