<?xml version="1.0" encoding="utf-8"?>
<!-- Generator: Adobe Illustrator 22.0.1, SVG Export Plug-In . SVG Version: 6.00 Build 0)  -->
<svg version="1.1" id="Layer_1" xmlns="http://www.w3.org/2000/svg" xmlns:xlink="http://www.w3.org/1999/xlink" x="0px" y="0px"
	 viewBox="0 0 130 130" style="enable-background:new 0 0 130 130;" xml:space="preserve">
<style type="text/css">
	.st0{fill:#212E5C;}
</style>
<g>
	<path class="st0" d="M31.2,36H43v0c-0.7,1.1-1.1,1.6-1.2,1.7h-3.2c0.4,0.5,0.7,1.1,0.9,1.9h3.4c0,0,0.1,0,0.1,0
		c-0.8,1.1-1.1,1.7-1.2,1.7h-2.2c0,0.6-0.3,1.3-0.8,2.1c-0.7,0.8-1.3,1.4-1.9,1.6c-1.1,0.5-2.2,0.8-3.3,0.8v0c0,0.1,2.4,2.9,7.1,8.5
		h-3.1c-4.6-5.4-6.9-8.1-6.9-8.1v-1.6l0-0.1c0.4,0.1,0.9,0.1,1.4,0.1c2.6,0,4.2-0.8,4.8-2.5c0.1-0.2,0.1-0.5,0.1-0.8h-7c0,0,0,0,0,0
		c0.8-1.1,1.2-1.7,1.2-1.7h5.6v0c-0.3-0.6-0.9-1.2-1.9-1.5c-0.7-0.2-1.2-0.3-1.8-0.3H30v-0.1C30.7,36.6,31.1,36,31.2,36z"/>
</g>
<path class="st0" d="M80.7,22.9v82.8c0,0.7,0.6,1.3,1.3,1.3c0.7,0,1.3-0.6,1.3-1.3V22.9c0-1.1,0.9-1.9,1.9-1.9h17.1
	c1.1,0,1.9,0.9,1.9,1.9v82.8c0,0.7,0.6,1.3,1.3,1.3c0.7,0,1.3-0.6,1.3-1.3V22.9c0-2.5-2-4.5-4.5-4.5H85.2
	C82.7,18.4,80.7,20.4,80.7,22.9z"/>
<path class="st0" d="M56.6,53.7c-2.5,0-4.5,2-4.5,4.5v47.5c0,0.7,0.6,1.3,1.3,1.3c0.7,0,1.3-0.6,1.3-1.3V58.2c0-1.1,0.9-1.9,1.9-1.9
	h17.1c1.1,0,1.9,0.9,1.9,1.9v47.5c0,0.7,0.6,1.3,1.3,1.3c0.7,0,1.3-0.6,1.3-1.3V58.2c0-2.5-2-4.5-4.5-4.5H56.6z"/>
<path class="st0" d="M44.8,68.5H27.7c-2.5,0-4.5,2-4.5,4.5v32.8c0,0.7,0.6,1.3,1.3,1.3c0.7,0,1.3-0.6,1.3-1.3V73
	c0-1.1,0.9-1.9,1.9-1.9h17.1c1.1,0,1.9,0.9,1.9,1.9v32.8c0,0.7,0.6,1.3,1.3,1.3c0.7,0,1.3-0.6,1.3-1.3V73
	C49.3,70.5,47.3,68.5,44.8,68.5z"/>
<path class="st0" d="M16.4,110.3c0,0.7,0.6,1.3,1.3,1.3h94.6c0.7,0,1.3-0.6,1.3-1.3V21.8c0-0.7-0.6-1.3-1.3-1.3
	c-0.7,0-1.3,0.6-1.3,1.3V109H17.7C17,109,16.4,109.6,16.4,110.3z"/>
<path class="st0" d="M17.9,44.3c0,10.1,8.2,18.4,18.4,18.4c10.1,0,18.4-8.2,18.4-18.4c0-10.1-8.2-18.4-18.4-18.4
	C26.1,25.9,17.9,34.2,17.9,44.3z M36.2,28.5C45,28.5,52,35.6,52,44.3C52,53,45,60.1,36.2,60.1c-8.7,0-15.8-7.1-15.8-15.8
	C20.5,35.6,27.5,28.5,36.2,28.5z"/>
</svg>
