<?xml version="1.0" encoding="utf-8"?>
<!-- Generator: Adobe Illustrator 22.0.1, SVG Export Plug-In . SVG Version: 6.00 Build 0)  -->
<svg version="1.1" id="Layer_1" xmlns="http://www.w3.org/2000/svg" xmlns:xlink="http://www.w3.org/1999/xlink" x="0px" y="0px"
	 viewBox="0 0 130 130" style="enable-background:new 0 0 130 130;" xml:space="preserve">
<style type="text/css">
	.st0{fill:#212B5C;}
	.st1{fill:#FFFFFF;}
	.st2{fill:#202C5C;}
</style>
<g>
	<path class="st0" d="M65.1,42.8c-1.5,0-2.8,0.5-3.9,1.2v-8.7c0-3.7-3.1-6.7-6.9-6.7c-1.5,0-2.8,0.5-3.9,1.2v-2.5
		c0-3.7-3.1-6.7-6.9-6.7c-3.8,0-6.9,3-6.9,6.7v4.1c-1.1-0.8-2.5-1.2-3.9-1.2c-3.8,0-6.9,3-6.9,6.7v28.2c-2.6-3.4-6.6-7.1-11.5-7.6
		c-1.5-0.2-5.7-0.6-6.9,2.9c-0.9,3.1,1.2,6.1,3,7.9c0.1,0.1,5.6,7.4,6.9,10.8c0.2,0.6,0.5,1.3,0.8,2.1c2.6,7.4,8.7,24.8,28.4,24.8
		c14.1,0,25.7-11.5,25.7-25.7V49.5C72,45.8,68.9,42.8,65.1,42.8z M69,80.3C69,92.8,58.8,103,46.3,103c-17.6,0-23-15.4-25.6-22.8
		c-0.3-0.9-0.6-1.6-0.8-2.2c-1.5-3.7-7.1-11.2-7.5-11.6c-0.9-0.9-3-3.3-2.4-5.1c0.3-0.9,1.4-1.2,3.8-0.9c5.7,0.6,10.5,7.3,12,10.4
		c0.3,0.6,1,1,1.7,0.8c0.7-0.1,1.2-0.7,1.2-1.4V36.9c0-2.1,1.8-3.7,3.9-3.7c2.2,0,3.9,1.7,3.9,3.7v24.8c0,0.8,0.7,1.5,1.5,1.5
		c0.8,0,1.5-0.7,1.5-1.5V36.9v-9.5c0-2.1,1.8-3.7,3.9-3.7c2.2,0,4,1.7,4,3.7v34.4c0,0.8,0.7,1.5,1.5,1.5s1.5-0.7,1.5-1.5V35.3
		c0-2.1,1.8-3.7,3.9-3.7c2.2,0,3.9,1.7,3.9,3.7v29.9c0,0.8,0.7,1.5,1.5,1.5s1.5-0.7,1.5-1.5V49.5c0-2.1,1.8-3.7,3.9-3.7
		c2.2,0,3.9,1.7,3.9,3.7V80.3z"/>
	<path class="st0" d="M70.7,105.9c-14.5,0-26.3-11.8-26.3-26.3c0-14.5,11.8-26.3,26.3-26.3C85.2,53.3,97,65.1,97,79.6
		C97,94.1,85.2,105.9,70.7,105.9L70.7,105.9z M70.7,56.2c-12.9,0-23.4,10.5-23.4,23.4c0,12.9,10.5,23.4,23.4,23.4
		c12.9,0,23.4-10.5,23.4-23.4C94.1,66.7,83.6,56.2,70.7,56.2L70.7,56.2z"/>
	<path class="st0" d="M86.3,76.9c-0.3,0-0.5-0.1-0.8-0.2c-0.4-0.3-0.7-0.7-0.7-1.3V59.1c0-0.5,0.3-1.1,0.8-1.3l4.6-2.4
		c-0.1-1.3-0.1-2.7-0.1-4c0-19.2,12.1-34.4,12.6-35.1c0.3-0.4,0.7-0.6,1.2-0.6l0,0c0.5,0,0.9,0.2,1.2,0.6
		c0.5,0.6,12.6,15.9,12.6,35.1c0,1.3,0,2.7-0.1,4l4.7,2.5c0.5,0.3,0.8,0.8,0.8,1.3v16.3c0,0.5-0.3,1-0.7,1.3c-0.4,0.3-1,0.3-1.5,0
		l-6.1-3.2c-0.2,0.8-0.5,1.7-0.8,2.4c-0.2,0.6-0.8,1-1.4,1H95.1c-0.6,0-1.2-0.4-1.4-1c-0.3-0.7-0.5-1.5-0.8-2.4l-6,3.2
		C86.8,76.8,86.6,76.9,86.3,76.9L86.3,76.9z M96.2,73.9h15.3c0.3-0.9,0.6-2,0.9-3c0.1-0.4,0.4-0.8,0.8-1c0.4-0.2,0.9-0.2,1.3,0
		l5.6,3V60l-4.8-2.5c-0.5-0.3-0.8-0.8-0.8-1.4c0.1-1.6,0.1-3.1,0.1-4.7c0-14.7-7.8-27.3-10.8-31.6c-3,4.3-10.8,16.9-10.8,31.6
		c0,1.6,0.1,3.2,0.1,4.8c0,0.6-0.3,1.1-0.8,1.4L87.8,60V73l5.4-2.9c0.4-0.2,0.9-0.2,1.3,0c0.4,0.2,0.7,0.5,0.8,1
		C95.6,72,95.9,73,96.2,73.9L96.2,73.9z"/>
	<path class="st0" d="M72.3,114.2c-0.8,0-1.4-0.6-1.5-1.4c0-0.8,0.6-1.5,1.4-1.5c2-0.1,3.9-0.4,5.9-0.8c0.8-0.2,1.6,0.3,1.8,1.1
		c0.2,0.8-0.3,1.6-1.1,1.8C76.7,113.8,74.5,114.1,72.3,114.2C72.4,114.2,72.4,114.2,72.3,114.2L72.3,114.2z"/>
	<path class="st0" d="M83.7,111.6c-0.6,0-1.1-0.3-1.4-0.9c-0.3-0.8,0-1.6,0.8-1.9c1.8-0.8,3.5-1.7,5.2-2.8c0.7-0.4,1.6-0.3,2.1,0.4
		c0.5,0.7,0.3,1.6-0.4,2.1c-1.8,1.2-3.7,2.2-5.6,3C84.1,111.6,83.9,111.6,83.7,111.6L83.7,111.6z"/>
	<path class="st0" d="M93.8,104.9c-0.4,0-0.8-0.2-1.1-0.5c-0.6-0.6-0.6-1.5,0-2.1c1.2-1.2,2.3-2.4,3.3-3.8c0.5-0.7,1.4-0.8,2.1-0.3
		c0.7,0.5,0.8,1.4,0.3,2.1c-1.1,1.5-2.3,2.9-3.6,4.1C94.5,104.8,94.2,104.9,93.8,104.9L93.8,104.9z"/>
	<path class="st0" d="M100.1,96.6c-0.2,0-0.5-0.1-0.7-0.2c-0.7-0.4-1-1.3-0.6-2c0.8-1.6,1.5-3.2,2.1-4.8c0.3-0.8,1.1-1.2,1.9-0.9
		c0.8,0.3,1.2,1.1,0.9,1.9c-0.6,1.8-1.4,3.6-2.3,5.3C101.1,96.3,100.6,96.6,100.1,96.6L100.1,96.6z"/>
	<path class="st0" d="M103.5,86.5c-0.1,0-0.2,0-0.2,0c-0.8-0.1-1.4-0.9-1.2-1.7c0.3-1.7,0.4-3.4,0.4-5.2c0-0.8,0.7-1.5,1.5-1.5
		c0.8,0,1.5,0.7,1.5,1.5c0,1.9-0.2,3.8-0.5,5.7C104.8,86,104.2,86.5,103.5,86.5L103.5,86.5z"/>
	<path class="st1" d="M95.6,79.6c0,13.7-11.1,24.9-24.8,24.9c-13.7,0-24.9-11.1-24.9-24.9c0-13.7,11.1-24.9,24.9-24.9
		C84.4,54.7,95.6,65.9,95.6,79.6z"/>
	<g>
		<path class="st2" d="M63.6,68h16.9l0,0c-1,1.5-1.6,2.3-1.7,2.5h-4.5c0.6,0.7,1,1.6,1.3,2.6h4.8c0.1,0,0.1,0,0.1,0.1
			c-1.1,1.6-1.6,2.4-1.6,2.4h-3.1c-0.1,0.8-0.5,1.8-1.2,3c-1,1.2-1.9,1.9-2.8,2.3c-1.6,0.8-3.2,1.2-4.7,1.2l0,0
			c0,0.1,3.4,4.1,10.1,12h-4.5c-6.6-7.7-9.9-11.5-9.9-11.6v-2.3v-0.1c0.6,0.1,1.3,0.1,2.1,0.1c3.7,0,6-1.2,6.9-3.6
			c0.1-0.4,0.2-0.7,0.2-1.1H62c0,0-0.1,0-0.1-0.1c1.1-1.6,1.7-2.4,1.7-2.4h8l0,0c-0.5-0.9-1.3-1.6-2.6-2.2c-1-0.2-1.9-0.3-2.6-0.3
			h-4.5v-0.1C63,68.8,63.5,68,63.6,68z"/>
	</g>
</g>
</svg>
