<?xml version="1.0" encoding="utf-8"?>
<!-- Generator: Adobe Illustrator 22.0.1, SVG Export Plug-In . SVG Version: 6.00 Build 0)  -->
<svg version="1.1" id="Layer_1" xmlns="http://www.w3.org/2000/svg" xmlns:xlink="http://www.w3.org/1999/xlink" x="0px" y="0px"
	 viewBox="0 0 100 100" style="enable-background:new 0 0 100 100;" xml:space="preserve">
<style type="text/css">
	.st0{fill:none;stroke:#FFFFFF;stroke-width:2;stroke-linecap:round;stroke-miterlimit:10;}
</style>
<g>
	<path class="st0" d="M94,48.5v38.6c0,2.1-1.7,3.7-3.7,3.7H9.7c-2.1,0-3.7-1.7-3.7-3.7V48.5"/>
	<path class="st0" d="M44.5,52c-13.4-0.3-26.9-1.5-40.2-3.8C3.6,48.1,3,47.4,3,46.6c0-7.2,0-14.4,0-21.7c0-2.1,1.7-3.7,3.7-3.7h86.6
		c2.1,0,3.7,1.7,3.7,3.7v21.7c0,0.8-0.6,1.5-1.4,1.6c-13.3,2.3-26.7,3.5-40.2,3.8"/>
	<path class="st0" d="M53.9,46.6h-7.7c-0.9,0-1.6,0.7-1.6,1.6v7.7c0,0.9,0.7,1.6,1.6,1.6h7.7c0.9,0,1.6-0.7,1.6-1.6v-7.7
		C55.5,47.3,54.8,46.6,53.9,46.6z"/>
	<line class="st0" x1="48.3" y1="52.1" x2="51.7" y2="52.1"/>
	<line class="st0" x1="44.5" y1="62.2" x2="55.5" y2="62.2"/>
	<path class="st0" d="M70.5,21.2v-7.7c0-2.4-1.9-4.4-4.4-4.4H33.9c-2.4,0-4.4,1.9-4.4,4.4v7.7"/>
	<path class="st0" d="M35.9,21.2v-5.8c0-0.3,0.2-0.5,0.5-0.5h27.2c0.3,0,0.5,0.2,0.5,0.5v5.8"/>
</g>
</svg>
