<?xml version="1.0" encoding="utf-8"?>
<!-- Generator: Adobe Illustrator 22.0.1, SVG Export Plug-In . SVG Version: 6.00 Build 0)  -->
<svg version="1.1" id="Layer_1" xmlns="http://www.w3.org/2000/svg" xmlns:xlink="http://www.w3.org/1999/xlink" x="0px" y="0px"
	 viewBox="0 0 130 130" style="enable-background:new 0 0 130 130;" xml:space="preserve">
<style type="text/css">
	.st0{fill:#212E5C;}
</style>
<g>
	<path class="st0" d="M24.2,110.6c-3.9,0-7-1.6-8.7-4.3c-2-2.9-2-6.9,0-11.1v-0.1l39.8-68.9c2.6-4.5,6-6.9,9.8-6.9
		c3.6,0,7.1,2.5,9.7,6.9L114,94.3c2.4,4,2.7,8.3,0.8,11.6c-1.2,2.2-4.1,4.8-10.2,4.8c-0.1,0-0.2,0-0.3,0H24.5
		C24.4,110.6,24.3,110.6,24.2,110.6z M17.7,96.3c-1.6,3.4-1.7,6.6-0.2,8.8c1.4,2.1,4,3.2,7.1,3.2l0,0h79.8c4.2,0.1,7.1-1.1,8.4-3.6
		c1.5-2.5,1.1-6-0.8-9.2l0,0L72.8,27.5c-2.1-3.6-4.9-5.7-7.6-5.7l0,0c-2.8,0-5.6,2-7.7,5.7L17.7,96.3z M65.1,103.9
		c-0.1,0-0.2,0-0.3,0c-1.2,0-2.4-0.3-3.4-0.8c-2-0.9-3.5-2.5-4.4-4.6l0,0c-0.2-0.7-0.4-1.4-0.5-2.1c-0.1-0.7-0.1-1.5,0-2.1
		c0.1-0.9,0.4-2,0.8-2.9c0.3-0.8,0.8-1.6,1.5-2.2c0.1-0.1,0.1-0.1,0.2-0.2c2.4-2.4,6-3.1,9.2-1.9c1.1,0.4,2.2,1.1,3,2
		c1.5,1.5,2.4,3.4,2.5,5.5c0.1,0.7,0,1.5-0.1,2.2c-0.1,0.7-0.3,1.4-0.6,2.1C71.5,101.9,68.5,103.9,65.1,103.9z M59.2,97.6
		c0.6,1.5,1.8,2.6,3.1,3.3c0.8,0.4,1.7,0.6,2.5,0.6l0,0c0.1,0,0.1,0,0.2,0c2.5,0,4.7-1.5,5.7-3.6l0,0c0.2-0.5,0.4-1,0.5-1.5l0,0
		c0.1-0.5,0.1-1,0.1-1.6l0,0c-0.1-1.6-0.7-2.9-1.8-4c-0.6-0.6-1.4-1.1-2.3-1.5c-2.3-0.9-4.9-0.3-6.7,1.4L60.6,91l-0.1,0.1
		c-0.4,0.4-0.8,0.9-1,1.6l0,0c-0.3,0.7-0.5,1.5-0.6,2.2l0,0c-0.1,0.5-0.1,1,0,1.6C58.9,96.6,59,97.1,59.2,97.6z M65,85.1
		c-4.1,0-7.2-2.7-7.4-6.6l-0.3-3c-0.9-8.7-2.4-23.5-2.3-30l0,0c0.1-3.7,2.7-6.5,7-7.4c1-0.2,2-0.3,3-0.3c1,0,2,0.1,3,0.3l0,0
		c4.4,0.9,7.1,3.7,7.1,7.5v0.2c0,0.1,0,0.2,0,0.3l-2.6,32.4c0,0.1,0,0.2,0,0.3c-0.2,1.8-1,3.3-2.4,4.5C68.7,84.5,66.9,85.1,65,85.1z
		 M57.3,45.6c-0.1,6.3,1.5,20.9,2.3,29.7l0.3,3.1c0.1,2.6,2.2,4.4,5,4.4c2.7,0,4.8-1.7,5-4.1v-0.1v-0.1l2.6-32.4V46v-0.2
		c0-2.6-1.9-4.5-5.2-5.2c-0.8-0.2-1.7-0.2-2.5-0.2l0,0c-0.8,0-1.7,0.1-2.5,0.2C59.3,41.2,57.4,43.1,57.3,45.6z"/>
</g>
</svg>
