<?xml version="1.0" encoding="utf-8"?>
<!-- Generator: Adobe Illustrator 22.0.1, SVG Export Plug-In . SVG Version: 6.00 Build 0)  -->
<svg version="1.1" id="Layer_1" xmlns="http://www.w3.org/2000/svg" xmlns:xlink="http://www.w3.org/1999/xlink" x="0px" y="0px"
	 viewBox="0 0 100 100" style="enable-background:new 0 0 100 100;" xml:space="preserve">
<style type="text/css">
	.st0{fill:#FFFFFF;}
</style>
<g>
	<path class="st0" d="M54.9,10.9c0-0.1,0-0.1,0.1-0.2c-0.1-0.1-0.1-0.3-0.1-0.4h-9.3c0,0.3-0.1,0.7-0.4,0.9h9.6
		C54.9,11,54.9,10.9,54.9,10.9z"/>
	<path class="st0" d="M31.2,10.2h-9.3c0,0.1,0,0.2-0.1,0.4c0,0.1,0.1,0.2,0.1,0.3c0,0,0,0.1,0,0.2h9.3
		C31.2,10.8,31.2,10.5,31.2,10.2z"/>
	<path class="st0" d="M56.2,11.5c-0.5,0-1-0.3-1.2-0.8c0,0.1,0,0.1-0.1,0.2c0,0,0,0.1-0.1,0.2c-0.2,1-1.5,5-5.9,8.6h1.9
		c0.6,0,1.1,0.1,1.6,0.3c4.1-4.2,4.9-8.4,5-8.7c0-0.2,0-0.5-0.1-0.7C57.2,11.1,56.7,11.5,56.2,11.5z"/>
	<path class="st0" d="M25.7,19.7h1.7c-4.2-3.5-5.3-7.7-5.5-8.6c0-0.1,0-0.2,0-0.2c0-0.1-0.1-0.2-0.1-0.3c-0.2,0.5-0.6,0.9-1.2,0.9
		c-0.5,0-1-0.3-1.2-0.7c-0.1,0.2-0.1,0.4,0,0.5c0,0.3,0.7,4.7,4.7,8.8C24.6,19.8,25.1,19.7,25.7,19.7z"/>
	<path class="st0" d="M20.7,11.5c0.6,0,1.1-0.4,1.2-0.9c0-0.1,0.1-0.2,0.1-0.4c0-2.6,2.1-4.6,4.6-4.6c2.6,0,4.6,2.1,4.6,4.6
		c0-1.5,0.5-2.9,1.3-4.1C31.2,4.2,29,3,26.6,3c-4,0-7.2,3.2-7.2,7.2c0,0.2,0,0.4,0.1,0.5C19.7,11.2,20.1,11.5,20.7,11.5z"/>
	<path class="st0" d="M31.2,10.2c0,0.3,0,0.6,0.1,0.9c0.4,3.6,3.5,6.3,7.1,6.3c0.7,0,1.3-0.6,1.3-1.3c0-0.4-0.1-0.7-0.4-0.9
		c-0.2-0.2-0.6-0.4-0.9-0.4c-2.6,0-4.6-2.1-4.6-4.6c0-2.6,2.1-4.6,4.6-4.6c2.6,0,4.6,2.1,4.6,4.6c0-1.5,0.5-2.9,1.3-4.1
		C43,4.2,40.9,3,38.4,3c-2.5,0-4.6,1.2-5.9,3.1C31.7,7.3,31.2,8.7,31.2,10.2z"/>
	<path class="st0" d="M43.1,10.2c0,0.4,0.1,0.7,0.4,0.9c0.2,0.2,0.5,0.4,0.9,0.4c0.4,0,0.7-0.1,0.9-0.4c0.2-0.2,0.4-0.5,0.4-0.9
		c0-2.6,2.1-4.6,4.6-4.6c2.6,0,4.6,2.1,4.6,4.6c0,0.2,0,0.3,0.1,0.4c0.2,0.5,0.6,0.8,1.2,0.8c0.6,0,1-0.3,1.2-0.8
		c0.1-0.1,0.1-0.3,0.1-0.4c0-4-3.2-7.2-7.2-7.2c-2.5,0-4.6,1.2-5.9,3.1C43.5,7.3,43.1,8.7,43.1,10.2z"/>
	<path class="st0" d="M51.2,27.5c12.3,5.1,21,17.2,21,31.3c0,1.6-0.1,3.1-0.3,4.6c0.9-0.1,1.7-0.1,2.6-0.2c0.2-1.5,0.3-2.9,0.3-4.4
		c0-14.5-8.5-27-20.8-32.9C53.4,26.8,52.4,27.4,51.2,27.5z"/>
	<path class="st0" d="M19.4,86.9c-9-6.1-14.9-16.4-14.9-28c0-14.1,8.7-26.2,21-31.3c-1.2,0-2.2-0.6-2.9-1.5C10.4,31.9,2,44.4,2,58.8
		C2,72,9,83.5,19.4,89.9c0,0,0,0,0-0.1V86.9z"/>
	<path class="st0" d="M25.6,27.5c0.1,0,0.1,0,0.2,0h25.2c0.1,0,0.2,0,0.3,0c1.1-0.1,2.1-0.7,2.8-1.6c0.5-0.7,0.8-1.5,0.8-2.3
		c0-1.6-1-3-2.4-3.6c-0.5-0.2-1-0.3-1.6-0.3H49H27.5h-1.7c-0.6,0-1.1,0.1-1.6,0.4c-1.3,0.6-2.3,2-2.3,3.6c0,0.9,0.3,1.7,0.8,2.4
		C23.3,26.9,24.4,27.5,25.6,27.5z M24.4,23.6c0-0.7,0.6-1.4,1.4-1.4h25.2c0.7,0,1.4,0.6,1.4,1.4c0,0.7-0.6,1.4-1.4,1.4H25.7
		C25,25,24.4,24.4,24.4,23.6z"/>
	<path class="st0" d="M95.4,85.8V88c0,1.6-6.3,4.6-17.9,4.6c-9.2,0-15.1-1.9-17.1-3.5v0.8c0,0.7-0.2,1.3-0.6,1.9
		c3.7,2.2,10.8,3.4,17.7,3.4C87.7,95.1,98,92.7,98,88v-5.9C98,83.5,97,84.7,95.4,85.8z"/>
	<path class="st0" d="M59.6,81.8v-1.9c-1.6-1-2.6-2.2-2.6-3.6v3.6C58.1,80.5,59,81.1,59.6,81.8z"/>
	<path class="st0" d="M95.4,79.9v2.2c0,1.6-6.3,4.6-17.9,4.6c-9.4,0-15.3-2-17.2-3.6c0.1,0.3,0.1,0.6,0.1,0.9v2.2
		c3.9,2,10.5,3,17.1,3c7.1,0,14.2-1.2,17.9-3.5c1.6-1,2.6-2.2,2.6-3.6v-5.9C98,77.7,97,78.9,95.4,79.9z"/>
	<path class="st0" d="M95.4,74v2.2c0,1.6-6.3,4.6-17.9,4.6c-11.6,0-17.9-3-17.9-4.6V74C58,73,57,71.8,57,70.4v5.9v0
		c0,1.4,1,2.6,2.6,3.6c3.7,2.3,10.8,3.5,17.9,3.5c7.1,0,14.2-1.2,17.9-3.5c1.6-1,2.6-2.2,2.6-3.6v0v-5.9C98,71.8,97,73,95.4,74z"/>
	<path class="st0" d="M72,63.5C63.9,64.2,57,66.5,57,70.4c0,1.4,1,2.6,2.6,3.6c3.7,2.3,10.8,3.5,17.9,3.5c7.1,0,14.2-1.2,17.9-3.5
		c1.6-1,2.6-2.2,2.6-3.6c0-4.7-10.3-7.1-20.5-7.1c-1,0-2,0-3,0.1C73.7,63.3,72.8,63.4,72,63.5z M95.4,70.4c0,1.6-6.3,4.6-17.9,4.6
		c-11.6,0-17.9-3-17.9-4.6c0-1.6,6.3-4.6,17.9-4.6C89.1,65.8,95.4,68.8,95.4,70.4z"/>
	<path class="st0" d="M60.4,89.9v-0.8v-2.9V84c0,1.4-1,2.6-2.6,3.6v2.2c0,1.6-6.3,4.6-17.9,4.6S22,91.4,22,89.9v-2.2
		c-1.6-1-2.6-2.2-2.6-3.6v2.9v3c0,0,0,0,0,0.1c0.1,4.7,10.3,7.1,20.5,7.1c8.7,0,17.5-1.8,19.9-5.3C60.2,91.2,60.4,90.5,60.4,89.9z"
		/>
	<path class="st0" d="M59.6,81.8c-0.6-0.7-1.5-1.4-2.6-2c-3.9-2-10.5-3-17.1-3c-10.2,0-20.5,2.5-20.5,7.1c0,1.4,1,2.6,2.6,3.6
		c3.7,2.3,10.8,3.5,17.9,3.5c7.1,0,14.2-1.2,17.9-3.5c1.6-1,2.6-2.2,2.6-3.6c0-0.3,0-0.6-0.1-0.9C60.2,82.7,59.9,82.2,59.6,81.8z
		 M22,84c0-1.6,6.3-4.6,17.9-4.6s17.9,3,17.9,4.6c0,1.5-6.3,4.6-17.9,4.6S22,85.5,22,84z"/>
</g>
<g>
	<path class="st0" d="M31.8,42.5H50v0c-1.1,1.7-1.7,2.5-1.8,2.6h-4.9c0.7,0.8,1.1,1.7,1.4,2.9h5.2c0.1,0,0.1,0,0.1,0.1
		c-1.2,1.7-1.8,2.6-1.8,2.6h-3.4c-0.1,0.9-0.5,2-1.3,3.2c-1,1.3-2,2.1-3,2.5c-1.8,0.8-3.5,1.3-5.1,1.3v0c0,0.1,3.7,4.5,11,13h-4.8
		C34.5,62.5,31,58.3,31,58.3v-2.5l0-0.1c0.6,0.1,1.4,0.1,2.2,0.1c4,0,6.5-1.3,7.4-3.9c0.2-0.4,0.2-0.8,0.2-1.2H30
		c-0.1,0-0.1,0-0.1-0.1c1.2-1.7,1.8-2.6,1.8-2.6h8.6v0c-0.5-1-1.4-1.8-2.9-2.3c-1-0.3-1.9-0.5-2.7-0.5H30v-0.1
		C31.2,43.4,31.8,42.5,31.8,42.5z"/>
</g>
</svg>
