<?xml version="1.0" encoding="utf-8"?>
<!-- Generator: Adobe Illustrator 22.0.1, SVG Export Plug-In . SVG Version: 6.00 Build 0)  -->
<svg version="1.1" id="Layer_1" xmlns="http://www.w3.org/2000/svg" xmlns:xlink="http://www.w3.org/1999/xlink" x="0px" y="0px"
	 viewBox="0 0 130 130" style="enable-background:new 0 0 130 130;" xml:space="preserve">
<style type="text/css">
	.st0{fill:none;stroke:#202D5C;stroke-width:2;stroke-linecap:round;stroke-linejoin:round;}
	.st1{fill:#FFFFFF;stroke:#202D5C;stroke-width:2;stroke-linecap:round;stroke-linejoin:round;}
	.st2{fill:#202C5C;}
</style>
<g>
	<g>
		<g>
			<rect x="22.9" y="29.8" class="st0" width="13.3" height="26.7"/>
			<path class="st1" d="M14.5,56.9l36.8-36c2.6-2.5,6.7-2.5,9.2,0.1l35.2,35.9V111H14.5V56.9z"/>
			<line class="st0" x1="14.5" y1="98" x2="95.7" y2="98"/>
			<rect x="45.9" y="70.6" class="st1" width="18.4" height="40.4"/>
			<circle class="st0" cx="55.1" cy="48.4" r="4.3"/>
			<line class="st0" x1="68.1" y1="70.6" x2="42.1" y2="70.6"/>
			<rect x="22.9" y="23.6" class="st0" width="13.3" height="6.2"/>
			<rect x="28" y="76" class="st1" width="6.8" height="13.5"/>
			<rect x="75.4" y="76" class="st1" width="6.8" height="13.5"/>
			<line class="st1" x1="60.5" y1="21" x2="103.7" y2="65.1"/>
			<line class="st1" x1="8" y1="63.3" x2="51.3" y2="20.9"/>
		</g>
		<g>
			<circle class="st1" cx="95" cy="56.5" r="27"/>
		</g>
	</g>
	<g>
		<path class="st2" d="M87.8,46h14.9l0,0c-0.9,1.3-1.4,2-1.5,2.2h-4c0.5,0.6,0.9,1.4,1.1,2.3h4.2c0.1,0,0.1,0,0.1,0.1
			c-1,1.4-1.4,2.1-1.4,2.1h-2.7c-0.1,0.7-0.4,1.6-1.1,2.7c-0.9,1.1-1.7,1.7-2.5,2c-1.4,0.7-2.8,1.1-4.2,1.1l0,0
			c0,0.1,3,3.6,8.9,10.6h-4c-5.8-6.8-8.8-10.2-8.8-10.3v-2v-0.1c0.5,0.1,1.1,0.1,1.9,0.1c3.3,0,5.3-1.1,6.1-3.2
			c0.1-0.4,0.2-0.6,0.2-1h-8.8c0,0-0.1,0-0.1-0.1c1-1.4,1.5-2.1,1.5-2.1h7.1l0,0c-0.4-0.8-1.1-1.4-2.3-1.9c-0.9-0.2-1.7-0.3-2.3-0.3
			h-4v-0.1C87.2,46.7,87.7,46,87.8,46z"/>
	</g>
</g>
</svg>
