<?xml version="1.0" encoding="utf-8"?>
<!-- Generator: Adobe Illustrator 22.0.1, SVG Export Plug-In . SVG Version: 6.00 Build 0)  -->
<svg version="1.1" id="Layer_1" xmlns="http://www.w3.org/2000/svg" xmlns:xlink="http://www.w3.org/1999/xlink" x="0px" y="0px"
	 viewBox="0 0 100 100" style="enable-background:new 0 0 100 100;" xml:space="preserve">
<style type="text/css">
	.st0{fill:#FFFFFF;}
</style>
<g>

		<rect x="23" y="45.3" transform="matrix(6.123234e-17 -1 1 6.123234e-17 -24.8495 73.8936)" class="st0" width="3.1" height="8.2"/>
	<path class="st0" d="M44.9,91c-13-9.3-21.5-24.5-21.5-41.6c0-17,8.4-32.2,21.3-41.4l2.9,4.9l2.7-1.6l-3-5.1l-2.3-3.9
		c-0.5,0.3-1.1,0.7-1.6,1c-0.3,0.2-0.7,0.5-1,0.7c-2.6,1.8-5,3.9-7.2,6.1c-2.5,2.5-4.8,5.3-6.8,8.2c-2,3-3.7,6.1-5.1,9.4
		c-1.4,3.4-2.5,6.9-3.2,10.4c-0.7,3.7-1.1,7.4-1.1,11.2s0.4,7.5,1.1,11.2c0.7,3.6,1.8,7.1,3.2,10.4c1.4,3.3,3.1,6.5,5.1,9.4
		c2,2.9,4.3,5.7,6.8,8.2c2.3,2.3,4.8,4.4,7.4,6.2h0c0.3,0.2,0.5,0.4,0.8,0.6c0.6,0.4,1.2,0.8,1.8,1.2l2.3-3.9l2.8-4.7l-2.7-1.6
		L44.9,91z"/>

		<rect x="29.1" y="69.9" transform="matrix(-0.5446 -0.8387 0.8387 -0.5446 -14.7002 139.9991)" class="st0" width="3.1" height="8.2"/>

		<rect x="29.1" y="21.1" transform="matrix(-0.5446 0.8387 -0.8387 -0.5446 68.5245 13.2829)" class="st0" width="3.1" height="8.2"/>
	<circle class="st0" cx="74.5" cy="49.4" r="6.5"/>
	<polygon class="st0" points="75.7,55.6 52.9,79.3 68.2,50.1 	"/>
	<path class="st0" d="M52.5,97.5V89h1.7v7.1h4.1v1.5H52.5z"/>
	<path class="st0" d="M59.1,93.3c0-1,0.2-1.9,0.5-2.5c0.4-0.7,0.8-1.2,1.4-1.5c0.6-0.3,1.3-0.5,2.1-0.5c1.2,0,2.1,0.4,2.9,1.2
		c0.7,0.8,1.1,1.9,1.1,3.3c0,1.4-0.4,2.6-1.2,3.4c-0.7,0.7-1.6,1.1-2.8,1.1c-1.2,0-2.1-0.4-2.8-1.1C59.5,95.8,59.1,94.7,59.1,93.3z
		 M60.8,93.2c0,1,0.2,1.7,0.7,2.2c0.4,0.5,1,0.7,1.6,0.7c0.7,0,1.2-0.2,1.6-0.7c0.4-0.5,0.6-1.2,0.6-2.3c0-1-0.2-1.7-0.6-2.2
		c-0.4-0.5-1-0.7-1.6-0.7c-0.7,0-1.2,0.2-1.6,0.7C61,91.5,60.8,92.2,60.8,93.2z"/>
	<path class="st0" d="M69.5,97.5l-2-8.6h1.7l1.2,5.9l1.5-5.9h2l1.4,6l1.3-6h1.7l-2,8.6h-1.8l-1.6-6.4l-1.6,6.4H69.5z"/>
</g>
</svg>
