<?xml version="1.0" encoding="utf-8"?>
<!-- Generator: Adobe Illustrator 22.0.1, SVG Export Plug-In . SVG Version: 6.00 Build 0)  -->
<svg version="1.1" id="Layer_1" xmlns="http://www.w3.org/2000/svg" xmlns:xlink="http://www.w3.org/1999/xlink" x="0px" y="0px"
	 viewBox="0 0 100 100" style="enable-background:new 0 0 100 100;" xml:space="preserve">
<style type="text/css">
	.st0{fill:none;stroke:#FFFFFF;stroke-width:2;stroke-linecap:round;stroke-linejoin:round;stroke-miterlimit:10;}
</style>
<g>
	<line class="st0" x1="80.4" y1="81" x2="74.7" y2="81"/>
	<line class="st0" x1="84.1" y1="66.3" x2="75.8" y2="66.3"/>
	<line class="st0" x1="86.9" y1="51.5" x2="76.8" y2="51.5"/>
	<path class="st0" d="M2,94.6h22.5c1.7,0,3.1-1.4,3.1-3.1V36.6c0-1.7-1.4-3.1-3.1-3.1H2V94.6z"/>
	<path class="st0" d="M27.6,90.1c0,0,24.4,4.3,52.5,4.3c3.9,0,7.6-2.1,7.6-6.7c0-3.8-3.1-6.7-7.4-6.7h3.2c3.9,0,7.4-3,7.6-6.9
		c0.3-4.3-3.1-7.9-7.4-7.9H87c3.9,0,7.4-3,7.6-6.9c0.3-4.3-3.1-7.9-7.4-7.9l3.2,0c3.9,0,7.4-3,7.6-6.9c0.3-4.3-3.1-7.9-7.4-7.9H63.7
		c-2.2,0-3.9-2.1-3.5-4.3c2-9.3,0.3-17.2-2.8-23.7C54.7,3.2,46.2,5,46.1,11.3c-0.4,21.4-18.5,27-18.5,27"/>
	<path class="st0" d="M19.2,84.5c0-2.4-1.9-4.3-4.3-4.3c-2.4,0-4.3,1.9-4.3,4.3c0,2.4,1.9,4.3,4.3,4.3
		C17.2,88.8,19.2,86.9,19.2,84.5z"/>
	<line class="st0" x1="14.8" y1="88.8" x2="14.8" y2="94.6"/>
</g>
</svg>
