<?xml version="1.0" encoding="utf-8"?>
<!-- Generator: Adobe Illustrator 22.0.1, SVG Export Plug-In . SVG Version: 6.00 Build 0)  -->
<svg version="1.1" id="Layer_1" xmlns="http://www.w3.org/2000/svg" xmlns:xlink="http://www.w3.org/1999/xlink" x="0px" y="0px"
	 viewBox="0 0 100 100" style="enable-background:new 0 0 100 100;" xml:space="preserve">
<style type="text/css">
	.st0{fill:#FFFFFF;}
</style>
<g>
	<path class="st0" d="M44.1,32.5c0,13.8-7.3,20.7-15.8,20.7c-8.2,0-15.3-6.6-15.4-19.8c0-13.1,7.2-20.5,15.9-20.5
		C38.1,12.9,44.1,19.9,44.1,32.5z M20.1,33.1c-0.2,8.4,2.9,14.7,8.5,14.7c5.9,0,8.5-6.3,8.5-14.9c0-8-2.3-14.6-8.5-14.6
		C23,18.2,20.1,24.8,20.1,33.1z M27.8,80.8l38.6-67.9H72L33.4,80.8H27.8z M86.9,59.6c0,13.8-7.3,20.7-15.7,20.7
		c-8.2,0-15.3-6.6-15.4-19.7c0-13.2,7.2-20.6,15.9-20.6C80.9,40.1,86.9,47.1,86.9,59.6z M62.8,60.3C62.7,68.6,66,75,71.4,75
		c5.9,0,8.5-6.3,8.5-15c0-8-2.3-14.6-8.5-14.6C65.9,45.4,62.8,52,62.8,60.3z"/>
</g>
</svg>
