<?xml version="1.0" encoding="utf-8"?>
<!-- Generator: Adobe Illustrator 22.0.1, SVG Export Plug-In . SVG Version: 6.00 Build 0)  -->
<svg version="1.1" id="Layer_1" xmlns="http://www.w3.org/2000/svg" xmlns:xlink="http://www.w3.org/1999/xlink" x="0px" y="0px"
	 viewBox="0 0 130 130" style="enable-background:new 0 0 130 130;" xml:space="preserve">
<style type="text/css">
	.st0{fill:#212E5C;}
</style>
<g>
	<path class="st0" d="M89.3,70.9c-0.2,0.5-0.7,0.8-1.1,0.9l0,0.1c2.8,1.4,5,3.6,6.5,6.6c0.1,0.3,0.3,0.6,0.4,0.9c0,0,0,0.1,0.1,0.1
		c0,0,0.2,0.3,0.4,0.7V79c0-1.2,0.3-2.3,0.9-3.3c-2.7-4.3-6.4-6.6-10-7.6l2.1,0.9C89.3,69.3,89.6,70.2,89.3,70.9z"/>
	<path class="st0" d="M32.5,72.6c-0.9-0.3-1.6-0.9-2-1.7c-0.4-0.8-0.5-1.8-0.2-2.6c0.3-0.9,0.9-1.6,1.7-2c0.8-0.4,1.8-0.5,2.6-0.2
		l0.7,0.2c0.3-0.9,0.6-1.9,1-2.7l-0.8-0.3c-1.6-0.5-3.3-0.4-4.9,0.4c-1.5,0.8-2.6,2.1-3.2,3.7c-0.5,1.6-0.4,3.3,0.4,4.9
		c0.1,0.2,0.2,0.4,0.3,0.5C29.5,72.2,31,72.1,32.5,72.6z"/>
	<path class="st0" d="M52.3,91.5c0,0,0.1-0.1,0.1-0.1C52.4,91.4,52.3,91.4,52.3,91.5z"/>
	<path class="st0" d="M51.9,91.8c0.1,0,0.1-0.1,0.2-0.1C52,91.7,51.9,91.8,51.9,91.8z"/>
	<path class="st0" d="M50.7,91.9c0.1,0,0.2,0,0.3,0.1C50.9,92,50.8,92,50.7,91.9z"/>
	<path class="st0" d="M52.5,91.2C52.5,91.2,52.5,91.2,52.5,91.2C52.5,91.2,52.5,91.2,52.5,91.2C52.5,91.2,52.5,91.2,52.5,91.2z"/>
	<path class="st0" d="M51.3,92c0.1,0,0.1,0,0.2,0C51.5,92,51.4,92,51.3,92z"/>
	<path class="st0" d="M51.6,91.9c0.1,0,0.2-0.1,0.2-0.1C51.8,91.9,51.7,91.9,51.6,91.9z"/>
	<path class="st0" d="M52.2,91.5c0,0-0.1,0.1-0.1,0.1C52.2,91.6,52.2,91.6,52.2,91.5z"/>
	<path class="st0" d="M51.2,92c-0.1,0-0.1,0-0.2,0C51.1,92,51.1,92,51.2,92C51.2,92,51.2,92,51.2,92z"/>
	<path class="st0" d="M29.4,81.9c-0.9-0.3-1.6-0.9-2-1.7c-0.4-0.8-0.5-1.8-0.2-2.6c0.6-1.8,2.5-2.8,4.3-2.2l3.6,1.2
		c-0.3-1-0.4-2.1-0.5-3.2l-2.2-0.7c-1.5-0.5-3-0.4-4.3,0.1c-1.7,0.7-3.1,2.1-3.7,3.9c-0.5,1.6-0.4,3.3,0.4,4.9
		c0.1,0.2,0.2,0.4,0.3,0.5C26.5,81.5,28,81.4,29.4,81.9z"/>
	<path class="st0" d="M29.3,92.2l-2.9-1c-1.8-0.6-2.8-2.5-2.2-4.3c0.6-1.8,2.5-2.8,4.3-2.2l22.2,7.3l0,0c0.1,0,0.2,0,0.3,0.1
		c0,0,0.1,0,0.1,0c0.1,0,0.1,0,0.2,0c0,0,0.1,0,0.1,0c0.1,0,0.1,0,0.2,0c0,0,0.1,0,0.1,0c0.1,0,0.2-0.1,0.2-0.1c0,0,0,0,0,0
		c0.1,0,0.1-0.1,0.2-0.1c0,0,0,0,0.1-0.1c0,0,0.1-0.1,0.1-0.1c0,0,0,0,0.1-0.1c0,0,0.1-0.1,0.1-0.1c0,0,0,0,0-0.1c0,0,0,0,0,0
		c-4.8-0.4-9.1-2.6-12.2-5.8l-10.8-3.5c-1.5-0.5-3-0.4-4.3,0.1c-1.7,0.7-3.1,2.1-3.7,3.9c-0.9,2.7,0.1,5.5,2.3,7.1
		C25.3,91.9,27.3,91.5,29.3,92.2z"/>
	<polygon class="st0" points="48.6,98.5 31.7,92.9 48.6,98.5 48.6,98.5 	"/>
	<path class="st0" d="M95.6,112.9v-0.7h-3.8H79.1c-1.4-0.1-23.5-2.1-30.8-3.4c-5.5-1-21.8-7.1-21.9-7.2c0,0,0,0-0.1,0
		c-1.8-0.6-2.8-2.5-2.2-4.3c0.6-1.8,2.5-2.8,4.3-2.2l22.2,7.3c0.8,0.2,1.6-0.2,1.8-0.9c0,0,0,0,0-0.1c0.2-0.7-0.2-1.5-0.9-1.8
		l-2.9-1l-16.9-5.5l-2.4-0.8h0c-2-0.7-4.1-0.3-5.7,0.9c-1.1,0.8-1.9,1.9-2.4,3.2c-1.1,3.3,0.7,6.9,4,8c1,0.4,16.7,6.3,22.4,7.3
		c7.6,1.3,30.2,3.4,31.2,3.5c0,0,0.1,0,0.1,0H96C95.7,114.4,95.6,113.6,95.6,112.9z"/>
	<path class="st0" d="M102.3,72.3c-2.5,0-4.7,1.4-5.8,3.4c-0.6,1-0.9,2.1-0.9,3.3v1.1v32v0.7c0,0.8,0.1,1.5,0.4,2.2
		c0.9,2.6,3.4,4.5,6.3,4.5c3.7,0,6.7-3,6.7-6.7V79C109,75.3,106,72.3,102.3,72.3z M106.1,112.9c0,2.1-1.7,3.8-3.8,3.8
		c-2.1,0-3.8-1.7-3.8-3.8V79c0-2.1,1.7-3.8,3.8-3.8c2.1,0,3.8,1.7,3.8,3.8V112.9z"/>
	<path class="st0" d="M35.3,66.3c-0.5,1.7-0.8,3.5-0.8,5.4c0,0.5,0,1.1,0.1,1.6c0.1,1.1,0.3,2.2,0.5,3.2c0.9,3.4,2.6,6.5,5,8.9
		c3.2,3.2,7.5,5.4,12.2,5.8c0,0,0,0,0,0c0.6,0.1,1.2,0.1,1.8,0.1c9.2,0,17-6.4,19.1-15l-2.7-1.2c-1.6,7.6-8.3,13.3-16.4,13.3
		c-9.2,0-16.7-7.5-16.7-16.7c0-9.2,7.5-16.7,16.7-16.7c4.3,0,8.3,1.6,11.2,4.3c0.6,0.1,1.1,0.2,1.7,0.5l3.8,1.7
		c-3.5-5.6-9.7-9.4-16.7-9.4c-7.9,0-14.8,4.7-17.9,11.5C36,64.4,35.6,65.3,35.3,66.3z"/>
	<path class="st0" d="M98.5,40.3c0-10.3-8.4-18.8-18.8-18.8C69.4,21.5,61,29.9,61,40.3C61,50.6,69.4,59,79.7,59
		C90.1,59,98.5,50.6,98.5,40.3z M79.7,24.4c8.7,0,15.8,7.1,15.8,15.8c0,8.7-7.1,15.8-15.8,15.8c-8.7,0-15.8-7.1-15.8-15.8
		C63.9,31.5,71,24.4,79.7,24.4z"/>
	<path class="st0" d="M67.1,59.7c-0.5-0.2-1.1-0.4-1.7-0.5c-1.8-0.2-3.6,0.3-4.9,1.4c-0.7,0.6-1.3,1.4-1.8,2.3
		c-0.1,0.2-0.2,0.4-0.2,0.6c-0.2,0.6-0.3,1.3-0.3,1.9c0,2.5,1.4,4.8,3.8,5.9l8.5,3.7l2.7,1.2l8.9,3.9c-0.4,1.4-0.8,3.8,0.2,6.2
		c1.2,2.9,3.9,5.1,8,6.5c0.2,0.1,0.3,0.1,0.5,0.1c0.6,0,1.2-0.4,1.4-1c0.3-0.8-0.1-1.6-0.9-1.8c-0.2-0.1-0.5-0.2-0.7-0.3
		c-2.9-1.1-4.7-2.6-5.5-4.5c-1.1-2.6,0.2-5.2,0.2-5.3c0.2-0.4,0.2-0.8,0.1-1.2c-0.1-0.4-0.4-0.7-0.8-0.8l-21.4-9.3
		c-1.7-0.8-2.6-2.8-1.8-4.5c0.8-1.7,2.8-2.5,4.5-1.8l21.4,9.3c0.3,0.1,0.5,0.1,0.8,0.1c0.5-0.1,0.9-0.4,1.1-0.9
		c0.3-0.7,0-1.6-0.8-1.9l-2.1-0.9L71,61.4L67.1,59.7z"/>
	<path class="st0" d="M36.9,54.9c0.8,0,1.5-0.7,1.5-1.5V35.9c0-0.8-0.7-1.5-1.5-1.5c-0.8,0-1.5,0.7-1.5,1.5v17.5
		C35.4,54.3,36.1,54.9,36.9,54.9z"/>
	<path class="st0" d="M58.7,31.2V11.9c0-0.8-0.7-1.5-1.5-1.5c-0.8,0-1.5,0.6-1.5,1.5v19.3c0,0.8,0.7,1.5,1.5,1.5
		C58.1,32.7,58.7,32,58.7,31.2z"/>
	<path class="st0" d="M102.7,37.3V23.8c0-0.8-0.7-1.5-1.5-1.5c-0.8,0-1.5,0.7-1.5,1.5v13.5c0,0.8,0.7,1.5,1.5,1.5
		C102,38.8,102.7,38.1,102.7,37.3z"/>
	<g>
		<path class="st0" d="M76.2,34.1h7.8v0c-0.5,0.7-0.7,1.1-0.8,1.1h-2.1c0.3,0.3,0.5,0.7,0.6,1.2H84c0,0,0,0,0,0
			c-0.5,0.7-0.8,1.1-0.8,1.1h-1.4c0,0.4-0.2,0.8-0.6,1.4c-0.4,0.5-0.9,0.9-1.3,1.1c-0.8,0.4-1.5,0.5-2.2,0.5v0
			c0,0.1,1.6,1.9,4.7,5.6h-2.1c-3.1-3.6-4.6-5.4-4.6-5.4v-1.1l0,0c0.3,0,0.6,0.1,1,0.1c1.7,0,2.8-0.6,3.2-1.7
			c0.1-0.2,0.1-0.3,0.1-0.5h-4.7c0,0,0,0,0,0c0.5-0.7,0.8-1.1,0.8-1.1h3.7v0c-0.2-0.4-0.6-0.8-1.2-1c-0.4-0.1-0.8-0.2-1.2-0.2h-2.1
			v0C76,34.5,76.2,34.1,76.2,34.1z"/>
	</g>
	<g>
		<path class="st0" d="M49.1,66.5H57v0c-0.5,0.7-0.7,1.1-0.8,1.1h-2.1c0.3,0.3,0.5,0.7,0.6,1.2h2.2c0,0,0,0,0,0
			c-0.5,0.7-0.8,1.1-0.8,1.1h-1.4c0,0.4-0.2,0.8-0.6,1.4c-0.4,0.5-0.9,0.9-1.3,1.1c-0.8,0.4-1.5,0.5-2.2,0.5v0
			c0,0.1,1.6,1.9,4.7,5.6h-2.1c-3.1-3.6-4.6-5.4-4.6-5.4v-1.1l0,0c0.3,0,0.6,0.1,1,0.1c1.7,0,2.8-0.6,3.2-1.7
			c0.1-0.2,0.1-0.3,0.1-0.5h-4.7c0,0,0,0,0,0c0.5-0.7,0.8-1.1,0.8-1.1h3.7v0c-0.2-0.4-0.6-0.8-1.2-1c-0.4-0.1-0.8-0.2-1.2-0.2h-2.1
			v0C48.9,66.9,49.1,66.5,49.1,66.5z"/>
	</g>
</g>
</svg>
