<?xml version="1.0" encoding="utf-8"?>
<!-- Generator: Adobe Illustrator 22.0.1, SVG Export Plug-In . SVG Version: 6.00 Build 0)  -->
<svg version="1.1" id="Layer_1" xmlns="http://www.w3.org/2000/svg" xmlns:xlink="http://www.w3.org/1999/xlink" x="0px" y="0px"
	 viewBox="0 0 130 130" style="enable-background:new 0 0 130 130;" xml:space="preserve">
<style type="text/css">
	.st0{fill:#212E5C;}
</style>
<g>
	<g>
		<path class="st0" d="M55.5,22.4H41.7c0,0.2,0,0.4-0.1,0.5c0.1,0.2,0.2,0.3,0.2,0.5c0,0,0,0.1,0,0.2h13.8
			C55.5,23.2,55.5,22.8,55.5,22.4z"/>
		<path class="st0" d="M88.8,23.4c0-0.1,0.1-0.3,0.1-0.4c-0.1-0.2-0.2-0.4-0.2-0.6H74.9c0,0.6-0.3,1-0.8,1.3h14.6
			C88.8,23.5,88.8,23.4,88.8,23.4z"/>
		<path class="st0" d="M72.9,23.7c-0.2-0.1-0.3-0.2-0.4-0.3l-0.3,0.3H72.9z"/>
		<path class="st0" d="M90.2,23.8c-0.5,0-1-0.3-1.2-0.8c-0.1,0.1-0.1,0.2-0.1,0.4c0,0,0,0.1-0.1,0.2c-0.3,1.3-2,7.1-8.3,12.3H83
			c0.5,0,0.9,0.1,1.3,0.3c6-5.9,7.2-12,7.2-12.4c0.1-0.3,0-0.6-0.1-0.9C91.2,23.5,90.7,23.8,90.2,23.8z"/>
		<path class="st0" d="M48,36h1.5c-6.1-5.1-7.5-11.1-7.7-12.3c0-0.1,0-0.2,0-0.2c0-0.2-0.1-0.4-0.2-0.5c-0.2,0.5-0.7,0.9-1.3,0.9
			c-0.5,0-0.9-0.3-1.2-0.7C39,23.3,39,23.6,39,23.9c0.1,0.4,1.1,6.9,7.1,12.8C46.6,36.2,47.3,36,48,36z"/>
		<path class="st0" d="M40.3,23.8c0.6,0,1.1-0.4,1.3-0.9c0.1-0.2,0.1-0.3,0.1-0.5c0-3.8,3.1-6.9,6.9-6.9c3.8,0,6.9,3.1,6.9,6.9
			c0-1.8,0.5-3.6,1.4-5c-1.7-2.8-4.8-4.7-8.3-4.7c-5.4,0-9.7,4.4-9.7,9.7c0,0.3,0.1,0.5,0.2,0.7C39.3,23.5,39.8,23.8,40.3,23.8z"/>
		<path class="st0" d="M55.5,22.4c0,0.4,0,0.8,0.1,1.3c0.6,4.8,4.7,8.5,9.6,8.5c0.8,0,1.4-0.6,1.4-1.4c0-0.4-0.2-0.7-0.4-1
			c-0.3-0.3-0.6-0.4-1-0.4c-3.8,0-6.9-3.1-6.9-6.9c0-3.8,3.1-6.9,6.9-6.9c3.8,0,6.9,3.1,6.9,6.9c0-1.8,0.5-3.6,1.4-5
			c-1.7-2.8-4.8-4.7-8.3-4.7c-3.5,0-6.6,1.9-8.3,4.7C56,18.8,55.5,20.6,55.5,22.4z"/>
		<path class="st0" d="M72.1,22.4c0,0.4,0.2,0.7,0.4,1c0.1,0.1,0.2,0.2,0.4,0.3c0.2,0.1,0.4,0.1,0.6,0.1c0.2,0,0.4-0.1,0.6-0.1
			c0.5-0.2,0.8-0.7,0.8-1.3c0-3.8,3.1-6.9,6.9-6.9c3.8,0,6.9,3.1,6.9,6.9c0,0.2,0.1,0.4,0.2,0.6c0.2,0.5,0.7,0.8,1.2,0.8
			c0.5,0,1-0.3,1.2-0.8c0.1-0.2,0.2-0.4,0.2-0.6c0-5.4-4.4-9.7-9.7-9.7c-3.5,0-6.6,1.9-8.3,4.7C72.7,18.8,72.1,20.6,72.1,22.4z"/>
		<path class="st0" d="M77.7,42.1c14.4,5.1,24.8,18.9,24.8,35.1c0,2.7-0.3,5.3-0.8,7.8c0.2,0,0.4,0.1,0.6,0.2c0,0,0.8,0.5,1.8,1.5
			c0.7-3.1,1.1-6.2,1.1-9.5c0-15.3-8.6-28.6-21.2-35.3c-0.3,0.1-0.7,0.2-1.1,0.2H77.7z"/>
		<path class="st0" d="M46.9,112.9c5.1,2.6,10.8,4.2,16.9,4.4c-7.4-0.4-14.6-3.7-16.2-4.5C47.3,112.8,47.1,112.9,46.9,112.9z"/>
		<path class="st0" d="M74.6,116.2c-0.1,0-0.2,0.1-0.2,0.1c3.2-0.8,6.3-1.9,9.2-3.4c-0.4,0-0.7-0.1-1.1-0.1
			C81.5,113.2,78.4,114.5,74.6,116.2z"/>
		<path class="st0" d="M72.7,115.5c-0.3-0.7,0-1.5,0.7-1.8c0,0,0.1,0,0.1-0.1c-2.7,0.6-5.5,0.9-8.4,0.9c-0.4,0-0.8,0-1.2,0
			c0.1,0,0.3,0,0.4,0c0.8,0,1.4,0.7,1.3,1.4c0,0.7-0.6,1.3-1.3,1.3c0.2,0,0.5,0,0.7,0c3.1,0,6.1-0.4,9-1c-0.1,0-0.2,0-0.3,0
			C73.5,116.3,73,116,72.7,115.5z"/>
		<path class="st0" d="M27.7,85.3c0.3-0.2,0.7-0.3,1.1-0.2C28.3,82.6,28,80,28,77.3c0-16.2,10.4-30,24.8-35.1H48
			c-0.5,0-1-0.1-1.4-0.3c-12.7,6.7-21.5,20.1-21.5,35.5c0,3.2,0.4,6.2,1.1,9.2C27.1,85.7,27.7,85.3,27.7,85.3z"/>
		<path class="st0" d="M19.7,109c1.4,6.4,4.9,6,16.7,4.9c2.9-0.3,6.4-0.6,10.5-1c0.2,0,0.4,0,0.7-0.1c1.7,0.8,8.8,4.1,16.2,4.5
			c0.2,0,0.4,0,0.5,0c0,0,0,0,0.1,0c0,0,0.1,0,0.1,0c0.7,0,1.3-0.6,1.3-1.3c0-0.8-0.6-1.4-1.3-1.4c-0.1,0-0.3,0-0.4,0
			c-0.5,0-1-0.1-1.5-0.1c-7.2-0.8-14-4.2-14-4.2c-0.2-0.1-0.5-0.2-0.7-0.2c-4.7,0.4-8.5,0.8-11.7,1.1c-12.1,1.2-12.8,1.1-13.7-2.7
			c-3.1-14.3,6.4-20.4,6.8-20.7c0.1-0.1,0.2-0.2,0.3-0.3c0.4-0.5,0.4-1.1,0.1-1.6c-0.2-0.3-0.5-0.5-0.8-0.6c-0.4-0.1-0.7,0-1.1,0.2
			c0,0-0.6,0.4-1.5,1.2C23.2,89.1,16.9,96.3,19.7,109z"/>
		<path class="st0" d="M102.3,85.3c-0.2-0.1-0.4-0.2-0.6-0.2c-0.5,0-1,0.2-1.3,0.6c-0.4,0.6-0.2,1.3,0.2,1.7
			c0.1,0.1,0.1,0.1,0.2,0.2c0.4,0.3,9.9,6.4,6.8,20.7c-0.8,3.7-1.6,3.9-13.7,2.7c-3.1-0.3-7-0.7-11.7-1.1c-0.2,0-0.4,0-0.6,0.1
			c0,0-2,0.9-5.1,2.2c-0.9,0.4-1.9,0.8-3,1.3c0,0-0.1,0-0.1,0.1c-0.7,0.3-1,1.1-0.7,1.8c0.2,0.5,0.7,0.8,1.3,0.8c0.1,0,0.2,0,0.3,0
			c0,0,0.1,0,0.1,0c0.1,0,0.2,0,0.2-0.1c3.9-1.7,6.9-3,7.8-3.4c0.4,0,0.7,0.1,1.1,0.1c4,0.3,7.4,0.7,10.2,0.9
			c11.7,1.2,15.3,1.5,16.7-4.9c2.6-12.2-3.1-19.3-6.2-22.2C103.1,85.8,102.3,85.3,102.3,85.3z"/>
		<path class="st0" d="M72.2,104.2c-1.5,0.3-3,0.5-4.6,0.6c-0.8,0-1.4,0.7-1.3,1.5c0,0.7,0.7,1.3,1.4,1.3c0,0,0.1,0,0.1,0
			c1.7-0.1,3.3-0.3,4.9-0.6c0.8-0.1,1.3-0.9,1.1-1.6C73.7,104.5,73,104,72.2,104.2z"/>
		<path class="st0" d="M87,93.8c-0.8,0-1.4,0.6-1.4,1.4c0,1.2-0.5,2.3-1.4,3.4c-0.5,0.6-0.4,1.5,0.1,2c0.3,0.2,0.6,0.3,0.9,0.3
			c0.4,0,0.8-0.2,1.1-0.5c1.4-1.6,2.1-3.4,2.1-5.2C88.4,94.4,87.8,93.8,87,93.8z"/>
		<path class="st0" d="M63,104.8c-1.6-0.1-3.1-0.2-4.6-0.5c-0.8-0.1-1.5,0.4-1.6,1.2c-0.1,0.8,0.4,1.5,1.2,1.6
			c1.6,0.2,3.3,0.4,4.9,0.5c0,0,0,0,0.1,0c0.7,0,1.4-0.6,1.4-1.3C64.4,105.5,63.8,104.8,63,104.8z"/>
		<path class="st0" d="M80.8,101.3c-1.2,0.7-2.6,1.3-4.1,1.8c-0.7,0.2-1.1,1-0.9,1.8c0.2,0.6,0.7,1,1.3,1c0.1,0,0.3,0,0.4-0.1
			c1.7-0.6,3.3-1.2,4.6-2c0.7-0.4,0.9-1.2,0.5-1.9C82.4,101.1,81.5,100.9,80.8,101.3z"/>
		<path class="st0" d="M45.1,101.7c0.4,0,0.7-0.1,1-0.4c0,0,0.1-0.1,0.1-0.2c0.4-0.6,0.3-1.3-0.2-1.8c-1.1-1.1-1.8-2.2-2-3.3
			c-0.1-0.8-0.9-1.3-1.6-1.1c-0.8,0.1-1.3,0.9-1.1,1.6c0,0.3,0.1,0.5,0.2,0.8c0.4,1.4,1.3,2.8,2.6,4.1
			C44.4,101.5,44.8,101.7,45.1,101.7z"/>
		<path class="st0" d="M48.4,104.2c1,0.5,2.2,1,3.4,1.4c0.4,0.2,0.9,0.3,1.3,0.4c0.1,0,0.3,0.1,0.4,0.1c0.6,0,1.2-0.4,1.3-1
			c0.2-0.7-0.2-1.5-0.9-1.7c-1.5-0.5-3-1-4.2-1.6c-0.7-0.3-1.5-0.1-1.9,0.6c0,0,0,0,0,0C47.5,103,47.7,103.9,48.4,104.2z"/>
		<path class="st0" d="M43.8,51.1c-1.4,1.6-2.1,3.4-2.1,5.2c0,0.8,0.6,1.4,1.4,1.4c0.8,0,1.4-0.6,1.4-1.4c0-1.2,0.5-2.3,1.4-3.4
			c0.5-0.6,0.4-1.5-0.1-2C45.2,50.4,44.3,50.5,43.8,51.1z"/>
		<path class="st0" d="M86,55.5c0.1,0.7,0.7,1.1,1.4,1.1c0.1,0,0.2,0,0.3,0c0.8-0.1,1.3-0.9,1.1-1.6c-0.3-1.7-1.3-3.3-2.8-4.8
			c-0.6-0.5-1.4-0.5-2,0c-0.5,0.6-0.5,1.4,0,2C85.1,53.3,85.8,54.4,86,55.5z"/>
		<path class="st0" d="M67.1,46.7c1.6,0.1,3.1,0.2,4.6,0.4c0.1,0,0.1,0,0.2,0c0.7,0,1.3-0.5,1.4-1.2c0.1-0.8-0.4-1.5-1.2-1.6
			c-1.6-0.2-3.3-0.4-4.9-0.5c-0.8,0-1.4,0.6-1.5,1.3C65.7,46,66.3,46.7,67.1,46.7z"/>
		<path class="st0" d="M75.3,46.4c-0.2,0.7,0.2,1.5,0.9,1.7c1.5,0.5,3,1,4.2,1.6c0.2,0.1,0.4,0.2,0.6,0.2c0.5,0,1-0.3,1.2-0.8
			c0.3-0.7,0.1-1.5-0.6-1.9c-1.4-0.7-3-1.3-4.7-1.8C76.3,45.3,75.5,45.7,75.3,46.4z"/>
		<path class="st0" d="M52.5,45.8c-1.7,0.6-3.3,1.2-4.6,2c-0.7,0.4-0.9,1.2-0.5,1.9c0.3,0.5,0.7,0.7,1.2,0.7c0.2,0,0.5-0.1,0.7-0.2
			c1.2-0.7,2.6-1.3,4.1-1.8c0.7-0.2,1.1-1,0.9-1.8C54.1,45.9,53.3,45.5,52.5,45.8z"/>
		<path class="st0" d="M62.3,44c-1.7,0.1-3.3,0.3-4.9,0.6c-0.8,0.1-1.3,0.9-1.1,1.6c0.1,0.7,0.7,1.1,1.4,1.1c0.1,0,0.2,0,0.3,0
			c1.5-0.3,3-0.5,4.6-0.6c0.8,0,1.4-0.7,1.3-1.5C63.7,44.5,63,43.9,62.3,44z"/>
		<path class="st0" d="M52.8,42.1h24.9H83c0.4,0,0.8-0.1,1.1-0.2c1.2-0.5,2-1.6,2-2.9c0-1.2-0.7-2.3-1.8-2.8
			C83.9,36.1,83.4,36,83,36h-2.5H49.5H48c-0.7,0-1.4,0.3-1.9,0.7c-0.7,0.6-1.2,1.4-1.2,2.4c0,1.2,0.7,2.2,1.7,2.7
			c0.4,0.2,0.9,0.3,1.4,0.3H52.8z M47.7,39c0-0.2,0.1-0.3,0.3-0.3H83c0.2,0,0.3,0.1,0.3,0.3c0,0.2-0.1,0.3-0.3,0.3H48
			C47.9,39.3,47.7,39.2,47.7,39z"/>
	</g>
	<g>
		<path class="st0" d="M58,65.4h16.7v0c-1,1.5-1.5,2.3-1.7,2.4h-4.5c0.6,0.7,1,1.6,1.3,2.6h4.8c0.1,0,0.1,0,0.1,0.1
			c-1.1,1.6-1.6,2.4-1.6,2.4h-3.1c-0.1,0.8-0.5,1.8-1.2,3c-1,1.2-1.9,1.9-2.7,2.3c-1.6,0.8-3.2,1.2-4.7,1.2v0
			c0,0.1,3.4,4.1,10.1,11.9H67c-6.5-7.6-9.8-11.4-9.8-11.5v-2.3l0-0.1c0.6,0.1,1.3,0.1,2,0.1c3.7,0,5.9-1.2,6.8-3.6
			c0.1-0.3,0.2-0.7,0.2-1.1h-9.9c0,0-0.1,0-0.1-0.1c1.1-1.6,1.7-2.4,1.7-2.4h7.9v0c-0.5-0.9-1.3-1.6-2.6-2.1
			c-0.9-0.3-1.8-0.5-2.5-0.5h-4.4v-0.1C57.4,66.2,57.9,65.4,58,65.4z"/>
	</g>
</g>
</svg>
