<?xml version="1.0" encoding="utf-8"?>
<!-- Generator: Adobe Illustrator 22.1.0, SVG Export Plug-In . SVG Version: 6.00 Build 0)  -->
<svg version="1.1" id="Layer_1" xmlns="http://www.w3.org/2000/svg" xmlns:xlink="http://www.w3.org/1999/xlink" x="0px" y="0px"
	 viewBox="0 0 100 100" style="enable-background:new 0 0 100 100;" xml:space="preserve">
<style type="text/css">
	.st0{fill:#FFFFFF;}
</style>
<g>
	<path class="st0" d="M97,88.8H78v-3.2h15.8c-0.7-10.7-8.2-19.9-18.8-22.5c0,0-0.2-0.1-0.4-0.1c-1.1-0.3-1.8-1.4-1.8-2.5
		c0-1.1,0.6-2,1.6-2.4c5.3-2.3,8.7-7.4,8.7-13.1c0-7.8-6.4-14.2-14.2-14.2c-1.4,0-2.8,0.2-4.2,0.6l-0.9-3c1.6-0.5,3.4-0.7,5.1-0.7
		c9.6,0,17.4,7.8,17.4,17.4c0,6.5-3.6,12.4-9.4,15.4C88.8,64.1,96.9,75,96.9,87.3L97,88.8L97,88.8z"/>
	<path class="st0" d="M73.8,88.8H3v-1.6C3,71.1,13.9,57,29.4,53c-7.8-3.6-12.8-11.3-12.8-19.9c0-12,9.8-21.9,21.8-21.9
		S60.3,21,60.3,33.1c0,8.6-5,16.3-12.8,19.9c15.5,4.1,26.3,18.1,26.3,34.2L73.8,88.8L73.8,88.8z M6.3,85.6h64.4
		C70,71.5,60.2,59.4,46.4,55.9c0,0-0.2-0.1-0.4-0.2C44.8,55.4,44,54.3,44,53c0-1.2,0.7-2.3,1.8-2.7c7-2.9,11.5-9.7,11.5-17.3
		c0-10.3-8.4-18.8-18.8-18.8S19.8,22.7,19.8,33c0,7.5,4.5,14.3,11.5,17.3c1.1,0.5,1.8,1.5,1.8,2.7c0,1.3-0.8,2.4-2,2.7
		c-0.2,0.1-0.4,0.1-0.4,0.1C16.7,59.4,6.9,71.5,6.3,85.6z"/>
</g>
</svg>
