<?xml version="1.0" encoding="utf-8"?>
<!-- Generator: Adobe Illustrator 22.0.1, SVG Export Plug-In . SVG Version: 6.00 Build 0)  -->
<svg version="1.1" id="Layer_1" xmlns="http://www.w3.org/2000/svg" xmlns:xlink="http://www.w3.org/1999/xlink" x="0px" y="0px"
	 viewBox="0 0 130 130" style="enable-background:new 0 0 130 130;" xml:space="preserve">
<style type="text/css">
	.st0{fill:#212E5C;}
	.st1{fill:none;stroke:#212E5C;stroke-width:3;stroke-miterlimit:10;}
</style>
<g>
	<g>
		<path class="st0" d="M28.5,78.8h15.1v0c-0.9,1.4-1.4,2.1-1.5,2.2h-4c0.6,0.6,0.9,1.4,1.1,2.4h4.3c0.1,0,0.1,0,0.1,0.1
			c-1,1.4-1.4,2.2-1.5,2.2h-2.8c-0.1,0.7-0.4,1.6-1.1,2.7c-0.9,1.1-1.7,1.7-2.5,2c-1.5,0.7-2.9,1-4.2,1v0c0,0.1,3,3.7,9.1,10.7h-4
			c-5.9-6.9-8.8-10.3-8.8-10.3v-2.1l0-0.1c0.5,0.1,1.1,0.1,1.8,0.1c3.3,0,5.3-1.1,6.1-3.2c0.1-0.3,0.2-0.6,0.2-1H27
			c0,0-0.1,0-0.1-0.1c1-1.4,1.5-2.2,1.5-2.2h7.1v0c-0.4-0.8-1.2-1.5-2.4-1.9C32.4,81.1,31.6,81,31,81h-4v-0.1
			C28,79.5,28.5,78.8,28.5,78.8z"/>
	</g>
	<path class="st1" d="M111.7,79.8c0.6,2.3,1,4.4,1,6.5c0,19-16.1,26.8-36.1,26.8c-5.1,0-9.9-0.5-14.3-1.6"/>
	<path class="st1" d="M53.3,58.3c5.3-6.9,11.6-13.8,18.2-20c0,0-11.8-18.4-11.4-19.1c3.3-6.3,10.1-5.1,16.6-3.4
		c9.1,2.5,12.8,2,14.5,1.9c0.2,2.6-9.4,20.6-9.4,20.6c6.2,5.8,15.2,14.1,21,24"/>
	<line class="st1" x1="66.3" y1="38.3" x2="86.9" y2="38.3"/>
	<ellipse class="st1" cx="35.4" cy="88.6" rx="28.4" ry="26.9"/>
	<polyline class="st1" points="71.4,82.2 84.3,69.3 97.2,82.2 123,56.4 	"/>
	<polyline class="st1" points="123,69.3 123,56.4 110.1,56.4 	"/>
</g>
</svg>
