<?xml version="1.0" encoding="utf-8"?>
<!-- Generator: Adobe Illustrator 22.1.0, SVG Export Plug-In . SVG Version: 6.00 Build 0)  -->
<svg version="1.1" id="Layer_1" xmlns="http://www.w3.org/2000/svg" xmlns:xlink="http://www.w3.org/1999/xlink" x="0px" y="0px"
	 viewBox="0 0 130 130" style="enable-background:new 0 0 130 130;" xml:space="preserve">
<style type="text/css">
	.st0{fill:#20295C;}
</style>
<g>
	<g>
		<g>
			<g>
				<path class="st0" d="M70.3,34.3c-0.1,0-0.2,0-0.3,0c-0.7-0.2-1.1-0.9-0.9-1.6l2.9-11.3c0.2-0.7,0.9-1.1,1.6-0.9
					c0.7,0.2,1.1,0.9,0.9,1.6l-2.9,11.3C71.4,33.9,70.8,34.3,70.3,34.3z"/>
			</g>
		</g>
		<g>
			<g>
				<path class="st0" d="M59.7,34.4c-0.6,0-1.1-0.4-1.3-1l-3.1-11.2c-0.2-0.7,0.2-1.4,0.9-1.6c0.7-0.2,1.4,0.2,1.6,0.9L61,32.8
					c0.2,0.7-0.2,1.4-0.9,1.6C60,34.4,59.8,34.4,59.7,34.4z"/>
			</g>
		</g>
		<g>
			<g>
				<path class="st0" d="M50.6,39.7c-0.3,0-0.7-0.1-0.9-0.4l-8.3-8.2c-0.5-0.5-0.5-1.3,0-1.8c0.5-0.5,1.3-0.5,1.8,0l8.3,8.2
					c0.5,0.5,0.5,1.3,0,1.8C51.3,39.6,51,39.7,50.6,39.7z"/>
			</g>
		</g>
		<g>
			<g>
				<path class="st0" d="M79.4,39.5c-0.3,0-0.7-0.1-0.9-0.4c-0.5-0.5-0.5-1.3,0-1.8l8.2-8.3c0.5-0.5,1.3-0.5,1.8,0
					c0.5,0.5,0.5,1.3,0,1.8l-8.2,8.3C80.1,39.4,79.8,39.5,79.4,39.5z"/>
			</g>
		</g>
	</g>
	<g>
		<path class="st0" d="M36.9,86.2c-0.5,0-1-0.4-1.2-0.9c-1.4-4.6-8.6-5.2-8.7-5.2c-0.4,0-0.7-0.2-0.9-0.5c-0.2-0.3-0.3-0.7-0.2-1.1
			c4.9-17.3,8.4-29.7,8.4-29.9c0.2-0.7,0.9-1,1.5-0.9c5.8,1.4,16.5-1.5,16.6-1.5c0.7-0.2,1.4,0.2,1.5,0.9c0.2,0.7-0.2,1.4-0.9,1.5
			c-0.4,0.1-10.1,2.8-16.7,1.8c-0.9,3.3-3.8,13.7-7.7,27.4c2.6,0.5,7.9,2,9.4,6.7c0.2,0.7-0.2,1.4-0.8,1.6
			C37.1,86.1,37,86.2,36.9,86.2z"/>
	</g>
	<g>
		<path class="st0" d="M46.3,100.3c-1.2,0-2.2-0.4-3.2-1.2c-2.4-2.1-2.5-5.2-0.2-8.2c1.8-2.3,3.1-3.5,3.4-3.7c0.4-0.3,2-1.8,4.2-1.8
			c1,0,2,0.3,2.9,0.9c1.3,0.9,2.1,2.2,2.2,3.7c0.1,2.5-1.6,5.3-5.1,8.5C49.7,99.4,48.1,100.3,46.3,100.3z M50.6,87.9
			c-1.3,0-2.5,1.1-2.5,1.1c0,0-0.1,0.1-0.1,0.1c0,0-1.3,1-3,3.3c-0.8,1.1-2,3.2-0.2,4.8c0.5,0.4,1,0.6,1.5,0.6
			c1.1,0,2.1-0.7,2.5-1.1c3.9-3.5,4.3-5.6,4.3-6.5c0-0.7-0.4-1.3-1.1-1.8C51.6,88,51.1,87.9,50.6,87.9z"/>
	</g>
	<g>
		<path class="st0" d="M53.9,106c-1.1,0-2.2-0.4-3.2-1.2c-2.4-1.8-2.5-5-0.3-7.9c1.7-2.2,3-3.3,3.3-3.6c0.3-0.3,1.7-1.4,3.5-1.4
			c1.1,0,2.1,0.4,3,1.2c1.3,1.1,1.9,2.4,1.9,3.8c0,2.2-1.4,4.6-4.4,7.3C56.5,105.4,55.3,106,53.9,106z M57.2,94.5
			c-1,0-1.8,0.8-1.8,0.8c0,0-0.1,0.1-0.1,0.1c0,0-1.2,0.9-2.8,3.1c-0.5,0.7-2,3-0.2,4.4c1.3,1,2.4,0.9,3.8-0.4
			c3-2.7,3.6-4.4,3.6-5.4c0-0.7-0.4-1.3-1.1-2C58.2,94.7,57.7,94.5,57.2,94.5z"/>
	</g>
	<g>
		<path class="st0" d="M38.7,94.3c-1.1,0-2.1-0.4-3-1.2c-2.3-1.9-2.3-4.9-0.2-7.7c1.6-2.2,2.9-3.3,3.2-3.5c0.3-0.3,1.5-1.3,3.3-1.3
			c1,0,2,0.3,2.9,1c1.2,0.9,1.9,2.1,2,3.5c0.1,2.2-1.3,4.7-4.3,7.4C42.1,93.1,40.6,94.3,38.7,94.3z M42,83.2c-0.9,0-1.7,0.6-1.7,0.6
			c0,0-0.1,0.1-0.1,0.1c0,0-1.2,0.9-2.7,3c-0.8,1-1.8,2.9-0.2,4.3c0.4,0.4,0.9,0.6,1.4,0.6c0.8,0,1.7-0.5,2.2-1
			c3.2-2.9,3.5-4.6,3.5-5.4c0-0.6-0.4-1.1-1-1.6C43,83.4,42.5,83.2,42,83.2z"/>
	</g>
	<g>
		<path class="st0" d="M60.2,109.5c-0.8,0-1.7-0.3-2.4-0.9c-2-1.5-2.2-3.9-0.7-6.4c1.2-1.8,2.1-2.8,2.3-3c0.3-0.3,1.4-1.4,3-1.4
			c0.8,0,1.6,0.3,2.3,0.8c1.1,0.8,1.7,1.8,1.9,3c0.2,1.8-0.8,3.8-3,6.1C63.2,108.2,62,109.5,60.2,109.5z M62.5,100.4
			c-0.7,0-1.2,0.6-1.2,0.6c0,0-0.1,0.1-0.1,0.1c0,0-0.8,0.8-1.9,2.5c-0.8,1.3-0.8,2.3,0.1,3c0.3,0.3,0.6,0.4,0.9,0.4
			c0.7,0,1.3-0.7,1.5-0.9c2.2-2.3,2.4-3.6,2.3-4.2c0-0.3-0.1-0.7-0.8-1.2C63,100.5,62.7,100.4,62.5,100.4z"/>
	</g>
	<g>
		<path class="st0" d="M69.8,109.1C69.7,109.1,69.7,109.1,69.8,109.1c-3,0-5.1-2.9-5.3-3.2c-0.4-0.6-0.3-1.4,0.3-1.8
			c0.6-0.4,1.4-0.3,1.8,0.3c0.4,0.6,1.9,2.1,3.2,2.2c0.7,0,1.4-0.4,2.1-1.3c1.8-2.3-3.4-6.4-6.4-8.8c-0.5-0.4-0.9-0.7-1.3-1
			c-0.5-0.4-0.6-1.2-0.2-1.8c0.4-0.5,1.2-0.6,1.8-0.2c0.4,0.3,0.8,0.6,1.2,1c4,3.2,10.1,8,6.9,12.3
			C72.4,108.7,70.8,109.1,69.8,109.1z"/>
	</g>
	<g>
		<path class="st0" d="M76,104.3c-1.7,0-3.2-0.7-4.4-2c-0.5-0.5-0.4-1.3,0.1-1.8c0.5-0.5,1.3-0.4,1.8,0.1c1.1,1.3,2.7,1.3,3.9,0.9
			c1.1-0.4,2.4-1.5,2.4-3.1c0-1.4-5.5-6.6-9.9-9.9c-0.6-0.4-0.7-1.2-0.3-1.8c0.4-0.6,1.2-0.7,1.8-0.3c0.4,0.3,11,8.3,11,11.9
			c0,2.4-1.6,4.6-4,5.5C77.5,104.2,76.8,104.3,76,104.3z"/>
	</g>
	<g>
		<path class="st0" d="M83.4,99.5c-1.3,0-2.6-0.5-3.7-1.5c-0.5-0.5-0.5-1.3,0-1.8c0.5-0.5,1.3-0.5,1.8,0c1.5,1.5,3.4,0.7,4.6-0.4
			c1.2-1.2,2-3,1-4.2C84.6,88.7,75,81.4,75,81.4c-0.6-0.4-0.7-1.2-0.2-1.8c0.4-0.6,1.2-0.7,1.8-0.2c0.4,0.3,9.9,7.5,12.5,10.6
			c2,2.4,0.9,5.7-1.2,7.7C86.4,98.9,84.9,99.5,83.4,99.5z"/>
	</g>
	<g>
		<path class="st0" d="M91.2,93.1c-0.6,0-1.1-0.1-1.7-0.3c-1.6-0.7-3.8-2.6-4-2.8c-0.5-0.5-0.6-1.3-0.1-1.8c0.5-0.5,1.3-0.6,1.8-0.1
			c0.6,0.5,2.3,1.9,3.3,2.4c1.1,0.5,2.9-0.3,3.9-1.7c0.6-0.8,1.4-2.6-0.5-4.8c-0.5-0.5-0.4-1.3,0.1-1.8c0.5-0.5,1.3-0.4,1.8,0.1
			c2.2,2.5,2.4,5.4,0.7,7.9C95.1,92,93.1,93.1,91.2,93.1z"/>
	</g>
	<g>
		<path class="st0" d="M103.5,81.9c-0.6,0-1.1-0.4-1.2-0.9l-9.2-34.6c-0.2-0.7,0.2-1.4,0.9-1.5l12.2-3.3c0.3-0.1,0.7,0,1,0.1
			c0.3,0.2,0.5,0.4,0.6,0.8l9.2,34.6c0.1,0.3,0,0.7-0.1,1c-0.2,0.3-0.4,0.5-0.8,0.6l-12.2,3.3C103.7,81.9,103.6,81.9,103.5,81.9z
			 M95.8,46.9l8.6,32.2l9.8-2.6l-8.6-32.2L95.8,46.9z"/>
	</g>
	<g>
		<path class="st0" d="M26.4,81.9c-0.1,0-0.2,0-0.3,0l-12.2-3.4c-0.7-0.2-1.1-0.9-0.9-1.6l9.7-34.5c0.2-0.7,0.9-1.1,1.6-0.9L36.5,45
			c0.3,0.1,0.6,0.3,0.8,0.6c0.2,0.3,0.2,0.6,0.1,1L27.7,81C27.5,81.6,27,81.9,26.4,81.9z M15.8,76.4l9.8,2.8l9.1-32.1l-9.8-2.8
			L15.8,76.4z"/>
	</g>
	<g>
		<path class="st0" d="M94.8,84.4c-0.3,0-0.6-0.1-0.8-0.3L65.9,60.7c-0.7-0.5-1.4-0.8-2.3-0.8c-2.9,0-6.3,2.8-8.4,4.4
			c-0.4,0.3-0.7,0.6-1,0.8c-1.7,1.3-5.2,3.1-8.3,3.1c-2.5,0-3.7-1.2-4.4-2.2c-3.3-5.3,7.7-18,11.9-20.7c1.7-1.1,4-1.6,6.9-1.6
			c4.2,0,9.1,1,14.3,2.1c5.2,1.1,10.6,2.2,15.1,2.2c1.9,0,3.5-0.2,4.8-0.6c0.3-0.1,0.7-0.1,1,0.1c0.3,0.2,0.5,0.4,0.6,0.8l7.9,29.7
			c0.2,0.6-0.1,1.2-0.7,1.5c-1.6,0.7-6.2,3-7.7,4.4C95.4,84.3,95.1,84.4,94.8,84.4z M63.6,57.5c1.4,0,2.8,0.4,3.9,1.3l27.3,22.7
			c1.9-1.4,5-3,6.5-3.7L94,50.3c-1.3,0.3-2.7,0.4-4.3,0.4c-4.8,0-10.3-1.2-15.6-2.3c-5.1-1.1-9.9-2.1-13.8-2.1
			c-2.4,0-4.3,0.4-5.5,1.2c-4.7,3-13,14.3-11.1,17.2c0.2,0.3,0.6,1,2.3,1c2.3,0,5.3-1.5,6.8-2.6c0.3-0.2,0.6-0.5,1-0.8
			C55.9,60.6,59.8,57.5,63.6,57.5z"/>
	</g>
</g>
</svg>
