<?xml version="1.0" encoding="utf-8"?>
<!-- Generator: Adobe Illustrator 22.0.1, SVG Export Plug-In . SVG Version: 6.00 Build 0)  -->
<svg version="1.1" id="Layer_1" xmlns="http://www.w3.org/2000/svg" xmlns:xlink="http://www.w3.org/1999/xlink" x="0px" y="0px"
	 viewBox="0 0 130 130" style="enable-background:new 0 0 130 130;" xml:space="preserve">
<style type="text/css">
	.st0{fill:#212E5C;}
</style>
<g>
	<path class="st0" d="M25.1,103.8V21.3l46.3,0h16v48.5c0.5,0,1-0.1,1.5-0.1c0.5,0,1,0,1.5,0.1v-50c0-0.4-0.2-0.8-0.5-1.1
		c-0.3-0.3-0.7-0.5-1.1-0.5H71.4H23.5c-0.4,0-0.8,0.2-1.1,0.5C22.2,19,22,19.4,22,19.8v85.5c0,0.4,0.2,0.8,0.5,1.1
		c0.3,0.3,0.7,0.5,1.1,0.5h47.3c-0.8-1-1.5-2-2.1-3.1H25.1z"/>
	<path class="st0" d="M35.9,43.4h40.7c0.9,0,1.5-0.7,1.5-1.5c0-0.9-0.7-1.5-1.5-1.5H35.9c-0.9,0-1.5,0.7-1.5,1.5
		C34.4,42.8,35,43.4,35.9,43.4z"/>
	<path class="st0" d="M76.5,54.1H35.9c-0.9,0-1.5,0.7-1.5,1.5c0,0.9,0.7,1.5,1.5,1.5h40.7c0.9,0,1.5-0.7,1.5-1.5
		C78.1,54.8,77.4,54.1,76.5,54.1z"/>
	<path class="st0" d="M76.5,67.8H35.9c-0.9,0-1.5,0.7-1.5,1.5c0,0.9,0.7,1.5,1.5,1.5h40.7c0.9,0,1.5-0.7,1.5-1.5
		C78.1,68.5,77.4,67.8,76.5,67.8z"/>
	<path class="st0" d="M34.4,83c0,0.9,0.7,1.5,1.5,1.5h31.5c0.4-1.1,0.9-2.1,1.4-3.1h-33C35,81.5,34.4,82.2,34.4,83z"/>
	<path class="st0" d="M88.9,73.6c-10.6,0-19.1,8.6-19.1,19.1c0,10.6,8.6,19.1,19.1,19.1c10.6,0,19.1-8.6,19.1-19.1
		C108,82.1,99.4,73.6,88.9,73.6z M88.9,108.7c-4.4,0-8.4-1.8-11.3-4.7c-2.9-2.9-4.7-6.9-4.7-11.3c0-4.4,1.8-8.4,4.7-11.3
		c2.9-2.9,6.9-4.7,11.3-4.7c4.4,0,8.4,1.8,11.3,4.7c2.9,2.9,4.7,6.9,4.7,11.3c0,4.4-1.8,8.4-4.7,11.3
		C97.3,106.9,93.3,108.7,88.9,108.7z"/>
	<path class="st0" d="M91.7,92.7l7.5-7.5c0.6-0.6,0.6-1.6,0-2.2c-0.6-0.6-1.6-0.6-2.2,0l-7.5,7.5L82,83c-0.6-0.6-1.6-0.6-2.2,0
		c-0.6,0.6-0.6,1.6,0,2.2l7.5,7.5l-7.5,7.5c-0.6,0.6-0.6,1.6,0,2.2c0.6,0.6,1.6,0.6,2.2,0l7.5-7.5l7.5,7.5c0.6,0.6,1.6,0.6,2.2,0
		c0.6-0.6,0.6-1.6,0-2.2L91.7,92.7z"/>
</g>
</svg>
