<?xml version="1.0" encoding="utf-8"?>
<!-- Generator: Adobe Illustrator 22.1.0, SVG Export Plug-In . SVG Version: 6.00 Build 0)  -->
<svg version="1.1" id="Layer_1" xmlns="http://www.w3.org/2000/svg" xmlns:xlink="http://www.w3.org/1999/xlink" x="0px" y="0px"
	 viewBox="0 0 130 130" style="enable-background:new 0 0 130 130;" xml:space="preserve">
<style type="text/css">
	.st0{fill:#20295C;}
</style>
<g>
	<path class="st0" d="M123.1,113H99.6v-3.9h19.6C118.3,95.8,109,84.5,96,81.3c0,0-0.3-0.1-0.5-0.1c-1.3-0.4-2.2-1.7-2.2-3.1
		c0-1.3,0.8-2.5,2-3c6.5-2.8,10.8-9.1,10.8-16.2c0-9.7-7.9-17.6-17.6-17.6c-1.7,0-3.5,0.3-5.2,0.8l-1.1-3.7c2-0.6,4.2-0.9,6.3-0.9
		c11.9,0,21.5,9.7,21.5,21.5c0,8.1-4.5,15.4-11.6,19.1c14.6,4.3,24.6,17.8,24.6,33.1V113z"/>
	<path class="st0" d="M94.5,113H6.9V111c0-19.9,13.4-37.3,32.6-42.3c-9.6-4.4-15.8-14-15.8-24.6C23.7,29.2,35.8,17,50.7,17
		c14.9,0,27.1,12.1,27.1,27.1c0,10.6-6.2,20.2-15.8,24.6c19.2,5.1,32.6,22.4,32.6,42.3V113z M10.9,109.1h79.7
		c-0.8-17.5-13-32.5-30.1-36.8c0,0-0.3-0.1-0.5-0.2c-1.4-0.4-2.4-1.8-2.4-3.4c0-1.5,0.9-2.8,2.2-3.3c8.6-3.6,14.2-12,14.2-21.4
		c0-12.8-10.4-23.2-23.2-23.2c-12.8,0-23.2,10.4-23.2,23.2c0,9.3,5.6,17.7,14.2,21.4c1.3,0.6,2.2,1.9,2.2,3.3c0,1.6-1,3-2.5,3.4
		c-0.2,0.1-0.5,0.1-0.5,0.1C23.8,76.6,11.7,91.6,10.9,109.1z"/>
</g>
</svg>
