<?xml version="1.0" encoding="utf-8"?>
<!-- Generator: Adobe Illustrator 22.0.1, SVG Export Plug-In . SVG Version: 6.00 Build 0)  -->
<svg version="1.1" id="Layer_1" xmlns="http://www.w3.org/2000/svg" xmlns:xlink="http://www.w3.org/1999/xlink" x="0px" y="0px"
	 viewBox="0 0 100 100" style="enable-background:new 0 0 100 100;" xml:space="preserve">
<style type="text/css">
	.st0{fill:#FFFFFF;}
</style>
<g>
	<g>
		<path class="st0" d="M40.4,85.9c-11.4,0-20.6-8.8-20.6-19.7s9.3-19.7,20.6-19.7c11.4,0,20.6,8.8,20.6,19.7S51.8,85.9,40.4,85.9z
			 M40.4,49.6c-9.7,0-17.6,7.5-17.6,16.7s7.9,16.7,17.6,16.7c9.7,0,17.6-7.5,17.6-16.7S50.2,49.6,40.4,49.6z"/>
	</g>
	<g>
		<path class="st0" d="M67.2,93.6c-0.4,0-0.8-0.1-1.1-0.4L53,80c-0.6-0.6-0.6-1.5,0-2.1s1.5-0.6,2.1,0L68.3,91
			c0.6,0.6,0.6,1.5,0,2.1C68,93.4,67.6,93.6,67.2,93.6z"/>
	</g>
	<g>
		<path class="st0" d="M11.7,43.8c-4,0-7.2-3.2-7.2-7.2s3.2-7.2,7.2-7.2s7.2,3.2,7.2,7.2S15.7,43.8,11.7,43.8z M11.7,32.4
			c-2.3,0-4.2,1.9-4.2,4.2s1.9,4.2,4.2,4.2s4.2-1.9,4.2-4.2S14.1,32.4,11.7,32.4z"/>
	</g>
	<g>
		<path class="st0" d="M36.6,24.7c-4,0-7.2-3.2-7.2-7.2s3.2-7.2,7.2-7.2s7.2,3.2,7.2,7.2S40.6,24.7,36.6,24.7z M36.6,13.2
			c-2.3,0-4.2,1.9-4.2,4.2s1.9,4.2,4.2,4.2s4.2-1.9,4.2-4.2S38.9,13.2,36.6,13.2z"/>
	</g>
	<g>
		<path class="st0" d="M65.3,40c-4,0-7.2-3.2-7.2-7.2s3.2-7.2,7.2-7.2s7.2,3.2,7.2,7.2S69.3,40,65.3,40z M65.3,28.5
			c-2.3,0-4.2,1.9-4.2,4.2S63,37,65.3,37s4.2-1.9,4.2-4.2S67.6,28.5,65.3,28.5z"/>
	</g>
	<g>
		<path class="st0" d="M88.3,20.9c-4,0-7.2-3.2-7.2-7.2s3.2-7.2,7.2-7.2s7.2,3.2,7.2,7.2S92.3,20.9,88.3,20.9z M88.3,9.4
			c-2.3,0-4.2,1.9-4.2,4.2s1.9,4.2,4.2,4.2s4.2-1.9,4.2-4.2S90.6,9.4,88.3,9.4z"/>
	</g>
	<g>

			<rect x="14.2" y="25.5" transform="matrix(0.7926 -0.6097 0.6097 0.7926 -11.4757 20.3464)" class="st0" width="19.9" height="3"/>
	</g>
	<g>
		<rect x="49.5" y="14.6" transform="matrix(0.4706 -0.8824 0.8824 0.4706 4.8037 58.2697)" class="st0" width="3" height="21"/>
	</g>
	<g>
		<rect x="67.6" y="21.7" transform="matrix(0.7683 -0.6401 0.6401 0.7683 2.9276 54.5239)" class="st0" width="18.4" height="3"/>
	</g>
	<g>
		<path class="st0" d="M11.7,76.4c-0.8,0-1.5-0.7-1.5-1.5V50c0-0.8,0.7-1.5,1.5-1.5s1.5,0.7,1.5,1.5v24.9
			C13.2,75.7,12.6,76.4,11.7,76.4z"/>
	</g>
	<g>
		<path class="st0" d="M21.3,51.5c-0.8,0-1.5-0.7-1.5-1.5v-5.7c0-0.8,0.7-1.5,1.5-1.5s1.5,0.7,1.5,1.5V50
			C22.8,50.8,22.1,51.5,21.3,51.5z"/>
	</g>
	<g>
		<path class="st0" d="M30.9,43.8c-0.8,0-1.5-0.7-1.5-1.5v-9.6c0-0.8,0.7-1.5,1.5-1.5s1.5,0.7,1.5,1.5v9.6
			C32.4,43.2,31.7,43.8,30.9,43.8z"/>
	</g>
	<g>
		<path class="st0" d="M40.4,41.9c-0.8,0-1.5-0.7-1.5-1.5v-7.7c0-0.8,0.7-1.5,1.5-1.5s1.5,0.7,1.5,1.5v7.7
			C41.9,41.3,41.3,41.9,40.4,41.9z"/>
	</g>
	<g>
		<path class="st0" d="M50,43.8c-0.8,0-1.5-0.7-1.5-1.5v-3.8c0-0.8,0.7-1.5,1.5-1.5s1.5,0.7,1.5,1.5v3.8
			C51.5,43.2,50.8,43.8,50,43.8z"/>
	</g>
	<g>
		<path class="st0" d="M59.6,51.5c-0.8,0-1.5-0.7-1.5-1.5v-5.7c0-0.8,0.7-1.5,1.5-1.5s1.5,0.7,1.5,1.5V50
			C61.1,50.8,60.4,51.5,59.6,51.5z"/>
	</g>
	<g>
		<path class="st0" d="M69.1,76.4c-0.8,0-1.5-0.7-1.5-1.5V46.2c0-0.8,0.7-1.5,1.5-1.5s1.5,0.7,1.5,1.5v28.7
			C70.6,75.7,70,76.4,69.1,76.4z"/>
	</g>
	<g>
		<path class="st0" d="M78.7,76.4c-0.8,0-1.5-0.7-1.5-1.5V36.6c0-0.8,0.7-1.5,1.5-1.5s1.5,0.7,1.5,1.5v38.3
			C80.2,75.7,79.5,76.4,78.7,76.4z"/>
	</g>
	<g>
		<path class="st0" d="M88.3,76.4c-0.8,0-1.5-0.7-1.5-1.5V29c0-0.8,0.7-1.5,1.5-1.5s1.5,0.7,1.5,1.5v45.9
			C89.8,75.7,89.1,76.4,88.3,76.4z"/>
	</g>
</g>
<g>
	<path class="st0" d="M36.7,58.6H47v0c-0.6,0.9-1,1.4-1,1.5h-2.8c0.4,0.4,0.6,1,0.8,1.6h2.9c0,0,0.1,0,0.1,0c-0.7,1-1,1.5-1,1.5
		h-1.9c0,0.5-0.3,1.1-0.7,1.8c-0.6,0.7-1.1,1.2-1.7,1.4c-1,0.5-2,0.7-2.9,0.7v0c0,0.1,2.1,2.5,6.2,7.4h-2.7c-4-4.7-6.1-7.1-6.1-7.1
		v-1.4l0-0.1c0.4,0.1,0.8,0.1,1.3,0.1c2.3,0,3.7-0.7,4.2-2.2c0.1-0.2,0.1-0.4,0.1-0.7h-6.1c0,0,0,0,0,0c0.7-1,1-1.5,1-1.5h4.9v0
		c-0.3-0.6-0.8-1-1.6-1.3c-0.6-0.2-1.1-0.3-1.5-0.3h-2.7v-0.1C36.3,59.1,36.7,58.6,36.7,58.6z"/>
</g>
</svg>
