<?xml version="1.0" encoding="utf-8"?>
<!-- Generator: Adobe Illustrator 22.0.1, SVG Export Plug-In . SVG Version: 6.00 Build 0)  -->
<svg version="1.1" id="Layer_1" xmlns="http://www.w3.org/2000/svg" xmlns:xlink="http://www.w3.org/1999/xlink" x="0px" y="0px"
	 viewBox="0 0 130 130" style="enable-background:new 0 0 130 130;" xml:space="preserve">
<style type="text/css">
	.st0{fill:#212E5C;}
</style>
<g>
	<path class="st0" d="M26.5,10.3H15.4c-0.8,0-1.4,0.6-1.4,1.4v11.1c0,0.8,0.6,1.4,1.4,1.4h11.1c0.8,0,1.4-0.6,1.4-1.4V11.7
		C27.9,10.9,27.3,10.3,26.5,10.3z M25.1,21.4h-8.3v-8.3h8.3V21.4z"/>
	<path class="st0" d="M26.5,27.3H15.4c-0.8,0-1.4,0.6-1.4,1.4v11.1c0,0.8,0.6,1.4,1.4,1.4h11.1c0.8,0,1.4-0.6,1.4-1.4V28.7
		C27.9,27.9,27.3,27.3,26.5,27.3z M25.1,38.4h-8.3v-8.3h8.3V38.4z"/>
	<path class="st0" d="M26.5,44.3H15.4c-0.8,0-1.4,0.6-1.4,1.4v11.1c0,0.8,0.6,1.4,1.4,1.4h11.1c0.8,0,1.4-0.6,1.4-1.4V45.7
		C27.9,45,27.3,44.3,26.5,44.3z M25.1,55.4h-8.3v-8.3h8.3V55.4z"/>
	<path class="st0" d="M33.7,24.2h11.1c0.8,0,1.4-0.6,1.4-1.4V11.7c0-0.8-0.6-1.4-1.4-1.4H33.7c-0.8,0-1.4,0.6-1.4,1.4v11.1
		C32.3,23.5,33,24.2,33.7,24.2z M35.1,13.1h8.3v8.3h-8.3V13.1z"/>
	<path class="st0" d="M33.7,41.2h11.1c0.8,0,1.4-0.6,1.4-1.4V28.7c0-0.8-0.6-1.4-1.4-1.4H33.7c-0.8,0-1.4,0.6-1.4,1.4v11.1
		C32.3,40.6,33,41.2,33.7,41.2z M35.1,30.1h8.3v8.3h-8.3V30.1z"/>
	<path class="st0" d="M46.2,56.8V45.7c0-0.8-0.6-1.4-1.4-1.4H33.7c-0.8,0-1.4,0.6-1.4,1.4v11.1c0,0.8,0.6,1.4,1.4,1.4h11.1
		C45.6,58.2,46.2,57.6,46.2,56.8z M43.4,55.4h-8.3v-8.3h8.3V55.4z"/>
	<path class="st0" d="M114.6,105.2h-8l4.6-14.3c2.2-6.7,3.3-13.6,3.3-20.7v-1.8c0-7.3-5.2-13.3-12.1-14.2c-2-2.8-6.6-6.7-13.1-4.9
		C88,47.7,84.8,45,77.8,46l-1.5-21.8c-0.3-3.8-3.4-6.7-7.2-6.7c-1.7,0-3.3,0.6-4.5,1.6v-7.3c0-0.8-0.6-1.4-1.4-1.4H52.1
		c-0.8,0-1.4,0.6-1.4,1.4v11.1c0,0.8,0.6,1.4,1.4,1.4h9.8c0,0.2,0,0.3,0,0.5v2.6h-9.8c-0.8,0-1.4,0.6-1.4,1.4v11.1
		c0,0.8,0.6,1.4,1.4,1.4h9.8v3.1h-9.8c-0.8,0-1.4,0.6-1.4,1.4v11.1c0,0.8,0.6,1.4,1.4,1.4h9.8v13.5c-3.8-3.4-11.5-9.3-18.3-9.3
		c-0.1,0-0.2,0-0.3,0c-2.8,0.1-5.2,1.2-7.1,3.2c-0.5,0.5-0.5,1.3,0,1.8c0.1,0.1,11.3,13.4,18.7,28.1c0.1,0.1,0.1,0.2,0.2,0.3
		l8.3,9.2h-3.5c-0.8,0-1.4,0.6-1.4,1.4v11.8c0,0.8,0.6,1.4,1.4,1.4c0.8,0,1.4-0.6,1.4-1.4V108h51.9v10.3c0,0.8,0.6,1.4,1.4,1.4
		c0.8,0,1.4-0.6,1.4-1.4v-11.8C116,105.8,115.4,105.2,114.6,105.2z M61.7,38.4h-8.3v-8.3h8.3V38.4z M61.7,55.4h-8.3v-8.3h8.3V55.4z
		 M61.7,21.4h-8.3v-8.3h8.3V21.4z M67.1,105.2C67.1,105.1,67.1,105.1,67.1,105.2l-9.8-11c-6.4-12.5-15.4-24-18.2-27.4
		c1.2-0.9,2.5-1.4,4.2-1.5c0.1,0,0.1,0,0.2,0c8.1,0,18.6,10.6,18.7,10.7c0.4,0.4,1,0.5,1.5,0.3c0.5-0.2,0.9-0.7,0.9-1.3V24.7
		c0-2.4,2-4.4,4.4-4.4c2.3,0,4.3,1.8,4.4,4.1l1.6,23.3c0,0,0,0,0,0l0.7,14c0,0.8,0.7,1.3,1.4,1.3c0,0,0,0,0.1,0
		c0.8,0,1.4-0.7,1.3-1.5L78,48.8c6.6-0.9,8.9,1.7,9.3,2.5v9.9c0,0.8,0.6,1.4,1.4,1.4c0.8,0,1.4-0.6,1.4-1.4v-9.2
		c5.9-1.6,9.3,2.7,10.1,3.8v7.3c0,0.8,0.6,1.4,1.4,1.4c0.8,0,1.4-0.6,1.4-1.4v-6c5.1,1.1,8.7,5.7,8.7,11.2v1.8
		c0,6.7-1.1,13.4-3.1,19.8l-4.9,15.1H67.1z"/>
	<path class="st0" d="M105.5,111.2c-1.5,0-2.8,1.2-2.8,2.8c0,1.5,1.2,2.8,2.8,2.8c1.5,0,2.8-1.2,2.8-2.8
		C108.2,112.5,107,111.2,105.5,111.2z"/>
</g>
</svg>
