<?xml version="1.0" encoding="utf-8"?>
<!-- Generator: Adobe Illustrator 22.1.0, SVG Export Plug-In . SVG Version: 6.00 Build 0)  -->
<svg version="1.1" id="Layer_1" xmlns="http://www.w3.org/2000/svg" xmlns:xlink="http://www.w3.org/1999/xlink" x="0px" y="0px"
	 viewBox="0 0 130 130" style="enable-background:new 0 0 130 130;" xml:space="preserve">
<style type="text/css">
	.st0{fill:#20295C;}
	.st1{fill:none;stroke:#20295C;stroke-width:3;stroke-miterlimit:10;}
</style>
<g>
	<g>
		<rect x="29.1" y="28.5" class="st0" width="28.5" height="3.9"/>
		<rect x="29.1" y="37.2" class="st0" width="57" height="3.9"/>
		<rect x="29.1" y="45.8" class="st0" width="57" height="3.9"/>
		<rect x="29.1" y="54.4" class="st0" width="50.1" height="3.9"/>
	</g>
	<rect x="29.1" y="102.9" class="st0" width="22.1" height="3.9"/>
	<g>
		<path class="st0" d="M95.5,83.8c-0.3,0-0.6-0.1-1-0.3v31.3H20.7V15.1h57.7l16.2,16.2v19.6h3.9V29.7L80,11.2H16.8v107.5h81.6V84.2
			C97.4,84.4,96.4,84.2,95.5,83.8z"/>
		<polygon class="st0" points="96.4,32.4 77.2,32.4 77.2,13.2 81.1,13.2 81.1,28.5 96.4,28.5 		"/>
	</g>
	<g>
		
			<rect x="79.5" y="65.2" transform="matrix(0.7071 -0.7072 0.7072 0.7071 -18.8062 87.444)" class="st0" width="33.4" height="2.4"/>
		
			<rect x="95" y="49.7" transform="matrix(0.7072 -0.7071 0.7071 0.7072 -18.8092 87.4273)" class="st0" width="2.4" height="33.4"/>
		<circle class="st1" cx="96.2" cy="66.5" r="17"/>
	</g>
</g>
</svg>
