<?xml version="1.0" encoding="utf-8"?>
<!-- Generator: Adobe Illustrator 22.0.1, SVG Export Plug-In . SVG Version: 6.00 Build 0)  -->
<svg version="1.1" id="Layer_1" xmlns="http://www.w3.org/2000/svg" xmlns:xlink="http://www.w3.org/1999/xlink" x="0px" y="0px"
	 viewBox="0 0 130 130" style="enable-background:new 0 0 130 130;" xml:space="preserve">
<style type="text/css">
	.st0{fill:#212B5C;}
</style>
<g>
	<path class="st0" d="M108.3,77.3c1.1,0,2.1-0.8,2.4-1.8l9-34.3c0.7-2.7,0.1-5.6-1.7-7.9c-2.1-2.7-5.6-4.3-9.3-4.3H34.7l-1.5-8
		c0,0,0,0,0,0c0-0.1,0-0.1,0-0.2c0,0,0,0,0-0.1c0-0.1,0-0.1-0.1-0.2c0,0,0-0.1,0-0.1c0,0,0-0.1-0.1-0.1c0,0,0-0.1,0-0.1
		c0,0,0-0.1-0.1-0.1c0,0,0-0.1-0.1-0.1c0,0,0,0-0.1-0.1c0,0-0.1-0.1-0.1-0.1c0,0,0,0-0.1-0.1c0,0-0.1-0.1-0.1-0.1
		c0,0-0.1-0.1-0.1-0.1c0,0,0,0-0.1-0.1c0,0-0.1-0.1-0.1-0.1c0,0,0,0,0,0c-0.1,0-0.1-0.1-0.2-0.1c0,0,0,0,0,0c-0.1,0-0.1-0.1-0.2-0.1
		c0,0,0,0,0,0c-0.1,0-0.1,0-0.2-0.1c0,0,0,0-0.1,0c0,0-0.1,0-0.1,0c0,0-0.1,0-0.1,0c0,0-0.1,0-0.1,0c0,0-0.1,0-0.1,0
		c0,0-0.1,0-0.1,0c-0.1,0-0.1,0-0.2,0c0,0,0,0,0,0H12.4c-1.4,0-2.4,1.1-2.4,2.4c0,1.4,1.1,2.4,2.4,2.4h16.3l1.5,8l0,0c0,0,0,0,0,0
		l8.2,43.5l0,0c0,0,0,0,0,0l2.1,11.3c0,0,0,0,0,0c0,0,0,0.1,0,0.1c0,0,0,0.1,0,0.1c0,0,0,0.1,0,0.1c0,0,0,0.1,0,0.1c0,0,0,0.1,0,0.1
		c0,0,0,0.1,0.1,0.1c0,0,0,0.1,0,0.1c0,0,0,0.1,0.1,0.1c0,0,0,0,0,0.1c0,0,0.1,0.1,0.1,0.1c0,0,0,0,0,0.1c0,0,0.1,0.1,0.1,0.1
		c0,0,0,0,0,0c0,0,0.1,0.1,0.2,0.1c0,0,0,0,0,0c0.1,0,0.1,0.1,0.2,0.1c0,0,0,0,0.1,0c0,0,0.1,0,0.1,0.1c0,0,0.1,0,0.1,0
		c0,0,0.1,0,0.1,0.1c0,0,0.1,0,0.1,0c0,0,0.1,0,0.1,0c0,0,0.1,0,0.1,0c0,0,0.1,0,0.1,0c0,0,0.1,0,0.1,0c0.1,0,0.1,0,0.2,0
		c0,0,0,0,0,0c0.1,0,0.2,0,0.2,0c0,0,0,0,0,0h71.7c1.4,0,2.4-1.1,2.4-2.4s-1.1-2.4-2.4-2.4H45l-1.2-6.5H108.3z M114.2,36.2
		c0.9,1.1,1.1,2.4,0.8,3.7l-8.5,32.5H42.9l-7.3-38.6h73.2C111,33.8,113,34.7,114.2,36.2z"/>
	<path class="st0" d="M58.9,94.1c-2-1.5-4.5-2.2-7-1.8c-5.2,0.7-8.8,5.5-8.1,10.6c0.7,4.7,4.7,8.2,9.4,8.2c0.4,0,0.9,0,1.3-0.1
		c5.2-0.7,8.8-5.5,8.1-10.6C62.2,97.8,60.9,95.6,58.9,94.1z M53.8,106.1c-2.5,0.3-4.8-1.4-5.1-3.9c-0.3-2.5,1.4-4.8,3.9-5.1
		c0.2,0,0.4,0,0.6,0c1,0,1.9,0.3,2.7,0.9c1,0.7,1.6,1.8,1.8,3C58.1,103.5,56.3,105.8,53.8,106.1z"/>
	<path class="st0" d="M105.2,94.1c-2-1.5-4.5-2.2-7-1.8c-2.5,0.3-4.7,1.6-6.2,3.7c-1.5,2-2.2,4.5-1.8,7c0.3,2.5,1.6,4.7,3.7,6.2
		c1.7,1.3,3.6,1.9,5.7,1.9c0.4,0,0.9,0,1.3-0.1c5.2-0.7,8.8-5.5,8.1-10.6C108.6,97.8,107.3,95.6,105.2,94.1z M100.2,106.1
		c-1.2,0.2-2.4-0.1-3.4-0.9c-1-0.7-1.6-1.8-1.8-3c-0.3-2.5,1.4-4.8,3.9-5.1c0.2,0,0.4,0,0.6,0c2.2,0,4.2,1.7,4.5,3.9
		C104.4,103.5,102.6,105.8,100.2,106.1z"/>
</g>
</svg>
