<?xml version="1.0" encoding="utf-8"?>
<!-- Generator: Adobe Illustrator 22.0.1, SVG Export Plug-In . SVG Version: 6.00 Build 0)  -->
<svg version="1.1" id="Layer_1" xmlns="http://www.w3.org/2000/svg" xmlns:xlink="http://www.w3.org/1999/xlink" x="0px" y="0px"
	 viewBox="0 0 130 130" style="enable-background:new 0 0 130 130;" xml:space="preserve">
<style type="text/css">
	.st0{fill:#212E5C;}
</style>
<g>
	<g>
		<g id="XMLID_2309_">
			<polygon class="st0" points="13,55 11,52.3 41.6,29.3 63.6,45.8 61.6,48.5 41.6,33.5 			"/>
		</g>
		<g id="XMLID_2243_">
			<rect x="15.9" y="49.5" class="st0" width="3.4" height="36.5"/>
		</g>
		<g id="XMLID_2230_">
			<path class="st0" d="M51.6,75.5H31.7V55.6h19.9V75.5z M35,72.1h13.2V59H35V72.1z"/>
		</g>
		<g>
			<rect x="17.6" y="84.2" class="st0" width="32.3" height="3.4"/>
		</g>
		<g>
			<polygon class="st0" points="51.9,48.7 41.6,41 31.3,48.7 29.3,46 41.6,36.7 54,46 			"/>
		</g>
	</g>
	<g>
		<g>
			<path class="st0" d="M81.9,98.2c-14.2,0-25.8-11.6-25.8-25.8s11.6-25.8,25.8-25.8c6.9,0,13.4,2.7,18.2,7.6l-2.4,2.4
				c-4.2-4.2-9.9-6.6-15.9-6.6C69.5,50,59.4,60,59.4,72.4s10.1,22.4,22.4,22.4c12.4,0,22.4-10.1,22.4-22.4c0-1.6-0.2-3.3-0.5-4.9
				l3.3-0.7c0.4,1.8,0.6,3.7,0.6,5.6C107.7,86.6,96.1,98.2,81.9,98.2z"/>
		</g>
		<g>
			<path class="st0" d="M64.4,72.4H61c0-11.5,9.3-20.8,20.8-20.8v3.4C72.2,54.9,64.4,62.8,64.4,72.4z"/>
		</g>
		<g>
			<path class="st0" d="M81.9,87.9c-8.5,0-15.5-6.9-15.5-15.5s6.9-15.5,15.5-15.5c4,0,7.9,1.5,10.8,4.4l-2.3,2.4
				c-2.3-2.2-5.3-3.4-8.4-3.4c-6.7,0-12.1,5.4-12.1,12.1c0,6.7,5.4,12.1,12.1,12.1S94,79.1,94,72.4c0-0.8-0.1-1.7-0.3-2.5l3.3-0.7
				c0.2,1,0.3,2.1,0.3,3.2C97.3,80.9,90.4,87.9,81.9,87.9z"/>
		</g>
		<g>

				<rect x="62.7" y="94.7" transform="matrix(0.5313 -0.8472 0.8472 0.5313 -50.3615 101.7617)" class="st0" width="8.2" height="3.4"/>
		</g>
		<g>

				<rect x="95.2" y="92.3" transform="matrix(0.847 -0.5315 0.5315 0.847 -36.4099 66.2634)" class="st0" width="3.4" height="8.2"/>
		</g>
		<g>

				<rect x="80.4" y="64.9" transform="matrix(0.8766 -0.4812 0.4812 0.8766 -20.6381 52.6862)" class="st0" width="24.1" height="3.4"/>
		</g>
		<g>
			<polygon class="st0" points="108.6,64 100.9,62 102.9,54.3 106.2,55.2 105,59.6 109.4,60.8 			"/>
		</g>
		<g>
			<polygon class="st0" points="113.3,61.3 105.7,59.3 107.7,51.6 111,52.5 109.8,56.9 114.2,58 			"/>
		</g>
		<g>
			<polygon class="st0" points="118.1,58.6 110.5,56.5 112.5,48.9 115.8,49.7 114.6,54.1 119,55.3 			"/>
		</g>
		<g>
			<polygon class="st0" points="86.2,75.5 79.7,73.6 81.1,67.2 84.4,68 83.7,71.3 87.1,72.3 			"/>
		</g>
	</g>
</g>
</svg>
