<?xml version="1.0" encoding="utf-8"?>
<!-- Generator: Adobe Illustrator 22.0.1, SVG Export Plug-In . SVG Version: 6.00 Build 0)  -->
<svg version="1.1" id="Layer_1" xmlns="http://www.w3.org/2000/svg" xmlns:xlink="http://www.w3.org/1999/xlink" x="0px" y="0px"
	 viewBox="0 0 100 100" style="enable-background:new 0 0 100 100;" xml:space="preserve">
<style type="text/css">
	.st0{fill:#FFFFFF;}
</style>
<g>
	<g>
		<path class="st0" d="M17.3,81c0.4,0,0.7-0.1,1-0.4l4.9-4.9l-2-2l-2.4,2.4v-9.5h29.8v9.5l-2.4-2.4l-2,2l4.9,4.9
			c0.3,0.3,0.6,0.4,1,0.4c0.4,0,0.7-0.1,1-0.4l4.9-4.9l-2-2l-2.4,2.4v-9.5h29.7v9.5l-2.4-2.4l-2,2l4.9,4.9c0.3,0.3,0.6,0.4,1,0.4
			c0.4,0,0.7-0.1,1-0.4l4.9-4.9l-2-2l-2.4,2.4V65.1c0-0.8-0.6-1.4-1.4-1.4H51.4v-9.5h-2.9v9.5H17.3c-0.8,0-1.4,0.6-1.4,1.4v10.9
			l-2.4-2.4l-2,2l4.9,4.9C16.6,80.8,17,81,17.3,81z"/>
		<path class="st0" d="M22.2,83.8h-9.8c-0.8,0-1.4,0.6-1.4,1.4V95c0,0.8,0.6,1.4,1.4,1.4h9.8c0.8,0,1.4-0.6,1.4-1.4v-9.8
			C23.6,84.5,23,83.8,22.2,83.8z M20.8,93.6h-6.9v-6.9h6.9V93.6z"/>
		<path class="st0" d="M54.9,83.8h-9.8c-0.8,0-1.4,0.6-1.4,1.4V95c0,0.8,0.6,1.4,1.4,1.4h9.8c0.8,0,1.4-0.6,1.4-1.4v-9.8
			C56.3,84.5,55.7,83.8,54.9,83.8z M53.4,93.6h-6.9v-6.9h6.9V93.6z"/>
		<path class="st0" d="M87.6,83.8h-9.8c-0.8,0-1.4,0.6-1.4,1.4V95c0,0.8,0.6,1.4,1.4,1.4h9.8c0.8,0,1.4-0.6,1.4-1.4v-9.8
			C89,84.5,88.4,83.8,87.6,83.8z M86.1,93.6h-6.9v-6.9h6.9V93.6z"/>
	</g>
</g>
<g>
	<g>
		<path class="st0" d="M45.6,21h9.8v0c-0.6,0.9-0.9,1.4-1,1.4h-2.6c0.4,0.4,0.6,0.9,0.7,1.5h2.8c0,0,0.1,0,0.1,0
			c-0.6,0.9-0.9,1.4-1,1.4h-1.8c0,0.5-0.3,1.1-0.7,1.7c-0.6,0.7-1.1,1.1-1.6,1.3c-1,0.5-1.9,0.7-2.7,0.7v0c0,0.1,2,2.4,5.9,7h-2.6
			c-3.8-4.5-5.8-6.7-5.8-6.7v-1.4l0-0.1c0.3,0,0.7,0.1,1.2,0.1c2.1,0,3.5-0.7,4-2.1c0.1-0.2,0.1-0.4,0.1-0.6h-5.8c0,0,0,0,0,0
			c0.6-0.9,1-1.4,1-1.4h4.6v0c-0.3-0.5-0.8-1-1.5-1.3c-0.5-0.2-1-0.3-1.5-0.3h-2.6v-0.1C45.3,21.5,45.6,21,45.6,21z"/>
	</g>
	<path class="st0" d="M50.7,5.9v2.6c0,0.3-0.3,0.6-0.6,0.6c-0.3,0-0.6-0.3-0.6-0.6V5.9C43.9,6,38.9,8.3,35.1,11.8l2,2
		c0.2,0.2,0.2,0.6,0,0.9c-0.1,0.1-0.3,0.2-0.4,0.2c-0.2,0-0.3-0.1-0.4-0.2l-2-2c-3.5,3.7-5.7,8.6-5.9,14.1c0,0,0,0,0,0h3.2
		c0.3,0,0.6,0.3,0.6,0.6c0,0.3-0.3,0.6-0.6,0.6h-3.2c0,0,0,0,0,0c0.2,11.6,9.5,21,21.1,21.3c0,0,0,0,0,0v-3.2c0-0.3,0.3-0.6,0.6-0.6
		c0.3,0,0.6,0.3,0.6,0.6v3.2c0,0,0,0,0,0c5.5-0.2,10.5-2.4,14.3-5.9l-2-2c-0.2-0.2-0.2-0.6,0-0.9c0.2-0.2,0.6-0.2,0.9,0l2,2
		c3.6-3.8,5.8-8.9,5.9-14.5h-2.6c-0.3,0-0.6-0.3-0.6-0.6c0-0.3,0.3-0.6,0.6-0.6h2.6C71.3,15.4,62.1,6.2,50.7,5.9z M50,44
		c-9,0-16.3-7.3-16.3-16.3c0-9,7.3-16.3,16.3-16.3c9,0,16.3,7.3,16.3,16.3C66.4,36.6,59.1,44,50,44z"/>
	<path class="st0" d="M50.7,5.3v0.6c11.4,0.3,20.7,9.5,21.1,20.9h0.6c0.3,0,0.6,0.3,0.6,0.6C72.9,14.8,62.6,4.7,50,4.7
		C50.4,4.7,50.7,4.9,50.7,5.3z"/>
	<path class="st0" d="M72.4,28h-0.6c-0.1,5.6-2.3,10.7-5.9,14.5l0.2,0.2c0.2,0.2,0.2,0.6,0,0.9c-0.1,0.1-0.3,0.2-0.4,0.2
		c-0.2,0-0.3-0.1-0.4-0.2L65,43.4c-3.8,3.6-8.8,5.8-14.3,5.9c0,0.3-0.3,0.6-0.6,0.6c-0.3,0-0.6-0.3-0.6-0.6
		C37.9,49,28.5,39.6,28.3,28c-0.3,0-0.6-0.3-0.6-0.6c0-0.3,0.3-0.6,0.6-0.6c0.2-5.4,2.4-10.4,5.9-14.1L34,12.5
		c-0.2-0.2-0.2-0.6,0-0.9c0.2-0.2,0.6-0.2,0.9,0l0.2,0.2c3.8-3.6,8.8-5.8,14.3-5.9V5.3c0-0.3,0.3-0.6,0.6-0.6c-12.7,0-23,10.3-23,23
		c0,12.7,10.3,23,23,23c12.7,0,23-10.3,23-23c0-0.1,0-0.1,0-0.2C73,27.7,72.7,28,72.4,28z"/>
	<path class="st0" d="M50,11.3c-9,0-16.3,7.3-16.3,16.3C33.7,36.6,41,44,50,44c9,0,16.3-7.3,16.3-16.3C66.4,18.6,59.1,11.3,50,11.3z
		 M50,42.7c-8.3,0-15.1-6.8-15.1-15.1c0-8.3,6.8-15.1,15.1-15.1c8.3,0,15.1,6.8,15.1,15.1C65.2,35.9,58.4,42.7,50,42.7z"/>
	<path class="st0" d="M49.4,5.3v0.6v2.6c0,0.3,0.3,0.6,0.6,0.6c0.3,0,0.6-0.3,0.6-0.6V5.9V5.3c0-0.3-0.3-0.6-0.6-0.6
		C49.7,4.7,49.4,4.9,49.4,5.3z"/>
	<path class="st0" d="M50.7,46.1c0-0.3-0.3-0.6-0.6-0.6c-0.3,0-0.6,0.3-0.6,0.6v3.2c0,0,0,0,0,0c0,0.3,0.3,0.6,0.6,0.6
		c0.3,0,0.6-0.3,0.6-0.6c0,0,0,0,0,0V46.1z"/>
	<path class="st0" d="M73,27.4c0-0.3-0.3-0.6-0.6-0.6h-0.6h-2.6c-0.3,0-0.6,0.3-0.6,0.6c0,0.3,0.3,0.6,0.6,0.6h2.6h0.6
		C72.7,28,73,27.7,73,27.4C73,27.4,73,27.4,73,27.4C73,27.4,73,27.4,73,27.4z"/>
	<path class="st0" d="M31.6,28c0.3,0,0.6-0.3,0.6-0.6c0-0.3-0.3-0.6-0.6-0.6h-3.2c0,0,0,0,0,0c-0.3,0-0.6,0.3-0.6,0.6
		c0,0.3,0.3,0.6,0.6,0.6c0,0,0,0,0,0H31.6z"/>
	<path class="st0" d="M62.9,40.5c-0.2,0.2-0.2,0.6,0,0.9l2,2l0.2,0.2c0.1,0.1,0.3,0.2,0.4,0.2c0.2,0,0.3-0.1,0.4-0.2
		c0.2-0.2,0.2-0.6,0-0.9l-0.2-0.2l-2-2C63.5,40.2,63.2,40.2,62.9,40.5z"/>
	<path class="st0" d="M36.7,14.9c0.2,0,0.3-0.1,0.4-0.2c0.2-0.2,0.2-0.6,0-0.9l-2-2l-0.2-0.2c-0.2-0.2-0.6-0.2-0.9,0
		c-0.2,0.2-0.2,0.6,0,0.9l0.2,0.2l2,2C36.4,14.9,36.6,14.9,36.7,14.9z"/>
</g>
</svg>
