<?xml version="1.0" encoding="utf-8"?>
<!-- Generator: Adobe Illustrator 22.0.1, SVG Export Plug-In . SVG Version: 6.00 Build 0)  -->
<svg version="1.1" id="Layer_1" xmlns="http://www.w3.org/2000/svg" xmlns:xlink="http://www.w3.org/1999/xlink" x="0px" y="0px"
	 viewBox="0 0 100 100" style="enable-background:new 0 0 100 100;" xml:space="preserve">
<style type="text/css">
	.st0{fill:#FFFFFF;}
</style>
<g>
	<g>
		<path class="st0" d="M50.9,80.7c0,2.7-1.5,5-3.6,6.3l26.4,4h7.1c-0.1-0.5-0.2-1-0.2-1.6V51.6c-0.4-0.5-0.6-0.8-0.6-0.9
			c0,0,0-0.1,0-0.1c-0.1-0.2-0.2-0.3-0.2-0.5L55.6,39.5c-0.2,0-0.3,0.1-0.4,0.1c-0.5,1-1.1,1.9-1.7,2.8h0.4c0.7,0,1.3,0.6,1.3,1.3
			c0,0.5-0.2,0.9-0.6,1.1l12.1,20c0.2,0,0.4,0,0.6,0c0.7-0.1,1.3,0.5,1.4,1.2c0.1,0.7-0.5,1.3-1.2,1.4c-0.7,0.1-1.4,0.1-2,0.1
			c-4.2,0-7.4-1.1-9.6-3.3c-2.4-2.4-3-5.3-3.2-7h-5.5c-0.1,2.4-1.3,4.5-3.2,5.8c1.9,1.3,3.2,3.5,3.2,6c0,1.9-0.7,3.6-1.9,4.9
			C48.4,74.3,50.9,77.2,50.9,80.7z"/>
		<path class="st0" d="M55.2,39.6c0.1,0,0.3-0.1,0.4-0.1c1.9-0.3,5.1-0.8,8.8-0.3c7.2,0.9,12.3,4.5,15.3,10.9
			c0.1,0.2,0.2,0.3,0.2,0.5c0,0,0,0.1,0,0.1c0,0.1,0.2,0.4,0.6,0.9V48c0-0.4,0-0.9,0.1-1.3c-3.5-5.7-9-9.1-16.1-10
			c-3.2-0.4-6.2-0.2-8.2,0.1C56.1,37.8,55.6,38.7,55.2,39.6z"/>
		<path class="st0" d="M80.8,91h-7.1H63.3c0,0-0.1,0-0.1,0c-17.3,1.8-25.7-0.6-29.8-3h-4.1c2.8,2.8,9,6.2,22.8,6.2
			c3.3,0,7-0.2,11.3-0.6h18.4C81.3,92.8,81,91.9,80.8,91z"/>
		<path class="st0" d="M11.3,49.4c-2.6,0-4.7-2.1-4.7-4.7c0-2.6,2.1-4.7,4.7-4.7h0.1c-0.4-0.8-0.8-1.6-1.2-2.4
			C6.7,38.1,4,41.1,4,44.7c0,2.5,1.3,4.7,3.2,6C8.3,49.9,9.8,49.4,11.3,49.4z"/>
		<path class="st0" d="M47.1,56.9h-2.5c-0.1,2.5-2.2,4.5-4.7,4.5c1.5,0,2.9,0.5,4.1,1.3C45.8,61.4,47,59.3,47.1,56.9z"/>
		<path class="st0" d="M11.3,61.4c-2.6,0-4.7-2.1-4.7-4.7c0-2.6,2.1-4.7,4.7-4.7h7.1c-0.2-0.7-0.4-1.5-0.4-2.3c0-0.1,0-0.1,0-0.2
			h-6.8c-1.5,0-2.9,0.5-4.1,1.3C5.3,52,4,54.2,4,56.7c0,2.5,1.3,4.7,3.2,6C8.3,61.9,9.8,61.4,11.3,61.4z"/>
		<path class="st0" d="M4,68.7c0,3.5,2.5,6.4,5.7,7.1c1.3-1.4,3.2-2.3,5.3-2.3h-3.8c-2.6,0-4.7-2.1-4.7-4.7c0-2.6,2.1-4.7,4.7-4.7
			h28.6c2.6,0,4.7,2.1,4.7,4.7c0,2.6-2.1,4.7-4.7,4.7h3.8c0.5,0,1,0.1,1.5,0.2c1.2-1.3,1.9-3,1.9-4.9c0-2.5-1.3-4.7-3.2-6
			c-1.2-0.8-2.6-1.3-4.1-1.3H11.3c-1.5,0-2.9,0.5-4.1,1.3C5.3,64,4,66.2,4,68.7z"/>
		<path class="st0" d="M33.4,88h10.2c1.3,0,2.6-0.4,3.7-1c2.2-1.3,3.6-3.6,3.6-6.3c0-3.5-2.5-6.4-5.7-7.1c-0.5-0.1-1-0.2-1.5-0.2
			h-3.8H15c-2.1,0-4,0.9-5.3,2.3c-1.2,1.3-1.9,3-1.9,4.9c0,4,3.3,7.3,7.3,7.3h14.3H33.4z M15,76h24.8h3.8c2.6,0,4.7,2.1,4.7,4.7
			c0,2.6-2.1,4.7-4.7,4.7H15c-2.6,0-4.7-2.1-4.7-4.7C10.3,78.1,12.4,76,15,76z"/>
		<path class="st0" d="M11.3,39.9c1.7,3.1,4.1,5.8,6.9,7.9c0.2-0.9,0.6-1.7,1.1-2.4c-5.2-4.1-8.6-10.5-8.6-17.7
			c0-12.4,10.1-22.4,22.4-22.4c12.4,0,22.4,10.1,22.4,22.4c0,5.5-2,10.6-5.4,14.5h3.2c0.6-0.9,1.2-1.8,1.7-2.8
			c0.5-0.9,0.9-1.8,1.3-2.8c1.1-2.8,1.7-5.8,1.7-9c0-13.8-11.2-25-25-25c-13.8,0-25,11.2-25,25c0,3.4,0.7,6.7,2,9.7
			C10.5,38.4,10.9,39.2,11.3,39.9z"/>
		<path class="st0" d="M25.3,56.9h19.3h2.5h5.5c0.1,1.7,0.8,4.7,3.2,7c2.3,2.2,5.5,3.3,9.6,3.3c0.7,0,1.3,0,2-0.1
			c0.7-0.1,1.2-0.7,1.2-1.4c-0.1-0.7-0.7-1.2-1.4-1.2c-0.2,0-0.4,0-0.6,0c-4.1,0.2-7.1-0.6-9.1-2.6c-2.7-2.6-2.5-6.4-2.5-6.4
			c0-0.3-0.1-0.7-0.3-0.9c-0.2-0.3-0.6-0.4-0.9-0.4H25.3c-2.6,0-4.7-2.1-4.7-4.7c0-2.6,2.1-4.7,4.7-4.7h28.6c0.2,0,0.5-0.1,0.7-0.2
			c0.4-0.2,0.6-0.6,0.6-1.1c0-0.7-0.6-1.3-1.3-1.3h-0.4h-3.2H34.4h-2.5h-6.6c-2.5,0-4.6,1.2-6,3.1c-0.5,0.7-0.9,1.5-1.1,2.4
			c-0.1,0.5-0.2,1-0.2,1.6c0,0.1,0,0.1,0,0.2c0,0.8,0.1,1.6,0.4,2.3C19.4,54.8,22.1,56.9,25.3,56.9z"/>
		<path class="st0" d="M80.6,51.6v37.8c0,0.5,0.1,1.1,0.2,1.6c0.2,0.9,0.5,1.8,1,2.5c1.4,2.2,3.8,3.6,6.5,3.6c4.2,0,7.7-3.5,7.7-7.7
			V48c0-4.2-3.5-7.7-7.7-7.7c-3.8,0-7,2.8-7.6,6.4c-0.1,0.4-0.1,0.8-0.1,1.3V51.6z M83.1,48c0-2.9,2.3-5.2,5.2-5.2
			c2.9,0,5.2,2.3,5.2,5.2v41.5c0,2.9-2.3,5.2-5.2,5.2c-2.9,0-5.2-2.3-5.2-5.2V48z"/>
	</g>
	<g>
		<path class="st0" d="M28.2,18.7H40v0c-0.7,1.1-1.1,1.6-1.2,1.7h-3.2c0.4,0.5,0.7,1.1,0.9,1.9h3.4c0,0,0.1,0,0.1,0
			c-0.8,1.1-1.1,1.7-1.2,1.7h-2.2c0,0.6-0.3,1.3-0.8,2.1c-0.7,0.8-1.3,1.4-1.9,1.6c-1.1,0.5-2.2,0.8-3.3,0.8v0
			c0,0.1,2.4,2.9,7.1,8.5h-3.1c-4.6-5.4-6.9-8.1-6.9-8.1v-1.6l0-0.1c0.4,0.1,0.9,0.1,1.4,0.1c2.6,0,4.2-0.8,4.8-2.5
			c0.1-0.2,0.1-0.5,0.1-0.8h-7c0,0,0,0,0,0c0.8-1.1,1.2-1.7,1.2-1.7h5.6v0c-0.3-0.6-0.9-1.2-1.9-1.5c-0.7-0.2-1.2-0.3-1.8-0.3H27
			v-0.1C27.7,19.3,28.1,18.7,28.2,18.7z"/>
	</g>
</g>
</svg>
