<?xml version="1.0" encoding="utf-8"?>
<!-- Generator: Adobe Illustrator 22.1.0, SVG Export Plug-In . SVG Version: 6.00 Build 0)  -->
<svg version="1.1" id="Layer_1" xmlns="http://www.w3.org/2000/svg" xmlns:xlink="http://www.w3.org/1999/xlink" x="0px" y="0px"
	 viewBox="0 0 130 130" style="enable-background:new 0 0 130 130;" xml:space="preserve">
<style type="text/css">
	.st0{fill:#20295C;}
</style>
<g>
	<g>
		<g>
			<path class="st0" d="M76.3,102.9H14.5c-0.8,0-1.5-0.7-1.5-1.5V26.7c0-0.8,0.7-1.5,1.5-1.5h13.9c0.8,0,1.5,0.7,1.5,1.5
				s-0.7,1.5-1.5,1.5H15.8V100h60.4c0.8,0,1.5,0.7,1.5,1.5C77.7,102.3,77.1,102.9,76.3,102.9z"/>
		</g>
		<g>
			<path class="st0" d="M56.2,28.2H35.4c-0.8,0-1.5-0.7-1.5-1.5c0-0.8,0.7-1.5,1.5-1.5h20.8c0.8,0,1.5,0.7,1.5,1.5
				C57.6,27.6,57,28.2,56.2,28.2z"/>
		</g>
		<g>
			<path class="st0" d="M104.4,69.5c-0.8,0-1.5-0.7-1.5-1.5V28.2H90c-0.8,0-1.5-0.7-1.5-1.5c0-0.8,0.7-1.5,1.5-1.5h14.5
				c0.8,0,1.5,0.7,1.5,1.5V68C105.8,68.8,105.2,69.5,104.4,69.5z"/>
		</g>
		<g>
			<path class="st0" d="M83.5,28.2H62.7c-0.8,0-1.5-0.7-1.5-1.5c0-0.8,0.7-1.5,1.5-1.5h20.8c0.8,0,1.5,0.7,1.5,1.5
				C84.9,27.6,84.3,28.2,83.5,28.2z"/>
		</g>
		<g>
			<g>
				<g>
					<path class="st0" d="M31,59.7h-8.3c-0.8,0-1.5-0.7-1.5-1.5V50c0-0.8,0.7-1.5,1.5-1.5H31c0.8,0,1.5,0.7,1.5,1.5v8.3
						C32.4,59.1,31.8,59.7,31,59.7z M24.1,56.8h5.4v-5.3h-5.4V56.8z"/>
				</g>
				<g>
					<path class="st0" d="M47.3,59.7H39c-0.8,0-1.5-0.7-1.5-1.5V50c0-0.8,0.7-1.5,1.5-1.5h8.3c0.8,0,1.5,0.7,1.5,1.5v8.3
						C48.6,59.1,48.1,59.7,47.3,59.7z M40.4,56.8h5.4v-5.3h-5.4V56.8z"/>
				</g>
				<g>
					<path class="st0" d="M63.6,59.7h-8.3c-0.8,0-1.5-0.7-1.5-1.5V50c0-0.8,0.7-1.5,1.5-1.5h8.3c0.8,0,1.5,0.7,1.5,1.5v8.3
						C64.9,59.1,64.4,59.7,63.6,59.7z M56.7,56.8h5.4v-5.3h-5.4V56.8z"/>
				</g>
				<g>
					<path class="st0" d="M79.9,59.7h-8.3c-0.8,0-1.5-0.7-1.5-1.5V50c0-0.8,0.7-1.5,1.5-1.5h8.3c0.8,0,1.5,0.7,1.5,1.5v8.3
						C81.2,59.1,80.7,59.7,79.9,59.7z M73,56.8h5.4v-5.3H73V56.8z"/>
				</g>
				<g>
					<path class="st0" d="M96.2,59.7h-8.3c-0.8,0-1.5-0.7-1.5-1.5V50c0-0.8,0.7-1.5,1.5-1.5h8.3c0.8,0,1.5,0.7,1.5,1.5v8.3
						C97.5,59.1,97,59.7,96.2,59.7z M89.3,56.8h5.4v-5.3h-5.4V56.8z"/>
				</g>
			</g>
			<g>
				<g>
					<path class="st0" d="M31,75.5h-8.3c-0.8,0-1.5-0.7-1.5-1.5v-8.3c0-0.8,0.7-1.5,1.5-1.5H31c0.8,0,1.5,0.7,1.5,1.5v8.4
						C32.4,74.9,31.8,75.5,31,75.5z M24.1,72.6h5.4v-5.4h-5.4V72.6z"/>
				</g>
				<g>
					<path class="st0" d="M47.3,75.5H39c-0.8,0-1.5-0.7-1.5-1.5v-8.3c0-0.8,0.7-1.5,1.5-1.5h8.3c0.8,0,1.5,0.7,1.5,1.5v8.4
						C48.6,74.9,48.1,75.5,47.3,75.5z M40.4,72.6h5.4v-5.4h-5.4V72.6z"/>
				</g>
				<g>
					<path class="st0" d="M63.6,75.5h-8.3c-0.8,0-1.5-0.7-1.5-1.5v-8.3c0-0.8,0.7-1.5,1.5-1.5h8.3c0.8,0,1.5,0.7,1.5,1.5v8.4
						C64.9,74.9,64.4,75.5,63.6,75.5z M56.7,72.6h5.4v-5.4h-5.4V72.6z"/>
				</g>
			</g>
			<g>
				<g>
					<path class="st0" d="M31,91.3h-8.3c-0.8,0-1.5-0.7-1.5-1.5v-8.3c0-0.8,0.7-1.5,1.5-1.5H31c0.8,0,1.5,0.7,1.5,1.5v8.3
						C32.4,90.6,31.8,91.3,31,91.3z M24.1,88.5h5.4v-5.4h-5.4V88.5z"/>
				</g>
				<g>
					<path class="st0" d="M47.3,91.3H39c-0.8,0-1.5-0.7-1.5-1.5v-8.3c0-0.8,0.7-1.5,1.5-1.5h8.3c0.8,0,1.5,0.7,1.5,1.5v8.3
						C48.6,90.6,48.1,91.3,47.3,91.3z M40.4,88.5h5.4v-5.4h-5.4V88.5z"/>
				</g>
				<g>
					<path class="st0" d="M63.6,91.3h-8.3c-0.8,0-1.5-0.7-1.5-1.5v-8.3c0-0.8,0.7-1.5,1.5-1.5h8.3c0.8,0,1.5,0.7,1.5,1.5v8.3
						C64.9,90.6,64.4,91.3,63.6,91.3z M56.7,88.5h5.4v-5.4h-5.4V88.5z"/>
				</g>
			</g>
		</g>
		<g>
			<path class="st0" d="M104.4,41h-90c-0.8,0-1.5-0.7-1.5-1.5s0.7-1.5,1.5-1.5h90c0.8,0,1.5,0.7,1.5,1.5
				C105.8,40.3,105.2,41,104.4,41z"/>
		</g>
		<g>
			<path class="st0" d="M35.4,34.4H29c-0.8,0-1.5-0.7-1.5-1.5V20.5c0-0.8,0.7-1.5,1.5-1.5h6.5c0.8,0,1.5,0.7,1.5,1.5v12.4
				C36.8,33.8,36.2,34.4,35.4,34.4z M30.3,31.6h3.6v-9.6h-3.6V31.6z"/>
		</g>
		<g>
			<path class="st0" d="M90,34.4h-6.5c-0.8,0-1.5-0.7-1.5-1.5V20.5c0-0.8,0.7-1.5,1.5-1.5H90c0.8,0,1.5,0.7,1.5,1.5v12.4
				C91.3,33.8,90.7,34.4,90,34.4z M84.9,31.6h3.6v-9.6h-3.6V31.6z"/>
		</g>
		<g>
			<path class="st0" d="M62.7,34.4h-6.5c-0.8,0-1.5-0.7-1.5-1.5V20.5c0-0.8,0.7-1.5,1.5-1.5h6.5c0.8,0,1.5,0.7,1.5,1.5v12.4
				C64,33.8,63.5,34.4,62.7,34.4z M57.6,31.6h3.6v-9.6h-3.6V31.6z"/>
		</g>
	</g>
	<g>
		<g>
			<path class="st0" d="M93.5,111c-3.2,0-6.3-0.7-9.2-1.8c-2.8-1.2-5.3-2.9-7.5-5.1c-2.2-2.2-3.8-4.6-5.1-7.5
				c-1.2-2.9-1.8-6-1.8-9.2s0.7-6.3,1.8-9.2c1.2-2.8,2.9-5.3,5.1-7.5c2.2-2.2,4.6-3.8,7.5-5.1c2.9-1.2,6-1.8,9.2-1.8
				s6.3,0.7,9.2,1.8c2.8,1.2,5.3,2.9,7.5,5.1c2.2,2.2,3.8,4.6,5.1,7.5c1.2,2.9,1.8,6,1.8,9.2c0,3.2-0.7,6.3-1.8,9.2
				c-1.2,2.8-2.9,5.3-5.1,7.5c-2.2,2.2-4.6,3.8-7.5,5.1C99.8,110.4,96.6,111,93.5,111z M93.5,66.6c-11.4,0-20.8,9.3-20.8,20.8
				s9.4,20.7,20.8,20.7s20.8-9.3,20.8-20.8S104.9,66.6,93.5,66.6z"/>
		</g>
	</g>
	<g>
		<g>
			<path class="st0" d="M93.5,105.9c-5,0-9.6-1.9-13.1-5.4c-3.5-3.5-5.4-8.1-5.4-13.1s1.9-9.6,5.4-13.1c3.5-3.5,8.1-5.4,13.1-5.4
				c5,0,9.6,1.9,13.1,5.4c3.5,3.5,5.4,8.1,5.4,13.1s-1.9,9.6-5.4,13.1C103.1,104,98.4,105.9,93.5,105.9z M93.5,71.7
				c-8.6,0-15.6,7-15.6,15.6s7,15.6,15.6,15.6s15.6-7,15.6-15.6S102.2,71.7,93.5,71.7z"/>
		</g>
	</g>
	<g>
		<path class="st0" d="M89.7,80.7h10.1l0,0c-0.6,0.9-0.9,1.4-1,1.5h-2.7c0.3,0.5,0.6,0.9,0.8,1.6h2.8l0,0c-0.7,1-1,1.5-1,1.5h-1.8
			c0,0.5-0.2,1.1-0.7,1.8c-0.6,0.7-1.1,1.1-1.7,1.4c-1,0.5-1.9,0.7-2.8,0.7l0,0c0,0.1,2,2.5,6.1,7.2H95c-4-4.6-5.9-6.9-5.9-6.9V88
			l0,0c0.3,0,0.8,0.1,1.2,0.1c2.3,0,3.6-0.7,4.1-2.2c0.1-0.2,0.1-0.5,0.1-0.7h-6l0,0c0.7-1,1-1.5,1-1.5h4.9l0,0
			c-0.2-0.6-0.8-1-1.6-1.2c-0.6-0.2-1-0.2-1.5-0.2h-2.7l0,0C89.4,81.1,89.6,80.7,89.7,80.7z"/>
	</g>
</g>
</svg>
