<?xml version="1.0" encoding="utf-8"?>
<!-- Generator: Adobe Illustrator 22.0.1, SVG Export Plug-In . SVG Version: 6.00 Build 0)  -->
<svg version="1.1" id="Layer_1" xmlns="http://www.w3.org/2000/svg" xmlns:xlink="http://www.w3.org/1999/xlink" x="0px" y="0px"
	 viewBox="0 0 100 100" style="enable-background:new 0 0 100 100;" xml:space="preserve">
<style type="text/css">
	.st0{fill:#FFFFFF;}
</style>
<g>
	<path class="st0" d="M15.9,70.1l-9.3-1.5C5.7,68.4,5,67.6,5,66.7V47.5h3.8v17.6l7.7,1.3L15.9,70.1z"/>
</g>
<g>
	<path class="st0" d="M37.9,53.3c-0.1,0-0.2,0-0.2,0l-31-3.9c-0.6-0.1-1.2-0.5-1.4-1c-0.3-0.6-0.3-1.2,0-1.8c1.7-3,4.8-5.5,9.1-7.6
		c4.1-2,9.3-3.4,14.9-4.1c0.7-0.1,1.5,0.3,1.9,0.9l8.3,14.7c0.3,0.6,0.3,1.4-0.1,2C39.1,53,38.5,53.3,37.9,53.3z M10.4,46l24,3
		l-5.8-10.3c-4.8,0.7-9.1,1.9-12.6,3.6l0,0C13.7,43.4,11.8,44.7,10.4,46z"/>
</g>
<g>
	<path class="st0" d="M50.9,76c-8.2,0-16.4-1.4-22.7-4.3c-5.3-2.4-8.6-5.6-9.8-9.2c-0.8-2.5-0.4-5,1-7.4c0.4-0.6,1.1-1,1.8-0.9
		l26.1,3.2l-6-10.4c-0.3-0.5-0.3-1.2-0.1-1.8s0.8-0.9,1.5-1c1.4-0.2,2.9-0.3,4.3-0.4l0.2,3.7c-0.4,0-0.8,0-1.2,0.1l6.5,11.1
		c0.4,0.6,0.3,1.4-0.1,2c-0.4,0.6-1.1,0.9-1.8,0.8L22.1,58c-0.4,1.1-0.5,2.2-0.1,3.3c0.8,2.5,3.5,5,7.7,6.9
		c11.6,5.4,30.6,5.4,42.2,0c4.8-2.2,7.6-5,7.9-7.8c0.3-2.6-1.6-4.8-3.3-6.2l2.4-2.9c4.4,3.6,5,7.2,4.7,9.6c-0.5,4.2-4.1,8-10.1,10.7
		C67.3,74.5,59.1,76,50.9,76z"/>
</g>
<g>
	<path class="st0" d="M50.9,92.1C32.5,92.1,18,85,18,75.9V60.3h3.8v15.6c0,6,11.7,12.5,29.1,12.5c17.4,0,29.1-6.5,29.1-12.5V60.3
		h3.8v15.6C83.8,85,69.3,92.1,50.9,92.1z"/>
</g>
<g>
	<path class="st0" d="M66.9,50.8c-12.4,0-22.5-9.6-22.5-21.5S54.5,7.9,66.9,7.9s22.5,9.6,22.5,21.5S79.3,50.8,66.9,50.8z M66.9,11.6
		c-10.3,0-18.8,7.9-18.8,17.7c0,9.8,8.4,17.7,18.8,17.7s18.8-7.9,18.8-17.7C85.6,19.6,77.2,11.6,66.9,11.6z"/>
</g>
<g>
	<path class="st0" d="M93.1,56.5c-0.5,0-1-0.2-1.3-0.5L80.5,44.7c-0.7-0.7-0.7-1.9,0-2.7s1.9-0.7,2.7,0l11.3,11.2
		c0.7,0.7,0.7,1.9,0,2.7C94.1,56.3,93.6,56.5,93.1,56.5z"/>
</g>
<g>
	<path class="st0" d="M62.3,19.7H75v0c-0.8,1.2-1.2,1.8-1.3,1.9c0,0-2.6,1.2-2.5,2h3.6c0,0,0.1,0,0.1,0.1c-0.8,1.2-1.2,1.8-1.2,1.8
		h-2.4c-0.1,0.6-0.4,1.4-0.9,2.3c-0.7,0.9-1.4,1.5-2.1,1.7c-1.2,0.6-2.4,0.9-3.6,0.9v0c0,0.1,2.6,3.1,7.7,9.1h-3.4
		c-5-5.8-7.5-8.7-7.5-8.7V29l0-0.1c0.4,0.1,1,0.1,1.5,0.1c2.8,0,4.5-0.9,5.2-2.7c0.1-0.3,0.2-0.5,0.2-0.8H61c0,0-0.1,0-0.1-0.1
		c0.8-1.2,1.3-1.8,1.3-1.8h6v0c-0.3-0.7-1-1.2-2-1.6c-0.7-0.2-1.3-0.3-1.9-0.3H61v-0.1C61.8,20.3,62.2,19.7,62.3,19.7z"/>
</g>
</svg>
