<?xml version="1.0" encoding="utf-8"?>
<!-- Generator: Adobe Illustrator 22.0.1, SVG Export Plug-In . SVG Version: 6.00 Build 0)  -->
<svg version="1.1" id="Layer_1" xmlns="http://www.w3.org/2000/svg" xmlns:xlink="http://www.w3.org/1999/xlink" x="0px" y="0px"
	 viewBox="0 0 100 100" style="enable-background:new 0 0 100 100;" xml:space="preserve">
<style type="text/css">
	.st0{fill:none;stroke:#FFFFFF;stroke-width:1.5;stroke-miterlimit:10;}
	.st1{fill:#FFFFFF;}
</style>
<path class="st0" d="M86.7,66.8c5.7-4.2,7.2-10.2,7.3-15.6c0-6.2-2.1-12.2-5.8-17.2L76.6,18.4H65H53.4L41.8,34
	c-3.7,5-5.9,11-5.8,17.2c0,6,2,12.7,9.2,16.9"/>
<path class="st0" d="M76.7,13.7H53.3c-1.3,0-2.3,1-2.3,2.3v0c0,1.3,1,2.3,2.3,2.3h23.4c1.3,0,2.3-1,2.3-2.3v0
	C79,14.8,78,13.7,76.7,13.7z"/>
<path class="st0" d="M73,3.4l-2.3,2.3l-1-1c-2.6-2.6-6.8-2.6-9.3,0l-1,1l-2.2-2.3c-2.1-2.1-5.5-2.1-7.6,0l-2.8,2.8l7.8,7.5h10.5
	h10.5l7.8-7.5l-2.8-2.8C78.5,1.3,75.1,1.3,73,3.4z"/>
<path class="st0" d="M55,80.1h4c3.9,0,7.6-1.2,10.8-3.3l3-2c0.5-0.3,0.7-1,0.3-1.5c-0.5-0.7-1.1-1.2-1.7-1.6c-1.4-0.8-3.2-0.8-4.7,0
	c-5.5,2.7-10.4,0.4-10.4,0.4c-1.8-1.1-3.5-2-5.1-2.6c-6.8-2.8-14.5-1.7-20.5,2.5l0,0"/>
<path class="st0" d="M30.9,86.2c0,0,9.2-1.8,25.2-0.9c4.2,0.2,8.4-0.7,12.2-2.7l24.3-12.8c0.5-0.3,0.7-1,0.3-1.4
	C92,67.2,90,65.7,86,66.7c-0.5,0.1-0.9,0.3-1.3,0.5l-12.2,5.2"/>
<polyline class="st0" points="21.6,92 30.6,92 30.6,68.8 21.6,68.8 "/>
<rect x="6" y="62" class="st0" width="15.6" height="36.2"/>
<g>
	<path class="st1" d="M58.4,34.5H73v0c-0.9,1.3-1.3,2-1.5,2.1h-3.9c0.5,0.6,0.9,1.4,1.1,2.3h4.1c0.1,0,0.1,0,0.1,0.1
		c-0.9,1.4-1.4,2.1-1.4,2.1h-2.7c-0.1,0.7-0.4,1.6-1,2.6c-0.8,1-1.6,1.7-2.4,2c-1.4,0.7-2.8,1-4.1,1v0c0,0.1,2.9,3.6,8.8,10.4h-3.9
		c-5.7-6.6-8.5-10-8.5-10v-2l0-0.1c0.5,0.1,1.1,0.1,1.8,0.1c3.2,0,5.2-1,5.9-3.1c0.1-0.3,0.2-0.6,0.2-0.9H57c0,0-0.1,0-0.1-0.1
		c1-1.4,1.4-2.1,1.5-2.1h6.9v0c-0.4-0.8-1.2-1.4-2.3-1.9c-0.8-0.3-1.5-0.4-2.2-0.4H57v-0.1C57.9,35.2,58.4,34.5,58.4,34.5z"/>
</g>
</svg>
