<?xml version="1.0" encoding="utf-8"?>
<!-- Generator: Adobe Illustrator 22.0.1, SVG Export Plug-In . SVG Version: 6.00 Build 0)  -->
<svg version="1.1" id="Layer_1" xmlns="http://www.w3.org/2000/svg" xmlns:xlink="http://www.w3.org/1999/xlink" x="0px" y="0px"
	 viewBox="0 0 100 100" style="enable-background:new 0 0 100 100;" xml:space="preserve">
<style type="text/css">
	.st0{fill:none;stroke:#FFFFFF;stroke-width:2;stroke-miterlimit:10;}
	.st1{fill:#FFFFFF;}
</style>
<g>
	<g>
		<path class="st0" d="M85.9,66.4c5.5-4.1,7.1-10,7.1-15.3c0-6.1-2.1-11.9-5.7-16.8L76,19.1H64.7H53.4L42,34.3
			c-3.6,4.9-5.7,10.7-5.7,16.8c0,5.8,1.9,12.4,9,16.5"/>
		<path class="st0" d="M76.1,14.5H53.3c-1.3,0-2.3,1-2.3,2.3v0c0,1.3,1,2.3,2.3,2.3h22.8c1.3,0,2.3-1,2.3-2.3v0
			C78.3,15.6,77.3,14.5,76.1,14.5z"/>
		<path class="st0" d="M72.5,4.4l-2.2,2.2l-1-1c-2.5-2.5-6.6-2.5-9.1,0l-1,1l-2.2-2.2c-2-2-5.4-2-7.4,0l-2.7,2.7l7.6,7.4h10.3h10.3
			l7.6-7.4l-2.7-2.7C77.9,2.4,74.6,2.4,72.5,4.4z"/>
		<path class="st0" d="M54.9,79.4h4c3.8,0,7.5-1.1,10.6-3.3l2.9-2c0.5-0.3,0.6-1,0.3-1.5c-0.5-0.7-1.1-1.2-1.7-1.5
			c-1.4-0.8-3.1-0.8-4.6,0c-5.4,2.6-10.1,0.4-10.1,0.4c-1.7-1.1-3.4-1.9-5-2.6c-6.6-2.7-14.2-1.7-20,2.4l0,0"/>
		<path class="st0" d="M31.3,85.3c0,0,8.9-1.7,24.6-0.8c4.1,0.2,8.2-0.7,11.9-2.6l23.8-12.5c0.5-0.3,0.7-0.9,0.3-1.4
			c-0.9-1.1-2.8-2.6-6.7-1.6c-0.4,0.1-0.9,0.3-1.3,0.5l-12,5.1"/>
		<polyline class="st0" points="22.3,91.1 31.1,91.1 31.1,68.4 22.3,68.4 		"/>
		<rect x="7" y="61.7" class="st0" width="15.3" height="35.4"/>
	</g>
	<g>
		<path class="st1" d="M59.2,37.2h13v0c-0.8,1.2-1.2,1.8-1.3,1.9h-3.5c0.5,0.6,0.8,1.2,1,2h3.7c0,0,0.1,0,0.1,0.1
			c-0.8,1.2-1.3,1.9-1.3,1.9h-2.4c-0.1,0.6-0.4,1.4-0.9,2.3c-0.7,0.9-1.4,1.5-2.1,1.8c-1.3,0.6-2.5,0.9-3.6,0.9v0
			c0,0.1,2.6,3.2,7.8,9.3h-3.4c-5.1-5.9-7.6-8.9-7.6-8.9v-1.8l0-0.1c0.4,0.1,1,0.1,1.6,0.1c2.8,0,4.6-0.9,5.3-2.8
			c0.1-0.3,0.2-0.5,0.2-0.8H58c0,0-0.1,0-0.1-0.1c0.9-1.2,1.3-1.9,1.3-1.9h6.1v0c-0.4-0.7-1-1.3-2-1.7c-0.7-0.2-1.4-0.4-1.9-0.4
			h-3.4v-0.1C58.8,37.9,59.2,37.2,59.2,37.2z"/>
	</g>
</g>
</svg>
