<?xml version="1.0" encoding="utf-8"?>
<!-- Generator: Adobe Illustrator 22.0.1, SVG Export Plug-In . SVG Version: 6.00 Build 0)  -->
<svg version="1.1" id="Layer_1" xmlns="http://www.w3.org/2000/svg" xmlns:xlink="http://www.w3.org/1999/xlink" x="0px" y="0px"
	 viewBox="0 0 100 100" style="enable-background:new 0 0 100 100;" xml:space="preserve">
<style type="text/css">
	.st0{fill:none;stroke:#FFFFFF;stroke-width:2;stroke-miterlimit:10;}
	.st1{fill:#FFFFFF;}
</style>
<g>
	<g>
		<path class="st0" d="M83.4,65.2C88.5,61.4,90,55.9,90,51c0-5.6-1.9-11.1-5.3-15.6L74.1,21.2H63.6H53.1L42.6,35.4
			c-3.4,4.5-5.3,10-5.3,15.6c0,5.4,1.8,11.5,8.4,15.4"/>
		<path class="st0" d="M74.8,17H52.4c-0.8,0-1.5,0.7-1.5,1.5v1.2c0,0.8,0.7,1.5,1.5,1.5h22.4c0.8,0,1.5-0.7,1.5-1.5v-1.2
			C76.4,17.7,75.7,17,74.8,17z"/>
		<path class="st0" d="M71,7.6l-2,2L68,8.8c-2.3-2.3-6.1-2.3-8.5,0l-0.9,0.9l-2-2c-1.9-1.9-5-1.9-6.9,0l-2.5,2.5l7.1,6.8h9.5h9.5
			l7.1-6.8l-2.5-2.5C75.9,5.7,72.9,5.7,71,7.6z"/>
		<path class="st0" d="M54.6,77.4h3.7c3.5,0,6.9-1.1,9.9-3l2.7-1.8c0.4-0.3,0.6-0.9,0.3-1.4c-0.4-0.6-1-1.1-1.5-1.4
			c-1.3-0.8-2.9-0.7-4.3,0c-5,2.4-9.4,0.4-9.4,0.4c-1.6-1-3.2-1.8-4.6-2.4c-6.2-2.5-13.2-1.6-18.6,2.3l0,0"/>
		<path class="st0" d="M32.6,82.9c0,0,8.3-1.6,22.9-0.8c3.8,0.2,7.7-0.6,11.1-2.4L88.7,68c0.5-0.3,0.6-0.9,0.3-1.3
			c-0.8-1-2.6-2.4-6.2-1.5c-0.4,0.1-0.8,0.3-1.2,0.4l-11.1,4.7"/>
		<polyline class="st0" points="24.2,88.2 32.4,88.2 32.4,67.1 24.2,67.1 		"/>
		<rect x="10" y="60.9" class="st0" width="14.2" height="32.9"/>
	</g>
	<g>
		<path class="st1" d="M58,36h12.6v0c-0.7,1.1-1.2,1.8-1.3,1.8H66c0.5,0.5,0.8,1.2,0.9,2h3.6c0,0,0.1,0,0.1,0.1
			c-0.8,1.2-1.2,1.8-1.2,1.8H67c-0.1,0.6-0.3,1.4-0.9,2.2c-0.7,0.9-1.4,1.5-2.1,1.7c-1.2,0.6-2.4,0.9-3.5,0.9v0c0,0.1,2.5,3.1,7.6,9
			h-3.3c-4.9-5.7-7.4-8.6-7.4-8.6v-1.7l0-0.1c0.4,0.1,0.9,0.1,1.5,0.1c2.8,0,4.5-0.9,5.1-2.7c0.1-0.3,0.2-0.5,0.2-0.8h-7.5
			c0,0-0.1,0-0.1-0.1c0.8-1.2,1.3-1.8,1.3-1.8H64v0c-0.3-0.7-1-1.2-2-1.6c-0.7-0.2-1.3-0.3-1.9-0.3h-3.3v-0.1C57.6,36.6,58,36,58,36
			z"/>
	</g>
</g>
</svg>
