<?xml version="1.0" encoding="utf-8"?>
<!-- Generator: Adobe Illustrator 22.0.1, SVG Export Plug-In . SVG Version: 6.00 Build 0)  -->
<svg version="1.1" id="Layer_1" xmlns="http://www.w3.org/2000/svg" xmlns:xlink="http://www.w3.org/1999/xlink" x="0px" y="0px"
	 viewBox="0 0 130 130" style="enable-background:new 0 0 130 130;" xml:space="preserve">
<style type="text/css">
	.st0{fill:#202C5C;}
	.st1{fill:#212B5C;}
</style>
<g>
	<g>
		<path class="st0" d="M60.9,35.2h11.2l0,0c-0.7,1-1.1,1.5-1.1,1.7h-3c0.4,0.5,0.7,1.1,0.9,1.7H72c0.1,0,0.1,0,0.1,0.1
			c-0.7,1.1-1.1,1.6-1.1,1.6h-2.1c-0.1,0.5-0.3,1.2-0.8,2c-0.7,0.8-1.3,1.3-1.9,1.5c-1.1,0.5-2.1,0.8-3.1,0.8l0,0
			c0,0.1,2.3,2.7,6.7,7.9h-3c-4.4-5.1-6.6-7.6-6.6-7.7v-1.5v-0.1c0.4,0.1,0.9,0.1,1.4,0.1c2.4,0,4-0.8,4.6-2.4
			c0.1-0.3,0.1-0.5,0.1-0.7h-6.6c0,0-0.1,0-0.1-0.1c0.7-1.1,1.1-1.6,1.1-1.6h5.3l0,0c-0.3-0.6-0.9-1.1-1.7-1.5
			c-0.7-0.1-1.3-0.2-1.7-0.2h-3v-0.1C60.5,35.7,60.8,35.2,60.9,35.2z"/>
	</g>
	<path class="st1" d="M34.3,104.1H27c5-1.1,8.8-5.5,8.8-10.8c0-6.1-5-11-11.1-11c-6.1,0-11.1,4.9-11.1,11c0,5.3,3.8,9.7,8.8,10.8H15
		c-5,0-9,4-9,9v9.2c0,1,0.8,1.8,1.8,1.8h33.7c1,0,1.8-0.8,1.8-1.8v-9.2C43.3,108.1,39.2,104.1,34.3,104.1z M17.1,93.3
		c0-4.1,3.4-7.5,7.6-7.5c4.2,0,7.6,3.3,7.6,7.5c0,4.1-3.4,7.5-7.6,7.5C20.5,100.7,17.1,97.4,17.1,93.3z M39.7,120.4H9.6v-7.4
		c0-3,2.4-5.4,5.4-5.4h19.3c3,0,5.4,2.4,5.4,5.4V120.4z"/>
	<path class="st1" d="M74.6,104.1h-7.3c5-1.1,8.8-5.5,8.8-10.8c0-6.1-5-11-11.1-11s-11.1,4.9-11.1,11c0,5.3,3.8,9.7,8.8,10.8h-7.3
		c-5,0-9,4-9,9v9.2c0,1,0.8,1.8,1.8,1.8h33.7c1,0,1.8-0.8,1.8-1.8v-9.2C83.6,108.1,79.6,104.1,74.6,104.1z M57.4,93.3
		c0-4.1,3.4-7.5,7.6-7.5s7.6,3.3,7.6,7.5c0,4.1-3.4,7.5-7.6,7.5S57.4,97.4,57.4,93.3z M80.1,120.4H49.9v-7.4c0-3,2.4-5.4,5.4-5.4
		h19.3c3,0,5.4,2.4,5.4,5.4V120.4z"/>
	<path class="st1" d="M115,104.1h-7.3c5-1.1,8.8-5.5,8.8-10.8c0-6.1-5-11-11.1-11c-6.1,0-11.1,4.9-11.1,11c0,5.3,3.8,9.7,8.8,10.8
		h-7.3c-5,0-9,4-9,9v9.2c0,1,0.8,1.8,1.8,1.8h33.7c1,0,1.8-0.8,1.8-1.8v-9.2C124,108.1,120,104.1,115,104.1z M97.8,93.3
		c0-4.1,3.4-7.5,7.6-7.5c4.2,0,7.6,3.3,7.6,7.5c0,4.1-3.4,7.5-7.6,7.5C101.2,100.7,97.8,97.4,97.8,93.3z M120.4,120.4H90.3v-7.4
		c0-3,2.4-5.4,5.4-5.4H115c3,0,5.4,2.4,5.4,5.4V120.4z"/>
	<path class="st1" d="M99.8,44.2c1,0,1.8-0.8,1.8-1.8c0-1-0.8-1.8-1.8-1.8H95c-0.9-15.1-13-27.2-28.2-28.1V7.8C66.8,6.8,66,6,65,6
		c-1,0-1.8,0.8-1.8,1.8v4.7c-15.2,0.9-27.3,13-28.2,28.1h-4.8c-1,0-1.8,0.8-1.8,1.8c0,1,0.8,1.8,1.8,1.8H35
		c0.9,15.1,13,27.2,28.2,28.1V77c0,1,0.8,1.8,1.8,1.8c1,0,1.8-0.8,1.8-1.8v-4.7c15.2-0.9,27.3-13,28.2-28.1H99.8z M66.8,68.7v-4.5
		c0-1-0.8-1.8-1.8-1.8c-1,0-1.8,0.8-1.8,1.8v4.5C50,67.8,39.5,57.3,38.6,44.2h4.6c1,0,1.8-0.8,1.8-1.8c0-1-0.8-1.8-1.8-1.8h-4.6
		C39.5,27.5,50,17,63.2,16.1v4.5c0,1,0.8,1.8,1.8,1.8c1,0,1.8-0.8,1.8-1.8v-4.5C80,17,90.5,27.5,91.4,40.6h-4.6
		c-1,0-1.8,0.8-1.8,1.8c0,1,0.8,1.8,1.8,1.8h4.6C90.5,57.3,80,67.8,66.8,68.7z"/>
	<path class="st1" d="M65,25.9c-9.1,0-16.6,7.4-16.6,16.5c0,9.1,7.4,16.5,16.6,16.5s16.6-7.4,16.6-16.5C81.6,33.3,74.1,25.9,65,25.9
		z M65,55.3c-7.2,0-13-5.8-13-12.9c0-7.1,5.8-12.9,13-12.9s13,5.8,13,12.9C78,49.5,72.2,55.3,65,55.3z"/>
</g>
</svg>
