<?xml version="1.0" encoding="utf-8"?>
<!-- Generator: Adobe Illustrator 22.0.1, SVG Export Plug-In . SVG Version: 6.00 Build 0)  -->
<svg version="1.1" id="Layer_1" xmlns="http://www.w3.org/2000/svg" xmlns:xlink="http://www.w3.org/1999/xlink" x="0px" y="0px"
	 viewBox="0 0 130 130" style="enable-background:new 0 0 130 130;" xml:space="preserve">
<style type="text/css">
	.st0{fill:none;stroke:#202E5C;stroke-width:2;stroke-miterlimit:10;}
</style>
<g>
	<g>
		<path class="st0" d="M22,104.6V66c0-7.1,5.8-12.9,12.9-12.9h38.6c7.1,0,12.9,5.8,12.9,12.9v38.6c0,7.1-5.8,12.9-12.9,12.9H34.9
			C27.8,117.5,22,111.7,22,104.6z"/>
		<path class="st0" d="M76.9,39.8h-9.4v-4.8c0-7.3-5.9-13.2-13.2-13.2s-13.2,5.9-13.2,13.2v18h-9.4V35.2c0-12.6,10.2-22.7,22.7-22.7
			c12.6,0,22.7,10.2,22.7,22.7C76.9,35.2,76.9,39.8,76.9,39.8z"/>
		<line class="st0" x1="54.2" y1="75.5" x2="54.2" y2="95"/>
	</g>
	<line class="st0" x1="86.7" y1="43.8" x2="91" y2="32.4"/>
	<line class="st0" x1="93.7" y1="48.9" x2="104" y2="42.4"/>
	<line class="st0" x1="95.8" y1="58.3" x2="108" y2="58"/>
</g>
</svg>
