<?xml version="1.0" encoding="utf-8"?>
<!-- Generator: Adobe Illustrator 22.0.1, SVG Export Plug-In . SVG Version: 6.00 Build 0)  -->
<svg version="1.1" id="Layer_1" xmlns="http://www.w3.org/2000/svg" xmlns:xlink="http://www.w3.org/1999/xlink" x="0px" y="0px"
	 viewBox="0 0 100 100" style="enable-background:new 0 0 100 100;" xml:space="preserve">
<style type="text/css">
	.st0{fill:#FFFFFF;}
</style>
<g>
	<path class="st0" d="M76.4,23C69.6,16.3,60.3,12.2,50,12.2c-20.9,0-37.8,16.9-37.8,37.8c0,7.9,2.4,15.2,6.6,21.3l1.9-2.4
		C17.2,63.5,15.1,57,15.1,50c0-19.2,15.6-34.9,34.9-34.9c9.6,0,18.3,3.9,24.6,10.2L76.4,23z"/>
	<path class="st0" d="M50,84.9c-9.1,0-17.3-3.5-23.6-9.2L24.6,78c6.7,6.1,15.6,9.8,25.4,9.8c20.9,0,37.8-16.9,37.8-37.8
		c0-7.4-2.1-14.2-5.8-20l-1.9,2.5c3,5.1,4.7,11.1,4.7,17.5C84.9,69.2,69.2,84.9,50,84.9z"/>
	<path class="st0" d="M15,75.9C9.6,68.7,6.4,59.7,6.4,50C6.4,26,26,6.4,50,6.4c11.5,0,22,4.5,29.8,11.9l1.8-2.4
		C73.3,8.2,62.2,3.5,50,3.5C24.3,3.5,3.5,24.3,3.5,50c0,10.6,3.6,20.4,9.6,28.2L15,75.9z"/>
	<path class="st0" d="M87.5,22.5L85.7,25c5,7.1,7.9,15.7,7.9,25C93.6,74,74,93.6,50,93.6c-11.2,0-21.4-4.2-29.1-11.2l-1.9,2.3
		C27.3,92,38.1,96.5,50,96.5c25.7,0,46.5-20.8,46.5-46.5C96.5,39.7,93.2,30.2,87.5,22.5z"/>
	<path class="st0" d="M49.1,67.2c0.6,0.5,1.5,0.3,2-0.3l41.9-56.7L92.9,12c-0.1,0.8,0.5,1.5,1.3,1.6c0,0,0.1,0,0.1,0
		c0.7,0,1.4-0.6,1.4-1.3l0.7-7.2c0.1-0.5-0.2-1-0.6-1.3c-0.4-0.3-1-0.4-1.4-0.1l-6.6,3c-0.7,0.3-1.1,1.2-0.7,1.9
		c0.3,0.7,1.2,1.1,1.9,0.7l1.7-0.7L49.6,64l-12.3-8.6c-0.6-0.4-1.5-0.3-2,0.3L3.8,94.1c-0.5,0.6-0.4,1.5,0.2,2
		c0.3,0.2,0.6,0.3,0.9,0.3c0.4,0,0.8-0.2,1.1-0.5l30.7-37.5L49.1,67.2z"/>
</g>
<g>
	<path class="st0" d="M43.6,30.3H55v0c-0.7,1-1.1,1.6-1.1,1.7h-3.1c0.4,0.5,0.7,1.1,0.9,1.8h3.3c0,0,0.1,0,0.1,0
		c-0.7,1.1-1.1,1.6-1.1,1.6h-2.1c0,0.6-0.3,1.2-0.8,2c-0.6,0.8-1.3,1.3-1.9,1.6c-1.1,0.5-2.2,0.8-3.2,0.8v0c0,0.1,2.3,2.8,6.9,8.2
		h-3c-4.5-5.2-6.7-7.8-6.7-7.8v-1.6l0-0.1c0.4,0.1,0.9,0.1,1.4,0.1c2.5,0,4.1-0.8,4.7-2.4c0.1-0.2,0.1-0.5,0.1-0.7h-6.8c0,0,0,0,0,0
		c0.8-1.1,1.1-1.6,1.2-1.6H49v0c-0.3-0.6-0.9-1.1-1.8-1.5c-0.6-0.2-1.2-0.3-1.7-0.3h-3v-0.1C43.2,30.8,43.6,30.3,43.6,30.3z"/>
</g>
</svg>
