<?xml version="1.0" encoding="utf-8"?>
<!-- Generator: Adobe Illustrator 22.0.1, SVG Export Plug-In . SVG Version: 6.00 Build 0)  -->
<svg version="1.1" id="Layer_1" xmlns="http://www.w3.org/2000/svg" xmlns:xlink="http://www.w3.org/1999/xlink" x="0px" y="0px"
	 viewBox="0 0 130 130" style="enable-background:new 0 0 130 130;" xml:space="preserve">
<style type="text/css">
	.st0{fill:none;stroke:#212E5C;stroke-width:2;stroke-miterlimit:10;}
	.st1{fill:#212E5C;}
</style>
<g>
	<path class="st0" d="M68.1,24.7C68.2,24.7,68.2,24.7,68.1,24.7l15.5,0L69,13v6.3c0,0.7-0.6,1.3-1.3,1.3
		c-22.1,0-40.7,15.3-45.8,35.8C30.4,38.6,47.8,26.3,68.1,24.7z"/>
	<path class="st0" d="M61,117v-6.3c0-0.7,0.6-1.3,1.3-1.3c22.1,0,40.7-15.3,45.8-35.8c-8.5,17.8-25.9,30.1-46.2,31.7
		c0,0-0.1,0-0.1,0H46.4L61,117z"/>
	<path class="st1" d="M19.1,69c0,0,0.1,0,0.2,0c0.6,0,1.1-0.4,1.3-1C26,45.5,45.2,29.1,68.3,27.3h19c0.5,0,1-0.3,1.2-0.9
		c0.2-0.5,0-1.1-0.4-1.4L68.5,9.4c-0.4-0.3-0.9-0.4-1.4-0.2c-0.4,0.2-0.7,0.7-0.7,1.2V18C39.6,18.7,18,40.8,18,67.7
		C18,68.4,18.5,68.9,19.1,69z M67.7,20.6c0.7,0,1.3-0.6,1.3-1.3V13l14.6,11.7H68.2c0,0-0.1,0-0.1,0c-20.3,1.6-37.7,13.9-46.2,31.7
		C27,35.9,45.6,20.6,67.7,20.6z"/>
	<path class="st1" d="M42.8,102.7c-0.6,0-1,0.3-1.2,0.9c-0.2,0.5,0,1.1,0.4,1.4l19.5,15.6c0.2,0.2,0.5,0.3,0.8,0.3
		c0.2,0,0.4,0,0.6-0.1c0.4-0.2,0.7-0.7,0.7-1.2V112c26.8-0.7,48.4-22.7,48.4-49.7c0-0.6-0.5-1.2-1.1-1.3c-0.6-0.1-1.2,0.3-1.4,1
		c-5.5,22.5-24.6,38.9-47.7,40.7H42.8z M61.9,105.3c20.3-1.6,37.7-13.8,46.2-31.7c-5.1,20.5-23.7,35.8-45.8,35.8
		c-0.7,0-1.3,0.6-1.3,1.3v6.3l-14.6-11.7h15.4C61.8,105.3,61.8,105.3,61.9,105.3z"/>
</g>
<g>
	<path class="st1" d="M54,45.9h24.6V46c-1.4,2.2-2.3,3.4-2.5,3.6h-6.6c0.9,1.1,1.5,2.3,1.8,3.9h7c0.1,0,0.1,0.1,0.1,0.1
		c-1.6,2.3-2.4,3.5-2.4,3.5h-4.5c-0.1,1.2-0.7,2.7-1.7,4.4c-1.4,1.7-2.7,2.8-4,3.3c-2.4,1.1-4.7,1.7-6.8,1.7v0.1
		c0,0.2,4.9,6,14.8,17.5h-6.5c-9.6-11.2-14.4-16.8-14.4-16.8v-3.4l0.1-0.1c0.9,0.1,1.8,0.2,3,0.2c5.4,0,8.7-1.7,10-5.2
		c0.2-0.5,0.3-1,0.3-1.6H51.6c-0.1,0-0.1,0-0.1-0.1c1.6-2.3,2.4-3.5,2.5-3.5h11.6v-0.1c-0.7-1.3-1.9-2.4-3.9-3.1
		c-1.4-0.4-2.6-0.7-3.7-0.7h-6.5v-0.1C53.1,47.1,53.9,45.9,54,45.9z"/>
</g>
</svg>
