<?xml version="1.0" encoding="utf-8"?>
<!-- Generator: Adobe Illustrator 22.0.1, SVG Export Plug-In . SVG Version: 6.00 Build 0)  -->
<svg version="1.1" id="Layer_1" xmlns="http://www.w3.org/2000/svg" xmlns:xlink="http://www.w3.org/1999/xlink" x="0px" y="0px"
	 viewBox="0 0 100 100" style="enable-background:new 0 0 100 100;" xml:space="preserve">
<style type="text/css">
	.st0{fill:none;stroke:#FFFFFF;stroke-width:2;stroke-miterlimit:10;}
	.st1{fill:none;stroke:#FFFFFF;stroke-width:2;stroke-linecap:round;stroke-miterlimit:10;}
</style>
<g>
	<path class="st0" d="M35.5,15.6c0-0.3-0.2-0.5-0.5-0.5c-0.3,0-0.5,0.2-0.5,0.5c0,0.3,0.2,0.5,0.5,0.5
		C35.3,16.1,35.5,15.9,35.5,15.6z"/>
	<path class="st0" d="M91.2,16.3c0-0.3-0.2-0.5-0.5-0.5c-0.3,0-0.5,0.2-0.5,0.5c0,0.3,0.2,0.5,0.5,0.5C91,16.7,91.2,16.5,91.2,16.3z
		"/>
	<line class="st1" x1="2" y1="91.7" x2="95.9" y2="91.7"/>
	<rect x="2" y="50" class="st0" width="10.3" height="32.9"/>
	<rect x="85.5" y="32.9" class="st0" width="10.3" height="50"/>
	<rect x="29.8" y="32.3" class="st0" width="10.3" height="50.7"/>
	<ellipse transform="matrix(0.3807 -0.9247 0.9247 0.3807 7.2217 42.0468)" class="st0" cx="35" cy="15.6" rx="7.3" ry="7.3"/>
	<ellipse transform="matrix(0.9872 -0.1598 0.1598 0.9872 -1.4327 14.6982)" class="st0" cx="90.7" cy="16.3" rx="7.3" ry="7.3"/>
	<rect x="57.7" y="48.1" class="st0" width="10.3" height="34.8"/>
	<circle class="st0" cx="62.8" cy="31.5" r="4.4"/>
	<path class="st0" d="M11.5,33.4c0-2.4-2-4.4-4.4-4.4c-2.4,0-4.4,2-4.4,4.4c0,2.4,2,4.4,4.4,4.4C9.6,37.7,11.5,35.8,11.5,33.4z"/>
	<line class="st0" x1="10.4" y1="30.5" x2="28.7" y2="19.4"/>
	<line class="st0" x1="41.7" y1="18.5" x2="58.5" y2="29"/>
	<line class="st0" x1="66.7" y1="29.4" x2="84.1" y2="19.4"/>
</g>
</svg>
