<?xml version="1.0" encoding="utf-8"?>
<!-- Generator: Adobe Illustrator 22.0.1, SVG Export Plug-In . SVG Version: 6.00 Build 0)  -->
<svg version="1.1" id="Layer_1" xmlns="http://www.w3.org/2000/svg" xmlns:xlink="http://www.w3.org/1999/xlink" x="0px" y="0px"
	 viewBox="0 0 130 130" style="enable-background:new 0 0 130 130;" xml:space="preserve">
<style type="text/css">
	.st0{fill:#212E5C;}
</style>
<g>
	<path class="st0" d="M47.6,35h38.7V35c-2.3,3.5-3.6,5.4-3.9,5.6H72.1c1.4,1.7,2.4,3.7,2.9,6.1h11c0.1,0,0.2,0.1,0.2,0.2
		c-2.5,3.7-3.7,5.6-3.8,5.6h-7.2c-0.2,1.9-1.1,4.2-2.7,6.9c-2.2,2.7-4.3,4.5-6.3,5.3c-3.8,1.8-7.4,2.7-10.8,2.7v0.1
		c0,0.3,7.8,9.5,23.3,27.6H68.5C53.3,77.4,45.8,68.6,45.8,68.5v-5.4l0.1-0.2c1.3,0.2,2.9,0.3,4.7,0.3c8.5,0,13.7-2.7,15.8-8.2
		c0.3-0.8,0.5-1.6,0.5-2.5h-23c-0.1,0-0.2-0.1-0.2-0.2c2.5-3.7,3.8-5.6,3.9-5.6h18.3v-0.1c-1-2.1-3.1-3.8-6.1-4.9
		c-2.1-0.7-4.1-1-5.8-1H43.8v-0.2C46.2,36.8,47.5,35,47.6,35z"/>
</g>
</svg>
