<?xml version="1.0" encoding="utf-8"?>
<!-- Generator: Adobe Illustrator 22.0.1, SVG Export Plug-In . SVG Version: 6.00 Build 0)  -->
<svg version="1.1" id="Layer_1" xmlns="http://www.w3.org/2000/svg" xmlns:xlink="http://www.w3.org/1999/xlink" x="0px" y="0px"
	 viewBox="0 0 130 130" style="enable-background:new 0 0 130 130;" xml:space="preserve">
<style type="text/css">
	.st0{fill:none;stroke:#212E5C;stroke-width:2;stroke-miterlimit:10;}
</style>
<g>
	<line class="st0" x1="22" y1="20.7" x2="108.1" y2="20.7"/>
	<line class="st0" x1="108.1" y1="29.6" x2="22" y2="29.6"/>
	<line class="st0" x1="17.7" y1="32.2" x2="17.7" y2="18.1"/>
	<path class="st0" d="M17.7,20.7h-3.3c-2.4,0-4.4,1.9-4.4,4.4l0,0c0,2.4,1.9,4.4,4.4,4.4h3.2"/>
	<line class="st0" x1="112.4" y1="32.2" x2="112.4" y2="18.1"/>
	<path class="st0" d="M112.4,20.7h3.2c2.4,0,4.4,1.9,4.4,4.4l0,0c0,2.4-1.9,4.4-4.4,4.4h-3.2"/>
	<polyline class="st0" points="108.1,29.6 108.1,96.3 22,96.3 22,29.6 	"/>
	<path class="st0" d="M68.8,108.1c0-2.1-1.7-3.8-3.8-3.8c-2.1,0-3.8,1.7-3.8,3.8c0,2.1,1.7,3.8,3.8,3.8
		C67.1,111.9,68.8,110.2,68.8,108.1z"/>
	<line class="st0" x1="65.1" y1="104.3" x2="65.1" y2="96.3"/>
	<g>
		<polyline class="st0" points="40.7,51.1 40.7,82 34,82 34,51.1 		"/>
		<polyline class="st0" points="59.2,65.3 59.2,82 52.4,82 52.4,65.3 		"/>
		<polyline class="st0" points="77.7,51.1 77.7,82 70.9,82 70.9,51.1 		"/>
		<polyline class="st0" points="96.1,62.9 96.1,82 89.4,82 89.4,62.9 		"/>
		<polyline class="st0" points="37.4,39.9 55.9,54.1 74.2,39.9 92.7,51.7 		"/>
	</g>
</g>
</svg>
