<?xml version="1.0" encoding="utf-8"?>
<!-- Generator: Adobe Illustrator 22.0.1, SVG Export Plug-In . SVG Version: 6.00 Build 0)  -->
<svg version="1.1" id="Layer_1" xmlns="http://www.w3.org/2000/svg" xmlns:xlink="http://www.w3.org/1999/xlink" x="0px" y="0px"
	 viewBox="0 0 130 130" style="enable-background:new 0 0 130 130;" xml:space="preserve">
<style type="text/css">
	.st0{fill:#202D5C;}
</style>
<g>
	<path class="st0" d="M90.1,62.1c-1.1,0-2,0.2-2.9,0.5c-0.8-3.5-4.8-5.3-8.8-5.3c-1.3,0-2.4,0.2-3.3,0.6c-1.3-2.8-4.9-4.2-8.4-4.2
		c-1,0-1.9,0.1-2.7,0.4V35.5c0-4.3-3.5-7.8-7.8-7.8c-4.3,0-7.8,3.5-7.8,7.8v38.2c-1-1.4-2.1-2.7-3.4-3.6c-4.6-3.4-10.4-2.5-12.3-0.4
		c-2.7,3-1.9,7.1,2,11.2c7.4,7.6,10.9,16,14.6,24.9c2.6,6.3,2.5,12.1,2.5,12.2l0,2h39.4v-1.9c0-3.7,1.9-8.9,3.8-13.9
		c2-5.3,3.8-10.3,3.8-14.2V70.4C99,65.9,94.1,62.1,90.1,62.1z M95.1,89.8c0,3.2-1.8,8.1-3.6,12.9c-1.7,4.6-3.5,9.3-3.9,13.3H55.8
		c-0.2-2.5-0.8-6.9-2.8-11.7c-3.7-8.8-7.4-18-15.4-26.2c-0.9-0.9-3.6-4-1.9-5.9c0.6-0.6,4.2-1.3,7.1,0.9c2.7,2,4.9,6.7,5.7,8.7v1.3
		c0,1.1,0.9,1.9,1.9,1.9c1.1,0,1.9-0.9,1.9-1.9V35.5c0-2.1,1.7-3.9,3.9-3.9c2.1,0,3.9,1.7,3.9,3.9v35.5c0,1.1,0.9,1.9,1.9,1.9
		c1.1,0,1.9-0.9,1.9-1.9V60.4c0-2.2,0.6-2.8,2.7-2.8c2,0,5.1,0.9,5.1,2.8v10.6c0,1.1,0.9,1.9,1.9,1.9c1.1,0,1.9-0.9,1.9-1.9v-7
		c0-2.2,0.6-2.8,2.7-2.8c2,0,5.1,0.9,5.1,2.8v10.6c0,1.1,0.9,1.9,1.9,1.9c1.1,0,1.9-0.9,1.9-1.9v-5.7c0-2.2,0.6-2.8,2.7-2.8
		c2.3,0,5.1,2.4,5.1,4.4V89.8z"/>
	<path class="st0" d="M65.4,45.9c-0.8,0.7-0.9,1.9-0.2,2.7c0.7,0.8,1.9,0.9,2.7,0.2c3.9-3.4,6.1-8.3,6.1-13.4
		c0-9.8-8-17.8-17.8-17.8c-9.8,0-17.8,8-17.8,17.8c0,5.1,2.2,10,6.1,13.4c0.4,0.3,0.8,0.5,1.3,0.5c0.5,0,1.1-0.2,1.5-0.7
		c0.7-0.8,0.6-2-0.2-2.7c-3-2.7-4.8-6.5-4.8-10.5c0-7.7,6.2-13.9,13.9-13.9c7.7,0,13.9,6.2,13.9,13.9C70.2,39.4,68.5,43.3,65.4,45.9
		z"/>
	<path class="st0" d="M39.1,51.3c0.8-0.7,1-1.9,0.3-2.7c-3-3.8-4.5-8.4-4.5-13.2c0-11.8,9.6-21.4,21.4-21.4
		c11.8,0,21.4,9.6,21.4,21.4c0,5.5-2.1,10.8-5.9,14.8c-0.7,0.8-0.7,2,0.1,2.7c0.4,0.4,0.9,0.5,1.3,0.5c0.5,0,1-0.2,1.4-0.6
		c4.5-4.7,7-10.9,7-17.4c0-14-11.4-25.3-25.3-25.3S31,21.5,31,35.5c0,5.7,1.9,11,5.4,15.5C37,51.9,38.2,52,39.1,51.3z"/>
</g>
</svg>
