<?xml version="1.0" encoding="utf-8"?>
<!-- Generator: Adobe Illustrator 22.0.1, SVG Export Plug-In . SVG Version: 6.00 Build 0)  -->
<svg version="1.1" id="Layer_1" xmlns="http://www.w3.org/2000/svg" xmlns:xlink="http://www.w3.org/1999/xlink" x="0px" y="0px"
	 viewBox="0 0 130 130" style="enable-background:new 0 0 130 130;" xml:space="preserve">
<style type="text/css">
	.st0{fill:#212E5C;}
</style>
<g>
	<g>
		<path class="st0" d="M71.3,52.4c0.2,0,0.3-0.1,0.5-0.1c2.3-0.4,6.2-0.9,10.7-0.4c8.7,1.1,15,5.5,18.7,13.3
			c0.1,0.2,0.2,0.4,0.3,0.6c0,0,0,0.1,0.1,0.1c0,0.1,0.3,0.5,0.7,1.1v-4.4c0-0.5,0.1-1,0.1-1.5c-4.3-6.9-10.9-11.1-19.6-12.2
			c-3.9-0.5-7.5-0.2-10,0.2C72.4,50.1,71.9,51.3,71.3,52.4z"/>
		<path class="st0" d="M102.5,114.9h-8.7H81.2c-0.1,0-0.1,0-0.2,0c-21,2.2-31.3-0.7-36.3-3.7h-5c3.4,3.4,10.9,7.5,27.8,7.5
			c4,0,8.6-0.2,13.7-0.8h22.4C103.1,117.1,102.7,116,102.5,114.9z"/>
		<path class="st0" d="M17.8,64.3c-3.2,0-5.8-2.6-5.8-5.8c0-3.2,2.6-5.8,5.8-5.8h0.1c-0.5-1-1-1.9-1.4-3C12.2,50.5,9,54.1,9,58.5
			c0,3,1.5,5.7,3.9,7.3C14.3,64.9,16,64.3,17.8,64.3z"/>
		<path class="st0" d="M61.5,73.4h-3.1c-0.1,3.1-2.7,5.5-5.8,5.5c1.8,0,3.5,0.6,5,1.5C59.9,78.9,61.4,76.3,61.5,73.4z"/>
		<path class="st0" d="M17.8,78.9c-3.2,0-5.8-2.6-5.8-5.8c0-3.2,2.6-5.8,5.8-5.8h8.7c-0.3-0.9-0.5-1.8-0.5-2.8c0-0.1,0-0.2,0-0.3
			h-8.2c-1.8,0-3.6,0.6-5,1.5C10.5,67.4,9,70.1,9,73.1c0,3,1.5,5.7,3.9,7.3C14.3,79.5,16,78.9,17.8,78.9z"/>
		<path class="st0" d="M9,87.8c0,4.2,3,7.8,7,8.6c1.6-1.8,3.9-2.9,6.5-2.9h-4.6c-3.2,0-5.8-2.6-5.8-5.8c0-3.2,2.6-5.8,5.8-5.8h34.8
			c3.2,0,5.8,2.6,5.8,5.8c0,3.2-2.6,5.8-5.8,5.8h4.6c0.6,0,1.3,0.1,1.9,0.2c1.5-1.6,2.4-3.7,2.4-6c0-3-1.5-5.7-3.9-7.3
			c-1.4-1-3.1-1.5-5-1.5H17.8c-1.8,0-3.6,0.6-5,1.5C10.5,82,9,84.7,9,87.8z"/>
		<path class="st0" d="M44.8,111.2h12.5c1.6,0,3.1-0.5,4.4-1.2c2.6-1.5,4.4-4.4,4.4-7.6c0-4.2-3-7.8-7-8.6c-0.6-0.1-1.2-0.2-1.9-0.2
			h-4.6H22.5c-2.6,0-4.9,1.1-6.5,2.9c-1.5,1.6-2.3,3.7-2.3,6c0,4.9,4,8.8,8.8,8.8h17.4H44.8z M22.5,96.6h30.2h4.6
			c3.2,0,5.8,2.6,5.8,5.8c0,3.2-2.6,5.8-5.8,5.8H22.5c-3.2,0-5.8-2.6-5.8-5.8C16.7,99.2,19.3,96.6,22.5,96.6z"/>
		<path class="st0" d="M17.9,52.8c2.1,3.8,5,7.1,8.4,9.6c0.3-1,0.7-2,1.3-2.9c-6.4-5-10.5-12.8-10.5-21.5
			c0-15.1,12.3-27.3,27.3-27.3C59.6,10.7,71.8,23,71.8,38c0,6.7-2.5,12.9-6.5,17.7h3.9c0.8-1.1,1.5-2.2,2.1-3.4
			c0.6-1.1,1.1-2.2,1.6-3.4c1.3-3.4,2-7.1,2-11c0-16.8-13.6-30.4-30.4-30.4C27.7,7.6,14.1,21.3,14.1,38c0,4.2,0.8,8.2,2.4,11.8
			C16.9,50.8,17.4,51.8,17.9,52.8z"/>
		<path class="st0" d="M34.9,73.4h23.5h3.1h6.7c0.2,2.1,0.9,5.7,3.8,8.6c2.7,2.7,6.7,4.1,11.7,4.1c0.8,0,1.6,0,2.5-0.1
			c0.8-0.1,1.5-0.8,1.4-1.6c-0.1-0.8-0.8-1.5-1.6-1.4c-0.3,0-0.5,0-0.8,0.1c-4.9,0.3-8.7-0.8-11-3.1c-3.2-3.2-3-7.8-3-7.8
			c0-0.4-0.1-0.8-0.4-1.1c-0.3-0.3-0.7-0.5-1.1-0.5H34.9c-3.2,0-5.8-2.6-5.8-5.8c0-3.2,2.6-5.8,5.8-5.8h34.8c0.3,0,0.6-0.1,0.8-0.2
			c0.4-0.3,0.7-0.8,0.7-1.3c0-0.8-0.7-1.5-1.5-1.5h-0.5h-3.9H46H43h-8.1c-3,0-5.6,1.5-7.2,3.8c-0.6,0.9-1,1.8-1.3,2.9
			c-0.2,0.6-0.2,1.3-0.3,1.9c0,0.1,0,0.2,0,0.3c0,1,0.2,1.9,0.5,2.8C27.7,70.9,31,73.4,34.9,73.4z"/>
		<path class="st0" d="M102.3,67v46c0,0.7,0.1,1.3,0.2,1.9c0.2,1.1,0.7,2.1,1.3,3.1c1.7,2.6,4.6,4.4,7.9,4.4c5.2,0,9.4-4.2,9.4-9.4
			V62.5c0-5.2-4.2-9.4-9.4-9.4c-4.6,0-8.5,3.4-9.2,7.8c-0.1,0.5-0.1,1-0.1,1.5V67z M105.3,62.5c0-3.5,2.8-6.3,6.3-6.3
			c3.5,0,6.3,2.8,6.3,6.3V113c0,3.5-2.8,6.3-6.3,6.3c-3.5,0-6.3-2.8-6.3-6.3V62.5z"/>
	</g>
	<g>
		<path class="st0" d="M36.5,22.2h18.3v0c-1.1,1.7-1.7,2.6-1.8,2.7h-4.9c0.7,0.8,1.1,1.7,1.4,2.9h5.2c0.1,0,0.1,0,0.1,0.1
			c-1.2,1.8-1.8,2.6-1.8,2.6h-3.4c-0.1,0.9-0.5,2-1.3,3.3c-1,1.3-2,2.1-3,2.5c-1.8,0.9-3.5,1.3-5.1,1.3v0c0,0.1,3.7,4.5,11,13.1
			h-4.9C39.3,42.3,35.7,38.1,35.7,38v-2.5l0-0.1c0.6,0.1,1.4,0.1,2.2,0.1c4,0,6.5-1.3,7.5-3.9c0.2-0.4,0.2-0.8,0.2-1.2H34.8
			c-0.1,0-0.1,0-0.1-0.1c1.2-1.8,1.8-2.6,1.8-2.6h8.7v0c-0.5-1-1.5-1.8-2.9-2.3c-1-0.3-1.9-0.5-2.7-0.5h-4.8v-0.1
			C35.9,23,36.5,22.2,36.5,22.2z"/>
	</g>
</g>
</svg>
