<?xml version="1.0" encoding="utf-8"?>
<!-- Generator: Adobe Illustrator 22.0.1, SVG Export Plug-In . SVG Version: 6.00 Build 0)  -->
<svg version="1.1" id="Layer_1" xmlns="http://www.w3.org/2000/svg" xmlns:xlink="http://www.w3.org/1999/xlink" x="0px" y="0px"
	 viewBox="0 0 100 100" style="enable-background:new 0 0 100 100;" xml:space="preserve">
<style type="text/css">
	.st0{fill:#FFFFFF;}
</style>
<g>
	<g id="XMLID_117_">
		<rect x="37.4" y="9.1" class="st0" width="13.4" height="2.4"/>
	</g>
	<g id="XMLID_116_">
		<path class="st0" d="M51.4,96.3H15.5c-3.6,0-6.5-2.9-6.5-6.5V10.2c0-3.6,2.9-6.5,6.5-6.5h57.1c3.6,0,6.5,2.9,6.5,6.5v25.5
			c0,0.6-0.5,1.2-1.2,1.2s-1.2-0.5-1.2-1.2V10.2c0-2.3-1.9-4.2-4.2-4.2H15.5c-2.3,0-4.2,1.9-4.2,4.2v79.5c0,2.3,1.9,4.2,4.2,4.2
			h35.9c0.6,0,1.2,0.5,1.2,1.2S52.1,96.3,51.4,96.3z"/>
	</g>
	<g id="XMLID_115_">
		<rect x="37.4" y="88.6" class="st0" width="13.4" height="2.4"/>
	</g>
	<g id="XMLID_114_">
		<path class="st0" d="M78,16.8H10.2c-0.6,0-1.2-0.5-1.2-1.2c0-0.6,0.5-1.2,1.2-1.2H78c0.6,0,1.2,0.5,1.2,1.2
			C79.2,16.3,78.6,16.8,78,16.8z"/>
	</g>
	<g id="XMLID_113_">
		<path class="st0" d="M50.8,85.5H10.2C9.5,85.5,9,85,9,84.4c0-0.6,0.5-1.2,1.2-1.2h40.6c0.6,0,1.2,0.5,1.2,1.2
			C52,85,51.4,85.5,50.8,85.5z"/>
	</g>
	<g id="XMLID_112_">
		<path class="st0" d="M24.3,33.5h-4.2c-2,0-3.7-1.7-3.7-3.7v-4.2c0-2,1.7-3.7,3.7-3.7h4.2c2,0,3.7,1.7,3.7,3.7v4.2
			C28,31.9,26.4,33.5,24.3,33.5z M20.1,24.3c-0.7,0-1.4,0.6-1.4,1.4v4.2c0,0.7,0.6,1.4,1.4,1.4h4.2c0.7,0,1.4-0.6,1.4-1.4v-4.2
			c0-0.7-0.6-1.4-1.4-1.4H20.1z"/>
	</g>
	<g id="XMLID_111_">
		<path class="st0" d="M38.7,33.5h-4.2c-2,0-3.7-1.7-3.7-3.7v-4.2c0-2,1.7-3.7,3.7-3.7h4.2c2,0,3.7,1.7,3.7,3.7v4.2
			C42.4,31.9,40.7,33.5,38.7,33.5z M34.5,24.3c-0.7,0-1.4,0.6-1.4,1.4v4.2c0,0.7,0.6,1.4,1.4,1.4h4.2c0.7,0,1.4-0.6,1.4-1.4v-4.2
			c0-0.7-0.6-1.4-1.4-1.4H34.5z"/>
	</g>
	<g id="XMLID_110_">
		<path class="st0" d="M53,33.5h-4.2c-2,0-3.7-1.7-3.7-3.7v-4.2c0-2,1.7-3.7,3.7-3.7H53c2,0,3.7,1.7,3.7,3.7v4.2
			C56.7,31.9,55,33.5,53,33.5z M48.8,24.3c-0.7,0-1.4,0.6-1.4,1.4v4.2c0,0.7,0.6,1.4,1.4,1.4H53c0.7,0,1.4-0.6,1.4-1.4v-4.2
			c0-0.7-0.6-1.4-1.4-1.4H48.8z"/>
	</g>
	<g id="XMLID_109_">
		<path class="st0" d="M24.3,48.5h-4.2c-2,0-3.7-1.7-3.7-3.7v-4.2c0-2,1.7-3.7,3.7-3.7h4.2c2,0,3.7,1.7,3.7,3.7v4.2
			C28,46.8,26.4,48.5,24.3,48.5z M20.1,39.2c-0.7,0-1.4,0.6-1.4,1.4v4.2c0,0.7,0.6,1.4,1.4,1.4h4.2c0.7,0,1.4-0.6,1.4-1.4v-4.2
			c0-0.7-0.6-1.4-1.4-1.4H20.1z"/>
	</g>
	<g id="XMLID_108_">
		<path class="st0" d="M38.7,48.5h-4.2c-2,0-3.7-1.7-3.7-3.7v-4.2c0-2,1.7-3.7,3.7-3.7h4.2c2,0,3.7,1.7,3.7,3.7v4.2
			C42.4,46.8,40.7,48.5,38.7,48.5z M34.5,39.2c-0.7,0-1.4,0.6-1.4,1.4v4.2c0,0.7,0.6,1.4,1.4,1.4h4.2c0.7,0,1.4-0.6,1.4-1.4v-4.2
			c0-0.7-0.6-1.4-1.4-1.4H34.5z"/>
	</g>
	<g id="XMLID_107_">
		<path class="st0" d="M24.3,63.5h-4.2c-2,0-3.7-1.7-3.7-3.7v-4.2c0-2,1.7-3.7,3.7-3.7h4.2c2,0,3.7,1.7,3.7,3.7v4.2
			C28,61.8,26.4,63.5,24.3,63.5z M20.1,54.2c-0.7,0-1.4,0.6-1.4,1.4v4.2c0,0.7,0.6,1.4,1.4,1.4h4.2c0.7,0,1.4-0.6,1.4-1.4v-4.2
			c0-0.7-0.6-1.4-1.4-1.4H20.1z"/>
	</g>
	<g id="XMLID_106_">
		<path class="st0" d="M38.7,63.5h-4.2c-2,0-3.7-1.7-3.7-3.7v-4.2c0-2,1.7-3.7,3.7-3.7h4.2c2,0,3.7,1.7,3.7,3.7v4.2
			C42.4,61.8,40.7,63.5,38.7,63.5z M34.5,54.2c-0.7,0-1.4,0.6-1.4,1.4v4.2c0,0.7,0.6,1.4,1.4,1.4h4.2c0.7,0,1.4-0.6,1.4-1.4v-4.2
			c0-0.7-0.6-1.4-1.4-1.4H34.5z"/>
	</g>
	<g>
		<g>
			<path class="st0" d="M68.8,50.6c-0.6,0-1.2-0.5-1.2-1.2v-8.9c0-0.6,0.5-1.2,1.2-1.2h3.5c2.6,0,4.7,2.1,4.7,4.7
				c0,0.6-0.5,1.2-1.2,1.2c-0.6,0-1.2-0.5-1.2-1.2c0-1.3-1-2.3-2.3-2.3H70v7.8C70,50.1,69.5,50.6,68.8,50.6z"/>
		</g>
		<g>
			<path class="st0" d="M85.5,80.8h-15c-0.6,0-1.2-0.5-1.2-1.2c0-0.6,0.5-1.2,1.2-1.2h14.1c0.2-0.7,0.4-1.7,0.8-2.8
				c2-6.2,3.1-12.6,3.2-19.2c0-0.6,0.6-1.2,1.2-1.1c0.6,0,1.2,0.6,1.1,1.2c-0.2,6.8-1.3,13.5-3.4,19.8c-0.6,1.9-0.9,3.5-0.9,3.5
				C86.6,80.4,86.1,80.8,85.5,80.8z"/>
		</g>
		<g>
			<path class="st0" d="M63.1,80.8c-0.6,0-1.1-0.4-1.2-1c0-0.1-1.1-6.2-5.2-10.7c-1.1-1.2-2.1-2.7-3.1-4.3
				c-2.2-3.7-3.4-8.1-3.4-12.5c0-2.9,2.4-5.3,5.3-5.3c2.2,0,4.2,1.4,5,3.4l0.1,0.4V31.2c0-2.6,2.1-4.7,4.7-4.7s4.7,2.1,4.7,4.7v9.3
				c0,0.6-0.5,1.2-1.2,1.2c-0.6,0-1.2-0.5-1.2-1.2v-9.3c0-1.3-1-2.3-2.3-2.3c-1.3,0-2.3,1-2.3,2.3v25.9c0,0.6-0.4,1.1-1,1.2
				c-0.6,0.1-1.1-0.2-1.3-0.7l-2.4-6.3c-0.4-1.1-1.6-1.9-2.8-1.9c-1.6,0-3,1.3-3,3c0,4,1.1,8,3.1,11.3c0.9,1.5,1.8,2.8,2.8,3.9
				c4.5,5,5.7,11.6,5.7,11.9c0.1,0.6-0.3,1.2-1,1.4C63.2,80.8,63.2,80.8,63.1,80.8z"/>
		</g>
		<g>
			<path class="st0" d="M82.8,56.3c-0.6,0-1.2-0.5-1.2-1.2v-8.5c0-1.3-1-2.3-2.3-2.3H77v7.8c0,0.6-0.5,1.2-1.2,1.2
				c-0.6,0-1.2-0.5-1.2-1.2v-8.9c0-0.6,0.5-1.2,1.2-1.2h3.5c2.6,0,4.7,2.1,4.7,4.7v8.5C84,55.7,83.5,56.3,82.8,56.3z"/>
		</g>
		<g>
			<path class="st0" d="M89.8,57.7c-0.6,0-1.2-0.5-1.2-1.2v-5.4c0-1.3-1-2.3-2.3-2.3h-3.5c-0.6,0-1.2-0.5-1.2-1.2
				c0-0.6,0.5-1.2,1.2-1.2h3.5c2.6,0,4.7,2.1,4.7,4.7v5.4C91,57.2,90.5,57.7,89.8,57.7z"/>
		</g>
	</g>
	<g>
		<path class="st0" d="M87.5,96.3H60.4c-0.6,0-1.2-0.5-1.2-1.2V84.4c0-0.6,0.5-1.2,1.2-1.2h27.1c0.6,0,1.2,0.5,1.2,1.2v10.8
			C88.6,95.8,88.1,96.3,87.5,96.3z M61.5,93.9h24.8v-8.4H61.5V93.9z"/>
	</g>
	<g>
		<path class="st0" d="M81.4,91.9c-1.2,0-2.2-1-2.2-2.2c0-1.2,1-2.2,2.2-2.2s2.2,1,2.2,2.2C83.6,90.9,82.6,91.9,81.4,91.9z
			 M81.4,89.6c-0.1,0-0.2,0.1-0.2,0.2c0,0.2,0.3,0.2,0.3,0C81.6,89.7,81.5,89.6,81.4,89.6z"/>
	</g>
</g>
</svg>
