<?xml version="1.0" encoding="utf-8"?>
<!-- Generator: Adobe Illustrator 22.1.0, SVG Export Plug-In . SVG Version: 6.00 Build 0)  -->
<svg version="1.1" id="Layer_1" xmlns="http://www.w3.org/2000/svg" xmlns:xlink="http://www.w3.org/1999/xlink" x="0px" y="0px"
	 viewBox="0 0 100 100" style="enable-background:new 0 0 100 100;" xml:space="preserve">
<style type="text/css">
	.st0{fill:#FFFFFF;}
</style>
<g>
	<g>
		<g>
			<path class="st0" d="M59.9,83.4H5.3c-0.7,0-1.3-0.6-1.3-1.3v-66c0-0.7,0.6-1.3,1.3-1.3h12.3c0.7,0,1.3,0.6,1.3,1.3
				c0,0.7-0.6,1.3-1.3,1.3H6.6v63.5H60c0.7,0,1.3,0.6,1.3,1.3C61.2,82.9,60.6,83.4,59.9,83.4z"/>
		</g>
		<g>
			<path class="st0" d="M42.2,17.4H23.8c-0.7,0-1.3-0.6-1.3-1.3c0-0.7,0.6-1.3,1.3-1.3h18.4c0.7,0,1.3,0.6,1.3,1.3
				C43.4,16.9,42.9,17.4,42.2,17.4z"/>
		</g>
		<g>
			<path class="st0" d="M84.9,53.9c-0.7,0-1.3-0.6-1.3-1.3V17.4H72c-0.7,0-1.3-0.6-1.3-1.3c0-0.7,0.6-1.3,1.3-1.3h12.8
				c0.7,0,1.3,0.6,1.3,1.3v36.5C86,53.3,85.5,53.9,84.9,53.9z"/>
		</g>
		<g>
			<path class="st0" d="M66.3,17.4H47.9c-0.7,0-1.3-0.6-1.3-1.3c0-0.7,0.6-1.3,1.3-1.3h18.4c0.7,0,1.3,0.6,1.3,1.3
				C67.5,16.9,67,17.4,66.3,17.4z"/>
		</g>
		<g>
			<g>
				<g>
					<path class="st0" d="M19.9,45.3h-7.3c-0.7,0-1.3-0.6-1.3-1.3v-7.3c0-0.7,0.6-1.3,1.3-1.3h7.3c0.7,0,1.3,0.6,1.3,1.3V44
						C21.1,44.7,20.6,45.3,19.9,45.3z M13.8,42.7h4.8V38h-4.8V42.7z"/>
				</g>
				<g>
					<path class="st0" d="M34.3,45.3H27c-0.7,0-1.3-0.6-1.3-1.3v-7.3c0-0.7,0.6-1.3,1.3-1.3h7.3c0.7,0,1.3,0.6,1.3,1.3V44
						C35.5,44.7,35,45.3,34.3,45.3z M28.2,42.7h4.8V38h-4.8V42.7z"/>
				</g>
				<g>
					<path class="st0" d="M48.7,45.3h-7.2c-0.7,0-1.3-0.6-1.3-1.3v-7.3c0-0.7,0.6-1.3,1.3-1.3h7.3c0.7,0,1.3,0.6,1.3,1.3V44
						C49.9,44.7,49.4,45.3,48.7,45.3z M42.6,42.7h4.8V38h-4.8V42.7z"/>
				</g>
				<g>
					<path class="st0" d="M63.1,45.3h-7.3c-0.7,0-1.3-0.6-1.3-1.3v-7.3c0-0.7,0.6-1.3,1.3-1.3h7.3c0.7,0,1.3,0.6,1.3,1.3V44
						C64.3,44.7,63.8,45.3,63.1,45.3z M57,42.7h4.8V38H57V42.7z"/>
				</g>
				<g>
					<path class="st0" d="M77.5,45.3h-7.3c-0.7,0-1.3-0.6-1.3-1.3v-7.3c0-0.7,0.6-1.3,1.3-1.3h7.3c0.7,0,1.3,0.6,1.3,1.3V44
						C78.7,44.7,78.2,45.3,77.5,45.3z M71.4,42.7h4.8V38h-4.8V42.7z"/>
				</g>
			</g>
			<g>
				<g>
					<path class="st0" d="M19.9,59.2h-7.3c-0.7,0-1.3-0.6-1.3-1.3v-7.3c0-0.7,0.6-1.3,1.3-1.3h7.3c0.7,0,1.3,0.6,1.3,1.3V58
						C21.1,58.7,20.6,59.2,19.9,59.2z M13.8,56.7h4.8v-4.8h-4.8V56.7z"/>
				</g>
				<g>
					<path class="st0" d="M34.3,59.2H27c-0.7,0-1.3-0.6-1.3-1.3v-7.3c0-0.7,0.6-1.3,1.3-1.3h7.3c0.7,0,1.3,0.6,1.3,1.3V58
						C35.5,58.7,35,59.2,34.3,59.2z M28.2,56.7h4.8v-4.8h-4.8V56.7z"/>
				</g>
				<g>
					<path class="st0" d="M48.7,59.2h-7.2c-0.7,0-1.3-0.6-1.3-1.3v-7.3c0-0.7,0.6-1.3,1.3-1.3h7.3c0.7,0,1.3,0.6,1.3,1.3V58
						C49.9,58.7,49.4,59.2,48.7,59.2z M42.6,56.7h4.8v-4.8h-4.8V56.7z"/>
				</g>
			</g>
			<g>
				<g>
					<path class="st0" d="M19.9,73.2h-7.3c-0.7,0-1.3-0.6-1.3-1.3v-7.3c0-0.7,0.6-1.3,1.3-1.3h7.3c0.7,0,1.3,0.6,1.3,1.3v7.3
						C21.1,72.6,20.6,73.2,19.9,73.2z M13.8,70.7h4.8V66h-4.8V70.7z"/>
				</g>
				<g>
					<path class="st0" d="M34.3,73.2H27c-0.7,0-1.3-0.6-1.3-1.3v-7.3c0-0.7,0.6-1.3,1.3-1.3h7.3c0.7,0,1.3,0.6,1.3,1.3v7.3
						C35.5,72.6,35,73.2,34.3,73.2z M28.2,70.7h4.8V66h-4.8V70.7z"/>
				</g>
				<g>
					<path class="st0" d="M48.7,73.2h-7.2c-0.7,0-1.3-0.6-1.3-1.3v-7.3c0-0.7,0.6-1.3,1.3-1.3h7.3c0.7,0,1.3,0.6,1.3,1.3v7.3
						C49.9,72.6,49.4,73.2,48.7,73.2z M42.6,70.7h4.8V66h-4.8V70.7z"/>
				</g>
			</g>
		</g>
		<g>
			<path class="st0" d="M84.9,28.7H5.3c-0.7,0-1.3-0.6-1.3-1.3c0-0.7,0.6-1.3,1.3-1.3h79.6c0.7,0,1.3,0.6,1.3,1.3
				C86,28.1,85.5,28.7,84.9,28.7z"/>
		</g>
		<g>
			<path class="st0" d="M23.8,22.9h-5.7c-0.7,0-1.3-0.6-1.3-1.3v-11c0-0.7,0.6-1.3,1.3-1.3h5.7c0.7,0,1.3,0.6,1.3,1.3v11
				C25,22.4,24.5,22.9,23.8,22.9z M19.3,20.4h3.2v-8.5h-3.2V20.4z"/>
		</g>
		<g>
			<path class="st0" d="M72,22.9h-5.7c-0.7,0-1.3-0.6-1.3-1.3v-11c0-0.7,0.6-1.3,1.3-1.3H72c0.7,0,1.3,0.6,1.3,1.3v11
				C73.2,22.4,72.7,22.9,72,22.9z M67.5,20.4h3.2v-8.5h-3.2V20.4z"/>
		</g>
		<g>
			<path class="st0" d="M47.9,22.9h-5.7c-0.7,0-1.3-0.6-1.3-1.3v-11c0-0.7,0.6-1.3,1.3-1.3h5.7c0.7,0,1.3,0.6,1.3,1.3v11
				C49.1,22.4,48.6,22.9,47.9,22.9z M43.4,20.4h3.2v-8.5h-3.2V20.4z"/>
		</g>
	</g>
	<g>
		<g>
			<path class="st0" d="M75.1,90.6c-2.8,0-5.6-0.6-8.1-1.6c-2.5-1.1-4.7-2.6-6.6-4.5c-1.9-1.9-3.4-4.1-4.5-6.6
				c-1.1-2.6-1.6-5.3-1.6-8.1c0-2.8,0.6-5.6,1.6-8.1c1.1-2.5,2.6-4.7,4.5-6.6c1.9-1.9,4.1-3.4,6.6-4.5c2.6-1.1,5.3-1.6,8.1-1.6
				c2.8,0,5.6,0.6,8.1,1.6c2.5,1.1,4.7,2.6,6.6,4.5c2,1.9,3.4,4.1,4.5,6.6c1.1,2.6,1.6,5.3,1.6,8.1c0,2.8-0.6,5.6-1.6,8.1
				c-1.1,2.5-2.6,4.7-4.5,6.6c-1.9,1.9-4.1,3.4-6.6,4.5C80.7,90.1,77.9,90.6,75.1,90.6z M75.1,51.4c-10.1,0-18.4,8.2-18.4,18.4
				s8.3,18.3,18.4,18.3s18.4-8.2,18.4-18.4S85.2,51.4,75.1,51.4z"/>
		</g>
	</g>
	<g>
		<g>
			<path class="st0" d="M75.1,86.1c-4.4,0-8.5-1.7-11.6-4.8s-4.8-7.2-4.8-11.6c0-4.4,1.7-8.5,4.8-11.6s7.2-4.8,11.6-4.8
				c4.4,0,8.5,1.7,11.6,4.8s4.8,7.2,4.8,11.6c0,4.4-1.7,8.5-4.8,11.6C83.6,84.4,79.5,86.1,75.1,86.1z M75.1,55.9
				c-7.6,0-13.8,6.2-13.8,13.8s6.2,13.8,13.8,13.8s13.8-6.2,13.8-13.8S82.8,55.9,75.1,55.9z"/>
		</g>
	</g>
	<g>
		<path class="st0" d="M71.8,63.8h8.9l0,0c-0.5,0.8-0.8,1.2-0.9,1.3h-2.4c0.3,0.4,0.5,0.8,0.7,1.4h2.5l0,0c-0.6,0.9-0.9,1.3-0.9,1.3
			H78c0,0.4-0.2,1-0.6,1.6c-0.5,0.6-1,1-1.5,1.2c-0.9,0.4-1.7,0.6-2.5,0.6l0,0c0,0.1,1.8,2.2,5.4,6.4h-2.4c-3.5-4.1-5.2-6.1-5.2-6.1
			v-1.2l0,0c0.3,0,0.7,0.1,1.1,0.1c2,0,3.2-0.6,3.6-1.9C76,68.3,76,68,76,67.8h-5.3l0,0c0.6-0.9,0.9-1.3,0.9-1.3H76l0,0
			c-0.2-0.5-0.7-0.9-1.4-1.1c-0.5-0.2-0.9-0.2-1.4-0.2h-2.4l0,0C71.5,64.2,71.7,63.8,71.8,63.8z"/>
	</g>
</g>
</svg>
