<?xml version="1.0" encoding="utf-8"?>
<!-- Generator: Adobe Illustrator 22.1.0, SVG Export Plug-In . SVG Version: 6.00 Build 0)  -->
<svg version="1.1" id="Layer_1" xmlns="http://www.w3.org/2000/svg" xmlns:xlink="http://www.w3.org/1999/xlink" x="0px" y="0px"
	 viewBox="0 0 130 130" style="enable-background:new 0 0 130 130;" xml:space="preserve">
<style type="text/css">
	.st0{fill:#20295C;}
</style>
<g>
	<path class="st0" d="M68.9,24.8h5.1c1.2,0,2.2-1,2.2-2.2s-1-2.2-2.2-2.2h-5.1c-1.2,0-2.2,1-2.2,2.2S67.7,24.8,68.9,24.8z"/>
	<path class="st0" d="M82.2,24.8h2.9c1.2,0,2.2-1,2.2-2.2s-1-2.2-2.2-2.2h-2.9c-1.2,0-2.2,1-2.2,2.2S81,24.8,82.2,24.8z"/>
	<path class="st0" d="M80.3,106.4h-6.6c-1.2,0-2.2,1-2.2,2.2c0,1.2,1,2.2,2.2,2.2h6.6c1.2,0,2.2-1,2.2-2.2
		C82.5,107.4,81.5,106.4,80.3,106.4z"/>
	<path class="st0" d="M115.1,69.2c1.7-1.5,2.8-3.7,2.8-6.2c0-4.6-3.8-8.4-8.4-8.4h-1.7V21c0-4.9-4-8.8-8.8-8.8H55
		c-4.9,0-8.8,4-8.8,8.8v14.1L33.3,48c-3,3-6.8,5.1-10.9,6.1c-3.3,0.8-6.5,2.1-9.3,4c-0.6,0.4-1,1.1-1,1.9v40.7c0,1,0.6,1.8,1.6,2.1
		c1.8,0.6,3.2,1.1,4.5,1.7c5.7,2.7,12,4.1,18.2,4.1h9.8v0.6c0,4.9,4,8.8,8.8,8.8h44c4.9,0,8.8-4,8.8-8.8v-0.6h1.7
		c4.6,0,8.4-3.8,8.4-8.4c0-2.4-1.1-4.6-2.8-6.2c1.7-1.5,2.8-3.7,2.8-6.2c0-2.4-1.1-4.6-2.8-6.2c1.7-1.5,2.8-3.7,2.8-6.2
		C117.9,72.9,116.8,70.8,115.1,69.2z M50.6,21c0-2.4,2-4.4,4.4-4.4h44c2.4,0,4.4,2,4.4,4.4v6.6l-39.7,0.1c-1.4-1-3.1-1.6-4.9-1.6
		c-1.8,0-3.5,0.6-4.9,1.6l-3.3,0V21z M89.8,69.1c0,0,0.1,0.1,0.1,0.1c-2.4,2.2-4.8,8.4,0,12.3c-0.1,0.1-0.2,0.2-0.2,0.2
		c-1.1,1.1-1.9,2.5-2.3,4.1c-0.4,3.2,0.1,5.9,2.4,7.9c0,0,0.1,0.1,0.1,0.1c-0.1,0.1-0.2,0.2-0.2,0.2c0,0,0,0,0,0c0,0,0,0,0,0
		c-1.1,1.1-1.8,2.4-2.2,3.9H50.6V54.4l13.8-13.8c2.3-2.3,3.1-5.7,2.3-8.6h36.8v22.7c-3.7-0.1-7.2-0.1-9.5,0.2c0,0,0,0,0,0
		c-1.6,0.3-3,1.1-4.2,2.3c-1.1,1.1-1.9,2.5-2.3,4.1C86.8,64.2,87.5,66.8,89.8,69.1z M45.1,56.4c0.2,0.7,0.6,1.3,1.1,1.7V104h-9.8
		c-5.6,0-11.2-1.3-16.3-3.6c-1-0.5-2.2-0.9-3.5-1.4V61.1c2.2-1.2,4.5-2.2,6.9-2.8c4.9-1.2,9.4-3.7,13-7.3l19.5-19.5
		c1.5-1.5,4.2-1.5,5.7,0.1c1.4,1.6,1.2,4.1-0.4,5.8L46,52.7C45,53.7,44.7,55.1,45.1,56.4z M103.4,109c0,2.4-2,4.4-4.4,4.4H55
		c-2.4,0-4.4-2-4.4-4.4v-6.6h37c1.1,3.7,4,5.8,7.9,6c0,0,0.1,0,0.1,0h0h7.8V109z M109.5,104h-14c-2.1,0-3.9-1.7-4-4
		c0.3-2.6,1.7-3.8,4-4h14c2.2,0,4,1.8,4,4S111.7,104,109.5,104z M109.5,91.7h-14c0,0,0,0,0,0c-2.2,0-4-1.8-4-4c0.1-2.5,1.7-3.6,4-4
		h14c2.2,0,4,1.8,4,4C113.5,89.9,111.7,91.7,109.5,91.7z M109.5,79.4h-14c0,0,0,0,0,0c-2.2,0-4-1.8-4-4c0.3-2.8,1.9-3.7,4-4h14
		c2.2,0,4,1.8,4,4C113.5,77.6,111.7,79.4,109.5,79.4z M109.5,67H95.6c0,0,0,0,0,0c-2.8-0.1-4.2-2.2-3.8-4.9c0.4-1.7,2-3,3.8-3h14
		c2.2,0,4,1.8,4,4C113.5,65.3,111.7,67,109.5,67z"/>
</g>
</svg>
