<?xml version="1.0" encoding="utf-8"?>
<!-- Generator: Adobe Illustrator 22.0.1, SVG Export Plug-In . SVG Version: 6.00 Build 0)  -->
<svg version="1.1" id="Layer_1" xmlns="http://www.w3.org/2000/svg" xmlns:xlink="http://www.w3.org/1999/xlink" x="0px" y="0px"
	 viewBox="0 0 130 130" style="enable-background:new 0 0 130 130;" xml:space="preserve">
<style type="text/css">
	.st0{fill:#212B5C;}
</style>
<g>
	<path class="st0" d="M81.3,96.7c0-0.9-0.8-1.7-1.7-1.7H15.7c-0.9,0-1.7,0.8-1.7,1.7c0,0.9,0.8,1.7,1.7,1.7h63.9
		C80.5,98.4,81.3,97.7,81.3,96.7z"/>
	<path class="st0" d="M90.1,67.6h-57c-3.5,0-6.4,2.9-6.4,6.4v11.3h-7c-0.9,0-1.7,0.8-1.7,1.7c0,0.9,0.8,1.7,1.7,1.7h20
		c0.9,0,1.7-0.8,1.7-1.7c0-0.9-0.8-1.7-1.7-1.7h-9.6V73.9c0-1.7,1.3-3,3-3h57c1.7,0,3,1.3,3,3v16.9h3.4V73.9
		C96.4,70.4,93.6,67.6,90.1,67.6z"/>
	<path class="st0" d="M33.1,118.4h57c3.5,0,6.4-2.9,6.4-6.4V84.3h-3.4V112c0,1.7-1.3,3-3,3h-57c-1.7,0-3-1.3-3-3v-4.5h-3.4v4.5
		C26.7,115.6,29.6,118.4,33.1,118.4z"/>
	<g>
		<path class="st0" d="M92.1,34c-0.9-0.3-1.8,0.2-2.1,1.1l-6.6,19.6c-0.3,0.9,0.2,1.8,1.1,2.1l14.6,5c0.9,0.3,1.8-0.2,2.1-1.1
			c0.3-0.9-0.2-1.8-1.1-2.1l-13-4.4l6.1-18C93.5,35.3,93,34.3,92.1,34z"/>
		<path class="st0" d="M36,57.6h17.9c0.1,1.9,0.5,3.7,0.9,5.5c0.2,0.7,0.9,1.3,1.6,1.3l0,0c1.1,0,1.9-1,1.6-2.1
			c-0.4-1.5-0.7-3.1-0.8-4.7h5.3c0.9,0,1.7-0.7,1.8-1.6c0.1-1-0.7-1.8-1.7-1.8H36c-1,0-1.9,0.9-1.7,2C34.5,57,35.2,57.6,36,57.6z"/>
		<path class="st0" d="M31.2,47.8h36.1c0.9,0,1.7-0.8,1.7-1.7c0-0.9-0.8-1.7-1.7-1.7H31.2c-0.9,0-1.7,0.8-1.7,1.7
			C29.5,47.1,30.3,47.8,31.2,47.8z"/>
		<path class="st0" d="M95,25.8c-2.8-0.9-5.6-1.5-8.4-1.6v-2.6h0.6c2.5,0,4.5-2,4.5-4.5v-0.9c0-2.5-2-4.5-4.5-4.5h-4.6
			c-2.5,0-4.5,2-4.5,4.5v0.9c0,2.5,2,4.5,4.5,4.5h0.6v2.6c-8.3,0.5-16.1,4.3-21.6,10.5H39.1c-0.9,0-1.7,0.8-1.7,1.7
			c0,0.9,0.8,1.7,1.7,1.7h37.8c0.9,0,1.7-0.8,1.7-1.7c0-0.9-0.8-1.7-1.7-1.7H66.4c7.8-7,19.2-9.3,29.7-4.8c12.3,5.4,19,19,15.8,32
			c-1.5,5.9-4.7,10.8-8.9,14.4c-0.6,0.5-0.8,1.5-0.3,2.2c0,0,0,0,0,0c0.6,0.8,1.7,1,2.5,0.3c4.1-3.5,7.3-8.1,9.2-13.5
			C119.9,49,111.2,31.3,95,25.8z M82.6,18.2c-0.6,0-1.2-0.5-1.2-1.2v-0.9c0-0.6,0.5-1.2,1.2-1.2h4.6c0.6,0,1.2,0.5,1.2,1.2v0.9
			c0,0.6-0.5,1.2-1.2,1.2H82.6z"/>
	</g>
	<path class="st0" d="M89.9,106.5c0-0.9-0.8-1.7-1.7-1.7H19.7c-0.9,0-1.7,0.8-1.7,1.7c0,0.9,0.8,1.7,1.7,1.7h68.5
		C89.1,108.2,89.9,107.5,89.9,106.5z"/>
</g>
</svg>
