<?xml version="1.0" encoding="utf-8"?>
<!-- Generator: Adobe Illustrator 22.0.1, SVG Export Plug-In . SVG Version: 6.00 Build 0)  -->
<svg version="1.1" id="Layer_1" xmlns="http://www.w3.org/2000/svg" xmlns:xlink="http://www.w3.org/1999/xlink" x="0px" y="0px"
	 viewBox="0 0 100 100" style="enable-background:new 0 0 100 100;" xml:space="preserve">
<style type="text/css">
	.st0{fill:#FFFFFF;}
</style>
<g>
	<path class="st0" d="M83.7,3.5c-4.8,0-8.7,3.9-8.7,8.7c0,3.1,1.7,5.9,4.2,7.4L67.5,46.9c-0.7-0.2-1.5-0.3-2.3-0.3
		c-3.1,0-5.8,1.6-7.3,4.1l-17.5-7.9c0.2-0.8,0.4-1.6,0.4-2.4c0-4.8-3.9-8.7-8.7-8.7c-4.8,0-8.7,3.9-8.7,8.7c0,2.7,1.3,5.1,3.2,6.7
		L15.8,64.7c-1.1-0.5-2.2-0.7-3.5-0.7c-4.8,0-8.7,3.9-8.7,8.7c0,4.8,3.9,8.7,8.7,8.7c4.8,0,8.7-3.9,8.7-8.7c0-2.7-1.3-5.1-3.2-6.7
		l10.9-17.7c1.1,0.5,2.2,0.7,3.5,0.7c3.1,0,5.8-1.6,7.3-4.1l17.5,7.9c-0.2,0.8-0.4,1.6-0.4,2.4c0,4.8,3.9,8.7,8.7,8.7
		c4.8,0,8.7-3.9,8.7-8.7c0-3.1-1.7-5.9-4.2-7.4l11.7-27.3c0.7,0.2,1.5,0.3,2.3,0.3c4.8,0,8.7-3.9,8.7-8.7
		C92.4,7.4,88.5,3.5,83.7,3.5z M18.6,72.6c0,3.5-2.8,6.3-6.3,6.3c-3.5,0-6.3-2.8-6.3-6.3c0-3.5,2.8-6.3,6.3-6.3
		C15.8,66.4,18.6,69.2,18.6,72.6z M32.1,46.5c-3.5,0-6.3-2.8-6.3-6.3c0-3.5,2.8-6.3,6.3-6.3c3.5,0,6.3,2.8,6.3,6.3
		C38.4,43.7,35.6,46.5,32.1,46.5z M71.5,55.2c0,3.5-2.8,6.3-6.3,6.3c-3.5,0-6.3-2.8-6.3-6.3c0-3.5,2.8-6.3,6.3-6.3
		C68.7,49,71.5,51.8,71.5,55.2z M83.7,18.4c-3.5,0-6.3-2.8-6.3-6.3c0-3.5,2.8-6.3,6.3-6.3c3.5,0,6.3,2.8,6.3,6.3
		C90,15.6,87.2,18.4,83.7,18.4z"/>
	<path class="st0" d="M95.8,94.1H91V28.9c0-0.7-0.5-1.2-1.2-1.2c-0.7,0-1.2,0.5-1.2,1.2v65.2h-9.9v-27c0-0.7-0.5-1.2-1.2-1.2
		c-0.7,0-1.2,0.5-1.2,1.2v27h-9.9V70.5c0-0.7-0.5-1.2-1.2-1.2s-1.2,0.5-1.2,1.2v23.6h-9.9V62.9c0-0.7-0.5-1.2-1.2-1.2
		c-0.7,0-1.2,0.5-1.2,1.2v31.2h-9.9V55.3c0-0.7-0.5-1.2-1.2-1.2c-0.7,0-1.2,0.5-1.2,1.2v38.9h-9.9V62.7c0-0.7-0.5-1.2-1.2-1.2
		c-0.7,0-1.2,0.5-1.2,1.2v31.4h-9.9v-5.7c0-0.7-0.5-1.2-1.2-1.2s-1.2,0.5-1.2,1.2v5.7H4.2c-0.7,0-1.2,0.5-1.2,1.2
		c0,0.7,0.5,1.2,1.2,1.2h91.6c0.7,0,1.2-0.5,1.2-1.2C97,94.7,96.5,94.1,95.8,94.1z"/>
</g>
</svg>
