<?xml version="1.0" encoding="utf-8"?>
<!-- Generator: Adobe Illustrator 22.0.1, SVG Export Plug-In . SVG Version: 6.00 Build 0)  -->
<svg version="1.1" id="Layer_1" xmlns="http://www.w3.org/2000/svg" xmlns:xlink="http://www.w3.org/1999/xlink" x="0px" y="0px"
	 viewBox="0 0 100 100" style="enable-background:new 0 0 100 100;" xml:space="preserve">
<style type="text/css">
	.st0{fill:#FFFFFF;}
</style>
<path class="st0" d="M79.6,23.1l7.2,0l11-9.6l-10.4-0.8L86.8,2.3l-9.7,11.1v6.9l-1.9,1.9c-8-7.4-18.4-11.5-29.4-11.5
	c-11.6,0-22.5,4.5-30.8,12.7C6.8,31.7,2.3,42.6,2.3,54.2C2.3,65.9,6.8,76.8,15,85c8.2,8.2,19.1,12.7,30.8,12.7S68.3,93.2,76.5,85
	c8.2-8.2,12.7-19.1,12.7-30.8c0-11-4.1-21.4-11.4-29.4L79.6,23.1z M85.5,54.2C85.5,76.2,67.7,94,45.8,94C23.8,94,6,76.2,6,54.2
	s17.8-39.8,39.8-39.8c10.3,0,19.7,3.9,26.8,10.4L62.5,35c-4.5-3.9-10.3-6.2-16.7-6.2c-14.1,0-25.5,11.4-25.5,25.5
	c0,14.1,11.4,25.5,25.5,25.5s25.5-11.4,25.5-25.5c0-6.3-2.3-12.2-6.2-16.6l10.1-10.1C81.6,34.6,85.5,44,85.5,54.2z M51.9,54.2
	c0,3.4-2.8,6.1-6.1,6.1c-3.4,0-6.1-2.8-6.1-6.1c0-3.4,2.8-6.1,6.1-6.1c1,0,2,0.3,2.9,0.7l-4.9,4.9c-0.7,0.7-0.7,1.9,0,2.6
	c0.4,0.4,0.8,0.5,1.3,0.5c0.5,0,1-0.2,1.3-0.6l4.9-4.9C51.7,52.3,51.9,53.3,51.9,54.2z M51.4,46.1c-1.6-1.1-3.5-1.7-5.6-1.7
	c-5.5,0-9.9,4.4-9.9,9.9c0,5.5,4.4,9.9,9.9,9.9c5.5,0,9.9-4.4,9.9-9.9c0-2-0.6-3.9-1.7-5.5l8.4-8.5c3.2,3.8,5.1,8.6,5.1,14
	c0,12-9.8,21.8-21.8,21.8S24,66.2,24,54.2s9.8-21.8,21.8-21.8c5.3,0,10.2,1.9,14,5.1L51.4,46.1z"/>
</svg>
