<?xml version="1.0" encoding="utf-8"?>
<!-- Generator: Adobe Illustrator 22.0.1, SVG Export Plug-In . SVG Version: 6.00 Build 0)  -->
<svg version="1.1" id="Layer_1" xmlns="http://www.w3.org/2000/svg" xmlns:xlink="http://www.w3.org/1999/xlink" x="0px" y="0px"
	 viewBox="0 0 130 130" style="enable-background:new 0 0 130 130;" xml:space="preserve">
<style type="text/css">
	.st0{fill:#202E5C;}
</style>
<g>
	<path class="st0" d="M68.4,69.1c0.2-0.7,0.8-1.2,1.5-1.2h-9.9c0.7,0,1.3,0.5,1.5,1.2L62,71h6L68.4,69.1z"/>
	<path class="st0" d="M45,67.9l2.2-11.3h34.7l2.2,11.3h3.2l-2.6-13.2c-0.1-0.7-0.8-1.3-1.5-1.3H45.9c-0.7,0-1.4,0.5-1.5,1.3
		l-2.6,13.2H45z"/>
	<path class="st0" d="M27.8,82.4L30.4,71h12.7h15.8l2.7,11.3h3.2L62,71l-0.4-1.9c-0.2-0.7-0.8-1.2-1.5-1.2H45h-3.2H29.2
		c-0.7,0-1.3,0.5-1.5,1.2l-3.1,13.2H27.8z"/>
	<path class="st0" d="M44.3,83.5l0.4,1.9h2.9l0.4-1.9c0.2-0.7,0.8-1.2,1.5-1.2h-6.8C43.5,82.4,44.1,82.8,44.3,83.5z"/>
	<path class="st0" d="M84.1,67.9H69.9c-0.7,0-1.3,0.5-1.5,1.2L68,71l-2.7,11.3h3.2L71.2,71H86h13.6l2.7,11.3h3.2l-3.1-13.2
		c-0.2-0.7-0.8-1.2-1.5-1.2H87.3H84.1z"/>
	<path class="st0" d="M81.9,83.5l0.4,1.9h2.9l0.4-1.9c0.2-0.7,0.8-1.2,1.5-1.2h-6.8C81.2,82.4,81.8,82.8,81.9,83.5z"/>
	<path class="st0" d="M45,99.3c-0.3-0.4-0.4-0.9-0.3-1.3l1.5-6.4l-1.4-6.1l-0.4-1.9c-0.2-0.7-0.8-1.2-1.5-1.2h-15h-3.2H11.9
		c-0.7,0-1.3,0.5-1.5,1.2L7,98c-0.1,0.5,0,0.9,0.3,1.3c0.3,0.4,0.7,0.6,1.2,0.6h37.6C45.7,99.9,45.3,99.6,45,99.3z M25.8,85.5h15.8
		l2.7,11.3H10.5l2.7-11.3H25.8z"/>
	<path class="st0" d="M119.6,83.5c-0.2-0.7-0.8-1.2-1.5-1.2h-12.7h-3.2h-15c-0.7,0-1.3,0.5-1.5,1.2l-0.4,1.9l-1.4,6.1l1.5,6.4
		c0.1,0.5,0,0.9-0.3,1.3c-0.3,0.4-0.7,0.6-1.2,0.6h37.6c0.5,0,0.9-0.2,1.2-0.6c0.3-0.4,0.4-0.9,0.3-1.3L119.6,83.5z M116.8,85.5
		l2.7,11.3H85.8l2.7-11.3h15.8H116.8z"/>
	<path class="st0" d="M85,99.3c0.3-0.4,0.4-0.9,0.3-1.3l-1.5-6.4l-1.4-6.1l-0.4-1.9c-0.2-0.7-0.8-1.2-1.5-1.2H68.5h-3.2h-0.6h-3.2
		H49.6c-0.7,0-1.3,0.5-1.5,1.2l-0.4,1.9l-1.4,6.1L44.7,98c-0.1,0.5,0,0.9,0.3,1.3c0.3,0.4,0.7,0.6,1.2,0.6h37.6
		C84.3,99.9,84.7,99.6,85,99.3z M66.5,85.5h12.7l2.7,11.3H48.1l2.7-11.3h12.7H66.5z"/>
	<path class="st0" d="M63.5,31.7v10.2c0,0.9,0.7,1.6,1.6,1.6c0.9,0,1.5-0.7,1.5-1.6V31.7c0-0.9-0.7-1.6-1.5-1.6
		C64.1,30.1,63.5,30.8,63.5,31.7z"/>
	<path class="st0" d="M93.1,39l-7.2,7.2c-0.6,0.6-0.6,1.6,0,2.2c0.3,0.3,0.7,0.5,1.1,0.5s0.8-0.2,1.1-0.5l7.2-7.2
		c0.6-0.6,0.6-1.6,0-2.2C94.7,38.4,93.7,38.4,93.1,39z"/>
	<path class="st0" d="M38.5,37.2c-0.6-0.6-1.6-0.6-2.2,0c-0.6,0.6-0.6,1.6,0,2.2l7.2,7.2c0.3,0.3,0.7,0.5,1.1,0.5
		c0.4,0,0.8-0.1,1.1-0.5c0.6-0.6,0.6-1.6,0-2.2L38.5,37.2z"/>
</g>
</svg>
