<?xml version="1.0" encoding="utf-8"?>
<!-- Generator: Adobe Illustrator 22.0.1, SVG Export Plug-In . SVG Version: 6.00 Build 0)  -->
<svg version="1.1" id="Layer_1" xmlns="http://www.w3.org/2000/svg" xmlns:xlink="http://www.w3.org/1999/xlink" x="0px" y="0px"
	 viewBox="0 0 130 130" style="enable-background:new 0 0 130 130;" xml:space="preserve">
<style type="text/css">
	.st0{fill:#20295C;}
</style>
<g>
	<g>
		<path class="st0" d="M70.9,17.6c0-0.1,0-0.1,0.1-0.2c-0.1-0.1-0.1-0.4-0.1-0.5H59.7c0,0.4-0.1,0.8-0.5,1.1h11.6
			C70.9,17.8,70.9,17.6,70.9,17.6z"/>
		<path class="st0" d="M42.3,16.8H31c0,0.1,0,0.2-0.1,0.5c0,0.1,0.1,0.2,0.1,0.4c0,0,0,0.1,0,0.2h11.2
			C42.3,17.5,42.3,17.1,42.3,16.8z"/>
		<path class="st0" d="M72.5,18.4c-0.6,0-1.2-0.4-1.5-1c0,0.1,0,0.1-0.1,0.2c0,0,0,0.1-0.1,0.2c-0.2,1.2-1.8,6-7.1,10.4H66
			c0.7,0,1.3,0.1,1.9,0.4c5-5.1,5.9-10.1,6-10.5c0-0.2,0-0.6-0.1-0.8C73.7,17.9,73.1,18.4,72.5,18.4z"/>
		<path class="st0" d="M35.6,28.3h2.1C32.6,24,31.3,19,31,17.9c0-0.1,0-0.2,0-0.2c0-0.1-0.1-0.2-0.1-0.4c-0.2,0.6-0.7,1.1-1.5,1.1
			c-0.6,0-1.2-0.4-1.5-0.8c-0.1,0.2-0.1,0.5,0,0.6c0,0.4,0.8,5.7,5.7,10.6C34.3,28.4,34.9,28.3,35.6,28.3z"/>
		<path class="st0" d="M29.6,18.4c0.7,0,1.3-0.5,1.5-1.1c0-0.1,0.1-0.2,0.1-0.5c0-3.1,2.5-5.6,5.6-5.6c3.1,0,5.6,2.5,5.6,5.6
			c0-1.8,0.6-3.5,1.6-5c-1.6-2.3-4.2-3.7-7.1-3.7c-4.8,0-8.7,3.9-8.7,8.7c0,0.2,0,0.5,0.1,0.6C28.4,18,28.9,18.4,29.6,18.4z"/>
		<path class="st0" d="M42.3,16.8c0,0.4,0,0.7,0.1,1.1c0.5,4.4,4.2,7.6,8.6,7.6c0.8,0,1.6-0.7,1.6-1.6c0-0.5-0.1-0.8-0.5-1.1
			c-0.2-0.2-0.7-0.5-1.1-0.5c-3.1,0-5.6-2.5-5.6-5.6c0-3.1,2.5-5.6,5.6-5.6c3.1,0,5.6,2.5,5.6,5.6c0-1.8,0.6-3.5,1.6-5
			C56.5,9.5,54,8.1,51,8.1c-3,0-5.6,1.4-7.1,3.7C42.9,13.3,42.3,15,42.3,16.8z"/>
		<path class="st0" d="M56.7,16.8c0,0.5,0.1,0.8,0.5,1.1c0.2,0.2,0.6,0.5,1.1,0.5c0.5,0,0.8-0.1,1.1-0.5c0.2-0.2,0.5-0.6,0.5-1.1
			c0-3.1,2.5-5.6,5.6-5.6c3.1,0,5.6,2.5,5.6,5.6c0,0.2,0,0.4,0.1,0.5c0.2,0.6,0.7,1,1.5,1c0.7,0,1.2-0.4,1.4-1
			c0.1-0.1,0.1-0.4,0.1-0.5c0-4.8-3.9-8.7-8.7-8.7c-3,0-5.6,1.4-7.1,3.7C57.1,13.3,56.7,15,56.7,16.8z"/>
		<path class="st0" d="M66.5,37.7c14.9,6.2,25.4,20.8,25.4,37.8c0,1.9-0.1,3.7-0.4,5.6c1.1-0.1,2.1-0.1,3.1-0.2
			c0.2-1.8,0.4-3.5,0.4-5.3C95,58,84.7,42.9,69.8,35.8C69.1,36.8,67.9,37.6,66.5,37.7z"/>
		<path class="st0" d="M28,109.5c-10.9-7.4-18-19.8-18-33.8c0-17,10.5-31.7,25.4-37.8c-1.5,0-2.7-0.7-3.5-1.8C17.1,43,7,58.1,7,75.5
			c0,15.9,8.5,29.8,21,37.6c0,0,0,0,0-0.1V109.5z"/>
		<path class="st0" d="M35.5,37.7c0.1,0,0.1,0,0.2,0h30.5c0.1,0,0.2,0,0.4,0c1.3-0.1,2.5-0.8,3.4-1.9c0.6-0.8,1-1.8,1-2.8
			c0-1.9-1.2-3.6-2.9-4.4c-0.6-0.2-1.2-0.4-1.9-0.4h-2.3h-26h-2.1c-0.7,0-1.3,0.1-1.9,0.5c-1.6,0.7-2.8,2.4-2.8,4.4
			c0,1.1,0.4,2.1,1,2.9C32.7,37,34.1,37.7,35.5,37.7z M34.1,33c0-0.8,0.7-1.7,1.7-1.7h30.5c0.8,0,1.7,0.7,1.7,1.7
			c0,0.8-0.7,1.7-1.7,1.7H35.6C34.8,34.7,34.1,33.9,34.1,33z"/>
		<path class="st0" d="M119.9,108.1v2.7c0,1.9-7.6,5.6-21.6,5.6c-11.1,0-18.2-2.3-20.7-4.2v1c0,0.8-0.2,1.6-0.7,2.3
			c4.5,2.7,13.1,4.1,21.4,4.1c12.3-0.1,24.8-3,24.8-8.7v-7.1C123,105.4,121.8,106.8,119.9,108.1z"/>
		<path class="st0" d="M76.6,103.3V101c-1.9-1.2-3.1-2.7-3.1-4.3v4.3C74.8,101.7,75.9,102.5,76.6,103.3z"/>
		<path class="st0" d="M119.9,101v2.7c0,1.9-7.6,5.6-21.6,5.6c-11.4,0-18.5-2.4-20.8-4.3c0.1,0.4,0.1,0.7,0.1,1.1v2.7
			c4.7,2.4,12.7,3.6,20.7,3.6c8.6,0,17.2-1.4,21.6-4.2c1.9-1.2,3.1-2.7,3.1-4.3v-7.1C123,98.3,121.8,99.8,119.9,101z"/>
		<path class="st0" d="M119.9,93.9v2.7c0,1.9-7.6,5.6-21.6,5.6s-21.6-3.6-21.6-5.6v-2.7c-1.9-1.2-3.1-2.7-3.1-4.3v7.1l0,0
			c0,1.7,1.2,3.1,3.1,4.3c4.5,2.8,13.1,4.2,21.6,4.2s17.2-1.4,21.6-4.2c1.9-1.2,3.1-2.7,3.1-4.3l0,0v-7.1
			C123,91.2,121.8,92.7,119.9,93.9z"/>
		<path class="st0" d="M91.6,81.2c-9.8,0.8-18.1,3.6-18.1,8.3c0,1.7,1.2,3.1,3.1,4.3c4.5,2.8,13.1,4.2,21.6,4.2s17.2-1.4,21.6-4.2
			c1.9-1.2,3.1-2.7,3.1-4.3c0-5.7-12.4-8.6-24.8-8.6c-1.2,0-2.4,0-3.6,0.1C93.6,80.9,92.6,81.1,91.6,81.2z M119.9,89.5
			c0,1.9-7.6,5.6-21.6,5.6s-21.6-3.6-21.6-5.6c0-1.9,7.6-5.6,21.6-5.6S119.9,87.6,119.9,89.5z"/>
		<path class="st0" d="M77.6,113.1v-1v-3.5V106c0,1.7-1.2,3.1-3.1,4.3v2.7c0,1.9-7.6,5.6-21.6,5.6s-21.6-3.6-21.6-5.4v-2.7
			c-1.9-1.2-3.1-2.7-3.1-4.3v3.5v3.6c0,0,0,0,0,0.1c0.1,5.7,12.4,8.6,24.8,8.6c10.5,0,21.1-2.2,24-6.4
			C77.3,114.7,77.6,113.8,77.6,113.1z"/>
		<path class="st0" d="M76.6,103.3c-0.7-0.8-1.8-1.7-3.1-2.4c-4.7-2.4-12.7-3.6-20.7-3.6c-12.3,0-24.8,3-24.8,8.6
			c0,1.7,1.2,3.1,3.1,4.3c4.5,2.8,13.1,4.2,21.6,4.2s17.2-1.4,21.6-4.2c1.9-1.2,3.1-2.7,3.1-4.3c0-0.4,0-0.7-0.1-1.1
			C77.3,104.4,77,103.8,76.6,103.3z M31.2,106c0-1.9,7.6-5.6,21.6-5.6s21.6,3.6,21.6,5.6c0,1.8-7.6,5.6-21.6,5.6
			S31.2,107.8,31.2,106z"/>
	</g>
	<g>
		<path class="st0" d="M43,55.8h22l0,0c-1.3,2.1-2.1,3-2.2,3.1h-5.9c0.8,1,1.3,2.1,1.7,3.5h6.3c0.1,0,0.1,0,0.1,0.1
			c-1.5,2.1-2.2,3.1-2.2,3.1h-4.1c-0.1,1.1-0.6,2.4-1.6,3.9c-1.2,1.6-2.4,2.5-3.6,3c-2.2,1-4.2,1.6-6.2,1.6l0,0
			c0,0.1,4.5,5.4,13.3,15.7h-5.8C46.3,80,42,74.9,42,74.9v-3v-0.1c0.7,0.1,1.7,0.1,2.7,0.1c4.8,0,7.9-1.6,8.9-4.7
			c0.2-0.5,0.2-1,0.2-1.5H40.8c-0.1,0-0.1,0-0.1-0.1c1.5-2.1,2.2-3.1,2.2-3.1h10.4l0,0c-0.6-1.2-1.7-2.2-3.5-2.8
			c-1.2-0.4-2.3-0.6-3.3-0.6h-5.7V59C42.3,56.9,43,55.8,43,55.8z"/>
	</g>
</g>
</svg>
