<?xml version="1.0" encoding="utf-8"?>
<!-- Generator: Adobe Illustrator 22.1.0, SVG Export Plug-In . SVG Version: 6.00 Build 0)  -->
<svg version="1.1" id="Layer_1" xmlns="http://www.w3.org/2000/svg" xmlns:xlink="http://www.w3.org/1999/xlink" x="0px" y="0px"
	 viewBox="0 0 100 100" style="enable-background:new 0 0 100 100;" xml:space="preserve">
<style type="text/css">
	.st0{fill:#FFFFFF;}
</style>
<g>
	<g>
		<g>
			<g>
				<g>
					<path class="st0" d="M50,21.9c-5.5,0-9.9-4.5-9.9-9.9S44.5,2,50,2s9.9,4.5,9.9,9.9S55.5,21.9,50,21.9z M50,5.3
						c-3.7,0-6.7,3-6.7,6.7s3,6.7,6.7,6.7s6.7-3,6.7-6.7S53.7,5.3,50,5.3z"/>
				</g>
				<g>
					<path class="st0" d="M50,98c-5.5,0-9.9-4.5-9.9-9.9c0-5.5,4.5-9.9,9.9-9.9s9.9,4.5,9.9,9.9S55.5,98,50,98z M50,81.4
						c-3.7,0-6.7,3-6.7,6.7s3,6.7,6.7,6.7s6.7-3,6.7-6.7S53.7,81.4,50,81.4z"/>
				</g>
			</g>
			<g>
				<g>
					<path class="st0" d="M88.1,59.9c-5.5,0-9.9-4.5-9.9-9.9s4.5-9.9,9.9-9.9c5.5,0,9.9,4.5,9.9,9.9S93.5,59.9,88.1,59.9z
						 M88.1,43.3c-3.7,0-6.7,3-6.7,6.7s3,6.7,6.7,6.7s6.6-3,6.6-6.7S91.7,43.3,88.1,43.3z"/>
				</g>
				<g>
					<path class="st0" d="M11.9,59.9C6.5,59.9,2,55.5,2,50s4.5-9.9,9.9-9.9s9.9,4.5,9.9,9.9S17.4,59.9,11.9,59.9z M11.9,43.3
						c-3.7,0-6.7,3-6.7,6.7s3,6.7,6.7,6.7s6.7-3,6.7-6.7S15.6,43.3,11.9,43.3z"/>
				</g>
			</g>
		</g>
		<g>
			<path class="st0" d="M76.9,31.2c-2.2,0-4.2-0.8-5.7-2.4c-1.5-1.5-2.4-3.6-2.4-5.7c0-2.2,0.8-4.2,2.4-5.7c1.5-1.5,3.6-2.4,5.7-2.4
				c2.2,0,4.2,0.8,5.7,2.4c3.2,3.2,3.2,8.3,0,11.5C81.1,30.4,79.1,31.2,76.9,31.2z M76.9,18.3c-1.3,0-2.5,0.5-3.4,1.4
				s-1.4,2.1-1.4,3.4s0.5,2.5,1.4,3.4s2.1,1.4,3.4,1.4s2.5-0.5,3.4-1.4c1.9-1.9,1.9-4.9,0-6.8C79.4,18.8,78.2,18.3,76.9,18.3z"/>
		</g>
		<g>
			<path class="st0" d="M23.1,85c-2.2,0-4.2-0.8-5.7-2.4C15.9,81.1,15,79,15,76.9c0-2.2,0.8-4.2,2.4-5.7c1.5-1.5,3.6-2.4,5.7-2.4
				c2.2,0,4.2,0.8,5.7,2.4c1.5,1.5,2.4,3.6,2.4,5.7c0,2.2-0.8,4.2-2.4,5.7C27.3,84.2,25.3,85,23.1,85z M23.1,72.1
				c-1.3,0-2.5,0.5-3.4,1.4s-1.4,2.1-1.4,3.4s0.5,2.5,1.4,3.4s2.1,1.4,3.4,1.4s2.5-0.5,3.4-1.4s1.4-2.1,1.4-3.4s-0.5-2.5-1.4-3.4
				S24.4,72.1,23.1,72.1z"/>
		</g>
		<g>
			<path class="st0" d="M76.9,85c-2.2,0-4.2-0.8-5.7-2.4c-1.5-1.5-2.4-3.6-2.4-5.7c0-2.2,0.8-4.2,2.4-5.7c1.5-1.5,3.6-2.4,5.7-2.4
				c2.2,0,4.2,0.8,5.7,2.4c3.2,3.2,3.2,8.3,0,11.5C81.1,84.2,79.1,85,76.9,85z M76.9,72.1c-1.3,0-2.5,0.5-3.4,1.4s-1.4,2.1-1.4,3.4
				s0.5,2.5,1.4,3.4s2.1,1.4,3.4,1.4s2.5-0.5,3.4-1.4c1.9-1.9,1.9-4.9,0-6.8C79.4,72.6,78.2,72.1,76.9,72.1z"/>
		</g>
		<g>
			<path class="st0" d="M23.1,31.2c-2.2,0-4.2-0.8-5.7-2.4c-1.5-1.5-2.4-3.6-2.4-5.7c0-2.2,0.8-4.2,2.4-5.7c1.5-1.5,3.6-2.4,5.7-2.4
				c2.2,0,4.2,0.8,5.7,2.4c1.5,1.5,2.4,3.6,2.4,5.7c0,2.2-0.8,4.2-2.4,5.7C27.3,30.4,25.3,31.2,23.1,31.2z M23.1,18.3
				c-1.3,0-2.5,0.5-3.4,1.4s-1.4,2.1-1.4,3.4s0.5,2.5,1.4,3.4s2.1,1.4,3.4,1.4s2.5-0.5,3.4-1.4s1.4-2.1,1.4-3.4s-0.5-2.5-1.4-3.4
				S24.4,18.3,23.1,18.3z"/>
		</g>
		<g>
			<g>
				<path class="st0" d="M72.3,50v1.6H69V50c0-1-0.1-2.1-0.2-3.1c-0.1-0.4-0.1-0.8-0.2-1.2s-0.2-0.7-0.3-1v-0.1
					c-1.8-6.2-6.5-10.9-12.7-12.8h-0.1v-3.4l1.1,0.3c7.3,2.2,12.8,7.9,14.9,15.1c0.1,0.3,0.2,0.6,0.2,0.8c0,0.1,0.1,0.2,0.1,0.3
					c0.1,0.4,0.2,0.9,0.3,1.4c0.1,0.6,0.2,1.3,0.2,2C72.3,48.9,72.3,49.5,72.3,50z"/>
			</g>
			<g>
				<path class="st0" d="M44.6,68.3v3.4l-1.1-0.3c-2.2-0.7-4.3-1.7-6.1-2.9c-0.4-0.2-0.7-0.5-1-0.7c-3.6-2.7-6.2-6.5-7.6-10.9
					c-0.1-0.4-0.3-0.9-0.4-1.4c0-0.1-0.1-0.2-0.1-0.3c-0.1-0.5-0.2-1-0.3-1.4c-0.1-0.7-0.2-1.3-0.2-2c0-0.6-0.1-1.1-0.1-1.6v-1.6H31
					V50c0,1,0.1,2.1,0.2,3.1c0.1,0.4,0.2,0.8,0.2,1.2c0.1,0.4,0.2,0.7,0.3,1c0,0.1,0.1,0.2,0.1,0.4c0.7,2.2,1.7,4.2,3.1,5.9
					c1.1,1.5,2.5,2.7,4,3.8c1.7,1.2,3.5,2.1,5.5,2.7L44.6,68.3z"/>
			</g>
			<g>
				<path class="st0" d="M51.6,27.7V31H50c-1,0-2.1,0.1-3.1,0.3c-0.4,0.1-0.8,0.2-1.3,0.2c-0.3,0.1-0.7,0.2-1,0.3h-0.1
					c-6.2,1.9-10.9,6.7-12.7,12.8h-3.4l0.2-0.8c2.1-7.3,7.7-12.9,14.9-15.1c0.4-0.1,0.7-0.2,1.1-0.3c0.1,0,0.2-0.1,0.3-0.1
					c0.5-0.1,1-0.2,1.5-0.3c0.6-0.1,1.3-0.2,2-0.2c0.5,0,1.1-0.1,1.6-0.1C50,27.7,51.6,27.7,51.6,27.7z"/>
			</g>
			<g>
				<path class="st0" d="M71.7,55.4l-0.4,1.4c-1.4,4.4-4.1,8.2-7.7,10.9c-0.3,0.2-0.7,0.5-1,0.7c-1.8,1.3-3.9,2.3-6.1,2.9
					c-0.4,0.1-0.7,0.2-1.1,0.3c-0.1,0-0.2,0.1-0.3,0.1c-0.5,0.1-1,0.2-1.5,0.3c-0.6,0.1-1.3,0.2-2,0.2c-0.6,0-1.1,0.1-1.6,0.1h-1.6
					V69H50c1,0,2.1-0.1,3.1-0.2c0.4-0.1,0.8-0.2,1.2-0.2c0.4-0.1,0.7-0.2,1.1-0.3c0,0,0.1,0,0.2,0c2-0.6,3.9-1.5,5.5-2.7
					c1.5-1.1,2.9-2.4,4-3.8c1.4-1.8,2.4-3.7,3.1-5.9l0.1-0.4h3.4V55.4z"/>
			</g>
			<g>
				<rect x="69" y="48.4" class="st0" width="12.4" height="3.3"/>
			</g>
			<g>
				<rect x="18.6" y="48.4" class="st0" width="12.4" height="3.3"/>
			</g>
			<g>
				<rect x="48.4" y="18.6" class="st0" width="3.3" height="12.4"/>
			</g>
			<g>
				<rect x="48.4" y="69" class="st0" width="3.3" height="12.4"/>
			</g>
			<g>
				<g>
					
						<rect x="66.7" y="28.4" transform="matrix(0.7072 -0.707 0.707 0.7072 -0.7654 58.2213)" class="st0" width="6.5" height="3.3"/>
				</g>
				<g>
					
						<rect x="26.8" y="68.3" transform="matrix(0.7071 -0.7071 0.7071 0.7071 -40.6607 41.7681)" class="st0" width="6.5" height="3.3"/>
				</g>
			</g>
			<g>
				<g>
					
						<rect x="28.4" y="26.8" transform="matrix(0.7072 -0.7071 0.7071 0.7072 -12.4787 30.0489)" class="st0" width="3.3" height="6.5"/>
				</g>
				<g>
					
						<rect x="68.3" y="66.7" transform="matrix(0.7071 -0.7071 0.7071 0.7071 -28.9423 69.9493)" class="st0" width="3.3" height="6.5"/>
				</g>
			</g>
		</g>
	</g>
	<g>
		<path class="st0" d="M44.7,42H55l0,0c-0.6,0.9-0.9,1.4-1,1.5h-2.7c0.4,0.4,0.6,1,0.8,1.6H55h0.1c-0.7,1-1,1.5-1,1.5H52
			c0,0.5-0.3,1.1-0.7,1.8c-0.6,0.7-1.1,1.2-1.7,1.4c-1,0.5-1.9,0.7-2.9,0.7l0,0c0,0.1,2.1,2.5,6.2,7.3h-2.7c-4-4.7-6-7-6-7v-1.4
			v-0.1c0.4,0,0.8,0.1,1.2,0.1c2.2,0,3.6-0.7,4.2-2.2c0.1-0.2,0.1-0.4,0.1-0.7h-6.1l0,0c0.7-1,1-1.5,1-1.5h4.8l0,0
			c-0.3-0.6-0.8-1-1.6-1.3c-0.6-0.2-1.1-0.3-1.5-0.3h-2.7v-0.1C44.4,42.5,44.7,42,44.7,42z"/>
	</g>
</g>
</svg>
