<?xml version="1.0" encoding="utf-8"?>
<!-- Generator: Adobe Illustrator 22.1.0, SVG Export Plug-In . SVG Version: 6.00 Build 0)  -->
<svg version="1.1" id="Layer_1" xmlns="http://www.w3.org/2000/svg" xmlns:xlink="http://www.w3.org/1999/xlink" x="0px" y="0px"
	 viewBox="0 0 130 130" style="enable-background:new 0 0 130 130;" xml:space="preserve">
<style type="text/css">
	.st0{fill:#20295C;}
</style>
<g>
	<path class="st0" d="M117.2,80.5l-3.4-3.4c-3.1-3.1-5.5-6.9-7-11.1c-1.7-4.7-4.5-9.1-8.1-12.7L86.7,41.3c-2.2-2.2-5.8-2.8-8.4-1.4
		V14.4c0-1.2-1-2.2-2.2-2.2H14.4c-1.2,0-2.2,1-2.2,2.2v101.3c0,1.2,1,2.2,2.2,2.2H76c1.2,0,2.2-1,2.2-2.2V94
		c2.5,1.2,5.1,1.9,7.7,2.1l7.9,7.9c0.4,0.4,1,0.6,1.6,0.6s1.1-0.2,1.6-0.6l20.3-20.3c0.4-0.4,0.6-1,0.6-1.6
		C117.8,81.5,117.6,80.9,117.2,80.5z M80,43.9c1-0.7,2.6-0.5,3.6,0.5l12.1,12.1c3.1,3.1,5.5,6.9,7,11.1c0.6,1.7,1.5,3.4,2.4,5
		l-19,19c-2.7-0.3-5.5-1.2-8.3-2.9c-3.5-2.1-7.5-3.3-11.7-3.3H51.1c-0.7,0-1.4-0.3-2-0.8c-0.5-0.5-0.8-1.2-0.7-2
		c0.1-1.4,1.4-2.6,3-2.6h10.1c1.4,0,2.7-0.8,3.2-2.1c0.5-1.3,0.2-2.8-0.7-3.8L40.3,50.4c-0.6-0.6-0.9-1.4-0.8-2.2
		c0.1-0.8,0.5-1.5,1.2-2c1-0.7,2.6-0.5,3.6,0.5l18.3,18.3c0.9,0.9,2.3,0.9,3.1,0s0.9-2.3,0-3.1c-1.1-1.1-1.1-2.8,0-3.8
		c1-1,2.8-1,3.8,0c0.9,0.9,2.3,0.9,3.1,0c0.4-0.4,0.6-1,0.6-1.6c0-0.6-0.2-1.1-0.6-1.6c-0.5-0.5-0.8-1.2-0.8-1.9
		c0-0.7,0.3-1.4,0.8-1.9c1-1,2.8-1,3.8,0c0.9,0.9,2.3,0.9,3.1,0c0.9-0.9,0.9-2.3,0-3.1c-0.6-0.6-0.9-1.4-0.8-2.2
		C78.8,45.1,79.3,44.4,80,43.9z M16.6,32h57.2v14.1c-1.6,0.2-3.1,0.8-4.3,2c-1.3,1.3-2,3-2.1,4.9c-1.8,0-3.6,0.8-4.9,2.1
		c-0.7,0.7-1.2,1.5-1.5,2.3L47.4,43.6c-2.4-2.4-6.5-2.9-9.2-1c-1.8,1.2-2.9,3.1-3.1,5.2c-0.2,2.1,0.6,4.2,2.1,5.7l22.1,22.1h-7.8
		c-3.9,0-7.2,3-7.4,6.8c-0.1,2,0.6,3.8,2,5.2c1.4,1.4,3.2,2.2,5.1,2.2h14.9c2.7,0,5.3,0.6,7.7,1.8V98H16.6V32z M73.8,16.6v11H16.6
		v-11H73.8z M16.6,113.4v-11h57.2v11H16.6z M95.3,99.3l-5.4-5.4l17.5-17.5c1,1.4,2.1,2.7,3.3,3.9l1.8,1.8L95.3,99.3z"/>
	<path class="st0" d="M37.1,24.8h5.1c1.2,0,2.2-1,2.2-2.2c0-1.2-1-2.2-2.2-2.2h-5.1c-1.2,0-2.2,1-2.2,2.2
		C34.9,23.8,35.9,24.8,37.1,24.8z"/>
	<path class="st0" d="M50.5,24.8h2.9c1.2,0,2.2-1,2.2-2.2c0-1.2-1-2.2-2.2-2.2h-2.9c-1.2,0-2.2,1-2.2,2.2
		C48.3,23.8,49.2,24.8,50.5,24.8z"/>
	<path class="st0" d="M47.4,105.8H43c-1.2,0-2.2,1-2.2,2.2c0,1.2,1,2.2,2.2,2.2h4.4c1.2,0,2.2-1,2.2-2.2
		C49.6,106.8,48.7,105.8,47.4,105.8z"/>
</g>
</svg>
