<?xml version="1.0" encoding="utf-8"?>
<!-- Generator: Adobe Illustrator 22.0.1, SVG Export Plug-In . SVG Version: 6.00 Build 0)  -->
<svg version="1.1" id="Layer_1" xmlns="http://www.w3.org/2000/svg" xmlns:xlink="http://www.w3.org/1999/xlink" x="0px" y="0px"
	 viewBox="0 0 100 100" style="enable-background:new 0 0 100 100;" xml:space="preserve">
<style type="text/css">
	.st0{fill:#FFFFFF;}
</style>
<g>
	<path class="st0" d="M22.2,2.1H84v0.1c-3.6,5.6-5.7,8.6-6.2,9H61.3c2.3,2.7,3.8,5.9,4.6,9.7h17.6c0.2,0,0.3,0.1,0.3,0.3
		c-3.9,5.9-6,8.9-6,8.9H66.4c-0.3,3-1.7,6.7-4.4,11c-3.5,4.3-6.9,7.1-10.1,8.4c-6,2.9-11.7,4.3-17.2,4.3v0.1
		c0,0.4,12.4,15.1,37.2,44.1H55.6C31.4,69.8,19.3,55.7,19.3,55.6V47l0.1-0.3c2.1,0.3,4.6,0.4,7.5,0.4c13.5,0,21.9-4.4,25.2-13.2
		c0.5-1.3,0.8-2.6,0.8-4H16.3c-0.2,0-0.3-0.1-0.3-0.3c4.1-5.9,6.1-8.9,6.2-8.9h29.2v-0.1c-1.7-3.4-4.9-6-9.7-7.9
		c-3.4-1.1-6.5-1.7-9.2-1.7H16.1v-0.3C20.1,5,22.1,2.1,22.2,2.1z"/>
</g>
</svg>
