<?xml version="1.0" encoding="utf-8"?>
<!-- Generator: Adobe Illustrator 22.0.1, SVG Export Plug-In . SVG Version: 6.00 Build 0)  -->
<svg version="1.1" id="Layer_1" xmlns="http://www.w3.org/2000/svg" xmlns:xlink="http://www.w3.org/1999/xlink" x="0px" y="0px"
	 viewBox="0 0 130 130" style="enable-background:new 0 0 130 130;" xml:space="preserve">
<style type="text/css">
	.st0{fill:#212E5C;}
</style>
<g>
	<g>
		<g>
			<path class="st0" d="M76.7,104.3H12.5c-0.8,0-1.5-0.7-1.5-1.5V25.2c0-0.8,0.7-1.5,1.5-1.5H27c0.8,0,1.5,0.7,1.5,1.5
				s-0.7,1.5-1.5,1.5h-13v74.6h62.8c0.8,0,1.5,0.7,1.5,1.5C78.2,103.7,77.5,104.3,76.7,104.3z"/>
		</g>
		<g>
			<path class="st0" d="M55.9,26.7H34.3c-0.8,0-1.5-0.7-1.5-1.5c0-0.8,0.7-1.5,1.5-1.5h21.6c0.8,0,1.5,0.7,1.5,1.5
				C57.3,26.2,56.7,26.7,55.9,26.7z"/>
		</g>
		<g>
			<path class="st0" d="M106,69.6c-0.8,0-1.5-0.7-1.5-1.5V26.7H90.9c-0.8,0-1.5-0.7-1.5-1.5c0-0.8,0.7-1.5,1.5-1.5h15
				c0.8,0,1.5,0.7,1.5,1.5v42.9C107.4,68.9,106.8,69.6,106,69.6z"/>
		</g>
		<g>
			<path class="st0" d="M84.2,26.7H62.6c-0.8,0-1.5-0.7-1.5-1.5c0-0.8,0.7-1.5,1.5-1.5h21.6c0.8,0,1.5,0.7,1.5,1.5
				C85.6,26.2,85,26.7,84.2,26.7z"/>
		</g>
		<g>
			<g>
				<g>
					<path class="st0" d="M29.7,59.5h-8.6c-0.8,0-1.5-0.7-1.5-1.5v-8.6c0-0.8,0.7-1.5,1.5-1.5h8.6c0.8,0,1.5,0.7,1.5,1.5V58
						C31.1,58.8,30.5,59.5,29.7,59.5z M22.5,56.5h5.6V51h-5.6V56.5z"/>
				</g>
				<g>
					<path class="st0" d="M46.6,59.5H38c-0.8,0-1.5-0.7-1.5-1.5v-8.6c0-0.8,0.7-1.5,1.5-1.5h8.6c0.8,0,1.5,0.7,1.5,1.5V58
						C48,58.8,47.4,59.5,46.6,59.5z M39.4,56.5h5.6V51h-5.6V56.5z"/>
				</g>
				<g>
					<path class="st0" d="M63.5,59.5H55c-0.8,0-1.5-0.7-1.5-1.5v-8.6c0-0.8,0.7-1.5,1.5-1.5h8.6c0.8,0,1.5,0.7,1.5,1.5V58
						C64.9,58.8,64.4,59.5,63.5,59.5z M56.4,56.5H62V51h-5.6V56.5z"/>
				</g>
				<g>
					<path class="st0" d="M80.5,59.5h-8.6c-0.8,0-1.5-0.7-1.5-1.5v-8.6c0-0.8,0.7-1.5,1.5-1.5h8.6c0.8,0,1.5,0.7,1.5,1.5V58
						C81.9,58.8,81.3,59.5,80.5,59.5z M73.3,56.5h5.6V51h-5.6V56.5z"/>
				</g>
				<g>
					<path class="st0" d="M97.4,59.5h-8.6c-0.8,0-1.5-0.7-1.5-1.5v-8.6c0-0.8,0.7-1.5,1.5-1.5h8.6c0.8,0,1.5,0.7,1.5,1.5V58
						C98.8,58.8,98.2,59.5,97.4,59.5z M90.2,56.5h5.6V51h-5.6V56.5z"/>
				</g>
			</g>
			<g>
				<g>
					<path class="st0" d="M29.7,75.9h-8.6c-0.8,0-1.5-0.7-1.5-1.5v-8.6c0-0.8,0.7-1.5,1.5-1.5h8.6c0.8,0,1.5,0.7,1.5,1.5v8.7
						C31.1,75.3,30.5,75.9,29.7,75.9z M22.5,72.9h5.6v-5.6h-5.6V72.9z"/>
				</g>
				<g>
					<path class="st0" d="M46.6,75.9H38c-0.8,0-1.5-0.7-1.5-1.5v-8.6c0-0.8,0.7-1.5,1.5-1.5h8.6c0.8,0,1.5,0.7,1.5,1.5v8.7
						C48,75.3,47.4,75.9,46.6,75.9z M39.4,72.9h5.6v-5.6h-5.6V72.9z"/>
				</g>
				<g>
					<path class="st0" d="M63.5,75.9H55c-0.8,0-1.5-0.7-1.5-1.5v-8.6c0-0.8,0.7-1.5,1.5-1.5h8.6c0.8,0,1.5,0.7,1.5,1.5v8.7
						C64.9,75.3,64.4,75.9,63.5,75.9z M56.4,72.9H62v-5.6h-5.6V72.9z"/>
				</g>
			</g>
			<g>
				<g>
					<path class="st0" d="M29.7,92.3h-8.6c-0.8,0-1.5-0.7-1.5-1.5v-8.6c0-0.8,0.7-1.5,1.5-1.5h8.6c0.8,0,1.5,0.7,1.5,1.5v8.6
						C31.1,91.6,30.5,92.3,29.7,92.3z M22.5,89.4h5.6v-5.6h-5.6V89.4z"/>
				</g>
				<g>
					<path class="st0" d="M46.6,92.3H38c-0.8,0-1.5-0.7-1.5-1.5v-8.6c0-0.8,0.7-1.5,1.5-1.5h8.6c0.8,0,1.5,0.7,1.5,1.5v8.6
						C48,91.6,47.4,92.3,46.6,92.3z M39.4,89.4h5.6v-5.6h-5.6V89.4z"/>
				</g>
				<g>
					<path class="st0" d="M63.5,92.3H55c-0.8,0-1.5-0.7-1.5-1.5v-8.6c0-0.8,0.7-1.5,1.5-1.5h8.6c0.8,0,1.5,0.7,1.5,1.5v8.6
						C64.9,91.6,64.4,92.3,63.5,92.3z M56.4,89.4H62v-5.6h-5.6V89.4z"/>
				</g>
			</g>
		</g>
		<g>
			<path class="st0" d="M106,40H12.5c-0.8,0-1.5-0.7-1.5-1.5c0-0.8,0.7-1.5,1.5-1.5H106c0.8,0,1.5,0.7,1.5,1.5
				C107.4,39.3,106.8,40,106,40z"/>
		</g>
		<g>
			<path class="st0" d="M34.3,33.2h-6.7c-0.8,0-1.5-0.7-1.5-1.5V18.8c0-0.8,0.7-1.5,1.5-1.5h6.7c0.8,0,1.5,0.7,1.5,1.5v12.9
				C35.7,32.6,35.1,33.2,34.3,33.2z M29,30.3h3.8v-10H29V30.3z"/>
		</g>
		<g>
			<path class="st0" d="M90.9,33.2h-6.7c-0.8,0-1.5-0.7-1.5-1.5V18.8c0-0.8,0.7-1.5,1.5-1.5h6.7c0.8,0,1.5,0.7,1.5,1.5v12.9
				C92.3,32.6,91.7,33.2,90.9,33.2z M85.6,30.3h3.8v-10h-3.8V30.3z"/>
		</g>
		<g>
			<path class="st0" d="M62.6,33.2h-6.7c-0.8,0-1.5-0.7-1.5-1.5V18.8c0-0.8,0.7-1.5,1.5-1.5h6.7c0.8,0,1.5,0.7,1.5,1.5v12.9
				C64,32.6,63.4,33.2,62.6,33.2z M57.3,30.3h3.8v-10h-3.8V30.3z"/>
		</g>
	</g>
	<g>
		<g>
			<path class="st0" d="M94.6,112.8c-3.3,0-6.6-0.7-9.5-1.9c-2.9-1.3-5.5-3.1-7.8-5.3c-2.2-2.2-4-4.8-5.3-7.8
				c-1.3-3.1-1.9-6.2-1.9-9.5s0.7-6.6,1.9-9.5c1.3-2.9,3.1-5.5,5.3-7.8c2.2-2.2,4.8-4,7.8-5.3c3.1-1.3,6.2-1.9,9.5-1.9
				s6.6,0.7,9.5,1.9c2.9,1.3,5.5,3.1,7.8,5.3s4,4.8,5.3,7.8c1.3,3.1,1.9,6.2,1.9,9.5c0,3.3-0.7,6.6-1.9,9.5
				c-1.3,2.9-3.1,5.5-5.3,7.8c-2.2,2.2-4.8,4-7.8,5.3C101.1,112.2,97.8,112.8,94.6,112.8z M94.6,66.7c-11.9,0-21.6,9.6-21.6,21.6
				s9.8,21.5,21.6,21.5s21.6-9.6,21.6-21.6S106.4,66.7,94.6,66.7z"/>
		</g>
	</g>
	<g>
		<g>
			<path class="st0" d="M94.6,107.5c-5.2,0-10-2-13.6-5.6c-3.6-3.6-5.6-8.5-5.6-13.6c0-5.2,2-10,5.6-13.6s8.5-5.6,13.6-5.6
				c5.2,0,10,2,13.6,5.6s5.6,8.5,5.6,13.6c0,5.2-2,10-5.6,13.6C104.5,105.5,99.7,107.5,94.6,107.5z M94.6,72
				c-8.9,0-16.2,7.3-16.2,16.2c0,8.9,7.3,16.2,16.2,16.2s16.2-7.3,16.2-16.2S103.6,72,94.6,72z"/>
		</g>
	</g>
	<g>
		<path class="st0" d="M90.7,81.3h10.5l0,0c-0.6,0.9-0.9,1.4-1.1,1.5h-2.8c0.4,0.5,0.6,0.9,0.8,1.6h2.9l0,0
			c-0.7,1.1-1.1,1.5-1.1,1.5h-1.9c0,0.5-0.2,1.2-0.7,1.9c-0.6,0.7-1.2,1.2-1.8,1.4c-1.1,0.5-2,0.7-2.9,0.7l0,0
			c0,0.1,2.1,2.6,6.3,7.5h-2.8c-4.1-4.8-6.1-7.2-6.1-7.2v-1.4l0,0c0.4,0,0.8,0.1,1.3,0.1c2.4,0,3.8-0.7,4.2-2.2
			c0.1-0.2,0.1-0.5,0.1-0.7h-6.2l0,0c0.7-1.1,1.1-1.5,1.1-1.5h5.1l0,0c-0.2-0.6-0.8-1.1-1.6-1.3C93.4,83,92.9,83,92.4,83h-2.8l0,0
			C90.3,81.7,90.6,81.3,90.7,81.3z"/>
	</g>
</g>
</svg>
