<?xml version="1.0" encoding="utf-8"?>
<!-- Generator: Adobe Illustrator 22.0.1, SVG Export Plug-In . SVG Version: 6.00 Build 0)  -->
<svg version="1.1" id="Layer_1" xmlns="http://www.w3.org/2000/svg" xmlns:xlink="http://www.w3.org/1999/xlink" x="0px" y="0px"
	 viewBox="0 0 100 100" style="enable-background:new 0 0 100 100;" xml:space="preserve">
<style type="text/css">
	.st0{fill:none;stroke:#FFFFFF;stroke-width:2;stroke-linejoin:round;stroke-miterlimit:10;}
	.st1{fill:none;stroke:#FFFFFF;stroke-width:2;stroke-linecap:round;stroke-linejoin:round;stroke-miterlimit:10;}
</style>
<g>
	<line id="XMLID_117_" class="st0" x1="36.4" y1="7.1" x2="50.8" y2="7.1"/>
	<path id="XMLID_116_" class="st1" d="M51.5,98.7H12.8c-3.2,0-5.8-2.6-5.8-5.8V7.1c0-3.2,2.6-5.8,5.8-5.8h61.6
		c3.2,0,5.8,2.6,5.8,5.8v27.5"/>
	<line id="XMLID_115_" class="st0" x1="36.4" y1="92.9" x2="50.8" y2="92.9"/>
	<line id="XMLID_114_" class="st1" x1="7" y1="12.9" x2="80.2" y2="12.9"/>
	<line id="XMLID_113_" class="st1" x1="50.8" y1="87.1" x2="7" y2="87.1"/>
	<path id="XMLID_112_" class="st1" d="M21.8,30.9h-3.5c-1.8,0-3.2-1.4-3.2-3.2v-3.5c0-1.8,1.4-3.2,3.2-3.2h3.5
		c1.8,0,3.2,1.4,3.2,3.2v3.5C25,29.5,23.6,30.9,21.8,30.9z"/>
	<path id="XMLID_111_" class="st1" d="M37.3,30.9h-3.5c-1.8,0-3.2-1.4-3.2-3.2v-3.5c0-1.8,1.4-3.2,3.2-3.2h3.5
		c1.8,0,3.2,1.4,3.2,3.2v3.5C40.5,29.5,39,30.9,37.3,30.9z"/>
	<path id="XMLID_110_" class="st1" d="M52.7,30.9h-3.5c-1.8,0-3.2-1.4-3.2-3.2v-3.5c0-1.8,1.4-3.2,3.2-3.2h3.5
		c1.8,0,3.2,1.4,3.2,3.2v3.5C56,29.5,54.5,30.9,52.7,30.9z"/>
	<path id="XMLID_109_" class="st1" d="M21.8,47.1h-3.5c-1.8,0-3.2-1.4-3.2-3.2v-3.5c0-1.8,1.4-3.2,3.2-3.2h3.5
		c1.8,0,3.2,1.4,3.2,3.2v3.5C25,45.7,23.6,47.1,21.8,47.1z"/>
	<path id="XMLID_108_" class="st1" d="M37.3,47.1h-3.5c-1.8,0-3.2-1.4-3.2-3.2v-3.5c0-1.8,1.4-3.2,3.2-3.2h3.5
		c1.8,0,3.2,1.4,3.2,3.2v3.5C40.5,45.7,39,47.1,37.3,47.1z"/>
	<path id="XMLID_107_" class="st1" d="M21.8,63.3h-3.5c-1.8,0-3.2-1.4-3.2-3.2v-3.5c0-1.8,1.4-3.2,3.2-3.2h3.5
		c1.8,0,3.2,1.4,3.2,3.2V60C25,61.8,23.6,63.3,21.8,63.3z"/>
	<path id="XMLID_106_" class="st1" d="M37.3,63.3h-3.5c-1.8,0-3.2-1.4-3.2-3.2v-3.5c0-1.8,1.4-3.2,3.2-3.2h3.5
		c1.8,0,3.2,1.4,3.2,3.2V60C40.5,61.8,39,63.3,37.3,63.3z"/>
	<g>
		<path class="st1" d="M70.4,49.4v-9.6h3.8c2.1,0,3.8,1.7,3.8,3.8"/>
		<path class="st1" d="M93,57c-0.2,7.1-1.4,14.2-3.6,21.1c-0.7,2.2-1,3.9-1,3.9H72.1"/>
		<path class="st1" d="M70.4,39.8v-10c0-2.1-1.7-3.8-3.8-3.8l0,0c-2.1,0-3.8,1.7-3.8,3.8v27.9l-2.6-6.8C59.5,49.2,57.9,48,56,48l0,0
			c-2.5,0-4.5,2-4.5,4.5l0,0c0,4.5,1.2,9,3.5,12.9c0.9,1.5,2,3,3.2,4.4C62.9,75,64.1,82,64.1,82"/>
		<path class="st1" d="M77.9,52.2v-9.6h3.8c2.1,0,3.8,1.7,3.8,3.8v9.1"/>
		<path class="st1" d="M85.5,47.4h3.8c2.1,0,3.8,1.7,3.8,3.8V57"/>
	</g>
	<rect x="61.2" y="87.1" class="st1" width="29.3" height="11.6"/>
	<path class="st1" d="M85,92.9c0-0.6-0.5-1.1-1.1-1.1c-0.6,0-1.1,0.5-1.1,1.1c0,0.6,0.5,1.1,1.1,1.1C84.5,94,85,93.5,85,92.9z"/>
</g>
</svg>
