<?xml version="1.0" encoding="utf-8"?>
<!-- Generator: Adobe Illustrator 22.0.1, SVG Export Plug-In . SVG Version: 6.00 Build 0)  -->
<svg version="1.1" id="Layer_1" xmlns="http://www.w3.org/2000/svg" xmlns:xlink="http://www.w3.org/1999/xlink" x="0px" y="0px"
	 viewBox="0 0 100 100" style="enable-background:new 0 0 100 100;" xml:space="preserve">
<style type="text/css">
	.st0{fill:none;stroke:#FFFFFF;stroke-width:2;stroke-linecap:round;stroke-linejoin:round;stroke-miterlimit:10;}
	.st1{fill:none;stroke:#FFFFFF;stroke-width:2;stroke-miterlimit:10;}
</style>
<g>
	<path class="st0" d="M88.3,88.9H11.7c-2.3,0-4.1-1.8-4.1-4.1V8.1C7.5,5.8,9.4,4,11.7,4h76.7c2.3,0,4.1,1.8,4.1,4.1v76.7
		C92.5,87.1,90.6,88.9,88.3,88.9z"/>
	<path class="st0" d="M63.6,32.4c-1.2-1.1-2.5-2.1-3.9-2.9"/>
	<path class="st0" d="M64.2,59.8c1.1-1.1,2-2.4,2.8-3.7"/>
	<path class="st0" d="M36,60.1c1.3,1.3,2.7,2.4,4.3,3.3"/>
	<path class="st0" d="M36.3,32.6c-1.2,1.2-2.3,2.6-3.2,4.2"/>
	<path class="st1" d="M69.5,46.5c0-3.5-0.9-6.8-2.6-9.7l4.2-4.2c0.8-0.8,0.8-2,0-2.8l-4.4-4.4c-0.8-0.8-2-0.8-2.8,0l-4.2,4.2
		C56.8,27.9,53.5,27,50,27c-3.5,0-6.8,0.9-9.7,2.6l-4.2-4.2c-0.8-0.8-2-0.8-2.8,0l-4.4,4.4c-0.8,0.8-0.8,2,0,2.8l4.2,4.2
		c-1.6,2.9-2.6,6.2-2.6,9.7c0,3.5,0.9,6.8,2.6,9.7l-4.2,4.2c-0.8,0.8-0.8,2,0,2.8l4.4,4.4c0.8,0.8,2,0.8,2.8,0l4.2-4.2
		C43.2,65,46.5,66,50,66s6.8-0.9,9.7-2.6l4.2,4.2c0.8,0.8,2,0.8,2.8,0l4.4-4.4c0.8-0.8,0.8-2,0-2.8l-4.2-4.2
		C68.6,53.3,69.5,50,69.5,46.5z"/>
	<rect x="16.8" y="13.2" class="st0" width="66.5" height="66.5"/>
	<g>
		<path class="st0" d="M46.6,44.2h-3.3c-0.6,0-1.1-0.5-1.1-1.1v-3.3c0-0.6,0.5-1.1,1.1-1.1h3.3c0.6,0,1.1,0.5,1.1,1.1V43
			C47.7,43.7,47.2,44.2,46.6,44.2z"/>
		<path class="st0" d="M56.7,44.2h-3.3c-0.6,0-1.1-0.5-1.1-1.1v-3.3c0-0.6,0.5-1.1,1.1-1.1h3.3c0.6,0,1.1,0.5,1.1,1.1V43
			C57.8,43.7,57.3,44.2,56.7,44.2z"/>
		<path class="st0" d="M42.2,53.2v-3.3c0-0.6,0.5-1.1,1.1-1.1h3.3c0.6,0,1.1,0.5,1.1,1.1v3.3c0,0.6-0.5,1.1-1.1,1.1h-3.3
			C42.7,54.3,42.2,53.8,42.2,53.2z"/>
		<path class="st0" d="M52.3,53.2v-3.3c0-0.6,0.5-1.1,1.1-1.1h3.3c0.6,0,1.1,0.5,1.1,1.1v3.3c0,0.6-0.5,1.1-1.1,1.1h-3.3
			C52.8,54.3,52.3,53.8,52.3,53.2z"/>
	</g>
	<polyline class="st0" points="32.4,92.8 32.4,96 16.8,96 16.8,92.8 	"/>
	<polyline class="st0" points="83.2,92.8 83.2,96 67.6,96 67.6,92.8 	"/>
</g>
</svg>
