<?xml version="1.0" encoding="utf-8"?>
<!-- Generator: Adobe Illustrator 22.1.0, SVG Export Plug-In . SVG Version: 6.00 Build 0)  -->
<svg version="1.1" id="Layer_1" xmlns="http://www.w3.org/2000/svg" xmlns:xlink="http://www.w3.org/1999/xlink" x="0px" y="0px"
	 viewBox="0 0 130 130" style="enable-background:new 0 0 130 130;" xml:space="preserve">
<style type="text/css">
	.st0{fill:#20295C;}
</style>
<g>
	<path class="st0" d="M96.9,44.6l-8.7,5.5c-4.4-6.8-11.3-11.8-19.4-13.6c-0.7-0.2-0.9-1-0.4-1.5l3.2-3.1l-5.3-5.3
		c-0.4-0.4-0.1-1,0.4-0.9C79.4,27.1,90.3,34.3,96.9,44.6z"/>
	<path class="st0" d="M103.4,70.1c-1.4,20.5-17.8,37-38.3,38.7C40.6,110.7,20,91.3,20,67.1c0-20.3,14.5-37.2,33.7-41c0,0,0,0,0,0
		v-4.3c0-0.6,0.7-0.9,1.2-0.5l4.2,4.1l4.7,4.6c0.9,0.8,0.9,2.2,0,3l-2.6,2.6l-6.2,6.1c-0.5,0.5-1.2,0.1-1.2-0.5v-4.5c0,0,0,0,0,0
		c-13.2,3.5-22.9,15.4-23.3,29.6c-0.4,17.8,14.1,32.5,31.9,32.2c17.1-0.3,30.9-14.2,30.9-31.4c0-2.3-0.2-4.5-0.7-6.6l8.4-7.9
		C102.9,57.9,103.8,63.9,103.4,70.1z"/>
	<path class="st0" d="M110,41.6L110,41.6l-10,8.8l-8.3,7.2L63.3,82.4c-1.5,1.3-3.7,1-4.8-0.6L42.1,58.9l0.1-0.3
		c0.3-1.4,1.5-2.4,2.9-2.5l0.7,0l14.4,12.7c1.4,1.2,3.5,1.4,5,0.3l24.3-16.7l8.5-5.9l9.9-6.8C109.1,39.6,110,40.5,110,41.6z"/>
</g>
</svg>
