<?xml version="1.0" encoding="utf-8"?>
<!-- Generator: Adobe Illustrator 22.0.1, SVG Export Plug-In . SVG Version: 6.00 Build 0)  -->
<svg version="1.1" id="Layer_1" xmlns="http://www.w3.org/2000/svg" xmlns:xlink="http://www.w3.org/1999/xlink" x="0px" y="0px"
	 viewBox="0 0 100 100" style="enable-background:new 0 0 100 100;" xml:space="preserve">
<style type="text/css">
	.st0{fill:none;stroke:#FFFFFF;stroke-width:2;stroke-linecap:round;stroke-linejoin:round;stroke-miterlimit:10;}
</style>
<g>
	<path class="st0" d="M33.1,69.4c-0.3,4.1-1.9,8.9-6.2,12.9c-3.4,3.1-5.1,11.7-5.1,11.7l3.8,3"/>
	<path class="st0" d="M28.6,80.4c2.1,0.3,9.2,0.9,17.2-2.2"/>
	<path class="st0" d="M46.1,74.7c0,3.2-1.2,8.3-0.4,11.7c0.8,3.3,6.7,10.7,6.7,10.7"/>
	<path class="st0" d="M58.5,74.2c-0.9,2.3-3.6,12.2-3.6,12.2l2,7.9l3.9,2.4"/>
	<path class="st0" d="M63.5,78.4c0,0,2,9.6,2.8,11.1c0.8,1.5,9.6,7.1,9.6,7.1"/>
	<polyline class="st0" points="29.6,89.3 31.9,94.2 35.5,96.2 	"/>
	<path class="st0" d="M82.2,63.6c1.1-2.5,1.8-5.6,1.3-6.2c-0.5-0.6-3.5-0.6-5.3,1.1c0,0-7.5-2.1-11.8-5.9c-4.3-3.9-8.6-6-15.8-4.4
		c-7.2,1.6-14.3-1.1-20.9-1.4c-9.8-0.4-20.8,7.1-22.6,16.3c0.7,10.8,5.1,11,5.4,19.6c0.1,4.4,3,13.5,3,13.5"/>
	<path class="st0" d="M83.3,60.4c1.9,1.7,5.4,7.1,5.4,7.1l-0.3,3c0,0,4.3,5.3,4.6,5.8c-0.1,1.4-3.6,4.4-3.6,4.4s-7.1-0.2-8.1-0.4
		c-1-0.2-3.9-0.7-4.9-2.2c-7.5-3-18.1,2-20.3,3.7"/>
	<g>
		<polyline class="st0" points="18.5,46 18.5,33.9 34.7,33.9 		"/>
		<polyline class="st0" points="34.7,39.9 34.7,23.7 50.8,23.7 		"/>
		<polyline class="st0" points="50.8,35.9 50.8,13.6 67,13.6 		"/>
		<polyline class="st0" points="67,35.9 67,3.5 83.2,3.5 83.2,35.9 		"/>
	</g>
</g>
</svg>
