<?xml version="1.0" encoding="utf-8"?>
<!-- Generator: Adobe Illustrator 22.1.0, SVG Export Plug-In . SVG Version: 6.00 Build 0)  -->
<svg version="1.1" id="Layer_1" xmlns="http://www.w3.org/2000/svg" xmlns:xlink="http://www.w3.org/1999/xlink" x="0px" y="0px"
	 viewBox="0 0 130 130" style="enable-background:new 0 0 130 130;" xml:space="preserve">
<style type="text/css">
	.st0{fill:#202E5C;}
</style>
<g>
	<path class="st0" d="M91.7,36.5c0-7.6-12.1-23.1-13.6-24.8c-0.3-0.4-0.8-0.6-1.2-0.6c-0.5,0-0.9,0.3-1.3,0.6
		c-1.1,1.4-9.3,11.8-12.5,19.8c-4.4-2.4-7.8-6.3-9.6-11l-2.1-5.3c-0.3-0.6-0.8-1-1.4-1c-0.7,0-1.3,0.4-1.5,1l-2,5.3
		c-2.2,5.6-6.6,10.1-12.2,12.2L29,34.8c-0.6,0.3-1,0.8-1,1.4c0,0.7,0.4,1.3,1,1.5l5.3,2c5.6,2.2,10,6.6,12.2,12.2l2,5.3
		c0.3,0.6,0.8,1,1.5,1c0.6,0,1.2-0.4,1.4-1l2.1-5.3c1.8-4.6,5-8.4,9.3-10.8c1.9,5.9,7.6,10.1,14.1,10.1
		C85.1,51.3,91.7,44.6,91.7,36.5z M50.1,52.3l-0.6-1.5c-2.4-6.4-7.6-11.5-14-14L34,36.2l1.5-0.6c6.4-2.5,11.5-7.6,14-14l0.6-1.5
		l0.6,1.5c2.2,5.6,6.3,10.2,11.6,13c0.1,0,0.1,0,0.1,0c0.8,0.4,1.5,0.8,2.3,1.1l0.6,0.3l0.9,0.3l-0.9,0.3v0.1l-0.6,0.2
		c-0.9,0.3-1.7,0.7-2.5,1.1c-5.3,2.8-9.3,7.3-11.5,12.9L50.1,52.3z M65.7,39.7L65.7,39.7l5.3-2c0.6-0.3,1-0.8,1-1.5
		c0-0.6-0.4-1.2-1-1.4l-4.9-1.9c2.1-5.5,7.5-13.3,10.8-17.6c4.1,5.4,11.6,16.3,11.6,21.3c0,6.5-5.2,11.6-11.6,11.6
		C71.6,48.2,67,44.6,65.7,39.7z"/>
	<path class="st0" d="M83.9,79.3c-1.4,1.8-13.5,17.2-13.5,24.9c0,8.1,6.6,14.8,14.8,14.8s14.8-6.6,14.8-14.8
		c0-7.6-12.1-23.1-13.6-24.9C85.8,78.6,84.5,78.6,83.9,79.3z M85.1,115.8c-6.5,0-11.6-5.3-11.6-11.6c0-5,7.5-15.9,11.6-21.3
		c4.1,5.4,11.6,16.3,11.6,21.3C96.8,110.5,91.6,115.8,85.1,115.8z"/>
	<path class="st0" d="M64.2,92.5l-3.5-1.4c-3.6-1.4-6.4-4.3-7.8-7.9l-1.4-3.5c-0.3-0.6-0.8-1-1.4-1c-0.7,0-1.3,0.4-1.5,1l-1.3,3.5
		c-0.4,1.2-1.1,2.3-1.8,3.3C44.2,78.5,33.3,64.6,32,63c-0.6-0.8-1.9-0.8-2.4,0C28.1,64.7,16,80.2,16,87.8c0,8.1,6.6,14.8,14.8,14.8
		c4.3,0,8.1-1.8,10.8-4.7c2.6,1.6,4.5,3.9,5.6,6.7l1.3,3.6c0.3,0.6,0.8,1,1.5,1c0.6,0,1.2-0.4,1.4-1l1.4-3.6
		c1.4-3.6,4.3-6.4,7.8-7.8l3.5-1.4c0.6-0.2,1-0.8,1-1.4C65.2,93.3,64.8,92.7,64.2,92.5z M45.1,91.4C45.1,91.4,45.1,91.4,45.1,91.4
		c2.2-1.8,3.9-4.1,5-6.8c1.7,4.3,5.1,7.6,9.3,9.3c-4.2,1.7-7.6,5.1-9.3,9.3c-1.4-3.3-3.7-6-6.6-7.9c-0.8-0.6-1.8-1-2.7-1.4
		C42.3,93.3,43.7,92.4,45.1,91.4z M30.8,99.4c-6.5,0-11.6-5.2-11.6-11.6c0-5,7.5-15.9,11.6-21.3c4.1,5.4,11.6,16.3,11.6,21.3
		c0,0.6-0.1,1.2-0.2,1.8c-0.9,0.7-1.8,1.2-2.9,1.6l-3.5,1.4c-0.6,0.2-1,0.8-1,1.4c0,0.6,0.4,1.3,1,1.4l2.7,1.1
		C36.5,98.3,33.8,99.4,30.8,99.4z"/>
	<path class="st0" d="M113,57.6l-3.6-1.4c-3.6-1.4-6.5-4.3-7.8-7.8l-1.4-3.5c-0.4-1.3-2.4-1.3-2.9,0L96,48.4
		c-1.4,3.6-4.3,6.4-7.9,7.8l-3.5,1.4c-0.6,0.3-1,0.8-1,1.4c0,0.7,0.4,1.3,1,1.5l3.5,1.3c3.6,1.4,6.5,4.3,7.9,7.9l1.3,3.5
		c0.3,0.6,0.8,1,1.5,1c0.6,0,1.2-0.4,1.4-1l1.4-3.5c1.4-3.6,4.3-6.4,7.8-7.9l3.6-1.3c0.6-0.3,1-0.8,1-1.5
		C114,58.4,113.6,57.9,113,57.6z M98.8,68.4c-1.8-4.3-5.1-7.6-9.3-9.3c4.3-1.7,7.6-5.1,9.3-9.3c1.7,4.2,5.1,7.6,9.3,9.3
		C103.9,60.8,100.5,64.1,98.8,68.4z"/>
</g>
</svg>
