<?xml version="1.0" encoding="utf-8"?>
<!-- Generator: Adobe Illustrator 22.0.1, SVG Export Plug-In . SVG Version: 6.00 Build 0)  -->
<svg version="1.1" id="Layer_1" xmlns="http://www.w3.org/2000/svg" xmlns:xlink="http://www.w3.org/1999/xlink" x="0px" y="0px"
	 viewBox="0 0 100 100" style="enable-background:new 0 0 100 100;" xml:space="preserve">
<style type="text/css">
	.st0{fill:none;stroke:#FFFFFF;stroke-width:2;stroke-miterlimit:10;}
	.st1{fill:#010101;stroke:#FFFFFF;stroke-width:2;stroke-linecap:round;stroke-miterlimit:10;}
</style>
<g>
	<g>
		<path class="st0" d="M13,84.1V50.9c0-6.1,5-11.1,11.1-11.1h33.2c6.1,0,11.1,5,11.1,11.1v33.2c0,6.1-5,11.1-11.1,11.1H24.1
			C18,95.2,13,90.2,13,84.1z"/>
		<path class="st0" d="M60.2,28.4h-8.1v-4.1c0-6.3-5.1-11.4-11.4-11.4c-6.3,0-11.4,5.1-11.4,11.4v15.5h-8.1V24.4
			c0-10.8,8.8-19.5,19.5-19.5c10.8,0,19.5,8.8,19.5,19.5V28.4z"/>
		<line class="st1" x1="40.7" y1="59.1" x2="40.7" y2="75.9"/>
	</g>
	<line class="st0" x1="68.7" y1="31.8" x2="72.4" y2="22"/>
	<line class="st0" x1="74.7" y1="36.2" x2="83.6" y2="30.6"/>
	<line class="st0" x1="76.5" y1="44.3" x2="87" y2="44"/>
</g>
</svg>
