<?xml version="1.0" encoding="utf-8"?>
<!-- Generator: Adobe Illustrator 22.0.1, SVG Export Plug-In . SVG Version: 6.00 Build 0)  -->
<svg version="1.1" id="Layer_1" xmlns="http://www.w3.org/2000/svg" xmlns:xlink="http://www.w3.org/1999/xlink" x="0px" y="0px"
	 viewBox="0 0 130 130" style="enable-background:new 0 0 130 130;" xml:space="preserve">
<style type="text/css">
	.st0{fill:#20295C;}
</style>
<path class="st0" d="M111.1,45.3L96.2,72.2h9.8c-3.5,22.5-23,39.4-46,39.4c-25.7,0-46.6-20.9-46.6-46.6c0-25.7,20.9-46.6,46.6-46.6
	c18.1,0,34.6,10.6,42.2,27l1.4-2.5c-3.8-7.6-9.6-14-16.7-18.7c-8-5.3-17.3-8.1-26.9-8.1C33,16.1,11.1,38,11.1,65
	c0,27,21.9,48.9,48.9,48.9c24.6,0,45.4-18.4,48.5-42.7l0.2-1.3h-8.5l10.9-19.7L122,69.8h-8.6l-0.1,1c-0.6,5.2-1.9,10.2-3.9,15
	c-2.7,6.4-6.6,12.1-11.5,17c-4.9,4.9-10.7,8.8-17,11.5c-6.6,2.8-13.6,4.2-20.9,4.2c-7.2,0-14.3-1.4-20.9-4.2
	c-6.4-2.7-12.1-6.6-17-11.5c-4.9-4.9-8.8-10.7-11.5-17C7.8,79.3,6.3,72.2,6.3,65s1.4-14.3,4.2-20.9c2.7-6.4,6.6-12.1,11.5-17
	c4.9-4.9,10.7-8.8,17-11.5c6.6-2.8,13.6-4.2,20.9-4.2c7.2,0,14.3,1.4,20.9,4.2c6.4,2.7,12.1,6.6,17,11.5c3.3,3.3,6.1,7,8.4,10.9
	l1.3-2.4c-2.3-3.7-5-7.1-8.1-10.2c-5.1-5.1-11.1-9.2-17.8-12C74.9,10.5,67.5,9,60,9c-7.6,0-14.9,1.5-21.8,4.4
	c-6.7,2.8-12.7,6.9-17.8,12c-5.1,5.1-9.2,11.1-12,17.8C5.5,50.1,4,57.4,4,65s1.5,14.9,4.4,21.8c2.8,6.7,6.9,12.7,12,17.8
	c5.1,5.1,11.1,9.2,17.8,12c6.9,2.9,14.2,4.4,21.8,4.4c7.6,0,14.9-1.5,21.8-4.4c6.7-2.8,12.7-6.9,17.8-12c5.1-5.1,9.2-11.1,12-17.8
	c2-4.7,3.3-9.6,3.9-14.6H126L111.1,45.3z"/>
<g>
	<path class="st0" d="M37.4,54l-8.1,21.1H32l2.1-5.9h8.9l2.2,5.9H48L39.9,54H37.4z M34.9,66.9l3.3-9c0.1-0.3,0.2-0.8,0.3-1.4h0.1
		c0.1,0.6,0.2,1.1,0.3,1.4l3.3,9H34.9z"/>
	<path class="st0" d="M59.4,66.3H64v5.9c-1.2,0.7-2.6,1-4.3,1c-2.4,0-4.3-0.8-5.7-2.3c-1.4-1.5-2.1-3.6-2.1-6.3
		c0-2.6,0.8-4.7,2.3-6.3c1.5-1.6,3.4-2.4,5.8-2.4c2.3,0,4.3,0.5,6.1,1.6v-2.7c-1.6-0.7-3.5-1.1-5.8-1.1c-3.2,0-5.8,1-7.8,3.1
		c-2.1,2.1-3.1,4.8-3.1,8c0,3.2,0.9,5.8,2.8,7.7c1.9,1.9,4.3,2.9,7.3,2.9c2.6,0,4.9-0.6,7.1-1.8v-9.6h-7.1V66.3z"/>
	<polygon class="st0" points="73.8,72.8 73.8,65.5 85,65.5 85,63.2 73.8,63.2 73.8,56.2 85.6,56.2 85.6,54 71.4,54 71.4,75.1
		86.1,75.1 86.1,72.8 	"/>
</g>
</svg>
