<?xml version="1.0" encoding="utf-8"?>
<!-- Generator: Adobe Illustrator 22.0.1, SVG Export Plug-In . SVG Version: 6.00 Build 0)  -->
<svg version="1.1" id="Layer_1" xmlns="http://www.w3.org/2000/svg" xmlns:xlink="http://www.w3.org/1999/xlink" x="0px" y="0px"
	 viewBox="0 0 100 100" style="enable-background:new 0 0 100 100;" xml:space="preserve">
<style type="text/css">
	.st0{fill:#FFFFFF;}
</style>
<g>
	<path class="st0" d="M10.8,93.8c-3.7,0-6.7-1.5-8.4-4.1C0.5,86.9,0.5,83.1,2.4,79l0-0.1l38.2-66.2c2.5-4.3,5.8-6.6,9.4-6.6
		c3.5,0,6.8,2.4,9.3,6.6L97,78.1c2.3,3.8,2.6,8,0.8,11.1c-1.2,2.1-3.9,4.6-9.8,4.6c-0.1,0-0.2,0-0.3,0H11.1
		C11,93.8,10.9,93.8,10.8,93.8z M4.5,80c-1.5,3.3-1.6,6.3-0.2,8.5c1.3,2,3.8,3.1,6.8,3.1l0,0l76.7,0c4,0.1,6.8-1.1,8.1-3.5
		c1.4-2.4,1.1-5.8-0.8-8.8l0,0L57.5,13.9c-2-3.5-4.7-5.5-7.3-5.5c0,0,0,0,0,0c-2.7,0-5.4,1.9-7.4,5.5L4.5,80z M50.1,87.3
		c-0.1,0-0.2,0-0.3,0c-1.2,0-2.3-0.3-3.3-0.8c-1.9-0.9-3.4-2.4-4.2-4.4l0,0c-0.2-0.7-0.4-1.3-0.5-2c-0.1-0.7-0.1-1.4,0-2
		c0.1-0.9,0.4-1.9,0.8-2.8c0.3-0.8,0.8-1.5,1.4-2.1c0.1-0.1,0.1-0.1,0.2-0.2c2.3-2.3,5.8-3,8.8-1.8c1.1,0.4,2.1,1.1,2.9,1.9
		c1.4,1.4,2.3,3.3,2.4,5.3c0.1,0.7,0,1.4-0.1,2.1c-0.1,0.7-0.3,1.3-0.6,2C56.2,85.4,53.3,87.3,50.1,87.3z M44.4,81.3
		c0.6,1.4,1.7,2.5,3,3.2c0.8,0.4,1.6,0.6,2.4,0.6l0,0c0.1,0,0.1,0,0.2,0c2.4,0,4.5-1.4,5.5-3.5l0,0c0.2-0.5,0.4-1,0.5-1.4l0,0
		c0.1-0.5,0.1-1,0.1-1.5l0,0c-0.1-1.5-0.7-2.8-1.7-3.8c-0.6-0.6-1.3-1.1-2.2-1.4c-2.2-0.9-4.7-0.3-6.4,1.3c0,0-0.1,0.1-0.1,0.1
		l-0.1,0.1c-0.4,0.4-0.8,0.9-1,1.5l0,0c-0.3,0.7-0.5,1.4-0.6,2.1l0,0c-0.1,0.5-0.1,1,0,1.5C44.1,80.3,44.2,80.8,44.4,81.3z M50,69.3
		c-3.9,0-6.9-2.6-7.1-6.3l-0.3-2.9c-0.9-8.4-2.3-22.6-2.2-28.8l0,0c0.1-3.6,2.6-6.2,6.7-7.1c1-0.2,1.9-0.3,2.9-0.3
		c1,0,1.9,0.1,2.9,0.3l0,0c4.2,0.9,6.8,3.6,6.8,7.2v0.2c0,0.1,0,0.2,0,0.3l-2.5,31.1c0,0.1,0,0.2,0,0.3c-0.2,1.7-1,3.2-2.3,4.3
		C53.5,68.7,51.8,69.3,50,69.3z M42.6,31.3c-0.1,6.1,1.4,20.1,2.2,28.5l0.3,3c0.1,2.5,2.1,4.2,4.8,4.2c2.6,0,4.6-1.6,4.8-3.9l0-0.1
		c0,0,0-0.1,0-0.1l2.5-31.1c0,0,0-0.1,0-0.1v-0.2c0-2.5-1.8-4.3-5-5c-0.8-0.2-1.6-0.2-2.4-0.2l0,0c-0.8,0-1.6,0.1-2.4,0.2
		C44.5,27.1,42.7,28.9,42.6,31.3z"/>
</g>
</svg>
