<?xml version="1.0" encoding="utf-8"?>
<!-- Generator: Adobe Illustrator 22.0.1, SVG Export Plug-In . SVG Version: 6.00 Build 0)  -->
<svg version="1.1" id="Layer_1" xmlns="http://www.w3.org/2000/svg" xmlns:xlink="http://www.w3.org/1999/xlink" x="0px" y="0px"
	 viewBox="0 0 130 130" style="enable-background:new 0 0 130 130;" xml:space="preserve">
<style type="text/css">
	.st0{fill:#212E5C;}
</style>
<g>
	<g>
		<path class="st0" d="M56.1,49.7h19.7l0,0c-1.2,1.7-1.8,2.7-1.9,2.8h-5.3c0.8,0.9,1.2,1.8,1.5,3.1h5.6c0.1,0,0.1,0,0.1,0.1
			c-1.3,1.8-1.9,2.8-1.9,2.8h-3.7c-0.1,1-0.5,2.2-1.4,3.5c-1.1,1.4-2.2,2.3-3.2,2.7c-1.9,0.9-3.7,1.4-5.5,1.4l0,0
			c0,0.1,3.9,4.9,11.8,14.1h-5.2c-7.6-9-11.4-13.4-11.4-13.5V64v-0.1c0.6,0.1,1.5,0.1,2.4,0.1c4.3,0,7-1.4,8-4.2
			c0.2-0.4,0.2-0.9,0.2-1.3H54.2c-0.1,0-0.1,0-0.1-0.1c1.3-1.8,1.9-2.8,1.9-2.8h9.3l0,0c-0.5-1.1-1.5-1.9-3.1-2.5
			c-1.1-0.3-2.1-0.5-2.9-0.5h-5.2v-0.1C55.4,50.7,56.1,49.7,56.1,49.7z"/>
	</g>
	<path class="st0" d="M92.2,59.4c-0.1,0-0.3,0-0.4-0.1c-0.2-0.1-0.3-0.3-0.3-0.5c-0.9-5.5-3.4-10.5-7.3-14.5c-0.2-0.3-0.3-0.8,0-1
		l14.3-17c0.1-0.1,0.3-0.2,0.5-0.2s0.4,0,0.5,0.2c4.1,3.7,7.6,7.9,10.4,12.7c2.8,4.9,4.9,10.1,6,15.6c0,0.2,0,0.4-0.1,0.5
		c-0.1,0.2-0.3,0.3-0.5,0.3l-22.8,4C92.3,59.4,92.2,59.4,92.2,59.4z M85.7,43.7c3.7,4,6.2,8.9,7.1,14.1l21.4-3.8
		c-2.2-10-7.6-19.3-15.2-26.2L85.7,43.7z"/>
	<path class="st0" d="M83.9,113.4c-0.1,0-0.2,0-0.3-0.1c-0.2-0.1-0.3-0.2-0.4-0.4l-8.8-23.9c-0.1-0.4,0-0.8,0.4-1
		c4.7-1.8,8.7-5,11.6-8.9c0.2-0.3,0.6-0.4,1-0.2l21.4,12.3c0.2,0.1,0.3,0.2,0.3,0.4c0,0.2,0,0.4-0.1,0.5c-2.9,4.8-6.6,8.9-10.8,12.6
		c-4.3,3.6-9.1,6.5-14.3,8.5C84,113.3,83.9,113.4,83.9,113.4z M76.1,89l8.2,22.5c9.5-3.9,17.6-10.8,23.2-19.5L87.2,80.5
		C84.3,84.3,80.4,87.2,76.1,89z"/>
	<path class="st0" d="M110,90c-0.1,0-0.2,0-0.3-0.1L88.3,77.7c-0.2-0.1-0.3-0.2-0.3-0.4c0-0.2,0-0.4,0.1-0.5
		c2.5-4.1,3.8-8.9,3.8-13.6c0-0.4,0-0.9,0-1.3c0-0.3,0.2-0.8,0.6-0.8l23.1-4.1c0.2,0,0.4,0,0.5,0.1c0.2,0.1,0.3,0.3,0.3,0.5
		c0.3,2.5,0.5,5,0.5,7.6c0,8.7-2.2,17.1-6.2,24.7c-0.1,0.2-0.2,0.3-0.4,0.3C110.2,90,110.1,90,110,90z M89.7,76.7l20,11.6
		c3.7-7.1,5.6-15.2,5.6-23.3c0-2.2-0.1-4.4-0.4-6.6l-21.6,3.8c0,0.2,0,0.4,0,0.8C93.3,67.8,92.1,72.6,89.7,76.7z"/>
	<path class="st0" d="M82.6,42.5c-0.2,0-0.3-0.1-0.4-0.2c-4.4-3.7-9.8-5.8-15.7-6.2c-0.4,0-0.8-0.3-0.8-0.8V13.8
		c0-0.2,0.1-0.4,0.2-0.5c0.1-0.1,0.3-0.2,0.5-0.2c5.6,0.1,11.3,1.2,16.6,3.2c5.1,1.9,9.8,4.5,14.2,8c0.1,0.1,0.2,0.3,0.3,0.5
		c0,0.2,0,0.4-0.2,0.5L83.1,42.2C83,42.4,82.8,42.5,82.6,42.5z M67.2,34.7c5.6,0.4,10.8,2.5,15.3,6L95.7,25
		c-8.2-6.4-18.1-10-28.5-10.4C67.2,14.6,67.2,34.7,67.2,34.7z"/>
	<path class="st0" d="M64.9,116.9c-7,0-13.9-1.4-20.2-4.1c-6.2-2.6-11.7-6.4-16.6-11.1c-4.8-4.8-8.5-10.3-11.1-16.6
		C14.4,78.9,13,72,13,65c0-13.6,5.2-26.5,14.7-36.3c4.7-4.8,10.1-8.5,16-11.3c6.2-2.8,12.9-4.3,19.7-4.4c0.2,0,0.4,0.1,0.5,0.2
		c0.1,0.1,0.2,0.3,0.2,0.5v21.5c0,0.4-0.3,0.8-0.8,0.8c-14.2,0.8-25.3,12.6-25.3,26.8c0,14.8,12,26.9,26.8,26.9c2.4,0,4.9-0.3,7.1-1
		c0.3-0.1,0.8,0.1,0.9,0.4l8.8,24c0.1,0.2,0.1,0.4,0,0.5c-0.1,0.2-0.2,0.3-0.4,0.4C76.1,116.1,70.6,116.9,64.9,116.9z M62.7,14.6
		C35.6,15.8,14.5,37.7,14.5,65c0,27.8,22.6,50.4,50.4,50.4c5.2,0,10.3-0.8,15.2-2.3l-8.2-22.6c-2.3,0.5-4.5,0.9-6.9,0.9
		c-15.7,0-28.4-12.8-28.4-28.4c0-7.3,2.8-14.3,7.8-19.6c4.9-5.1,11.4-8.2,18.3-8.8V14.6z"/>
</g>
</svg>
