<?xml version="1.0" encoding="utf-8"?>
<!-- Generator: Adobe Illustrator 22.0.1, SVG Export Plug-In . SVG Version: 6.00 Build 0)  -->
<svg version="1.1" id="Layer_1" xmlns="http://www.w3.org/2000/svg" xmlns:xlink="http://www.w3.org/1999/xlink" x="0px" y="0px"
	 viewBox="0 0 100 100" style="enable-background:new 0 0 100 100;" xml:space="preserve">
<style type="text/css">
	.st0{fill:#FFFFFF;}
</style>
<g>
	<path class="st0" d="M97.3,63.4v5.7c0,2.1-3.5,4.4-9.1,6.1c-6.3,1.9-14.8,3-23.8,3c-7.2,0-14.1-0.7-19.8-2
		c-1.2,0.7-2.5,1.3-3.9,1.8c6.7,1.9,15.3,2.9,23.7,2.9c17.2,0,35.5-4.1,35.5-11.8V58.6C100,60.4,99,62,97.3,63.4z"/>
	<path class="st0" d="M97.3,52.9v5.7c0,2.1-3.5,4.4-9.1,6.1c-6.3,1.9-14.8,3-23.8,3c-3.3,0-6.5-0.1-9.6-0.4c-0.6,0.9-1.3,1.7-2,2.5
		c3.8,0.4,7.7,0.6,11.6,0.6c13.2,0,27.1-2.4,32.8-7.1c1.7-1.4,2.7-3,2.7-4.7V48.2C100,50,99,51.5,97.3,52.9z"/>
	<path class="st0" d="M97.3,42.5v5.7c0,2.1-3.5,4.4-9.1,6.1c-6.3,1.9-14.8,3-23.8,3c-1.6,0-3.2,0-4.8-0.1c-0.2,0.9-0.5,1.8-0.8,2.6
		c1.9,0.1,3.8,0.1,5.6,0.1c13.2,0,27.1-2.4,32.8-7.1c1.7-1.4,2.7-3,2.7-4.7v0V37.8C100,39.5,99,41.1,97.3,42.5z"/>
	<path class="st0" d="M64.5,26c-4.7,0-9.5,0.3-13.9,0.9c0.8,0.7,1.6,1.5,2.4,2.4c3.6-0.4,7.5-0.6,11.5-0.6c9,0,17.4,1.1,23.8,3
		c5.6,1.7,9.1,4,9.1,6.1c0,2.1-3.5,4.4-9.1,6.1c-6.3,1.9-14.8,3-23.8,3c-1.3,0-2.6,0-3.9-0.1c0.1,0.9,0.1,1.8,0.1,2.7
		c1.3,0,2.5,0.1,3.8,0.1c13.2,0,27.1-2.4,32.8-7.1c1.7-1.4,2.7-2.9,2.7-4.7C100,30.1,81.7,26,64.5,26z"/>
	<path class="st0" d="M63.4,46.2c0.7,0,1.3-0.6,1.3-1.3c0,0,0,0,0,0c0-0.7-0.6-1.3-1.3-1.3c-1.1,0-2.2-0.1-3.3-0.1
		c0.2,0.9,0.3,1.8,0.4,2.7C61.5,46.1,62.4,46.2,63.4,46.2C63.4,46.2,63.4,46.2,63.4,46.2z"/>
	<path class="st0" d="M56,32.1C56,32.1,56,32.1,56,32.1c-0.1-0.7-0.8-1.3-1.5-1.2c0,0-0.1,0-0.1,0c0.5,0.6,1,1.3,1.4,2
		C55.9,32.7,56,32.4,56,32.1z"/>
	<path class="st0" d="M59.2,33.2C59.2,33.2,59.3,33.2,59.2,33.2c1.6-0.1,3.1-0.1,4.6-0.2c0.7,0,1.3-0.6,1.3-1.3c0,0,0,0,0,0
		c0-0.7-0.6-1.3-1.3-1.3c-1.6,0-3.1,0.1-4.6,0.2c-0.7,0-1.3,0.7-1.3,1.4c0,0,0,0,0,0C57.9,32.7,58.5,33.2,59.2,33.2z"/>
	<path class="st0" d="M77.2,34c1.6,0.3,3,0.6,4.3,0.9c0.1,0,0.2,0,0.4,0c0.6,0,1.1-0.4,1.3-1c0,0,0,0,0,0c0.2-0.7-0.2-1.4-0.9-1.6
		c-1.4-0.4-2.9-0.7-4.6-1c-0.7-0.1-1.4,0.4-1.5,1.1c0,0,0,0,0,0C76,33.2,76.5,33.9,77.2,34z"/>
	<path class="st0" d="M85.6,36.5c1.4,0.8,1.9,1.4,1.9,1.8c0,0.4-0.6,1.2-2.2,2c-0.6,0.3-0.9,1.1-0.6,1.7c0,0,0,0,0,0.1
		c0.2,0.5,0.7,0.7,1.2,0.7c0.2,0,0.4,0,0.6-0.1c2.5-1.2,3.7-2.7,3.7-4.4c0-1.6-1.1-3-3.3-4.2c-0.7-0.3-1.5-0.1-1.8,0.6
		c0,0,0,0,0,0.1C84.7,35.4,85,36.1,85.6,36.5z"/>
	<path class="st0" d="M68.3,33.1c1.5,0.1,3,0.2,4.5,0.3c0,0,0.1,0,0.1,0c0.7,0,1.3-0.5,1.3-1.2c0,0,0,0,0,0c0.1-0.7-0.5-1.4-1.2-1.5
		c-1.5-0.1-3.1-0.3-4.6-0.3c-0.7,0-1.4,0.5-1.4,1.3c0,0,0,0,0,0C67,32.5,67.6,33.1,68.3,33.1z"/>
	<path class="st0" d="M72.4,43.2c-1.5,0.1-3,0.2-4.5,0.3c-0.7,0-1.3,0.6-1.3,1.4c0,0,0,0,0,0c0,0.7,0.6,1.3,1.3,1.3c0,0,0,0,0.1,0
		c1.6-0.1,3.1-0.2,4.6-0.3c0.7-0.1,1.3-0.7,1.2-1.5c0,0,0,0,0,0C73.8,43.6,73.1,43.1,72.4,43.2z"/>
	<path class="st0" d="M81.2,41.7c-1.3,0.3-2.8,0.7-4.4,0.9c-0.7,0.1-1.2,0.8-1.1,1.5c0,0,0,0,0,0c0.1,0.7,0.7,1.1,1.3,1.1
		c0.1,0,0.1,0,0.2,0c1.7-0.3,3.2-0.6,4.6-1c0.7-0.2,1.1-0.9,0.9-1.6c0,0,0,0,0,0C82.6,41.9,81.9,41.5,81.2,41.7z"/>
	<path class="st0" d="M44.7,76.2c3.1-1.7,5.9-3.9,8.2-6.4c0.7-0.8,1.4-1.6,2-2.5c1.7-2.3,3-4.8,4-7.5c0.3-0.9,0.6-1.7,0.8-2.6
		c0.6-2.5,1-5,1-7.7c0,0,0,0,0,0c0-0.9,0-1.8-0.1-2.7c0-0.2,0-0.5-0.1-0.7c-0.1-0.9-0.2-1.8-0.4-2.7c-0.8-3.8-2.3-7.3-4.3-10.4
		c-0.4-0.7-0.9-1.3-1.4-2c-0.4-0.6-0.9-1.1-1.4-1.7c-0.7-0.8-1.5-1.6-2.4-2.4c-5.4-4.8-12.5-7.8-20.2-7.8C13.6,19.1,0,32.8,0,49.5
		c0,16.7,13.6,30.3,30.3,30.3c3.7,0,7.2-0.7,10.5-1.9C42.1,77.5,43.4,76.9,44.7,76.2z M30.3,21.8C45.6,21.8,58,34.2,58,49.5
		c0,15.3-12.4,27.7-27.7,27.7c-15.3,0-27.7-12.4-27.7-27.7C2.7,34.2,15.1,21.8,30.3,21.8z"/>
</g>
<g>
	<path class="st0" d="M21.6,36.6H41v0c-1.1,1.8-1.8,2.7-1.9,2.8h-5.2c0.7,0.8,1.2,1.8,1.4,3h5.5c0.1,0,0.1,0,0.1,0.1
		c-1.2,1.9-1.9,2.8-1.9,2.8h-3.6c-0.1,1-0.5,2.1-1.4,3.4C33,50.1,32,51,31,51.4c-1.9,0.9-3.7,1.3-5.4,1.3v0c0,0.1,3.9,4.7,11.7,13.8
		h-5.1c-7.6-8.8-11.4-13.2-11.4-13.3v-2.7l0-0.1c0.7,0.1,1.5,0.1,2.4,0.1c4.2,0,6.9-1.4,7.9-4.1c0.2-0.4,0.2-0.8,0.2-1.2H19.8
		c-0.1,0-0.1,0-0.1-0.1c1.3-1.9,1.9-2.8,2-2.8h9.1v0c-0.5-1.1-1.5-1.9-3-2.5c-1.1-0.3-2-0.5-2.9-0.5h-5.1v-0.1
		C21,37.5,21.6,36.6,21.6,36.6z"/>
</g>
</svg>
