<?xml version="1.0" encoding="utf-8"?>
<!-- Generator: Adobe Illustrator 22.0.1, SVG Export Plug-In . SVG Version: 6.00 Build 0)  -->
<svg version="1.1" id="Layer_1" xmlns="http://www.w3.org/2000/svg" xmlns:xlink="http://www.w3.org/1999/xlink" x="0px" y="0px"
	 viewBox="0 0 130 130" style="enable-background:new 0 0 130 130;" xml:space="preserve">
<style type="text/css">
	.st0{fill:#212E5C;}
</style>
<g>
	<path class="st0" d="M56.4,53H78l0,0c-1.2,1.9-1.9,2.9-2.2,3.2H70c0.7,1,1.2,1.9,1.7,3.4h6.1l0,0c-1.5,2.2-2.2,3.2-2.2,3.2h-3.9
		c0,1-0.5,2.4-1.5,3.9C69,68,67.8,69,66.6,69.5c-2.2,1-4.1,1.5-6.1,1.5l0,0c0,0.2,4.4,5.3,13.1,15.5h-5.8
		c-8.5-9.9-12.6-14.8-12.6-14.8v-2.9l0,0c0.7,0,1.7,0.2,2.7,0.2c4.8,0,7.8-1.5,8.7-4.6c0.2-0.5,0.2-1,0.2-1.5H54l0,0
		c1.5-2.2,2.2-3.2,2.2-3.2h10.4l0,0c-0.5-1.2-1.7-2.2-3.4-2.7c-1.2-0.5-2.2-0.5-3.2-0.5h-5.8l0,0C55.7,54,56.2,53,56.4,53z"/>
</g>
<g>
	<g>
		<g>
			<g>
				<path class="st0" d="M112.1,72.1c-3.8,23.2-23.9,40.7-47.9,40.7c-12.6,0-24.6-4.9-33.7-13.7l-3.3-3.2L17,106l0.4-28.4h28
					L34.6,88.5l3.5,3.3c7.1,6.7,16.4,10.5,26.1,10.5c18.3,0,33.5-12.7,37.2-30.2H112.1z"/>
			</g>
			<g>
				<path class="st0" d="M65.9,17.2c12.6,0,24.6,4.9,33.7,13.7l3.3,3.2L113,24l-0.4,28.4h-28l10.9-10.9L92,38.2
					c-7.1-6.7-16.4-10.5-26.1-10.5c-18.3,0-33.5,12.7-37.2,30.2H17.9C21.7,34.7,41.8,17.2,65.9,17.2z"/>
			</g>
		</g>
	</g>
</g>
</svg>
