<?xml version="1.0" encoding="utf-8"?>
<!-- Generator: Adobe Illustrator 22.0.1, SVG Export Plug-In . SVG Version: 6.00 Build 0)  -->
<svg version="1.1" id="Layer_1" xmlns="http://www.w3.org/2000/svg" xmlns:xlink="http://www.w3.org/1999/xlink" x="0px" y="0px"
	 viewBox="0 0 100 100" style="enable-background:new 0 0 100 100;" xml:space="preserve">
<style type="text/css">
	.st0{fill:none;stroke:#FFFFFF;stroke-width:2;stroke-linecap:round;stroke-linejoin:round;stroke-miterlimit:10;}
	.st1{fill:none;stroke:#FFFFFF;stroke-width:2;stroke-miterlimit:10;}
</style>
<g>
	<path class="st0" d="M89.9,90.3H10.1c-2.3,0-4.1-1.8-4.1-4.1V6.5c0-2.3,1.8-4.1,4.1-4.1h79.8c2.3,0,4.1,1.8,4.1,4.1v79.8
		C94,88.5,92.2,90.3,89.9,90.3z"/>
	<path class="st0" d="M64,31.8c-1.2-1.2-2.6-2.2-4-3"/>
	<path class="st0" d="M64.7,60.2c1.1-1.2,2.1-2.5,2.9-3.9"/>
	<path class="st0" d="M35.5,60.4c1.3,1.3,2.8,2.5,4.4,3.4"/>
	<path class="st0" d="M35.8,32c-1.3,1.3-2.4,2.7-3.3,4.3"/>
	<path class="st1" d="M70.2,46.3c0-3.6-1-7.1-2.7-10l4.4-4.4c0.8-0.8,0.8-2.1,0-2.9l-4.6-4.6c-0.8-0.8-2.1-0.8-2.9,0L60,28.8
		c-3-1.7-6.4-2.7-10-2.7c-3.6,0-7.1,1-10,2.7l-4.4-4.4c-0.8-0.8-2.1-0.8-2.9,0L28.1,29c-0.8,0.8-0.8,2.1,0,2.9l4.4,4.4
		c-1.7,3-2.7,6.4-2.7,10c0,3.6,1,7.1,2.7,10l-4.3,4.3c-0.8,0.8-0.8,2.1,0,2.9l4.6,4.6c0.8,0.8,2.1,0.8,2.9,0l4.3-4.3
		c3,1.7,6.4,2.7,10,2.7s7.1-1,10-2.7l4.3,4.3c0.8,0.8,2.1,0.8,2.9,0l4.6-4.6c0.8-0.8,0.8-2.1,0-2.9l-4.3-4.3
		C69.2,53.4,70.2,50,70.2,46.3z"/>
	<rect x="15.6" y="11.9" class="st0" width="68.9" height="68.9"/>
	<g>
		<path class="st0" d="M46.5,43.9H43c-0.6,0-1.1-0.5-1.1-1.1v-3.5c0-0.6,0.5-1.1,1.1-1.1h3.5c0.6,0,1.1,0.5,1.1,1.1v3.5
			C47.6,43.4,47.1,43.9,46.5,43.9z"/>
		<path class="st0" d="M57,43.9h-3.5c-0.6,0-1.1-0.5-1.1-1.1v-3.5c0-0.6,0.5-1.1,1.1-1.1H57c0.6,0,1.1,0.5,1.1,1.1v3.5
			C58.1,43.4,57.6,43.9,57,43.9z"/>
		<path class="st0" d="M41.9,53.3v-3.5c0-0.6,0.5-1.1,1.1-1.1h3.5c0.6,0,1.1,0.5,1.1,1.1v3.5c0,0.6-0.5,1.1-1.1,1.1H43
			C42.4,54.4,41.9,53.9,41.9,53.3z"/>
		<path class="st0" d="M52.4,53.3v-3.5c0-0.6,0.5-1.1,1.1-1.1H57c0.6,0,1.1,0.5,1.1,1.1v3.5c0,0.6-0.5,1.1-1.1,1.1h-3.5
			C52.9,54.4,52.4,53.9,52.4,53.3z"/>
	</g>
	<polyline class="st0" points="31.7,94.4 31.7,97.7 15.6,97.7 15.6,94.4 	"/>
	<polyline class="st0" points="84.4,94.4 84.4,97.7 68.3,97.7 68.3,94.4 	"/>
</g>
</svg>
