<?xml version="1.0" encoding="utf-8"?>
<!-- Generator: Adobe Illustrator 22.1.0, SVG Export Plug-In . SVG Version: 6.00 Build 0)  -->
<svg version="1.1" id="Layer_1" xmlns="http://www.w3.org/2000/svg" xmlns:xlink="http://www.w3.org/1999/xlink" x="0px" y="0px"
	 viewBox="0 0 100 100" style="enable-background:new 0 0 100 100;" xml:space="preserve">
<style type="text/css">
	.st0{fill:#FFFFFF;}
</style>
<g>
	<g>
		<path class="st0" d="M76.7,78.1h-5c-0.6,0-1.1-0.5-1.1-1.1s0.5-1.1,1.1-1.1h5c0.6,0,1.1,0.5,1.1,1.1
			C77.8,77.6,77.3,78.1,76.7,78.1z"/>
	</g>
	<g>
		<path class="st0" d="M79.9,65.3h-7.3c-0.6,0-1.1-0.5-1.1-1.1s0.5-1.1,1.1-1.1h7.3c0.6,0,1.1,0.5,1.1,1.1
			C81,64.7,80.5,65.3,79.9,65.3z"/>
	</g>
	<g>
		<path class="st0" d="M82.4,52.3h-8.8c-0.6,0-1.1-0.5-1.1-1.1c0-0.6,0.5-1.1,1.1-1.1h8.8c0.6,0,1.1,0.5,1.1,1.1
			C83.5,51.8,82.9,52.3,82.4,52.3z"/>
	</g>
	<g>
		<path class="st0" d="M27.7,90H8c-0.6,0-1.1-0.5-1.1-1.1V35.5c0-0.6,0.5-1.1,1.1-1.1h19.7c2,0,3.9,1.7,3.9,3.9v48
			C31.5,88.3,29.7,90,27.7,90z M9.1,87.8h18.6c0.9,0,1.7-0.8,1.7-1.7v-48c0-0.9-0.8-1.7-1.7-1.7H9.1V87.8z"/>
	</g>
	<g>
		<path class="st0" d="M76.4,89.8c-24.4,0-45.9-3.7-46.2-3.9c-0.6-0.1-1-0.7-0.9-1.3c0.1-0.6,0.7-1,1.3-0.9c0.2,0,21.5,3.9,45.9,3.9
			c2.7,0,5.6-1.3,5.6-4.8c0-2.7-2.3-4.8-5.4-4.8c-0.6,0-1.1-0.5-1.1-1.1s0.5-1.1,1.1-1.1h2.7c2.9,0,5.4-2.3,5.6-5
			c0.1-1.4-0.4-2.9-1.4-4s-2.4-1.7-3.9-1.7c-0.6,0-1.1-0.5-1.1-1.1c0-0.6,0.5-1.1,1.1-1.1h2.7c2.9,0,5.4-2.3,5.6-5
			c0.1-1.4-0.4-2.9-1.4-4c-1.1-1.1-2.4-1.7-3.9-1.7l0,0c-0.6,0-1.1-0.5-1.1-1.1c0-0.6,0.5-1.1,1.1-1.1h2.7c2.9,0,5.4-2.3,5.6-5
			c0.1-1.4-0.4-2.9-1.4-4c-1.1-1.1-2.4-1.7-3.9-1.7H62c-1.3,0-2.4-0.6-3.2-1.6c-0.8-1-1.1-2.3-0.8-3.6c1.4-6.9,0.7-13.6-2.3-20
			c-1.1-2.2-3.1-2.6-4.7-2.3c-1.4,0.3-3.2,1.6-3.2,4c-0.5,19.3-16.8,24.6-17,24.7c-0.6,0.2-1.2-0.1-1.4-0.7
			c-0.2-0.6,0.1-1.2,0.7-1.4c0.6-0.2,15.1-5,15.4-22.7c0.1-3.4,2.6-5.5,5-6c2.4-0.5,5.6,0.3,7,3.4c3.3,6.9,4.1,14,2.6,21.5
			c-0.1,0.6,0,1.2,0.4,1.7c0.4,0.5,1,0.8,1.6,0.8h23.5c2,0,4.1,0.9,5.5,2.3c1.4,1.6,2.2,3.6,2,5.7c-0.2,3.2-2.6,5.9-5.6,6.7
			c0.2,0.2,0.4,0.4,0.6,0.6c1.4,1.6,2.2,3.6,2,5.7c-0.2,3.2-2.6,5.9-5.6,6.7c0.2,0.2,0.4,0.4,0.6,0.6c1.4,1.6,2.2,3.6,2,5.7
			c-0.2,3.1-2.4,5.8-5.4,6.7c1.4,1.3,2.3,3,2.3,5.2C84.2,87.7,80.3,89.8,76.4,89.8z"/>
	</g>
	<g>
		<path class="st0" d="M19.2,85c-2.6,0-4.9-2.2-4.9-4.9s2.2-4.9,4.9-4.9c2.6,0,4.9,2.2,4.9,4.9S21.9,85,19.2,85z M19.2,77.3
			c-1.4,0-2.7,1.3-2.7,2.7c0,1.4,1.3,2.7,2.7,2.7s2.7-1.3,2.7-2.7C21.9,78.6,20.7,77.3,19.2,77.3z"/>
	</g>
	<g>
		<path class="st0" d="M19.2,90c-0.6,0-1.1-0.5-1.1-1.1v-5c0-0.6,0.5-1.1,1.1-1.1s1.1,0.5,1.1,1.1v5C20.2,89.4,19.8,90,19.2,90z"/>
	</g>
</g>
</svg>
