<?xml version="1.0" encoding="utf-8"?>
<!-- Generator: Adobe Illustrator 22.1.0, SVG Export Plug-In . SVG Version: 6.00 Build 0)  -->
<svg version="1.1" id="Layer_1" xmlns="http://www.w3.org/2000/svg" xmlns:xlink="http://www.w3.org/1999/xlink" x="0px" y="0px"
	 viewBox="0 0 130 130" style="enable-background:new 0 0 130 130;" xml:space="preserve">
<style type="text/css">
	.st0{fill:#20295C;}
</style>
<g>
	<g>
		<path class="st0" d="M41,42h8.6l0,0c-0.5,0.8-0.8,1.2-0.8,1.2h-2.3c0.3,0.4,0.5,0.8,0.7,1.4h2.4c0,0,0,0,0,0
			c-0.6,0.8-0.8,1.2-0.8,1.2h-1.6c0,0.4-0.2,0.9-0.6,1.5c-0.5,0.6-0.9,1-1.4,1.2c-0.8,0.4-1.6,0.6-2.4,0.6l0,0c0,0,1.7,2.1,5.1,6.1
			h-2.3c-3.3-3.9-4.9-5.8-4.9-5.9v-1.2v0c0.3,0,0.7,0,1,0c1.9,0,3.1-0.6,3.5-1.8c0.1-0.2,0.1-0.4,0.1-0.6h-5c0,0,0,0,0,0
			c0.6-0.8,0.8-1.2,0.8-1.2h4l0,0c-0.2-0.5-0.7-0.8-1.4-1.1c-0.5-0.1-0.9-0.2-1.3-0.2h-2.3v0C40.7,42.5,41,42,41,42z"/>
	</g>
	<g>
		<path class="st0" d="M77.5,68.3h8.6l0,0c-0.5,0.8-0.8,1.2-0.8,1.2H83c0.3,0.4,0.5,0.8,0.7,1.4h2.4c0,0,0,0,0,0
			c-0.6,0.8-0.8,1.2-0.8,1.2h-1.6c0,0.4-0.2,0.9-0.6,1.5c-0.5,0.6-0.9,1-1.4,1.2c-0.8,0.4-1.6,0.6-2.4,0.6l0,0c0,0,1.7,2.1,5.1,6.1
			h-2.3c-3.3-3.9-4.9-5.8-4.9-5.9v-1.2v0c0.3,0,0.7,0,1,0c1.9,0,3.1-0.6,3.5-1.8c0.1-0.2,0.1-0.4,0.1-0.6h-5c0,0,0,0,0,0
			c0.6-0.8,0.8-1.2,0.8-1.2h4l0,0c-0.2-0.5-0.7-0.8-1.4-1.1c-0.5-0.1-0.9-0.2-1.3-0.2h-2.3v0C77.3,68.7,77.5,68.3,77.5,68.3z"/>
	</g>
	<path class="st0" d="M109.6,88.4c-1.1-2.7-4.2-4-6.9-2.8L99,87.2c2.3-3.5,3.6-7.6,3.6-11.8c0-11.7-9.5-21.1-21.1-21.1
		c-11.7,0-21.1,9.5-21.1,21.1c0,4.4,1.3,8.5,3.8,12l-8.4-3.9c-2.1-1-4.4-1.5-6.7-1.5h-7.6v-3.5H20v2.3h19.2v27.1H23.9v2.3h17.6v-3.5
		h5.7l18.3,6.1c1.2,0.4,2.5,0.6,3.8,0.6c1.9,0,3.8-0.5,5.6-1.3l31.9-16.7c1.3-0.5,2.3-1.6,2.8-2.9C110.1,91.1,110.1,89.7,109.6,88.4
		z M62.6,75.4c0-10.4,8.5-18.9,18.9-18.9c10.4,0,18.9,8.5,18.9,18.9c0,5.2-2.2,10.3-6,13.8l-10.6,4.7c0-0.3,0.1-0.5,0.1-0.8
		c0-2.7-2.2-4.9-4.8-4.9v0h0c0,0-0.1,0-0.1,0v0H67.6C64.4,84.7,62.6,80.2,62.6,75.4z M105.8,93.3l-32,16.7c-2.3,1.2-5.1,1.4-7.6,0.6
		l-18.5-6.2l-6.3,0V84.3h7.6c2,0,4,0.4,5.8,1.3l10.5,4.9H79c1.4,0,2.6,1.2,2.6,2.7c0,1.5-1.2,2.7-2.7,2.7h-16l-0.2,0
		c-1.5,0.3-4.3,1.5-4.3,4.5h2.3c0-1.6,1.9-2.2,2.4-2.3h16v0c0.8,0,1.6-0.2,2.2-0.6l0,0l22.3-9.9c1.5-0.6,3.3,0.1,4,1.6
		C108.4,91.4,106.6,92.9,105.8,93.3z"/>
	<rect x="28" y="101.9" class="st0" width="2.3" height="2.3"/>
	<rect x="33.3" y="101.9" class="st0" width="2.3" height="2.3"/>
	<path class="st0" d="M45,62.8c7.7,0,14-6.3,14-14c0-7.7-6.3-14-14-14c-7.7,0-14,6.3-14,14C31.1,56.5,37.3,62.8,45,62.8z M45,37.1
		c6.5,0,11.7,5.2,11.7,11.7c0,6.5-5.2,11.7-11.7,11.7c-6.4,0-11.7-5.2-11.7-11.7C33.3,42.4,38.6,37.1,45,37.1z"/>
	<polygon class="st0" points="88.5,41.7 86.9,40.1 83.8,43.2 83.8,34.6 81.6,34.6 81.6,43.2 78.5,40.1 76.9,41.7 82.7,47.5 	"/>
	
		<rect x="81.5" y="30" transform="matrix(1 -1.332385e-03 1.332385e-03 1 -4.133777e-02 0.1102)" class="st0" width="2.3" height="2.3"/>
	
		<rect x="81.5" y="25.4" transform="matrix(1 -1.332385e-03 1.332385e-03 1 -3.533464e-02 0.1102)" class="st0" width="2.3" height="2.3"/>
	<polygon class="st0" points="102.5,32.9 100.9,31.3 97.9,34.4 97.9,25.8 95.6,25.8 95.6,34.4 92.5,31.3 91,32.9 96.8,38.7 	"/>
	
		<rect x="95.6" y="21.2" transform="matrix(1 -1.332385e-03 1.332385e-03 1 -2.959937e-02 0.1289)" class="st0" width="2.3" height="2.3"/>
	
		<rect x="95.6" y="16.6" transform="matrix(1 -1.266508e-03 1.266508e-03 1 -2.243359e-02 0.1225)" class="st0" width="2.3" height="2.3"/>
</g>
</svg>
