<?xml version="1.0" encoding="utf-8"?>
<!-- Generator: Adobe Illustrator 22.0.1, SVG Export Plug-In . SVG Version: 6.00 Build 0)  -->
<svg version="1.1" id="Layer_1" xmlns="http://www.w3.org/2000/svg" xmlns:xlink="http://www.w3.org/1999/xlink" x="0px" y="0px"
	 viewBox="0 0 100 100" style="enable-background:new 0 0 100 100;" xml:space="preserve">
<style type="text/css">
	.st0{fill:#FFFFFF;}
</style>
<g>
	<g>
		<path class="st0" d="M77.2,78.8h-5.1c-0.6,0-1.1-0.5-1.1-1.1c0-0.6,0.5-1.1,1.1-1.1h5.1c0.6,0,1.1,0.5,1.1,1.1
			C78.3,78.3,77.8,78.8,77.2,78.8z"/>
	</g>
	<g>
		<path class="st0" d="M80.5,65.7h-7.4c-0.6,0-1.1-0.5-1.1-1.1c0-0.6,0.5-1.1,1.1-1.1h7.4c0.6,0,1.1,0.5,1.1,1.1
			C81.6,65.2,81.1,65.7,80.5,65.7z"/>
	</g>
	<g>
		<path class="st0" d="M83,52.5h-9c-0.6,0-1.1-0.5-1.1-1.1c0-0.6,0.5-1.1,1.1-1.1h9c0.6,0,1.1,0.5,1.1,1.1
			C84.1,52,83.6,52.5,83,52.5z"/>
	</g>
	<g>
		<path class="st0" d="M27.2,90.9H7.1c-0.6,0-1.1-0.5-1.1-1.1V35.3c0-0.6,0.5-1.1,1.1-1.1h20.1c2.1,0,3.9,1.7,3.9,3.9v49
			C31.1,89.2,29.3,90.9,27.2,90.9z M8.2,88.7h19c0.9,0,1.7-0.8,1.7-1.7v-49c0-0.9-0.8-1.7-1.7-1.7h-19V88.7z"/>
	</g>
	<g>
		<path class="st0" d="M76.9,90.8C52,90.8,30,87,29.8,86.9c-0.6-0.1-1-0.7-0.9-1.3c0.1-0.6,0.7-1,1.3-0.9c0.2,0,22,3.9,46.8,3.9
			c2.8,0,5.7-1.3,5.7-4.9c0-2.8-2.4-4.9-5.5-4.9c-0.6,0-1.1-0.5-1.1-1.1c0-0.6,0.5-1.1,1.1-1.1H80c3,0,5.5-2.3,5.7-5.1
			c0.1-1.5-0.4-3-1.5-4.1c-1.1-1.1-2.5-1.7-4-1.7c-0.6,0-1.1-0.5-1.1-1.1c0-0.6,0.5-1.1,1.1-1.1H83c3,0,5.5-2.3,5.7-5.1
			c0.1-1.5-0.4-3-1.5-4.1c-1.1-1.1-2.5-1.7-4-1.7l0,0c-0.6,0-1.1-0.5-1.1-1.1c0-0.6,0.5-1.1,1.1-1.1l2.8,0c3,0,5.5-2.3,5.7-5.1
			c0.1-1.5-0.4-3-1.5-4.1c-1.1-1.1-2.5-1.7-4-1.7h-24c-1.3,0-2.5-0.6-3.3-1.6c-0.8-1-1.1-2.3-0.8-3.6c1.5-7,0.7-13.9-2.4-20.4
			c-1.1-2.2-3.2-2.7-4.8-2.3c-1.5,0.3-3.3,1.6-3.3,4.1c-0.4,19.7-17.1,25.1-17.3,25.2c-0.6,0.2-1.2-0.1-1.4-0.7
			c-0.2-0.6,0.1-1.2,0.7-1.4c0.6-0.2,15.4-5.1,15.7-23.1c0.1-3.5,2.6-5.6,5.1-6.2c2.5-0.5,5.7,0.3,7.2,3.5c3.4,7,4.2,14.3,2.6,21.9
			c-0.1,0.6,0,1.2,0.4,1.7c0.4,0.5,1,0.8,1.6,0.8h24c2.1,0,4.2,0.9,5.6,2.4c1.5,1.6,2.2,3.6,2.1,5.8c-0.2,3.3-2.6,6-5.7,6.9
			c0.2,0.2,0.4,0.4,0.6,0.6c1.5,1.6,2.2,3.6,2.1,5.8c-0.2,3.3-2.6,6-5.7,6.9c0.2,0.2,0.4,0.4,0.6,0.6c1.5,1.6,2.2,3.6,2.1,5.8
			c-0.2,3.2-2.5,5.9-5.5,6.8c1.5,1.3,2.4,3.1,2.4,5.3C84.8,88.6,80.9,90.8,76.9,90.8z"/>
	</g>
	<g>
		<path class="st0" d="M18.5,85.8c-2.7,0-5-2.2-5-5s2.2-5,5-5c2.7,0,5,2.2,5,5S21.3,85.8,18.5,85.8z M18.5,78
			c-1.5,0-2.8,1.3-2.8,2.8c0,1.5,1.3,2.8,2.8,2.8c1.5,0,2.8-1.3,2.8-2.8C21.3,79.3,20.1,78,18.5,78z"/>
	</g>
	<g>
		<path class="st0" d="M18.5,90.9c-0.6,0-1.1-0.5-1.1-1.1v-5.1c0-0.6,0.5-1.1,1.1-1.1c0.6,0,1.1,0.5,1.1,1.1v5.1
			C19.6,90.4,19.1,90.9,18.5,90.9z"/>
	</g>
</g>
</svg>
