<?xml version="1.0" encoding="utf-8"?>
<!-- Generator: Adobe Illustrator 22.0.1, SVG Export Plug-In . SVG Version: 6.00 Build 0)  -->
<svg version="1.1" id="Layer_1" xmlns="http://www.w3.org/2000/svg" xmlns:xlink="http://www.w3.org/1999/xlink" x="0px" y="0px"
	 viewBox="0 0 100 100" style="enable-background:new 0 0 100 100;" xml:space="preserve">
<style type="text/css">
	.st0{fill:none;stroke:#FFFFFF;stroke-width:2;stroke-miterlimit:10;}
	.st1{fill:none;stroke:#FFFFFF;stroke-width:2;stroke-linecap:round;stroke-miterlimit:10;}
</style>
<g>
	<path class="st0" d="M35.8,16.3c0-0.3-0.2-0.5-0.5-0.5c-0.3,0-0.5,0.2-0.5,0.5c0,0.3,0.2,0.5,0.5,0.5
		C35.6,16.8,35.8,16.6,35.8,16.3z"/>
	<path class="st0" d="M90.3,17c0-0.3-0.2-0.5-0.5-0.5c-0.3,0-0.5,0.2-0.5,0.5c0,0.3,0.2,0.5,0.5,0.5C90.1,17.4,90.3,17.2,90.3,17z"
		/>
	<line class="st1" x1="3" y1="90.8" x2="94.9" y2="90.8"/>
	<rect x="3" y="50" class="st0" width="10.1" height="32.3"/>
	<rect x="84.8" y="33.2" class="st0" width="10.1" height="49"/>
	<rect x="30.3" y="32.6" class="st0" width="10.1" height="49.6"/>
	<ellipse transform="matrix(0.3807 -0.9247 0.9247 0.3807 6.7531 42.7791)" class="st0" cx="35.3" cy="16.3" rx="7.2" ry="7.2"/>
	<ellipse transform="matrix(0.9872 -0.1598 0.1598 0.9872 -1.5559 14.5718)" class="st0" cx="89.8" cy="17" rx="7.2" ry="7.2"/>
	<rect x="57.5" y="48.1" class="st0" width="10.1" height="34.1"/>
	<circle class="st0" cx="62.6" cy="31.9" r="4.3"/>
	<path class="st0" d="M12.3,33.7c0-2.4-1.9-4.3-4.3-4.3c-2.4,0-4.3,1.9-4.3,4.3C3.7,36.1,5.7,38,8,38C10.4,38,12.3,36.1,12.3,33.7z"
		/>
	<line class="st0" x1="11.3" y1="30.9" x2="29.2" y2="20"/>
	<line class="st0" x1="41.9" y1="19.1" x2="58.3" y2="29.4"/>
	<line class="st0" x1="66.4" y1="29.8" x2="83.4" y2="20"/>
</g>
</svg>
