<?xml version="1.0" encoding="utf-8"?>
<!-- Generator: Adobe Illustrator 22.1.0, SVG Export Plug-In . SVG Version: 6.00 Build 0)  -->
<svg version="1.1" id="Layer_1" xmlns="http://www.w3.org/2000/svg" xmlns:xlink="http://www.w3.org/1999/xlink" x="0px" y="0px"
	 viewBox="0 0 130 130" style="enable-background:new 0 0 130 130;" xml:space="preserve">
<style type="text/css">
	.st0{fill-rule:evenodd;clip-rule:evenodd;fill:#20295C;}
</style>
<g>
	<path class="st0" d="M29,76.6C33.6,90,45.5,100,60,101.9c0.9-1.8,2.8-3,5-3c3.1,0,5.7,2.5,5.7,5.7c0,3.1-2.5,5.7-5.7,5.7
		c-2.4,0-4.5-1.5-5.3-3.7C42.8,104.4,29,92.5,24.2,76.6h-1.9h-3.9c-3,0-5.4-2.4-5.4-5.4V57.3c0-3,2.4-5.4,5.4-5.4h3.9
		C27.7,33.3,44.7,19.8,65,19.8c20.3,0,37.3,13.6,42.7,32.1h3.9c3,0,5.4,2.4,5.4,5.4v13.9c0,3-2.4,5.4-5.4,5.4h-3.9h-2.9h-2.3H101
		c1.3-3.9,2.1-8,2.1-12.4c0-21-17-38-38-38s-38,17-38,38C27,68.6,27.7,72.7,29,76.6"/>
	<path class="st0" d="M65,90.6c-14.5,0-26.3-11.8-26.3-26.3v0c0-14.5,11.8-26.3,26.3-26.3c14.5,0,26.3,11.8,26.3,26.3v0
		c0,0.2,0,0.4,0,0.6l0,0.2c0,0.2,0,0.3,0,0.5l0,0.2c0,0.2,0,0.4,0,0.6l0,0.1c0,0.2,0,0.3,0,0.5l0,0.2c0,0.2,0,0.3-0.1,0.5l0,0.2
		c0,0.2-0.1,0.4-0.1,0.6l0,0.2c0,0.1,0,0.3-0.1,0.4l0,0.2c0,0.2-0.1,0.3-0.1,0.5l0,0.1c0,0.2-0.1,0.4-0.1,0.5l0,0.2
		c0,0.1-0.1,0.2-0.1,0.4l-0.1,0.2c0,0.2-0.1,0.4-0.1,0.5l0,0.1c0,0.1-0.1,0.3-0.1,0.4l-0.1,0.2c0,0.1-0.1,0.2-0.1,0.4l-0.1,0.2
		c-0.1,0.2-0.1,0.3-0.2,0.5l-0.1,0.2c0,0.1-0.1,0.2-0.1,0.3L89.5,74c0,0.1-0.1,0.2-0.1,0.3l-0.1,0.2c-0.1,0.1-0.1,0.3-0.2,0.4
		l-0.1,0.2l-0.1,0.3l-0.1,0.2c0,0.1-0.1,0.2-0.1,0.3c-0.1,0.1-0.1,0.3-0.2,0.4c0,0.1-0.1,0.2-0.1,0.3c0,0.1-0.1,0.2-0.1,0.3L88,77.1
		c-0.1,0.1-0.1,0.2-0.2,0.3l-0.1,0.1c-0.1,0.2-0.2,0.4-0.3,0.5l-0.1,0.2c-0.1,0.1-0.1,0.2-0.2,0.3L87,78.7c-0.2,0.3-0.4,0.6-0.6,0.9
		l2.2,8.2l-8.2-2.2c-1.4,1-2.9,1.9-4.4,2.6v0C72.6,89.7,68.9,90.6,65,90.6 M96.1,95.3l-4-14.9l0,0l0.1-0.2c0.1-0.1,0.2-0.3,0.3-0.4
		l0.1-0.2c0.1-0.1,0.1-0.3,0.2-0.4l0.1-0.3c0.1-0.1,0.1-0.3,0.2-0.4c0.1-0.1,0.1-0.2,0.2-0.3c0.1-0.1,0.1-0.3,0.2-0.4
		c0.1-0.1,0.1-0.2,0.2-0.3c0-0.1,0.1-0.2,0.1-0.3c0.1-0.1,0.1-0.3,0.2-0.4c0-0.1,0.1-0.2,0.1-0.3c0.1-0.1,0.1-0.2,0.2-0.4
		c0-0.1,0.1-0.2,0.1-0.3c0.1-0.1,0.1-0.3,0.2-0.4l0.1-0.3c0.1-0.2,0.1-0.3,0.2-0.5l0.1-0.2c0.1-0.2,0.1-0.3,0.2-0.5l0.1-0.2
		c0.1-0.2,0.1-0.4,0.2-0.5l0.1-0.2c0.1-0.2,0.1-0.4,0.2-0.6l0-0.2c0.1-0.2,0.1-0.4,0.1-0.6l0-0.2c0-0.2,0.1-0.4,0.1-0.6l0-0.2
		c0-0.2,0.1-0.4,0.1-0.6l0-0.1c0-0.2,0.1-0.5,0.1-0.7l0-0.1c0-0.2,0.1-0.5,0.1-0.7l0-0.1c0-0.2,0.1-0.5,0.1-0.7l0-0.1
		c0-0.2,0-0.5,0.1-0.7l0,0c0-0.3,0-0.5,0-0.8l0,0c0-0.3,0-0.5,0-0.8l0,0l0,0c0-0.3,0-0.5,0-0.8v0c0-17.4-14.1-31.6-31.6-31.6
		c-17.4,0-31.6,14.1-31.6,31.6v0c0,17.4,14.1,31.6,31.6,31.6c3.9,0,7.6-0.7,11-2c0.1-0.1,0.3-0.1,0.4-0.2l0.3-0.1
		c0.1-0.1,0.3-0.1,0.4-0.2l0.3-0.1c0.1-0.1,0.3-0.1,0.4-0.2c0.1,0,0.2-0.1,0.3-0.1c0.1-0.1,0.3-0.1,0.4-0.2l0.3-0.2
		c0.1-0.1,0.2-0.1,0.3-0.2c0.1-0.1,0.2-0.1,0.3-0.2c0.1-0.1,0.2-0.1,0.3-0.2c0.1-0.1,0.2-0.1,0.4-0.2l0.3-0.2
		c0.1-0.1,0.3-0.1,0.4-0.2c0.1-0.1,0.2-0.1,0.3-0.2l0,0L96.1,95.3z"/>
	<path class="st0" d="M50.5,58.8c3,0,5.5,2.4,5.5,5.5c0,3-2.4,5.5-5.5,5.5c-3,0-5.5-2.4-5.5-5.5C45.1,61.2,47.5,58.8,50.5,58.8
		 M79.5,58.8c3,0,5.5,2.4,5.5,5.5c0,3-2.4,5.5-5.5,5.5c-3,0-5.5-2.4-5.5-5.5C74,61.2,76.5,58.8,79.5,58.8z M65,58.8
		c3,0,5.5,2.4,5.5,5.5c0,3-2.4,5.5-5.5,5.5c-3,0-5.5-2.4-5.5-5.5C59.5,61.2,62,58.8,65,58.8z"/>
</g>
</svg>
