<?xml version="1.0" encoding="utf-8"?>
<!-- Generator: Adobe Illustrator 22.1.0, SVG Export Plug-In . SVG Version: 6.00 Build 0)  -->
<svg version="1.1" id="Layer_1" xmlns="http://www.w3.org/2000/svg" xmlns:xlink="http://www.w3.org/1999/xlink" x="0px" y="0px"
	 viewBox="0 0 130 130" style="enable-background:new 0 0 130 130;" xml:space="preserve">
<style type="text/css">
	.st0{fill:#202E5C;}
</style>
<g id="NewGroup44-0">
	<g>
		<polygon class="st0" points="88.4,70 88.4,70 88.4,70 88.4,70 		"/>
		<polygon class="st0" points="92.2,94.8 92.2,94.8 92.2,94.8 92.2,94.8 		"/>
		<polygon class="st0" points="56.9,69 56.9,69 56.9,69 56.9,69 		"/>
		<path class="st0" d="M90.4,91c0,0.1,0,0.2,0,0.3c0,0.2-0.1,0.4-0.2,0.5l0,0.1c-0.1,0.1-0.1,0.2-0.2,0.2l0,0
			c-0.1,0.1-0.2,0.1-0.3,0.2c-0.1,0-0.2,0.1-0.4,0.1H55.5c-0.2,0-0.3,0-0.4-0.1c-0.2-0.1-0.4-0.2-0.5-0.4c-0.1-0.2-0.2-0.4-0.2-0.6
			c0-0.1,0-0.2,0-0.3l0,0l5.4-20.1l0,0c0-0.1,0.1-0.2,0.1-0.2l0,0c0.1-0.2,0.2-0.3,0.4-0.4c0.2-0.1,0.4-0.2,0.6-0.2H84
			c0.2,0,0.4,0.1,0.6,0.2c0.2,0.1,0.3,0.3,0.4,0.5l0,0c0,0,0,0.1,0.1,0.2l0,0l4.4,16.5L90.4,91L90.4,91z M18.1,87.3
			c-0.2-0.1-0.4-0.2-0.5-0.4c-0.1-0.2-0.2-0.4-0.2-0.6c0-0.1,0-0.2,0-0.3l0,0l5.4-20.1l0,0c0-0.1,0.1-0.2,0.1-0.2l0,0
			c0.1-0.2,0.2-0.3,0.4-0.4c0.2-0.1,0.4-0.2,0.6-0.2H47c0.2,0,0.3,0,0.5,0.1c0.1,0.1,0.3,0.2,0.4,0.3c0,0,0,0,0,0
			c0,0.1,0.1,0.1,0.1,0.2l0,0c0,0,0,0.1,0.1,0.2l0,0l4.4,16.5v0l0.4,1.3l-1,3.6H18.5C18.4,87.4,18.2,87.4,18.1,87.3L18.1,87.3z
			 M64.9,37.6c0.4,0,0.7,0.1,1.1,0.2L48.9,62.1c-0.6-0.3-1.2-0.4-1.9-0.4H28.3L53,38.3c0.5-0.4,1.1-0.6,1.7-0.6H64.9L64.9,37.6z
			 M75.6,50.6c0,0.4-0.1,0.9-0.4,1.3l0,0l-0.8,1.3L60.2,66.7c-0.6,0.1-1.1,0.3-1.6,0.6c-0.7,0.4-1.3,1-1.7,1.7
			c-0.2,0.3-0.3,0.6-0.4,1l0,0l-1.9,7.1L51.4,65l0,0c0-0.1-0.1-0.3-0.1-0.4l17.1-24.2l6.7,8.6C75.4,49.6,75.6,50.1,75.6,50.6
			L75.6,50.6z M101.9,42.6c0.4,0,0.7,0.1,1.1,0.2L85.8,67.1c-0.6-0.3-1.2-0.4-1.9-0.4H65.3l24.7-23.4c0.5-0.4,1.1-0.6,1.7-0.6H101.9
			L101.9,42.6z M114.7,52l-8.1-10.5c0,0,0,0,0-0.1c-0.6-0.7-1.3-1.3-2.1-1.7c-0.8-0.4-1.7-0.6-2.6-0.6H91.6c-1.5,0-2.9,0.5-4,1.5
			l0,0l0,0l-8.8,8.3c-0.2-0.7-0.6-1.5-1-2.1l-8.1-10.5c0,0,0,0,0,0l0,0l0,0c-0.6-0.7-1.3-1.3-2.1-1.7c-0.8-0.4-1.7-0.6-2.6-0.6H54.7
			c-1.5,0-2.9,0.5-4,1.5l0,0l0,0l-27.4,26c-0.6,0.1-1.1,0.3-1.6,0.6c-0.7,0.4-1.3,1-1.6,1.7c-0.2,0.3-0.3,0.6-0.4,1l-5.4,20.1l0,0
			c-0.1,0.4-0.2,0.8-0.2,1.2c0,0.6,0.1,1.2,0.3,1.7c0.3,0.8,0.9,1.5,1.6,2c0.4,0.2,0.8,0.4,1.2,0.6c0.4,0.1,0.9,0.2,1.4,0.2H51
			c0,0.2,0,0.3,0,0.5c0,0.6,0.1,1.2,0.3,1.7c0.3,0.8,0.9,1.5,1.6,2c0.4,0.2,0.8,0.4,1.2,0.6c0.4,0.1,0.9,0.2,1.4,0.2h33.9
			c0.5,0,1.1-0.1,1.5-0.3c0.5-0.2,0.9-0.4,1.3-0.7c0.4-0.3,0.7-0.6,0.9-1l0,0l0.1-0.1l0,0L104,76.6c0.5-0.8,0.3-1.9-0.5-2.4
			c-0.8-0.5-1.9-0.3-2.4,0.5l-8,12.7l-0.2-0.9L88.4,70c0-0.1-0.1-0.3-0.1-0.4l17.1-24.2l6.7,8.6c0.4,0.5,0.5,1,0.5,1.6
			c0,0.4-0.1,0.9-0.4,1.3l0,0l-4,6.4c-0.5,0.8-0.3,1.9,0.5,2.4c0.8,0.5,1.9,0.3,2.4-0.5l4-6.4l0,0c0,0,0-0.1,0.1-0.1l0,0
			c0,0,0,0,0,0c0,0,0,0,0,0l0,0c0.5-0.9,0.8-2,0.8-3C116,54.3,115.6,53,114.7,52L114.7,52z"/>
		<path class="st0" d="M15.3,41.7c-0.7,0.7-0.7,1.7-0.1,2.4l6.6,7c0.7,0.7,1.7,0.7,2.4,0.1c0.7-0.7,0.7-1.7,0.1-2.4l-6.6-7
			C17.1,41.1,16,41.1,15.3,41.7L15.3,41.7z"/>
		<path class="st0" d="M27.1,36.7v9.6c0,1,0.8,1.7,1.7,1.7c1,0,1.7-0.8,1.7-1.7v-9.6c0-1-0.8-1.7-1.7-1.7
			C27.9,35,27.1,35.8,27.1,36.7L27.1,36.7z"/>
		<polygon class="st0" points="20,64 20,64 20,64 20,64 		"/>
		<polygon class="st0" points="19.6,65 19.6,65 19.6,65 19.6,65 		"/>
	</g>
</g>
</svg>
