<?xml version="1.0" encoding="utf-8"?>
<!-- Generator: Adobe Illustrator 22.0.1, SVG Export Plug-In . SVG Version: 6.00 Build 0)  -->
<svg version="1.1" id="Layer_1" xmlns="http://www.w3.org/2000/svg" xmlns:xlink="http://www.w3.org/1999/xlink" x="0px" y="0px"
	 viewBox="0 0 100 100" style="enable-background:new 0 0 100 100;" xml:space="preserve">
<style type="text/css">
	.st0{fill:none;stroke:#FEFFFF;stroke-width:2;stroke-linecap:round;stroke-linejoin:round;stroke-miterlimit:10;}
	.st1{fill:none;stroke:#FEFFFF;stroke-width:2;stroke-linecap:round;stroke-miterlimit:10;}
</style>
<g>
	<line class="st0" x1="12.5" y1="11.4" x2="87.5" y2="11.4"/>
	<line class="st0" x1="87.5" y1="19.1" x2="12.5" y2="19.1"/>
	<line class="st0" x1="8.7" y1="21.4" x2="8.7" y2="9.1"/>
	<path class="st0" d="M8.7,11.4H5.8c-2.1,0-3.8,1.7-3.8,3.8l0,0c0,2.1,1.7,3.8,3.8,3.8h2.8"/>
	<line class="st0" x1="91.3" y1="21.4" x2="91.3" y2="9.1"/>
	<path class="st0" d="M91.3,11.4h2.8c2.1,0,3.8,1.7,3.8,3.8l0,0c0,2.1-1.7,3.8-3.8,3.8h-2.8"/>
	<polyline class="st0" points="87.5,19.1 87.5,77.3 12.5,77.3 12.5,19.1 	"/>
	<path class="st0" d="M53.3,87.6c0-1.8-1.5-3.3-3.3-3.3c-1.8,0-3.3,1.5-3.3,3.3c0,1.8,1.5,3.3,3.3,3.3
		C51.8,90.9,53.3,89.4,53.3,87.6z"/>
	<line class="st0" x1="50" y1="84.3" x2="50" y2="77.3"/>
	<g>
		<polyline class="st1" points="28.8,37.9 28.8,64.8 22.9,64.8 22.9,37.9 		"/>
		<polyline class="st1" points="44.9,50.3 44.9,64.8 39,64.8 39,50.3 		"/>
		<polyline class="st1" points="61,37.9 61,64.8 55.1,64.8 55.1,37.9 		"/>
		<polyline class="st1" points="77.1,48.2 77.1,64.8 71.2,64.8 71.2,48.2 		"/>
		<polyline class="st0" points="25.9,28.1 42,40.5 58,28.1 74.1,38.4 		"/>
	</g>
</g>
</svg>
