<?xml version="1.0" encoding="utf-8"?>
<!-- Generator: Adobe Illustrator 22.0.1, SVG Export Plug-In . SVG Version: 6.00 Build 0)  -->
<svg version="1.1" id="Layer_1" xmlns="http://www.w3.org/2000/svg" xmlns:xlink="http://www.w3.org/1999/xlink" x="0px" y="0px"
	 viewBox="0 0 130 130" style="enable-background:new 0 0 130 130;" xml:space="preserve">
<style type="text/css">
	.st0{fill:none;stroke:#212E5C;stroke-width:3;stroke-miterlimit:10;}
	.st1{fill:#212E5C;}
</style>
<path class="st0" d="M55,110.1c-3.9,0.9-8.1,1.3-12.6,1.3"/>
<path class="st0" d="M42.5,111.4C23.4,111.4,8,102.2,8,84.1C8,71,22.6,53.8,37.7,39.5c0,0-9.9-12.4-11.1-17.8
	c8.6-7,18.5,0.4,29.7-1.3c1.2,4.3-8.7,19.1-8.7,19.1c9.4,8.9,18.1,20,23.8,29.8"/>
<line class="st0" x1="32.8" y1="39.5" x2="52.6" y2="39.5"/>
<rect x="62.5" y="76.7" class="st0" width="19.8" height="34.7"/>
<rect x="82.3" y="44.4" class="st0" width="19.8" height="66.9"/>
<rect x="102.2" y="64.3" class="st0" width="19.8" height="47.1"/>
<g>
	<path class="st1" d="M33.8,65h17v0c-1,1.5-1.6,2.4-1.7,2.5h-4.5c0.6,0.7,1.1,1.6,1.3,2.7h4.9c0.1,0,0.1,0,0.1,0.1
		c-1.1,1.6-1.6,2.4-1.7,2.4H46c-0.1,0.8-0.5,1.8-1.2,3c-1,1.2-1.9,2-2.8,2.3c-1.7,0.8-3.2,1.2-4.7,1.2v0c0,0.1,3.4,4.2,10.2,12.2H43
		c-6.7-7.8-10-11.6-10-11.7v-2.4l0-0.1c0.6,0.1,1.3,0.1,2.1,0.1c3.7,0,6-1.2,7-3.6c0.1-0.4,0.2-0.7,0.2-1.1H32.2c0,0-0.1,0-0.1-0.1
		c1.1-1.6,1.7-2.4,1.7-2.4h8v0c-0.5-0.9-1.4-1.7-2.7-2.2c-0.9-0.3-1.8-0.5-2.5-0.5h-4.5v-0.1C33.2,65.8,33.8,65,33.8,65z"/>
</g>
</svg>
