<?xml version="1.0" encoding="utf-8"?>
<!-- Generator: Adobe Illustrator 22.0.1, SVG Export Plug-In . SVG Version: 6.00 Build 0)  -->
<svg version="1.1" id="Layer_1" xmlns="http://www.w3.org/2000/svg" xmlns:xlink="http://www.w3.org/1999/xlink" x="0px" y="0px"
	 viewBox="0 0 130 130" style="enable-background:new 0 0 130 130;" xml:space="preserve">
<style type="text/css">
	.st0{fill:#212B5C;}
</style>
<g>
	<g>
		<g>
			<g>
				<g>
					<path class="st0" d="M65,31c-6.6,0-12-5.4-12-12S58.4,7,65,7s12,5.4,12,12S71.6,31,65,31z M65,11c-4.5,0-8.1,3.6-8.1,8.1
						s3.6,8.1,8.1,8.1s8.1-3.6,8.1-8.1S69.5,11,65,11z"/>
				</g>
				<g>
					<path class="st0" d="M65,123c-6.6,0-12-5.4-12-12c0-6.6,5.4-12,12-12s12,5.4,12,12S71.6,123,65,123z M65,102.9
						c-4.5,0-8.1,3.6-8.1,8.1s3.6,8.1,8.1,8.1s8.1-3.6,8.1-8.1S69.5,102.9,65,102.9z"/>
				</g>
			</g>
			<g>
				<g>
					<path class="st0" d="M111,77c-6.6,0-12-5.4-12-12s5.4-12,12-12c6.6,0,12,5.4,12,12S117.6,77,111,77z M111,56.9
						c-4.5,0-8.1,3.6-8.1,8.1s3.6,8.1,8.1,8.1s8-3.6,8-8.1S115.4,56.9,111,56.9z"/>
				</g>
				<g>
					<path class="st0" d="M19,77c-6.5,0-12-5.3-12-12s5.4-12,12-12s12,5.4,12,12S25.6,77,19,77z M19,56.9c-4.5,0-8.1,3.6-8.1,8.1
						s3.6,8.1,8.1,8.1s8.1-3.6,8.1-8.1S23.4,56.9,19,56.9z"/>
				</g>
			</g>
		</g>
		<g>
			<path class="st0" d="M97.5,42.3c-2.7,0-5.1-1-6.9-2.9c-1.8-1.8-2.9-4.4-2.9-6.9c0-2.7,1-5.1,2.9-6.9c1.8-1.8,4.3-2.9,6.9-2.9
				c2.7,0,5.1,1,6.9,2.9c3.9,3.9,3.9,10,0,13.9C102.6,41.3,100.2,42.3,97.5,42.3z M97.5,26.7c-1.6,0-3,0.6-4.1,1.7s-1.7,2.5-1.7,4.1
				c0,1.6,0.6,3,1.7,4.1c1.1,1.1,2.5,1.7,4.1,1.7c1.6,0,3-0.6,4.1-1.7c2.3-2.3,2.3-5.9,0-8.2C100.5,27.3,99.1,26.7,97.5,26.7z"/>
		</g>
		<g>
			<path class="st0" d="M32.5,107.3c-2.7,0-5.1-1-6.9-2.9c-1.8-1.8-2.9-4.3-2.9-6.9c0-2.7,1-5.1,2.9-6.9c1.8-1.8,4.4-2.9,6.9-2.9
				c2.7,0,5.1,1,6.9,2.9c1.8,1.8,2.9,4.3,2.9,6.9c0,2.7-1,5.1-2.9,6.9C37.6,106.3,35.2,107.3,32.5,107.3z M32.5,91.7
				c-1.6,0-3,0.6-4.1,1.7s-1.7,2.5-1.7,4.1c0,1.6,0.6,3,1.7,4.1s2.5,1.7,4.1,1.7c1.6,0,3-0.6,4.1-1.7c1.1-1.1,1.7-2.5,1.7-4.1
				c0-1.6-0.6-3-1.7-4.1C35.5,92.3,34.1,91.7,32.5,91.7z"/>
		</g>
		<g>
			<path class="st0" d="M97.5,107.3c-2.7,0-5.1-1-6.9-2.9c-1.8-1.8-2.9-4.3-2.9-6.9c0-2.7,1-5.1,2.9-6.9c1.8-1.8,4.3-2.9,6.9-2.9
				c2.7,0,5.1,1,6.9,2.9c3.9,3.9,3.9,10,0,13.9C102.6,106.3,100.2,107.3,97.5,107.3z M97.5,91.7c-1.6,0-3,0.6-4.1,1.7
				s-1.7,2.5-1.7,4.1c0,1.6,0.6,3,1.7,4.1s2.5,1.7,4.1,1.7c1.6,0,3-0.6,4.1-1.7c2.3-2.3,2.3-5.9,0-8.2
				C100.5,92.3,99.1,91.7,97.5,91.7z"/>
		</g>
		<g>
			<path class="st0" d="M32.5,42.3c-2.7,0-5.1-1-6.9-2.9c-1.8-1.8-2.9-4.4-2.9-6.9c0-2.7,1-5.1,2.9-6.9c1.8-1.8,4.4-2.9,6.9-2.9
				c2.7,0,5.1,1,6.9,2.9c1.8,1.8,2.9,4.4,2.9,6.9c0,2.7-1,5.1-2.9,6.9C37.6,41.3,35.2,42.3,32.5,42.3z M32.5,26.7
				c-1.6,0-3,0.6-4.1,1.7s-1.7,2.5-1.7,4.1c0,1.6,0.6,3,1.7,4.1c1.1,1.1,2.5,1.7,4.1,1.7c1.6,0,3-0.6,4.1-1.7
				c1.1-1.1,1.7-2.5,1.7-4.1c0-1.6-0.6-3-1.7-4.1C35.5,27.3,34.1,26.7,32.5,26.7z"/>
		</g>
		<g>
			<g>
				<path class="st0" d="M91.9,65v1.9h-4V65c0-1.2-0.1-2.5-0.2-3.7c-0.1-0.5-0.1-1-0.2-1.5c-0.1-0.5-0.2-0.8-0.4-1.2v-0.1
					C84.9,51,79.3,45.3,71.8,43h-0.1v-4.1l1.3,0.4c8.8,2.7,15.5,9.5,18,18.2c0.1,0.4,0.2,0.7,0.2,1c0,0.1,0.1,0.2,0.1,0.4
					c0.1,0.5,0.2,1.1,0.4,1.7c0.1,0.7,0.2,1.6,0.2,2.4C91.9,63.7,91.9,64.4,91.9,65z"/>
			</g>
			<g>
				<path class="st0" d="M58.5,87.1v4.1l-1.3-0.4c-2.7-0.8-5.2-2.1-7.4-3.5c-0.5-0.2-0.8-0.6-1.2-0.8c-4.3-3.3-7.5-7.9-9.2-13.2
					c-0.1-0.5-0.4-1.1-0.5-1.7c0-0.1-0.1-0.2-0.1-0.4c-0.1-0.6-0.2-1.2-0.4-1.7c-0.1-0.8-0.2-1.6-0.2-2.4c0-0.7-0.1-1.3-0.1-1.9
					v-1.9h4V65c0,1.2,0.1,2.5,0.2,3.7c0.1,0.5,0.2,1,0.2,1.4c0.1,0.5,0.2,0.8,0.4,1.2c0,0.1,0.1,0.2,0.1,0.5
					c0.8,2.7,2.1,5.1,3.7,7.1c1.3,1.8,3,3.3,4.8,4.6c2.1,1.4,4.2,2.5,6.6,3.3L58.5,87.1z"/>
			</g>
			<g>
				<path class="st0" d="M66.9,38.1v4H65c-1.2,0-2.5,0.1-3.7,0.4c-0.5,0.1-1,0.2-1.6,0.2c-0.4,0.1-0.8,0.2-1.2,0.4h-0.1
					c-7.5,2.3-13.2,8.1-15.3,15.5h-4.1l0.2-1c2.5-8.8,9.3-15.6,18-18.2c0.5-0.1,0.8-0.2,1.3-0.4c0.1,0,0.2-0.1,0.4-0.1
					c0.6-0.1,1.2-0.2,1.8-0.4c0.7-0.1,1.6-0.2,2.4-0.2c0.6,0,1.3-0.1,1.9-0.1C65,38.1,66.9,38.1,66.9,38.1z"/>
			</g>
			<g>
				<path class="st0" d="M91.2,71.5l-0.5,1.7c-1.7,5.3-5,9.9-9.3,13.2c-0.4,0.2-0.8,0.6-1.2,0.8c-2.2,1.6-4.7,2.8-7.4,3.5
					c-0.5,0.1-0.8,0.2-1.3,0.4c-0.1,0-0.2,0.1-0.4,0.1c-0.6,0.1-1.2,0.2-1.8,0.4c-0.7,0.1-1.6,0.2-2.4,0.2c-0.7,0-1.3,0.1-1.9,0.1
					h-1.9v-4H65c1.2,0,2.5-0.1,3.7-0.2c0.5-0.1,1-0.2,1.4-0.2c0.5-0.1,0.8-0.2,1.3-0.4c0,0,0.1,0,0.2,0c2.4-0.7,4.7-1.8,6.6-3.3
					c1.8-1.3,3.5-2.9,4.8-4.6c1.7-2.2,2.9-4.5,3.7-7.1l0.1-0.5h4.1V71.5z"/>
			</g>
			<g>
				<rect x="88" y="63.1" class="st0" width="15" height="4"/>
			</g>
			<g>
				<rect x="27.1" y="63.1" class="st0" width="15" height="4"/>
			</g>
			<g>
				<rect x="63.1" y="27.1" class="st0" width="4" height="15"/>
			</g>
			<g>
				<rect x="63.1" y="88" class="st0" width="4" height="15"/>
			</g>
			<g>
				<g>
					<rect x="85.1" y="38.9" transform="matrix(0.7072 -0.707 0.707 0.7072 -2.8234 74.9332)" class="st0" width="7.9" height="4"/>
				</g>
				<g>

						<rect x="37" y="87.1" transform="matrix(0.7071 -0.7071 0.7071 0.7071 -51.0302 55.0531)" class="st0" width="7.9" height="4"/>
				</g>
			</g>
			<g>
				<g>
					<rect x="38.9" y="37" transform="matrix(0.7072 -0.7071 0.7071 0.7072 -16.9769 40.892)" class="st0" width="4" height="7.9"/>
				</g>
				<g>

						<rect x="87.1" y="85.1" transform="matrix(0.7071 -0.7071 0.7071 0.7071 -36.8704 89.1055)" class="st0" width="4" height="7.9"/>
				</g>
			</g>
		</g>
	</g>
	<g>
		<path class="st0" d="M58.6,55.3H71l0,0c-0.7,1.1-1.1,1.7-1.2,1.8h-3.3c0.5,0.5,0.7,1.2,1,1.9H71h0.1c-0.8,1.2-1.2,1.8-1.2,1.8
			h-2.5c0,0.6-0.4,1.3-0.8,2.2c-0.7,0.8-1.3,1.4-2.1,1.7c-1.2,0.6-2.3,0.8-3.5,0.8l0,0c0,0.1,2.5,3,7.5,8.8h-3.3
			C60.4,68.7,58,66,58,66v-1.7v-0.1c0.5,0,1,0.1,1.5,0.1c2.7,0,4.3-0.8,5.1-2.7c0.1-0.2,0.1-0.5,0.1-0.8h-7.4l0,0
			c0.8-1.2,1.2-1.8,1.2-1.8h5.8l0,0c-0.4-0.7-1-1.2-1.9-1.6C61.6,57.1,61,57,60.5,57h-3.3v-0.1C58.2,55.9,58.6,55.3,58.6,55.3z"/>
	</g>
</g>
</svg>
