<?xml version="1.0" encoding="utf-8"?>
<!-- Generator: Adobe Illustrator 22.0.1, SVG Export Plug-In . SVG Version: 6.00 Build 0)  -->
<svg version="1.1" id="Layer_1" xmlns="http://www.w3.org/2000/svg" xmlns:xlink="http://www.w3.org/1999/xlink" x="0px" y="0px"
	 viewBox="0 0 100 100" style="enable-background:new 0 0 100 100;" xml:space="preserve">
<style type="text/css">
	.st0{fill:none;stroke:#FFFFFF;stroke-width:2;stroke-miterlimit:10;}
</style>
<g>
	<path class="st0" d="M67,20.4C60.1,13.6,50.6,9.3,40.1,9.3C19,9.3,2,26.3,2,47.4c0,21,17,38.1,38.1,38.1c21,0,38.1-17,38.1-38.1
		c0-2.8-0.3-5.6-0.9-8.3"/>
	<path class="st0" d="M40.1,17.1c-16.7,0-30.2,13.6-30.2,30.2"/>
	<path class="st0" d="M55.2,31.7c-3.9-3.8-9.3-6.1-15.1-6.1c-12,0-21.8,9.8-21.8,21.8c0,12,9.8,21.8,21.8,21.8
		c12,0,21.8-9.8,21.8-21.8c0-1.6-0.2-3.1-0.5-4.5"/>
	<line class="st0" x1="19.7" y1="79.8" x2="12.9" y2="90.7"/>
	<line class="st0" x1="60.4" y1="79.8" x2="67.3" y2="90.7"/>
	<line class="st0" x1="40.1" y1="47.4" x2="73.4" y2="29.1"/>
	<polyline class="st0" points="82.9,31.6 73.4,29.1 75.9,19.5 	"/>
	<polyline class="st0" points="90.4,27.3 80.9,24.8 83.5,15.2 	"/>
	<polyline class="st0" points="98,23 88.5,20.5 91,10.9 	"/>
	<polyline class="st0" points="41.5,39.8 39.8,47.4 47.6,49.7 	"/>
</g>
</svg>
