<?xml version="1.0" encoding="utf-8"?>
<!-- Generator: Adobe Illustrator 22.0.1, SVG Export Plug-In . SVG Version: 6.00 Build 0)  -->
<svg version="1.1" id="Layer_1" xmlns="http://www.w3.org/2000/svg" xmlns:xlink="http://www.w3.org/1999/xlink" x="0px" y="0px"
	 viewBox="0 0 100 100" style="enable-background:new 0 0 100 100;" xml:space="preserve">
<style type="text/css">
	.st0{fill:#FFFFFF;}
</style>
<g>
	<path class="st0" d="M41.8,35.9H60v0c-1.1,1.6-1.7,2.5-1.8,2.6h-4.9c0.7,0.8,1.1,1.7,1.4,2.9h5.2c0.1,0,0.1,0,0.1,0.1
		c-1.2,1.7-1.8,2.6-1.8,2.6h-3.4c-0.1,0.9-0.5,2-1.3,3.2c-1,1.3-2,2.1-3,2.5c-1.8,0.8-3.4,1.3-5.1,1.3v0c0,0.1,3.6,4.5,10.9,13h-4.8
		C44.5,55.8,41,51.7,41,51.6v-2.5l0-0.1c0.6,0.1,1.4,0.1,2.2,0.1c4,0,6.5-1.3,7.4-3.9c0.2-0.4,0.2-0.8,0.2-1.2H40.1
		c-0.1,0-0.1,0-0.1-0.1c1.2-1.7,1.8-2.6,1.8-2.6h8.6v0c-0.5-1-1.4-1.8-2.9-2.3c-1-0.3-1.9-0.5-2.7-0.5H40v-0.1
		C41.2,36.8,41.8,35.9,41.8,35.9z"/>
</g>
<path class="st0" d="M75.2,44.8c-0.1,0-0.3,0-0.4-0.1c-0.2-0.1-0.3-0.3-0.3-0.5c-0.8-5.1-3.1-9.7-6.7-13.4c-0.2-0.3-0.3-0.7,0-0.9
	l13.2-15.7c0.1-0.1,0.3-0.2,0.5-0.2c0.2,0,0.4,0,0.5,0.2c3.8,3.4,7,7.3,9.6,11.7c2.6,4.5,4.5,9.3,5.5,14.4c0,0.2,0,0.4-0.1,0.5
	c-0.1,0.2-0.3,0.3-0.5,0.3l-21.1,3.7C75.3,44.8,75.2,44.8,75.2,44.8z M69.2,30.3c3.4,3.7,5.7,8.2,6.6,13l19.8-3.5
	c-2-9.2-7-17.8-14-24.2L69.2,30.3z"/>
<path class="st0" d="M67.5,94.7c-0.1,0-0.2,0-0.3-0.1c-0.2-0.1-0.3-0.2-0.4-0.4l-8.1-22.1c-0.1-0.4,0-0.7,0.4-0.9
	c4.3-1.7,8-4.6,10.7-8.2c0.2-0.3,0.6-0.4,0.9-0.2l19.8,11.4c0.2,0.1,0.3,0.2,0.3,0.4c0,0.2,0,0.4-0.1,0.5c-2.7,4.4-6.1,8.2-10,11.6
	c-4,3.3-8.4,6-13.2,7.9C67.6,94.6,67.5,94.7,67.5,94.7z M60.3,72.2l7.6,20.8c8.8-3.6,16.3-10,21.4-18L70.6,64.3
	C67.9,67.8,64.3,70.5,60.3,72.2z"/>
<path class="st0" d="M91.6,73.1c-0.1,0-0.2,0-0.3-0.1L71.6,61.7c-0.2-0.1-0.3-0.2-0.3-0.4c0-0.2,0-0.4,0.1-0.5
	c2.3-3.8,3.5-8.2,3.5-12.6c0-0.4,0-0.8,0-1.2c0-0.3,0.2-0.7,0.6-0.7l21.3-3.8c0.2,0,0.4,0,0.5,0.1c0.2,0.1,0.3,0.3,0.3,0.5
	c0.3,2.3,0.5,4.6,0.5,7c0,8-2,15.8-5.7,22.8c-0.1,0.2-0.2,0.3-0.4,0.3C91.8,73.1,91.7,73.1,91.6,73.1z M72.9,60.8l18.5,10.7
	c3.4-6.6,5.2-14,5.2-21.5c0-2-0.1-4.1-0.4-6.1l-20,3.5c0,0.2,0,0.4,0,0.7C76.2,52.6,75.1,57,72.9,60.8z"/>
<path class="st0" d="M66.3,29.2c-0.2,0-0.3-0.1-0.4-0.2c-4.1-3.4-9.1-5.4-14.5-5.7c-0.4,0-0.7-0.3-0.7-0.7V2.7
	c0-0.2,0.1-0.4,0.2-0.5C51,2.1,51.2,2,51.4,2c5.2,0.1,10.4,1.1,15.3,3c4.7,1.8,9.1,4.2,13.1,7.4c0.1,0.1,0.2,0.3,0.3,0.5
	c0,0.2,0,0.4-0.2,0.5L66.8,28.9C66.7,29.1,66.5,29.2,66.3,29.2z M52.1,22c5.2,0.4,10,2.3,14.1,5.5L78.4,13
	c-7.6-5.9-16.7-9.2-26.3-9.6V22z"/>
<path class="st0" d="M50,98c-6.5,0-12.8-1.3-18.7-3.8c-5.7-2.4-10.8-5.9-15.3-10.3c-4.4-4.4-7.9-9.5-10.3-15.3C3.3,62.8,2,56.5,2,50
	c0-12.6,4.8-24.5,13.6-33.5c4.3-4.4,9.3-7.9,14.8-10.4c5.7-2.6,11.9-4,18.2-4.1c0.2,0,0.4,0.1,0.5,0.2c0.1,0.1,0.2,0.3,0.2,0.5v19.9
	c0,0.4-0.3,0.7-0.7,0.7C35.5,24,25.2,34.9,25.2,48.1C25.2,61.8,36.3,73,50,73c2.2,0,4.5-0.3,6.6-0.9c0.3-0.1,0.7,0.1,0.8,0.4
	l8.1,22.2c0.1,0.2,0.1,0.4,0,0.5c-0.1,0.2-0.2,0.3-0.4,0.4C60.3,97.2,55.2,98,50,98z M47.9,3.4C22.9,4.5,3.4,24.8,3.4,50
	c0,25.7,20.9,46.6,46.6,46.6c4.8,0,9.5-0.7,14-2.1l-7.6-20.9c-2.1,0.5-4.2,0.8-6.4,0.8c-14.5,0-26.2-11.8-26.2-26.2
	c0-6.7,2.6-13.2,7.2-18.1c4.5-4.7,10.5-7.6,16.9-8.1V3.4z"/>
</svg>
