<?xml version="1.0" encoding="utf-8"?>
<!-- Generator: Adobe Illustrator 22.1.0, SVG Export Plug-In . SVG Version: 6.00 Build 0)  -->
<svg version="1.1" id="Layer_1" xmlns="http://www.w3.org/2000/svg" xmlns:xlink="http://www.w3.org/1999/xlink" x="0px" y="0px"
	 viewBox="0 0 100 100" style="enable-background:new 0 0 100 100;" xml:space="preserve">
<style type="text/css">
	.st0{fill:#FFFFFF;}
</style>
<g>
	<path class="st0" d="M79.7,62L79.7,62c-1.5-1.7-3.5-2.7-5.4-2.6c0.4-2.4-0.4-4.8-2.1-6.5l-0.1-0.1c-1.3-1.3-3-2.1-4.8-2.2
		c0.5-2.4-0.3-5-2-6.8l-0.1-0.1c-0.9-0.9-2.1-1.6-3.3-1.9l14.3-14.3c1.2-1.2,2-2.8,2.2-4.5c0-0.3,0-0.6,0-0.9c0-0.2,0-0.4,0-0.5
		c-0.1-1.8-0.9-3.5-2.2-4.7L76,16.7c-1.3-1.3-2.9-2-4.7-2.2c-0.2,0-0.4,0-0.5,0c0,0,0,0,0,0l-0.1,0c-0.3,0-0.6,0-0.8,0
		c-1.7,0.2-3.3,0.9-4.5,2.2L42,40.1c-1.3-4.4-3.3-8.5-5.9-12.2l-3.6-5c-0.7-0.9-1.6-1.7-2.6-2.2c-1.1-0.6-2.5-0.9-3.8-0.9
		c-1.5,0-3,0.4-4.4,1.1L21.5,21c-0.6,0.3-1.1,0.7-1.6,1.2c-0.2,0.3-0.4,0.5-0.6,0.9c-0.1,0.1-0.1,0.2-0.1,0.3
		c-0.7,1.4-0.7,2.9-0.1,4.2l4.2,8.2c0.8,1.4,1.3,3,1.7,4.6c0.7,2.7,0.7,5.6,0.3,8.4l-2.1,12.8c-0.3,1.8-0.7,3.5-1,5.1l0,0.1
		c-0.8,4,0.2,8.2,2.7,11.5c1.2,1.7,2.6,3.2,4.1,4.7c0.8,0.8,1.6,1.6,2.4,2.4c3.6,3.8,7.1,7.4,11.9,9.2c1.9,0.7,3.8,1,5.8,1
		c4.1,0,8.1-1.6,11.1-4.4c0.1-0.1,0.3-0.3,0.4-0.4l4.6-4.6c6-6,11.4-11.7,13.5-13.9c0.2-0.2,0.3-0.3,0.5-0.5
		c0.1-0.1,0.2-0.2,0.3-0.3C82.3,68.7,81.7,64.5,79.7,62z M78,69.9c-0.1,0.1-0.2,0.2-0.3,0.3c-0.2,0.2-0.3,0.3-0.5,0.5
		c-2,2.2-7.4,7.9-13.4,13.9l-4.6,4.6c-0.1,0.1-0.2,0.2-0.4,0.4c-2.7,2.5-6.1,3.8-9.7,3.8c-1.7,0-3.4-0.3-5-0.9
		c-4.4-1.6-7.6-5-11.1-8.7c-0.8-0.8-1.6-1.6-2.4-2.5c-1.4-1.4-2.7-2.9-3.9-4.5c-2.1-2.8-3-6.4-2.3-9.8l0-0.1c0.4-1.9,0.7-3.5,1-5.2
		l2.1-12.8c0.5-3.2,0.4-6.3-0.3-9.3c-0.4-1.8-1.1-3.5-1.9-5.1L21,26.6c-0.4-0.7-0.3-1.5,0.1-2.3c0-0.1,0.1-0.1,0.1-0.1
		c0.1-0.2,0.2-0.4,0.4-0.5c0.3-0.3,0.6-0.6,1-0.7l0.1-0.1c1.1-0.6,2.2-0.8,3.4-0.8c1,0,2,0.2,2.9,0.7c0.8,0.4,1.4,0.9,1.9,1.6l3.6,5
		c2.9,4,4.9,8.4,6.1,13.2l0,0c0.2,0.8,1.2,1.1,1.8,0.5l24.7-24.7c0.9-0.9,2-1.4,3.2-1.6c0.2,0,0.4,0,0.6,0l0,0c0.1,0,0.2,0,0.4,0
		l0,0c1.3,0.1,2.5,0.7,3.4,1.6l0.1,0.1c0.9,0.9,1.5,2.1,1.6,3.4c0,0.1,0,0.2,0,0.4c0,0.2,0,0.4,0,0.6c-0.1,1.2-0.7,2.3-1.6,3.2
		l-22,22c-0.4,0.4-0.4,1.2,0,1.6l0,0c0.4,0.4,1.2,0.4,1.6,0l5.9-5.9c1.3,0.1,2.5,0.6,3.4,1.6l0.1,0.1c1.6,1.6,2,3.8,1.2,5.9
		l-5.6,5.6c-0.4,0.4-0.4,1.2,0,1.6l0,0c0.4,0.4,1.2,0.4,1.6,0l5.8-5.8c0,0,0.1,0,0.1,0c1.4,0,2.8,0.6,3.8,1.6l0.1,0.1
		c1.5,1.5,2,3.7,1.2,5.7l0,0.1l-5.6,5.6c-0.4,0.4-0.4,1.2,0,1.6l0,0c0.4,0.4,1.2,0.4,1.6,0l5.7-5.7c0.3,0,0.6-0.1,0.7-0.1
		c1.3,0,2.6,0.7,3.6,1.8C79.5,65.1,79.9,68.1,78,69.9z"/>
	<g>
		<path class="st0" d="M50.1,21.6c-0.3,0-0.6-0.1-0.8-0.3l0,0c-0.4-0.4-0.4-1.2,0-1.6l7.5-7.5c0.2-0.2,0.5-0.3,0.8-0.3
			c0.3,0,0.6,0.1,0.8,0.3l0,0c0.4,0.4,0.4,1.2,0,1.6l-7.5,7.5C50.7,21.5,50.4,21.6,50.1,21.6z"/>
		<path class="st0" d="M45.8,17.3c-0.6,0-1.2-0.5-1.2-1.2V5.6c0-0.6,0.5-1.2,1.2-1.2h0c0.6,0,1.2,0.5,1.2,1.2v10.6
			C47,16.8,46.5,17.3,45.8,17.3L45.8,17.3z"/>
		<path class="st0" d="M41.6,21.6c-0.3,0-0.6-0.1-0.8-0.3l-7.5-7.5c-0.4-0.4-0.4-1.2,0-1.6l0,0c0.2-0.2,0.5-0.3,0.8-0.3
			c0.3,0,0.6,0.1,0.8,0.3l7.5,7.5c0.2,0.2,0.3,0.5,0.3,0.8c0,0.3-0.1,0.6-0.3,0.8l0,0C42.2,21.5,41.9,21.6,41.6,21.6z"/>
	</g>
</g>
</svg>
