<?xml version="1.0" encoding="utf-8"?>
<!-- Generator: Adobe Illustrator 22.0.1, SVG Export Plug-In . SVG Version: 6.00 Build 0)  -->
<svg version="1.1" id="Layer_1" xmlns="http://www.w3.org/2000/svg" xmlns:xlink="http://www.w3.org/1999/xlink" x="0px" y="0px"
	 viewBox="0 0 100 100" style="enable-background:new 0 0 100 100;" xml:space="preserve">
<style type="text/css">
	.st0{fill:#FFFFFF;}
</style>
<g>
	<path class="st0" d="M91,35.3L91,35.3c0-0.4,0-0.7-0.2-1L80.2,13.5h3.2c1,0,1.9-0.9,1.9-1.9c0-1-0.8-1.9-1.9-1.9H60
		c-0.8-4.4-4.9-7.7-9.8-7.7c-4.9,0-9,3.3-9.8,7.7H16.6c-1,0-1.9,0.9-1.9,1.9c0,1,0.8,1.9,1.9,1.9h3.2c-3.1,6.1-10.6,20.9-10.6,21
		c0,0.1-0.1,0.8-0.1,0.8c0,9,6.7,16.3,14.9,16.3l0.5,0c8.7,0,15.1-7.6,14.7-16.3v0c0-0.3,0-0.7-0.2-1L28.3,13.5h12.2
		c0.6,2.2,1.9,4,3.8,5.3v33.7h3.8V20.4c0.7,0.1,1.4,0.2,2.1,0.2c0.6,0,1.2-0.1,1.8-0.1v32.1h3.8V19c2-1.3,3.5-3.3,4.1-5.6h11.8
		c-3.1,6.1-10.6,20.9-10.6,21c0,0.1-0.1,0.8-0.1,0.8c0,9,6.7,16.3,14.9,16.3l0.5,0C85,51.6,91.4,44,91,35.3z M24.4,47.8l-0.5,0
		c-5.6,0-10.2-4.7-11-10.8h22.3C34.8,43.1,30.3,47.8,24.4,47.8z M34.1,33.2H14l10-19.8l0-0.1l0,0.1L34.1,33.2z M50.2,16.8
		c-3.4,0-6.2-2.5-6.2-5.6c0-3.1,2.8-5.6,6.2-5.6c3.4,0,6.2,2.5,6.2,5.6C56.4,14.3,53.6,16.8,50.2,16.8z M75.9,13.5L75.9,13.5
		L75.9,13.5L86,33.2H65.9L75.9,13.5z M76.3,47.8l-0.5,0c-5.6,0-10.2-4.7-11-10.8h22.3C86.7,43.1,82.2,47.8,76.3,47.8z"/>
	<path class="st0" d="M26,98.1c-7.3,0-12.7-2.5-12.7-7.6H17c0,1.3,3.5,3.8,8.9,3.8c5.5,0,8.9-2.6,8.9-3.8h3.8
		C38.7,95.6,33.2,98.1,26,98.1z"/>
	<path class="st0" d="M55.9,78c0,3.8-5.5,7.6-12.7,7.6c-0.4,0-0.7,0-1.1,0v-3.8c0.4,0,0.7,0,1.1,0c5.5,0,8.9-2.6,8.9-3.9H55.9z"/>
	<path class="st0" d="M55.9,85.2c0,3.8-5.5,7.6-12.7,7.6c-0.4,0-0.7,0-1.1,0V89c0.4,0,0.7,0,1.1,0c5.5,0,8.9-2.6,8.9-3.9H55.9z"/>
	<path class="st0" d="M43.2,78.1c-7.3,0-12.7-3.8-12.7-7.6h3.8c0,1.3,3.5,3.8,8.9,3.8c5.5,0,8.9-2.6,8.9-3.8h3.8
		C55.9,74.3,50.5,78.1,43.2,78.1z"/>
	<path class="st0" d="M26,91.2c-7.3,0-12.7-3.3-12.7-7.6c0-4.4,5.5-7.6,12.7-7.6c7.3,0,12.7,3.3,12.7,7.6
		C38.7,87.9,33.2,91.2,26,91.2z M26,79.7c-5.5,0-8.9,2.3-8.9,3.8c0,1.6,3.5,3.8,8.9,3.8c5.5,0,8.9-2.3,8.9-3.8
		C34.9,82,31.4,79.7,26,79.7z"/>
	<path class="st0" d="M43.2,70.7c-7.3,0-12.7-3.3-12.7-7.6s5.5-7.6,12.7-7.6c7.3,0,12.7,3.3,12.7,7.6S50.5,70.7,43.2,70.7z
		 M43.2,59.2c-5.5,0-8.9,2.3-8.9,3.8c0,1.6,3.5,3.8,8.9,3.8c5.5,0,8.9-2.3,8.9-3.8C52.2,61.5,48.7,59.2,43.2,59.2z"/>
	<path class="st0" d="M72.4,95.6c-7.3,0-12.7-2.5-12.7-7.6h3.8c0,1.3,3.5,3.8,8.9,3.8c5.5,0,8.9-2.6,8.9-3.8h3.8
		C85.1,93,79.6,95.6,72.4,95.6z"/>
	<path class="st0" d="M72.4,88.3c-7.3,0-12.7-3-12.7-7.6h3.8c0,2.5,3.5,3.8,8.9,3.8c5.5,0,8.9-1.3,8.9-3.8h3.8
		C85.1,85.4,79.6,88.3,72.4,88.3z"/>
	<path class="st0" d="M72.4,81.3c-7.3,0-12.7-3.3-12.7-7.6c0-4.4,5.5-7.6,12.7-7.6c7.3,0,12.7,3.3,12.7,7.6
		C85.1,78,79.6,81.3,72.4,81.3z M72.4,69.8c-5.5,0-8.9,2.3-8.9,3.8c0,1.6,3.5,3.8,8.9,3.8c5.5,0,8.9-2.3,8.9-3.8
		C81.3,72.1,77.8,69.8,72.4,69.8z"/>
</g>
</svg>
