<?xml version="1.0" encoding="utf-8"?>
<!-- Generator: Adobe Illustrator 22.0.1, SVG Export Plug-In . SVG Version: 6.00 Build 0)  -->
<svg version="1.1" id="Layer_1" xmlns="http://www.w3.org/2000/svg" xmlns:xlink="http://www.w3.org/1999/xlink" x="0px" y="0px"
	 viewBox="0 0 100 100" style="enable-background:new 0 0 100 100;" xml:space="preserve">
<style type="text/css">
	.st0{fill:#FFFFFF;}
</style>
<g>
	<path class="st0" d="M86,7H46.5c-6.1,0-11,5-11,11.2v21h7v-21c0-2.3,1.8-4.2,4-4.2H86c2.2,0,4,1.9,4,4.2v63.5c0,2.3-1.8,4.2-4,4.2
		H46.5c-2.2,0-4-1.9-4-4.2v-24h-7v24c0,6.2,4.9,11.2,11,11.2H86c6.1,0,11-5,11-11.2V18.2C97,12,92.1,7,86,7z"/>
	<path class="st0" d="M15.5,52h49.8c2,0,3.6-1.6,3.6-3.6c0-2-1.6-3.6-3.6-3.6h-49l14.4-14.8c1.5-1.5,1.5-4,0-5.5
		c-0.7-0.7-1.7-1.1-2.7-1.1c0,0,0,0,0,0c-1,0-2,0.4-2.7,1.2L4.1,46.1c-1.5,1.5-1.5,4,0,5.5L25.4,73c0.7,0.7,1.7,1.1,2.7,1.1
		c0,0,0,0,0,0c1,0,2-0.4,2.7-1.2c1.5-1.5,1.5-4,0-5.5L15.5,52z"/>
</g>
</svg>
