<?xml version="1.0" encoding="utf-8"?>
<!-- Generator: Adobe Illustrator 22.1.0, SVG Export Plug-In . SVG Version: 6.00 Build 0)  -->
<svg version="1.1" id="Layer_1" xmlns="http://www.w3.org/2000/svg" xmlns:xlink="http://www.w3.org/1999/xlink" x="0px" y="0px"
	 viewBox="0 0 130 130" style="enable-background:new 0 0 130 130;" xml:space="preserve">
<style type="text/css">
	.st0{fill:#20295C;}
</style>
<g>
	<path class="st0" d="M93.4,112.3H17v-1.9c0-19.6,13.1-36.7,32-41.7c-9.5-4.3-15.5-13.7-15.5-24.2c0-14.7,12-26.7,26.7-26.7
		c14.7,0,26.7,12,26.7,26.7c0,10.5-6.1,19.9-15.5,24.2c5.3,1.4,10.2,3.8,14.6,7.1l-2.3,3.1c-4.2-3.1-8.8-5.3-13.9-6.6
		c0,0-0.3-0.1-0.5-0.1c-1.5-0.5-2.5-1.9-2.5-3.4c0-1.4,0.9-2.7,2.2-3.3c8.5-3.6,14-11.8,14-21c0-12.6-10.2-22.8-22.8-22.8
		c-12.6,0-22.8,10.2-22.8,22.8c0,9.2,5.5,17.4,13.9,21c1.3,0.6,2.2,1.9,2.2,3.3c0,1.5-1,2.9-2.4,3.4c-0.2,0.1-0.5,0.1-0.5,0.1
		c-16.9,4.2-28.8,18.9-29.6,36.1h72.5V112.3z"/>
	<g>
		<path class="st0" d="M93.4,112.3c-10.8,0-19.6-8.8-19.6-19.6c0-10.8,8.8-19.6,19.6-19.6c10.8,0,19.6,8.8,19.6,19.6
			C113,103.5,104.2,112.3,93.4,112.3z M93.4,77c-8.7,0-15.7,7-15.7,15.7c0,8.7,7,15.7,15.7,15.7c8.7,0,15.7-7,15.7-15.7
			C109.1,84,102.1,77,93.4,77z"/>
	</g>
	<g>
		<path class="st0" d="M92.7,97H90l-2.4-3.2h-0.8V97h-2.2v-8.7h3.5c0.5,0,0.9,0,1.3,0.1s0.7,0.2,1,0.4c0.3,0.2,0.6,0.5,0.7,0.8
			s0.3,0.7,0.3,1.2c0,0.7-0.2,1.2-0.5,1.6s-0.7,0.7-1.2,1L92.7,97z M89.1,91c0-0.2,0-0.4-0.1-0.6s-0.2-0.3-0.4-0.4
			c-0.1-0.1-0.3-0.1-0.5-0.1s-0.4,0-0.6,0h-0.7v2.3h0.6c0.3,0,0.6,0,0.8-0.1s0.4-0.1,0.5-0.2c0.1-0.1,0.2-0.2,0.3-0.4
			S89.1,91.2,89.1,91z"/>
		<path class="st0" d="M102.2,97H100v-5.8L98.5,95H97l-1.6-3.7V97h-2.1v-8.7h2.5l1.9,4.3l1.9-4.3h2.5V97z"/>
	</g>
</g>
</svg>
