<?xml version="1.0" encoding="utf-8"?>
<!-- Generator: Adobe Illustrator 22.0.1, SVG Export Plug-In . SVG Version: 6.00 Build 0)  -->
<svg version="1.1" id="Layer_1" xmlns="http://www.w3.org/2000/svg" xmlns:xlink="http://www.w3.org/1999/xlink" x="0px" y="0px"
	 viewBox="0 0 130 130" style="enable-background:new 0 0 130 130;" xml:space="preserve">
<style type="text/css">
	.st0{fill:#212E5C;}
</style>
<g>
	<g>
		<path class="st0" d="M76.1,29.3h11.2v0c-0.7,1-1,1.6-1.1,1.6h-3c0.4,0.5,0.7,1.1,0.8,1.8h3.2c0,0,0.1,0,0.1,0
			c-0.7,1.1-1.1,1.6-1.1,1.6h-2.1c0,0.6-0.3,1.2-0.8,2c-0.6,0.8-1.2,1.3-1.8,1.5c-1.1,0.5-2.1,0.8-3.1,0.8v0c0,0.1,2.2,2.7,6.7,8h-3
			c-4.4-5.1-6.6-7.7-6.6-7.7v-1.5l0-0.1c0.4,0.1,0.8,0.1,1.4,0.1c2.4,0,4-0.8,4.6-2.4c0.1-0.2,0.1-0.5,0.1-0.7H75c0,0,0,0,0,0
			c0.7-1.1,1.1-1.6,1.1-1.6h5.3v0c-0.3-0.6-0.9-1.1-1.8-1.4C79,31.1,78.4,31,77.9,31h-3v-0.1C75.7,29.9,76,29.3,76.1,29.3z"/>
	</g>
	<g>
		<path class="st0" d="M45,64h11.2v0c-0.7,1-1,1.6-1.1,1.6h-3c0.4,0.5,0.7,1.1,0.8,1.8h3.2c0,0,0.1,0,0.1,0
			c-0.7,1.1-1.1,1.6-1.1,1.6H53c0,0.6-0.3,1.2-0.8,2c-0.6,0.8-1.2,1.3-1.8,1.5c-1.1,0.5-2.1,0.8-3.1,0.8v0c0,0.1,2.2,2.7,6.7,8h-3
			c-4.4-5.1-6.6-7.7-6.6-7.7v-1.5l0-0.1c0.4,0.1,0.8,0.1,1.4,0.1c2.4,0,4-0.8,4.6-2.4c0.1-0.2,0.1-0.5,0.1-0.7H44c0,0,0,0,0,0
			c0.7-1.1,1.1-1.6,1.1-1.6h5.3v0c-0.3-0.6-0.9-1.1-1.8-1.4c-0.6-0.2-1.2-0.3-1.7-0.3h-3v-0.1C44.7,64.5,45,64,45,64z"/>
	</g>
	<path class="st0" d="M91.5,71.5c-0.2,0.5-0.7,0.9-1.2,0.9l0,0.1c3,1.5,5.4,3.9,7.1,7.2c0.2,0.3,0.3,0.6,0.5,0.9c0,0,0,0.1,0.1,0.1
		c0,0.1,0.2,0.3,0.5,0.7v-1.2c0-1.3,0.4-2.5,1-3.6c-2.9-4.7-7-7.2-11-8.3l2.3,1C91.5,69.7,91.9,70.7,91.5,71.5z"/>
	<path class="st0" d="M29.5,73.3c-1-0.3-1.7-1-2.2-1.9c-0.5-0.9-0.5-1.9-0.2-2.9c0.3-1,1-1.7,1.9-2.2c0.9-0.5,1.9-0.5,2.9-0.2
		l0.8,0.3c0.3-1,0.7-2,1.1-3l-0.9-0.3c-1.8-0.6-3.6-0.4-5.3,0.4c-1.7,0.8-2.9,2.3-3.5,4c-0.6,1.8-0.4,3.6,0.4,5.3
		c0.1,0.2,0.2,0.4,0.3,0.6C26.3,72.8,27.9,72.7,29.5,73.3z"/>
	<path class="st0" d="M51.2,93.9c0,0,0.1-0.1,0.1-0.2C51.2,93.8,51.2,93.8,51.2,93.9z"/>
	<path class="st0" d="M50.7,94.3c0.1,0,0.1-0.1,0.2-0.1C50.8,94.2,50.7,94.2,50.7,94.3z"/>
	<path class="st0" d="M49.4,94.4c0.1,0,0.2,0,0.3,0.1C49.6,94.4,49.5,94.4,49.4,94.4z"/>
	<path class="st0" d="M51.3,93.6C51.3,93.6,51.3,93.6,51.3,93.6C51.3,93.6,51.3,93.6,51.3,93.6C51.3,93.6,51.3,93.6,51.3,93.6z"/>
	<path class="st0" d="M50.1,94.4c0.1,0,0.1,0,0.2,0C50.2,94.4,50.2,94.4,50.1,94.4z"/>
	<path class="st0" d="M50.4,94.4c0.1,0,0.2-0.1,0.2-0.1C50.5,94.3,50.5,94.4,50.4,94.4z"/>
	<path class="st0" d="M51.1,93.9c0,0-0.1,0.1-0.1,0.1C51,94,51,94,51.1,93.9z"/>
	<path class="st0" d="M50,94.4c-0.1,0-0.1,0-0.2,0C49.8,94.4,49.9,94.4,50,94.4C49.9,94.4,50,94.4,50,94.4z"/>
	<path class="st0" d="M26.2,83.4c-1-0.3-1.7-1-2.2-1.9c-0.5-0.9-0.5-1.9-0.2-2.9c0.6-2,2.8-3,4.7-2.4l3.9,1.3
		c-0.3-1.1-0.5-2.3-0.6-3.5l-2.4-0.8c-1.6-0.5-3.2-0.4-4.7,0.1c-1.9,0.7-3.4,2.3-4.1,4.3c-0.6,1.8-0.4,3.6,0.4,5.3
		c0.1,0.2,0.2,0.4,0.3,0.6C23,83,24.6,82.9,26.2,83.4z"/>
	<path class="st0" d="M26.1,94.6l-3.2-1c-2-0.6-3-2.8-2.4-4.7c0.6-2,2.8-3.1,4.7-2.4l24.2,7.9l0,0c0.1,0,0.2,0,0.3,0.1
		c0,0,0.1,0,0.1,0c0.1,0,0.1,0,0.2,0c0,0,0.1,0,0.1,0c0.1,0,0.1,0,0.2,0c0,0,0.1,0,0.1,0c0.1,0,0.2-0.1,0.2-0.1c0,0,0,0,0,0
		c0.1,0,0.1-0.1,0.2-0.1c0,0,0.1,0,0.1-0.1c0,0,0.1-0.1,0.1-0.1c0,0,0-0.1,0.1-0.1c0,0,0.1-0.1,0.1-0.2c0,0,0-0.1,0.1-0.1
		c0,0,0,0,0,0c-5.2-0.5-9.9-2.8-13.3-6.3l-11.8-3.8c-1.6-0.5-3.2-0.4-4.7,0.1c-1.9,0.7-3.4,2.3-4.1,4.3c-1,2.9,0.1,6,2.5,7.7
		C21.7,94.4,23.9,93.9,26.1,94.6z"/>
	<polygon class="st0" points="47.1,101.5 28.7,95.5 47.1,101.5 47.1,101.5 	"/>
	<path class="st0" d="M98.4,117.2v-0.8h-4.1H80.4c-1.5-0.1-25.7-2.3-33.7-3.7c-6.1-1.1-23.7-7.8-23.9-7.8c0,0,0,0-0.1,0
		c-2-0.6-3-2.8-2.4-4.7c0.6-2,2.8-3.1,4.7-2.4l24.2,7.9c0.8,0.3,1.7-0.2,2-1c0,0,0,0,0-0.1c0.2-0.8-0.2-1.7-1-1.9l-3.2-1l-18.4-6
		l-2.6-0.8h0c-2.2-0.7-4.4-0.3-6.2,1c-1.2,0.8-2.1,2-2.6,3.5c-1.2,3.6,0.8,7.5,4.4,8.7c1.1,0.4,18.2,6.9,24.5,8
		c8.3,1.5,32.9,3.7,34,3.8c0,0,0.1,0,0.1,0h18.4C98.5,118.8,98.4,118,98.4,117.2z"/>
	<path class="st0" d="M105.7,73c-2.7,0-5.1,1.5-6.4,3.7c-0.6,1.1-1,2.3-1,3.6v1.2v34.9v0.8c0,0.8,0.1,1.6,0.4,2.4
		c1,2.9,3.7,4.9,6.9,4.9c4,0,7.3-3.3,7.3-7.3V80.3C113,76.2,109.7,73,105.7,73z M109.8,117.2c0,2.3-1.9,4.1-4.1,4.1
		c-2.3,0-4.1-1.9-4.1-4.1V80.3c0-2.3,1.9-4.1,4.1-4.1c2.3,0,4.1,1.9,4.1,4.1V117.2z"/>
	<path class="st0" d="M32.6,66.4c-0.5,1.9-0.8,3.8-0.8,5.9c0,0.6,0,1.2,0.1,1.8c0.1,1.2,0.3,2.4,0.6,3.5c1,3.7,2.9,7,5.5,9.7
		c3.5,3.5,8.1,5.9,13.3,6.3c0,0,0,0,0,0c0.6,0.1,1.3,0.1,1.9,0.1c10.1,0,18.6-7,20.8-16.4l-3-1.3c-1.7,8.3-9.1,14.5-17.9,14.5
		C43.2,90.5,35,82.3,35,72.3C35,62.2,43.2,54,53.2,54c4.7,0,9,1.8,12.2,4.7c0.6,0.1,1.2,0.2,1.8,0.5l4.2,1.8
		C67.7,54.9,61,50.8,53.2,50.8c-8.6,0-16.1,5.2-19.5,12.5C33.3,64.4,32.9,65.4,32.6,66.4z"/>
	<path class="st0" d="M101.5,38c0-11.3-9.2-20.5-20.5-20.5c-11.3,0-20.5,9.2-20.5,20.5c0,11.3,9.2,20.5,20.5,20.5
		C92.4,58.5,101.5,49.3,101.5,38z M81.1,20.8c9.5,0,17.3,7.7,17.3,17.3c0,9.5-7.8,17.3-17.3,17.3c-9.5,0-17.3-7.8-17.3-17.3
		C63.8,28.5,71.6,20.8,81.1,20.8z"/>
	<path class="st0" d="M67.3,59.3c-0.6-0.3-1.2-0.4-1.8-0.5c-1.9-0.3-3.9,0.3-5.4,1.6c-0.8,0.7-1.5,1.5-1.9,2.6
		c-0.1,0.2-0.2,0.4-0.2,0.6c-0.2,0.7-0.3,1.4-0.3,2.1c0,2.7,1.6,5.3,4.2,6.4l9.3,4l3,1.3l9.7,4.2c-0.5,1.6-0.8,4.1,0.2,6.8
		c1.3,3.2,4.2,5.5,8.7,7.1c0.2,0.1,0.3,0.1,0.5,0.1c0.7,0,1.3-0.4,1.5-1.1c0.3-0.8-0.2-1.7-1-2c-0.3-0.1-0.5-0.2-0.8-0.3
		c-3.1-1.2-5.1-2.9-6-4.9c-1.2-2.9,0.2-5.7,0.2-5.7c0.2-0.4,0.2-0.8,0.1-1.3c-0.1-0.4-0.5-0.7-0.9-0.9L63.1,69.1
		c-1.9-0.8-2.8-3-2-4.9c0.8-1.9,3-2.8,4.9-2l23.4,10.1c0.3,0.1,0.6,0.2,0.9,0.1c0.5-0.1,1-0.4,1.2-0.9c0.4-0.8,0-1.7-0.8-2.1l-2.3-1
		l-16.9-7.3L67.3,59.3z"/>
	<path class="st0" d="M34.3,54c0.9,0,1.6-0.7,1.6-1.6V33.3c0-0.9-0.7-1.6-1.6-1.6c-0.9,0-1.6,0.7-1.6,1.6v19.1
		C32.7,53.3,33.4,54,34.3,54z"/>
	<path class="st0" d="M58.2,28.2V7.1c0-0.9-0.7-1.6-1.6-1.6c-0.9,0-1.6,0.7-1.6,1.6v21.1c0,0.9,0.7,1.6,1.6,1.6
		C57.4,29.8,58.2,29,58.2,28.2z"/>
	<path class="st0" d="M106.1,34.8V20c0-0.9-0.7-1.6-1.6-1.6c-0.9,0-1.6,0.7-1.6,1.6v14.8c0,0.9,0.7,1.6,1.6,1.6
		C105.4,36.4,106.1,35.7,106.1,34.8z"/>
</g>
</svg>
