<?xml version="1.0" encoding="utf-8"?>
<!-- Generator: Adobe Illustrator 22.0.1, SVG Export Plug-In . SVG Version: 6.00 Build 0)  -->
<svg version="1.1" id="Layer_1" xmlns="http://www.w3.org/2000/svg" xmlns:xlink="http://www.w3.org/1999/xlink" x="0px" y="0px"
	 viewBox="0 0 100 100" style="enable-background:new 0 0 100 100;" xml:space="preserve">
<style type="text/css">
	.st0{fill:#FFFFFF;}
</style>
<g>
	<path class="st0" d="M37.1,19.8h9.3v29.8c0,0.7,0.5,1.2,1.2,1.2c0.6,0,1.2-0.5,1.2-1.2v-31c0-0.3-0.1-0.6-0.3-0.8
		c-0.2-0.2-0.5-0.3-0.8-0.3h-7.6L52.3,5.1l12.4,12.4l-7.6,0c-0.3,0-0.6,0.1-0.8,0.3c-0.2,0.2-0.3,0.5-0.3,0.8v29.8
		c0,0.7,0.5,1.2,1.2,1.2c0.7,0,1.2-0.5,1.2-1.2V19.8h9.3c0.5,0,0.9-0.3,1.1-0.7c0.2-0.4,0.1-0.9-0.3-1.3L53.1,2.6
		c-0.5-0.5-1.2-0.5-1.7,0L36.2,17.8c-0.3,0.3-0.4,0.8-0.3,1.3C36.2,19.5,36.6,19.8,37.1,19.8z"/>
	<path class="st0" d="M47.9,57.4c0.5-0.4,0.6-1.1,0.2-1.7l0,0c-2.3-2.9-5.2-5.5-8.9-7.7h0c-4.7-2.7-10.5-4.5-17.5-5.2v-2.4v-6.1
		c0-0.5-0.3-0.9-0.7-1.1c-0.4-0.2-0.9-0.1-1.3,0.3l-6.1,6.1L10,43l-5.7,5.7c-0.5,0.5-0.5,1.2,0,1.7l15.2,15.2
		c0.3,0.3,0.8,0.4,1.3,0.3c0.4-0.2,0.7-0.6,0.7-1.1v-10c4.2,0.5,7.6,1.5,10.2,2.8l0,0c2.8,1.4,4.9,3.1,6.5,5
		c1.5,1.8,2.6,3.7,3.4,5.7c0.3,0.6,0.9,0.9,1.5,0.6c0.6-0.3,0.9-0.9,0.6-1.5c-0.9-2.1-2.1-4.3-3.8-6.3c-1.8-2.1-4.2-4-7.3-5.6l0,0
		c-3.2-1.6-7.2-2.8-12.4-3.2c-0.3,0-0.7,0.1-0.9,0.3c-0.2,0.2-0.4,0.5-0.4,0.9v8.5L6.8,49.5l4.8-4.8l3.5-3.5l4-4v3.3v3.5
		c0,0.6,0.5,1.1,1.1,1.2c7.2,0.6,13.1,2.4,17.6,5.1h0c3.5,2,6.2,4.5,8.3,7.1C46.6,57.7,47.4,57.8,47.9,57.4z"/>
	<path class="st0" d="M80.4,33.4c-0.3-0.3-0.8-0.4-1.3-0.3c-0.4,0.2-0.7,0.6-0.7,1.1v8.9c-6.2,1-11.4,2.9-15.6,5.7v0
		c-4.2,2.7-7.3,6.1-9.6,9.6c-3.5,5.2-5.2,10.5-6,14.6c-0.9,4.1-0.9,7-0.9,7.5v16.2c0,0.7,0.5,1.2,1.2,1.2c0.7,0,1.2-0.5,1.2-1.2
		V80.5c0-0.4,0-3.1,0.8-7c0.8-3.9,2.4-8.9,5.7-13.8c2.2-3.2,5.1-6.4,9-8.9l0,0c4.1-2.7,9.3-4.7,15.7-5.5c0.6-0.1,1-0.6,1-1.2v-7
		l12.4,12.4l-0.7,0.7l-1.3,1.3L80.8,61.8v-8.2c0-0.3-0.2-0.7-0.4-0.9c-0.3-0.2-0.6-0.3-1-0.3c-4.4,0.7-7.9,2.1-10.7,3.8v0
		c-3.9,2.4-6.6,5.5-8.6,8.7l0,0c-3.9,6.5-4.4,13.6-4.5,15.2l0,0.3v0v0c0,0,0,0,0,0c0,0,0,0,0,0.1l0,0.1v16c0,0.7,0.5,1.2,1.2,1.2
		c0.7,0,1.2-0.5,1.2-1.2V80.7c0-0.2,0-0.5,0-0.9c0,0,0,0,0-0.1c0.1-2,0.9-8.2,4.1-13.5l0,0c1.8-3,4.2-5.7,7.8-7.9l0,0
		c2.3-1.4,5-2.5,8.5-3.2v9.6c0,0.5,0.3,0.9,0.7,1.1c0.4,0.2,1,0.1,1.3-0.3l12.4-12.4l1.3-1.3l1.5-1.5c0.5-0.5,0.5-1.2,0-1.7
		L80.4,33.4z"/>
</g>
</svg>
