<?xml version="1.0" encoding="utf-8"?>
<!-- Generator: Adobe Illustrator 22.0.1, SVG Export Plug-In . SVG Version: 6.00 Build 0)  -->
<svg version="1.1" id="Layer_1" xmlns="http://www.w3.org/2000/svg" xmlns:xlink="http://www.w3.org/1999/xlink" x="0px" y="0px"
	 viewBox="0 0 130 130" style="enable-background:new 0 0 130 130;" xml:space="preserve">
<style type="text/css">
	.st0{fill:none;stroke:#20295C;stroke-width:2;stroke-miterlimit:10;}
</style>
<g>
	<line class="st0" x1="21.3" y1="19.9" x2="108.9" y2="19.9"/>
	<line class="st0" x1="108.9" y1="28.9" x2="21.3" y2="28.9"/>
	<line class="st0" x1="16.8" y1="31.6" x2="16.8" y2="17.2"/>
	<path class="st0" d="M16.8,19.9h-3.4c-2.5,0-4.4,2-4.4,4.4l0,0c0,2.5,2,4.4,4.4,4.4h3.3"/>
	<line class="st0" x1="113.3" y1="31.6" x2="113.3" y2="17.2"/>
	<path class="st0" d="M113.3,19.9h3.3c2.5,0,4.4,2,4.4,4.4l0,0c0,2.5-2,4.4-4.4,4.4h-3.3"/>
	<polyline class="st0" points="108.9,28.9 108.9,96.9 21.3,96.9 21.3,28.9 	"/>
	<path class="st0" d="M68.9,108.9c0-2.1-1.8-3.9-3.9-3.9s-3.9,1.8-3.9,3.9c0,2.1,1.8,3.9,3.9,3.9S68.9,111,68.9,108.9z"/>
	<line class="st0" x1="65.1" y1="105.1" x2="65.1" y2="96.9"/>
	<g>
		<polyline class="st0" points="40.3,50.9 40.3,82.3 33.4,82.3 33.4,50.9 		"/>
		<polyline class="st0" points="59.1,65.4 59.1,82.3 52.2,82.3 52.2,65.4 		"/>
		<polyline class="st0" points="77.9,50.9 77.9,82.3 71,82.3 71,50.9 		"/>
		<polyline class="st0" points="96.7,62.9 96.7,82.3 89.8,82.3 89.8,62.9 		"/>
		<polyline class="st0" points="36.9,39.4 55.7,53.9 74.4,39.4 93.2,51.5 		"/>
	</g>
</g>
</svg>
