<?xml version="1.0" encoding="utf-8"?>
<!-- Generator: Adobe Illustrator 22.0.1, SVG Export Plug-In . SVG Version: 6.00 Build 0)  -->
<svg version="1.1" id="Layer_1" xmlns="http://www.w3.org/2000/svg" xmlns:xlink="http://www.w3.org/1999/xlink" x="0px" y="0px"
	 viewBox="0 0 130 130" style="enable-background:new 0 0 130 130;" xml:space="preserve">
<style type="text/css">
	.st0{fill:none;stroke:#202D5C;stroke-width:2;stroke-miterlimit:10;}
	.st1{fill:#202C5C;}
</style>
<g>
	<polyline class="st0" points="10,61.9 10,86.3 21.9,88.3 	"/>
	<g>
		<g>
			<path class="st1" d="M81.3,29.7h10.6l0,0c-0.6,0.9-1,1.4-1.1,1.6H88c0.4,0.4,0.6,1,0.8,1.6h3c0.1,0,0.1,0,0.1,0.1
				c-0.7,1-1,1.5-1,1.5h-1.9c-0.1,0.5-0.3,1.1-0.8,1.9c-0.6,0.8-1.2,1.2-1.8,1.4c-1,0.5-2,0.8-3,0.8l0,0c0,0.1,2.1,2.6,6.3,7.5H87
				c-4.1-4.8-6.2-7.2-6.2-7.3v-1.4v-0.1c0.4,0.1,0.8,0.1,1.3,0.1c2.3,0,3.8-0.8,4.3-2.3c0.1-0.3,0.1-0.4,0.1-0.7h-6.3
				c0,0-0.1,0-0.1-0.1c0.7-1,1.1-1.5,1.1-1.5h5l0,0c-0.3-0.6-0.8-1-1.6-1.4c-0.6-0.1-1.2-0.2-1.6-0.2h-2.8v-0.1
				C80.9,30.2,81.2,29.7,81.3,29.7z"/>
		</g>
		<path class="st0" d="M20.6,53.1c5.3-2.5,11.6-4.2,18.3-5l10.6,18.7l-39.5-5C11.8,58.6,15.3,55.6,20.6,53.1z"/>
		<path class="st0" d="M100.5,68.5c8.6,7,6.4,16-6.4,21.9c-15.4,7.1-40.4,7.1-55.9,0c-10.4-4.8-13.8-11.6-10.1-17.8l38.1,4.7
			L56.1,59.9c1.8-0.2,3.6-0.4,5.4-0.5"/>
		<path class="st0" d="M105.7,78.1V98c0,10.1-17.7,18.3-39.5,18.3S26.6,108.1,26.6,98V78.1"/>
		<ellipse class="st0" cx="86.5" cy="38.6" rx="26.3" ry="25"/>
		<line class="st0" x1="105.7" y1="56.6" x2="120" y2="70.9"/>
	</g>
</g>
</svg>
