<?xml version="1.0" encoding="utf-8"?>
<!-- Generator: Adobe Illustrator 22.0.1, SVG Export Plug-In . SVG Version: 6.00 Build 0)  -->
<svg version="1.1" id="Layer_1" xmlns="http://www.w3.org/2000/svg" xmlns:xlink="http://www.w3.org/1999/xlink" x="0px" y="0px"
	 viewBox="0 0 130 130" style="enable-background:new 0 0 130 130;" xml:space="preserve">
<style type="text/css">
	.st0{fill:#20295C;}
	.st1{fill:#FFFFFF;}
	.st2{fill:#010101;}
</style>
<g>
	<path class="st0" d="M90.5,120.4h-51c-4.7,0-13.5-2.8-13.5-13.5c0-28.6,27.5-73,28.7-74.8l0.6-1h19.4l0.6,1
		C76.5,34,104,78.3,104,106.9C104,117.6,95.2,120.4,90.5,120.4z M57.7,35.3c-4.1,6.8-27.4,46.5-27.4,71.6c0,9.1,8.8,9.2,9.2,9.2h51
		c1,0,9.2-0.3,9.2-9.2c0-25.1-23.3-64.8-27.4-71.6H57.7z"/>
</g>
<g>
	<path class="st0" d="M73.6,34.7L70,32.4l10.1-15.8c-0.6,0.1-1.3,0.3-1.7,0.6c-4,2.1-7.2-0.3-8.4-1.2c-3.9-2.9-6.1-2.9-10,0
		c-1.2,0.9-4.4,3.3-8.4,1.2c-0.5-0.2-1.1-0.4-1.7-0.6L60,32.4l-3.6,2.3L41.9,12.1l3.8-0.1c0.5,0,5,0,7.9,1.4
		c1.2,0.6,2.2,0.4,3.9-0.8c5.4-4,9.7-4,15.1,0c1.7,1.3,2.6,1.5,3.9,0.8c2.9-1.5,7.4-1.5,7.9-1.4l3.8,0.1L73.6,34.7z"/>
</g>
<g>
	<path class="st0" d="M65,95.7c-9.4,0-17-7.6-17-17s7.6-17,17-17c9.4,0,17,7.6,17,17S74.4,95.7,65,95.7z M65,65.5
		c-7.3,0-13.2,5.9-13.2,13.2c0,7.3,5.9,13.2,13.2,13.2c7.3,0,13.2-5.9,13.2-13.2C78.2,71.4,72.3,65.5,65,65.5z"/>
</g>
<g>
	<rect x="19.6" y="109.8" class="st1" width="17" height="8.5"/>
	<path class="st2" d="M38.8,120.4H17.5v-12.8h21.3V120.4z M21.8,116.2h12.8v-4.3H21.8V116.2z"/>
</g>
<g>
	<rect x="19.6" y="101.3" class="st1" width="17" height="8.5"/>
	<path class="st2" d="M38.8,111.9H17.5V99.1h21.3V111.9z M21.8,107.6h12.8v-4.3H21.8V107.6z"/>
</g>
<rect x="19.6" y="92.8" class="st1" width="17" height="8.5"/>
<path class="st0" d="M38.8,103.4H17.5V90.6h21.3V103.4z M21.8,99.1h12.8v-4.3H21.8V99.1z"/>
<rect x="19.6" y="84.3" class="st1" width="17" height="8.5"/>
<path class="st0" d="M38.8,94.9H17.5V82.1h21.3V94.9z M21.8,90.6h12.8v-4.3H21.8V90.6z"/>
<rect x="19.6" y="75.8" class="st1" width="17" height="8.5"/>
<path class="st0" d="M38.8,86.4H17.5V73.6h21.3V86.4z M21.8,82.1h12.8v-4.3H21.8V82.1z"/>
<rect x="11.1" y="109.8" class="st1" width="17" height="8.5"/>
<path class="st0" d="M30.3,120.4H9v-12.8h21.3V120.4z M13.3,116.2H26v-4.3H13.3V116.2z"/>
<rect x="11.1" y="101.3" class="st1" width="17" height="8.5"/>
<path class="st0" d="M30.3,111.9H9V99.1h21.3V111.9z M13.3,107.6H26v-4.3H13.3V107.6z"/>
<rect x="28.1" y="109.8" class="st1" width="17" height="8.5"/>
<path class="st0" d="M47.3,120.4H26v-12.8h21.3V120.4z M30.3,116.2H43v-4.3H30.3V116.2z"/>
<rect x="28.1" y="101.3" class="st1" width="17" height="8.5"/>
<path class="st0" d="M47.3,111.9H26V99.1h21.3V111.9z M30.3,107.6H43v-4.3H30.3V107.6z"/>
<rect x="28.1" y="92.8" class="st1" width="17" height="8.5"/>
<path class="st0" d="M47.3,103.4H26V90.6h21.3V103.4z M30.3,99.1H43v-4.3H30.3V99.1z"/>
<rect x="101.9" y="109.8" class="st1" width="17" height="8.5"/>
<path class="st0" d="M121,120.4H99.7v-12.8H121V120.4z M104,116.2h12.8v-4.3H104V116.2z"/>
<rect x="101.9" y="101.3" class="st1" width="17" height="8.5"/>
<path class="st0" d="M121,111.9H99.7V99.1H121V111.9z M104,107.6h12.8v-4.3H104V107.6z"/>
<rect x="101.9" y="92.8" class="st1" width="17" height="8.5"/>
<path class="st0" d="M121,103.4H99.7V90.6H121V103.4z M104,99.1h12.8v-4.3H104V99.1z"/>
<rect x="84.8" y="109.8" class="st1" width="17" height="8.5"/>
<path class="st0" d="M104,120.4H82.7v-12.8H104V120.4z M87,116.2h12.8v-4.3H87V116.2z"/>
<rect x="84.8" y="101.3" class="st1" width="17" height="8.5"/>
<path class="st0" d="M104,111.9H82.7V99.1H104V111.9z M87,107.6h12.8v-4.3H87V107.6z"/>
<rect x="84.8" y="92.8" class="st1" width="17" height="8.5"/>
<path class="st0" d="M104,103.4H82.7V90.6H104V103.4z M87,99.1h12.8v-4.3H87V99.1z"/>
<rect x="84.8" y="84.3" class="st1" width="17" height="8.5"/>
<path class="st0" d="M104,94.9H82.7V82.1H104V94.9z M87,90.6h12.8v-4.3H87V90.6z"/>
<rect x="84.8" y="75.8" class="st1" width="17" height="8.5"/>
<path class="st0" d="M104,86.4H82.7V73.6H104V86.4z M87,82.1h12.8v-4.3H87V82.1z"/>
<g>
	<path class="st0" d="M61.7,73H69v0c-0.4,0.7-0.7,1-0.7,1.1h-1.9c0.3,0.3,0.4,0.7,0.5,1.1H69c0,0,0,0,0,0c-0.5,0.7-0.7,1-0.7,1h-1.3
		c0,0.4-0.2,0.8-0.5,1.3c-0.4,0.5-0.8,0.8-1.2,1c-0.7,0.3-1.4,0.5-2,0.5v0c0,0.1,1.5,1.8,4.4,5.2h-1.9c-2.8-3.3-4.3-5-4.3-5v-1l0,0
		c0.3,0,0.5,0.1,0.9,0.1c1.6,0,2.6-0.5,3-1.6c0.1-0.2,0.1-0.3,0.1-0.5H61c0,0,0,0,0,0c0.5-0.7,0.7-1,0.7-1h3.4v0
		c-0.2-0.4-0.6-0.7-1.1-0.9c-0.4-0.1-0.8-0.2-1.1-0.2H61v0C61.5,73.4,61.7,73,61.7,73z"/>
</g>
</svg>
