<?xml version="1.0" encoding="utf-8"?>
<!-- Generator: Adobe Illustrator 22.1.0, SVG Export Plug-In . SVG Version: 6.00 Build 0)  -->
<svg version="1.1" id="Layer_1" xmlns="http://www.w3.org/2000/svg" xmlns:xlink="http://www.w3.org/1999/xlink" x="0px" y="0px"
	 viewBox="0 0 130 130" style="enable-background:new 0 0 130 130;" xml:space="preserve">
<style type="text/css">
	.st0{fill:#20295C;}
</style>
<g>
	<g>
		<path class="st0" d="M110.2,66.9h-21c-2.4,0-4.6-0.9-6.2-2.6c-1.7-1.7-2.6-3.9-2.6-6.2s0.9-4.6,2.6-6.2c1.7-1.7,3.9-2.6,6.2-2.6
			h21c2.4,0,4.6,0.9,6.2,2.6c1.7,1.7,2.6,3.9,2.6,6.2s-0.9,4.6-2.6,6.2C114.8,65.9,112.5,66.9,110.2,66.9z M89.2,53
			c-1.4,0-2.6,0.5-3.6,1.5c-1,1-1.5,2.2-1.5,3.6c0,1.4,0.5,2.6,1.5,3.6c1,1,2.2,1.5,3.6,1.5h21c1.4,0,2.6-0.5,3.6-1.5
			c1-1,1.5-2.2,1.5-3.6c0-1.4-0.5-2.6-1.5-3.6c-1-1-2.2-1.5-3.6-1.5H89.2z"/>
		<path class="st0" d="M106.3,80.7H89.2c-2.4,0-4.6-0.9-6.2-2.6c-1.7-1.7-2.6-3.9-2.6-6.2c0-2.4,0.9-4.6,2.6-6.2
			c1.7-1.7,3.9-2.6,6.2-2.6h17.1c2.4,0,4.6,0.9,6.2,2.6c1.7,1.7,2.6,3.9,2.6,6.2c0,2.4-0.9,4.6-2.6,6.2
			C110.8,79.8,108.6,80.7,106.3,80.7z M89.2,66.9c-1.4,0-2.6,0.5-3.6,1.5c-1,1-1.5,2.2-1.5,3.6c0,1.4,0.5,2.6,1.5,3.6
			c1,1,2.2,1.5,3.6,1.5h17.1c1.4,0,2.6-0.5,3.6-1.5c1-1,1.5-2.2,1.5-3.6c0-1.4-0.5-2.6-1.5-3.6c-1-1-2.2-1.5-3.6-1.5H89.2z"/>
		<path class="st0" d="M102.4,94.6H89.2c-2.4,0-4.6-0.9-6.2-2.6c-1.7-1.7-2.6-3.9-2.6-6.2c0-2.4,0.9-4.6,2.6-6.2
			c1.7-1.7,3.9-2.6,6.2-2.6h13.2c2.4,0,4.6,0.9,6.2,2.6c1.7,1.7,2.6,3.9,2.6,6.2c0,2.4-0.9,4.6-2.6,6.2
			C107,93.7,104.8,94.6,102.4,94.6z M89.2,80.7c-1.4,0-2.6,0.5-3.6,1.5c-1,1-1.5,2.2-1.5,3.6c0,1.4,0.5,2.6,1.5,3.6
			c1,1,2.2,1.5,3.6,1.5h13.2c1.4,0,2.6-0.5,3.6-1.5c1-1,1.5-2.2,1.5-3.6c0-1.4-0.5-2.6-1.5-3.6c-1-1-2.2-1.5-3.6-1.5H89.2z"/>
		<path class="st0" d="M98.6,108.5h-9.4c-2.4,0-4.6-0.9-6.2-2.6c-1.7-1.7-2.6-3.9-2.6-6.2c0-2.4,0.9-4.6,2.6-6.2
			c1.7-1.7,3.9-2.6,6.2-2.6h9.4c2.4,0,4.6,0.9,6.2,2.6c1.7,1.7,2.6,3.9,2.6,6.2c0,2.4-0.9,4.6-2.6,6.2
			C103.1,107.6,100.9,108.5,98.6,108.5z M89.2,94.6c-1.4,0-2.6,0.5-3.6,1.5c-1,1-1.5,2.2-1.5,3.6c0,1.4,0.5,2.6,1.5,3.6
			c1,1,2.2,1.5,3.6,1.5h9.4c1.4,0,2.6-0.5,3.6-1.5c1-1,1.5-2.2,1.5-3.6c0-1.4-0.5-2.6-1.5-3.6c-1-1-2.2-1.5-3.6-1.5H89.2z"/>
	</g>
	<g>
		<rect x="39" y="104.8" class="st0" width="50.2" height="3.7"/>
		<path class="st0" d="M89.2,53H76c-0.6,0-1.3-0.3-1.6-0.9c-0.3-0.6-0.4-1.2-0.1-1.8c1.6-3,2.8-6.2,3.6-9.3c0.8-3.2,1.2-6.5,1.2-9.7
			v-4.3c0-1.4-0.5-2.6-1.5-3.6c-1-1-2.2-1.5-3.6-1.5c-1.4,0-2.6,0.5-3.6,1.5c-1,1-1.5,2.2-1.5,3.6c0,3.5-0.6,6.4-2.2,10.1
			c-1.4,3.4-3.5,6.5-6.1,9.1c-2.3,2.2-4.9,4-7.8,5.2c-2.9,1.2-6,1.8-9.2,1.8H39v-3.7h4.6c2.7,0,5.3-0.5,7.8-1.5
			c2.5-1,4.7-2.5,6.6-4.4c2.3-2.2,4-4.9,5.3-7.8c1.3-3.2,1.9-5.7,1.9-8.6c0-2.4,0.9-4.6,2.6-6.2C69.4,19,71.6,18,74,18
			c2.4,0,4.6,0.9,6.2,2.6c1.7,1.6,2.6,3.9,2.6,6.2v4.3c0,3.6-0.4,7.2-1.3,10.6c-0.6,2.5-1.5,5-2.6,7.4h10.3V53z"/>
		<path class="st0" d="M49.3,87.7h-3.8V84h3.8c10.5,0,19-8.5,19-19H72C72,77.5,61.8,87.7,49.3,87.7z"/>
	</g>
	<g>
		<path class="st0" d="M39,112H11v-3.7h26.1V49.5H11v-3.7h28c1,0,1.9,0.8,1.9,1.9v62.4C40.8,111.1,40,112,39,112z"/>
		<rect x="29.1" y="99.4" class="st0" width="3.7" height="3.7"/>
		<rect x="21.6" y="99.4" class="st0" width="3.7" height="3.7"/>
	</g>
</g>
</svg>
