<?xml version="1.0" encoding="utf-8"?>
<!-- Generator: Adobe Illustrator 22.0.1, SVG Export Plug-In . SVG Version: 6.00 Build 0)  -->
<svg version="1.1" id="Layer_1" xmlns="http://www.w3.org/2000/svg" xmlns:xlink="http://www.w3.org/1999/xlink" x="0px" y="0px"
	 viewBox="0 0 130 130" style="enable-background:new 0 0 130 130;" xml:space="preserve">
<style type="text/css">
	.st0{fill:none;stroke:#212B5C;stroke-width:2.5;stroke-miterlimit:10;}
</style>
<g>
	<path class="st0" d="M71,15.1v-0.4c0-3.3-2.7-6-6-6l0,0c-3.3,0-6,2.7-6,6v0.4"/>
	<path class="st0" d="M52.3,16.8v12.6c0,1.2,1,2.2,2.2,2.2h0.9c1.1,0,2-0.8,2.1-1.9l0-0.3c0.5-3.8,3.7-6.6,7.5-6.6l0,0
		c3.8,0,7,2.8,7.5,6.6l0,0.3c0.1,1.1,1.1,1.9,2.1,1.9l0,0c1.2,0,2.2-1,2.2-2.2V16.8c0-0.9-0.7-1.7-1.7-1.7H54
		C53.1,15.1,52.3,15.9,52.3,16.8z"/>
	<path class="st0" d="M52.3,20.2H33.8c-3.2,0-5.8,2.6-5.8,5.8v89.4c0,3.2,2.6,5.8,5.8,5.8h62.3c3.2,0,5.8-2.6,5.8-5.8V26
		c0-3.2-2.6-5.8-5.8-5.8H76.8"/>
	<polyline class="st0" points="45.7,28.8 36.6,28.8 36.6,112.6 80.6,112.6 93.4,99.8 93.4,28.8 84.3,28.8 	"/>
	<polyline class="st0" points="58.4,64.5 51.5,71.7 48.2,68.4 	"/>
	<line class="st0" x1="48.6" y1="51.5" x2="56.7" y2="43.4"/>
	<line class="st0" x1="56.7" y1="51.5" x2="48.6" y2="43.4"/>
	<line class="st0" x1="48.6" y1="93.6" x2="56.7" y2="85.5"/>
	<line class="st0" x1="56.7" y1="93.6" x2="48.6" y2="85.5"/>
	<line class="st0" x1="62.6" y1="51.5" x2="86.2" y2="51.5"/>
	<line class="st0" x1="62.6" y1="72.2" x2="86.2" y2="72.2"/>
	<polyline class="st0" points="77.8,107.4 77.8,97 88.2,97 	"/>
</g>
</svg>
