<?xml version="1.0" encoding="utf-8"?>
<!-- Generator: Adobe Illustrator 22.0.1, SVG Export Plug-In . SVG Version: 6.00 Build 0)  -->
<svg version="1.1" id="Layer_1" xmlns="http://www.w3.org/2000/svg" xmlns:xlink="http://www.w3.org/1999/xlink" x="0px" y="0px"
	 viewBox="0 0 130 130" style="enable-background:new 0 0 130 130;" xml:space="preserve">
<style type="text/css">
	.st0{fill:#E32227;}
	.st1{fill:#2C2A29;}
	.st2{fill:#FFFFFF;}
</style>
<g>
	<g id="Layer_x0020_1">
		<g id="_826523984">
			<g>
				<rect x="6" y="42.6" class="st0" width="117.9" height="27.8"/>
				<path class="st1" d="M60.1,48.2v17.7h9.5c4,0,9.3-2.4,9.3-8.8c0-6.4-5.2-8.8-9.3-8.8H60.1z M65.5,52.5v9h4.1c1.3,0,4-1.4,4-4.5
					c0-3.1-2.5-4.5-4-4.5H65.5z"/>
				<polygon class="st1" points="81.4,65.8 81.4,48.2 98.2,48.2 98.2,52.7 86.6,52.7 86.6,55.1 94.9,55.1 94.9,59.4 86.6,59.4
					86.6,65.8 				"/>
				<polygon class="st1" points="38.4,65.8 38.4,48.2 43.5,48.2 43.5,54.5 51.3,54.5 51.3,48.2 56.5,48.2 56.5,65.8 51.3,65.8
					51.3,58.9 43.5,58.9 43.5,65.8 				"/>
				<path class="st1" d="M104.6,57.2c0-2.8,2-4.4,5.8-4.5c2.2,0.1,4.2,0.6,5.7,1.8l1.8-4.5c-2.3-1.2-5.6-1.9-9.1-1.7
					c-6,0.5-9.3,3.5-9.7,8.9c0.4,5.4,3.7,8.3,9.7,8.9c4.1,0.2,7.3-0.7,9.7-2.2l-2.6-4.3c-1.5,1.2-3.3,1.8-5.5,1.9
					C106.4,61.4,104.6,59.9,104.6,57.2z"/>
				<path class="st2" d="M59.1,47.1v17.7h9.5c4,0,9.3-2.4,9.3-8.8c0-6.4-5.2-8.8-9.3-8.8H59.1z M64.6,51.4v9h4.1c1.3,0,4-1.4,4-4.5
					s-2.5-4.5-4-4.5H64.6z"/>
				<polygon class="st2" points="80.4,64.8 80.4,47.1 97.2,47.1 97.2,51.7 85.7,51.7 85.7,54.1 93.9,54.1 93.9,58.3 85.7,58.3
					85.7,64.8 				"/>
				<polygon class="st2" points="37.4,64.8 37.4,47.1 42.5,47.1 42.5,53.5 50.4,53.5 50.4,47.1 55.5,47.1 55.5,64.8 50.4,64.8
					50.4,57.9 42.5,57.9 42.5,64.8 				"/>
				<path class="st2" d="M103.6,56.1c0-2.8,2-4.4,5.8-4.5c2.2,0.1,4.2,0.6,5.7,1.8l1.8-4.5c-2.3-1.2-5.6-1.9-9.1-1.7
					c-6,0.5-9.3,3.5-9.7,8.9c0.4,5.4,3.7,8.3,9.7,8.9c4.1,0.2,7.3-0.7,9.7-2.2l-2.6-4.3c-1.5,1.2-3.3,1.8-5.5,1.9
					C105.4,60.3,103.6,58.9,103.6,56.1z"/>
				<polygon class="st1" points="12.3,47.1 17.6,47.1 19,48.6 19,47.1 31,47.1 31,52.4 29.6,53.9 31,53.9 31,65.8 25.7,65.8
					24.2,64.4 24.2,65.8 12.3,65.8 12.3,60.6 13.7,59.1 12.3,59.1 				"/>
				<polygon class="st2" points="14.8,59.3 23.3,59.3 23.3,63.3 14.8,63.3 				"/>
				<polygon class="st2" points="20,49.6 28.4,49.6 28.4,53.6 20,53.6 				"/>
				<polygon class="st0" points="14.8,49.6 18.8,49.6 18.8,58.3 14.8,58.3 				"/>
				<polygon class="st2" points="24.5,54.6 28.5,54.6 28.5,63.3 24.5,63.3 				"/>
			</g>
			<polygon class="st1" points="6,87.4 124,87.4 124,71.7 6,71.7 			"/>
			<path class="st2" d="M11.9,74.6h3c0.8,0,1.3,0.1,1.7,0.3c0.4,0.1,0.7,0.4,1,0.9c0.3,0.4,0.6,0.9,0.8,1.5c0.2,0.7,0.3,1.5,0.3,2.4
				c0,0.9-0.1,1.6-0.3,2.2c-0.2,0.6-0.4,1.1-0.8,1.5c-0.3,0.4-0.6,0.7-1,0.9c-0.4,0.1-1,0.2-1.6,0.2h-3.1V74.6z M13.5,76.3v6.5h1.2
				c0.5,0,0.9,0,1.1-0.1c0.2-0.1,0.4-0.2,0.6-0.4c0.2-0.2,0.3-0.5,0.4-1c0.1-0.4,0.1-1,0.1-1.7s0-1.3-0.1-1.7
				c-0.1-0.4-0.2-0.8-0.5-1c-0.2-0.3-0.5-0.4-0.8-0.5c-0.2-0.1-0.7-0.1-1.3-0.1H13.5z"/>
			<polygon class="st2" points="27.2,84.5 27.2,74.6 33.3,74.6 33.3,76.3 28.8,76.3 28.8,78.5 32.9,78.5 32.9,80.1 28.8,80.1
				28.8,82.8 33.4,82.8 33.4,84.5 			"/>
			<path class="st2" d="M42,84.5v-9.9h2.6c1,0,1.6,0,1.9,0.1c0.5,0.2,0.9,0.5,1.2,1c0.3,0.5,0.5,1.1,0.5,1.9c0,0.7-0.1,1.3-0.4,1.8
				c-0.3,0.5-0.6,0.9-1,1c-0.4,0.2-1.1,0.3-2.1,0.3h-1v3.7H42z M43.6,76.3v2.8h0.9c0.6,0,1,0,1.2-0.1c0.2-0.1,0.4-0.2,0.5-0.5
				c0.1-0.2,0.2-0.5,0.2-0.8s-0.1-0.6-0.2-0.8c-0.1-0.2-0.3-0.4-0.5-0.5c-0.2-0.1-0.7-0.1-1.3-0.1H43.6z"/>
			<path class="st2" d="M56.3,79.6c0-1.2,0.2-2.1,0.5-2.9c0.4-0.8,0.8-1.3,1.4-1.7c0.6-0.4,1.2-0.6,2-0.6c1.2,0,2.1,0.4,2.9,1.3
				c0.7,0.9,1.1,2.1,1.1,3.8c0,1.7-0.4,2.9-1.2,3.9c-0.7,0.8-1.6,1.2-2.8,1.2c-1.1,0-2.1-0.4-2.8-1.2C56.7,82.5,56.3,81.2,56.3,79.6
				z M58,79.5c0,1.1,0.2,2,0.6,2.6c0.5,0.6,1,0.9,1.6,0.9c0.7,0,1.2-0.3,1.6-0.9s0.6-1.4,0.6-2.6c0-1.2-0.2-2-0.6-2.6
				c-0.4-0.5-1-0.8-1.6-0.8c-0.7,0-1.2,0.3-1.6,0.8C58.2,77.5,58,78.4,58,79.5z"/>
			<path class="st2" d="M72.2,81.3l1.6-0.2c0.2,1.2,0.8,1.9,1.8,1.9c0.5,0,0.9-0.1,1.1-0.4c0.3-0.3,0.4-0.6,0.4-1
				c0-0.2,0-0.4-0.1-0.6c-0.1-0.1-0.2-0.3-0.5-0.4c-0.2-0.1-0.7-0.3-1.4-0.5c-0.7-0.2-1.2-0.4-1.6-0.7c-0.3-0.2-0.6-0.6-0.8-1
				c-0.2-0.4-0.3-0.8-0.3-1.3c0-0.5,0.1-1,0.4-1.5c0.2-0.4,0.6-0.8,1-1c0.4-0.2,1-0.3,1.6-0.3c1,0,1.7,0.2,2.2,0.8
				c0.5,0.5,0.8,1.3,0.9,2.2l-1.7,0.1c0-0.5-0.2-0.9-0.5-1.1c-0.2-0.2-0.6-0.3-1-0.3c-0.4,0-0.8,0.1-1,0.3c-0.2,0.1-0.3,0.4-0.3,0.7
				c0,0.3,0.1,0.5,0.3,0.7c0.2,0.2,0.7,0.4,1.5,0.6c0.8,0.2,1.4,0.5,1.8,0.8c0.3,0.2,0.6,0.6,0.8,1c0.2,0.4,0.3,1,0.3,1.5
				c0,0.9-0.2,1.6-0.8,2.2c-0.5,0.6-1.4,0.9-2.5,0.9C73.6,84.6,72.4,83.5,72.2,81.3z"/>
			<polygon class="st2" points="87.3,84.5 87.3,74.6 88.9,74.6 88.9,84.5 			"/>
			<polygon class="st2" points="99.5,84.5 99.5,76.3 97.1,76.3 97.1,74.6 103.5,74.6 103.5,76.3 101.1,76.3 101.1,84.5 			"/>
			<path class="st2" d="M111.3,81.3l1.6-0.2c0.2,1.2,0.8,1.9,1.8,1.9c0.5,0,0.9-0.1,1.1-0.4c0.3-0.3,0.4-0.6,0.4-1
				c0-0.2,0-0.4-0.1-0.6c-0.1-0.1-0.2-0.3-0.5-0.4c-0.2-0.1-0.7-0.3-1.5-0.5c-0.7-0.2-1.2-0.4-1.5-0.7c-0.3-0.2-0.6-0.6-0.8-1
				c-0.2-0.4-0.3-0.8-0.3-1.3c0-0.5,0.1-1,0.4-1.5c0.2-0.4,0.6-0.8,1-1c0.4-0.2,1-0.3,1.6-0.3c1,0,1.7,0.2,2.2,0.8
				c0.5,0.5,0.8,1.3,0.9,2.2l-1.7,0.1c0-0.5-0.2-0.9-0.5-1.1c-0.2-0.2-0.6-0.3-1-0.3s-0.8,0.1-1,0.3c-0.2,0.1-0.3,0.4-0.3,0.7
				c0,0.3,0.1,0.5,0.3,0.7c0.2,0.2,0.7,0.4,1.5,0.6c0.8,0.2,1.4,0.5,1.8,0.8c0.3,0.2,0.6,0.6,0.8,1c0.2,0.4,0.3,1,0.3,1.5
				c0,0.9-0.2,1.6-0.8,2.2c-0.5,0.6-1.4,0.9-2.5,0.9C112.6,84.6,111.5,83.5,111.3,81.3z"/>
		</g>
	</g>
	<path class="st0" d="M65.1,51.5v8.3h3.6c1.2,0,3.5-1.3,3.5-4.2s-2.2-4.2-3.5-4.2H65.1z"/>
	<g>
		<path class="st1" d="M69.2,52.1c0.5,0,1.2,0.2,1.9,0.6c-0.9-1.2-2.2-1.8-3.2-1.8h-4.1v9h1.3v-7.8H69.2z"/>
	</g>
</g>
</svg>
