<?xml version="1.0" encoding="utf-8"?>
<!-- Generator: Adobe Illustrator 22.0.1, SVG Export Plug-In . SVG Version: 6.00 Build 0)  -->
<svg version="1.1" id="Layer_1" xmlns="http://www.w3.org/2000/svg" xmlns:xlink="http://www.w3.org/1999/xlink" x="0px" y="0px"
	 viewBox="0 0 130 130" style="enable-background:new 0 0 130 130;" xml:space="preserve">
<style type="text/css">
	.st0{fill:#202C5C;}
	.st1{fill:#202D5C;}
	.st2{fill:none;stroke:#202D5C;stroke-width:2;stroke-miterlimit:10;}
</style>
<g>
	<path class="st0" d="M59.7,8.8h10.6l0,0c-0.6,0.9-1,1.4-1.1,1.6h-2.8c0.4,0.4,0.6,1,0.8,1.6h3c0.1,0,0.1,0,0.1,0.1
		c-0.7,1-1,1.5-1,1.5h-1.9c-0.1,0.5-0.3,1.1-0.8,1.9c-0.6,0.8-1.2,1.2-1.8,1.4c-1,0.5-2,0.8-3,0.8l0,0c0,0.1,2.1,2.6,6.3,7.5h-2.8
		c-4.1-4.8-6.2-7.2-6.2-7.3v-1.4v-0.1c0.4,0.1,0.8,0.1,1.3,0.1c2.3,0,3.8-0.8,4.3-2.3c0.1-0.3,0.1-0.4,0.1-0.7h-6.3
		c0,0-0.1,0-0.1-0.1c0.7-1,1.1-1.5,1.1-1.5h5l0,0c-0.3-0.6-0.8-1-1.6-1.4c-0.6-0.1-1.2-0.2-1.6-0.2h-2.8v-0.1
		C59.3,9.3,59.7,8.8,59.7,8.8z"/>
	<path class="st0" d="M59.7,104.8h10.6l0,0c-0.6,0.9-1,1.4-1.1,1.6h-2.8c0.4,0.4,0.6,1,0.8,1.6h3c0.1,0,0.1,0,0.1,0.1
		c-0.7,1-1,1.5-1,1.5h-1.9c-0.1,0.5-0.3,1.1-0.8,1.9c-0.6,0.8-1.2,1.2-1.8,1.4c-1,0.5-2,0.8-3,0.8l0,0c0,0.1,2.1,2.6,6.3,7.5h-2.8
		c-4.1-4.8-6.2-7.2-6.2-7.3v-1.4v-0.1c0.4,0.1,0.8,0.1,1.3,0.1c2.3,0,3.8-0.8,4.3-2.3c0.1-0.3,0.1-0.4,0.1-0.7h-6.3
		c0,0-0.1,0-0.1-0.1c0.7-1,1.1-1.5,1.1-1.5h5l0,0c-0.3-0.6-0.8-1-1.6-1.4c-0.6-0.1-1.2-0.2-1.6-0.2h-2.8v-0.1
		C59.3,105.3,59.7,104.8,59.7,104.8z"/>
	<path class="st0" d="M106.7,58.8h10.6l0,0c-0.6,0.9-1,1.4-1.1,1.6h-2.8c0.4,0.4,0.6,1,0.8,1.6h3c0.1,0,0.1,0,0.1,0.1
		c-0.7,1-1,1.5-1,1.5h-1.9c-0.1,0.5-0.3,1.1-0.8,1.9c-0.6,0.8-1.2,1.2-1.8,1.4c-1,0.5-2,0.8-3,0.8l0,0c0,0.1,2.1,2.6,6.3,7.5h-2.8
		c-4.1-4.8-6.2-7.2-6.2-7.3v-1.4v-0.1c0.4,0.1,0.8,0.1,1.3,0.1c2.3,0,3.8-0.8,4.3-2.3c0.1-0.3,0.1-0.4,0.1-0.7h-6.3
		c0,0-0.1,0-0.1-0.1c0.7-1,1.1-1.5,1.1-1.5h5l0,0c-0.3-0.6-0.8-1-1.6-1.4c-0.6-0.1-1.2-0.2-1.6-0.2h-2.8v-0.1
		C106.3,59.3,106.7,58.8,106.7,58.8z"/>
	<path class="st0" d="M56.4,53h18.1l0,0c-1.1,1.6-1.7,2.5-1.8,2.7h-4.8c0.6,0.8,1.1,1.7,1.4,2.8h5.1c0.1,0,0.1,0,0.1,0.1
		c-1.2,1.7-1.7,2.6-1.7,2.6h-3.3c-0.1,0.9-0.5,1.9-1.3,3.2c-1.1,1.3-2,2-3,2.5c-1.7,0.9-3.4,1.3-5,1.3l0,0c0,0.1,3.6,4.4,10.8,12.9
		h-4.8C59,72.7,55.5,68.7,55.5,68.6v-2.5V66c0.6,0.1,1.4,0.1,2.3,0.1c4,0,6.4-1.3,7.4-3.9c0.1-0.4,0.2-0.8,0.2-1.2H54.6
		c0,0-0.1,0-0.1-0.1c1.2-1.7,1.8-2.6,1.8-2.6h8.6l0,0c-0.5-1-1.4-1.7-2.8-2.4c-1.1-0.2-2-0.3-2.8-0.3h-4.8v-0.1
		C55.7,53.9,56.2,53,56.4,53z"/>
	<path class="st0" d="M13.7,58.8h10.6l0,0c-0.6,0.9-1,1.4-1.1,1.6h-2.8c0.4,0.4,0.6,1,0.8,1.6h3c0.1,0,0.1,0,0.1,0.1
		c-0.7,1-1,1.5-1,1.5h-1.9c-0.1,0.5-0.3,1.1-0.8,1.9c-0.6,0.8-1.2,1.2-1.8,1.4c-1,0.5-2,0.8-3,0.8l0,0c0,0.1,2.1,2.6,6.3,7.5h-2.8
		c-4.1-4.8-6.2-7.2-6.2-7.3v-1.4v-0.1c0.4,0.1,0.8,0.1,1.3,0.1c2.3,0,3.8-0.8,4.3-2.3c0.1-0.3,0.1-0.4,0.1-0.7h-6.3
		c0,0-0.1,0-0.1-0.1c0.7-1,1.1-1.5,1.1-1.5h5l0,0c-0.3-0.6-0.8-1-1.6-1.4c-0.6-0.1-1.2-0.2-1.6-0.2h-2.8v-0.1
		C13.3,59.3,13.7,58.8,13.7,58.8z"/>
	<path class="st1" d="M64.5,97.5c-17.3,0-31.4-14.1-31.4-31.4c0-17.3,14.1-31.4,31.4-31.4c17.3,0,31.4,14.1,31.4,31.4
		C95.9,83.4,81.8,97.5,64.5,97.5L64.5,97.5z M100.1,66.1c0-9.5-3.7-18.5-10.4-25.2c-5.8-5.8-13.3-9.4-21.3-10.2
		c-1.3-0.1-2.6-0.2-3.9-0.2c-1.2,0-2.5,0.1-3.7,0.2c-8.1,0.8-15.6,4.4-21.5,10.2c-6.7,6.7-10.4,15.7-10.4,25.2
		c0,9.5,3.7,18.5,10.4,25.2c5.9,5.9,13.4,9.4,21.5,10.2c1.2,0.1,2.4,0.2,3.7,0.2c1.3,0,2.6-0.1,3.8-0.2c8.1-0.9,15.6-4.4,21.4-10.2
		C96.4,84.5,100.1,75.6,100.1,66.1L100.1,66.1z"/>
	<path class="st1" d="M55.9,113.1c-0.2-0.8-0.3-1.7-0.3-2.6c0-0.5,0-1.1,0.1-1.6l0,0c0-0.2,0.1-0.5,0.2-0.7
		c-16.2-3.3-29.1-15.7-33.1-31.6c-0.7,0.7-3.3,3.1-4,3.6C21,87.5,25,94.3,30.7,99.9C37.6,106.8,46.4,111.4,55.9,113.1L55.9,113.1z"
		/>
	<path class="st1" d="M74.5,19.3c0.1,0.4,0.1,0.8,0.1,1.2c0,0.9-0.1,1.8-0.3,2.6c-0.1,0.3-0.2,0.7-0.3,1c16,3.6,28.6,16.1,32.4,32
		c0.1-0.1,0.2-0.3,0.3-0.4c0.1-0.2,0.3-0.3,0.4-0.4c0.5-0.5,2.5-2.7,3.1-3.2c-2.3-7.4-6.3-14.2-11.9-19.9
		C91.7,25.6,83.5,21.2,74.5,19.3L74.5,19.3z"/>
	<path class="st1" d="M22.3,55.3c0,0,0.1,0.1,0.1,0.1c0.1,0.1,0.2,0.2,0.3,0.3c3.9-15.7,16.4-28,32.2-31.6c-0.1-0.3-0.2-0.6-0.3-0.9
		c0-0.1,0-0.1,0-0.2c-0.1-0.6-0.2-1.2-0.2-1.8c0-0.7,0.1-1.4,0.3-2c-9,1.9-17.3,6.3-24,13C25,37.9,21,44.6,18.7,52
		C19.4,52.5,21.7,54.7,22.3,55.3L22.3,55.3z"/>
	<path class="st1" d="M110.2,80c-0.6-0.5-3.3-2.9-4-3.5c-4,15.8-16.7,28.2-32.7,31.7c0.1,0.3,0.1,0.7,0.2,1c0,0.3,0.1,0.6,0.1,0.9
		c0,1.1-0.3,2.2-0.9,3.1c9.6-1.7,18.4-6.3,25.4-13.3C103.9,94.2,108,87.4,110.2,80L110.2,80z"/>
	<path class="st2" d="M64.5,38.8c-15.1,0-27.3,12.2-27.3,27.3c0,15.1,12.2,27.3,27.3,27.3c15.1,0,27.3-12.2,27.3-27.3
		C91.8,51,79.5,38.8,64.5,38.8L64.5,38.8z"/>
</g>
</svg>
