<?xml version="1.0" encoding="utf-8"?>
<!-- Generator: Adobe Illustrator 22.0.1, SVG Export Plug-In . SVG Version: 6.00 Build 0)  -->
<svg version="1.1" id="Layer_1" xmlns="http://www.w3.org/2000/svg" xmlns:xlink="http://www.w3.org/1999/xlink" x="0px" y="0px"
	 viewBox="0 0 130 130" style="enable-background:new 0 0 130 130;" xml:space="preserve">
<style type="text/css">
	.st0{fill:#212E5C;}
</style>
<g>
	<path class="st0" d="M87.7,70.5c-0.2,0.5-0.6,0.7-1.1,0.8l0,0.1c2.6,1.3,4.6,3.3,6,6.2c0.1,0.3,0.3,0.5,0.4,0.8c0,0,0,0.1,0,0.1
		c0,0,0.2,0.3,0.4,0.6v-1c0-1.1,0.3-2.2,0.8-3.1c-2.5-4.1-5.9-6.1-9.4-7.1l2,0.9C87.6,69,88,69.8,87.7,70.5z"/>
	<path class="st0" d="M34.7,72.1c-0.8-0.3-1.5-0.8-1.9-1.6c-0.4-0.8-0.5-1.6-0.2-2.5c0.3-0.8,0.8-1.5,1.6-1.9
		c0.8-0.4,1.6-0.5,2.5-0.2l0.7,0.2c0.3-0.9,0.6-1.7,0.9-2.5l-0.8-0.3C36,62.9,34.4,63,33,63.7c-1.4,0.7-2.5,1.9-3,3.4
		c-0.5,1.5-0.4,3.1,0.3,4.5c0.1,0.2,0.2,0.3,0.3,0.5C31.9,71.7,33.3,71.6,34.7,72.1z"/>
	<path class="st0" d="M53.2,89.6c0,0,0.1-0.1,0.1-0.1C53.2,89.6,53.2,89.6,53.2,89.6z"/>
	<path class="st0" d="M52.8,90c0.1,0,0.1-0.1,0.2-0.1C52.9,89.9,52.8,90,52.8,90z"/>
	<path class="st0" d="M51.7,90.1c0.1,0,0.2,0,0.2,0.1C51.9,90.1,51.8,90.1,51.7,90.1z"/>
	<path class="st0" d="M53.3,89.4C53.3,89.4,53.3,89.4,53.3,89.4C53.3,89.4,53.3,89.4,53.3,89.4C53.3,89.4,53.3,89.4,53.3,89.4z"/>
	<path class="st0" d="M52.3,90.1c0.1,0,0.1,0,0.2,0C52.4,90.1,52.3,90.1,52.3,90.1z"/>
	<path class="st0" d="M52.5,90.1c0.1,0,0.1,0,0.2-0.1C52.7,90,52.6,90.1,52.5,90.1z"/>
	<path class="st0" d="M53.1,89.7c0,0-0.1,0.1-0.1,0.1C53,89.8,53.1,89.8,53.1,89.7z"/>
	<path class="st0" d="M52.2,90.1c-0.1,0-0.1,0-0.2,0C52.1,90.1,52.1,90.2,52.2,90.1C52.1,90.2,52.2,90.2,52.2,90.1z"/>
	<path class="st0" d="M31.9,80.7c-0.8-0.3-1.5-0.8-1.9-1.6c-0.4-0.8-0.5-1.6-0.2-2.4c0.6-1.7,2.4-2.6,4.1-2.1l3.4,1.1
		c-0.2-1-0.4-2-0.5-3l-2-0.7c-1.4-0.4-2.8-0.4-4,0.1c-1.6,0.6-2.9,1.9-3.5,3.7c-0.5,1.5-0.4,3.1,0.3,4.5c0.1,0.2,0.2,0.3,0.3,0.5
		C29.1,80.4,30.5,80.3,31.9,80.7z"/>
	<path class="st0" d="M31.8,90.3L29,89.4c-1.7-0.6-2.6-2.4-2.1-4.1c0.5-1.7,2.4-2.6,4-2.1l20.7,6.8l0,0c0.1,0,0.2,0,0.2,0.1
		c0,0,0.1,0,0.1,0c0.1,0,0.1,0,0.2,0c0,0,0.1,0,0.1,0c0.1,0,0.1,0,0.2,0c0,0,0.1,0,0.1,0c0.1,0,0.1,0,0.2-0.1c0,0,0,0,0,0
		c0.1,0,0.1-0.1,0.2-0.1c0,0,0,0,0.1-0.1c0,0,0.1-0.1,0.1-0.1c0,0,0,0,0.1-0.1c0,0,0.1-0.1,0.1-0.1c0,0,0,0,0-0.1c0,0,0,0,0,0
		C48.9,89,44.9,87,41.9,84l-10-3.3c-1.4-0.4-2.8-0.4-4,0.1c-1.6,0.6-2.9,1.9-3.5,3.7c-0.8,2.5,0.1,5.1,2.1,6.6
		C28,90.1,29.9,89.7,31.8,90.3z"/>
	<polygon class="st0" points="49.7,96.2 34,91 49.7,96.2 49.7,96.2 	"/>
	<path class="st0" d="M93.5,109.6v-0.7H90H78.2c-1.3-0.1-21.9-2-28.7-3.2c-5.2-0.9-20.3-6.6-20.4-6.7c0,0,0,0-0.1,0
		c-1.7-0.6-2.6-2.4-2.1-4c0.6-1.7,2.4-2.6,4-2.1l20.7,6.8c0.7,0.2,1.5-0.2,1.7-0.9c0,0,0,0,0-0.1c0.2-0.7-0.2-1.4-0.9-1.7l-2.7-0.9
		L34,91l-2.2-0.7h0c-1.9-0.6-3.8-0.2-5.3,0.8c-1,0.7-1.8,1.7-2.2,3c-1,3.1,0.7,6.4,3.8,7.5c1,0.4,15.5,5.9,20.9,6.8
		c7.1,1.2,28.1,3.1,29,3.2c0,0,0.1,0,0.1,0h15.7C93.6,111,93.5,110.3,93.5,109.6z"/>
	<path class="st0" d="M99.7,71.8c-2.3,0-4.4,1.3-5.4,3.2c-0.5,0.9-0.8,2-0.8,3.1v1v29.9v0.7c0,0.7,0.1,1.4,0.3,2
		c0.8,2.5,3.2,4.2,5.9,4.2c3.4,0,6.3-2.8,6.3-6.3V78C106,74.6,103.2,71.8,99.7,71.8z M103.3,109.6c0,2-1.6,3.5-3.5,3.5
		c-1.9,0-3.5-1.6-3.5-3.5V78c0-1.9,1.6-3.5,3.5-3.5c1.9,0,3.5,1.6,3.5,3.5V109.6z"/>
	<path class="st0" d="M37.4,66.2c-0.5,1.6-0.7,3.3-0.7,5c0,0.5,0,1,0.1,1.5c0.1,1,0.3,2,0.5,3c0.8,3.2,2.5,6,4.7,8.3
		c3,3,7,5,11.4,5.4c0,0,0,0,0,0c0.5,0,1.1,0.1,1.6,0.1c8.6,0,15.9-6,17.8-14l-2.5-1.1c-1.5,7.1-7.8,12.4-15.3,12.4
		c-8.6,0-15.6-7-15.6-15.6c0-8.6,7-15.6,15.6-15.6c4,0,7.7,1.5,10.5,4c0.5,0.1,1.1,0.2,1.6,0.4l3.6,1.5c-3.2-5.2-9-8.7-15.6-8.7
		c-7.4,0-13.8,4.4-16.7,10.7C37.9,64.4,37.6,65.3,37.4,66.2z"/>
	<path class="st0" d="M96.2,42c0-9.6-7.8-17.5-17.5-17.5c-9.6,0-17.5,7.8-17.5,17.5c0,9.6,7.8,17.5,17.5,17.5
		C88.4,59.4,96.2,51.6,96.2,42z M78.7,27.2c8.1,0,14.8,6.6,14.8,14.8c0,8.1-6.6,14.8-14.8,14.8C70.6,56.7,64,50.1,64,42
		C64,33.8,70.6,27.2,78.7,27.2z"/>
	<path class="st0" d="M67,60.1c-0.5-0.2-1-0.4-1.6-0.4c-1.7-0.2-3.3,0.3-4.6,1.3c-0.7,0.6-1.3,1.3-1.6,2.2c-0.1,0.2-0.1,0.4-0.2,0.5
		c-0.2,0.6-0.3,1.2-0.3,1.8c0,2.3,1.3,4.5,3.6,5.5l7.9,3.4l2.5,1.1l8.3,3.6c-0.4,1.3-0.7,3.5,0.2,5.8c1.1,2.7,3.6,4.7,7.4,6
		C88.8,91,89,91,89.1,91c0.6,0,1.1-0.4,1.3-0.9c0.2-0.7-0.1-1.5-0.8-1.7c-0.2-0.1-0.4-0.2-0.6-0.2c-2.7-1-4.4-2.4-5.1-4.2
		C82.8,81.5,84,79,84,79c0.2-0.3,0.2-0.7,0.1-1.1c-0.1-0.4-0.4-0.6-0.7-0.8l-20-8.6c-1.6-0.7-2.4-2.6-1.7-4.2
		c0.7-1.6,2.6-2.4,4.2-1.7l20,8.6c0.2,0.1,0.5,0.1,0.7,0.1c0.4-0.1,0.9-0.3,1.1-0.8c0.3-0.7,0-1.5-0.7-1.8l-2-0.9l-14.4-6.2L67,60.1
		z"/>
	<path class="st0" d="M38.8,55.6c0.7,0,1.4-0.6,1.4-1.4V37.9c0-0.8-0.6-1.4-1.4-1.4c-0.8,0-1.4,0.6-1.4,1.4v16.3
		C37.4,55,38,55.6,38.8,55.6z"/>
	<path class="st0" d="M59.2,33.5v-18c0-0.8-0.6-1.4-1.4-1.4c-0.7,0-1.4,0.6-1.4,1.4v18c0,0.7,0.6,1.4,1.4,1.4
		C58.5,34.9,59.2,34.3,59.2,33.5z"/>
	<path class="st0" d="M100.1,39.2V26.6c0-0.8-0.6-1.4-1.4-1.4c-0.8,0-1.4,0.6-1.4,1.4v12.6c0,0.8,0.6,1.4,1.4,1.4
		C99.5,40.5,100.1,39.9,100.1,39.2z"/>
	<g>
		<path class="st0" d="M48.6,64.7h9.5v0c-0.6,0.9-0.9,1.3-1,1.4h-2.5c0.4,0.4,0.6,0.9,0.7,1.5h2.7c0,0,0,0,0,0
			c-0.6,0.9-0.9,1.4-0.9,1.4h-1.8c0,0.5-0.3,1-0.7,1.7c-0.5,0.7-1.1,1.1-1.6,1.3c-0.9,0.4-1.8,0.7-2.7,0.7v0c0,0.1,1.9,2.3,5.7,6.8
			h-2.5C50,75.2,48.1,73,48.1,73v-1.3l0,0c0.3,0,0.7,0.1,1.2,0.1c2.1,0,3.4-0.7,3.9-2c0.1-0.2,0.1-0.4,0.1-0.6h-5.7c0,0,0,0,0,0
			c0.6-0.9,0.9-1.4,1-1.4h4.5v0c-0.3-0.5-0.8-0.9-1.5-1.2c-0.5-0.2-1-0.3-1.4-0.3h-2.5v0C48.3,65.2,48.6,64.7,48.6,64.7z"/>
	</g>
	<g>
		<path class="st0" d="M74.5,34.5H84v0c-0.6,0.9-0.9,1.3-1,1.4h-2.5c0.4,0.4,0.6,0.9,0.7,1.5h2.7c0,0,0,0,0,0
			c-0.6,0.9-0.9,1.4-0.9,1.4h-1.8c0,0.5-0.3,1-0.7,1.7c-0.5,0.7-1.1,1.1-1.6,1.3c-0.9,0.4-1.8,0.7-2.7,0.7v0c0,0.1,1.9,2.3,5.7,6.8
			h-2.5C75.9,45,74,42.8,74,42.8v-1.3l0,0c0.3,0,0.7,0.1,1.2,0.1c2.1,0,3.4-0.7,3.9-2c0.1-0.2,0.1-0.4,0.1-0.6h-5.7c0,0,0,0,0,0
			c0.6-0.9,0.9-1.4,1-1.4H79v0c-0.3-0.5-0.8-0.9-1.5-1.2c-0.5-0.2-1-0.3-1.4-0.3h-2.5v0C74.1,35,74.4,34.5,74.5,34.5z"/>
	</g>
</g>
</svg>
