<?xml version="1.0" encoding="utf-8"?>
<!-- Generator: Adobe Illustrator 22.0.1, SVG Export Plug-In . SVG Version: 6.00 Build 0)  -->
<svg version="1.1" id="Layer_1" xmlns="http://www.w3.org/2000/svg" xmlns:xlink="http://www.w3.org/1999/xlink" x="0px" y="0px"
	 viewBox="0 0 130 130" style="enable-background:new 0 0 130 130;" xml:space="preserve">
<style type="text/css">
	.st0{fill:#212E5C;}
</style>
<g>
	<path class="st0" d="M69.8,26.7c0-0.1,0-0.1,0.1-0.2c0-0.1-0.1-0.3-0.1-0.4h-9.1c0,0.3-0.1,0.7-0.4,0.9h9.4
		C69.8,26.8,69.8,26.7,69.8,26.7z"/>
	<path class="st0" d="M46.6,26h-9.1c0,0.1,0,0.2-0.1,0.4c0,0.1,0.1,0.2,0.1,0.3c0,0,0,0.1,0,0.2h9.1C46.6,26.6,46.6,26.3,46.6,26z"
		/>
	<path class="st0" d="M71.1,27.3c-0.5,0-1-0.3-1.2-0.8c0,0.1,0,0.1-0.1,0.2c0,0,0,0.1-0.1,0.2c-0.2,1-1.4,4.9-5.7,8.4h1.8
		c0.5,0,1.1,0.1,1.5,0.3c4-4.1,4.8-8.3,4.9-8.5c0-0.2,0-0.5-0.1-0.7C72.1,26.9,71.6,27.3,71.1,27.3z"/>
	<path class="st0" d="M41.2,35.3h1.7c-4.1-3.4-5.2-7.5-5.3-8.4c0-0.1,0-0.2,0-0.2c0-0.1-0.1-0.2-0.1-0.3c-0.2,0.5-0.6,0.9-1.2,0.9
		c-0.5,0-0.9-0.3-1.1-0.7c-0.1,0.2-0.1,0.4,0,0.5c0,0.3,0.7,4.6,4.6,8.6C40.1,35.5,40.7,35.3,41.2,35.3z"/>
	<path class="st0" d="M36.3,27.3c0.6,0,1-0.4,1.2-0.9c0-0.1,0.1-0.2,0.1-0.4c0-2.5,2-4.5,4.5-4.5c2.5,0,4.5,2,4.5,4.5
		c0-1.5,0.5-2.9,1.3-4c-1.3-1.8-3.4-3-5.8-3C38.2,19,35,22.1,35,26c0,0.2,0,0.4,0.1,0.5C35.3,27,35.8,27.3,36.3,27.3z"/>
	<path class="st0" d="M46.6,26c0,0.3,0,0.6,0.1,0.9c0.4,3.5,3.4,6.2,7,6.2c0.7,0,1.3-0.6,1.3-1.3c0-0.3-0.1-0.7-0.4-0.9
		c-0.2-0.2-0.5-0.4-0.9-0.4c-2.5,0-4.5-2-4.5-4.5c0-2.5,2-4.5,4.5-4.5c2.5,0,4.6,2,4.6,4.5c0-1.5,0.5-2.9,1.3-4
		c-1.3-1.8-3.4-3-5.8-3c-2.4,0-4.5,1.2-5.8,3C47.1,23.2,46.6,24.5,46.6,26z"/>
	<path class="st0" d="M58.2,26c0,0.3,0.1,0.7,0.4,0.9c0.2,0.2,0.5,0.4,0.9,0.4c0.4,0,0.7-0.1,0.9-0.4c0.2-0.2,0.4-0.5,0.4-0.9
		c0-2.5,2-4.5,4.5-4.5c2.5,0,4.5,2,4.5,4.5c0,0.2,0,0.3,0.1,0.4c0.2,0.5,0.6,0.8,1.2,0.8c0.5,0,1-0.3,1.2-0.8
		c0.1-0.1,0.1-0.3,0.1-0.4c0-3.9-3.2-7.1-7.1-7.1c-2.4,0-4.5,1.2-5.8,3C58.7,23.2,58.2,24.5,58.2,26z"/>
	<path class="st0" d="M66.2,43c12.1,5,20.6,16.8,20.6,30.7c0,1.5-0.1,3-0.3,4.5c0.8-0.1,1.7-0.1,2.6-0.2c0.2-1.4,0.3-2.9,0.3-4.4
		c0-14.2-8.3-26.5-20.4-32.2C68.3,42.3,67.3,42.9,66.2,43z"/>
	<path class="st0" d="M35.1,101.1c-8.8-6-14.6-16-14.6-27.4C20.5,59.8,29,48,41.1,43c-1.2,0-2.2-0.6-2.9-1.5
		C26.3,47.3,18,59.5,18,73.7c0,12.9,6.8,24.1,17.1,30.4c0,0,0,0,0-0.1V101.1z"/>
	<path class="st0" d="M41.1,43c0.1,0,0.1,0,0.2,0h24.6c0.1,0,0.2,0,0.3,0c1.1-0.1,2.1-0.7,2.7-1.5c0.5-0.6,0.8-1.4,0.8-2.3
		c0-1.6-0.9-2.9-2.3-3.5c-0.5-0.2-1-0.3-1.5-0.3H64H42.9h-1.7c-0.6,0-1.1,0.1-1.6,0.3c-1.3,0.6-2.2,1.9-2.2,3.5
		c0,0.9,0.3,1.7,0.8,2.4C38.9,42.4,39.9,43,41.1,43z M39.9,39.2c0-0.7,0.6-1.3,1.3-1.3h24.6c0.7,0,1.3,0.6,1.3,1.3
		c0,0.7-0.6,1.3-1.3,1.3H41.2C40.5,40.5,39.9,39.9,39.9,39.2z"/>
	<path class="st0" d="M109.5,100v2.2c0,1.5-6.2,4.5-17.6,4.5c-9,0-14.8-1.9-16.8-3.4v0.7c0,0.7-0.2,1.3-0.6,1.8
		c3.7,2.2,10.5,3.3,17.4,3.3c10,0,20.1-2.4,20.1-7v-5.8C112,97.8,111.1,99,109.5,100z"/>
	<path class="st0" d="M74.4,96.2v-1.9c-1.6-1-2.5-2.2-2.5-3.6v3.6C73,94.8,73.8,95.5,74.4,96.2z"/>
	<path class="st0" d="M109.5,94.3v2.2c0,1.5-6.2,4.5-17.6,4.5c-9.2,0-15-1.9-16.9-3.5c0.1,0.3,0.1,0.5,0.1,0.8v2.2
		c3.8,2,10.3,3,16.8,3c6.9,0,13.9-1.2,17.6-3.4c1.6-1,2.5-2.2,2.5-3.6v-5.7C112,92.1,111.1,93.3,109.5,94.3z"/>
	<path class="st0" d="M109.5,88.5v2.2c0,1.5-6.2,4.5-17.6,4.5c-11.4,0-17.5-3-17.5-4.5v-2.2c-1.6-1-2.5-2.2-2.5-3.6v5.7v0
		c0,1.4,0.9,2.6,2.5,3.6c3.6,2.3,10.6,3.4,17.5,3.4c6.9,0,13.9-1.2,17.6-3.4c1.6-1,2.5-2.2,2.5-3.6v0v-5.7
		C112,86.3,111.1,87.5,109.5,88.5z"/>
	<path class="st0" d="M86.5,78.2c-7.9,0.7-14.6,3-14.6,6.7c0,1.4,0.9,2.6,2.5,3.6c3.6,2.3,10.6,3.4,17.5,3.4
		c6.9,0,13.9-1.2,17.6-3.4c1.6-1,2.5-2.2,2.5-3.6c0-4.6-10.1-7-20.1-7c-1,0-1.9,0-2.9,0.1C88.2,78.1,87.3,78.1,86.5,78.2z
		 M109.5,84.9c0,1.5-6.2,4.5-17.6,4.5c-11.4,0-17.5-3-17.5-4.5c0-1.5,6.2-4.5,17.5-4.5C103.3,80.5,109.5,83.4,109.5,84.9z"/>
	<path class="st0" d="M75.2,104v-0.7v-2.8v-2.2c0,1.4-0.9,2.6-2.5,3.6v2.2c0,1.5-6.2,4.5-17.5,4.5s-17.5-3-17.5-4.5v-2.2
		c-1.6-1-2.5-2.2-2.5-3.6v2.8v2.9c0,0,0,0,0,0.1c0.1,4.6,10.1,6.9,20.1,6.9c8.5,0,17.1-1.8,19.5-5.1C75,105.3,75.2,104.7,75.2,104z"
		/>
	<path class="st0" d="M74.4,96.2c-0.6-0.7-1.4-1.4-2.5-1.9c-3.8-2-10.3-3-16.8-3c-10,0-20.1,2.4-20.1,7c0,1.4,0.9,2.6,2.5,3.6
		c3.6,2.3,10.6,3.4,17.5,3.4c6.9,0,13.9-1.2,17.5-3.4c1.6-1,2.5-2.2,2.5-3.6c0-0.3,0-0.6-0.1-0.8C74.9,97,74.7,96.6,74.4,96.2z
		 M37.6,98.3c0-1.5,6.2-4.5,17.5-4.5s17.5,3,17.5,4.5c0,1.5-6.2,4.5-17.5,4.5S37.6,99.8,37.6,98.3z"/>
</g>
<g>
	<path class="st0" d="M46.5,61.2H62v0c-0.9,1.4-1.4,2.2-1.5,2.3h-4.1c0.6,0.7,1,1.5,1.2,2.4h4.4c0.1,0,0.1,0,0.1,0.1
		c-1,1.5-1.5,2.2-1.5,2.2h-2.9c-0.1,0.8-0.4,1.7-1.1,2.8c-0.9,1.1-1.7,1.8-2.5,2.1c-1.5,0.7-2.9,1.1-4.3,1.1v0c0,0.1,3.1,3.8,9.3,11
		h-4.1c-6-7-9.1-10.6-9.1-10.6v-2.1l0-0.1c0.5,0.1,1.2,0.1,1.9,0.1c3.4,0,5.5-1.1,6.3-3.3c0.1-0.3,0.2-0.7,0.2-1H45
		c0,0-0.1,0-0.1-0.1c1-1.5,1.5-2.2,1.6-2.2h7.3v0c-0.4-0.8-1.2-1.5-2.4-2c-0.9-0.3-1.6-0.4-2.3-0.4H45v-0.1
		C46,61.9,46.5,61.2,46.5,61.2z"/>
</g>
</svg>
