<?xml version="1.0" encoding="utf-8"?>
<!-- Generator: Adobe Illustrator 22.0.1, SVG Export Plug-In . SVG Version: 6.00 Build 0)  -->
<svg version="1.1" id="Layer_1" xmlns="http://www.w3.org/2000/svg" xmlns:xlink="http://www.w3.org/1999/xlink" x="0px" y="0px"
	 viewBox="0 0 130 130" style="enable-background:new 0 0 130 130;" xml:space="preserve">
<style type="text/css">
	.st0{fill:#212E5C;}
</style>
<g>
	<path class="st0" d="M111.1,78.2c0.7-1.2,0.7-2.7,0.2-4.1L105.1,58c-2.1-5.3-6.3-9.4-11.6-11.3c1.1-1.4,1.8-3.2,1.8-5.2v-1.2
		c0,0,0,0,0-0.1c0.8-1.3,0.5-5.1-0.2-6.5c-0.5-0.9-1.2-1.6-2.1-2.3c1.2-1.8,1.5-3.7,0.7-5.4c-1-2.4-3.7-4-7.1-4c-3.3,0-6,1.5-7.1,4
		c-0.7,1.8-0.4,3.7,0.7,5.4c-0.9,0.6-1.6,1.4-2.1,2.3c-0.7,1.3-1,5.2-0.2,6.5c0,0,0,0,0,0.1v1.2c0,2,0.7,3.8,1.8,5.2
		c-5.3,1.9-9.5,5.9-11.6,11.3l-3.5,9l-3.7-13.6c-1.7-6.2-6-11.1-11.8-13.4c0.6-1.1,0.9-2.4,0.9-3.8v-3.6c0-0.8-0.1-1.5-0.3-2.3h2.6
		c0.7,0,1.4-0.6,1.4-1.4c0-0.7-0.6-1.4-1.4-1.4h-2.4c-0.4-2.6-1.6-7.2-4.8-7.2c-1.3,0-2,0.3-2.6,0.7c-0.3,0.2-0.5,0.3-1,0.3
		c-0.6,0-0.7-0.1-1-0.3c-0.6-0.4-1.3-0.7-2.6-0.7c-3.2,0-4.4,4.6-4.8,7.2h-2.4c-0.7,0-1.4,0.6-1.4,1.4c0,0.7,0.6,1.4,1.4,1.4h2.6
		c-0.2,0.7-0.3,1.5-0.3,2.3v3.6c0,1.4,0.3,2.6,0.9,3.8C28,42.2,23.6,47.2,22,53.3l-6.1,22.4c-0.3,1.2-0.1,2.5,0.7,3.5
		c0,0,0,0.1,0.1,0.1c-1.1,0.9-1.7,2.3-1.7,3.8v25.3c0,0.7,0.6,1.4,1.4,1.4c0.7,0,1.4-0.6,1.4-1.4V83.1c0-1.2,1-2.3,2.3-2.3
		s2.3,1,2.3,2.3c0,0.7,0.6,1.4,1.4,1.4c0.7,0,1.4-0.6,1.4-1.4c0-1.3-0.5-2.5-1.3-3.4c1.1-0.8,2-1.9,2.5-3.2l3.3-8.9v40.8
		c0,0.7,0.6,1.4,1.4,1.4c0.7,0,1.4-0.6,1.4-1.4V60c0-0.7-0.5-1.2-1.1-1.3c-0.6-0.1-1.3,0.2-1.5,0.9l-5.9,16c-0.6,1.5-2,2.6-3.7,2.6
		c-0.4,0-0.8-0.2-1.1-0.5c-0.3-0.4-0.4-0.8-0.2-1.2L24.6,54c1.5-5.5,5.5-9.9,10.9-11.9c1.6,1.6,3.7,2.5,6.1,2.5c2.4,0,4.5-1,6.1-2.5
		c5.3,1.9,9.4,6.3,10.9,11.9l4.8,17.5c0,0.1,0,0.1,0,0.2l1.3,4.6c0.1,0.4,0,0.9-0.2,1.2c-0.1,0.1-0.2,0.2-0.3,0.3
		c-0.1,0-0.1,0.1-0.1,0.1c-0.2,0.1-0.4,0.2-0.6,0.2c-1.6,0-3.1-1-3.7-2.6l-5.9-16c-0.2-0.6-0.9-1-1.5-0.9C51.5,58.8,51,59.4,51,60
		v48.3c0,0.7,0.6,1.4,1.4,1.4c0.7,0,1.4-0.6,1.4-1.4V67.6l3.3,8.9c1,2.6,3.5,4.3,6.2,4.3c0.5,0,1-0.1,1.4-0.3c0.5,0.2,1,0.3,1.5,0.3
		c2,0,3.8-1.1,4.8-3l3.2-8.4c0.1,0.3,0.3,0.6,0.4,0.8l-5.5,28.8c-0.1,0.4,0,0.8,0.3,1.1c0.3,0.3,0.6,0.5,1,0.5h5.9
		c-0.1,0.1-0.1,0.3-0.1,0.5v7.2c0,0.7,0.6,1.4,1.4,1.4s1.4-0.6,1.4-1.4v-7.2c0-0.2,0-0.3-0.1-0.5h6.4v7.7c0,0.7,0.6,1.4,1.4,1.4
		c0.7,0,1.4-0.6,1.4-1.4v-7.7h6.4c-0.1,0.1-0.1,0.3-0.1,0.5v7.2c0,0.7,0.6,1.4,1.4,1.4c0.7,0,1.4-0.6,1.4-1.4v-7.2
		c0-0.2,0-0.3-0.1-0.5h5.9c0.4,0,0.8-0.2,1-0.5c0.3-0.3,0.4-0.7,0.3-1.1l-5.5-28.8c0.1-0.3,0.3-0.5,0.4-0.8l3.4,8.8
		c0.6,1.3,1.8,2.2,3.2,2.5c-0.4,0.7-0.6,1.5-0.6,2.4c0,0.7,0.6,1.4,1.4,1.4s1.4-0.6,1.4-1.4c0-1.2,1-2.3,2.3-2.3
		c1.2,0,2.3,1,2.3,2.3v25.3c0,0.7,0.6,1.4,1.4,1.4c0.7,0,1.4-0.6,1.4-1.4V83.1C115.1,80.6,113.4,78.6,111.1,78.2z M37.9,23
		c0.6,0,0.8,0.1,1.2,0.3c0.6,0.4,1.2,0.7,2.5,0.7c1.2,0,1.9-0.3,2.5-0.7c0.3-0.2,0.5-0.3,1.2-0.3c0.7,0,1.6,2.1,2,4.5H35.9
		C36.3,25.1,37.2,23,37.9,23z M41.5,42c-1.8,0-3.4-0.8-4.5-2.1c0-0.1-0.1-0.1-0.2-0.2c-0.7-1-1.2-2.2-1.2-3.5v-3.6
		c0-0.8,0.2-1.5,0.5-2.3h10.8c0.3,0.7,0.5,1.5,0.5,2.3v3.6c0,1.3-0.4,2.6-1.2,3.5c-0.1,0.1-0.1,0.1-0.2,0.2C45,41.1,43.3,42,41.5,42
		z M80.8,41.5v-0.6c1.6-0.3,3.7-1.2,5.2-2.6c0.4-0.3,1-0.3,1.3,0c1.5,1.4,3.6,2.3,5.2,2.6v0.6c0,3.2-2.6,5.9-5.9,5.9
		S80.8,44.8,80.8,41.5z M82.1,27.1c0.6-1.4,2.4-2.3,4.6-2.3c2.2,0,4,0.9,4.6,2.3c0.4,1,0.2,2-0.7,3.1c-1.3-0.5-2.7-0.8-3.9-0.8
		s-2.6,0.3-3.9,0.8C82,29.1,81.7,28,82.1,27.1z M80.6,35.1c0.4-0.8,1.3-1.5,2.4-2c0,0,0,0,0,0c1.1-0.5,2.4-0.9,3.6-0.9
		c1.2,0,2.5,0.3,3.6,0.9c0,0,0,0,0,0c1.1,0.5,2,1.2,2.4,2c0.3,0.5,0.4,2.1,0.3,3.2c-1.1-0.3-2.7-0.9-3.8-2c-0.7-0.6-1.6-1-2.5-1
		c-0.9,0-1.8,0.4-2.5,1c-1.1,1-2.7,1.7-3.8,2C80.2,37.2,80.4,35.5,80.6,35.1z M105.1,77.1l-6.3-16.2c-0.3-0.7-1.1-1-1.8-0.8
		c-0.7,0.3-1,1.1-0.8,1.8c1.2,3,1.1,5.6-0.1,7.4c-0.9,1.3-2.5,1.8-3.8,1.5c-0.7-0.2-1.5,0.2-1.7,1c-0.2,0.7,0.2,1.5,1,1.7
		c0.5,0.1,1.1,0.2,1.7,0.2c1.1,0,2.2-0.3,3.1-0.9l4.8,25.3H72.1l4.8-25.3c0.9,0.6,2,0.9,3.1,0.9c0.6,0,1.1-0.1,1.6-0.2
		c0.7-0.2,1.2-0.9,1-1.6c-0.2-0.7-0.9-1.2-1.6-1c-1.3,0.3-2.9-0.2-3.7-1.5c-1.2-1.7-1.2-4.4-0.1-7.4c0.3-0.7-0.1-1.5-0.8-1.8
		c0,0-0.1,0-0.1,0c-0.5-0.1-1,0-1.3,0.3c0,0,0,0,0,0c0,0,0,0,0,0c-0.1,0.1-0.2,0.3-0.3,0.4c0,0,0,0.1,0,0.1l-6.1,15.7
		c-0.3,0.6-0.8,1-1.4,1.3c0.2-0.7,0.2-1.5,0-2.3L66,71.3L70.8,59c2-5,6.2-8.8,11.4-10.1c1.3,0.8,2.8,1.3,4.5,1.3
		c1.6,0,3.2-0.5,4.5-1.3c5.2,1.3,9.4,5.1,11.4,10.1l6.3,16.1c0.3,0.7,0.2,1.5-0.2,2c-0.4,0.6-1.1,1-1.8,1
		C106.1,78.1,105.4,77.7,105.1,77.1z"/>
	<path class="st0" d="M41.5,83.5c-0.7,0-1.4,0.6-1.4,1.4v23.5c0,0.7,0.6,1.4,1.4,1.4c0.7,0,1.4-0.6,1.4-1.4V84.9
		C42.9,84.1,42.3,83.5,41.5,83.5z"/>
</g>
</svg>
