<?xml version="1.0" encoding="utf-8"?>
<!-- Generator: Adobe Illustrator 22.0.1, SVG Export Plug-In . SVG Version: 6.00 Build 0)  -->
<svg version="1.1" id="Layer_1" xmlns="http://www.w3.org/2000/svg" xmlns:xlink="http://www.w3.org/1999/xlink" x="0px" y="0px"
	 viewBox="0 0 130 130" style="enable-background:new 0 0 130 130;" xml:space="preserve">
<style type="text/css">
	.st0{fill:#212E5C;}
</style>
<g>
	<path class="st0" d="M89.9,71.1c-0.2,0.5-0.7,0.8-1.2,0.9l0,0.1c2.8,1.4,5.1,3.7,6.6,6.8c0.1,0.3,0.3,0.6,0.4,0.9
		c0,0,0,0.1,0.1,0.1c0,0,0.2,0.3,0.5,0.7v-1.1c0-1.2,0.3-2.4,0.9-3.4c-2.7-4.4-6.5-6.7-10.3-7.8l2.2,0.9
		C89.9,69.4,90.2,70.3,89.9,71.1z"/>
	<path class="st0" d="M31.7,72.7c-0.9-0.3-1.6-0.9-2-1.8c-0.4-0.8-0.5-1.8-0.2-2.7c0.3-0.9,0.9-1.6,1.8-2c0.8-0.4,1.8-0.5,2.7-0.2
		l0.7,0.2c0.3-1,0.6-1.9,1-2.8l-0.8-0.3c-1.6-0.5-3.4-0.4-5,0.4c-1.5,0.8-2.7,2.1-3.2,3.8c-0.5,1.7-0.4,3.4,0.4,5
		c0.1,0.2,0.2,0.4,0.3,0.5C28.7,72.3,30.3,72.3,31.7,72.7z"/>
	<path class="st0" d="M52,92.1c0,0,0.1-0.1,0.1-0.1C52.1,92,52.1,92,52,92.1z"/>
	<path class="st0" d="M51.6,92.4c0.1,0,0.1-0.1,0.2-0.1C51.7,92.4,51.6,92.4,51.6,92.4z"/>
	<path class="st0" d="M50.4,92.5c0.1,0,0.2,0,0.3,0.1C50.6,92.6,50.5,92.6,50.4,92.5z"/>
	<path class="st0" d="M52.2,91.8C52.2,91.8,52.2,91.8,52.2,91.8C52.2,91.8,52.2,91.8,52.2,91.8C52.2,91.8,52.2,91.8,52.2,91.8z"/>
	<path class="st0" d="M51,92.6c0.1,0,0.1,0,0.2,0C51.1,92.6,51.1,92.6,51,92.6z"/>
	<path class="st0" d="M51.3,92.5c0.1,0,0.2-0.1,0.2-0.1C51.5,92.5,51.4,92.5,51.3,92.5z"/>
	<path class="st0" d="M52,92.1c0,0-0.1,0.1-0.1,0.1C51.9,92.2,51.9,92.2,52,92.1z"/>
	<path class="st0" d="M50.9,92.6c-0.1,0-0.1,0-0.2,0C50.8,92.6,50.8,92.6,50.9,92.6C50.9,92.6,50.9,92.6,50.9,92.6z"/>
	<path class="st0" d="M28.6,82.3c-0.9-0.3-1.6-0.9-2-1.8c-0.4-0.8-0.5-1.8-0.2-2.7C27,76,29,75,30.8,75.6l3.7,1.2
		c-0.3-1.1-0.5-2.2-0.6-3.3l-2.2-0.7c-1.5-0.5-3-0.4-4.4,0.1c-1.7,0.7-3.2,2.1-3.8,4c-0.5,1.7-0.4,3.4,0.4,5
		c0.1,0.2,0.2,0.4,0.3,0.5C25.6,81.9,27.1,81.8,28.6,82.3z"/>
	<path class="st0" d="M28.5,92.8l-3-1c-1.8-0.6-2.9-2.6-2.3-4.4c0.6-1.8,2.6-2.9,4.4-2.3l22.7,7.4l0,0c0.1,0,0.2,0,0.3,0.1
		c0,0,0.1,0,0.1,0c0.1,0,0.1,0,0.2,0c0,0,0.1,0,0.1,0c0.1,0,0.1,0,0.2,0c0,0,0.1,0,0.1,0c0.1,0,0.2-0.1,0.2-0.1c0,0,0,0,0,0
		c0.1,0,0.1-0.1,0.2-0.1c0,0,0,0,0.1-0.1c0,0,0.1-0.1,0.1-0.1c0,0,0-0.1,0.1-0.1c0,0,0.1-0.1,0.1-0.1c0,0,0,0,0-0.1c0,0,0,0,0,0
		c-4.9-0.4-9.3-2.6-12.5-5.9l-11-3.6c-1.5-0.5-3-0.4-4.4,0.1c-1.7,0.7-3.2,2.1-3.8,4c-0.9,2.7,0.1,5.6,2.3,7.2
		C24.4,92.5,26.5,92.1,28.5,92.8z"/>
	<polygon class="st0" points="48.2,99.2 30.9,93.6 48.2,99.2 48.2,99.2 	"/>
	<path class="st0" d="M96.3,113.9v-0.8h-3.9h-13c-1.4-0.1-24.1-2.2-31.5-3.5c-5.7-1-22.3-7.3-22.4-7.3c0,0,0,0-0.1,0
		c-1.8-0.6-2.9-2.6-2.3-4.4c0.6-1.8,2.6-2.9,4.4-2.3l22.7,7.4c0.8,0.3,1.6-0.2,1.9-1c0,0,0,0,0-0.1c0.2-0.8-0.2-1.6-1-1.8l-3-1
		l-17.3-5.6l-2.4-0.8h0c-2-0.7-4.2-0.3-5.8,0.9c-1.1,0.8-2,1.9-2.4,3.3c-1.1,3.4,0.7,7.1,4.1,8.2c1,0.4,17.1,6.4,22.9,7.5
		c7.8,1.4,30.9,3.5,31.9,3.5c0,0,0.1,0,0.1,0h17.3C96.4,115.5,96.3,114.7,96.3,113.9z"/>
	<path class="st0" d="M103.1,72.5c-2.6,0-4.8,1.4-6,3.5c-0.6,1-0.9,2.2-0.9,3.4v1.1v32.8v0.8c0,0.8,0.1,1.5,0.4,2.2
		c0.9,2.7,3.5,4.6,6.5,4.6c3.8,0,6.9-3.1,6.9-6.9V79.3C110,75.5,106.9,72.5,103.1,72.5z M107,113.9c0,2.1-1.7,3.9-3.9,3.9
		c-2.1,0-3.9-1.7-3.9-3.9V79.3c0-2.1,1.7-3.9,3.9-3.9c2.1,0,3.9,1.7,3.9,3.9V113.9z"/>
	<path class="st0" d="M34.7,66.3c-0.5,1.8-0.8,3.6-0.8,5.5c0,0.6,0,1.1,0.1,1.7c0.1,1.1,0.3,2.2,0.6,3.3c0.9,3.5,2.7,6.6,5.1,9.1
		c3.3,3.3,7.6,5.5,12.5,5.9c0,0,0,0,0,0c0.6,0.1,1.2,0.1,1.8,0.1c9.5,0,17.4-6.6,19.5-15.4l-2.8-1.2c-1.6,7.8-8.5,13.6-16.7,13.6
		c-9.4,0-17.1-7.7-17.1-17.1c0-9.4,7.7-17.1,17.1-17.1c4.4,0,8.4,1.7,11.5,4.4c0.6,0.1,1.2,0.2,1.7,0.5l3.9,1.7
		c-3.5-5.7-9.9-9.6-17.1-9.6c-8.1,0-15.1,4.8-18.3,11.8C35.3,64.4,34.9,65.3,34.7,66.3z"/>
	<path class="st0" d="M99.3,39.7c0-10.6-8.6-19.2-19.2-19.2c-10.6,0-19.2,8.6-19.2,19.2c0,10.6,8.6,19.2,19.2,19.2
		C90.7,58.9,99.3,50.3,99.3,39.7z M80.1,23.5c8.9,0,16.2,7.3,16.2,16.2c0,8.9-7.3,16.2-16.2,16.2c-8.9,0-16.2-7.3-16.2-16.2
		C63.9,30.8,71.2,23.5,80.1,23.5z"/>
	<path class="st0" d="M67.2,59.6c-0.6-0.2-1.1-0.4-1.7-0.5c-1.8-0.2-3.6,0.3-5,1.5C59.7,61.2,59,62,58.6,63
		c-0.1,0.2-0.2,0.4-0.2,0.6c-0.2,0.6-0.3,1.3-0.3,2c0,2.5,1.5,4.9,3.9,6l8.7,3.8l2.8,1.2l9.1,4c-0.4,1.5-0.8,3.9,0.2,6.4
		c1.2,3,3.9,5.2,8.2,6.6c0.2,0.1,0.3,0.1,0.5,0.1c0.6,0,1.2-0.4,1.4-1c0.3-0.8-0.2-1.6-0.9-1.9c-0.2-0.1-0.5-0.2-0.7-0.3
		c-2.9-1.1-4.8-2.7-5.6-4.6c-1.1-2.7,0.2-5.4,0.2-5.4c0.2-0.4,0.2-0.8,0.1-1.2c-0.1-0.4-0.4-0.7-0.8-0.9l-21.9-9.5
		c-1.8-0.8-2.6-2.9-1.8-4.6c0.8-1.8,2.8-2.6,4.6-1.8l21.9,9.5c0.3,0.1,0.5,0.1,0.8,0.1c0.5-0.1,0.9-0.4,1.2-0.9c0.3-0.8,0-1.6-0.8-2
		l-2.2-0.9l-15.8-6.8L67.2,59.6z"/>
	<path class="st0" d="M36.2,54.7c0.8,0,1.5-0.7,1.5-1.5V35.3c0-0.8-0.7-1.5-1.5-1.5c-0.8,0-1.5,0.7-1.5,1.5v17.9
		C34.7,54,35.4,54.7,36.2,54.7z"/>
	<path class="st0" d="M58.6,30.5V10.7c0-0.8-0.7-1.5-1.5-1.5c-0.8,0-1.5,0.7-1.5,1.5v19.8c0,0.8,0.7,1.5,1.5,1.5
		C57.9,32,58.6,31.3,58.6,30.5z"/>
	<path class="st0" d="M103.5,36.7V22.8c0-0.8-0.7-1.5-1.5-1.5c-0.8,0-1.5,0.7-1.5,1.5v13.8c0,0.8,0.7,1.5,1.5,1.5
		C102.8,38.2,103.5,37.5,103.5,36.7z"/>
	<g>
		<path class="st0" d="M76.7,34.5H85v0c-0.5,0.8-0.8,1.2-0.8,1.2H82c0.3,0.4,0.5,0.8,0.6,1.3h2.4c0,0,0,0,0,0
			c-0.5,0.8-0.8,1.2-0.8,1.2h-1.5c0,0.4-0.2,0.9-0.6,1.5c-0.5,0.6-0.9,1-1.4,1.1c-0.8,0.4-1.6,0.6-2.3,0.6v0c0,0.1,1.7,2,5,5.9h-2.2
			c-3.2-3.8-4.9-5.7-4.9-5.7v-1.1l0,0c0.3,0,0.6,0.1,1,0.1c1.8,0,3-0.6,3.4-1.8c0.1-0.2,0.1-0.4,0.1-0.5h-4.9c0,0,0,0,0,0
			c0.5-0.8,0.8-1.2,0.8-1.2h3.9v0c-0.2-0.5-0.7-0.8-1.3-1.1c-0.5-0.1-0.9-0.2-1.2-0.2h-2.2v0C76.4,34.9,76.7,34.5,76.7,34.5z"/>
	</g>
	<g>
		<path class="st0" d="M48.7,66.5H57v0c-0.5,0.8-0.8,1.2-0.8,1.2H54c0.3,0.4,0.5,0.8,0.6,1.3h2.4c0,0,0,0,0,0
			c-0.5,0.8-0.8,1.2-0.8,1.2h-1.5c0,0.4-0.2,0.9-0.6,1.5c-0.5,0.6-0.9,1-1.4,1.1c-0.8,0.4-1.6,0.6-2.3,0.6v0c0,0.1,1.7,2,5,5.9h-2.2
			c-3.2-3.8-4.9-5.7-4.9-5.7v-1.1l0,0c0.3,0,0.6,0.1,1,0.1c1.8,0,3-0.6,3.4-1.8c0.1-0.2,0.1-0.4,0.1-0.5h-4.9c0,0,0,0,0,0
			c0.5-0.8,0.8-1.2,0.8-1.2h3.9v0c-0.2-0.5-0.7-0.8-1.3-1.1c-0.5-0.1-0.9-0.2-1.2-0.2h-2.2v0C48.4,66.9,48.7,66.5,48.7,66.5z"/>
	</g>
</g>
</svg>
