<?xml version="1.0" encoding="utf-8"?>
<!-- Generator: Adobe Illustrator 22.0.1, SVG Export Plug-In . SVG Version: 6.00 Build 0)  -->
<svg version="1.1" id="Layer_1" xmlns="http://www.w3.org/2000/svg" xmlns:xlink="http://www.w3.org/1999/xlink" x="0px" y="0px"
	 viewBox="0 0 100 100" style="enable-background:new 0 0 100 100;" xml:space="preserve">
<style type="text/css">
	.st0{fill:#FFFFFF;}
</style>
<g>
	<g>
		<path class="st0" d="M20.9,20.4h10.2v0c-0.6,0.9-0.9,1.4-1,1.5h-2.7c0.4,0.4,0.6,1,0.8,1.6H31c0,0,0.1,0,0.1,0c-0.7,1-1,1.5-1,1.5
			h-1.9c0,0.5-0.3,1.1-0.7,1.8c-0.6,0.7-1.1,1.2-1.7,1.4c-1,0.5-1.9,0.7-2.8,0.7v0c0,0.1,2.1,2.5,6.2,7.3h-2.7c-4-4.7-6-7-6-7v-1.4
			l0-0.1c0.4,0,0.8,0.1,1.2,0.1c2.2,0,3.6-0.7,4.2-2.2C26,25.5,26,25.3,26,25h-6.1c0,0,0,0,0,0c0.7-1,1-1.5,1-1.5h4.8v0
			c-0.3-0.6-0.8-1-1.6-1.3c-0.6-0.2-1.1-0.3-1.5-0.3h-2.7v-0.1C20.5,20.9,20.9,20.4,20.9,20.4z"/>
	</g>
	<g>
		<polygon class="st0" points="73.8,93.9 9,93.9 9,6.1 65.1,6.1 73.8,14.8 73.8,32.8 70.3,32.8 70.3,16.2 63.7,9.5 12.4,9.5
			12.4,90.5 70.3,90.5 70.3,88.3 73.8,88.3 		"/>
	</g>
	<g>
		<polygon class="st0" points="66.3,21 58.8,21 58.8,13.6 62.3,13.6 62.3,17.6 66.3,17.6 		"/>
	</g>
	<g>
		<rect x="41.4" y="31" class="st0" width="19.2" height="3.4"/>
	</g>
	<g>
		<rect x="41.4" y="23.4" class="st0" width="9.6" height="3.4"/>
	</g>
	<g>
		<rect x="20.5" y="65.3" class="st0" width="3.4" height="17.2"/>
	</g>
	<g>
		<rect x="28.2" y="74.9" class="st0" width="3.4" height="7.7"/>
	</g>
	<g>
		<rect x="35.8" y="65.3" class="st0" width="3.4" height="17.2"/>
	</g>
	<g>
		<rect x="43.5" y="69.2" class="st0" width="3.4" height="13.4"/>
	</g>
	<g>
		<path class="st0" d="M91,84.3H53.1V38.7H91V84.3z M56.5,80.9h31.1V42.1H56.5V80.9z"/>
	</g>
	<g>
		<rect x="54.8" y="52.1" class="st0" width="34.5" height="3.4"/>
	</g>
	<g>
		<rect x="54.8" y="61.7" class="st0" width="34.5" height="3.4"/>
	</g>
	<g>
		<rect x="54.8" y="71.3" class="st0" width="23" height="3.4"/>
	</g>
	<g>
		<rect x="64.6" y="53.8" class="st0" width="3.4" height="28.7"/>
	</g>
	<g>
		<rect x="76.1" y="53.8" class="st0" width="3.4" height="28.7"/>
	</g>
</g>
</svg>
