<?xml version="1.0" encoding="utf-8"?>
<!-- Generator: Adobe Illustrator 22.0.1, SVG Export Plug-In . SVG Version: 6.00 Build 0)  -->
<svg version="1.1" id="Layer_1" xmlns="http://www.w3.org/2000/svg" xmlns:xlink="http://www.w3.org/1999/xlink" x="0px" y="0px"
	 viewBox="0 0 130 130" style="enable-background:new 0 0 130 130;" xml:space="preserve">
<style type="text/css">
	.st0{fill:none;stroke:#212B5C;stroke-width:2;stroke-miterlimit:10;}
</style>
<g>
	<path class="st0" d="M48.4,25.6c0-0.3-0.2-0.6-0.6-0.6s-0.6,0.2-0.6,0.6c0,0.3,0.2,0.6,0.6,0.6S48.4,25.9,48.4,25.6z"/>
	<path class="st0" d="M112.2,26.4c0-0.3-0.2-0.6-0.6-0.6c-0.3,0-0.6,0.2-0.6,0.6c0,0.3,0.2,0.6,0.6,0.6
		C112,26.8,112.2,26.6,112.2,26.4z"/>
	<line class="st0" x1="10" y1="112.8" x2="117.6" y2="112.8"/>
	<rect x="10" y="65" class="st0" width="11.8" height="37.7"/>
	<rect x="105.7" y="45.4" class="st0" width="11.8" height="57.3"/>
	<rect x="41.9" y="44.7" class="st0" width="11.8" height="58.1"/>
	<ellipse class="st0" cx="47.8" cy="25.6" rx="8.4" ry="8.4"/>
	<ellipse class="st0" cx="111.6" cy="26.4" rx="8.4" ry="8.4"/>
	<rect x="73.8" y="62.8" class="st0" width="11.8" height="39.9"/>
	<circle class="st0" cx="79.7" cy="43.8" r="5"/>
	<path class="st0" d="M20.9,46c0-2.7-2.3-5-5-5s-5,2.3-5,5s2.3,5,5,5C18.7,50.9,20.9,48.7,20.9,46z"/>
	<line class="st0" x1="19.6" y1="42.6" x2="40.6" y2="29.9"/>
	<line class="st0" x1="55.5" y1="28.9" x2="74.7" y2="40.9"/>
	<line class="st0" x1="84.1" y1="41.4" x2="104.1" y2="29.9"/>
</g>
</svg>
