<?xml version="1.0" encoding="utf-8"?>
<!-- Generator: Adobe Illustrator 22.1.0, SVG Export Plug-In . SVG Version: 6.00 Build 0)  -->
<svg version="1.1" id="Layer_1" xmlns="http://www.w3.org/2000/svg" xmlns:xlink="http://www.w3.org/1999/xlink" x="0px" y="0px"
	 viewBox="0 0 130 130" style="enable-background:new 0 0 130 130;" xml:space="preserve">
<style type="text/css">
	.st0{fill:none;stroke:#202E5C;stroke-width:2;stroke-miterlimit:10;}
	.st1{fill:#202E5C;}
</style>
<g>
	<g>
		<g>
			<line class="st0" x1="41" y1="55.8" x2="71" y2="55.8"/>
			<polyline class="st0" points="113.4,63.1 113.4,108.8 16.6,108.8 16.6,62.6 			"/>
			<line class="st0" x1="33.2" y1="62.9" x2="73.3" y2="62.9"/>
			<path class="st0" d="M108,70.4v26.1c-2.8,0-5.1,2.3-5.1,5.1H27.2c0-2.8-2.3-5.1-5.1-5.1V68.1"/>
			<ellipse transform="matrix(0.2298 -0.9732 0.9732 0.2298 -30.0626 126.5852)" class="st0" cx="64.9" cy="82.3" rx="13" ry="13"/>
			<g>
				
					<ellipse transform="matrix(0.2298 -0.9732 0.9732 0.2298 -56.1573 93.6132)" class="st0" cx="31.1" cy="82.3" rx="3.5" ry="3.5"/>
				
					<ellipse transform="matrix(0.1602 -0.9871 0.9871 0.1602 1.7683 166.6494)" class="st0" cx="98.8" cy="82.3" rx="3.5" ry="3.5"/>
			</g>
		</g>
		<g>
			<path class="st0" d="M76,58.6c-1-3.1-2.3-9.2-0.8-15.8c0.7,4.2,4.1,6.8,5.3,7.7c2-2.7-3.8-11.5,1.4-21.5c1.2,4.6,3.2,8.9,5.5,9.9
				c0.3-1.4-1.1-12.8,7.4-17.7c-0.3,7,1.7,13.6,3.3,14.9c2.2-1.7,2.9-4.8,4.3-8.8c5.7,6.1,3.1,16.1,5.2,19.1
				c1.5-1.3,3.4-3.8,3.9-8.5c2.6,6.1,1.2,13.6,0,19C107.8,74.3,82.2,77,76,58.6z"/>
			<path class="st0" d="M82.4,67.7c-0.7-4.2,0.4-7.1,2.8-12.5c1.5,1.9,2.9,3.9,4.4,5.8c-0.3-4.6,2.5-11.4,4.4-15.5
				c4,8.1,13,10.9,11.6,21.3"/>
		</g>
		<polygon class="st0" points="54.6,27.5 53.1,48.3 48.3,43.5 26.3,65.5 16.6,55.8 38.6,33.8 33.8,28.9 		"/>
	</g>
	<g>
		<path class="st1" d="M60.6,75.9H69v0c-0.5,0.8-0.8,1.2-0.8,1.2h-2.3c0.3,0.4,0.5,0.8,0.6,1.3H69c0,0,0,0,0,0
			c-0.5,0.8-0.8,1.2-0.8,1.2h-1.6c0,0.4-0.2,0.9-0.6,1.5c-0.5,0.6-0.9,1-1.4,1.2C63.8,82.8,63,83,62.3,83v0c0,0.1,1.7,2.1,5.1,6.1
			h-2.3c-3.3-3.9-5-5.8-5-5.8V82l0,0c0.3,0,0.6,0.1,1,0.1c1.9,0,3-0.6,3.5-1.8c0.1-0.2,0.1-0.4,0.1-0.5h-5c0,0,0,0,0,0
			c0.6-0.8,0.8-1.2,0.9-1.2h4v0c-0.2-0.5-0.7-0.8-1.3-1.1c-0.5-0.2-0.9-0.2-1.3-0.2h-2.2v0C60.3,76.3,60.5,75.9,60.6,75.9z"/>
	</g>
</g>
</svg>
