<?xml version="1.0" encoding="utf-8"?>
<!-- Generator: Adobe Illustrator 22.0.1, SVG Export Plug-In . SVG Version: 6.00 Build 0)  -->
<svg version="1.1" id="Layer_1" xmlns="http://www.w3.org/2000/svg" xmlns:xlink="http://www.w3.org/1999/xlink" x="0px" y="0px"
	 viewBox="0 0 130 130" style="enable-background:new 0 0 130 130;" xml:space="preserve">
<style type="text/css">
	.st0{fill:#202C5C;}
</style>
<g>
	<path class="st0" d="M41.7,40.7l4.7,0.9c0.5,1.8,1.2,3.4,2.1,5l-2.7,4c-0.1,0.2-0.1,0.4,0,0.5l4.9,4.9c0.1,0.1,0.3,0.1,0.5,0l4-2.7
		c1.5,0.9,3.2,1.6,5,2.1l0.9,4.7c0,0.2,0.2,0.3,0.4,0.3h7c0.2,0,0.3-0.1,0.4-0.3l0.9-4.7c1.8-0.5,3.4-1.2,5-2.1l4,2.7
		c0.2,0.1,0.4,0.1,0.5,0l4.9-4.9c0.1-0.1,0.1-0.3,0-0.5l-2.7-4c0.9-1.5,1.6-3.2,2.1-5l4.7-0.9c0.2,0,0.3-0.2,0.3-0.4v-7
		c0-0.2-0.1-0.3-0.3-0.4l-4.7-0.9c-0.5-1.8-1.2-3.4-2.1-5l2.7-4c0.1-0.2,0.1-0.4,0-0.5l-4.9-4.9c-0.1-0.1-0.3-0.1-0.5,0l-4,2.7
		c-1.5-0.9-3.2-1.6-5-2.1l-0.9-4.7c0-0.2-0.2-0.3-0.4-0.3h-7c-0.2,0-0.3,0.1-0.4,0.3l-0.9,4.7c-1.8,0.5-3.4,1.2-5,2.1l-4-2.7
		c-0.2-0.1-0.4-0.1-0.5,0l-4.9,4.9c-0.1,0.1-0.1,0.3,0,0.5l2.7,4c-0.9,1.5-1.6,3.2-2.1,5L41.7,33c-0.2,0-0.3,0.2-0.3,0.4v7
		C41.4,40.5,41.6,40.7,41.7,40.7z M65,25.9c6.1,0,11,4.9,11,11s-4.9,11-11,11c-6.1,0-11-4.9-11-11S58.9,25.9,65,25.9z"/>
	<path class="st0" d="M104.9,82.6l-2-1.4c0.1-0.9,0.1-1.9,0-2.8l2.1-1.4c0.1-0.1,0.1-0.1,0.1-0.2l-1.3-3.3c0-0.1-0.1-0.1-0.2-0.1
		l-2.4,0.5c-0.5-0.7-1.2-1.4-1.9-2l0.5-2.4c0-0.1,0-0.2-0.1-0.2L96.2,68c-0.1,0-0.2,0-0.2,0.1l-1.4,2c-0.9-0.1-1.9-0.1-2.8,0
		L90.4,68c-0.1-0.1-0.1-0.1-0.2-0.1l-3.3,1.3c-0.1,0-0.1,0.1-0.1,0.2l0.5,2.4c-0.7,0.5-1.4,1.2-2,1.9l-2.4-0.5c-0.1,0-0.2,0-0.2,0.1
		l-1.4,3.3c0,0.1,0,0.2,0.1,0.2l2,1.4c-0.1,0.9-0.1,1.9,0,2.8l-2.1,1.4c-0.1,0.1-0.1,0.1-0.1,0.2l1.3,3.3c0,0.1,0.1,0.1,0.2,0.1
		l2.4-0.5c0.5,0.7,1.2,1.4,1.9,2l-0.5,2.4c0,0.1,0,0.2,0.1,0.2l3.3,1.4c0.1,0,0.2,0,0.2-0.1l1.4-2c0.9,0.1,1.9,0.1,2.8,0l1.4,2.1
		c0.1,0.1,0.1,0.1,0.2,0.1l3.3-1.3c0.1,0,0.1-0.1,0.1-0.2L99,87.7c0.7-0.5,1.4-1.2,2-1.9l2.4,0.5c0.1,0,0.2,0,0.2-0.1l1.4-3.3
		C105,82.8,105,82.7,104.9,82.6z M97.4,81.6c-1,2.4-3.8,3.5-6.2,2.5c-2.4-1-3.5-3.8-2.5-6.2c1-2.4,3.8-3.5,6.2-2.5
		C97.3,76.5,98.4,79.2,97.4,81.6z"/>
	<path class="st0" d="M73.5,84.8c0.5-0.8,0.8-1.6,1.1-2.5l2.4-0.5c0.1,0,0.2-0.1,0.2-0.2V78c0-0.1-0.1-0.2-0.2-0.2l-2.4-0.5
		c-0.2-0.9-0.6-1.8-1.1-2.5l1.4-2c0.1-0.1,0-0.2,0-0.2L72.3,70c-0.1-0.1-0.2-0.1-0.2,0l-2,1.4c-0.8-0.5-1.6-0.8-2.5-1.1L67,67.9
		c0-0.1-0.1-0.2-0.2-0.2h-3.6c-0.1,0-0.2,0.1-0.2,0.2l-0.5,2.4c-0.9,0.2-1.8,0.6-2.5,1.1L58,70c-0.1-0.1-0.2,0-0.2,0l-2.5,2.5
		c-0.1,0.1-0.1,0.2,0,0.2l1.4,2c-0.5,0.8-0.8,1.6-1.1,2.5l-2.4,0.5c-0.1,0-0.2,0.1-0.2,0.2v3.6c0,0.1,0.1,0.2,0.2,0.2l2.4,0.5
		c0.2,0.9,0.6,1.8,1.1,2.5l-1.4,2c-0.1,0.1,0,0.2,0,0.2l2.5,2.5c0.1,0.1,0.2,0.1,0.2,0l2-1.4c0.8,0.5,1.6,0.8,2.5,1.1l0.5,2.4
		c0,0.1,0.1,0.2,0.2,0.2h3.6c0.1,0,0.2-0.1,0.2-0.2l0.5-2.4c0.9-0.2,1.8-0.6,2.5-1.1l2,1.4c0.1,0.1,0.2,0,0.2,0l2.5-2.5
		c0.1-0.1,0.1-0.2,0-0.2L73.5,84.8z M65,84.5c-2.6,0-4.7-2.1-4.7-4.7c0-2.6,2.1-4.7,4.7-4.7c2.6,0,4.7,2.1,4.7,4.7
		C69.7,82.4,67.6,84.5,65,84.5z"/>
	<path class="st0" d="M38.4,89.6l1.4,2c0.1,0.1,0.2,0.1,0.2,0.1l3.3-1.4c0.1,0,0.1-0.1,0.1-0.2l-0.5-2.4c0.7-0.6,1.4-1.2,1.9-2
		l2.4,0.5c0.1,0,0.2,0,0.2-0.1l1.3-3.3c0-0.1,0-0.2-0.1-0.2l-2.1-1.3c0.1-0.9,0.1-1.8,0-2.8l2-1.4c0.1-0.1,0.1-0.2,0.1-0.2l-1.4-3.3
		c0-0.1-0.1-0.1-0.2-0.1l-2.4,0.5c-0.6-0.7-1.2-1.4-2-1.9l0.5-2.4c0-0.1,0-0.2-0.1-0.2l-3.3-1.3c-0.1,0-0.2,0-0.2,0.1L38.2,70
		c-0.9-0.1-1.8-0.1-2.8,0L34,68C34,68,33.9,67.9,33.8,68l-3.3,1.4c-0.1,0-0.1,0.1-0.1,0.2l0.5,2.4c-0.7,0.6-1.4,1.2-1.9,2l-2.4-0.5
		c-0.1,0-0.2,0-0.2,0.1L25,77c0,0.1,0,0.2,0.1,0.2l2.1,1.3c-0.1,0.9-0.1,1.8,0,2.8l-2,1.4c-0.1,0.1-0.1,0.2-0.1,0.2l1.4,3.3
		c0,0.1,0.1,0.1,0.2,0.1l2.4-0.5c0.6,0.7,1.2,1.4,2,1.9l-0.5,2.4c0,0.1,0,0.2,0.1,0.2l3.3,1.3c0.1,0,0.2,0,0.2-0.1l1.3-2.1
		C36.6,89.7,37.5,89.7,38.4,89.6z M32.6,81.6c-1-2.4,0.1-5.1,2.5-6.2c2.4-1,5.1,0.1,6.2,2.5c1,2.4-0.1,5.1-2.5,6.2
		C36.4,85.1,33.6,84,32.6,81.6z"/>
	<rect x="63.8" y="62.6" class="st0" width="2.4" height="3.1"/>
	<path class="st0" d="M36.9,67.9c0.1,0,0.2,0,0.2,0l0.7-1.1c0.1-0.1,0.2-0.2,0.3-0.3V50l8-3.6c-0.4-0.7-0.7-1.5-1-2.2l-8.7,3.9
		c-0.4,0.2-0.7,0.6-0.7,1.1v17.7l0.7,1C36.6,67.9,36.7,67.9,36.9,67.9z"/>
	<path class="st0" d="M83.9,46.4l8,3.6v16.5c0.1,0.1,0.2,0.2,0.3,0.3l0.7,1.1c0.1,0,0.2,0,0.2,0c0.2,0,0.3,0,0.5,0l0.7-1V49.2
		c0-0.5-0.3-0.9-0.7-1.1l-8.7-3.9C84.6,45,84.3,45.7,83.9,46.4z"/>
	<path class="st0" d="M50.1,113.2c3.2,1.7,6.8,2.7,10.5,3.2L61,114c-3.5-0.4-6.7-1.4-9.7-3L50.1,113.2z"/>
	<path class="st0" d="M41.6,102.8l-2,1.4c2.1,3,4.9,5.6,8,7.6l1.3-2C46.1,107.9,43.5,105.5,41.6,102.8z"/>
	<path class="st0" d="M65,114.3c-0.5,0-0.9,0-1.4,0l-0.1,2.4c0.5,0,1,0,1.5,0c3.2,0,6.4-0.5,9.5-1.4l-0.7-2.3
		C70.9,113.8,68,114.3,65,114.3z"/>
	<path class="st0" d="M76.3,112.1l0.9,2.2c3.4-1.4,6.5-3.4,9.3-5.9l-1.6-1.8C82.3,108.9,79.4,110.7,76.3,112.1z"/>
	<path class="st0" d="M38.4,96.3L36,96.9c0.5,1.6,1.1,3.2,2,4.8l2.1-1.2C39.4,99.1,38.8,97.7,38.4,96.3z"/>
	<path class="st0" d="M85.3,100.8l3.2,1.4c-0.6,0.8-1.2,1.7-1.9,2.4l1.8,1.6c0.9-1,1.7-2,2.4-3.1l3.4,1.5l-1.1-9.6L85.3,100.8z"/>
</g>
</svg>
