<?xml version="1.0" encoding="utf-8"?>
<!-- Generator: Adobe Illustrator 22.0.1, SVG Export Plug-In . SVG Version: 6.00 Build 0)  -->
<svg version="1.1" id="Layer_1" xmlns="http://www.w3.org/2000/svg" xmlns:xlink="http://www.w3.org/1999/xlink" x="0px" y="0px"
	 viewBox="0 0 130 130" style="enable-background:new 0 0 130 130;" xml:space="preserve">
<style type="text/css">
	.st0{fill:none;stroke:#20295C;stroke-width:2;stroke-miterlimit:10;}
	.st1{fill:#20295C;}
</style>
<g>
	<g>
		<path class="st0" d="M104.2,82.9c6-4.5,7.8-10.9,7.8-16.7c0-6.7-2.3-13-6.2-18.4L93.4,31.2H81.1H68.7L56.3,47.8
			C52.3,53.2,50,59.5,50,66.2c0,6.3,2.1,13.6,9.8,18"/>
		<path class="st0" d="M93.5,26.2H68.6c-1.4,0-2.5,1.1-2.5,2.5l0,0c0,1.4,1.1,2.5,2.5,2.5h24.9c1.4,0,2.5-1.1,2.5-2.5l0,0
			C95.9,27.4,94.8,26.2,93.5,26.2z"/>
		<path class="st0" d="M89.6,15.2l-2.4,2.4l-1.1-1.1c-2.7-2.7-7.2-2.7-9.9,0l-1.1,1.1l-2.4-2.4c-2.2-2.2-5.9-2.2-8.1,0l-3,3l8.3,8.1
			h11.3h11.3l8.3-8.1l-3-3C95.5,13,91.9,13,89.6,15.2z"/>
		<path class="st0" d="M70.4,97.1h4.4c4.2,0,8.2-1.2,11.6-3.6l3.2-2.2c0.5-0.3,0.7-1.1,0.3-1.6c-0.5-0.8-1.2-1.3-1.9-1.6
			c-1.5-0.9-3.4-0.9-5,0c-5.9,2.8-11,0.4-11,0.4c-1.9-1.2-3.7-2.1-5.5-2.8c-7.2-3-15.5-1.9-21.9,2.6l0,0"/>
		<path class="st0" d="M44.6,103.6c0,0,9.7-1.9,26.9-0.9c4.5,0.2,9-0.8,13-2.8l26-13.7c0.5-0.3,0.8-1,0.3-1.5
			c-1-1.2-3.1-2.8-7.3-1.7c-0.4,0.1-1,0.3-1.4,0.5L88.9,89"/>
		<polyline class="st0" points="34.7,109.9 44.3,109.9 44.3,85.1 34.7,85.1 		"/>
		<rect x="18" y="77.8" class="st0" width="16.7" height="38.7"/>
	</g>
	<g>
		<path class="st1" d="M75.1,51h14.2l0,0c-0.9,1.3-1.3,2-1.4,2.1H84c0.5,0.7,0.9,1.3,1.1,2.2h4c0,0,0.1,0,0.1,0.1
			c-0.9,1.3-1.4,2.1-1.4,2.1h-2.6c-0.1,0.7-0.4,1.5-1,2.5c-0.8,1-1.5,1.6-2.3,2c-1.4,0.7-2.7,1-3.9,1l0,0c0,0.1,2.8,3.5,8.5,10.2
			h-3.7c-5.6-6.4-8.3-9.7-8.3-9.7v-2v-0.1c0.4,0.1,1.1,0.1,1.7,0.1c3.1,0,5-1,5.8-3.1c0.1-0.3,0.2-0.5,0.2-0.9h-8.5
			c0,0-0.1,0-0.1-0.1c1-1.3,1.4-2.1,1.4-2.1h6.7l0,0c-0.4-0.8-1.1-1.4-2.2-1.9C78.8,53.2,78,53,77.5,53h-3.7v-0.1
			C74.6,51.8,75.1,51,75.1,51z"/>
	</g>
</g>
</svg>
