<?xml version="1.0" encoding="utf-8"?>
<!-- Generator: Adobe Illustrator 22.0.1, SVG Export Plug-In . SVG Version: 6.00 Build 0)  -->
<svg version="1.1" id="Layer_1" xmlns="http://www.w3.org/2000/svg" xmlns:xlink="http://www.w3.org/1999/xlink" x="0px" y="0px"
	 viewBox="0 0 130 130" style="enable-background:new 0 0 130 130;" xml:space="preserve">
<style type="text/css">
	.st0{fill:none;stroke:#212E5C;stroke-width:2;stroke-miterlimit:10;}
</style>
<g>
	<rect x="25.7" y="12.5" class="st0" width="70.2" height="96.5"/>
	<polyline class="st0" points="95.9,21 104.3,21 104.3,117.5 34.1,117.5 34.1,109 	"/>
	<rect x="34.1" y="21" class="st0" width="24.2" height="24.2"/>
	<polyline class="st0" points="51.5,27.8 51.5,38.3 41,38.3 41,27.8 	"/>
	<line class="st0" x1="32.7" y1="53.7" x2="88.5" y2="53.7"/>
	<line class="st0" x1="32.7" y1="62.6" x2="88.5" y2="62.6"/>
	<line class="st0" x1="32.7" y1="71.4" x2="88.5" y2="71.4"/>
	<line class="st0" x1="65.9" y1="21" x2="88.5" y2="21"/>
	<line class="st0" x1="65.9" y1="29.9" x2="88.5" y2="29.9"/>
	<line class="st0" x1="32.7" y1="80.3" x2="88.5" y2="80.3"/>
	<line class="st0" x1="88.5" y1="100.1" x2="69.2" y2="100.1"/>
	<polyline class="st0" points="87,88.5 87,94.4 70.8,94.4 70.8,88.5 	"/>
</g>
</svg>
