<?xml version="1.0" encoding="utf-8"?>
<!-- Generator: Adobe Illustrator 22.0.1, SVG Export Plug-In . SVG Version: 6.00 Build 0)  -->
<svg version="1.1" id="Layer_1" xmlns="http://www.w3.org/2000/svg" xmlns:xlink="http://www.w3.org/1999/xlink" x="0px" y="0px"
	 viewBox="0 0 100 100" style="enable-background:new 0 0 100 100;" xml:space="preserve">
<style type="text/css">
	.st0{fill:none;stroke:#FFFFFF;stroke-width:2;stroke-linejoin:round;stroke-miterlimit:10;}
	.st1{fill:none;stroke:#FFFFFF;stroke-width:2;stroke-linecap:round;stroke-linejoin:round;stroke-miterlimit:10;}
</style>
<g>
	<g>
		<path class="st0" d="M28.5,74.5c0-1.1,1.6-18.6,1.6-18.6l11.8-7.7"/>
		<polygon class="st1" points="41.9,48.2 43.1,62.6 50,56.6 		"/>
		<line class="st1" x1="48.4" y1="63.5" x2="45.5" y2="74.5"/>
		<path class="st0" d="M71.5,74.5c0-1.1-1.6-18.6-1.6-18.6l-11.8-7.7"/>
		<polygon class="st1" points="58.1,48.2 56.9,62.6 50,56.6 		"/>
		<polygon class="st1" points="50,56.6 46.3,59.8 48.4,63.5 50,63.5 51.6,63.5 53.7,59.8 		"/>
		<line class="st1" x1="51.6" y1="63.5" x2="54.5" y2="74.5"/>
		<line class="st1" x1="58.1" y1="67.6" x2="64.4" y2="67.6"/>
		<path class="st1" d="M58.6,36c0-5.8-3.8-10.5-8.6-10.5s-8.6,4.7-8.6,10.5c0,5.8,3.8,10.5,8.6,10.5S58.6,41.9,58.6,36z"/>
	</g>
	<g>
		<line class="st0" x1="69.7" y1="56" x2="77.6" y2="50.9"/>
		<line class="st1" x1="83.1" y1="56.5" x2="77.6" y2="50.9"/>
		<path class="st0" d="M98,70.8C98,70,96.5,56,96.5,56l-7.9-5.2"/>
		<polyline class="st1" points="88.5,50.9 83.1,56.5 83.1,67.6 		"/>
		<ellipse class="st1" cx="83.1" cy="42.7" rx="5.8" ry="7.1"/>
	</g>
	<g>
		<line class="st0" x1="30.3" y1="56" x2="22.4" y2="50.9"/>
		<line class="st1" x1="16.9" y1="56.5" x2="22.4" y2="50.9"/>
		<path class="st0" d="M2,70.8C2,70,3.5,56,3.5,56l7.9-5.2"/>
		<polyline class="st1" points="11.5,50.9 16.9,56.5 16.9,67.6 		"/>
		<ellipse class="st1" cx="16.9" cy="42.7" rx="5.8" ry="7.1"/>
	</g>
</g>
</svg>
