<?xml version="1.0" encoding="utf-8"?>
<!-- Generator: Adobe Illustrator 22.0.1, SVG Export Plug-In . SVG Version: 6.00 Build 0)  -->
<svg version="1.1" id="Layer_1" xmlns="http://www.w3.org/2000/svg" xmlns:xlink="http://www.w3.org/1999/xlink" x="0px" y="0px"
	 viewBox="0 0 130 130" style="enable-background:new 0 0 130 130;" xml:space="preserve">
<style type="text/css">
	.st0{fill:#20295C;}
</style>
<g>
	<path class="st0" d="M28.5,68.1c0-19.8,18.3-36,40.8-36c2.4,0,4.8,0.2,7.1,0.5c0,0,0,0,0,0c0-0.2-0.1-1.4,0.4-3.1
		c-2.4-0.4-4.9-0.6-7.5-0.6c-23.7,0-43,16.7-44,37.5H27C27.8,66.5,28.5,67.2,28.5,68.1z"/>
	<path class="st0" d="M81.4,102.4c-3.8,1-7.8,1.6-12,1.6c-5.3,0-10.4-0.9-15.1-2.5c-0.1,1.1-0.3,2.2-0.6,3.1
		c4.9,1.7,10.2,2.6,15.7,2.6c4.2,0,8.3-0.5,12.2-1.5C81.4,104.5,81.4,103.4,81.4,102.4z"/>
	<path class="st0" d="M108.2,79.3c-1.8,4.7-4.6,9-8.3,12.6c0.1,0.1,0.2,0.2,0.3,0.4c0.5,0.9,0.9,1.7,1.2,2.6c4-3.8,7.2-8.2,9.3-13.2
		C109.6,81.1,108.8,80.3,108.2,79.3z"/>
	<path class="st0" d="M96.3,41c5.4,4.2,9.6,9.6,11.9,15.8c0.6-1,1.4-1.8,2.4-2.4c-2.6-6.1-6.8-11.5-12.3-15.7
		C97.8,39.5,97.1,40.3,96.3,41z"/>
	<path class="st0" d="M37.5,92c0.3-0.3,0.6-0.4,0.9-0.4c-6.2-6.3-9.9-14.5-9.9-23.5c0,0.9-0.7,1.6-1.6,1.6h-1.5
		c0.4,9.2,4.4,17.6,10.8,24.1C36.9,92.6,37.5,92.1,37.5,92z"/>
	<path class="st0" d="M115.6,52.9c-1.9,0-3.6,0.6-5,1.5c-1,0.7-1.8,1.5-2.4,2.4c-0.6,1-1,2.2-1,3.5v15.6c0,1.3,0.4,2.4,1,3.5
		c0.6,1,1.4,1.8,2.4,2.4c1.4,0.9,3.1,1.5,5,1.5c4.6,0,8.4-3.3,8.4-7.4v-3.7c0,0.9-0.7,1.6-1.6,1.6h-1.6v2.1c0,2.3-2.4,4.2-5.3,4.2
		c-2.9,0-5.3-1.9-5.3-4.2V60.3c0-2.3,2.4-4.2,5.3-4.2c2.9,0,5.3,1.9,5.3,4.2v1.8h1.6c0.9,0,1.6,0.7,1.6,1.6v-3.4
		C124,56.2,120.2,52.9,115.6,52.9z"/>
	<path class="st0" d="M122.4,65.2h-1.6v5.4h1.6c0.9,0,1.6,0.7,1.6,1.6v-8.5C124,64.5,123.3,65.2,122.4,65.2z"/>
	<path class="st0" d="M91.7,46.7c-4.9,0-8.9,4-8.9,8.9c0,0.9,0.7,1.6,1.6,1.6c0.9,0,1.6-0.7,1.6-1.6c0-3.2,2.6-5.8,5.8-5.8
		c3.2,0,5.8,2.6,5.8,5.8c0,0.9,0.7,1.6,1.6,1.6c0.9,0,1.6-0.7,1.6-1.6C100.6,50.7,96.6,46.7,91.7,46.7z"/>
	<path class="st0" d="M76.5,32.6C76.5,32.6,76.5,32.7,76.5,32.6c0.1,0.9,0.9,1.5,1.7,1.4c0.3,0,0.6-0.1,0.8-0.3
		c0.4-0.3,0.7-0.8,0.6-1.4c0-0.1-0.6-8,14-10.5c-1.4,3.6-1.9,8.9,2.2,13.1c0.1,0.1,0.4,0.7,0.2,1.4c-0.3,1-1.8,3.5-9.5,6.4
		c-0.1,0.1-0.3,0.1-0.4,0.2c-0.5,0.4-0.8,1.1-0.5,1.8c0.2,0.6,0.8,1,1.5,1c0.2,0,0.4,0,0.5-0.1c3.9-1.4,6.8-3,8.7-4.7
		c0.9-0.8,1.6-1.6,2.1-2.4c0.3-0.5,0.5-1.1,0.7-1.6c0.6-2.4-0.7-4-0.8-4.2c0,0-0.1-0.1-0.1-0.1c-5-5-0.7-11.7-0.5-12
		c0.3-0.5,0.4-1.2,0-1.7c-0.3-0.5-0.9-0.8-1.5-0.8c-14.2,1.5-18.2,7.5-19.3,11.2C76.3,31.2,76.5,32.5,76.5,32.6z"/>
	<path class="st0" d="M122.4,62.1h-1.6h-5.3c-0.9,0-1.6,0.7-1.6,1.6c0,0.9,0.7,1.6,1.6,1.6h5.3h1.6c0.9,0,1.6-0.7,1.6-1.6
		C124,62.8,123.3,62.1,122.4,62.1z"/>
	<path class="st0" d="M122.4,70.6h-1.6h-5.3c-0.9,0-1.6,0.7-1.6,1.6c0,0.9,0.7,1.6,1.6,1.6h5.3h1.6c0.9,0,1.6-0.7,1.6-1.6
		C124,71.3,123.3,70.6,122.4,70.6z"/>
	<path class="st0" d="M28.5,68.1c0-0.9-0.7-1.6-1.6-1.6h-1.5H14.2c-2.8,0-5-2.3-5-5c0-2.8,2.3-5,5-5h6.2c4.5,0,8.2-3.7,8.2-8.2
		c0-4.5-3.7-8.2-8.2-8.2H7.6c-0.9,0-1.6,0.7-1.6,1.6c0,0.9,0.7,1.6,1.6,1.6h12.8c2.8,0,5,2.3,5,5c0,2.8-2.3,5-5,5H14
		c0,0-0.1,0-0.1,0C9.5,53.5,6,57.1,6,61.5c0,4.5,3.7,8.2,8.2,8.2h11.2H27C27.8,69.6,28.5,68.9,28.5,68.1z"/>
	<path class="st0" d="M54.3,101.5c0.3-2.8-0.1-6-1.8-9.1c-0.4-0.8-1.4-1-2.1-0.6c-0.5,0.3-0.8,0.8-0.8,1.4c0,0.3,0.1,0.5,0.2,0.8
		c3.3,5.9,0.2,12.5-1,14.7H37.4c-2-9.7,2.1-14.1,2.3-14.3c0.3-0.3,0.5-0.7,0.5-1.1c0-0.4-0.2-0.8-0.5-1.1c-0.4-0.4-0.8-0.5-1.3-0.5
		c-0.3,0-0.7,0.2-0.9,0.4c-0.1,0.1-0.6,0.7-1.3,1.8c-1.6,2.6-3.8,8.1-1.6,16.8c0.2,0.7,0.8,1.2,1.5,1.2h13.4c0.5,0,1-0.3,1.3-0.7
		c0.1-0.2,1.9-2.8,2.8-6.4C54,103.6,54.2,102.6,54.3,101.5z"/>
	<path class="st0" d="M100.1,92.3c-0.1-0.1-0.2-0.3-0.3-0.4c-0.5-0.5-1.2-0.6-1.9-0.2c-0.6,0.3-0.9,1-0.8,1.6c0,0.2,0.1,0.4,0.2,0.5
		c3.3,5.9,0.2,12.5-1,14.7H85.1c-1.6-8.4,0.5-12.4,0.6-12.5c0.2-0.3,0.2-0.7,0.2-1c-0.1-0.4-0.3-0.9-0.7-1.1
		c-0.7-0.5-1.7-0.2-2.2,0.5c-0.1,0.1-1.6,2.7-1.7,8c0,1,0,2,0.1,3.2c0.1,1.5,0.4,3.1,0.8,4.8c0.2,0.7,0.8,1.2,1.5,1.2h13.4
		c0.5,0,1-0.3,1.3-0.7c0.2-0.4,5.4-8.1,2.7-16.1C101,94.1,100.6,93.2,100.1,92.3z"/>
	<path class="st0" d="M67.8,40c1.6,0.1,3.4,0.4,5.1,0.9c0.8,0.3,1.7-0.2,2-1.1c0.3-0.8-0.2-1.7-1.1-2C62.6,34.5,52.4,40,52,40.3
		c-0.8,0.4-1,1.4-0.6,2.1c0.3,0.5,0.8,0.8,1.4,0.8c0.3,0,0.5-0.1,0.8-0.2c0,0,2.1-1.2,5.4-2C61.4,40.3,64.5,39.8,67.8,40z"/>
</g>
<g>
	<path class="st0" d="M57.6,60.5h16.9v0c-1,1.5-1.6,2.3-1.7,2.5h-4.5c0.6,0.7,1,1.6,1.3,2.6h4.8c0.1,0,0.1,0,0.1,0.1
		c-1.1,1.6-1.6,2.4-1.6,2.4h-3.1c-0.1,0.8-0.5,1.8-1.2,3c-1,1.2-1.9,1.9-2.8,2.3c-1.6,0.8-3.2,1.2-4.7,1.2v0c0,0.1,3.4,4.1,10.1,12
		h-4.5c-6.6-7.7-9.9-11.5-9.9-11.6v-2.3l0-0.1c0.6,0.1,1.3,0.1,2.1,0.1c3.7,0,6-1.2,6.9-3.6c0.1-0.4,0.2-0.7,0.2-1.1h-10
		c0,0-0.1,0-0.1-0.1c1.1-1.6,1.7-2.4,1.7-2.4h8v0c-0.5-0.9-1.3-1.6-2.6-2.2C62,63.1,61.1,63,60.4,63h-4.5v-0.1
		C57,61.3,57.5,60.5,57.6,60.5z"/>
</g>
</svg>
