<?xml version="1.0" encoding="utf-8"?>
<!-- Generator: Adobe Illustrator 22.0.1, SVG Export Plug-In . SVG Version: 6.00 Build 0)  -->
<svg version="1.1" id="Layer_1" xmlns="http://www.w3.org/2000/svg" xmlns:xlink="http://www.w3.org/1999/xlink" x="0px" y="0px"
	 viewBox="0 0 130 130" style="enable-background:new 0 0 130 130;" xml:space="preserve">
<style type="text/css">
	.st0{fill:#212E5C;}
</style>
<g>
	<g>
		<g>
			<path class="st0" d="M75.3,102.3c-0.1,0-0.1,0-0.2,0H59.4c-0.1,0-0.1,0-0.2,0c-2,0-3.6-1.6-3.6-3.6c0-0.7,0.2-1.3,0.5-1.9
				l8.4-14.5l0.1,0c0.7-0.7,1.6-1.2,2.7-1.2c1.1,0,2.1,0.5,2.8,1.3l0.1,0l8.8,15.2l-0.1,0.1c0.1,0.3,0.1,0.7,0.1,1
				C79,100.6,77.3,102.3,75.3,102.3z M59.3,99.7l16,0c0,0,0,0,0.1,0c0.6,0,1-0.5,1-1c0-0.2,0-0.3-0.1-0.5L76,97.7l-7.4-12.8l-0.1,0
				l-0.4-0.7c-0.2-0.3-0.5-0.6-0.9-0.6c-0.4,0-0.7,0.2-0.9,0.5L66,84.9l0,0l-7.6,13.2c-0.1,0.2-0.2,0.3-0.2,0.5c0,0.6,0.5,1,1,1
				C59.2,99.7,59.3,99.7,59.3,99.7L59.3,99.7z"/>
		</g>
		<g>
			<path class="st0" d="M12.9,91.7c-0.6,0-1.1-0.4-1.3-1c-0.2-0.7,0.3-1.4,1-1.6L121.4,64c0.7-0.2,1.4,0.3,1.6,1
				c0.2,0.7-0.3,1.4-1,1.6L13.2,91.6C13.1,91.7,13,91.7,12.9,91.7z"/>
		</g>
		<g>
			<g>
				<path class="st0" d="M23.6,85c-0.2,0-0.4,0-0.5-0.1l-3.6-1c-1-0.3-1.6-1.2-1.5-2.3c0-0.3,0.1-0.6,0.1-1c0.1-0.7,0.2-1.5,0.2-2.2
					c0-0.7-0.1-1-0.1-1.1c-0.4-0.3-0.7-0.5-1.1-0.8c-0.1,0-0.5,0-1.1,0.2c-0.7,0.2-1.4,0.5-2.1,0.7c-0.3,0.1-0.6,0.3-0.9,0.3
					c-1.1,0.4-2.1,0-2.6-0.9l-1.9-3.3c-0.5-0.9-0.3-2,0.6-2.7c0.2-0.2,0.5-0.4,0.8-0.6c0.5-0.4,1.2-0.9,1.7-1.4
					c0.5-0.5,0.7-0.8,0.7-0.9c-0.1-0.4-0.1-0.9-0.2-1.3c-0.1-0.1-0.3-0.3-0.9-0.7c-0.6-0.4-1.4-0.7-2-0.9c-0.3-0.1-0.6-0.3-0.9-0.4
					c-1-0.5-1.5-1.5-1.2-2.5l1-3.6c0.3-1,1.2-1.6,2.3-1.5c0.3,0,0.6,0.1,1,0.1c0.7,0.1,1.5,0.2,2.2,0.2c0.7,0,1-0.1,1.2-0.1
					c0.3-0.4,0.5-0.7,0.8-1.1c0-0.1,0-0.5-0.2-1.1c-0.2-0.7-0.5-1.4-0.7-2.1c-0.1-0.3-0.3-0.6-0.3-0.9c-0.4-1.1,0-2.1,0.9-2.6
					l3.3-1.9c0.9-0.5,2-0.3,2.7,0.6c0.2,0.2,0.4,0.5,0.6,0.8c0.4,0.5,0.9,1.2,1.4,1.7c0.5,0.5,0.8,0.7,0.9,0.7
					c0.4-0.1,0.9-0.1,1.3-0.2c0.1-0.1,0.3-0.3,0.7-0.9c0.4-0.6,0.7-1.4,0.9-2c0.1-0.3,0.3-0.6,0.4-0.9c0.5-1,1.5-1.5,2.5-1.2l3.6,1
					c1,0.3,1.6,1.2,1.5,2.3c0,0.3-0.1,0.6-0.1,1c-0.1,0.7-0.2,1.5-0.2,2.2c0,0.7,0.1,1,0.1,1.2c0.4,0.3,0.7,0.5,1.1,0.8
					c0.1,0,0.5,0,1.1-0.2c0.7-0.2,1.4-0.5,2.1-0.7c0.3-0.1,0.6-0.3,0.9-0.3c1.1-0.4,2.1,0,2.6,0.9l1.9,3.3c0.5,0.9,0.3,2-0.6,2.7
					c-0.2,0.2-0.5,0.4-0.8,0.6c-0.5,0.4-1.2,0.9-1.7,1.4c-0.5,0.5-0.7,0.8-0.7,0.9c0.1,0.4,0.1,0.9,0.2,1.3c0.1,0.1,0.3,0.3,0.9,0.7
					c0.6,0.4,1.4,0.7,2,0.9c0.3,0.1,0.6,0.3,0.9,0.4c1,0.5,1.5,1.5,1.2,2.5l-1,3.6c-0.3,1-1.2,1.6-2.3,1.5c-0.3,0-0.6-0.1-1-0.1
					c-0.7-0.1-1.5-0.2-2.2-0.2c-0.7,0-1,0.1-1.2,0.1c-0.3,0.4-0.5,0.7-0.8,1.1c0,0.1,0,0.5,0.2,1.1c0.2,0.7,0.5,1.4,0.7,2.1
					c0.1,0.3,0.3,0.6,0.3,0.9c0.4,1.1,0,2.1-0.9,2.6l-3.3,1.9c-0.9,0.5-2,0.3-2.7-0.6c-0.2-0.2-0.4-0.5-0.6-0.8
					c-0.4-0.5-0.9-1.2-1.4-1.7c-0.5-0.5-0.8-0.7-0.9-0.7c-0.4,0.1-0.9,0.1-1.3,0.2c-0.1,0.1-0.3,0.3-0.7,0.9c-0.4,0.6-0.7,1.4-0.9,2
					c-0.1,0.3-0.3,0.6-0.4,0.9C25.1,84.5,24.4,85,23.6,85z M20.6,81.5l2.8,0.8c0.1-0.1,0.1-0.3,0.2-0.5c0.9-2.1,1.8-3.9,3.3-4.4
					l0.2,0l0.2,0c0.5,0,0.9-0.1,1.4-0.2l0.3-0.1l0.2,0c1.5,0.1,2.8,1.6,4.3,3.5c0.1,0.2,0.2,0.3,0.3,0.4l2.5-1.4
					c-0.1-0.2-0.1-0.3-0.2-0.5c-0.9-2.2-1.5-4.1-0.8-5.4l0.1-0.1l0.1-0.1c0,0,0.1-0.1,0.1-0.2c0.2-0.3,0.5-0.6,0.7-0.9
					c0-0.1,0.1-0.1,0.1-0.2l0.1-0.1l0.1-0.1c1.2-1,3.2-0.9,5.5-0.6c0.2,0,0.4,0.1,0.5,0.1l0.8-2.8c-0.1-0.1-0.3-0.1-0.5-0.2
					c-2.1-0.9-3.9-1.8-4.4-3.3l0-0.2l0-0.2c0-0.1,0-0.1,0-0.2l0,0c0-0.4-0.1-0.8-0.1-1.1L38,63.2l0-0.2c0.1-1.5,1.6-2.8,3.5-4.3
					c0.2-0.1,0.3-0.2,0.4-0.3l-1.4-2.5C40.3,56,40.1,56,40,56.1c-2.2,0.9-4.1,1.5-5.4,0.8l-0.1-0.1l-0.2-0.2
					c-0.3-0.3-0.6-0.5-0.9-0.7l0,0c-0.1,0-0.1-0.1-0.2-0.1l-0.1-0.1l-0.1-0.1c-1-1.2-0.9-3.2-0.6-5.5c0-0.2,0.1-0.4,0.1-0.5
					l-2.8-0.8c-0.1,0.1-0.1,0.3-0.2,0.5c-0.9,2.1-1.8,3.9-3.3,4.4l-0.2,0l-0.2,0c0,0-0.1,0-0.1,0l0,0c-0.4,0-0.8,0.1-1.2,0.2
					L24.1,54l-0.2,0c-1.5-0.1-2.8-1.6-4.3-3.5c-0.1-0.2-0.2-0.3-0.3-0.4l-2.5,1.4c0.1,0.2,0.1,0.3,0.2,0.5c0.9,2.2,1.5,4.1,0.8,5.4
					l-0.1,0.1l-0.1,0.2c0,0,0,0,0,0c-0.3,0.3-0.5,0.7-0.8,1l0,0c0,0,0,0,0,0.1l-0.1,0.1l-0.1,0.1c-1.2,1-3.2,0.9-5.5,0.6
					c-0.2,0-0.4-0.1-0.5-0.1l-0.8,2.8c0.1,0.1,0.3,0.1,0.5,0.2c2.1,0.9,3.9,1.8,4.4,3.3l0,0.2l0,0.2c0,0,0,0.1,0,0.1l0,0.1
					c0,0.4,0.1,0.9,0.2,1.3c0,0,0,0,0,0.1l0,0.2l0,0.2c-0.1,1.5-1.6,2.8-3.5,4.3c-0.2,0.1-0.3,0.2-0.4,0.3l1.4,2.5
					c0.2-0.1,0.3-0.1,0.5-0.2c2.2-0.9,4.1-1.5,5.4-0.8l0.1,0.1l0.3,0.2c0.3,0.3,0.7,0.6,1.1,0.8l0.1,0.1l0.1,0.1
					c1,1.2,0.9,3.2,0.6,5.4C20.6,81.2,20.6,81.3,20.6,81.5z M18.1,77.2L18.1,77.2L18.1,77.2z M37.4,74.8L37.4,74.8
					C37.4,74.8,37.4,74.8,37.4,74.8z M12.3,67.9C12.3,67.9,12.3,67.9,12.3,67.9C12.3,67.9,12.3,67.9,12.3,67.9z M14.8,57.2
					C14.8,57.2,14.8,57.2,14.8,57.2C14.8,57.2,14.8,57.2,14.8,57.2z M15.5,56.3L15.5,56.3L15.5,56.3z M35.7,54.6
					C35.7,54.6,35.7,54.6,35.7,54.6C35.7,54.6,35.7,54.6,35.7,54.6z M24.1,51.4C24.1,51.4,24.1,51.4,24.1,51.4
					C24.1,51.4,24.1,51.4,24.1,51.4z M25.3,51.2C25.3,51.2,25.3,51.2,25.3,51.2C25.3,51.2,25.3,51.2,25.3,51.2z"/>
			</g>
			<g>
				<path class="st0" d="M26.4,73.1c-0.7,0-1.3-0.1-2-0.3c-2-0.5-3.6-1.8-4.6-3.6c-1-1.8-1.3-3.8-0.7-5.8c1.1-4,5.3-6.4,9.3-5.3
					c4,1.1,6.4,5.3,5.3,9.3C32.8,70.9,29.8,73.1,26.4,73.1z M26.4,60.6c-0.9,0-1.7,0.2-2.5,0.7c-1.2,0.7-2,1.7-2.3,3
					c-0.4,1.3-0.2,2.6,0.5,3.8c0.7,1.2,1.7,2,3,2.3c0.4,0.1,0.9,0.2,1.3,0.2c2.2,0,4.2-1.5,4.8-3.7c0.7-2.6-0.8-5.4-3.5-6.1
					C27.3,60.6,26.9,60.6,26.4,60.6z"/>
			</g>
		</g>
		<g>
			<g>
				<path class="st0" d="M102.6,66.2c-10.6,0-19.2-8.6-19.2-19.2c0-10.6,8.6-19.2,19.2-19.2s19.2,8.6,19.2,19.2
					C121.8,57.5,113.2,66.2,102.6,66.2z M102.6,30.3c-9.2,0-16.6,7.4-16.6,16.6s7.4,16.6,16.6,16.6s16.6-7.4,16.6-16.6
					S111.7,30.3,102.6,30.3z"/>
			</g>
		</g>
	</g>
	<g>
		<path class="st0" d="M99.1,39.9h10v0c-0.6,0.9-0.9,1.4-1,1.5h-2.7c0.4,0.4,0.6,1,0.7,1.6h2.8c0,0,0.1,0,0.1,0c-0.6,1-1,1.4-1,1.4
			h-1.9c0,0.5-0.3,1.1-0.7,1.8c-0.6,0.7-1.1,1.2-1.6,1.4c-1,0.5-1.9,0.7-2.8,0.7v0c0,0.1,2,2.4,6,7.1h-2.7c-3.9-4.6-5.9-6.8-5.9-6.9
			v-1.4l0-0.1c0.3,0,0.8,0.1,1.2,0.1c2.2,0,3.6-0.7,4.1-2.1c0.1-0.2,0.1-0.4,0.1-0.6h-5.9c0,0,0,0,0,0c0.7-1,1-1.4,1-1.4h4.7v0
			c-0.3-0.5-0.8-1-1.6-1.3c-0.6-0.2-1.1-0.3-1.5-0.3h-2.6v-0.1C98.8,40.3,99.1,39.9,99.1,39.9z"/>
	</g>
</g>
</svg>
