<?xml version="1.0" encoding="utf-8"?>
<!-- Generator: Adobe Illustrator 22.0.1, SVG Export Plug-In . SVG Version: 6.00 Build 0)  -->
<svg version="1.1" id="Layer_1" xmlns="http://www.w3.org/2000/svg" xmlns:xlink="http://www.w3.org/1999/xlink" x="0px" y="0px"
	 viewBox="0 0 100 100" style="enable-background:new 0 0 100 100;" xml:space="preserve">
<style type="text/css">
	.st0{fill:#FFFFFF;}
</style>
<g>
	<path class="st0" d="M82.1,68.4c-0.4,0-0.7,0.2-0.9,0.5c-2.8,3.8-6.1,5.8-8.9,6.9c-2.8,1.1-5.1,1.2-5.9,1.2c-0.1,0-0.1,0-0.2,0l0,0
		c0,0-0.1,0-0.2,0c-0.8,0-3.1-0.1-5.9-1.2c-2.8-1.1-6.1-3.1-9-6.9c-0.2-0.3-0.6-0.5-0.9-0.5c-0.4,0-0.7,0.2-0.9,0.5
		c-2.8,3.8-6.1,5.8-8.9,6.9c-2.8,1.1-5.1,1.2-5.9,1.2c-0.1,0-0.1,0-0.2,0l0,0c0,0-0.1,0-0.2,0c-0.8,0-3.1-0.1-5.9-1.2
		c-2.8-1.1-6.1-3.1-9-6.9c-0.2-0.3-0.6-0.5-0.9-0.5c-0.4,0-0.7,0.2-0.9,0.5c-2.8,3.8-6.1,5.8-8.9,6.9C6.1,76.7,4,76.9,3,76.9v-2.9
		c1,0,3.1-0.3,5.5-1.4c1.4-0.7,2.9-1.6,4.4-3c1.5-1.4,2.9-3.2,4.1-5.6c0.2-0.5,0.7-0.8,1.3-0.8c0.5,0,1,0.3,1.3,0.8
		c1.2,2.4,2.6,4.2,4.1,5.6c2.2,2.1,4.6,3.2,6.5,3.8c1.9,0.6,3.4,0.6,3.9,0.6c0.1,0,0.1,0,0.2,0l0,0c0,0,0.1,0,0.1,0c0,0,0,0,0,0l0,0
		c0,0,0.1,0,0.2,0c0.7,0,3.1-0.1,5.9-1.4c1.4-0.7,2.9-1.6,4.4-3c1.5-1.4,2.9-3.2,4.1-5.6c0.2-0.5,0.7-0.8,1.3-0.8
		c0.5,0,1,0.3,1.3,0.8c1.2,2.4,2.7,4.2,4.1,5.6c2.2,2.1,4.6,3.2,6.5,3.8c1.9,0.6,3.3,0.6,3.8,0.6c0.1,0,0.1,0,0.2,0l0,0l0.1,0l0.1,0
		l0,0c0,0,0.1,0,0.2,0c0.7,0,3-0.1,5.9-1.4c1.4-0.7,2.9-1.6,4.4-3c1.5-1.4,2.9-3.2,4.1-5.6c0.2-0.5,0.7-0.8,1.3-0.8
		c0.5,0,1,0.3,1.3,0.8c1.2,2.4,2.7,4.2,4.1,5.6c2.2,2.1,4.6,3.2,6.5,3.8c1.2,0.4,2.2,0.5,3,0.6v2.9c-1.1-0.1-2.9-0.3-5-1.1
		c-2.8-1.1-6.1-3.1-9-6.9C82.8,68.6,82.5,68.4,82.1,68.4z"/>
	<path class="st0" d="M83.1,47.7c-0.2-0.3-0.6-0.5-0.9-0.5c-0.4,0-0.7,0.2-0.9,0.5c-2.8,3.8-6.1,5.8-9,6.9c-2.8,1.1-5.1,1.2-5.9,1.2
		c-0.1,0-0.1,0-0.2,0h0c0,0-0.1,0-0.2,0c-0.8,0-3.1-0.1-5.9-1.2c-2.8-1.1-6.1-3.1-9-6.9c-0.2-0.3-0.6-0.5-0.9-0.5
		c-0.4,0-0.7,0.2-0.9,0.5c-2.8,3.8-6.1,5.8-9,6.9c-2.8,1.1-5.1,1.2-5.9,1.2c-0.1,0-0.1,0-0.2,0h0c0,0-0.1,0-0.2,0
		c-0.8,0-3.1-0.1-5.9-1.2c-2.8-1.1-6.1-3.1-9-6.9c-0.2-0.3-0.6-0.5-0.9-0.5c-0.4,0-0.7,0.2-0.9,0.5c-2.8,3.8-6.1,5.8-8.9,6.9
		C6.1,55.5,4,55.7,3,55.7v-2.9c1,0,3.1-0.3,5.5-1.4c1.4-0.7,2.9-1.6,4.4-3c1.5-1.4,2.9-3.2,4.1-5.6c0.2-0.5,0.7-0.8,1.3-0.8
		c0.5,0,1,0.3,1.3,0.8c1.2,2.4,2.6,4.2,4.1,5.6c2.2,2.1,4.6,3.2,6.5,3.8c1.9,0.6,3.4,0.6,3.9,0.6c0.1,0,0.1,0,0.2,0l0,0
		c0,0,0.1,0,0.1,0c0,0,0,0,0,0l0,0c0,0,0.1,0,0.2,0c0.7,0,3.1-0.1,5.9-1.4c1.4-0.7,2.9-1.6,4.4-3c1.5-1.4,2.9-3.2,4.1-5.6
		c0.2-0.5,0.7-0.8,1.3-0.8c0.5,0,1,0.3,1.3,0.8c1.2,2.4,2.7,4.2,4.1,5.6c2.2,2.1,4.6,3.2,6.5,3.8c1.9,0.6,3.3,0.6,3.8,0.6
		c0,0,0.1,0,0.1,0l0,0l0,0l0,0l0.1,0l0.1,0l0,0c0,0,0.1,0,0.2,0c0.7,0,3-0.1,5.9-1.4c1.4-0.7,2.9-1.6,4.4-3c1.5-1.4,2.9-3.2,4.1-5.6
		c0.2-0.5,0.7-0.8,1.3-0.8s1,0.3,1.3,0.8c1.2,2.4,2.7,4.2,4.1,5.6c2.2,2.1,4.6,3.2,6.5,3.8c1.2,0.4,2.3,0.5,3,0.6v2.9
		c-1.1-0.1-2.9-0.3-5-1.1C89.2,53.5,85.9,51.5,83.1,47.7z"/>
	<path class="st0" d="M97,36.7c-1.1-0.1-2.9-0.3-5-1.1c-2.8-1.1-6.1-3.1-9-6.9c-0.2-0.3-0.6-0.5-0.9-0.5c-0.4,0-0.7,0.2-0.9,0.5
		c-2.8,3.8-6.1,5.8-9,6.9c-2.8,1.1-5.1,1.2-5.9,1.2c-0.1,0-0.1,0-0.2,0h0c0,0-0.1,0-0.2,0c-0.8,0-3.1-0.1-5.9-1.2
		c-2.8-1.1-6.1-3.1-9-6.9c-0.2-0.3-0.6-0.5-0.9-0.5c-0.4,0-0.7,0.2-0.9,0.5c-2.8,3.9-6.2,5.8-9,6.9c-2.8,1.1-5.1,1.2-5.9,1.2
		c-0.1,0-0.1,0-0.2,0h0c0,0-0.1,0-0.2,0c-0.8,0-3.1-0.1-5.9-1.2c-2.8-1.1-6.1-3.1-9-6.9c-0.2-0.3-0.6-0.5-0.9-0.5
		c-0.4,0-0.7,0.2-0.9,0.5c-2.8,3.8-6.1,5.8-9,6.9C6.1,36.5,4,36.7,3,36.8v-2.9c1,0,3-0.3,5.5-1.4c1.4-0.7,3-1.6,4.4-3
		c1.5-1.4,2.9-3.2,4.1-5.6c0.2-0.5,0.7-0.8,1.3-0.8c0.5,0,1,0.3,1.3,0.8c1.2,2.4,2.6,4.2,4.1,5.6c2.2,2.1,4.6,3.2,6.5,3.8
		c1.9,0.6,3.4,0.6,3.9,0.6c0.1,0,0.1,0,0.2,0l0,0c0,0,0.1,0,0.1,0c0,0,0,0,0,0l0,0c0,0,0.1,0,0.2,0c0.7,0,3-0.1,5.9-1.4
		c1.4-0.7,3-1.6,4.4-3c1.5-1.4,2.9-3.2,4.1-5.6c0.2-0.5,0.7-0.8,1.3-0.8c0.5,0,1,0.3,1.3,0.8c1.2,2.4,2.7,4.2,4.1,5.6
		c2.2,2.1,4.6,3.2,6.5,3.8c1.9,0.6,3.3,0.6,3.8,0.6c0,0,0.1,0,0.1,0l0,0l0,0l0,0l0.1,0l0.1,0l0,0c0,0,0.1,0,0.2,0
		c0.7,0,3-0.1,5.9-1.4c1.4-0.7,2.9-1.6,4.4-3c1.5-1.4,2.9-3.2,4.1-5.6c0.2-0.5,0.7-0.8,1.3-0.8c0.5,0,1,0.3,1.3,0.8
		c1.2,2.4,2.7,4.2,4.1,5.6c2.2,2.1,4.6,3.2,6.5,3.8c1.2,0.4,2.3,0.5,3,0.6V36.7z"/>
</g>
</svg>
