<?xml version="1.0" encoding="utf-8"?>
<!-- Generator: Adobe Illustrator 22.0.1, SVG Export Plug-In . SVG Version: 6.00 Build 0)  -->
<svg version="1.1" id="Layer_1" xmlns="http://www.w3.org/2000/svg" xmlns:xlink="http://www.w3.org/1999/xlink" x="0px" y="0px"
	 viewBox="0 0 130 130" style="enable-background:new 0 0 130 130;" xml:space="preserve">
<style type="text/css">
	.st0{fill:#212E5C;}
</style>
<g>
	<g>
		<g>
			<path class="st0" d="M77.3,106.5H9.6c-0.9,0-1.6-0.7-1.6-1.6V23c0-0.9,0.7-1.6,1.6-1.6h15.3c0.9,0,1.6,0.7,1.6,1.6
				c0,0.9-0.7,1.6-1.6,1.6H11.1v78.8h66.2c0.9,0,1.6,0.7,1.6,1.6S78.2,106.5,77.3,106.5z"/>
		</g>
		<g>
			<path class="st0" d="M55.4,24.6H32.6c-0.9,0-1.6-0.7-1.6-1.6c0-0.9,0.7-1.6,1.6-1.6h22.8c0.9,0,1.6,0.7,1.6,1.6
				C56.9,24,56.3,24.6,55.4,24.6z"/>
		</g>
		<g>
			<path class="st0" d="M108.2,69.9c-0.9,0-1.6-0.7-1.6-1.6V24.6H92.4c-0.9,0-1.6-0.7-1.6-1.6c0-0.9,0.7-1.6,1.6-1.6h15.9
				c0.9,0,1.6,0.7,1.6,1.6v45.3C109.7,69.2,109.1,69.9,108.2,69.9z"/>
		</g>
		<g>
			<path class="st0" d="M85.3,24.6H62.5c-0.9,0-1.6-0.7-1.6-1.6c0-0.9,0.7-1.6,1.6-1.6h22.8c0.9,0,1.6,0.7,1.6,1.6
				C86.8,24,86.2,24.6,85.3,24.6z"/>
		</g>
		<g>
			<g>
				<g>
					<path class="st0" d="M27.7,59.2h-9.1c-0.9,0-1.6-0.7-1.6-1.6v-9.1c0-0.9,0.7-1.6,1.6-1.6h9.1c0.9,0,1.6,0.7,1.6,1.6v9.1
						C29.2,58.5,28.6,59.2,27.7,59.2z M20.2,56h6v-5.8h-6V56z"/>
				</g>
				<g>
					<path class="st0" d="M45.6,59.2h-9.1c-0.9,0-1.6-0.7-1.6-1.6v-9.1c0-0.9,0.7-1.6,1.6-1.6h9.1c0.9,0,1.6,0.7,1.6,1.6v9.1
						C47.1,58.5,46.5,59.2,45.6,59.2z M38,56h6v-5.8h-6V56z"/>
				</g>
				<g>
					<path class="st0" d="M63.4,59.2h-9.1c-0.9,0-1.6-0.7-1.6-1.6v-9.1c0-0.9,0.7-1.6,1.6-1.6h9.1c0.9,0,1.6,0.7,1.6,1.6v9.1
						C64.9,58.5,64.3,59.2,63.4,59.2z M55.9,56h6v-5.8h-6V56z"/>
				</g>
				<g>
					<path class="st0" d="M81.3,59.2h-9.1c-0.9,0-1.6-0.7-1.6-1.6v-9.1c0-0.9,0.7-1.6,1.6-1.6h9.1c0.9,0,1.6,0.7,1.6,1.6v9.1
						C82.8,58.5,82.2,59.2,81.3,59.2z M73.7,56h6v-5.8h-6V56z"/>
				</g>
				<g>
					<path class="st0" d="M99.2,59.2h-9.1c-0.9,0-1.6-0.7-1.6-1.6v-9.1c0-0.9,0.7-1.6,1.6-1.6h9.1c0.9,0,1.6,0.7,1.6,1.6v9.1
						C100.7,58.5,100,59.2,99.2,59.2z M91.6,56h6v-5.8h-6V56z"/>
				</g>
			</g>
			<g>
				<g>
					<path class="st0" d="M27.7,76.5h-9.1c-0.9,0-1.6-0.7-1.6-1.6v-9.1c0-0.9,0.7-1.6,1.6-1.6h9.1c0.9,0,1.6,0.7,1.6,1.6V75
						C29.2,75.9,28.6,76.5,27.7,76.5z M20.2,73.4h6v-6h-6V73.4z"/>
				</g>
				<g>
					<path class="st0" d="M45.6,76.5h-9.1c-0.9,0-1.6-0.7-1.6-1.6v-9.1c0-0.9,0.7-1.6,1.6-1.6h9.1c0.9,0,1.6,0.7,1.6,1.6V75
						C47.1,75.9,46.5,76.5,45.6,76.5z M38,73.4h6v-6h-6V73.4z"/>
				</g>
				<g>
					<path class="st0" d="M63.4,76.5h-9.1c-0.9,0-1.6-0.7-1.6-1.6v-9.1c0-0.9,0.7-1.6,1.6-1.6h9.1c0.9,0,1.6,0.7,1.6,1.6V75
						C64.9,75.9,64.3,76.5,63.4,76.5z M55.9,73.4h6v-6h-6V73.4z"/>
				</g>
			</g>
			<g>
				<g>
					<path class="st0" d="M27.7,93.8h-9.1c-0.9,0-1.6-0.7-1.6-1.6v-9.1c0-0.9,0.7-1.6,1.6-1.6h9.1c0.9,0,1.6,0.7,1.6,1.6v9.1
						C29.2,93.1,28.6,93.8,27.7,93.8z M20.2,90.7h6v-6h-6V90.7z"/>
				</g>
				<g>
					<path class="st0" d="M45.6,93.8h-9.1c-0.9,0-1.6-0.7-1.6-1.6v-9.1c0-0.9,0.7-1.6,1.6-1.6h9.1c0.9,0,1.6,0.7,1.6,1.6v9.1
						C47.1,93.1,46.5,93.8,45.6,93.8z M38,90.7h6v-6h-6V90.7z"/>
				</g>
				<g>
					<path class="st0" d="M63.4,93.8h-9.1c-0.9,0-1.6-0.7-1.6-1.6v-9.1c0-0.9,0.7-1.6,1.6-1.6h9.1c0.9,0,1.6,0.7,1.6,1.6v9.1
						C64.9,93.1,64.3,93.8,63.4,93.8z M55.9,90.7h6v-6h-6V90.7z"/>
				</g>
			</g>
		</g>
		<g>
			<path class="st0" d="M108.2,38.6H9.6C8.7,38.6,8,37.9,8,37s0.7-1.6,1.6-1.6h98.6c0.9,0,1.6,0.7,1.6,1.6
				C109.7,37.9,109.1,38.6,108.2,38.6z"/>
		</g>
		<g>
			<path class="st0" d="M32.6,31.4h-7.1c-0.9,0-1.6-0.7-1.6-1.6V16.2c0-0.9,0.7-1.6,1.6-1.6h7.1c0.9,0,1.6,0.7,1.6,1.6v13.6
				C34.1,30.8,33.4,31.4,32.6,31.4z M27,28.3h4V17.8h-4V28.3z"/>
		</g>
		<g>
			<path class="st0" d="M92.4,31.4h-7.1c-0.9,0-1.6-0.7-1.6-1.6V16.2c0-0.9,0.7-1.6,1.6-1.6h7.1c0.9,0,1.6,0.7,1.6,1.6v13.6
				C93.8,30.8,93.2,31.4,92.4,31.4z M86.8,28.3h4V17.8h-4V28.3z"/>
		</g>
		<g>
			<path class="st0" d="M62.5,31.4h-7.1c-0.9,0-1.6-0.7-1.6-1.6V16.2c0-0.9,0.7-1.6,1.6-1.6h7.1c0.9,0,1.6,0.7,1.6,1.6v13.6
				C63.9,30.8,63.3,31.4,62.5,31.4z M56.9,28.3h4V17.8h-4V28.3z"/>
		</g>
	</g>
	<g>
		<g>
			<path class="st0" d="M96.2,115.4c-3.5,0-6.9-0.7-10-2c-3.1-1.4-5.8-3.2-8.2-5.6c-2.4-2.4-4.2-5.1-5.6-8.2c-1.4-3.2-2-6.6-2-10
				s0.7-6.9,2-10c1.4-3.1,3.2-5.8,5.6-8.2c2.4-2.4,5.1-4.2,8.2-5.6c3.2-1.4,6.6-2,10-2s6.9,0.7,10,2c3.1,1.4,5.8,3.2,8.2,5.6
				s4.2,5.1,5.6,8.2c1.4,3.2,2,6.6,2,10c0,3.5-0.7,6.9-2,10c-1.4,3.1-3.2,5.8-5.6,8.2s-5.1,4.2-8.2,5.6
				C103.1,114.8,99.7,115.4,96.2,115.4z M96.2,66.8c-12.5,0-22.8,10.2-22.8,22.8s10.3,22.7,22.8,22.7S119,102.2,119,89.5
				S108.7,66.8,96.2,66.8z"/>
		</g>
	</g>
	<g>
		<g>
			<path class="st0" d="M96.2,109.8c-5.5,0-10.5-2.1-14.4-6c-3.8-3.8-6-8.9-6-14.4c0-5.5,2.1-10.5,6-14.4s8.9-6,14.4-6
				s10.5,2.1,14.4,6s6,8.9,6,14.4c0,5.5-2.1,10.5-6,14.4C106.7,107.7,101.7,109.8,96.2,109.8z M96.2,72.4c-9.4,0-17.1,7.7-17.1,17.1
				s7.7,17.1,17.1,17.1s17.1-7.7,17.1-17.1S105.7,72.4,96.2,72.4z"/>
		</g>
	</g>
	<g>
		<path class="st0" d="M92.1,82.2h11l0,0c-0.6,1-1,1.5-1.1,1.6h-3c0.4,0.5,0.6,1,0.9,1.7h3.1l0,0c-0.7,1.1-1.1,1.6-1.1,1.6h-2
			c0,0.5-0.2,1.2-0.7,2c-0.6,0.7-1.2,1.2-1.9,1.5c-1.1,0.5-2.1,0.7-3.1,0.7l0,0c0,0.1,2.2,2.7,6.7,7.9h-3c-4.3-5.1-6.5-7.6-6.5-7.6
			v-1.5l0,0c0.4,0,0.9,0.1,1.4,0.1c2.5,0,4-0.7,4.5-2.4c0.1-0.2,0.1-0.5,0.1-0.7h-6.6l0,0c0.7-1.1,1.1-1.6,1.1-1.6h5.3l0,0
			c-0.2-0.6-0.9-1.1-1.7-1.4C95,84,94.5,84,94,84h-3l0,0C91.7,82.7,92,82.2,92.1,82.2z"/>
	</g>
</g>
</svg>
