<?xml version="1.0" encoding="utf-8"?>
<!-- Generator: Adobe Illustrator 22.0.1, SVG Export Plug-In . SVG Version: 6.00 Build 0)  -->
<svg version="1.1" id="Layer_1" xmlns="http://www.w3.org/2000/svg" xmlns:xlink="http://www.w3.org/1999/xlink" x="0px" y="0px"
	 viewBox="0 0 130 130" style="enable-background:new 0 0 130 130;" xml:space="preserve">
<style type="text/css">
	.st0{fill:#20295C;}
</style>
<g>
	<path class="st0" d="M99.4,52.8h-5.2V37.1C94.1,21,81.1,7.8,65,7.8S35.9,20.9,35.9,37v15.7h-5.2c-6.4,0-11.6,5.2-11.6,11.6v46.3
		c0,6.4,5.2,11.6,11.6,11.6h68.7c6.4,0,11.6-5.2,11.6-11.6V64.4C111,58,105.8,52.8,99.4,52.8z M43.4,37.1c0-11.9,9.7-21.6,21.6-21.6
		s21.6,9.7,21.6,21.6v15.7H43.4V37.1z M104.6,110.7c0,2.8-2.4,5.2-5.2,5.2H30.6c-2.8,0-5.2-2.4-5.2-5.2V64.4c0-2.8,2.4-5.2,5.2-5.2
		h68.7c2.8,0,5.2,2.4,5.2,5.2V110.7z"/>
	<path class="st0" d="M65,71.6c-5,0-9.1,4.1-9.1,9.1c0,3.6,2,6.5,5,8.1v10.5c0,2.3,1.9,4.2,4.2,4.2c2.3,0,4.2-1.9,4.2-4.2V88.7
		c2.9-1.5,5-4.6,5-8C74.1,75.7,70,71.6,65,71.6z"/>
</g>
</svg>
