<?xml version="1.0" encoding="utf-8"?>
<!-- Generator: Adobe Illustrator 22.0.1, SVG Export Plug-In . SVG Version: 6.00 Build 0)  -->
<svg version="1.1" id="Layer_1" xmlns="http://www.w3.org/2000/svg" xmlns:xlink="http://www.w3.org/1999/xlink" x="0px" y="0px"
	 viewBox="0 0 100 100" style="enable-background:new 0 0 100 100;" xml:space="preserve">
<style type="text/css">
	.st0{fill:#FFFFFF;}
</style>
<g>
	<path class="st0" d="M76.9,40.4h-4.1V28.1C72.8,15.5,62.6,5.2,50,5.2c-12.6,0-22.8,10.2-22.8,22.8v12.3h-4.1c-5,0-9.1,4.1-9.1,9.1
		v36.2c0,5,4.1,9.1,9.1,9.1h53.8c5,0,9.1-4.1,9.1-9.1V49.5C86,44.5,81.9,40.4,76.9,40.4z M33.1,28.1c0-9.3,7.6-16.9,16.9-16.9
		c9.3,0,16.9,7.6,16.9,16.9v12.3H33.1V28.1z M81,85.7c0,2.2-1.9,4.1-4.1,4.1H23.1c-2.2,0-4.1-1.9-4.1-4.1V49.5
		c0-2.2,1.9-4.1,4.1-4.1h53.8c2.2,0,4.1,1.9,4.1,4.1V85.7z"/>
	<path class="st0" d="M50,55.1c-3.9,0-7.1,3.2-7.1,7.1c0,2.8,1.6,5.1,3.9,6.3v8.2c0,1.8,1.5,3.3,3.3,3.3c1.8,0,3.3-1.5,3.3-3.3v-8.2
		c2.3-1.2,3.9-3.6,3.9-6.3C57.1,58.3,53.9,55.1,50,55.1z"/>
</g>
</svg>
