<?xml version="1.0" encoding="utf-8"?>
<!-- Generator: Adobe Illustrator 22.0.1, SVG Export Plug-In . SVG Version: 6.00 Build 0)  -->
<svg version="1.1" id="Layer_1" xmlns="http://www.w3.org/2000/svg" xmlns:xlink="http://www.w3.org/1999/xlink" x="0px" y="0px"
	 viewBox="0 0 130 130" style="enable-background:new 0 0 130 130;" xml:space="preserve">
<style type="text/css">
	.st0{fill:none;stroke:#20295C;stroke-width:2;stroke-miterlimit:10;}
</style>
<g>
	<path class="st0" d="M47.8,24.1c0-0.4-0.2-0.6-0.6-0.6c-0.4,0-0.6,0.2-0.6,0.6c0,0.4,0.2,0.6,0.6,0.6
		C47.5,24.7,47.8,24.5,47.8,24.1z"/>
	<path class="st0" d="M113.9,25c0-0.4-0.2-0.6-0.6-0.6c-0.4,0-0.6,0.2-0.6,0.6s0.2,0.6,0.6,0.6C113.7,25.4,113.9,25.2,113.9,25z"/>
	<line class="st0" x1="8" y1="114.5" x2="119.5" y2="114.5"/>
	<rect x="8" y="65" class="st0" width="12.2" height="39.1"/>
	<rect x="107.1" y="44.7" class="st0" width="12.2" height="59.4"/>
	<rect x="41" y="44" class="st0" width="12.2" height="60.2"/>
	<ellipse class="st0" cx="47.1" cy="24.2" rx="8.7" ry="8.7"/>
	<ellipse class="st0" cx="113.3" cy="25" rx="8.7" ry="8.7"/>
	<rect x="74.1" y="62.7" class="st0" width="12.2" height="41.3"/>
	<circle class="st0" cx="80.2" cy="43" r="5.2"/>
	<path class="st0" d="M19.3,45.3c0-2.8-2.4-5.2-5.2-5.2s-5.2,2.4-5.2,5.2s2.4,5.2,5.2,5.2C17,50.4,19.3,48.1,19.3,45.3z"/>
	<line class="st0" x1="18" y1="41.8" x2="39.7" y2="28.7"/>
	<line class="st0" x1="55.1" y1="27.6" x2="75.1" y2="40.1"/>
	<line class="st0" x1="84.8" y1="40.5" x2="105.5" y2="28.7"/>
</g>
</svg>
