<?xml version="1.0" encoding="utf-8"?>
<!-- Generator: Adobe Illustrator 22.0.1, SVG Export Plug-In . SVG Version: 6.00 Build 0)  -->
<svg version="1.1" id="Layer_1" xmlns="http://www.w3.org/2000/svg" xmlns:xlink="http://www.w3.org/1999/xlink" x="0px" y="0px"
	 viewBox="0 0 130 130" style="enable-background:new 0 0 130 130;" xml:space="preserve">
<style type="text/css">
	.st0{fill:#212E5C;}
</style>
<g>
	<path class="st0" d="M108.6,107.6h-8.3v-4.9c1.2-4.2,9.6-33,7.3-40.8c-2.4-8.1-17.7-36-18.4-37.2c-0.1-0.1-0.2-0.2-0.3-0.2V9.6
		c0-0.8-0.6-1.4-1.4-1.4H70.2H46.6H29.2c-0.8,0-1.4,0.6-1.4,1.4V27v48v17.4c0,0.8,0.6,1.4,1.4,1.4h17.4h26.9l1.5,4.8H22.8V21.1
		c0-0.8-0.6-1.4-1.4-1.4c-0.8,0-1.4,0.6-1.4,1.4V100c0,0.8,0.6,1.4,1.4,1.4h54.5l0.4,1.4l0.2,4.8H64.8c-0.8,0-1.4,0.6-1.4,1.4v11.4
		c0,0.8,0.6,1.4,1.4,1.4c0.8,0,1.4-0.6,1.4-1.4v-10h41.1v10c0,0.8,0.6,1.4,1.4,1.4c0.8,0,1.4-0.6,1.4-1.4V109
		C110,108.2,109.4,107.6,108.6,107.6z M86.2,25.5c-0.4,0-0.7-0.1-1.1-0.1c-0.4-0.1-0.8-0.1-1.2-0.2c-0.6-0.1-1.2-0.3-1.7-0.5
		c-0.4-0.1-0.7-0.2-1.1-0.4c-0.6-0.3-1.2-0.6-1.7-0.9c-0.3-0.2-0.6-0.3-0.8-0.5c-0.8-0.5-1.5-1.1-2.2-1.8c-0.1-0.1-0.1-0.1-0.2-0.2
		c-0.7-0.7-1.2-1.4-1.8-2.2c-0.2-0.3-0.3-0.6-0.5-0.9c-0.3-0.5-0.7-1.1-0.9-1.7c-0.2-0.4-0.3-0.7-0.4-1.1c-0.2-0.6-0.4-1.1-0.5-1.7
		c-0.1-0.4-0.2-0.8-0.2-1.3c-0.1-0.3-0.1-0.7-0.1-1h14.5V25.5z M45.1,11c0,0.3-0.1,0.7-0.1,1c-0.1,0.4-0.1,0.8-0.2,1.3
		c-0.1,0.6-0.3,1.2-0.5,1.7c-0.1,0.4-0.3,0.8-0.4,1.1c-0.3,0.6-0.6,1.1-0.9,1.7c-0.2,0.3-0.3,0.6-0.5,0.9c-0.5,0.8-1.1,1.5-1.8,2.2
		c-0.1,0.1-0.1,0.1-0.2,0.2c-0.7,0.7-1.4,1.3-2.2,1.8c-0.3,0.2-0.6,0.3-0.8,0.5c-0.6,0.3-1.1,0.7-1.7,0.9c-0.4,0.2-0.7,0.3-1.1,0.4
		c-0.6,0.2-1.1,0.4-1.7,0.5c-0.4,0.1-0.8,0.2-1.2,0.2c-0.3,0.1-0.7,0.1-1.1,0.1V11H45.1z M30.6,76.6c0.4,0,0.7,0.1,1.1,0.1
		c0.4,0.1,0.8,0.1,1.2,0.2c0.6,0.1,1.2,0.3,1.7,0.5c0.4,0.1,0.7,0.2,1.1,0.4c0.6,0.3,1.2,0.6,1.7,0.9c0.3,0.2,0.6,0.3,0.8,0.5
		c0.8,0.5,1.5,1.1,2.2,1.8c0.1,0.1,0.1,0.1,0.2,0.2c0.7,0.7,1.2,1.4,1.8,2.2c0.2,0.3,0.3,0.6,0.5,0.9c0.3,0.5,0.7,1.1,0.9,1.7
		c0.2,0.4,0.3,0.7,0.4,1.1c0.2,0.6,0.4,1.1,0.5,1.7c0.1,0.4,0.2,0.8,0.2,1.3c0.1,0.3,0.1,0.7,0.1,1H30.6V76.6z M47.9,91
		c0-0.5-0.2-0.9-0.2-1.4c-0.1-0.5-0.1-1-0.2-1.5c-0.2-0.7-0.4-1.4-0.6-2c-0.2-0.4-0.3-0.9-0.5-1.3c-0.3-0.7-0.7-1.4-1.1-2
		c-0.2-0.3-0.4-0.7-0.6-1c-0.6-0.9-1.3-1.8-2.1-2.6c0,0-0.1-0.1-0.1-0.1c-0.8-0.8-1.7-1.5-2.6-2.1c-0.3-0.2-0.7-0.4-1-0.6
		c-0.7-0.4-1.3-0.8-2-1.1c-0.4-0.2-0.9-0.3-1.3-0.5c-0.7-0.2-1.3-0.5-2-0.6c-0.5-0.1-1-0.2-1.5-0.2c-0.5-0.1-0.9-0.2-1.4-0.2V28.4
		c0.5,0,0.9-0.2,1.4-0.2c0.5-0.1,1-0.1,1.5-0.2c0.7-0.2,1.4-0.4,2-0.6c0.4-0.2,0.9-0.3,1.3-0.5c0.7-0.3,1.4-0.7,2-1.1
		c0.3-0.2,0.7-0.4,1-0.6c0.9-0.6,1.8-1.3,2.6-2.1c0,0,0.1-0.1,0.1-0.1c0.8-0.8,1.5-1.7,2.1-2.6c0.2-0.3,0.4-0.7,0.6-1
		c0.4-0.7,0.8-1.3,1.1-2c0.2-0.4,0.3-0.9,0.5-1.3c0.2-0.7,0.5-1.3,0.6-2c0.1-0.5,0.2-1,0.2-1.5c0.1-0.5,0.2-0.9,0.2-1.4h21
		c0,0.5,0.2,0.9,0.2,1.4c0.1,0.5,0.1,1,0.2,1.5c0.2,0.7,0.4,1.4,0.6,2c0.2,0.4,0.3,0.9,0.5,1.3c0.3,0.7,0.7,1.4,1.1,2
		c0.2,0.3,0.4,0.7,0.6,1c0.6,0.9,1.3,1.8,2.1,2.6c0,0,0.1,0.1,0.1,0.1c0.8,0.8,1.7,1.5,2.6,2.1c0.3,0.2,0.7,0.4,1,0.6
		c0.7,0.4,1.3,0.8,2,1.1c0.4,0.2,0.9,0.3,1.3,0.5c0.7,0.2,1.3,0.5,2,0.6c0.5,0.1,1,0.2,1.5,0.2c0.5,0.1,0.9,0.2,1.4,0.2v29.1
		c-1.6-4.9-3.8-8.4-6.1-9.6c-1.4-0.7-3.2-0.7-4.6,0.2C74,48.9,73,50.4,73,52.1c-0.1,1.1-2.4,26.8-1.9,34.1l1.5,4.8H47.9z
		 M79.1,102.5c0-0.1,0-0.3-0.1-0.4l-5.3-16.4c-0.5-6.7,1.9-33,2-33.4c0-0.8,0.5-1.5,1.2-1.9c0.6-0.4,1.3-0.4,1.9-0.1
		c2.3,1.2,6.1,7.9,7.4,21.7c0.1,0.7,0.6,1.4,1.4,1.3c0.7,0,1.3-0.6,1.3-1.4l0.4-41.1c4.6,8.5,13.9,26,15.6,31.9
		c1.8,6-4.7,30.5-7.4,39.4c0,0.1-0.1,0.3-0.1,0.4v5.1H79.3L79.1,102.5z"/>
	<path class="st0" d="M73.1,113.5c-1.1,0-2.1,0.9-2.1,2.1c0,1.1,0.9,2.1,2.1,2.1c1.1,0,2.1-0.9,2.1-2.1
		C75.2,114.5,74.3,113.5,73.1,113.5z"/>
	<g>
		<path class="st0" d="M48.4,37.9h17.3v0c-1,1.6-1.6,2.4-1.7,2.5h-4.6c0.6,0.7,1.1,1.6,1.3,2.7h4.9c0.1,0,0.1,0,0.1,0.1
			c-1.1,1.7-1.7,2.5-1.7,2.5h-3.2c-0.1,0.9-0.5,1.9-1.2,3.1c-1,1.2-1.9,2-2.8,2.4c-1.7,0.8-3.3,1.2-4.8,1.2v0
			c0,0.1,3.5,4.2,10.4,12.3h-4.6C51,56.8,47.6,52.8,47.6,52.8v-2.4l0-0.1c0.6,0.1,1.3,0.1,2.1,0.1c3.8,0,6.1-1.2,7.1-3.7
			C57,46.4,57,46,57,45.7H46.8c0,0-0.1,0-0.1-0.1c1.1-1.7,1.7-2.5,1.7-2.5h8.2v0c-0.5-0.9-1.4-1.7-2.7-2.2c-1-0.3-1.8-0.5-2.6-0.5
			h-4.6v-0.1C47.8,38.7,48.4,37.9,48.4,37.9z"/>
	</g>
</g>
</svg>
