<?xml version="1.0" encoding="utf-8"?>
<!-- Generator: Adobe Illustrator 22.0.1, SVG Export Plug-In . SVG Version: 6.00 Build 0)  -->
<svg version="1.1" id="Layer_1" xmlns="http://www.w3.org/2000/svg" xmlns:xlink="http://www.w3.org/1999/xlink" x="0px" y="0px"
	 viewBox="0 0 130 130" style="enable-background:new 0 0 130 130;" xml:space="preserve">
<style type="text/css">
	.st0{fill:none;stroke:#212E5C;stroke-width:3;stroke-miterlimit:10;}
</style>
<g>
	<path class="st0" d="M40.2,104.3h2.7c5.9,0,7.4,7.8,15.7,7.8c1.7,0,20.9,0,20.9,0"/>
	<path class="st0" d="M116,75.5c0-2.9-2.3-5.2-5.2-5.2H97.7c-2.9,0-5.2,2.3-5.2,5.2v5.2c0,2.9,2.3,5.2,5.2,5.2h13.1
		c2.9,0,5.2-2.3,5.2-5.2V75.5z"/>
	<path class="st0" d="M113.4,59.8c0-2.9-2.3-5.2-5.2-5.2H95.1c-2.9,0-5.2,2.3-5.2,5.2v5.2c0,2.9,2.3,5.2,5.2,5.2h13.1
		c2.9,0,5.2-2.3,5.2-5.2V59.8z"/>
	<path class="st0" d="M113.4,91.2c0-2.9-2.3-5.2-5.2-5.2H95.1c-2.9,0-5.2,2.3-5.2,5.2v5.2c0,2.9,2.3,5.2,5.2,5.2h13.1
		c2.9,0,5.2-2.3,5.2-5.2V91.2z"/>
	<path class="st0" d="M108.2,106.9c0-2.9-2.3-5.2-5.2-5.2H89.8c-2.9,0-5.2,2.3-5.2,5.2v2.6c0,2.9,2.3,5.2,5.2,5.2h13.1
		c2.9,0,5.2-2.3,5.2-5.2V106.9z"/>
	<rect x="14" y="54.6" class="st0" width="26.2" height="57.5"/>
	<path class="st0" d="M61.6,91.2C74,86.6,81.7,74.9,82,62.4c0,0,0-11.4,0-13.1c0-1.9,2.6-6.1,2.6-14.6c0-8.6-1.6-11.8-5.2-16.5
		c-3.7-4.8-10.5-3.4-10.5,1.2v3.8c0,10.3-3.8,17.3-10.7,25.1L48,59.8h-5.2"/>
	<line class="st0" x1="27.1" y1="62.4" x2="27.1" y2="72.9"/>
</g>
</svg>
