<?xml version="1.0" encoding="utf-8"?>
<!-- Generator: Adobe Illustrator 22.1.0, SVG Export Plug-In . SVG Version: 6.00 Build 0)  -->
<svg version="1.1" id="Layer_1" xmlns="http://www.w3.org/2000/svg" xmlns:xlink="http://www.w3.org/1999/xlink" x="0px" y="0px"
	 viewBox="0 0 130 130" style="enable-background:new 0 0 130 130;" xml:space="preserve">
<style type="text/css">
	.st0{fill:none;stroke:#20295C;stroke-width:4;stroke-miterlimit:10;}
</style>
<g>
	<path class="st0" d="M44.8,82H20.3c-2.3,0-4.3-1.9-4.3-4.3V20.3c0-2.3,1.9-4.3,4.3-4.3h89.5c2.3,0,4.3,1.9,4.3,4.3v57.5"/>
	<polyline class="st0" points="56.4,65 48,65 48,48 82,48 82,60.2 	"/>
	<path class="st0" d="M75.5,84.8c0-2,0.9-3.7,2.3-4.9c1.1-1,2.6-1.5,4.1-1.5c1.6,0,3,0.6,4.1,1.5c0.1,0.1,0.3,0.2,0.4,0.4
		c1.2,1.2,1.9,2.7,1.9,4.5v10.7"/>
	<path class="st0" d="M62.7,111.9V61.4c0-3.5,2.9-6.4,6.4-6.4c3.5,0,6.4,2.9,6.4,6.4v1.5v32"/>
	<path class="st0" d="M50.1,114c0-4.4-0.7-8.5-1.8-12.8l-2-7.3c-0.6-2.3,0.1-4.6,1.6-6.1c0.8-0.8,1.8-1.4,2.9-1.7
		c1.2-0.3,2.3-0.3,3.4,0c0.5,0.1,1,0.3,1.5,0.6c1.4,0.8,2.5,2.2,3,3.9l4.1,10.3"/>
	<path class="st0" d="M113.9,114V89.1c0-1.8-0.7-3.4-1.9-4.5c-0.2-0.2-0.5-0.4-0.7-0.6c-1-0.8-2.4-1.2-3.8-1.2c-1.6,0-3,0.6-4.1,1.5
		c-1.4,1.2-2.3,2.9-2.3,4.9v6.4V84.8c0-0.2,0-0.4,0-0.6v0l0,0l0,0c0,0,0,0,0,0l0,0c-0.1-1.5-0.8-2.9-1.8-3.9
		c-0.1-0.1-0.3-0.3-0.4-0.4c-1.1-1-2.6-1.5-4.1-1.5c-1.6,0-3,0.6-4.1,1.5c-1.4,1.2-2.3,2.9-2.3,4.9"/>
</g>
</svg>
