<?xml version="1.0" encoding="utf-8"?>
<!-- Generator: Adobe Illustrator 22.0.1, SVG Export Plug-In . SVG Version: 6.00 Build 0)  -->
<svg version="1.1" id="Layer_1" xmlns="http://www.w3.org/2000/svg" xmlns:xlink="http://www.w3.org/1999/xlink" x="0px" y="0px"
	 viewBox="0 0 130 130" style="enable-background:new 0 0 130 130;" xml:space="preserve">
<style type="text/css">
	.st0{fill:#212E5C;}
</style>
<g>
	<g>
		<path class="st0" d="M49,54.8c-5.2,0-9.4-4.2-9.4-9.4c0-5.2,4.2-9.4,9.4-9.4c5.2,0,9.4,4.2,9.4,9.4C58.3,50.7,54.1,54.8,49,54.8z
			 M49,40.3c-2.9,0-5.2,2.3-5.2,5.2s2.3,5.2,5.2,5.2c2.9,0,5.2-2.3,5.2-5.2S51.9,40.3,49,40.3z"/>
	</g>
	<path class="st0" d="M102.7,29.9l6.9-9.1c0.9-1.3,0.2-3.2-1.7-3.2H73.8v-4.3c0-1.1-0.9-2.1-2.1-2.1c-1.1,0-2.1,0.9-2.1,2.1v35.1
		L54,56.8h-9L27.6,48c-0.7-0.4-1.5-0.6-2.4-0.6c-2.9,0-5.1,2.2-5.2,5l0,0.1c0,3,2.3,4.5,5,6.2c1.5,0.9,0.1,0.1,12.4,8.2v43.3
		c0,4.6,6.5,9.1,11.6,4.4c1.4,1.2,2.6,2,4.8,2c3.8,0,6.9-2.8,6.9-6.4V67l9.1-6.1v55.7c0,1.1,0.9,2.1,2.1,2.1c1.1,0,2.1-0.9,2.1-2.1
		V58.2c2.3-1.5,4.1-3,4.1-5.7l0-0.2c-0.1-2.4-1.8-4.4-4.1-4.8v-5.3h34.1c1.7,0,2.7-2,1.7-3.3L102.7,29.9z M70.7,55.3
		c-1.2,0.8-0.3,0.2-12.9,8.5l-1.4,1.4v45c0,3-5.4,3.1-5.4,0V85.7h-4.1v24.6c0,2.9-5.4,2.9-5.4,0v-45l-1-1.1
		c-13.1-8.8-11.7-7.9-13.3-8.9c-2.2-1.4-3.1-2.1-3.1-2.8c0-0.8,1-1.1,1.6-0.8L44,60.9h11l17.3-9.1c0.6-0.3,1.5,0,1.6,0.8
		C73.8,53.3,72.9,53.9,70.7,55.3z M73.8,38.2V21.8h30l-5.3,7c-0.6,0.7-0.6,1.7,0,2.4l5.3,7H73.8z"/>
</g>
</svg>
