<?xml version="1.0" encoding="utf-8"?>
<!-- Generator: Adobe Illustrator 22.0.1, SVG Export Plug-In . SVG Version: 6.00 Build 0)  -->
<svg version="1.1" id="Layer_1" xmlns="http://www.w3.org/2000/svg" xmlns:xlink="http://www.w3.org/1999/xlink" x="0px" y="0px"
	 viewBox="0 0 130 130" style="enable-background:new 0 0 130 130;" xml:space="preserve">
<style type="text/css">
	.st0{fill:#20295C;}
</style>
<g>
	<g>
		<path class="st0" d="M70.8,53.6c0.1,0,0.3-0.1,0.4-0.1c2.1-0.3,5.7-0.9,9.8-0.3c8,1,13.6,5,17,12.1c0.1,0.2,0.2,0.3,0.2,0.6v0.1
			c0,0.1,0.2,0.4,0.7,1v-4c0-0.4,0-1,0.1-1.4c-3.9-6.3-10-10.1-17.8-11.1c-3.5-0.4-6.9-0.2-9.1,0.1C71.8,51.6,71.2,52.6,70.8,53.6z"
			/>
		<path class="st0" d="M99.1,110.6h-7.9H79.7h-0.1c-19.2,2-28.5-0.7-33-3.3h-4.5c3.1,3.1,10,6.9,25.3,6.9c3.7,0,7.8-0.2,12.5-0.7
			h20.4C99.7,112.6,99.4,111.6,99.1,110.6z"/>
		<path class="st0" d="M22.1,64.5c-2.9,0-5.2-2.3-5.2-5.2c0-2.9,2.3-5.2,5.2-5.2h0.1c-0.4-0.9-0.9-1.8-1.3-2.7
			C17,52,14,55.3,14,59.3c0,2.8,1.4,5.2,3.5,6.7C18.8,65.1,20.4,64.5,22.1,64.5z"/>
		<path class="st0" d="M61.8,72.8H59c-0.1,2.8-2.4,5-5.2,5c1.7,0,3.2,0.6,4.5,1.4C60.3,77.8,61.7,75.5,61.8,72.8z"/>
		<path class="st0" d="M22.1,77.8c-2.9,0-5.2-2.3-5.2-5.2c0-2.9,2.3-5.2,5.2-5.2H30c-0.2-0.8-0.4-1.7-0.4-2.5c0-0.1,0-0.1,0-0.2H22
			c-1.7,0-3.2,0.6-4.5,1.4c-2,1.3-3.4,3.8-3.4,6.5c0,2.8,1.4,5.2,3.5,6.7C18.8,78.4,20.4,77.8,22.1,77.8z"/>
		<path class="st0" d="M14,85.9c0,3.9,2.8,7.1,6.3,7.9c1.4-1.6,3.5-2.6,5.9-2.6H22c-2.9,0-5.2-2.3-5.2-5.2s2.3-5.2,5.2-5.2h31.7
			c2.9,0,5.2,2.3,5.2,5.2s-2.3,5.2-5.2,5.2h4.2c0.6,0,1.1,0.1,1.7,0.2c1.3-1.4,2.1-3.3,2.1-5.4c0-2.8-1.4-5.2-3.5-6.7
			c-1.3-0.9-2.9-1.4-4.5-1.4H22.1c-1.7,0-3.2,0.6-4.5,1.4C15.4,80.7,14,83.1,14,85.9z"/>
		<path class="st0" d="M46.6,107.3h11.3c1.4,0,2.9-0.4,4.1-1.1c2.4-1.4,4-4,4-7c0-3.9-2.8-7.1-6.3-7.9c-0.6-0.1-1.1-0.2-1.7-0.2
			h-4.2H26.2c-2.3,0-4.4,1-5.9,2.6c-1.3,1.4-2.1,3.3-2.1,5.4c0,4.4,3.7,8.1,8.1,8.1h15.9h4.4V107.3z M26.2,94h27.5h4.2
			c2.9,0,5.2,2.3,5.2,5.2s-2.3,5.2-5.2,5.2H26.2c-2.9,0-5.2-2.3-5.2-5.2S23.3,94,26.2,94z"/>
		<path class="st0" d="M22.1,54c1.9,3.4,4.5,6.4,7.7,8.8c0.2-1,0.7-1.9,1.2-2.7c-5.8-4.5-9.5-11.6-9.5-19.6
			c0-13.7,11.2-24.8,24.8-24.8c13.7,0,24.8,11.2,24.8,24.8c0,6.1-2.2,11.8-6,16.1h3.5c0.7-1,1.3-2,1.9-3.1c0.6-1,1-2,1.4-3.1
			c1.2-3.1,1.9-6.4,1.9-10c0-15.3-12.4-27.7-27.7-27.7S18.4,25,18.4,40.3c0,3.8,0.8,7.4,2.2,10.8C21.2,52.3,21.6,53.2,22.1,54z"/>
		<path class="st0" d="M37.6,72.8H59h2.8h6.1c0.1,1.9,0.9,5.2,3.5,7.8c2.6,2.4,6.1,3.7,10.6,3.7c0.8,0,1.4,0,2.2-0.1
			c0.8-0.1,1.3-0.8,1.3-1.6c-0.1-0.8-0.8-1.3-1.6-1.3c-0.2,0-0.4,0-0.7,0c-4.5,0.2-7.9-0.7-10.1-2.9c-3-2.9-2.8-7.1-2.8-7.1
			c0-0.3-0.1-0.8-0.3-1c-0.2-0.3-0.7-0.4-1-0.4H37.6c-2.9,0-5.2-2.3-5.2-5.2c0-2.9,2.3-5.2,5.2-5.2h31.7c0.2,0,0.6-0.1,0.8-0.2
			c0.4-0.2,0.7-0.7,0.7-1.2c0-0.8-0.7-1.4-1.4-1.4h-0.4h-3.5H47.7h-2.8h-7.3c-2.8,0-5.1,1.3-6.7,3.4c-0.6,0.8-1,1.7-1.2,2.7
			c-0.1,0.6-0.2,1.1-0.2,1.8c0,0.1,0,0.1,0,0.2c0,0.9,0.1,1.8,0.4,2.6C31.1,70.5,34.1,72.8,37.6,72.8z"/>
		<path class="st0" d="M98.9,66.9v41.9c0,0.6,0.1,1.2,0.2,1.8c0.2,1,0.6,2,1.1,2.8c1.6,2.4,4.2,4,7.2,4c4.7,0,8.5-3.9,8.5-8.5V62.9
			c0-4.7-3.9-8.5-8.5-8.5c-4.2,0-7.8,3.1-8.4,7.1c-0.1,0.4-0.1,0.9-0.1,1.4V66.9z M101.7,62.9c0-3.2,2.6-5.8,5.8-5.8
			c3.2,0,5.8,2.5,5.8,5.8v46c0,3.2-2.6,5.8-5.8,5.8s-5.8-2.6-5.8-5.8V62.9z"/>
	</g>
	<g>
		<path class="st0" d="M40.3,28.9H55l0,0c-0.9,1.3-1.3,2-1.4,2.1h-3.9c0.6,0.7,0.9,1.4,1.1,2.3H55c0,0,0.1,0,0.1,0.1
			c-0.9,1.4-1.4,2.1-1.4,2.1h-2.8c-0.1,0.8-0.4,1.6-1,2.7c-0.9,1-1.7,1.7-2.4,2c-1.4,0.7-2.8,1-4.1,1l0,0c0,0.1,3,3.5,8.9,10.5h-3.9
			c-5.8-6.7-8.6-10.1-8.6-10.1v-2v-0.1c0.6,0.1,1.1,0.1,1.8,0.1c3.2,0,5.2-1,6-3.1c0.1-0.3,0.2-0.7,0.2-1h-8.8c0,0-0.1,0-0.1-0.1
			c1-1.4,1.4-2.1,1.4-2.1h7l0,0c-0.4-0.8-1.2-1.4-2.3-1.9c-0.8-0.2-1.6-0.4-2.2-0.4h-3.9v-0.1C39.8,29.6,40.3,28.9,40.3,28.9z"/>
	</g>
</g>
</svg>
