<?xml version="1.0" encoding="utf-8"?>
<!-- Generator: Adobe Illustrator 22.1.0, SVG Export Plug-In . SVG Version: 6.00 Build 0)  -->
<svg version="1.1" id="Layer_1" xmlns="http://www.w3.org/2000/svg" xmlns:xlink="http://www.w3.org/1999/xlink" x="0px" y="0px"
	 viewBox="0 0 130 130" style="enable-background:new 0 0 130 130;" xml:space="preserve">
<style type="text/css">
	.st0{fill:#20295C;}
</style>
<g>
	<g>
		<rect x="55.3" y="63.1" class="st0" width="3.9" height="3.9"/>
		<rect x="63.1" y="63.1" class="st0" width="3.9" height="3.9"/>
		<rect x="70.8" y="63.1" class="st0" width="3.9" height="3.9"/>
	</g>
	<g>
		<path class="st0" d="M65,116.6c-28.5,0-51.6-23.1-51.6-51.6S36.5,13.4,65,13.4c28.5,0,51.6,23.1,51.6,51.6S93.5,116.6,65,116.6z
			 M65,17.3c-26.3,0-47.7,21.4-47.7,47.7c0,26.3,21.4,47.7,47.7,47.7c26.3,0,47.7-21.4,47.7-47.7C112.7,38.7,91.3,17.3,65,17.3z"/>
		<path class="st0" d="M65,116.6c-15,0-26.8-22.7-26.8-51.6C38.2,36.1,50,13.4,65,13.4v3.9c-12.4,0-22.9,21.9-22.9,47.7
			c0,25.9,10.5,47.7,22.9,47.7V116.6z"/>
		<path class="st0" d="M65,116.6v-3.9c12.4,0,22.9-21.9,22.9-47.7c0-25.9-10.5-47.7-22.9-47.7v-3.9c15,0,26.8,22.7,26.8,51.6
			C91.8,93.9,80,116.6,65,116.6z"/>
		<rect x="63.1" y="15.3" class="st0" width="3.9" height="43.8"/>
		<rect x="63.1" y="70.8" class="st0" width="3.9" height="43.8"/>
		<rect x="15.3" y="63.1" class="st0" width="36.1" height="3.9"/>
		<rect x="78.6" y="63.1" class="st0" width="36.1" height="3.9"/>
		<path class="st0" d="M65,42.1c-13.4,0-26.7-2.1-39.4-6.3l1.2-3.7c12.3,4,25.1,6.1,38.1,6.1c13,0,25.9-2,38.2-6.1l1.2,3.7
			C91.7,40,78.5,42.1,65,42.1z"/>
		<path class="st0" d="M26.9,97.9l-1.2-3.7C38.3,90,51.6,87.9,65,87.9c13.4,0,26.7,2.1,39.4,6.3l-1.2,3.7c-12.3-4-25.1-6.1-38.2-6.1
			C52,91.8,39.1,93.8,26.9,97.9z"/>
	</g>
</g>
</svg>
