<?xml version="1.0" encoding="utf-8"?>
<!-- Generator: Adobe Illustrator 22.1.0, SVG Export Plug-In . SVG Version: 6.00 Build 0)  -->
<svg version="1.1" id="Layer_1" xmlns="http://www.w3.org/2000/svg" xmlns:xlink="http://www.w3.org/1999/xlink" x="0px" y="0px"
	 viewBox="0 0 130 130" style="enable-background:new 0 0 130 130;" xml:space="preserve">
<style type="text/css">
	.st0{fill:#20295C;}
</style>
<g>
	<polygon class="st0" points="82.2,115.9 47.8,115.9 47.8,104.5 51.7,104.5 51.7,112 78.3,112 78.3,104.5 82.2,104.5 	"/>
	<rect x="41.1" y="112" class="st0" width="47.9" height="3.9"/>
	<path class="st0" d="M118.8,88.2H11.2V19.7c0-1.5,0.6-2.9,1.6-4c1.1-1.1,2.5-1.6,4-1.6h96.3c1.5,0,2.9,0.6,4,1.6
		c1.1,1.1,1.6,2.5,1.6,4V88.2z M15.1,84.3h99.7V19.7c0-0.5-0.2-0.9-0.5-1.2c-0.3-0.3-0.7-0.5-1.2-0.5H16.8c-0.5,0-0.9,0.2-1.2,0.5
		c-0.3,0.3-0.5,0.8-0.5,1.2V84.3z"/>
	<path class="st0" d="M113.2,100.4H16.8c-1.5,0-2.9-0.6-4-1.6c-1.1-1-1.6-2.5-1.6-4V84.3h107.5v10.5c0,1.5-0.6,2.9-1.6,4
		C116.1,99.8,114.7,100.4,113.2,100.4z M15.1,88.2v6.6c0,0.5,0.2,0.9,0.5,1.2c0.3,0.3,0.8,0.5,1.2,0.5h96.3c0.5,0,0.9-0.2,1.2-0.5
		c0.3-0.3,0.5-0.8,0.5-1.2v-6.6H15.1z"/>
	<path class="st0" d="M110.1,79.6H19.9V22.8h90.2V79.6z M23.8,75.7h82.5v-49H23.8V75.7z"/>
	<g>
		<g>
			<g>
				<rect x="38.8" y="48.3" class="st0" width="3.9" height="14.5"/>
				<rect x="30.7" y="58.5" class="st0" width="3.9" height="4.3"/>
				<rect x="46.9" y="53.8" class="st0" width="3.9" height="9"/>
				<rect x="55" y="41.2" class="st0" width="3.9" height="21.6"/>
				<rect x="63.1" y="44.5" class="st0" width="3.9" height="18.2"/>
				<rect x="71.2" y="33" class="st0" width="3.9" height="29.8"/>
				<rect x="79.2" y="47.3" class="st0" width="3.9" height="15.5"/>
				<rect x="87.4" y="50.4" class="st0" width="3.9" height="12.4"/>
				<rect x="95.4" y="38" class="st0" width="3.9" height="24.8"/>
			</g>
		</g>
		<rect x="30.7" y="67.4" class="st0" width="68.7" height="3.9"/>
	</g>
	<g>
		<rect x="30.7" y="31.1" class="st0" width="20.1" height="3.9"/>
		<rect x="30.7" y="39.9" class="st0" width="12" height="3.9"/>
	</g>
</g>
</svg>
