<?xml version="1.0" encoding="utf-8"?>
<!-- Generator: Adobe Illustrator 22.1.0, SVG Export Plug-In . SVG Version: 6.00 Build 0)  -->
<svg version="1.1" id="Layer_1" xmlns="http://www.w3.org/2000/svg" xmlns:xlink="http://www.w3.org/1999/xlink" x="0px" y="0px"
	 viewBox="0 0 130 130" style="enable-background:new 0 0 130 130;" xml:space="preserve">
<style type="text/css">
	.st0{fill:#20295C;}
</style>
<g>
	<g>
		<polygon class="st0" points="34.6,104 11,104 11,100.6 31.2,100.6 31.2,59.6 11,59.6 11,56.2 34.6,56.2 		"/>
		<rect x="23.6" y="92" class="st0" width="3.4" height="3.4"/>
	</g>
	<g>
		<rect x="52.5" y="62.4" class="st0" width="3.4" height="8.6"/>
		<rect x="59.4" y="56.5" class="st0" width="3.4" height="19.5"/>
		<rect x="66.4" y="59.1" class="st0" width="3.4" height="17"/>
		<rect x="73.4" y="51.7" class="st0" width="3.4" height="24.4"/>
		<rect x="80.3" y="53.7" class="st0" width="3.4" height="22.3"/>
		<rect x="87.3" y="43.6" class="st0" width="3.4" height="32.4"/>
		<rect x="94.2" y="47.5" class="st0" width="3.4" height="33.9"/>
	</g>
	<path class="st0" d="M110.3,73.8l-3.2-1.2c1.6-4,2.3-8.2,2.3-12.5c0-18.9-15.4-34.4-34.4-34.4c-18.9,0-34.4,15.4-34.4,34.4
		c0,2,0.2,4.1,0.6,6.1l-3.4,0.6c-0.4-2.2-0.6-4.5-0.6-6.7c0-20.8,16.9-37.8,37.8-37.8s37.8,16.9,37.8,37.8
		C112.8,64.8,112,69.4,110.3,73.8z"/>
	<g>
		<path class="st0" d="M73.1,107.7c-1.6,0-3.2-0.3-4.7-0.9L40,95.4h-7.1V92h7.8l29,11.6c1.4,0.5,3,0.7,4.6,0.6
			c1.6-0.2,3.1-0.7,4.4-1.5l35.7-23.4c0.7-0.5,1.1-1.2,1.2-2.1c0.1-0.8-0.1-1.7-0.6-2.4l-0.1-0.1c-0.5-0.6-1.2-1.1-1.9-1.2
			c-0.8-0.1-1.6,0-2.2,0.4l-19,11.8l-1.8-2.9l19-11.8c1.4-0.9,3.1-1.2,4.7-0.9c1.6,0.3,3.1,1.2,4.1,2.5l0.1,0.1
			c1.1,1.4,1.5,3.2,1.3,4.9c-0.3,1.8-1.2,3.3-2.6,4.4l-0.1,0l-35.8,23.5c-1.8,1.1-3.8,1.8-5.9,2.1C74.1,107.6,73.6,107.7,73.1,107.7
			z"/>
		<path class="st0" d="M59.6,90.3h-3.4c0-3.6,2.9-6.5,6.5-6.5h25c1.7,0,3.1-1.4,3.1-3.1c0-1.7-1.4-3.1-3.1-3.1H62.1L53,71.9
			c-1.9-1.2-3.9-2.1-6-2.7c-2.1-0.6-4.3-0.9-6.5-0.9h-7.6v-3.4h7.6c2.5,0,5.1,0.4,7.5,1.1c2.4,0.7,4.8,1.8,6.9,3.1l8.3,5.3h24.5
			c3.6,0,6.5,2.9,6.5,6.5c0,3.6-2.9,6.5-6.5,6.5h-25C60.9,87.3,59.6,88.6,59.6,90.3z"/>
	</g>
</g>
</svg>
