<?xml version="1.0" encoding="utf-8"?>
<!-- Generator: Adobe Illustrator 22.0.1, SVG Export Plug-In . SVG Version: 6.00 Build 0)  -->
<svg version="1.1" id="Layer_1" xmlns="http://www.w3.org/2000/svg" xmlns:xlink="http://www.w3.org/1999/xlink" x="0px" y="0px"
	 viewBox="0 0 130 130" style="enable-background:new 0 0 130 130;" xml:space="preserve">
<style type="text/css">
	.st0{fill:#212E5C;}
</style>
<g>
	<g>
		<path class="st0" d="M55.6,65h20.4v0c-1.2,1.8-1.9,2.8-2,3h-5.4c0.7,0.9,1.3,1.9,1.5,3.2h5.8c0.1,0,0.1,0,0.1,0.1
			c-1.3,1.9-2,2.9-2,2.9h-3.8c-0.1,1-0.6,2.2-1.4,3.6c-1.2,1.4-2.3,2.3-3.3,2.8c-2,0.9-3.9,1.4-5.7,1.4v0c0,0.1,4.1,5,12.3,14.5
			h-5.4c-8-9.3-11.9-13.9-11.9-14v-2.8l0-0.1c0.7,0.1,1.5,0.1,2.5,0.1c4.5,0,7.2-1.4,8.3-4.3c0.2-0.4,0.3-0.9,0.3-1.3H53.6
			c-0.1,0-0.1,0-0.1-0.1c1.3-1.9,2-2.9,2.1-2.9h9.6v0c-0.6-1.1-1.6-2-3.2-2.6c-1.1-0.4-2.1-0.6-3-0.6h-5.4v-0.1
			C54.9,65.9,55.5,65,55.6,65z"/>
	</g>
	<path class="st0" d="M120.1,74.4c1.9-17.7-0.8-30.6-8.1-38.3c-2.6-2.8-5.4-4.5-8-5.5l8.1-7c0.3-0.3,0.5-0.6,0.5-1
		c0-0.3,0.1-3-1.8-4.7c-1.3-1.1-3-1.6-5.2-1.2c-1.8,0.3-2.1,0-2.7-0.9c-1.2-1.6-2.6-3-7.1-3c-4.5,0-5.9,1.4-7.1,3
		c-0.6,0.8-0.8,1.1-2.7,0.9c-2.2-0.3-4,0.1-5.2,1.2c-1.9,1.7-1.9,4.4-1.8,4.7c0,0.4,0.2,0.8,0.5,1l0.6,0.6c-0.6,0-1.3,0-2,0.1
		c-2.7,0.4-3.2-0.2-4-1.3c-1.2-1.6-2.8-3.8-9.1-3.8c-6.3,0-7.9,2.2-9.1,3.8c-0.9,1.2-1.3,1.8-4,1.3c-0.7-0.1-1.3-0.2-2-0.1l0.6-0.6
		c0.3-0.3,0.5-0.6,0.5-1c0-0.3,0.1-3-1.8-4.7c-1.3-1.1-3-1.6-5.2-1.2c-1.8,0.3-2.1,0-2.7-0.9c-1.2-1.6-2.6-3-7.1-3
		c-4.5,0-5.9,1.4-7.1,3c-0.6,0.8-0.8,1.1-2.7,0.9c-2.2-0.3-4,0.1-5.2,1.2c-1.9,1.7-1.9,4.4-1.8,4.7c0,0.4,0.2,0.8,0.5,1l8.1,7
		c-2.6,1-5.4,2.7-8,5.5c-7.3,7.7-10,20.6-8.1,38.3c-1.6,1-4.7,3.5-3.7,7.4c0.6,2.4,1.8,4.1,3.7,4.9c0.8,0.4,1.7,0.5,2.6,0.5
		c2,0,3.9-0.8,4.6-1.1h15.3c0,4.7,0.2,9.7,0.8,15.1c-2,1.2-6.2,4.4-5,9.5c0.8,3.1,2.3,5.2,4.6,6.2c3.7,1.6,8-0.3,9.3-0.9H88
		c0.9,0.4,3.4,1.5,6,1.5c1.1,0,2.2-0.2,3.3-0.6c2.3-1,3.8-3.1,4.6-6.2c1.3-5.1-3-8.3-5-9.5c0.6-5.4,0.8-10.4,0.8-15.1h15.3
		c0.8,0.4,2.6,1.1,4.6,1.1c0.9,0,1.7-0.1,2.6-0.5c1.8-0.8,3.1-2.4,3.7-4.9C124.8,77.9,121.7,75.4,120.1,74.4z M82.7,19.9
		c0.6-0.5,1.6-0.7,2.9-0.5c3.3,0.5,4.4-0.6,5.4-2c0.7-1,1.4-1.9,4.8-1.9s4.1,0.9,4.8,1.9c1,1.4,2.2,2.5,5.4,2c1.3-0.2,2.3,0,2.9,0.5
		c0.6,0.5,0.8,1.3,0.9,1.9l-8.6,7.4c-0.1,0.1-0.2,0.2-0.2,0.3c-2.8-0.7-4.8-0.6-5.1-0.6c-0.3,0-2.3,0-5.1,0.6
		c-0.1-0.1-0.1-0.2-0.2-0.3l-8.6-7.4C81.9,21.3,82.1,20.5,82.7,19.9z M51.4,27.1c4.1,0.6,5.5-0.7,6.8-2.5c1-1.3,2-2.7,6.8-2.7
		c4.8,0,5.8,1.4,6.8,2.7c1.3,1.8,2.7,3.1,6.8,2.5c1.9-0.3,3.3,0,4.2,0.8c1,0.9,1.3,2.3,1.3,3.1L72.4,41c-0.2,0.2-0.3,0.3-0.4,0.6
		c-3.9-1-6.8-0.9-6.9-0.9c-0.2,0-3.1-0.1-7.1,0.9c-0.1-0.2-0.2-0.4-0.4-0.6l-11.7-10c0.1-0.8,0.3-2.2,1.3-3.1
		C48.1,27.1,49.5,26.8,51.4,27.1z M20.2,21.8c0.1-0.5,0.3-1.4,0.8-1.9c0.6-0.5,1.6-0.7,2.9-0.5c3.3,0.5,4.4-0.6,5.4-2
		c0.7-1,1.4-1.9,4.8-1.9c3.4,0,4.1,0.9,4.8,1.9c1,1.4,2.2,2.5,5.4,2c1.3-0.2,2.3,0,2.9,0.5c0.6,0.5,0.8,1.3,0.9,1.9l-8.6,7.4
		c-0.1,0.1-0.2,0.2-0.2,0.3c-2.8-0.7-4.8-0.6-5.1-0.6c-0.3,0-2.3,0-5.1,0.6c-0.1-0.1-0.1-0.2-0.2-0.3L20.2,21.8z M32.4,83.1H16.7
		c-0.2,0-0.5,0.1-0.7,0.2c0,0-3,1.6-5,0.7c-1-0.4-1.6-1.4-2-2.9c-0.7-2.8,3-4.6,3-4.6c0.6-0.3,0.9-0.9,0.8-1.5
		c-2-17.3,0.4-29.7,7.2-36.9c6.2-6.6,14-6.3,14.1-6.3c0,0,0.1,0,0.1,0c0,0,0,0,0.1,0c0.1,0,7.9-0.3,14.1,6.3
		c1.5,1.6,2.8,3.5,3.8,5.7c-2.8,1.4-5.7,3.4-8.5,6.3C36.7,57.4,33,68.5,32.4,83.1z M99.1,109.8c-0.5,2.2-1.5,3.6-3,4.2
		c-3,1.3-7.1-0.9-7.1-0.9c-0.2-0.1-0.5-0.2-0.7-0.2H41.7c-0.2,0-0.5,0.1-0.7,0.2c0,0-4.2,2.2-7.1,0.9c-1.4-0.6-2.4-2-3-4.2
		c-1-4.1,4.3-6.6,4.3-6.7c0.6-0.3,0.9-0.9,0.8-1.5c-2.7-23.2,0.6-39.9,9.7-49.6c8.4-9,19.1-8.5,19.3-8.5c0.1,0,10.8-0.4,19.2,8.5
		c9.1,9.7,12.4,26.4,9.7,49.6c-0.1,0.6,0.3,1.2,0.8,1.5C94.8,103.2,100.1,105.7,99.1,109.8z M121,81c-0.4,1.5-1,2.5-2,2.9
		c-1.7,0.8-4.2-0.2-5-0.7c-0.2-0.1-0.5-0.2-0.7-0.2H97.6C97,68.6,93.3,57.4,86.3,50c-2.8-2.9-5.7-4.9-8.5-6.3c1.1-2.1,2.3-4,3.8-5.7
		c6.2-6.6,14-6.3,14.1-6.3c0,0,0.1,0,0.1,0c0,0,0,0,0.1,0c0.1,0,7.9-0.3,14.1,6.3c6.8,7.2,9.2,19.7,7.2,36.9
		c-0.1,0.6,0.3,1.2,0.8,1.5C118,76.5,121.7,78.3,121,81z"/>
</g>
</svg>
