<?xml version="1.0" encoding="utf-8"?>
<!-- Generator: Adobe Illustrator 22.0.1, SVG Export Plug-In . SVG Version: 6.00 Build 0)  -->
<svg version="1.1" id="Layer_1" xmlns="http://www.w3.org/2000/svg" xmlns:xlink="http://www.w3.org/1999/xlink" x="0px" y="0px"
	 viewBox="0 0 130 130" style="enable-background:new 0 0 130 130;" xml:space="preserve">
<style type="text/css">
	.st0{fill:#20295C;}
</style>
<g>
	<g>
		<path class="st0" d="M58.7,87.6c-7.6-4.4-11.6-11.7-11.6-21.2c0-7.5,2.5-14.9,7.2-21.3l14.4-19.1h28.9l14.2,19.1
			c4.7,6.4,7.2,13.8,7.2,21.3c0,8.4-3.2,15.2-9.2,19.7l-1.2-1.6c5.5-4.1,8.3-10.2,8.3-18.1c0-7.1-2.4-14-6.8-20.1L96.5,27.9H69.7
			L55.9,46.3c-4.5,6.1-6.8,13-6.8,20.1c0,8.9,3.6,15.4,10.6,19.5L58.7,87.6z"/>
	</g>
	<g>
		<path class="st0" d="M97.2,27.9H69.1c-2.2,0-3.8-1.7-3.8-3.8s1.7-3.8,3.8-3.8h28.1c1.9,0,3.7,1.7,3.8,3.8
			C101,26.2,99.3,27.9,97.2,27.9z M69.1,22.2c-1,0-1.8,0.8-1.8,1.8s0.8,1.8,1.8,1.8h28.1c1,0,1.8-0.8,1.8-1.8
			c-0.1-0.9-0.9-1.8-1.8-1.8H69.1z"/>
	</g>
	<g>
		<path class="st0" d="M96.3,22.2H70.1L59.8,12.1l4-4c1.4-1.4,3.3-2.1,5.3-2.1s3.9,0.8,5.3,2.1l2,2l0.5-0.5C78.5,7.9,80.8,7,83.2,7
			c2.4,0,4.6,0.9,6.3,2.6l0.5,0.5l2-2c3-2.8,7.6-2.8,10.6,0l4.1,4.1L96.3,22.2z M71,20.2h24.6l8.3-8.1l-2.6-2.6
			c-2.2-2.1-5.6-2.1-7.8,0L90,12.9L88.1,11c-1.3-1.3-3-2-4.9-2c-1.9,0-3.6,0.7-4.9,2l-1.9,1.9l-3.4-3.4c-1-1-2.4-1.6-3.9-1.6
			s-2.9,0.6-3.9,1.6l-2.6,2.6L71,20.2z"/>
	</g>
	<g>
		<path class="st0" d="M76,102.2H71v-2H76c4.6,0,8.9-1.3,12.5-3.9l3.6-2.5c0.2-0.1,0.2-0.3,0.1-0.5c-0.4-0.6-1-1.1-1.7-1.5
			c-1.5-0.8-3.2-0.8-4.8,0c-7,3.4-13.1,0.6-13.3,0.5l-0.1-0.1c-2.1-1.3-4.1-2.3-6-3.1c-7.7-3.1-16.7-2-23.7,2.9l-1.2-1.6
			c7.5-5.3,17.3-6.5,25.6-3.1c1.9,0.8,4.1,1.8,6.3,3.2c0.6,0.2,5.7,2.3,11.5-0.5c2.1-1.1,4.6-1.1,6.6,0c0.9,0.4,1.7,1.2,2.4,2.1
			c0.7,1.2,0.4,2.7-0.7,3.3L89.6,98C85.7,100.8,81,102.2,76,102.2z"/>
	</g>
	<g>
		<path class="st0" d="M42.1,109.5l-0.4-2c0.5-0.1,11.3-2.1,30.6-1c4.8,0.2,9.7-0.8,14.2-3.1L115.8,88c0,0,0.1-0.1,0.1-0.1
			c-1.6-2-4-2.5-7.3-1.7c-0.4,0.1-0.9,0.3-1.4,0.5L92.4,93l-0.8-1.8l14.8-6.3c0.5-0.3,1.2-0.5,1.8-0.7c5-1.3,7.8,0.5,9.3,2.3
			c0.4,0.5,0.6,1.1,0.5,1.7c-0.1,0.6-0.5,1.2-1.1,1.5l-29.4,15.4c-4.7,2.4-10,3.6-15.2,3.3C53.2,107.4,42.2,109.5,42.1,109.5z"/>
	</g>
	<g>
		<polygon class="st0" points="42.7,116.7 30.9,116.7 30.9,114.7 40.7,114.7 40.7,88.7 30.9,88.7 30.9,86.7 42.7,86.7 		"/>
	</g>
	<g>
		<path class="st0" d="M31.9,124.1H11V78.4h20.9V124.1z M13,122.1h16.9V80.4H13V122.1z"/>
	</g>
	<path class="st0" d="M76.3,48.2h16l0,0c-1,1.5-1.5,2.2-1.6,2.3h-4.3c0.6,0.7,1,1.5,1.2,2.5h4.6c0,0,0.1,0,0.1,0.1
		c-1,1.5-1.6,2.3-1.6,2.3h-3c-0.1,0.7-0.5,1.7-1.1,2.8c-0.9,1.1-1.7,1.8-2.6,2.2c-1.6,0.7-3.1,1.1-4.4,1.1l0,0
		c0,0.1,3.2,3.9,9.6,11.5h-4.2c-6.3-7.3-9.4-11-9.4-11v-2.2v-0.1c0.5,0.1,1.2,0.1,2,0.1c3.5,0,5.7-1.1,6.5-3.5
		c0.1-0.4,0.2-0.6,0.2-1h-9.6c0,0-0.1,0-0.1-0.1c1.1-1.5,1.6-2.3,1.6-2.3h7.5l0,0c-0.5-0.9-1.2-1.6-2.5-2.1
		c-0.9-0.2-1.7-0.5-2.3-0.5h-4.2v-0.1C75.8,49.1,76.3,48.2,76.3,48.2z"/>
</g>
</svg>
