<?xml version="1.0" encoding="utf-8"?>
<!-- Generator: Adobe Illustrator 22.0.1, SVG Export Plug-In . SVG Version: 6.00 Build 0)  -->
<svg version="1.1" id="Layer_1" xmlns="http://www.w3.org/2000/svg" xmlns:xlink="http://www.w3.org/1999/xlink" x="0px" y="0px"
	 viewBox="0 0 130 130" style="enable-background:new 0 0 130 130;" xml:space="preserve">
<style type="text/css">
	.st0{fill:#202C5C;}
	.st1{fill:none;stroke:#202D5C;stroke-width:2;stroke-miterlimit:10;}
</style>
<g>
	<g>
		<path class="st0" d="M91.3,87.7h10.6l0,0c-0.6,0.9-1,1.4-1.1,1.6H98c0.4,0.4,0.6,1,0.8,1.6h3c0.1,0,0.1,0,0.1,0.1
			c-0.7,1-1,1.5-1,1.5h-1.9c-0.1,0.5-0.3,1.1-0.8,1.9c-0.6,0.8-1.2,1.2-1.8,1.4c-1,0.5-2,0.8-3,0.8l0,0c0,0.1,2.1,2.6,6.3,7.5H97
			c-4.1-4.8-6.2-7.2-6.2-7.3v-1.4v-0.1c0.4,0.1,0.8,0.1,1.3,0.1c2.3,0,3.8-0.8,4.3-2.3c0.1-0.3,0.1-0.4,0.1-0.7h-6.3
			c0,0-0.1,0-0.1-0.1c0.7-1,1.1-1.5,1.1-1.5h5l0,0c-0.3-0.6-0.8-1-1.6-1.4c-0.6-0.1-1.2-0.2-1.6-0.2h-2.8v-0.1
			C90.9,88.2,91.2,87.7,91.3,87.7z"/>
	</g>
	<path class="st1" d="M75.4,42.9c-0.3,0.1-0.5,0.1-0.7,0.1c-0.1,0-0.2,0-0.3,0c-1.4,0-3.8-0.5-8.6-4.7c-1.1-1-2.1-1.9-2.9-2.7
		c-1.5,1-3.8,2.5-7,4c-5.2,2.5-13.6,5.7-24.4,6.7c-0.1,0-0.2,0-0.3,0c-0.3,0-0.7-0.1-1.1-0.2c-0.2,1.2-0.1,2.7,0.2,4.2
		c0.9,3.8,3.3,6.3,5.4,5.8c0,0,0,0,0.1,0c1.9,5.4,5.3,10.7,9.8,14.8c4.6,4.1,11.2,4.1,15.8,0c4.5-4.1,7.8-9.4,9.7-14.8
		c0.1,0,0.1,0,0.2,0.1c2.1,0.6,4.5-2,5.4-5.8c0.7-3,0.3-5.8-1-7.1C75.5,43.1,75.5,43,75.4,42.9z"/>
	<path class="st1" d="M31.2,44c20.2-1.9,31.9-11.6,31.9-11.6s7.8,8.5,11.4,8.2c3.6-0.3,0.4-22.4-9-23.6c0,0-9-9.1-20.7-3.3
		C27.9,22.1,28.7,44.2,31.2,44z"/>
	<path class="st1" d="M103.6,72.6H89.4c-0.6,0-1.2-0.5-1.2-1.2v-0.7c0-0.6,0.5-1.2,1.2-1.2h14.1c0.6,0,1.2,0.5,1.2,1.2v0.7
		C104.7,72.1,104.2,72.6,103.6,72.6z"/>
	<path class="st1" d="M88,67.6c0.5-0.3,1.1-0.4,1.8-0.4h13.4c0.6,0,1.2,0.2,1.8,0.4l4.9-9.4c0.5-0.9,0.2-2-0.6-2.5
		c-2-1.4-6.1-3.5-12.8-3.5c-6.7,0-10.9,2.2-12.8,3.5c-0.8,0.6-1.1,1.7-0.6,2.5L88,67.6z"/>
	<path class="st1" d="M83.2,118l-2.5-1.4c-1.5-0.9-2.9-1.9-4.1-3.1c-1.2-1.2-2.3-2.6-3.2-4c-1.8-2.9-2.8-6.3-2.9-9.7
		c-0.1-3.4,0.6-6.8,2.2-9.9l0.9-1.8l-9.7-6.8c-1.5-1.1-2.5-2.9-2.5-4.7v-2.7c-2.4,1.7-5.2,2.6-8.1,2.6c-3.3,0-6.5-1.2-9-3.3v3.4
		c0,1.9-0.9,3.7-2.5,4.7L22.1,95.2c-4.6,3.3-8.2,7.8-10.3,13.1l-1.5,3.7c-1.2,3,1,6.2,4.2,6.2h38h0.6h30.3
		C83.4,118.1,83.3,118.1,83.2,118z M57.9,109.4l-3.7,5c-0.7,0.9-2,0.9-2.7,0l-3.7-5c-0.3-0.4-0.4-0.9-0.4-1.4l1.1-9.9
		c0.6,0.2,1.2,0.3,1.8,0.3h4.9c0.6,0,1.3-0.1,1.8-0.3l1.1,9.9C58.3,108.5,58.2,109,57.9,109.4z M58.3,92.9c0,1.7-1.3,3-3,3h-4.9
		c-1.7,0-3-1.3-3-3v-4.2c0-1.2,1-2.2,2.2-2.2h6.5c1.2,0,2.2,1,2.2,2.2V92.9z"/>
	<path class="st1" d="M118.1,91l-1.7-3.4c-0.8-1.6-1.9-3.1-3.1-4.4l-8.1-8.3c-0.1-0.1-0.2-0.2-0.2-0.3c-0.5,0.3-1.1,0.4-1.8,0.4
		H89.8c-0.6,0-1.2-0.2-1.8-0.4c-0.1,0.1-0.2,0.2-0.2,0.3l-8.1,8.3c-1.3,1.3-2.3,2.8-3.1,4.4L74.9,91c-2.8,5.5-2.5,12,0.6,17.2
		c0.8,1.3,1.7,2.5,2.8,3.6c1.1,1.1,2.3,2,3.6,2.7l2.5,1.4c2.7,1.5,5.7,2.3,8.8,2.3h6.4c3.1,0,6.1-0.8,8.8-2.3l2.5-1.4
		c2.6-1.5,4.9-3.7,6.4-6.3c1.7-2.8,2.5-6,2.5-9.2C120,96.2,119.4,93.5,118.1,91z"/>
</g>
</svg>
