<?xml version="1.0" encoding="utf-8"?>
<!-- Generator: Adobe Illustrator 22.0.1, SVG Export Plug-In . SVG Version: 6.00 Build 0)  -->
<svg version="1.1" id="Layer_1" xmlns="http://www.w3.org/2000/svg" xmlns:xlink="http://www.w3.org/1999/xlink" x="0px" y="0px"
	 viewBox="0 0 130 130" style="enable-background:new 0 0 130 130;" xml:space="preserve">
<style type="text/css">
	.st0{fill:#202C5C;}
	.st1{fill:#202D5C;}
</style>
<path class="st0" d="M63.8,80h3.9l0,0c-0.2,0.3-0.4,0.5-0.4,0.6h-1c0.1,0.2,0.2,0.4,0.3,0.6h1.1c0,0,0,0,0,0
	c-0.3,0.4-0.4,0.6-0.4,0.6h-0.7c0,0.2-0.1,0.4-0.3,0.7c-0.2,0.3-0.4,0.4-0.6,0.5c-0.4,0.2-0.7,0.3-1.1,0.3l0,0c0,0,0.8,0.9,2.3,2.8
	h-1c-1.5-1.8-2.3-2.6-2.3-2.7v-0.5v0c0.1,0,0.3,0,0.5,0c0.9,0,1.4-0.3,1.6-0.8c0-0.1,0-0.2,0-0.3h-2.3c0,0,0,0,0,0
	c0.3-0.4,0.4-0.6,0.4-0.6h1.8l0,0c-0.1-0.2-0.3-0.4-0.6-0.5c-0.2,0-0.4-0.1-0.6-0.1h-1v0C63.6,80.2,63.7,80,63.8,80z"/>
<g>
	<path class="st1" d="M65.4,36.6L65.4,36.6L65.4,36.6L65.4,36.6c-2.2,0-4,1.8-4,4c0,2.1,1.7,3.9,3.8,4l0.1,0l0.2,0c2.2,0,4-1.8,4-4
		C69.3,38.4,67.6,36.6,65.4,36.6L65.4,36.6L65.4,36.6L65.4,36.6z M65.4,38.8L65.4,38.8c1,0,1.8,0.8,1.8,1.8c0,1-0.8,1.8-1.8,1.8v0h0
		h0v0c-1,0-1.8-0.8-1.8-1.8C63.6,39.6,64.4,38.8,65.4,38.8L65.4,38.8L65.4,38.8L65.4,38.8"/>
	<path class="st1" d="M68,46h-2.7h-2.8c-2.4,0-4.3,1.9-4.3,4.3v5.6c0,1.6,1.3,2.9,2.9,3c0,0,0.1,0,0.1,0c0.3,0,0.7-0.1,1-0.2
		c0.3,0.1,0.6,0.2,0.9,0.2h2.1h2.2c0.3,0,0.6-0.1,0.9-0.2c0.3,0.1,0.6,0.2,1,0.2c0,0,0.1,0,0.1,0c1.6-0.1,2.9-1.4,2.9-3v-5.6
		C72.3,48,70.4,46,68,46L68,46z M68,48.3c1.1,0,2.1,0.9,2.1,2.1v5.6c0,0.4-0.3,0.8-0.7,0.8l0,0c-0.4,0-0.7-0.3-0.8-0.7l0-5.1
		c0-0.2-0.2-0.4-0.4-0.4l0,0c-0.2,0-0.4,0.2-0.4,0.4v5.5c0,0.2-0.2,0.4-0.4,0.4h-2.1h0h-2.1c-0.2,0-0.4-0.2-0.4-0.4v-5.5
		c0-0.2-0.2-0.4-0.4-0.4l0,0c-0.2,0-0.4,0.2-0.4,0.4l0,5.1c0,0.4-0.3,0.7-0.8,0.7l0,0c-0.4,0-0.7-0.4-0.7-0.8v-5.6
		c0-1.1,0.9-2.1,2.1-2.1h2.7h0H68"/>
	<path class="st1" d="M105.3,36.6L105.3,36.6L105.3,36.6L105.3,36.6c-2.2,0-4,1.8-4,4c0,2.1,1.7,3.9,3.8,4l0.1,0l0.2,0
		c2.2,0,4-1.8,4-4C109.3,38.4,107.5,36.6,105.3,36.6L105.3,36.6L105.3,36.6L105.3,36.6L105.3,36.6z M105.3,38.8L105.3,38.8
		c1,0,1.8,0.8,1.8,1.8c0,1-0.8,1.8-1.8,1.8v0h0h0v0c-1,0-1.8-0.8-1.8-1.8C103.6,39.6,104.4,38.8,105.3,38.8L105.3,38.8L105.3,38.8
		L105.3,38.8"/>
	<path class="st1" d="M108,46h-2.7h-2.8c-2.4,0-4.3,1.9-4.3,4.3v5.6c0,1.6,1.3,2.9,2.9,3c0,0,0.1,0,0.1,0c0.3,0,0.7-0.1,1-0.2
		c0.3,0.1,0.6,0.2,0.9,0.2h2.1h2.2c0.3,0,0.6-0.1,0.9-0.2c0.3,0.1,0.6,0.2,1,0.2c0,0,0.1,0,0.1,0c1.6-0.1,2.9-1.4,2.9-3v-5.6
		C112.2,48,110.3,46,108,46L108,46z M108,48.3c1.1,0,2.1,0.9,2.1,2.1v5.6c0,0.4-0.3,0.8-0.7,0.8l0,0c-0.4,0-0.7-0.3-0.8-0.7l0-5.1
		c0-0.2-0.2-0.4-0.4-0.4l0,0c-0.2,0-0.4,0.2-0.4,0.4v5.5c0,0.2-0.2,0.4-0.4,0.4h-2.1h0H103c-0.2,0-0.4-0.2-0.4-0.4v-5.5
		c0-0.2-0.2-0.4-0.4-0.4l0,0c-0.2,0-0.4,0.2-0.4,0.4l0,5.1c0,0.4-0.3,0.7-0.8,0.7l0,0c-0.4,0-0.7-0.4-0.7-0.8v-5.6
		c0-1.1,0.9-2.1,2.1-2.1h2.7h0H108"/>
	<path class="st1" d="M25.9,36.6L25.9,36.6L25.9,36.6L25.9,36.6c-2.2,0-4,1.8-4,4c0,2.1,1.7,3.9,3.8,4l0.1,0l0.2,0c2.2,0,4-1.8,4-4
		C29.9,38.4,28.1,36.6,25.9,36.6L25.9,36.6L25.9,36.6L25.9,36.6L25.9,36.6z M25.9,38.8L25.9,38.8c1,0,1.8,0.8,1.8,1.8
		c0,1-0.8,1.8-1.8,1.8v0h0h0v0c-1,0-1.8-0.8-1.8-1.8C24.2,39.6,24.9,38.8,25.9,38.8L25.9,38.8L25.9,38.8L25.9,38.8"/>
	<path class="st1" d="M28.5,46h-2.7H23c-2.4,0-4.3,1.9-4.3,4.3v5.6c0,1.6,1.3,2.9,2.9,3c0,0,0.1,0,0.1,0c0.3,0,0.7-0.1,1-0.2
		c0.3,0.1,0.6,0.2,0.9,0.2h2.1h2.2c0.3,0,0.6-0.1,0.9-0.2c0.3,0.1,0.6,0.2,1,0.2c0,0,0.1,0,0.1,0c1.6-0.1,2.9-1.4,2.9-3v-5.6
		C32.8,48,30.9,46,28.5,46L28.5,46z M28.5,48.3c1.1,0,2.1,0.9,2.1,2.1v5.6c0,0.4-0.3,0.8-0.7,0.8l0,0c-0.4,0-0.7-0.3-0.8-0.7l0-5.1
		c0-0.2-0.2-0.4-0.4-0.4l0,0c-0.2,0-0.4,0.2-0.4,0.4v5.5c0,0.2-0.2,0.4-0.4,0.4h-2.1h0h-2.1c-0.2,0-0.4-0.2-0.4-0.4v-5.5
		c0-0.2-0.2-0.4-0.4-0.4l0,0c-0.2,0-0.4,0.2-0.4,0.4l0,5.1c0,0.4-0.3,0.7-0.8,0.7l0,0c-0.4,0-0.7-0.4-0.7-0.8v-5.6
		c0-1.1,0.9-2.1,2.1-2.1h2.7h0H28.5"/>
	<path class="st1" d="M64.9,87.2c-2.6,0-4.7-2.1-4.7-4.7c0-2.6,2.1-4.7,4.7-4.7c2.6,0,4.7,2.1,4.7,4.7
		C69.5,85.1,67.4,87.2,64.9,87.2L64.9,87.2z M107.6,62.7H22.3c-1.2,0-2.2,1-2.2,2.2v1.8c0,0.8,0.2,1.7,0.7,2.4l-3.1,5.4
		c-0.8,0.8-1.2,2.1-1.7,3.6c0,0,0,0,0,0.1h-0.7c-1.2,0-2.1,0.9-2.2,2c0,0.4,0,0.8,0,1.3l0,0l0,0c0.1,1.2,0.4,2.3,1,3.3l1.8,3.2
		c1.8,3.2,5.1,5.1,8.8,5.1s7-1.9,8.8-5.1l1.8-3.2c0.6-1,0.9-2.1,1-3.3l0,0l0,0c0-0.4,0-0.8,0-1.3c-0.1-1.1-1.1-2-2.2-2h-0.7
		c0,0,0,0,0-0.1c-0.5-1.5-0.9-2.8-1.7-3.6L30,71.4h28.6l-9.9,17.1c-0.6,1-0.6,2.3,0,3.3c0.6,1,1.7,1.6,2.8,1.6h26.7
		c1.2,0,2.3-0.6,2.8-1.6c0.6-1,0.6-2.3,0-3.3l-9.9-17.1h28.7l-1.7,3c-1,0.7-1.9,1.6-2.5,2.7c-0.4,0.7-0.3,1.5,0.1,2.2
		c0.4,0.7,1.1,1.1,1.9,1.1h14.9c0.8,0,1.5-0.4,1.9-1.1c0.4-0.7,0.4-1.5,0.1-2.2c-0.6-1.1-1.4-2-2.5-2.7l-3-5.3
		c0.4-0.7,0.6-1.5,0.6-2.3V65C109.8,63.7,108.8,62.7,107.6,62.7L107.6,62.7z M64.9,89.4c3.8,0,6.9-3.1,6.9-6.9
		c0-3.8-3.1-6.9-6.9-6.9c-3.8,0-6.9,3.1-6.9,6.9C58,86.4,61.1,89.4,64.9,89.4 M21,75.5c0.2,0,0.4,0,0.5,0H28c0.2,0,0.4,0,0.5,0
		l-3.6-6.4h-0.2c0,0-0.1,0-0.1,0L21,75.5 M101.4,75.5c0.2,0,0.4,0,0.5,0h6.5c0.2,0,0.4,0,0.5,0l-3.6-6.4c-0.1,0-0.1,0-0.2,0H105
		L101.4,75.5 M107.6,65v1.8c0,0.9-0.5,1.6-1.1,2l4.1,7.2c0.9,0.5,1.7,1.2,2.1,2.1H97.7c0.5-0.9,1.2-1.6,2.1-2.1l3.9-6.8H67.4
		l11.8,20.5c0.4,0.7-0.1,1.6-0.9,1.6H51.6c-0.8,0-1.3-0.9-0.9-1.6l11.8-20.5H26.2l3.9,6.8c0.8,0.4,1.4,3.8,1.9,4.5h2.3
		c0,0.3,0,0.6,0,0.9c0,0,0,0,0,0c-0.1,0.8-0.3,1.6-0.7,2.4L31.6,87c-1.5,2.7-4.2,4-6.9,4s-5.4-1.3-6.9-4L16,83.8
		c-0.4-0.8-0.7-1.6-0.7-2.4c0,0,0,0,0,0c0-0.3,0-0.6,0-0.9h2.3c0.5-0.7,1.1-4.1,1.9-4.5l4.1-7.2c-0.7-0.4-1.2-1.2-1.2-2.1V65H107.6"
		/>
	<path class="st1" d="M114.8,78.4H95.9c-1.2,0-2.1,0.9-2.2,2c0,0.4,0,0.8,0,1.3l0,0l0,0c0.1,1.2,0.4,2.3,1,3.3l1.8,3.2
		c1.8,3.2,5.1,5.1,8.8,5.1c3.7,0,6.9-1.9,8.8-5.1l1.8-3.2c0.6-1,0.9-2.1,1-3.3l0-0.1c0-0.4,0-0.8,0-1.3
		C116.9,79.3,115.9,78.4,114.8,78.4L114.8,78.4z M114.8,80.6c0,0.3,0,0.6,0,0.9c0,0,0,0,0,0c-0.1,0.8-0.3,1.6-0.7,2.4l-1.8,3.2
		c-1.5,2.6-4.2,4-6.9,4c-2.7,0-5.3-1.3-6.9-4l-1.8-3.2c-0.4-0.8-0.7-1.6-0.7-2.4c0,0,0,0,0,0c0-0.3,0-0.6,0-0.9H114.8"/>
	<path class="st1" d="M17.3,80.5l15.1,0.1c0.6,0,1.1-0.5,1.1-1.1c0-0.6-0.5-1.1-1.1-1.1l-15.1-0.1c-0.6,0-1.1,0.5-1.1,1.1
		C16.2,80,16.7,80.5,17.3,80.5"/>
</g>
</svg>
