<?xml version="1.0" encoding="utf-8"?>
<!-- Generator: Adobe Illustrator 22.0.1, SVG Export Plug-In . SVG Version: 6.00 Build 0)  -->
<svg version="1.1" id="Layer_1" xmlns="http://www.w3.org/2000/svg" xmlns:xlink="http://www.w3.org/1999/xlink" x="0px" y="0px"
	 viewBox="0 0 100 100" style="enable-background:new 0 0 100 100;" xml:space="preserve">
<style type="text/css">
	.st0{fill:none;stroke:#FFFFFF;stroke-width:2;stroke-linecap:round;stroke-linejoin:round;stroke-miterlimit:10;}
	.st1{fill:none;stroke:#FFFFFF;stroke-width:2;stroke-linecap:round;stroke-miterlimit:10;}
</style>
<g>
	<g>
		<polyline class="st0" points="55.4,59.5 50,64.8 44.6,59.5 		"/>
		<polyline class="st0" points="47.3,62.2 42,88.7 50,96.8 		"/>
		<polyline class="st0" points="52.7,62.2 58,88.7 50,96.8 		"/>
	</g>
	<g>
		<path class="st1" d="M64.8,84.6L86,80.2l-2.8-14.1c-0.6-3.1-2.3-5.9-4.7-7.9c-1.6-1.3-3.1-2.1-4.7-2.4l-12-3.5
			c-0.3-0.1-0.5-0.2-0.7-0.3c-0.6-0.4-1-1.1-1.1-1.9l-0.6-4.8c3.4-2.6,5.8-6.5,7-11.1c2.1-0.2,3.8-2.6,3.8-5.6c0-2.8-1.4-5-3.3-5.5"
			/>
		<path class="st1" d="M33,23.2c-1.9,0.5-3.2,2.7-3.2,5.5c0,3,1.6,5.4,3.8,5.6c1.2,4.6,3.7,8.5,7,11.1L40.1,50
			c-0.1,0.8-0.5,1.4-1.1,1.9c-0.2,0.2-0.5,0.3-0.7,0.3l-12,3.5c-1.6,0.3-3.1,1.2-4.7,2.5c-2.5,2-4.1,4.8-4.8,7.9L14,80.2l19,3.9"/>
	</g>
	<path class="st1" d="M66.9,23.1c0,0,1-19.9-16.9-19.9c-17.9,0-17,19.9-17,19.9"/>
	<path class="st1" d="M34.3,14.6c0.7-1.4,2.1-2.5,3.5-3.1c2.4-0.9,5.1-0.2,7.5,0.9c3.4,1.5,6.3,3.4,10.1,3.8c3.6,0.4,6.9,0,10.2-1.7
		"/>
	<g>
		<path class="st1" d="M45.5,28.5h-6.9c-0.7,0-1.3-0.6-1.3-1.3v-3.5c0-0.7,0.6-1.3,1.3-1.3h6.9c0.7,0,1.3,0.6,1.3,1.3v3.5
			C46.8,27.9,46.2,28.5,45.5,28.5z"/>
		<path class="st1" d="M61.3,28.5h-6.9c-0.7,0-1.3-0.6-1.3-1.3v-3.5c0-0.7,0.6-1.3,1.3-1.3h6.9c0.7,0,1.3,0.6,1.3,1.3v3.5
			C62.6,27.9,62.1,28.5,61.3,28.5z"/>
		<line class="st1" x1="46.8" y1="24.7" x2="53.2" y2="24.7"/>
	</g>
	<line class="st1" x1="33" y1="22.5" x2="37.4" y2="24.4"/>
	<line class="st1" x1="62.6" y1="24.4" x2="66.9" y2="22.5"/>
	<polyline class="st0" points="59.8,48.9 50,57.7 40.2,48.9 	"/>
	<line class="st0" x1="65.6" y1="72.5" x2="76.7" y2="70.4"/>
</g>
</svg>
