<?xml version="1.0" encoding="utf-8"?>
<!-- Generator: Adobe Illustrator 22.0.1, SVG Export Plug-In . SVG Version: 6.00 Build 0)  -->
<svg version="1.1" id="Layer_1" xmlns="http://www.w3.org/2000/svg" xmlns:xlink="http://www.w3.org/1999/xlink" x="0px" y="0px"
	 viewBox="0 0 100 100" style="enable-background:new 0 0 100 100;" xml:space="preserve">
<style type="text/css">
	.st0{fill:#FFFFFF;}
</style>
<g>
	<g>
		<path class="st0" d="M93,57.3c1.5-13.8-0.6-23.9-6.3-29.9c-2-2.2-4.2-3.5-6.2-4.3l6.3-5.4c0.2-0.2,0.4-0.5,0.4-0.8
			c0-0.2,0.1-2.3-1.4-3.7c-1-0.9-2.4-1.2-4.1-0.9c-1.4,0.2-1.6,0-2.1-0.7c-0.9-1.2-2-2.4-5.6-2.4c-3.5,0-4.6,1.1-5.6,2.4
			c-0.5,0.6-0.7,0.9-2.1,0.7c-1.7-0.3-3.1,0-4.1,0.9c-1.5,1.4-1.4,3.5-1.4,3.7c0,0.3,0.2,0.6,0.4,0.8l0.5,0.4c-0.5,0-1,0-1.5,0.1
			c-2.1,0.3-2.5-0.1-3.1-1c-0.9-1.3-2.2-3-7.1-3c-4.9,0-6.2,1.7-7.1,3c-0.7,0.9-1,1.4-3.1,1c-0.5-0.1-1-0.1-1.5-0.1l0.5-0.4
			c0.2-0.2,0.4-0.5,0.4-0.8c0-0.2,0.1-2.3-1.4-3.7c-1-0.9-2.4-1.2-4.1-0.9c-1.4,0.2-1.6,0-2.1-0.7c-0.9-1.2-2-2.4-5.6-2.4
			c-3.5,0-4.6,1.1-5.6,2.4c-0.5,0.6-0.7,0.9-2.1,0.7c-1.7-0.3-3.1,0-4.1,0.9c-1.5,1.4-1.4,3.5-1.4,3.7c0,0.3,0.2,0.6,0.4,0.8
			l6.3,5.4c-2,0.8-4.2,2.1-6.2,4.3c-5.7,6-7.8,16.1-6.3,29.9C5.8,58.1,3.4,60,4.1,63c0.5,1.9,1.4,3.2,2.9,3.8c0.7,0.3,1.3,0.4,2,0.4
			c1.6,0,3-0.6,3.6-0.9h11.9c0,3.7,0.1,7.6,0.6,11.8c-1.5,0.9-4.9,3.4-3.9,7.4c0.6,2.4,1.8,4,3.6,4.8c2.9,1.3,6.3-0.2,7.2-0.7h35.8
			c0.7,0.3,2.6,1.2,4.7,1.2c0.8,0,1.7-0.1,2.5-0.5c1.8-0.8,3-2.4,3.6-4.8c1-3.9-2.3-6.5-3.9-7.4c0.5-4.2,0.6-8.1,0.6-11.8h11.9
			c0.6,0.3,2,0.9,3.6,0.9c0.7,0,1.4-0.1,2-0.4c1.4-0.6,2.4-1.9,2.9-3.8C96.6,60,94.2,58.1,93,57.3z M63.8,14.9
			c0.5-0.4,1.2-0.6,2.2-0.4c2.6,0.4,3.4-0.5,4.2-1.6c0.6-0.7,1.1-1.5,3.7-1.5s3.2,0.7,3.7,1.5c0.8,1.1,1.7,2,4.2,1.6
			c1-0.2,1.8,0,2.2,0.4c0.5,0.4,0.6,1,0.7,1.5l-6.7,5.8c-0.1,0.1-0.1,0.1-0.2,0.2c-2.2-0.5-3.7-0.5-4-0.5c-0.2,0-1.8,0-4,0.5
			c-0.1-0.1-0.1-0.2-0.2-0.2l-6.7-5.8C63.2,15.9,63.4,15.3,63.8,14.9z M39.4,20.4c3.2,0.5,4.3-0.5,5.3-1.9c0.8-1,1.5-2.1,5.3-2.1
			c3.8,0,4.5,1.1,5.3,2.1c1,1.4,2.1,2.4,5.3,1.9c1.5-0.2,2.6,0,3.3,0.6c0.8,0.7,1,1.8,1,2.4l-9.1,7.8c-0.1,0.1-0.2,0.3-0.3,0.4
			c-3.1-0.8-5.3-0.7-5.4-0.7c-0.2,0-2.4-0.1-5.5,0.7c-0.1-0.2-0.2-0.3-0.3-0.4l-9.1-7.8c0.1-0.6,0.3-1.7,1-2.4
			C36.8,20.4,38,20.2,39.4,20.4z M15.1,16.3c0.1-0.4,0.2-1.1,0.7-1.5c0.5-0.4,1.2-0.6,2.2-0.4c2.6,0.4,3.4-0.5,4.2-1.6
			c0.6-0.7,1.1-1.5,3.7-1.5c2.7,0,3.2,0.7,3.7,1.5c0.8,1.1,1.7,2,4.2,1.6c1-0.2,1.8,0,2.2,0.4c0.5,0.4,0.6,1,0.7,1.5l-6.7,5.8
			c-0.1,0.1-0.1,0.1-0.2,0.2c-2.2-0.5-3.7-0.5-4-0.5c-0.2,0-1.8,0-4,0.5c-0.1-0.1-0.1-0.2-0.2-0.2L15.1,16.3z M24.6,64.1H12.4
			c-0.2,0-0.4,0-0.5,0.1c0,0-2.3,1.2-3.9,0.5c-0.8-0.3-1.3-1.1-1.6-2.3c-0.5-2.2,2.3-3.6,2.4-3.6c0.4-0.2,0.7-0.7,0.6-1.1
			C7.8,44.3,9.7,34.6,14.9,29c4.8-5.1,10.9-4.9,11-4.9c0,0,0,0,0.1,0c0,0,0,0,0.1,0c0.1,0,6.2-0.2,11,4.9c1.2,1.3,2.2,2.8,3,4.4
			c-2.2,1.1-4.5,2.6-6.6,4.9C28,44.1,25,52.8,24.6,64.1z M76.6,84.9c-0.4,1.7-1.2,2.8-2.3,3.3c-2.3,1-5.5-0.7-5.5-0.7
			c-0.2-0.1-0.4-0.1-0.5-0.1H31.8c-0.2,0-0.4,0-0.5,0.1c0,0-3.2,1.7-5.5,0.7c-1.1-0.5-1.9-1.6-2.3-3.3c-0.8-3.2,3.3-5.2,3.4-5.2
			c0.4-0.2,0.7-0.7,0.6-1.1c-2.1-18.1,0.4-31.1,7.6-38.7c6.6-7,14.9-6.6,15-6.7c0.1,0,8.4-0.3,14.9,6.7c7.1,7.6,9.7,20.6,7.6,38.7
			c-0.1,0.5,0.2,0.9,0.6,1.1C73.2,79.8,77.4,81.8,76.6,84.9z M93.7,62.5c-0.3,1.2-0.8,1.9-1.6,2.3c-1.3,0.6-3.3-0.2-3.9-0.5
			c-0.2-0.1-0.4-0.1-0.5-0.1H75.4c-0.4-11.3-3.4-20-8.8-25.8c-2.1-2.3-4.4-3.8-6.6-4.9c0.8-1.7,1.8-3.2,3-4.4
			c4.8-5.1,10.9-4.9,11-4.9c0,0,0,0,0.1,0c0,0,0,0,0.1,0c0.1,0,6.2-0.2,11,4.9c5.3,5.6,7.2,15.3,5.6,28.8c-0.1,0.5,0.2,0.9,0.6,1.1
			C91.3,58.9,94.2,60.3,93.7,62.5z"/>
	</g>
	<g>
		<path class="st0" d="M43.2,49.5h15.3v0c-0.9,1.4-1.4,2.1-1.5,2.2h-4.1c0.6,0.7,0.9,1.5,1.1,2.4h4.4c0.1,0,0.1,0,0.1,0.1
			c-1,1.5-1.5,2.2-1.5,2.2h-2.8c-0.1,0.8-0.4,1.7-1.1,2.7c-0.9,1.1-1.7,1.8-2.5,2.1c-1.5,0.7-2.9,1.1-4.3,1.1v0
			c0,0.1,3.1,3.8,9.2,10.9h-4.1c-6-7-9-10.5-9-10.5v-2.1l0-0.1c0.5,0.1,1.2,0.1,1.9,0.1c3.4,0,5.4-1.1,6.3-3.3
			c0.1-0.3,0.2-0.6,0.2-1h-9.1c0,0-0.1,0-0.1-0.1c1-1.5,1.5-2.2,1.5-2.2h7.2v0c-0.4-0.8-1.2-1.5-2.4-2c-0.8-0.3-1.6-0.4-2.3-0.4h-4
			v-0.1C42.7,50.3,43.2,49.5,43.2,49.5z"/>
	</g>
</g>
</svg>
