<?xml version="1.0" encoding="utf-8"?>
<!-- Generator: Adobe Illustrator 22.0.1, SVG Export Plug-In . SVG Version: 6.00 Build 0)  -->
<svg version="1.1" id="Layer_1" xmlns="http://www.w3.org/2000/svg" xmlns:xlink="http://www.w3.org/1999/xlink" x="0px" y="0px"
	 viewBox="0 0 130 130" style="enable-background:new 0 0 130 130;" xml:space="preserve">
<style type="text/css">
	.st0{fill:#212E5C;}
</style>
<g>
	<path class="st0" d="M8,103.5c0,3.1,2.4,5.7,5.5,5.7h103.1c3,0,5.5-2.6,5.5-5.7V26.5c0-3.1-2.4-5.7-5.5-5.7H13.5
		c-3,0-5.5,2.6-5.5,5.7V103.5z M11,26.5c0-1.4,1-2.6,2.3-2.6h103.1c1.3,0,2.4,1.2,2.4,2.6v76.9c0,1.4-1,2.6-2.4,2.6h-103
		c-1.3,0-2.3-1.2-2.3-2.6V26.5H11z"/>
	<path class="st0" d="M19.2,31.1h91.6c0.8,0,1.5-0.7,1.5-1.5c0-0.8-0.7-1.5-1.5-1.5H19.2c-0.8,0-1.5,0.7-1.5,1.5
		S18.3,31.1,19.2,31.1z"/>
	<path class="st0" d="M19.2,89.3h91.6c0.8,0,1.5-0.7,1.5-1.5c0-0.8-0.7-1.5-1.5-1.5H19.2c-0.8,0-1.5,0.7-1.5,1.5
		S18.3,89.3,19.2,89.3z"/>
	<path class="st0" d="M80.4,34.2c-1.7,0-3.3,1.5-3.3,3.3v44.6c0,0.8,0.7,1.5,1.5,1.5c0.8,0,1.5-0.7,1.5-1.5V37.5
		c0-0.1,0.1-0.2,0.2-0.2h9.2c0.1,0,0.2,0.1,0.2,0.2v44.6c0,0.8,0.7,1.5,1.5,1.5c0.8,0,1.5-0.7,1.5-1.5V37.5c0-1.7-1.5-3.3-3.3-3.3
		H80.4z"/>
	<path class="st0" d="M56.9,53.3c-1.7,0-3.3,1.5-3.3,3.3v25.6c0,0.8,0.7,1.5,1.5,1.5s1.5-0.7,1.5-1.5V56.5c0-0.1,0.1-0.2,0.2-0.2
		h9.2c0.1,0,0.2,0.1,0.2,0.2v25.6c0,0.8,0.7,1.5,1.5,1.5c0.8,0,1.5-0.7,1.5-1.5V56.5c0-1.7-1.5-3.3-3.3-3.3
		C66.1,53.3,56.9,53.3,56.9,53.3z"/>
	<path class="st0" d="M35.2,61.2c-1.7,0-3.3,1.4-3.3,3.3v17.7c0,0.8,0.7,1.5,1.5,1.5c0.8,0,1.5-0.7,1.5-1.5V64.4
		c0-0.1,0.1-0.2,0.2-0.2h9.2c0.1,0,0.2,0.1,0.2,0.2v17.7c0,0.8,0.7,1.5,1.5,1.5s1.5-0.7,1.5-1.5V64.4c0-1.7-1.5-3.3-3.3-3.3H35.2z"
		/>
	<path class="st0" d="M66.2,91.5c-3.5,0-6.3,2.8-6.3,6.3c0,3.5,2.8,6.3,6.3,6.3c3.5,0,6.3-2.8,6.3-6.3
		C72.5,94.3,69.7,91.5,66.2,91.5z M66.2,100.9c-1.7,0-3.3-1.4-3.3-3.3c0-1.7,1.4-3.3,3.3-3.3c1.7,0,3.3,1.4,3.3,3.3
		C69.4,99.5,68,100.9,66.2,100.9z"/>
</g>
</svg>
