<?xml version="1.0" encoding="utf-8"?>
<!-- Generator: Adobe Illustrator 22.0.1, SVG Export Plug-In . SVG Version: 6.00 Build 0)  -->
<svg version="1.1" id="Layer_1" xmlns="http://www.w3.org/2000/svg" xmlns:xlink="http://www.w3.org/1999/xlink" x="0px" y="0px"
	 viewBox="0 0 130 130" style="enable-background:new 0 0 130 130;" xml:space="preserve">
<style type="text/css">
	.st0{fill:none;stroke:#212B5C;stroke-width:3;stroke-miterlimit:10;}
</style>
<g>
	<path class="st0" d="M43.1,37.9l9.8,21.5l22.5,2c1.5,0.1,2.1,1.9,1.1,3L60,80.8l4.1,21.4c0.3,1.4-1.2,2.5-2.5,1.9L41.5,94l-20.1,10
		c-1.3,0.6-2.8-0.5-2.5-1.9l4.1-21.3L6.5,64.4c-1.1-1-0.4-2.8,1.1-3l22.5-2l9.8-21.5C40.5,36.5,42.5,36.5,43.1,37.9z"/>
	<path class="st0" d="M61,51.7l8.1-17.8c0.5-1.1,2.1-1.1,2.6,0l8.1,17.8l18.6,1.7c1.2,0.1,1.8,1.6,0.9,2.5L85.7,69.4l3.4,17.7
		c0.2,1.2-1,2.1-2.1,1.6l-16.7-8.4"/>
	<path class="st0" d="M85.1,44.4l8.1-17.8c0.5-1.1,2.1-1.1,2.6,0l8.1,17.8l18.6,1.7c1.2,0.1,1.8,1.6,0.9,2.5l-13.7,13.6l3.4,17.7
		c0.2,1.2-1,2.1-2.1,1.6l-16.7-8.4"/>
</g>
</svg>
