<?xml version="1.0" encoding="utf-8"?>
<!-- Generator: Adobe Illustrator 22.0.1, SVG Export Plug-In . SVG Version: 6.00 Build 0)  -->
<svg version="1.1" id="Layer_1" xmlns="http://www.w3.org/2000/svg" xmlns:xlink="http://www.w3.org/1999/xlink" x="0px" y="0px"
	 viewBox="0 0 130 130" style="enable-background:new 0 0 130 130;" xml:space="preserve">
<style type="text/css">
	.st0{fill-rule:evenodd;clip-rule:evenodd;fill:none;stroke:#212E5C;stroke-width:2;stroke-miterlimit:10;}
	.st1{fill:none;stroke:#212E5C;stroke-width:2;stroke-miterlimit:10;}
</style>
<g>
	<path class="st0" d="M51.8,35.8c1.5,0,2.7,1.2,2.7,2.7c0,1.5-1.2,2.7-2.7,2.7c-1.5,0-2.7-1.2-2.7-2.7C49.1,37,50.4,35.8,51.8,35.8
		L51.8,35.8z"/>
	<path class="st1" d="M51.8,26.1c6.9,0,12.5,5.5,12.5,12.4c0,6.8-5.6,12.4-12.5,12.4c-6.9,0-12.5-5.5-12.5-12.4
		C39.3,31.6,44.9,26.1,51.8,26.1L51.8,26.1z M78.2,26.1c6.9,0,12.5,5.5,12.5,12.4c0,6.8-5.6,12.4-12.5,12.4
		c-6.9,0-12.5-5.5-12.5-12.4C65.6,31.6,71.2,26.1,78.2,26.1L78.2,26.1z"/>
	<path class="st0" d="M78.2,35.8c1.5,0,2.7,1.2,2.7,2.7c0,1.5-1.2,2.7-2.7,2.7c-1.5,0-2.7-1.2-2.7-2.7C75.5,37,76.7,35.8,78.2,35.8
		L78.2,35.8z"/>
	<path class="st1" d="M112.3,100.3H27.9c-4.3,0-7.9,4.6-7.9,10.1c0,5.6,3.6,10.1,7.9,10.1h84.3c-4.3,0-7.9-4.6-7.9-10.1
		C104.4,104.9,107.9,100.3,112.3,100.3z"/>
	<polyline class="st1" points="73.8,50.2 65,60 56.2,50.2 	"/>
	<path class="st1" d="M43.8,100.3c-10.4,0-21.7-26.1-21.7-35.2c0-11.8,7.7-10.8,7.7-23.4c0-12.2-6.7-21.1-6-32.3
		c4.7,2.1,11.1,4.5,18.2,6.5c7.1,2,15.1,3.4,22.9,3.4c7.9,0,15.8-1.4,22.9-3.4c7.1-2,13.5-4.4,18.2-6.5c1.1,19.8-6,20.1-6,32.3
		c0,12.5,7.7,11.5,7.7,23.4c0,9-10.4,35.2-20.8,35.2"/>
	<path class="st1" d="M32.9,99.4c-6.7-2.7-13.7-8.8-18.8-17c-8.5-13.7-7.8-28.5,0.3-32.2c3.5-1.6,8.1-1.1,13,1.1"/>
	<path class="st1" d="M97.1,99.4c6.7-2.7,13.7-8.8,18.8-17c8.5-13.7,7.8-28.5-0.3-32.2c-3.5-1.6-8.1-1.1-13,1.1"/>
	<line class="st1" x1="36.8" y1="29.7" x2="64.4" y2="39.8"/>
	<line class="st1" x1="65.6" y1="39.8" x2="93.2" y2="29.7"/>
	<line class="st1" x1="66.8" y1="107.3" x2="104.2" y2="107.3"/>
	<line class="st1" x1="87.1" y1="113.7" x2="104.5" y2="113.7"/>
</g>
</svg>
