<?xml version="1.0" encoding="utf-8"?>
<!-- Generator: Adobe Illustrator 22.0.1, SVG Export Plug-In . SVG Version: 6.00 Build 0)  -->
<svg version="1.1" id="Layer_1" xmlns="http://www.w3.org/2000/svg" xmlns:xlink="http://www.w3.org/1999/xlink" x="0px" y="0px"
	 viewBox="0 0 130 130" style="enable-background:new 0 0 130 130;" xml:space="preserve">
<style type="text/css">
	.st0{fill:#212E5C;}
</style>
<g>
	<path class="st0" d="M112.7,97.8c-2.9-3-6-6.1-8.9-9c-1.3-1.3-2.5-2.6-3.8-3.8c-1.1-1.1-2.2-2.3-3.4-3.4c-0.9-0.9-1.8-1.9-2.8-2.8
		l-1-1l0.8-1.1c4-5.3,6.4-11.4,7-17.9c-2.1-0.7-4.7-1.6-7.4-2.5c0,0.1,0,0.1,0,0.2C92.5,71.5,80,83.4,64.7,83.4c-0.4,0-0.8,0-1.1,0
		c-13.2-0.8-23.8-10.7-26-23.3c-0.3-1.6-0.4-3.2-0.4-4.8c0-4,0.9-7.9,2.4-11.3c4.4-9.9,14.3-16.8,25.8-16.8c10.2,0,19.4,5.4,24.3,14
		c1.9,0.6,3.9,1.3,5.9,2l0.1,0c1.2,0.4,2.4,0.8,3.5,1.2c-4.7-14.5-18.2-24.6-33.8-24.6c-4.2,0-8.3,0.7-12.2,2.2
		c-8.4,3.1-15.2,9.2-19.3,16.9c-2.3,4.3-3.7,9.2-4,14.2c-0.1,0.8-0.1,1.5-0.1,2.3c0,17.4,12.5,32.2,29.7,35.1l2.4,0.4
		c0.6,0,1.1,0.1,1.7,0.1c1.5,0.1,3,0,4.5-0.1l0.6-0.1c4.9-0.5,9.6-1.9,13.9-4.3l1.2-0.7l0.8,1.1c3.5,4.5,7,8.9,10.5,13.4
		c2.1,2.6,4.1,5.3,6.2,7.9c1.1,1.5,2.6,2.2,4.5,2.3c0.2,0,0.3,0,0.4,0c1.2,0,2.4-0.5,3.4-1.4c0.8-0.7,1.6-1.4,2.4-2.1l0.5-0.4
		c1.3-1.2,2.1-2.7,2.1-4.2C114.6,100.7,113.9,99.1,112.7,97.8z"/>
	<path class="st0" d="M116.2,52.3c-1.1-2-3-3.1-5.1-3.1c-0.4,0-0.7,0-1.1,0.1c-1.1,0.2-2.2,0.7-3.2,1.5l-1.6-0.6
		c-2.2-0.8-6.4-2.2-10.8-3.6c-2.6-0.9-5.3-1.8-7.6-2.6c-2.5-0.9-4.7-1.6-6.3-2.1c-0.4-2.3-2.1-4.2-4.4-4.9c-0.9-0.3-1.9-0.3-2.8-0.2
		c-1.5,0.3-2.7,1.1-3.7,2.3c-1.6,2.1-1.8,4.5-0.6,6.5c-0.6,0.9-0.9,1.3-1.1,1.8c-0.3,0.4-0.5,0.9-1.3,2l-3.1,4.5c-2,2.8-4,5.8-6,8.7
		c-1-0.1-1.9,0-2.8,0.3L41.5,50.8c-0.3,1.4-0.4,2.9-0.4,4.4c0,1,0.1,2.1,0.2,3.1l9.7,8.8c-0.1,0.7-0.3,1.5-0.2,2.3
		c0.2,2.4,2.1,4.5,4.7,5.2c0.5,0.1,1,0.2,1.5,0.2c0.3,0,0.7,0,1-0.1c1.5-0.3,2.8-1.1,3.7-2.4c1.5-2,1.6-4.3,0.5-6.4
		c1.9-2.8,3.8-5.5,5.7-8.3l1.3-1.9c1.1-1.7,1.8-2.7,2.4-3.6c0.6-0.9,1.2-1.8,2.1-3.2c1.8,0.2,3.4-0.3,4.8-1.6l1.5,0.5
		c2,0.7,5.5,1.8,9.3,3.1c0.5,0.2,1,0.3,1.5,0.5c5.4,1.8,11,3.7,14,4.7c0,0.1,0,0.2,0.1,0.4c0.5,2.1,2.1,3.8,4.1,4.5
		c0.6,0.2,1.3,0.3,1.9,0.3h0c0.3,0,0.7,0,1-0.1c1.4-0.3,2.6-1,3.5-2.1C117.2,57.1,117.5,54.5,116.2,52.3z M57.4,71.9
		c-0.2,0-0.5,0.1-0.7,0.1c-1.6,0-2.8-1-3.1-2.6c-0.2-0.9,0-1.8,0.5-2.5c0.5-0.7,1.2-1.2,2.1-1.4c1.8-0.3,3.5,0.8,3.8,2.6
		C60.3,70,59.3,71.5,57.4,71.9z M75,46c-0.2,0-0.4,0-0.6,0c-1.6,0-2.9-1.1-3.2-2.7c-0.3-1.9,0.8-3.4,2.6-3.7c0.2,0,0.5-0.1,0.7-0.1
		c1.6,0,2.9,1.1,3.1,2.8C77.9,44.2,76.8,45.7,75,46z M111.5,58.4c-0.2,0-0.5,0.1-0.7,0.1c-1.6,0-2.8-1.1-3.1-2.7
		c-0.3-1.8,0.8-3.4,2.6-3.7c0.2,0,0.4-0.1,0.7-0.1c1.6,0,2.8,1,3.1,2.7C114.4,56.5,113.4,58.1,111.5,58.4z M22.3,29.2
		C21,28.3,19.4,28,18,28.3c-1.2,0.2-2.3,0.8-3.2,1.8c-2,2.2-2.3,5.2-0.7,7.6c1.5,2.1,3.6,3,6.1,2.5c0.3-0.1,0.6-0.1,0.9-0.2l5.9,5.3
		c0.5-2,1.2-3.9,2-5.8l-4.1-3.6C25.6,33,24.7,30.7,22.3,29.2z M19.8,37.4c-0.3,0.1-0.5,0.1-0.8,0.1c-1.6,0-2.8-1.1-3.1-2.7
		c-0.4-1.9,0.7-3.4,2.6-3.8c0.2-0.1,0.5-0.1,0.7-0.1c1.6,0,2.8,1,3.1,2.6C22.6,35.4,21.6,37.1,19.8,37.4z"/>
</g>
</svg>
