<?xml version="1.0" encoding="utf-8"?>
<!-- Generator: Adobe Illustrator 22.0.1, SVG Export Plug-In . SVG Version: 6.00 Build 0)  -->
<svg version="1.1" id="Layer_1" xmlns="http://www.w3.org/2000/svg" xmlns:xlink="http://www.w3.org/1999/xlink" x="0px" y="0px"
	 viewBox="0 0 130 130" style="enable-background:new 0 0 130 130;" xml:space="preserve">
<style type="text/css">
	.st0{fill:#212B5C;}
</style>
<g>
	<g>
		<path class="st0" d="M70.3,22.5c0-0.1,0-0.1,0.1-0.2c-0.1-0.1-0.1-0.3-0.1-0.4H60.2c0,0.3-0.1,0.8-0.4,1h10.4
			C70.3,22.6,70.3,22.5,70.3,22.5z"/>
		<path class="st0" d="M44.6,21.8H34.6c0,0.1,0,0.2-0.1,0.4c0,0.1,0.1,0.2,0.1,0.3c0,0,0,0.1,0,0.2h10.1
			C44.6,22.4,44.6,22.1,44.6,21.8z"/>
		<path class="st0" d="M71.7,23.2c-0.5,0-1.1-0.3-1.3-0.9c0,0.1,0,0.1-0.1,0.2c0,0,0,0.1-0.1,0.2c-0.2,1.1-1.6,5.4-6.4,9.3h2.1
			c0.7,0,1.2,0.1,1.7,0.3c4.4-4.5,5.3-9.1,5.4-9.4c0-0.2,0-0.5-0.1-0.8C72.8,22.7,72.3,23.2,71.7,23.2z"/>
		<path class="st0" d="M38.7,32.1h1.8c-4.6-3.8-5.7-8.3-6-9.3c0-0.1,0-0.2,0-0.2c0-0.1-0.1-0.2-0.1-0.3c-0.2,0.5-0.7,1-1.3,1
			c-0.5,0-1.1-0.3-1.3-0.8c-0.1,0.2-0.1,0.4,0,0.5c0,0.3,0.8,5.1,5.1,9.5C37.5,32.2,38,32.1,38.7,32.1z"/>
		<path class="st0" d="M33.3,23.2c0.6,0,1.2-0.4,1.3-1c0-0.1,0.1-0.2,0.1-0.4c0-2.8,2.3-5,5-5c2.8,0,5,2.3,5,5
			c0-1.6,0.5-3.1,1.4-4.4c-1.4-2.1-3.8-3.4-6.4-3.4c-4.3,0-7.8,3.5-7.8,7.8c0,0.2,0,0.4,0.1,0.5C32.2,22.9,32.6,23.2,33.3,23.2z"/>
		<path class="st0" d="M44.6,21.8c0,0.3,0,0.6,0.1,1c0.4,3.9,3.8,6.8,7.7,6.8c0.8,0,1.4-0.6,1.4-1.4c0-0.4-0.1-0.8-0.4-1
			c-0.2-0.2-0.6-0.4-1-0.4c-2.8,0-5-2.3-5-5c0-2.8,2.3-5,5-5c2.8,0,5,2.3,5,5c0-1.6,0.5-3.1,1.4-4.4c-1.4-2.1-3.7-3.4-6.4-3.4
			c-2.7,0-5,1.3-6.4,3.4C45.2,18.6,44.6,20.1,44.6,21.8z"/>
		<path class="st0" d="M57.5,21.8c0,0.4,0.1,0.8,0.4,1c0.2,0.2,0.5,0.4,1,0.4s0.8-0.1,1-0.4c0.2-0.2,0.4-0.5,0.4-1c0-2.8,2.3-5,5-5
			c2.8,0,5,2.3,5,5c0,0.2,0,0.3,0.1,0.4c0.2,0.5,0.7,0.9,1.3,0.9s1.1-0.3,1.3-0.9c0.1-0.1,0.1-0.3,0.1-0.4c0-4.3-3.5-7.8-7.8-7.8
			c-2.7,0-5,1.3-6.4,3.4C58,18.6,57.5,20.1,57.5,21.8z"/>
		<path class="st0" d="M66.3,40.5C79.6,46,89,59.1,89,74.4c0,1.7-0.1,3.4-0.3,5c1-0.1,1.8-0.1,2.8-0.2c0.2-1.6,0.3-3.1,0.3-4.8
			c0-15.7-9.2-29.3-22.5-35.6C68.7,39.8,67.6,40.4,66.3,40.5z"/>
		<path class="st0" d="M31.9,104.9c-9.8-6.6-16.1-17.8-16.1-30.3c0-15.3,9.4-28.4,22.8-33.9c-1.3,0-2.4-0.7-3.1-1.6
			C22.1,45.3,13,58.8,13,74.4c0,14.3,7.6,26.8,18.9,33.7c0,0,0,0,0-0.1V104.9z"/>
		<path class="st0" d="M38.6,40.5c0.1,0,0.1,0,0.2,0h27.3c0.1,0,0.2,0,0.3,0c1.2-0.1,2.3-0.8,3-1.7c0.5-0.8,0.9-1.6,0.9-2.5
			c0-1.7-1.1-3.3-2.6-3.9c-0.5-0.2-1.1-0.3-1.7-0.3h-2.1H40.6h-1.8c-0.7,0-1.2,0.1-1.7,0.4c-1.4,0.7-2.5,2.2-2.5,3.9
			c0,1,0.3,1.8,0.9,2.6C36.1,39.9,37.3,40.5,38.6,40.5z M37.3,36.3c0-0.8,0.7-1.5,1.5-1.5h27.3c0.8,0,1.5,0.7,1.5,1.5
			c0,0.8-0.6,1.5-1.5,1.5H38.7C37.9,37.8,37.3,37.2,37.3,36.3z"/>
		<path class="st0" d="M114.2,103.7v2.4c0,1.7-6.8,5-19.4,5c-10,0-16.4-2.1-18.5-3.8v0.9c0,0.8-0.2,1.4-0.7,2.1
			c4,2.4,11.7,3.7,19.2,3.7c11-0.1,22.2-2.7,22.2-7.8v-6.4C117,101.2,115.9,102.5,114.2,103.7z"/>
		<path class="st0" d="M75.4,99.3v-2.1c-1.7-1.1-2.8-2.4-2.8-3.9v3.9C73.8,97.9,74.8,98.6,75.4,99.3z"/>
		<path class="st0" d="M114.2,97.3v2.4c0,1.7-6.8,5-19.4,5c-10.2,0-16.6-2.2-18.6-3.9c0.1,0.3,0.1,0.7,0.1,1v2.4
			c4.2,2.2,11.4,3.3,18.5,3.3c7.7,0,15.4-1.3,19.4-3.8c1.7-1.1,2.8-2.4,2.8-3.9v-6.4C117,94.9,115.9,96.2,114.2,97.3z"/>
		<path class="st0" d="M114.2,90.9v2.4c0,1.7-6.8,5-19.4,5s-19.4-3.3-19.4-5v-2.4c-1.7-1.1-2.8-2.4-2.8-3.9v6.4l0,0
			c0,1.5,1.1,2.8,2.8,3.9c4,2.5,11.7,3.8,19.4,3.8s15.4-1.3,19.4-3.8c1.7-1.1,2.8-2.4,2.8-3.9l0,0V87
			C117,88.5,115.9,89.8,114.2,90.9z"/>
		<path class="st0" d="M88.8,79.5c-8.8,0.8-16.3,3.3-16.3,7.5c0,1.5,1.1,2.8,2.8,3.9c4,2.5,11.7,3.8,19.4,3.8s15.4-1.3,19.4-3.8
			c1.7-1.1,2.8-2.4,2.8-3.9c0-5.1-11.2-7.7-22.2-7.7c-1.1,0-2.2,0-3.3,0.1C90.7,79.3,89.7,79.4,88.8,79.5z M114.2,87
			c0,1.7-6.8,5-19.4,5s-19.4-3.3-19.4-5c0-1.7,6.8-5,19.4-5S114.2,85.3,114.2,87z"/>
		<path class="st0" d="M76.3,108.1v-0.9v-3.1v-2.4c0,1.5-1.1,2.8-2.8,3.9v2.4c0,1.7-6.8,5-19.4,5s-19.4-3.2-19.4-4.9v-2.4
			c-1.7-1.1-2.8-2.4-2.8-3.9v3.1v3.3c0,0,0,0,0,0.1C32,113.4,43,116,54.1,116c9.4,0,19-2,21.6-5.7C76.1,109.5,76.3,108.8,76.3,108.1
			z"/>
		<path class="st0" d="M75.4,99.3c-0.7-0.8-1.6-1.5-2.8-2.2c-4.2-2.2-11.4-3.3-18.5-3.3c-11,0-22.2,2.7-22.2,7.7
			c0,1.5,1.1,2.8,2.8,3.9c4,2.5,11.7,3.8,19.4,3.8s15.4-1.3,19.4-3.8c1.7-1.1,2.8-2.4,2.8-3.9c0-0.3,0-0.7-0.1-1
			C76.1,100.3,75.7,99.8,75.4,99.3z M34.7,101.7c0-1.7,6.8-5,19.4-5s19.4,3.3,19.4,5c0,1.6-6.8,5-19.4,5S34.7,103.3,34.7,101.7z"/>
	</g>
	<g>
		<path class="st0" d="M43.2,56.8h19.7l0,0c-1.2,1.8-1.8,2.7-2,2.8h-5.3c0.8,0.9,1.2,1.8,1.5,3.1h5.6c0.1,0,0.1,0,0.1,0.1
			c-1.3,1.8-2,2.8-2,2.8h-3.7c-0.1,1-0.5,2.2-1.4,3.5c-1.1,1.4-2.2,2.3-3.3,2.7c-1.9,0.9-3.8,1.4-5.5,1.4l0,0c0,0.1,4,4.9,11.9,14.1
			h-5.2c-7.7-8.9-11.5-13.4-11.5-13.4v-2.7v-0.1c0.6,0.1,1.5,0.1,2.4,0.1c4.3,0,7-1.4,8-4.2c0.2-0.4,0.2-0.9,0.2-1.3H41.2
			c-0.1,0-0.1,0-0.1-0.1c1.3-1.8,2-2.8,2-2.8h9.3l0,0c-0.5-1.1-1.5-2-3.1-2.5c-1.1-0.3-2.1-0.5-2.9-0.5h-5.1v-0.1
			C42.5,57.7,43.2,56.8,43.2,56.8z"/>
	</g>
</g>
</svg>
