<?xml version="1.0" encoding="utf-8"?>
<!-- Generator: Adobe Illustrator 22.0.1, SVG Export Plug-In . SVG Version: 6.00 Build 0)  -->
<svg version="1.1" id="Layer_1" xmlns="http://www.w3.org/2000/svg" xmlns:xlink="http://www.w3.org/1999/xlink" x="0px" y="0px"
	 viewBox="0 0 130 130" style="enable-background:new 0 0 130 130;" xml:space="preserve">
<style type="text/css">
	.st0{fill:#20295C;}
</style>
<g>
	<path class="st0" d="M20.2,115.1c-4.2,0-7.7-1.7-9.6-4.7c-2.2-3.2-2.2-7.5,0-12.2v-0.1l43.7-75.7c2.9-4.9,6.6-7.5,10.7-7.5
		c4,0,7.8,2.7,10.6,7.5l43.1,74.8c2.6,4.3,3,9.1,0.9,12.7c-1.4,2.4-4.5,5.3-11.2,5.3c-0.1,0-0.2,0-0.3,0H20.6
		C20.5,115.1,20.3,115.1,20.2,115.1z M13,99.3c-1.7,3.8-1.8,7.2-0.2,9.7c1.5,2.3,4.3,3.5,7.8,3.5l0,0h87.7c4.6,0.1,7.8-1.3,9.3-4
		c1.6-2.7,1.3-6.6-0.9-10.1l0,0l-43-74.8c-2.3-4-5.4-6.3-8.3-6.3l0,0c-3.1,0-6.2,2.2-8.5,6.3L13,99.3z M65.1,107.7
		c-0.1,0-0.2,0-0.3,0c-1.4,0-2.6-0.3-3.8-0.9c-2.2-1-3.9-2.7-4.8-5l0,0c-0.2-0.8-0.5-1.5-0.6-2.3c-0.1-0.8-0.1-1.6,0-2.3
		c0.1-1,0.5-2.2,0.9-3.2c0.3-0.9,0.9-1.7,1.6-2.4c0.1-0.1,0.1-0.1,0.2-0.2c2.6-2.6,6.6-3.4,10.1-2.1c1.3,0.5,2.4,1.3,3.3,2.2
		c1.6,1.6,2.6,3.8,2.7,6.1c0.1,0.8,0,1.6-0.1,2.4c-0.1,0.8-0.3,1.5-0.7,2.3C72.1,105.5,68.8,107.7,65.1,107.7z M58.6,100.8
		c0.7,1.6,1.9,2.9,3.4,3.7c0.9,0.5,1.8,0.7,2.7,0.7l0,0c0.1,0,0.1,0,0.2,0c2.7,0,5.1-1.6,6.3-4l0,0c0.2-0.6,0.5-1.1,0.6-1.6l0,0
		C72,99,72,98.4,72,97.9l0,0c-0.1-1.7-0.8-3.2-1.9-4.3c-0.7-0.7-1.5-1.3-2.5-1.6c-2.5-1-5.4-0.3-7.3,1.5l-0.1,0.1L60,93.6
		c-0.5,0.5-0.9,1-1.1,1.7l0,0c-0.3,0.8-0.6,1.6-0.7,2.4l0,0c-0.1,0.6-0.1,1.1,0,1.7C58.3,99.7,58.4,100.3,58.6,100.8z M65,87.1
		c-4.5,0-7.9-3-8.1-7.2l-0.3-3.3c-1-9.6-2.6-25.8-2.5-32.9l0,0c0.1-4.1,3-7.1,7.7-8.1c1.1-0.2,2.2-0.3,3.3-0.3
		c1.1,0,2.2,0.1,3.3,0.3l0,0c4.8,1,7.8,4.1,7.8,8.2V44c0,0.1,0,0.2,0,0.3l-2.9,35.5c0,0.1,0,0.2,0,0.3c-0.2,1.9-1.1,3.7-2.6,4.9
		C69,86.4,67.1,87.1,65,87.1z M56.6,43.7c-0.1,7,1.6,23,2.5,32.6l0.3,3.4c0.1,2.9,2.4,4.8,5.5,4.8c3,0,5.3-1.8,5.5-4.5v-0.1v-0.1
		l2.9-35.5v-0.1v-0.2c0-2.9-2.1-4.9-5.7-5.7C66.6,38,65.7,38,64.8,38l0,0c-0.9,0-1.8,0.1-2.7,0.2C58.7,38.9,56.7,40.9,56.6,43.7z"/>
</g>
</svg>
