<?xml version="1.0" encoding="utf-8"?>
<!-- Generator: Adobe Illustrator 22.0.1, SVG Export Plug-In . SVG Version: 6.00 Build 0)  -->
<svg version="1.1" id="Layer_1" xmlns="http://www.w3.org/2000/svg" xmlns:xlink="http://www.w3.org/1999/xlink" x="0px" y="0px"
	 viewBox="0 0 130 130" style="enable-background:new 0 0 130 130;" xml:space="preserve">
<style type="text/css">
	.st0{fill:#212E5C;}
</style>
<g>
	<path class="st0" d="M64.7,12.5c16.4,0,30.8,4.7,45.2,12.1c1,0.6,1.6,1.4,1.8,2.5c2.4,18.7,1.9,37.5-6.7,54.8
		c-8.5,16.9-21.9,27.3-38.6,35.2c-0.9,0.5-1.9,0.5-2.9,0C46.9,109.4,33.4,98.9,25,82c-8.6-17.4-9.1-36-6.7-54.8
		c0.1-1.1,0.8-1.9,1.7-2.5C34.3,17,48.3,12.4,64.7,12.5L64.7,12.5z M64.7,19.5c-13.2,0-26.5,3.4-39.6,10.4
		c-2.4,19.2-0.3,35.5,6.3,48.9C38,92,49.2,102.4,65,109.9c15.9-7.5,27.1-17.9,33.7-31.2c6.6-13.4,8.7-29.6,6.3-48.9
		C91.4,23,77.9,19.6,64.7,19.5L64.7,19.5z"/>
	<polygon class="st0" points="51,55.9 60.5,65.3 80.3,41.1 88.5,47.8 61.4,80.9 43.6,63.5 	"/>
</g>
</svg>
