<?xml version="1.0" encoding="utf-8"?>
<!-- Generator: Adobe Illustrator 22.0.1, SVG Export Plug-In . SVG Version: 6.00 Build 0)  -->
<svg version="1.1" id="Layer_1" xmlns="http://www.w3.org/2000/svg" xmlns:xlink="http://www.w3.org/1999/xlink" x="0px" y="0px"
	 viewBox="0 0 100 100" style="enable-background:new 0 0 100 100;" xml:space="preserve">
<style type="text/css">
	.st0{fill:none;stroke:#FFFFFF;stroke-width:2;stroke-linejoin:round;stroke-miterlimit:10;}
	.st1{fill:none;stroke:#FFFFFF;stroke-width:2;stroke-linecap:round;stroke-linejoin:round;stroke-miterlimit:10;}
</style>
<g>
	<line id="XMLID_117_" class="st0" x1="36.7" y1="8.1" x2="50.8" y2="8.1"/>
	<path id="XMLID_116_" class="st1" d="M51.5,97.6H13.7c-3.1,0-5.7-2.5-5.7-5.7V8.1c0-3.1,2.5-5.7,5.7-5.7h60.2
		c3.1,0,5.7,2.5,5.7,5.7v26.9"/>
	<line id="XMLID_115_" class="st0" x1="36.7" y1="91.9" x2="50.8" y2="91.9"/>
	<line id="XMLID_114_" class="st1" x1="8" y1="13.8" x2="79.5" y2="13.8"/>
	<line id="XMLID_113_" class="st1" x1="50.8" y1="86.2" x2="8" y2="86.2"/>
	<path id="XMLID_112_" class="st1" d="M22.3,31.4H19c-1.8,0-3.2-1.4-3.2-3.2v-3.3c0-1.8,1.4-3.2,3.2-3.2h3.3c1.8,0,3.2,1.4,3.2,3.2
		v3.3C25.6,29.9,24.1,31.4,22.3,31.4z"/>
	<path id="XMLID_111_" class="st1" d="M37.5,31.4h-3.3c-1.8,0-3.2-1.4-3.2-3.2v-3.3c0-1.8,1.4-3.2,3.2-3.2h3.3
		c1.8,0,3.2,1.4,3.2,3.2v3.3C40.7,29.9,39.3,31.4,37.5,31.4z"/>
	<path id="XMLID_110_" class="st1" d="M52.6,31.4h-3.3c-1.8,0-3.2-1.4-3.2-3.2v-3.3c0-1.8,1.4-3.2,3.2-3.2h3.3
		c1.8,0,3.2,1.4,3.2,3.2v3.3C55.8,29.9,54.4,31.4,52.6,31.4z"/>
	<path id="XMLID_109_" class="st1" d="M22.3,47.2H19c-1.8,0-3.2-1.4-3.2-3.2v-3.3c0-1.8,1.4-3.2,3.2-3.2h3.3c1.8,0,3.2,1.4,3.2,3.2
		v3.3C25.6,45.7,24.1,47.2,22.3,47.2z"/>
	<path id="XMLID_108_" class="st1" d="M37.5,47.2h-3.3c-1.8,0-3.2-1.4-3.2-3.2v-3.3c0-1.8,1.4-3.2,3.2-3.2h3.3
		c1.8,0,3.2,1.4,3.2,3.2v3.3C40.7,45.7,39.3,47.2,37.5,47.2z"/>
	<path id="XMLID_107_" class="st1" d="M22.3,63H19c-1.8,0-3.2-1.4-3.2-3.2v-3.3c0-1.8,1.4-3.2,3.2-3.2h3.3c1.8,0,3.2,1.4,3.2,3.2
		v3.3C25.6,61.5,24.1,63,22.3,63z"/>
	<path id="XMLID_106_" class="st1" d="M37.5,63h-3.3c-1.8,0-3.2-1.4-3.2-3.2v-3.3c0-1.8,1.4-3.2,3.2-3.2h3.3c1.8,0,3.2,1.4,3.2,3.2
		v3.3C40.7,61.5,39.3,63,37.5,63z"/>
	<g>
		<path class="st1" d="M69.9,49.4V40h3.7c2,0,3.7,1.7,3.7,3.7"/>
		<path class="st1" d="M92,56.9c-0.2,7-1.3,13.9-3.5,20.6c-0.7,2.2-1,3.8-1,3.8H71.6"/>
		<path class="st1" d="M69.9,40v-9.8c0-2-1.7-3.7-3.7-3.7l0,0c-2,0-3.7,1.7-3.7,3.7v27.3L60,50.9c-0.6-1.7-2.3-2.8-4.1-2.8l0,0
			c-2.4,0-4.4,2-4.4,4.4l0,0c0,4.4,1.2,8.8,3.4,12.6c0.9,1.5,1.9,3,3.1,4.3c4.5,5.1,5.7,11.9,5.7,11.9"/>
		<path class="st1" d="M77.3,52.2v-9.4h3.7c2,0,3.7,1.7,3.7,3.7v8.9"/>
		<path class="st1" d="M84.6,47.5h3.7c2,0,3.7,1.7,3.7,3.7v5.7"/>
	</g>
	<rect x="60.9" y="86.2" class="st1" width="28.6" height="11.3"/>
	<path class="st1" d="M84.2,91.9c0-0.6-0.5-1.1-1.1-1.1c-0.6,0-1.1,0.5-1.1,1.1c0,0.6,0.5,1.1,1.1,1.1C83.7,93,84.2,92.5,84.2,91.9z
		"/>
</g>
</svg>
