<?xml version="1.0" encoding="utf-8"?>
<!-- Generator: Adobe Illustrator 22.0.1, SVG Export Plug-In . SVG Version: 6.00 Build 0)  -->
<svg version="1.1" id="Layer_1" xmlns="http://www.w3.org/2000/svg" xmlns:xlink="http://www.w3.org/1999/xlink" x="0px" y="0px"
	 viewBox="0 0 100 100" style="enable-background:new 0 0 100 100;" xml:space="preserve">
<style type="text/css">
	.st0{fill:none;}
	.st1{fill:#FFFFFF;}
</style>
<g>
	<path class="st0" d="M45.2,18c0,0,0-0.1,0-0.1c0-0.1-0.1-0.2-0.1-0.4h-7.3c0,0.3-0.1,0.5-0.2,0.8h7.5C45.2,18.1,45.2,18,45.2,18z"
		/>
	<path class="st0" d="M25.4,17.5h-7.3c0,0.1,0,0.2,0,0.3c0,0.1,0.1,0.2,0.1,0.3c0,0,0,0.1,0,0.2h7.3C25.4,18,25.4,17.7,25.4,17.5z"
		/>
	<path class="st1" d="M82.7,30.7c0-0.4,0-0.9,0.1-1.3c-3.7-6.1-9.6-9.8-17.1-10.7c-6.5-0.8-11.9,0.7-12.1,0.8
		c-0.7,0.2-1.1,0.9-0.9,1.6c0.2,0.7,0.9,1.1,1.6,0.9c0,0,0.6-0.2,1.7-0.4c4.9-0.9,19.4-2.3,25.8,11.3c0.1,0.2,0.2,0.3,0.2,0.5
		c0,0,0,0.1,0,0.1c0,0.1,0.2,0.4,0.7,0.9V30.7z"/>
	<path class="st1" d="M64.1,76.5c-3.1,0.3-5.9,0.5-8.4,0.6c-0.7,0.9-1.5,1.8-2.4,2.7c3.3,0,6.9-0.2,11-0.7h19.6
		c-0.5-0.8-0.9-1.7-1.1-2.6h-7.4H64.3C64.2,76.5,64.2,76.5,64.1,76.5z"/>
	<path class="st1" d="M8.8,32.2c-2.8,0-5.1-2.3-5.1-5.1c0-2.8,2.3-5.1,5.1-5.1h8c-0.5-1-0.9-2-1-2.6h-7c-4.2,0-7.7,3.5-7.7,7.7
		c0,2.7,1.4,5,3.4,6.4C5.8,32.7,7.3,32.2,8.8,32.2z"/>
	<path class="st1" d="M4.9,43.2c-0.7-0.9-1.1-2-1.1-3.2c0-2.8,2.3-5.1,5.1-5.1h2.9c1.1-1,2.3-1.8,3.5-2.6H8.8
		c-1.6,0-3.1,0.5-4.3,1.3c-2.1,1.4-3.4,3.7-3.4,6.4c0,2.3,1,4.3,2.5,5.7C4.1,44.8,4.5,44,4.9,43.2z"/>
	<path class="st1" d="M83.9,79.1c1.4,2.3,4,3.8,6.9,3.8c4.5,0,8.2-3.7,8.2-8.2V30.7c0-4.5-3.7-8.2-8.2-8.2c-4.1,0-7.4,3-8.1,6.9
		c-0.1,0.4-0.1,0.8-0.1,1.3v3.9v40.3c0,0.6,0.1,1.2,0.2,1.7C83.1,77.4,83.4,78.3,83.9,79.1z M85.3,30.7c0-3.1,2.5-5.5,5.5-5.5
		c3.1,0,5.5,2.5,5.5,5.5v44.1c0,3.1-2.5,5.5-5.5,5.5c-3,0-5.5-2.5-5.5-5.5V30.7z"/>
	<path class="st1" d="M46.5,18.8c-0.6,0-1.1-0.4-1.2-0.9c0,0,0,0.1,0,0.1c0,0,0,0.1-0.1,0.2c-0.2,0.9-1.2,3.8-4.2,6.5h3.6
		c0.5-0.6,0.9-1.1,1.2-1.7c1.6-2.5,2-4.5,2-4.6c0-0.2,0-0.4,0-0.6C47.6,18.4,47.1,18.8,46.5,18.8z"/>
	<path class="st1" d="M16.9,22.1c0.6,1.1,1.3,2.3,2.5,3.6c0.5-0.3,1.1-0.5,1.7-0.5h0.1c0.3-0.1,0.7-0.2,1.1-0.3
		c-3.1-2.7-3.9-5.8-4.1-6.7c0-0.1,0-0.2,0-0.2c0-0.1,0-0.2-0.1-0.3c-0.1,0.6-0.7,1-1.3,1c-0.6,0-1-0.3-1.2-0.8c0,0.2,0,0.3,0,0.5
		c0,0.1,0.1,0.5,0.2,1C16,20.1,16.3,21,16.9,22.1z"/>
	<path class="st1" d="M16.8,18.8c0.6,0,1.1-0.4,1.3-1c0-0.1,0-0.2,0-0.3c0-2,1.6-3.6,3.6-3.6c2,0,3.6,1.6,3.6,3.6
		c0-1.4,0.5-2.8,1.3-3.8c-1.1-1.5-2.9-2.4-4.9-2.4c-3.5,0-6.3,2.8-6.3,6.3c0,0.2,0,0.3,0.1,0.5C15.8,18.4,16.3,18.8,16.8,18.8z"/>
	<path class="st1" d="M25.4,17.5c0,0.3,0,0.5,0,0.8c0.4,3.1,3,5.5,6.2,5.5c0.7,0,1.3-0.6,1.3-1.3c0-0.4-0.1-0.7-0.4-0.9
		c-0.2-0.2-0.6-0.4-0.9-0.4c-2,0-3.6-1.6-3.6-3.6c0-2,1.6-3.6,3.6-3.6c2,0,3.6,1.6,3.6,3.6c0-1.4,0.5-2.8,1.3-3.8
		c-1.1-1.5-2.9-2.4-4.9-2.4c-2,0-3.8,1-5,2.4C25.9,14.7,25.4,16,25.4,17.5z"/>
	<path class="st1" d="M35.3,17.5c0,0.4,0.1,0.7,0.4,0.9c0.2,0.2,0.6,0.4,0.9,0.4c0.4,0,0.8-0.2,1.1-0.6c0.1-0.2,0.2-0.5,0.2-0.8
		c0-2,1.6-3.6,3.6-3.6c2,0,3.6,1.6,3.6,3.6c0,0.1,0,0.3,0.1,0.4c0.2,0.5,0.7,0.9,1.2,0.9c0.6,0,1.1-0.4,1.2-0.9
		c0-0.1,0.1-0.2,0.1-0.4c0-3.5-2.8-6.3-6.3-6.3c-2,0-3.8,1-4.9,2.4C35.8,14.7,35.3,16,35.3,17.5z"/>
	<path class="st1" d="M31.7,88.8c8.5,0,16.1-3.4,21.7-9c0.8-0.8,1.6-1.7,2.4-2.7c0.8-1,1.6-2.1,2.3-3.3c2.8-4.6,4.3-10,4.3-15.7
		c0-2.6-0.3-5.2-1-7.6c-1.2-0.3-2.2-0.8-3.1-1.4c0.9,2.8,1.5,5.8,1.5,9c0,15.5-12.6,28-28,28c-15.5,0-28-12.6-28-28
		c0-9.8,5.1-18.5,12.8-23.5c-0.2-0.7-0.3-1.4-0.3-2.2c0-0.2,0-0.5,0-0.7c-0.3,0.2-0.6,0.3-0.8,0.5c-1.2,0.8-2.4,1.7-3.5,2.6
		c-2.7,2.3-5,5.1-6.8,8.3c-0.4,0.8-0.9,1.6-1.2,2.5c-0.4,0.8-0.7,1.7-1,2.5C2,50,1.5,52,1.3,54.1c-0.2,1.3-0.3,2.7-0.3,4
		C1,75,14.8,88.8,31.7,88.8z"/>
	<path class="st1" d="M44.6,24.7h-3.6H23.8c-0.5,0-1,0.1-1.5,0.1c-0.4,0.1-0.7,0.2-1.1,0.3c-1.4,0.5-2.6,1.4-3.5,2.5
		c-0.9,1.1-1.5,2.5-1.6,4c0,0.2,0,0.5,0,0.7c0,0.8,0.1,1.5,0.3,2.2c0.9,3.2,3.9,5.5,7.4,5.5h29.2c0.2,1.8,0.8,5,3.3,7.5
		c0.6,0.6,1.2,1.1,2,1.5c0.9,0.6,2,1,3.1,1.4c1.5,0.4,3.2,0.7,5.1,0.7c0.7,0,1.4,0,2.2-0.1c0.7-0.1,1.3-0.7,1.2-1.4
		c-0.1-0.7-0.7-1.3-1.4-1.2c-0.2,0-0.4,0-0.7,0c-4.3,0.2-7.6-0.7-9.7-2.7c-2.8-2.8-2.6-6.8-2.6-6.9c0-0.4-0.1-0.7-0.4-1
		c-0.2-0.3-0.6-0.4-1-0.4H23.8c-2.8,0-5.1-2.3-5.1-5.1c0-2.8,2.3-5.1,5.1-5.1h30.4c0.2,0,0.5-0.1,0.7-0.2c0.4-0.2,0.6-0.6,0.6-1.1
		c0-0.7-0.6-1.3-1.3-1.3h-7.6H44.6z"/>
</g>
<g>
	<path class="st1" d="M25.3,48.3H39v0c-0.8,1.2-1.3,1.9-1.4,2H34c0.5,0.6,0.8,1.3,1,2.1h3.9c0,0,0.1,0,0.1,0.1c-0.9,1.3-1.3,2-1.3,2
		h-2.5c-0.1,0.7-0.4,1.5-1,2.4c-0.8,1-1.5,1.6-2.2,1.9c-1.3,0.6-2.6,1-3.8,1v0c0,0.1,2.7,3.3,8.2,9.7h-3.6c-5.3-6.2-8-9.3-8-9.4
		v-1.9l0-0.1c0.5,0.1,1,0.1,1.7,0.1c3,0,4.8-1,5.6-2.9c0.1-0.3,0.2-0.6,0.2-0.9H24c0,0-0.1,0-0.1-0.1c0.9-1.3,1.4-2,1.4-2h6.4v0
		c-0.4-0.7-1.1-1.3-2.1-1.7c-0.8-0.2-1.4-0.4-2-0.4H24v-0.1C24.9,48.9,25.3,48.3,25.3,48.3z"/>
</g>
</svg>
