<?xml version="1.0" encoding="utf-8"?>
<!-- Generator: Adobe Illustrator 22.0.1, SVG Export Plug-In . SVG Version: 6.00 Build 0)  -->
<svg version="1.1" id="Layer_1" xmlns="http://www.w3.org/2000/svg" xmlns:xlink="http://www.w3.org/1999/xlink" x="0px" y="0px"
	 viewBox="0 0 130 130" style="enable-background:new 0 0 130 130;" xml:space="preserve">
<style type="text/css">
	.st0{fill:#212B5C;}
</style>
<g>
	<path class="st0" d="M113.9,34.1c0-0.8-0.6-1.4-1.4-1.4C95.7,30.8,77.6,23.9,66.1,11c-0.3-0.3-0.7-0.5-1-0.5c-0.3,0-0.7,0.1-1,0.5
		C52.6,23.9,34.6,30.8,17.7,32.6c-0.8,0.1-1.4,0.6-1.4,1.4c-0.7,15.6-0.8,34,4,49c4.9,15.4,19.1,26.1,33.3,32.4
		c3.2,1.5,7.5,3.9,11.2,4.1c2.6,0.1,5.7-1.5,8-2.4c14.1-5.6,28-14.8,35-28.7c3.9-7.6,4.6-16.4,5.2-24.8
		C113.8,53.8,114.2,43.9,113.9,34.1z M110.8,52.7c-0.5,9.9-0.6,21-4,30.4c-4.1,11.6-14,20.3-24.5,26.2c-4.8,2.7-11.5,6.8-17.2,7.3
		l0,0l0,0c-0.6,0-1.1-0.3-1.7-0.6c-3.4-1.3-6.7-2.4-10-4c-9.7-4.6-19-11.1-25.2-20.1c-6.3-9.1-7.3-19.7-8.1-30.4
		c-0.7-6.3-0.9-12.5-1-18.9c0-1.6-0.8-6,0-7.2c0.7-1,6.7-1.3,8.3-1.7c13.8-3,27.9-9.3,37.7-19.8c8.8,9.2,20.9,15.3,33,18.7
		c3.1,0.9,6.2,1.6,9.2,2.1c3.5,0.5,3.1-0.5,3.8,2.5C112.2,41.9,111,48.1,110.8,52.7z"/>
	<path class="st0" d="M107.3,37.9c-15.2-2.6-29.7-8.5-41.5-18.7c-0.5-0.3-1-0.3-1.5,0C52.7,29.4,38,35.3,23,37.9
		c-0.6,0.1-0.8,0.5-0.8,0.9V39c0,13.6-0.5,29.4,3.9,42.5c4.1,12.2,15,21,26.1,26.7c3.4,1.7,8.2,4.6,12.1,5c3.1,0.3,6.6-1.7,9.5-3
		c11.5-5.1,23-13,28.7-24.6c3-6,3.6-12.8,4.3-19.3c0.9-9.1,1.4-18.2,1.4-27.3C108,38.5,107.7,38,107.3,37.9z M105.5,54.5
		c-0.2,4.9-0.7,9.7-1.3,14.6c-1.1,9.6-3.5,17.5-10.3,24.8c-5.6,6-12.8,10.6-20.2,14c-5.5,2.5-8.2,3.8-13.7,1.6
		c-7.5-3-14.7-7.1-20.7-12.5c-15.8-14.1-15-37.4-15-57.1c10.5-1.9,20.6-5.4,29.9-10.7c2.5-1.5,8.2-7.1,11.1-7.1
		c1.5,0,3.2,1.9,4.4,2.7c2.4,1.7,5,3.3,7.6,4.8c4.2,2.4,8.7,4.3,13.2,5.9c3.4,1.3,14.4,2.6,15.6,5.7C107,44.5,105.7,51.2,105.5,54.5
		z"/>
	<path class="st0" d="M83.6,61.1c-0.5-0.3-1-0.5-1.6-0.7c-0.1-5.8,0.5-13.1-3.4-17.8c-3.5-4.1-8.9-4.9-13.9-4.6
		c-13.8,0.9-17,10.3-16.3,22.7c-4,1-5,3.5-5.2,7.6c-0.2,5.5-0.9,12.6,0.7,17.9c1.8,5.7,8.8,5.2,13.7,5.5c7.7,0.3,15.8,0.3,23.6-0.8
		c6.3-0.9,5.9-5.7,6-11.4C87.1,75.3,87.9,63.9,83.6,61.1z M64.7,40.9c4-0.2,8.5,0,11.4,3.1c3.6,3.9,3.1,10.7,3.1,16
		c-1-0.1-2.2-0.1-3.3,0c-0.1-3.9,0.1-8.2-1.8-11.6c-1.6-2.8-4.9-3.8-7.9-4.1c-10-0.8-12.1,8.3-11.7,16.2c-1,0-2.2,0-3.2,0.1
		C50.6,50.2,52.5,41.7,64.7,40.9z M57.1,60.4c-0.3-6.4,0.7-14.1,9-13.3c7.1,0.7,6.8,7.4,7,13c-1.6,0.1-3.2,0.2-4.3,0.2
		C64.9,60.4,61,60.4,57.1,60.4z M81.1,88.2c-3.2,1.7-10.3,0.9-13.9,1c-4.7,0.1-14.7,1.3-18.6-1.4c-3.4-2.4-2.5-9.5-2.5-13.2
		C46,70.5,44.8,64.4,50,63.3c7.9-0.3,15.7-0.2,23.6-0.2c3.8,0,7.9-1,9.8,3C85.3,70.4,86,85.6,81.1,88.2z"/>
	<path class="st0" d="M69.2,76.7c2.8-2.8,0.6-8.1-3.2-8.9c-5-1-8.5,4.7-5.4,8.5c-0.5,2.4-1,4.9-1.6,7.3c-0.1,0.7,0.3,1.3,1,1.4
		c3.4,0.2,6.7-0.1,10,0c0.7,0,1.3-0.7,1-1.4C70.5,81.3,69.9,79.1,69.2,76.7z M61.4,82.9c0.6-2.2,1-4.3,1.5-6.6v-0.1
		c0.1-0.3,0-0.7-0.2-0.9c-2.8-2.8,1.5-7.3,4.6-4.7c1.1,0.9,2.2,3.5,0.5,4.8c-0.3,0.2-0.6,0.7-0.5,1.1c0.6,2.1,1.1,4.2,1.7,6.3
		C66.3,82.9,63.9,83.1,61.4,82.9z"/>
</g>
</svg>
