<?xml version="1.0" encoding="utf-8"?>
<!-- Generator: Adobe Illustrator 22.0.1, SVG Export Plug-In . SVG Version: 6.00 Build 0)  -->
<svg version="1.1" id="Layer_1" xmlns="http://www.w3.org/2000/svg" xmlns:xlink="http://www.w3.org/1999/xlink" x="0px" y="0px"
	 viewBox="0 0 100 100" style="enable-background:new 0 0 100 100;" xml:space="preserve">
<style type="text/css">
	.st0{fill:#FFFFFF;}
</style>
<g>
	<path class="st0" d="M92.9,22.8c0-0.7-0.5-1.2-1.2-1.2C76.9,19.9,61.1,13.9,51,2.6c-0.3-0.3-0.6-0.4-0.9-0.4
		c-0.3,0-0.6,0.1-0.9,0.4C39.1,13.9,23.3,19.9,8.5,21.5c-0.7,0.1-1.2,0.5-1.2,1.2c-0.6,13.7-0.7,29.8,3.5,43
		c4.3,13.5,16.8,22.9,29.2,28.4c2.8,1.3,6.6,3.4,9.8,3.6c2.3,0.1,5-1.3,7-2.1c12.4-4.9,24.6-13,30.7-25.2c3.4-6.7,4-14.4,4.6-21.8
		C92.8,40.1,93.2,31.4,92.9,22.8z M90.2,39.2c-0.4,8.7-0.5,18.4-3.5,26.7c-3.6,10.2-12.3,17.8-21.5,23c-4.2,2.4-10.1,6-15.1,6.4
		c0,0,0,0,0,0c0,0,0,0,0,0c-0.5,0-1-0.3-1.5-0.5c-3-1.1-5.9-2.1-8.8-3.5c-8.5-4-16.7-9.7-22.1-17.6c-5.5-8-6.4-17.3-7.1-26.7
		C10,41.5,9.8,36,9.7,30.4c0-1.4-0.7-5.3,0-6.3c0.6-0.9,5.9-1.1,7.3-1.5C29.1,20,41.5,14.4,50.1,5.2c7.7,8.1,18.3,13.4,29,16.4
		c2.7,0.8,5.4,1.4,8.1,1.8c3.1,0.4,2.7-0.4,3.3,2.2C91.4,29.7,90.4,35.1,90.2,39.2z"/>
	<path class="st0" d="M87.1,26.2C73.8,23.9,61,18.7,50.7,9.8c-0.4-0.3-0.9-0.3-1.3,0c-10.2,8.9-23.1,14.1-36.3,16.4
		c-0.5,0.1-0.7,0.4-0.7,0.8c0,0,0,0.1,0,0.1c0,11.9-0.4,25.8,3.4,37.3C19.4,75.1,29,82.8,38.7,87.8c3,1.5,7.2,4,10.6,4.4
		c2.7,0.3,5.8-1.5,8.3-2.6C67.7,85.1,77.8,78.2,82.8,68c2.6-5.3,3.2-11.2,3.8-16.9c0.8-8,1.2-16,1.2-24
		C87.7,26.7,87.5,26.3,87.1,26.2z M85.5,40.7c-0.2,4.3-0.6,8.5-1.1,12.8c-1,8.4-3.1,15.4-9,21.8c-4.9,5.3-11.2,9.3-17.7,12.3
		c-4.8,2.2-7.2,3.3-12,1.4c-6.6-2.6-12.9-6.2-18.2-11C13.6,65.6,14.3,45.2,14.3,27.9c9.2-1.7,18.1-4.7,26.2-9.4
		c2.2-1.3,7.2-6.2,9.7-6.2c1.3,0,2.8,1.7,3.9,2.4c2.1,1.5,4.4,2.9,6.7,4.2c3.7,2.1,7.6,3.8,11.6,5.2c3,1.1,12.6,2.3,13.7,5
		C86.9,32,85.7,37.8,85.5,40.7z"/>
	<path class="st0" d="M66.3,46.5c-0.4-0.3-0.9-0.4-1.4-0.6c-0.1-5.1,0.4-11.5-3-15.6c-3.1-3.6-7.8-4.3-12.2-4
		c-12.1,0.8-14.9,9-14.3,19.9c-3.5,0.9-4.4,3.1-4.6,6.7C30.6,57.7,30,64,31.4,68.6c1.6,5,7.7,4.6,12,4.8c6.8,0.3,13.9,0.3,20.7-0.7
		c5.5-0.8,5.2-5,5.3-10C69.4,59,70.1,49,66.3,46.5z M49.7,28.8c3.5-0.2,7.5,0,10,2.7c3.2,3.4,2.7,9.4,2.7,14c-0.9-0.1-1.9-0.1-2.9,0
		c-0.1-3.4,0.1-7.2-1.6-10.2c-1.4-2.5-4.3-3.3-6.9-3.6C42.2,31,40.4,39,40.7,45.9c-0.9,0-1.9,0-2.8,0.1C37.4,37,39,29.5,49.7,28.8z
		 M43.1,45.9c-0.3-5.6,0.6-12.4,7.9-11.7c6.2,0.6,6,6.5,6.1,11.4c-1.4,0.1-2.8,0.2-3.8,0.2C49.9,45.9,46.5,45.9,43.1,45.9z
		 M64.1,70.3c-2.8,1.5-9,0.8-12.2,0.9c-4.1,0.1-12.9,1.1-16.3-1.2c-3-2.1-2.2-8.3-2.2-11.6c-0.1-3.6-1.1-9,3.4-9.9
		c6.9-0.3,13.8-0.2,20.7-0.2c3.3,0,6.9-0.9,8.6,2.6C67.8,54.7,68.4,68,64.1,70.3z"/>
	<path class="st0" d="M53.7,60.2c2.5-2.5,0.5-7.1-2.8-7.8c-4.4-0.9-7.5,4.1-4.7,7.5c-0.4,2.1-0.9,4.3-1.4,6.4
		c-0.1,0.6,0.3,1.1,0.9,1.2c3,0.2,5.9-0.1,8.8,0c0.6,0,1.1-0.6,0.9-1.2C54.8,64.3,54.3,62.3,53.7,60.2z M46.8,65.7
		c0.5-1.9,0.9-3.8,1.3-5.8c0,0,0-0.1,0-0.1c0.1-0.3,0-0.6-0.2-0.8c-2.5-2.5,1.3-6.4,4-4.1c1,0.8,1.9,3.1,0.4,4.2
		c-0.3,0.2-0.5,0.6-0.4,1c0.5,1.8,1,3.7,1.5,5.5C51.1,65.7,49,65.8,46.8,65.7z"/>
</g>
</svg>
