<?xml version="1.0" encoding="utf-8"?>
<!-- Generator: Adobe Illustrator 22.0.1, SVG Export Plug-In . SVG Version: 6.00 Build 0)  -->
<svg version="1.1" id="Layer_1" xmlns="http://www.w3.org/2000/svg" xmlns:xlink="http://www.w3.org/1999/xlink" x="0px" y="0px"
	 viewBox="0 0 100 100" style="enable-background:new 0 0 100 100;" xml:space="preserve">
<style type="text/css">
	.st0{fill:#FFFFFF;}
</style>
<g>
	<path class="st0" d="M28.6,13.1h47.5v0.1c-2.8,4.3-4.4,6.6-4.7,6.9H58.7c1.7,2,2.9,4.5,3.6,7.5h13.5c0.2,0,0.2,0.1,0.2,0.2
		c-3,4.5-4.6,6.8-4.6,6.8h-8.8c-0.2,2.3-1.3,5.2-3.4,8.4c-2.7,3.3-5.3,5.5-7.8,6.5c-4.6,2.2-9,3.3-13.2,3.3v0.1
		c0,0.3,9.5,11.6,28.6,33.9H54.3C35.7,65.2,26.4,54.4,26.4,54.3v-6.6l0.1-0.2c1.6,0.2,3.6,0.3,5.8,0.3c10.4,0,16.9-3.4,19.4-10.1
		c0.4-1,0.6-2,0.6-3.1H24.1c-0.1,0-0.2-0.1-0.2-0.2c3.1-4.5,4.7-6.8,4.8-6.8h22.4v-0.1c-1.3-2.6-3.8-4.6-7.5-6.1
		c-2.6-0.9-5-1.3-7.1-1.3H24v-0.2C27,15.4,28.5,13.1,28.6,13.1z"/>
</g>
</svg>
