<?xml version="1.0" encoding="utf-8"?>
<!-- Generator: Adobe Illustrator 22.0.1, SVG Export Plug-In . SVG Version: 6.00 Build 0)  -->
<svg version="1.1" id="Layer_1" xmlns="http://www.w3.org/2000/svg" xmlns:xlink="http://www.w3.org/1999/xlink" x="0px" y="0px"
	 viewBox="0 0 100 100" style="enable-background:new 0 0 100 100;" xml:space="preserve">
<style type="text/css">
	.st0{fill:#FFFFFF;}
</style>
<g>
	<path class="st0" d="M1,83.1C1,85.8,3.1,88,5.7,88h88.7c2.6,0,4.7-2.2,4.7-4.9V16.9c0-2.7-2.1-4.9-4.7-4.9H5.7
		C3.1,12,1,14.2,1,16.9V83.1z M3.6,16.9c0-1.2,0.9-2.2,2-2.2h88.7c1.1,0,2.1,1,2.1,2.2v66.2c0,1.2-0.9,2.2-2.1,2.2H5.7
		c-1.1,0-2-1-2-2.2V16.9z"/>
	<path class="st0" d="M10.6,20.8h78.8c0.7,0,1.3-0.6,1.3-1.3c0-0.7-0.6-1.3-1.3-1.3H10.6c-0.7,0-1.3,0.6-1.3,1.3
		C9.3,20.2,9.9,20.8,10.6,20.8z"/>
	<path class="st0" d="M10.6,70.9h78.8c0.7,0,1.3-0.6,1.3-1.3c0-0.7-0.6-1.3-1.3-1.3H10.6c-0.7,0-1.3,0.6-1.3,1.3
		C9.3,70.3,9.9,70.9,10.6,70.9z"/>
	<path class="st0" d="M63.3,23.5c-1.5,0-2.8,1.3-2.8,2.8v38.4c0,0.7,0.6,1.3,1.3,1.3c0.7,0,1.3-0.6,1.3-1.3V26.3
		c0-0.1,0.1-0.2,0.2-0.2h7.9c0.1,0,0.2,0.1,0.2,0.2v38.4c0,0.7,0.6,1.3,1.3,1.3c0.7,0,1.3-0.6,1.3-1.3V26.3c0-1.5-1.3-2.8-2.8-2.8
		H63.3z"/>
	<path class="st0" d="M43.1,39.9c-1.5,0-2.8,1.3-2.8,2.8v22c0,0.7,0.6,1.3,1.3,1.3c0.7,0,1.3-0.6,1.3-1.3v-22c0-0.1,0.1-0.2,0.2-0.2
		H51c0.1,0,0.2,0.1,0.2,0.2v22c0,0.7,0.6,1.3,1.3,1.3c0.7,0,1.3-0.6,1.3-1.3v-22c0-1.5-1.3-2.8-2.8-2.8H43.1z"/>
	<path class="st0" d="M24.4,46.7c-1.5,0-2.8,1.2-2.8,2.8v15.2c0,0.7,0.6,1.3,1.3,1.3c0.7,0,1.3-0.6,1.3-1.3V49.5
		c0-0.1,0.1-0.2,0.2-0.2h7.9c0.1,0,0.2,0.1,0.2,0.2v15.2c0,0.7,0.6,1.3,1.3,1.3c0.7,0,1.3-0.6,1.3-1.3V49.5c0-1.5-1.3-2.8-2.8-2.8
		H24.4z"/>
	<path class="st0" d="M51.1,72.8c-3,0-5.4,2.4-5.4,5.4c0,3,2.4,5.4,5.4,5.4c3,0,5.4-2.4,5.4-5.4C56.5,75.2,54.1,72.8,51.1,72.8z
		 M51.1,80.9c-1.5,0-2.8-1.2-2.8-2.8c0-1.5,1.2-2.8,2.8-2.8c1.5,0,2.8,1.2,2.8,2.8C53.8,79.7,52.6,80.9,51.1,80.9z"/>
</g>
</svg>
