<?xml version="1.0" encoding="utf-8"?>
<!-- Generator: Adobe Illustrator 22.0.1, SVG Export Plug-In . SVG Version: 6.00 Build 0)  -->
<svg version="1.1" id="Layer_1" xmlns="http://www.w3.org/2000/svg" xmlns:xlink="http://www.w3.org/1999/xlink" x="0px" y="0px"
	 viewBox="0 0 100 100" style="enable-background:new 0 0 100 100;" xml:space="preserve">
<style type="text/css">
	.st0{fill:#FFFFFF;}
</style>
<g>
	<path class="st0" d="M48.3,45.7H61v0c-0.8,1.2-1.2,1.8-1.3,1.9h-3.4c0.5,0.5,0.8,1.2,1,2h3.6c0,0,0.1,0,0.1,0.1
		c-0.8,1.2-1.2,1.8-1.2,1.8h-2.4c-0.1,0.6-0.4,1.4-0.9,2.3c-0.7,0.9-1.4,1.5-2.1,1.7c-1.2,0.6-2.4,0.9-3.6,0.9v0
		c0,0.1,2.6,3.1,7.7,9.1h-3.4c-5-5.8-7.5-8.7-7.5-8.7V55l0-0.1c0.4,0.1,1,0.1,1.5,0.1c2.8,0,4.5-0.9,5.2-2.7
		c0.1-0.3,0.2-0.5,0.2-0.8H47c0,0-0.1,0-0.1-0.1c0.8-1.2,1.3-1.8,1.3-1.8h6v0c-0.3-0.7-1-1.2-2-1.6c-0.7-0.2-1.3-0.3-1.9-0.3H47
		v-0.1C47.8,46.3,48.2,45.7,48.3,45.7z"/>
</g>
<g>
	<path class="st0" d="M20.4,52.5c0-16.1,14.9-29.2,33.2-29.2c2,0,3.9,0.2,5.8,0.4c0,0,0,0,0,0c0-0.1-0.1-1.1,0.3-2.5
		c-2-0.3-4-0.5-6.1-0.5c-19.2,0-34.9,13.6-35.7,30.5h1.2C19.8,51.2,20.4,51.8,20.4,52.5z"/>
	<path class="st0" d="M63.3,80.4c-3.1,0.8-6.4,1.3-9.7,1.3c-4.3,0-8.5-0.7-12.3-2.1c-0.1,0.9-0.3,1.8-0.5,2.5
		c4,1.3,8.2,2.1,12.7,2.1c3.4,0,6.7-0.4,9.9-1.2C63.3,82.1,63.3,81.2,63.3,80.4z"/>
	<path class="st0" d="M85,61.6c-1.4,3.8-3.8,7.3-6.7,10.3c0.1,0.1,0.2,0.2,0.2,0.3c0.4,0.7,0.7,1.4,0.9,2.1c3.3-3,5.8-6.7,7.5-10.7
		C86.2,63.1,85.5,62.4,85,61.6z"/>
	<path class="st0" d="M75.4,30.5c4.4,3.4,7.8,7.8,9.7,12.8c0.5-0.8,1.2-1.5,2-2c-2.1-5-5.5-9.3-9.9-12.8
		C76.7,29.3,76.1,29.9,75.4,30.5z"/>
	<path class="st0" d="M27.7,71.9c0.2-0.2,0.5-0.3,0.8-0.4c-5-5.1-8.1-11.8-8.1-19.1c0,0.7-0.6,1.3-1.3,1.3h-1.2
		c0.3,7.5,3.6,14.3,8.8,19.6C27.2,72.4,27.6,72,27.7,71.9z"/>
	<path class="st0" d="M91.1,40.2c-1.5,0-2.9,0.4-4.1,1.2c-0.8,0.5-1.5,1.2-2,2c-0.5,0.8-0.8,1.8-0.8,2.8v12.7c0,1,0.3,2,0.8,2.8
		c0.5,0.8,1.2,1.5,2,2c1.1,0.7,2.5,1.2,4.1,1.2c3.8,0,6.8-2.7,6.8-6v-3c0,0.7-0.6,1.3-1.3,1.3h-1.3v1.7c0,1.9-1.9,3.4-4.3,3.4
		c-2.4,0-4.3-1.5-4.3-3.4V46.2c0-1.9,1.9-3.4,4.3-3.4c2.4,0,4.3,1.5,4.3,3.4v1.5h1.3c0.7,0,1.3,0.6,1.3,1.3v-2.8
		C97.9,42.9,94.8,40.2,91.1,40.2z"/>
	<path class="st0" d="M96.6,50.2h-1.3v4.3h1.3c0.7,0,1.3,0.6,1.3,1.3v-6.9C97.9,49.6,97.3,50.2,96.6,50.2z"/>
	<path class="st0" d="M71.7,35.1c-4,0-7.2,3.2-7.2,7.2c0,0.7,0.6,1.3,1.3,1.3c0.7,0,1.3-0.6,1.3-1.3c0-2.6,2.1-4.7,4.7-4.7
		c2.6,0,4.7,2.1,4.7,4.7c0,0.7,0.6,1.3,1.3,1.3c0.7,0,1.3-0.6,1.3-1.3C78.9,38.4,75.7,35.1,71.7,35.1z"/>
	<path class="st0" d="M59.3,23.7C59.3,23.7,59.3,23.7,59.3,23.7c0.1,0.7,0.7,1.2,1.4,1.1c0.2,0,0.5-0.1,0.6-0.3
		c0.3-0.3,0.5-0.7,0.5-1.1c0-0.1-0.5-6.5,11.3-8.5c-1.1,3-1.5,7.2,1.8,10.6c0.1,0.1,0.3,0.5,0.1,1.1c-0.2,0.8-1.4,2.9-7.7,5.2
		c-0.1,0-0.2,0.1-0.3,0.2c-0.4,0.3-0.6,0.9-0.4,1.5c0.2,0.5,0.7,0.8,1.2,0.8c0.1,0,0.3,0,0.4-0.1c3.1-1.2,5.5-2.4,7.1-3.8
		c0.7-0.6,1.3-1.3,1.7-1.9c0.3-0.4,0.4-0.9,0.6-1.3c0.5-2-0.6-3.3-0.7-3.4c0,0,0,0-0.1-0.1c-4.1-4.1-0.5-9.5-0.4-9.8
		c0.3-0.4,0.3-0.9,0-1.4c-0.3-0.4-0.7-0.7-1.2-0.6c-11.6,1.2-14.8,6.1-15.7,9.1C59.2,22.6,59.3,23.6,59.3,23.7z"/>
	<path class="st0" d="M96.6,47.6h-1.3h-4.3c-0.7,0-1.3,0.6-1.3,1.3c0,0.7,0.6,1.3,1.3,1.3h4.3h1.3c0.7,0,1.3-0.6,1.3-1.3
		C97.9,48.2,97.3,47.6,96.6,47.6z"/>
	<path class="st0" d="M96.6,54.5h-1.3h-4.3c-0.7,0-1.3,0.6-1.3,1.3c0,0.7,0.6,1.3,1.3,1.3h4.3h1.3c0.7,0,1.3-0.6,1.3-1.3
		C97.9,55.1,97.3,54.5,96.6,54.5z"/>
	<path class="st0" d="M20.4,52.5c0-0.7-0.6-1.3-1.3-1.3h-1.2H8.7c-2.3,0-4.1-1.8-4.1-4.1c0-2.3,1.8-4.1,4.1-4.1h5
		c3.7,0,6.6-3,6.6-6.6c0-3.7-3-6.6-6.6-6.6H3.4c-0.7,0-1.3,0.6-1.3,1.3c0,0.7,0.6,1.3,1.3,1.3h10.4c2.3,0,4.1,1.8,4.1,4.1
		c0,2.3-1.8,4.1-4.1,4.1H8.6c0,0-0.1,0-0.1,0c-3.5,0.1-6.4,3.1-6.4,6.6c0,3.7,3,6.6,6.6,6.6h9.1h1.2C19.8,53.8,20.4,53.2,20.4,52.5z
		"/>
	<path class="st0" d="M41.3,79.6c0.2-2.3-0.1-4.9-1.5-7.4c-0.3-0.6-1.1-0.8-1.7-0.5c-0.4,0.2-0.6,0.7-0.6,1.1c0,0.2,0,0.4,0.2,0.6
		c2.7,4.8,0.1,10.2-0.8,11.9h-9.1c-1.6-7.9,1.7-11.5,1.9-11.6c0.2-0.2,0.4-0.6,0.4-0.9c0-0.3-0.1-0.6-0.4-0.9
		c-0.3-0.3-0.7-0.4-1.1-0.4c-0.3,0-0.5,0.1-0.8,0.4c-0.1,0.1-0.5,0.5-1.1,1.4c-1.3,2.1-3.1,6.6-1.3,13.6c0.1,0.6,0.7,1,1.2,1h10.9
		c0.4,0,0.8-0.2,1.1-0.6c0.1-0.2,1.5-2.2,2.3-5.2C41,81.4,41.2,80.5,41.3,79.6z"/>
	<path class="st0" d="M78.5,72.2c-0.1-0.1-0.1-0.2-0.2-0.3c-0.4-0.4-1-0.5-1.5-0.2c-0.5,0.3-0.7,0.8-0.6,1.3c0,0.2,0.1,0.3,0.1,0.4
		c2.7,4.8,0.1,10.2-0.8,11.9h-9.1c-1.3-6.8,0.4-10,0.5-10.1C67,75,67,74.7,67,74.4c-0.1-0.4-0.3-0.7-0.6-0.9
		c-0.6-0.4-1.4-0.2-1.8,0.4c-0.1,0.1-1.3,2.2-1.3,6.5c0,0.8,0,1.7,0.1,2.6c0.1,1.2,0.3,2.5,0.6,3.9c0.1,0.6,0.7,1,1.2,1h10.9
		c0.4,0,0.8-0.2,1.1-0.6c0.2-0.3,4.4-6.6,2.2-13C79.2,73.6,78.9,72.9,78.5,72.2z"/>
	<path class="st0" d="M52.3,29.7c1.3,0.1,2.7,0.3,4.1,0.7c0.7,0.2,1.4-0.2,1.6-0.9c0.2-0.7-0.2-1.4-0.9-1.6
		c-9.2-2.8-17.4,1.7-17.7,1.9c-0.6,0.3-0.8,1.1-0.5,1.7c0.2,0.4,0.7,0.7,1.1,0.7c0.2,0,0.4-0.1,0.6-0.2c0,0,1.7-0.9,4.4-1.7
		C47,29.9,49.6,29.5,52.3,29.7z"/>
</g>
</svg>
