<?xml version="1.0" encoding="utf-8"?>
<!-- Generator: Adobe Illustrator 22.1.0, SVG Export Plug-In . SVG Version: 6.00 Build 0)  -->
<svg version="1.1" id="Layer_1" xmlns="http://www.w3.org/2000/svg" xmlns:xlink="http://www.w3.org/1999/xlink" x="0px" y="0px"
	 viewBox="0 0 100 100" style="enable-background:new 0 0 100 100;" xml:space="preserve">
<style type="text/css">
	.st0{fill:#FFFFFF;}
</style>
<g>
	<g>
		<path class="st0" d="M21.3,52.3C21.3,36.7,35.7,24,53.5,24c1.9,0,3.7,0.2,5.6,0.4l0,0c0-0.1-0.1-1.1,0.3-2.4
			c-1.9-0.3-3.9-0.4-5.9-0.4c-18.7,0-33.9,13.1-34.6,29.6h1.2C20.7,51.1,21.3,51.7,21.3,52.3z"/>
		<path class="st0" d="M63,79.4c-3,0.8-6.1,1.2-9.5,1.2c-4.2,0-8.2-0.7-11.9-2c-0.1,0.8-0.2,1.7-0.5,2.5c3.8,1.3,8,2,12.4,2
			c3.3,0,6.6-0.4,9.5-1.2C63,81.1,62.9,80.2,63,79.4z"/>
		<path class="st0" d="M84,61.2c-1.4,3.7-3.7,7.1-6.6,10c0.1,0.1,0.2,0.2,0.2,0.2c0.4,0.7,0.7,1.4,0.9,2.1c3.2-3,5.6-6.5,7.3-10.4
			C85.1,62.6,84.5,62,84,61.2z"/>
		<path class="st0" d="M74.7,31c4.3,3.3,7.6,7.6,9.4,12.5c0.5-0.7,1.1-1.4,1.9-1.9c-2.1-4.8-5.4-9.1-9.6-12.4
			C75.9,29.8,75.3,30.4,74.7,31z"/>
		<path class="st0" d="M28.3,71.2c0.2-0.2,0.5-0.3,0.7-0.3c-4.9-5-7.8-11.5-7.8-18.5c0,0.7-0.6,1.2-1.2,1.2h-1.2
			c0.3,7.2,3.5,13.9,8.6,19C27.8,71.7,28.3,71.3,28.3,71.2z"/>
		<path class="st0" d="M89.9,40.4c-1.5,0-2.8,0.4-4,1.2c-0.7,0.5-1.4,1.2-1.9,1.9c-0.5,0.8-0.7,1.7-0.7,2.7v12.3
			c0,1,0.2,1.9,0.7,2.7c0.5,0.7,1.1,1.4,1.9,1.9c1.1,0.7,2.5,1.2,4,1.2c3.7,0,6.6-2.6,6.6-5.8v-2.9c0,0.7-0.6,1.2-1.2,1.2H94v1.7
			c0,1.8-1.8,3.3-4.2,3.3c-2.3,0-4.2-1.5-4.2-3.3V46.2c0-1.8,1.8-3.3,4.2-3.3c2.3,0,4.2,1.5,4.2,3.3v1.4h1.2c0.7,0,1.2,0.6,1.2,1.2
			v-2.7C96.5,43,93.5,40.4,89.9,40.4z"/>
		<path class="st0" d="M95.3,50.1H94v4.2h1.2c0.7,0,1.2,0.6,1.2,1.2v-6.7C96.5,49.6,95.9,50.1,95.3,50.1z"/>
		<path class="st0" d="M71.1,35.5c-3.9,0-7.1,3.2-7.1,7.1c0,0.7,0.6,1.2,1.2,1.2s1.2-0.6,1.2-1.2c0-2.5,2.1-4.6,4.6-4.6
			s4.6,2.1,4.6,4.6c0,0.7,0.6,1.2,1.2,1.2s1.2-0.6,1.2-1.2C78.1,38.6,74.9,35.5,71.1,35.5z"/>
		<path class="st0" d="M59.1,24.4L59.1,24.4c0.1,0.7,0.7,1.2,1.3,1.1c0.2,0,0.4-0.1,0.7-0.2c0.3-0.2,0.5-0.7,0.5-1.1
			c0-0.1-0.5-6.3,11-8.2c-1.1,2.9-1.5,7.1,1.7,10.3c0.1,0.1,0.3,0.5,0.1,1.1c-0.2,0.7-1.4,2.8-7.5,5.1c-0.1,0.1-0.2,0.1-0.3,0.2
			c-0.4,0.3-0.6,0.9-0.4,1.4s0.7,0.8,1.2,0.8c0.2,0,0.2,0,0.4-0.1c3.1-1.2,5.3-2.3,6.9-3.7c0.7-0.6,1.2-1.2,1.7-1.9
			c0.2-0.4,0.4-0.8,0.6-1.2c0.5-1.9-0.5-3.2-0.7-3.3c0,0,0-0.1-0.1-0.1c-4-3.9-0.6-9.2-0.4-9.5c0.2-0.4,0.2-0.9,0-1.3
			c-0.2-0.4-0.7-0.7-1.2-0.6c-11.3,1.2-14.4,5.9-15.3,8.8C59,23.3,59.1,24.3,59.1,24.4z"/>
		<path class="st0" d="M95.3,47.6H94h-4.2c-0.7,0-1.2,0.6-1.2,1.2s0.6,1.2,1.2,1.2H94h1.2c0.7,0,1.2-0.6,1.2-1.2
			C96.5,48.2,95.9,47.6,95.3,47.6z"/>
		<path class="st0" d="M95.3,54.3H94h-4.2c-0.7,0-1.2,0.6-1.2,1.2s0.6,1.2,1.2,1.2H94h1.2c0.7,0,1.2-0.6,1.2-1.2
			S95.9,54.3,95.3,54.3z"/>
		<path class="st0" d="M21.3,52.3c0-0.7-0.6-1.2-1.2-1.2h-1.2H10c-2.2,0-4-1.7-4-4c0-2.2,1.7-4,4-4h4.9c3.6,0,6.5-2.9,6.5-6.5
			c0-3.6-2.9-6.5-6.5-6.5H4.7c-0.7,0.1-1.2,0.7-1.2,1.3c0,0.7,0.6,1.2,1.2,1.2h10c2.2,0,4,1.7,4,4c0,2.2-1.7,4-4,4h-5H9.7
			c-3.5,0.2-6.2,3-6.2,6.4c0,3.6,2.9,6.5,6.5,6.5h8.9h1.2C20.7,53.6,21.3,53,21.3,52.3z"/>
		<path class="st0" d="M41.5,78.7c0.2-2.2-0.1-4.7-1.4-7.2c-0.3-0.6-1.1-0.8-1.7-0.5c-0.4,0.2-0.7,0.7-0.7,1.1
			c0,0.2,0.1,0.4,0.2,0.6c2.7,4.7,0.2,9.9-0.8,11.5h-8.9c-1.6-7.6,1.7-11.1,1.8-11.3c0.2-0.2,0.3-0.6,0.3-0.9c0-0.3-0.1-0.7-0.3-0.8
			c-0.2-0.2-0.7-0.4-1-0.3c-0.2,0-0.5,0.2-0.7,0.3c-0.1,0.1-0.5,0.5-1,1.4c-1.2,2.1-3,6.4-1.2,13.2c0.2,0.6,0.7,0.9,1.2,0.9h10.5
			c0.4,0,0.8-0.2,1-0.6c0.1-0.2,1.5-2.2,2.2-5.1C41.3,80.4,41.4,79.6,41.5,78.7z"/>
		<path class="st0" d="M77.7,71.5c-0.1-0.1-0.2-0.2-0.2-0.2c-0.4-0.3-1-0.5-1.5-0.2c-0.5,0.2-0.7,0.7-0.6,1.2c0,0.2,0.1,0.2,0.2,0.4
			c2.7,4.7,0.2,9.9-0.8,11.5h-8.9c-1.2-6.6,0.4-9.7,0.5-9.8c0.2-0.2,0.2-0.6,0.2-0.8c-0.1-0.3-0.2-0.7-0.6-0.9
			c-0.6-0.3-1.3-0.2-1.7,0.4c-0.1,0.1-1.2,2.2-1.3,6.3c0,0.7,0,1.6,0.1,2.6c0.1,1.2,0.3,2.4,0.6,3.8c0.2,0.6,0.7,1,1.2,1h10.5
			c0.4,0,0.8-0.2,1-0.6c0.2-0.2,4.2-6.4,2.2-12.6C78.4,72.8,78.1,72.2,77.7,71.5z"/>
		<path class="st0" d="M52.2,30.2c1.3,0.1,2.7,0.3,4,0.7c0.7,0.2,1.3-0.2,1.6-0.8c0.2-0.7-0.2-1.3-0.8-1.6
			c-8.9-2.7-16.9,1.7-17.2,1.9c-0.6,0.3-0.8,1.1-0.5,1.7c0.2,0.4,0.7,0.7,1.1,0.7c0.2,0,0.4-0.1,0.6-0.2c0,0,1.7-0.9,4.2-1.6
			C47.1,30.5,49.6,30.1,52.2,30.2z"/>
	</g>
	<g>
		<path class="st0" d="M44.4,42.6h15l0,0c-0.9,1.3-1.4,2.1-1.5,2.2h-4c0.6,0.7,0.9,1.4,1.2,2.3h4.2c0.1,0,0.1,0,0.1,0.1
			c-1,1.4-1.4,2.2-1.5,2.2h-2.7c-0.1,0.7-0.4,1.7-1.1,2.7c-0.8,1.1-1.7,1.7-2.4,2.1c-1.5,0.7-2.8,1.1-4.2,1.1l0,0
			c0,0.1,3,3.7,9.1,10.7h-4.1c-5.9-6.8-8.8-10.2-8.8-10.3v-2.1v-0.1c0.5,0.1,1.2,0.1,1.8,0.1c3.3,0,5.3-1.1,6.1-3.2
			c0.2-0.3,0.2-0.7,0.2-1h-8.9c-0.1,0-0.1,0-0.1-0.1c1-1.4,1.5-2.2,1.5-2.2h7.1l0,0c-0.4-0.8-1.2-1.5-2.3-1.9
			c-0.8-0.2-1.6-0.4-2.2-0.4h-4v-0.1C43.9,43.4,44.4,42.6,44.4,42.6z"/>
	</g>
</g>
</svg>
