<?xml version="1.0" encoding="utf-8"?>
<!-- Generator: Adobe Illustrator 22.0.1, SVG Export Plug-In . SVG Version: 6.00 Build 0)  -->
<svg version="1.1" id="Layer_1" xmlns="http://www.w3.org/2000/svg" xmlns:xlink="http://www.w3.org/1999/xlink" x="0px" y="0px"
	 viewBox="0 0 130 130" style="enable-background:new 0 0 130 130;" xml:space="preserve">
<style type="text/css">
	.st0{fill:#212E5C;}
</style>
<g>
	<g>
		<path class="st0" d="M30.4,67.9c0-18.8,17.4-34.1,38.8-34.1c2.3,0,4.5,0.2,6.7,0.5c0,0,0,0,0,0c0-0.1-0.1-1.3,0.4-2.9
			c-2.3-0.4-4.7-0.5-7.1-0.5c-22.5,0-40.8,15.8-41.7,35.6h1.5C29.7,66.4,30.4,67.1,30.4,67.9z"/>
		<path class="st0" d="M80.6,100.5c-3.6,1-7.4,1.5-11.4,1.5c-5.1,0-9.9-0.9-14.3-2.4c-0.1,1-0.3,2-0.6,3c4.6,1.6,9.6,2.4,14.9,2.4
			c4,0,7.9-0.5,11.5-1.4C80.6,102.5,80.5,101.5,80.6,100.5z"/>
		<path class="st0" d="M106,78.6c-1.7,4.5-4.4,8.5-7.9,12c0.1,0.1,0.2,0.2,0.3,0.3c0.5,0.8,0.8,1.7,1.1,2.5
			c3.8-3.6,6.8-7.8,8.8-12.5C107.3,80.3,106.5,79.5,106,78.6z"/>
		<path class="st0" d="M94.7,42.2c5.2,4,9.1,9.1,11.3,15c0.6-0.9,1.3-1.7,2.3-2.3c-2.5-5.8-6.5-10.9-11.6-14.9
			C96.2,40.8,95.5,41.5,94.7,42.2z"/>
		<path class="st0" d="M38.9,90.6c0.2-0.2,0.6-0.4,0.9-0.4c-5.9-6-9.4-13.8-9.4-22.3c0,0.8-0.7,1.5-1.5,1.5h-1.5
			c0.4,8.7,4.2,16.7,10.3,22.9C38.3,91.2,38.9,90.7,38.9,90.6z"/>
		<path class="st0" d="M113,53.5c-1.8,0-3.4,0.5-4.8,1.4c-0.9,0.6-1.7,1.4-2.3,2.3c-0.6,1-0.9,2.1-0.9,3.3v14.8
			c0,1.2,0.3,2.3,0.9,3.3c0.6,0.9,1.3,1.7,2.3,2.3c1.3,0.9,3,1.4,4.8,1.4c4.4,0,8-3.1,8-7v-3.5c0,0.8-0.7,1.5-1.5,1.5H118v2
			c0,2.2-2.2,4-5,4c-2.8,0-5-1.8-5-4V60.5c0-2.2,2.2-4,5-4c2.8,0,5,1.8,5,4v1.7h1.5c0.8,0,1.5,0.7,1.5,1.5v-3.2
			C121,56.7,117.4,53.5,113,53.5z"/>
		<path class="st0" d="M119.5,65.2H118v5.1h1.5c0.8,0,1.5,0.7,1.5,1.5v-8.1C121,64.6,120.3,65.2,119.5,65.2z"/>
		<path class="st0" d="M90.4,47.6c-4.7,0-8.5,3.8-8.5,8.5c0,0.8,0.7,1.5,1.5,1.5c0.8,0,1.5-0.7,1.5-1.5c0-3,2.5-5.5,5.5-5.5
			c3,0,5.5,2.5,5.5,5.5c0,0.8,0.7,1.5,1.5,1.5c0.8,0,1.5-0.7,1.5-1.5C98.8,51.4,95,47.6,90.4,47.6z"/>
		<path class="st0" d="M75.9,34.3C75.9,34.3,75.9,34.3,75.9,34.3c0.1,0.8,0.8,1.4,1.6,1.3c0.3,0,0.5-0.1,0.8-0.3
			c0.4-0.3,0.6-0.8,0.6-1.3c0-0.1-0.6-7.6,13.3-9.9c-1.3,3.5-1.8,8.5,2.1,12.4c0.1,0.1,0.4,0.6,0.1,1.3c-0.3,0.9-1.7,3.4-9,6.1
			c-0.1,0.1-0.3,0.1-0.4,0.2c-0.5,0.4-0.7,1.1-0.5,1.7c0.2,0.6,0.8,1,1.4,1c0.2,0,0.3,0,0.5-0.1c3.7-1.4,6.4-2.8,8.3-4.4
			c0.8-0.7,1.5-1.5,2-2.3c0.3-0.5,0.5-1,0.7-1.5c0.6-2.3-0.6-3.8-0.8-4c0,0,0-0.1-0.1-0.1C91.7,29.7,95.8,23.3,96,23
			c0.3-0.5,0.3-1.1,0-1.6c-0.3-0.5-0.9-0.8-1.4-0.7C81,22.1,77.3,27.8,76.2,31.3C75.8,32.9,75.9,34.1,75.9,34.3z"/>
		<path class="st0" d="M119.5,62.2H118h-5c-0.8,0-1.5,0.7-1.5,1.5c0,0.8,0.7,1.5,1.5,1.5h5h1.5c0.8,0,1.5-0.7,1.5-1.5
			C121,62.9,120.3,62.2,119.5,62.2z"/>
		<path class="st0" d="M119.5,70.3H118h-5c-0.8,0-1.5,0.7-1.5,1.5c0,0.8,0.7,1.5,1.5,1.5h5h1.5c0.8,0,1.5-0.7,1.5-1.5
			C121,71,120.3,70.3,119.5,70.3z"/>
		<path class="st0" d="M30.4,67.9c0-0.8-0.7-1.5-1.5-1.5h-1.5H16.8c-2.6,0-4.8-2.1-4.8-4.8c0-2.6,2.1-4.8,4.8-4.8h5.9
			c4.3,0,7.8-3.5,7.8-7.8c0-4.3-3.5-7.8-7.8-7.8H10.5C9.7,41.3,9,42,9,42.8c0,0.8,0.7,1.5,1.5,1.5h12.1c2.6,0,4.8,2.1,4.8,4.8
			c0,2.6-2.1,4.8-4.8,4.8h-6c0,0-0.1,0-0.1,0C12.3,54.1,9,57.5,9,61.6c0,4.3,3.5,7.8,7.8,7.8h10.7h1.5
			C29.7,69.4,30.4,68.7,30.4,67.9z"/>
		<path class="st0" d="M54.8,99.6c0.3-2.7-0.1-5.7-1.7-8.7c-0.4-0.7-1.3-1-2-0.6c-0.5,0.3-0.8,0.8-0.8,1.3c0,0.2,0.1,0.5,0.2,0.7
			c3.2,5.6,0.2,11.9-1,13.9H38.8c-1.9-9.2,2-13.4,2.2-13.6c0.3-0.3,0.4-0.7,0.4-1.1c0-0.4-0.1-0.8-0.4-1c-0.3-0.3-0.8-0.5-1.2-0.4
			c-0.3,0-0.6,0.2-0.9,0.4c-0.1,0.1-0.6,0.6-1.2,1.7c-1.5,2.5-3.6,7.7-1.5,15.9c0.2,0.7,0.8,1.1,1.4,1.1h12.7c0.5,0,1-0.2,1.2-0.7
			c0.1-0.2,1.8-2.6,2.7-6.1C54.5,101.7,54.7,100.7,54.8,99.6z"/>
		<path class="st0" d="M98.4,91c-0.1-0.1-0.2-0.2-0.3-0.3c-0.5-0.4-1.2-0.6-1.8-0.2c-0.6,0.3-0.8,0.9-0.7,1.5c0,0.2,0.1,0.3,0.2,0.5
			c3.2,5.6,0.2,11.9-1,13.9H84.1c-1.5-8,0.5-11.7,0.6-11.8c0.2-0.3,0.2-0.7,0.2-1c-0.1-0.4-0.3-0.8-0.7-1.1
			c-0.7-0.4-1.6-0.2-2.1,0.5c-0.1,0.1-1.5,2.6-1.6,7.6c0,0.9,0,1.9,0.1,3.1c0.1,1.4,0.4,2.9,0.7,4.6c0.2,0.7,0.8,1.2,1.5,1.2h12.7
			c0.5,0,1-0.2,1.2-0.7c0.2-0.3,5.1-7.7,2.6-15.2C99.2,92.6,98.8,91.8,98.4,91z"/>
		<path class="st0" d="M67.7,41.3c1.6,0.1,3.2,0.4,4.8,0.9c0.8,0.2,1.6-0.2,1.9-1c0.2-0.8-0.2-1.6-1-1.9c-10.7-3.2-20.3,2-20.7,2.3
			c-0.7,0.4-1,1.3-0.6,2c0.3,0.5,0.8,0.8,1.3,0.8c0.2,0,0.5-0.1,0.7-0.2c0,0,2-1.1,5.1-1.9C61.5,41.6,64.5,41.1,67.7,41.3z"/>
	</g>
	<g>
		<path class="st0" d="M58.2,56.2h18.1v0c-1.1,1.6-1.7,2.5-1.8,2.6h-4.8c0.7,0.8,1.1,1.7,1.4,2.8h5.1c0.1,0,0.1,0,0.1,0.1
			c-1.2,1.7-1.7,2.6-1.8,2.6h-3.3c-0.1,0.9-0.5,2-1.3,3.2c-1,1.3-2,2.1-2.9,2.5c-1.8,0.8-3.4,1.3-5,1.3v0c0,0.1,3.6,4.4,10.9,12.9
			H68C60.9,76,57.4,71.9,57.4,71.8v-2.5l0-0.1c0.6,0.1,1.4,0.1,2.2,0.1c4,0,6.4-1.3,7.4-3.8c0.2-0.4,0.2-0.8,0.2-1.2H56.5
			c-0.1,0-0.1,0-0.1-0.1c1.2-1.7,1.8-2.6,1.8-2.6h8.5v0c-0.5-1-1.4-1.8-2.8-2.3c-1-0.3-1.9-0.5-2.7-0.5h-4.8v-0.1
			C57.6,57.1,58.2,56.2,58.2,56.2z"/>
	</g>
</g>
</svg>
