<?xml version="1.0" encoding="utf-8"?>
<!-- Generator: Adobe Illustrator 22.0.1, SVG Export Plug-In . SVG Version: 6.00 Build 0)  -->
<svg version="1.1" id="Layer_1" xmlns="http://www.w3.org/2000/svg" xmlns:xlink="http://www.w3.org/1999/xlink" x="0px" y="0px"
	 viewBox="0 0 130 130" style="enable-background:new 0 0 130 130;" xml:space="preserve">
<style type="text/css">
	.st0{fill:#20295C;}
</style>
<g>
	<path class="st0" d="M51.9,96.4c-4.9,0-9.7-1.9-13.5-5.6c-3.6-3.6-5.6-8.4-5.6-13.5c0-5.1,2-9.9,5.6-13.5c7.4-7.4,19.5-7.4,26.9,0
		c3.6,3.6,5.6,8.4,5.6,13.5c0,5.1-2,9.9-5.6,13.5C61.6,94.6,56.8,96.4,51.9,96.4z M51.9,60.3c-4.4,0-8.8,1.7-12.1,5
		c-3.2,3.2-5,7.5-5,12.1s1.8,8.9,5,12.1c6.7,6.7,17.6,6.7,24.2,0c3.2-3.2,5-7.5,5-12.1s-1.8-8.9-5-12.1l0,0
		C60.7,62,56.3,60.3,51.9,60.3z M51.9,93.3c-4.2,0-8.2-1.6-11.2-4.6c-3-3-4.6-7-4.6-11.2s1.6-8.2,4.6-11.2c6.2-6.2,16.2-6.2,22.4,0
		c3,3,4.6,7,4.6,11.2s-1.6,8.2-4.6,11.2C60.1,91.6,56.1,93.3,51.9,93.3z M51.9,63.5c-3.6,0-7.1,1.4-9.9,4.1
		c-2.6,2.6-4.1,6.1-4.1,9.9c0,3.7,1.4,7.2,4.1,9.9c2.6,2.6,6.1,4.1,9.9,4.1c3.7,0,7.2-1.4,9.9-4.1v0c2.6-2.6,4.1-6.1,4.1-9.9
		c0-3.7-1.4-7.2-4.1-9.9C59,64.8,55.5,63.5,51.9,63.5z"/>
	<path class="st0" d="M86.6,120c-1,0-2-0.4-2.8-1.1l-15.4-15.4c-0.7-0.7-1.1-1.7-1.1-2.8c0-0.9,0.3-1.7,0.8-2.3l-6-6l1.3-1.3
		l6.6,6.6c0.2,0.2,0.3,0.4,0.3,0.7c0,0.2-0.1,0.5-0.3,0.7l-0.3,0.3c-0.8,0.8-0.8,2.1,0,2.9l15.4,15.4c0.4,0.4,0.9,0.6,1.4,0.6
		c0.5,0,1.1-0.2,1.4-0.6l3.9-3.9c0.8-0.8,0.8-2.1,0-2.9L76.5,95.3c-0.8-0.8-2.1-0.8-2.9,0l-0.3,0.3c-0.2,0.2-0.4,0.3-0.7,0.3
		c-0.2,0-0.5-0.1-0.7-0.3L65.5,89l1.3-1.3l6,6c1.5-1.1,3.7-1,5.1,0.4l15.4,15.4c1.5,1.5,1.5,4,0,5.5l-3.9,3.9
		C88.6,119.6,87.7,120,86.6,120z"/>
	<g>
		<path class="st0" d="M75,22.1H56.4c-4.7,0-8.5-3.8-8.5-8.5v-1.5c0-1.2,0.9-2.1,2.1-2.1h31.6c1.2,0,2.1,0.9,2.1,2.1v1.5
			C83.6,18.3,79.8,22.1,75,22.1z M49.9,11.9c-0.1,0-0.2,0.1-0.2,0.2v1.5c0,3.7,3,6.7,6.7,6.7H75c3.7,0,6.7-3,6.7-6.7v-1.5
			c0-0.1-0.1-0.2-0.2-0.2H49.9z"/>
		<path class="st0" d="M70,104.6H36.3c-1.1,0-2.1-0.9-2.1-2.1V84.2h1.9v18.4c0,0.1,0.1,0.2,0.2,0.2H70V104.6z"/>
		<path class="st0" d="M95.1,104.6h-8.8v-1.9h8.8c0.1,0,0.2-0.1,0.2-0.2V16.1c0-0.1-0.1-0.2-0.2-0.2h-9.8V14h9.8
			c1.1,0,2.1,0.9,2.1,2.1v86.5C97.1,103.7,96.2,104.6,95.1,104.6z"/>
		<path class="st0" d="M36.1,70.6h-1.9V16.1c0-1.1,0.9-2.1,2.1-2.1h9.9v1.9h-9.9c-0.1,0-0.2,0.1-0.2,0.2V70.6z"/>
	</g>
	<g>
		<polygon class="st0" points="50.2,40.5 45.4,34.9 46.9,33.7 50.2,37.5 58,27.2 59.5,28.4 		"/>
		<rect x="65.9" y="30.6" class="st0" width="19.2" height="1.9"/>
		<rect x="65.9" y="37.1" class="st0" width="9.6" height="1.9"/>

			<rect x="48.9" y="53.5" transform="matrix(0.6074 -0.7944 0.7944 0.6074 -21.6592 65.0912)" class="st0" width="12.4" height="1.9"/>
		<rect x="46.7" y="55.5" transform="matrix(0.7582 -0.652 0.652 0.7582 -26.1673 45.0516)" class="st0" width="1.9" height="4.6"/>
		<rect x="65.9" y="52.4" class="st0" width="19.2" height="1.9"/>
		<rect x="65.9" y="58.9" class="st0" width="9.6" height="1.9"/>
		<polygon class="st0" points="50.2,84 45.4,78.4 46.9,77.2 50.2,81 58,70.7 59.5,71.9 		"/>
		<rect x="69.8" y="74.1" class="st0" width="15.4" height="1.9"/>
		<rect x="65.9" y="74.1" class="st0" width="0.6" height="1.9"/>
		<rect x="69.5" y="80.7" class="st0" width="6.1" height="1.9"/>
		<rect x="65.9" y="80.7" class="st0" width="0.2" height="1.9"/>
	</g>
</g>
</svg>
