<?xml version="1.0" encoding="utf-8"?>
<!-- Generator: Adobe Illustrator 22.0.1, SVG Export Plug-In . SVG Version: 6.00 Build 0)  -->
<svg version="1.1" id="Layer_1" xmlns="http://www.w3.org/2000/svg" xmlns:xlink="http://www.w3.org/1999/xlink" x="0px" y="0px"
	 viewBox="0 0 130 130" style="enable-background:new 0 0 130 130;" xml:space="preserve">
<style type="text/css">
	.st0{fill:#212E5C;}
</style>
<path id="_x30_" class="st0" d="M119.2,62.9C107.4,52.2,85,38.6,65.3,38.6c-19.7,0-42.4,13.4-54.4,23.9c-1,0.9-1.2,2.4-0.3,3.5
	c6.7,8.4,27,25.4,54.7,25.4c23.3,0,44.3-12.6,54.2-25.1C120.3,65.3,120.2,63.8,119.2,62.9z M65,83.8c-10.3,0-18.8-8.4-18.8-18.8
	c0-10.3,8.4-18.8,18.8-18.8c10.3,0,18.8,8.4,18.8,18.8C83.8,75.3,75.3,83.8,65,83.8z M16.2,64.7c9.7-7.7,22.4-15.2,34.5-18.7
	c-13.2,9.9-12.6,29.8,1.2,39C38,81.9,25.1,74.1,16.2,64.7z M77.9,85.1C92,76,92.6,55.7,79.1,45.8C91.4,49.3,104.2,57,113.9,65
	C105.1,74.4,92.1,82.2,77.9,85.1z M65,52.3c-7,0-12.7,5.7-12.7,12.7S58,77.7,65,77.7S77.7,72,77.7,65S72,52.3,65,52.3z M73.3,59.5
	L68,63c-0.4-0.6-1-1.1-1.8-1.4l2.2-5.9C70.5,56.4,72.2,57.7,73.3,59.5z"/>
</svg>
