<?xml version="1.0" encoding="utf-8"?>
<!-- Generator: Adobe Illustrator 22.1.0, SVG Export Plug-In . SVG Version: 6.00 Build 0)  -->
<svg version="1.1" id="Layer_1" xmlns="http://www.w3.org/2000/svg" xmlns:xlink="http://www.w3.org/1999/xlink" x="0px" y="0px"
	 viewBox="0 0 130 130" style="enable-background:new 0 0 130 130;" xml:space="preserve">
<style type="text/css">
	.st0{fill:#20295C;}
</style>
<g>
	<path class="st0" d="M64.7,19.1c14.4,0,27,4.1,39.6,10.6c0.9,0.5,1.4,1.2,1.6,2.2c2.1,16.4,1.7,32.8-5.9,48
		c-7.4,14.8-19.2,23.9-33.8,30.8c-0.8,0.4-1.7,0.4-2.5,0c-14.6-6.8-26.4-16-33.8-30.8c-7.5-15.2-8-31.5-5.9-48
		c0.1-1,0.7-1.7,1.5-2.2C38.1,23,50.3,19,64.7,19.1L64.7,19.1z M64.7,25.2c-11.6,0-23.2,3-34.7,9.1c-2.1,16.8-0.3,31.1,5.5,42.8
		c5.8,11.6,15.6,20.7,29.5,27.3c13.9-6.6,23.7-15.7,29.5-27.3c5.8-11.7,7.6-25.9,5.5-42.8C88.1,28.3,76.3,25.3,64.7,25.2L64.7,25.2z
		"/>
	<polygon class="st0" points="52.7,57.1 61,65.3 78.4,44.1 85.5,50 61.8,79 46.2,63.7 	"/>
</g>
</svg>
