<?xml version="1.0" encoding="utf-8"?>
<!-- Generator: Adobe Illustrator 22.0.1, SVG Export Plug-In . SVG Version: 6.00 Build 0)  -->
<svg version="1.1" id="Layer_1" xmlns="http://www.w3.org/2000/svg" xmlns:xlink="http://www.w3.org/1999/xlink" x="0px" y="0px"
	 viewBox="0 0 100 100" style="enable-background:new 0 0 100 100;" xml:space="preserve">
<style type="text/css">
	.st0{fill:none;stroke:#FFFFFF;stroke-width:2;stroke-miterlimit:10;}
	.st1{fill:#FFFFFF;}
</style>
<g>
	<polyline class="st0" points="6,40.1 18.9,25.2 36.1,52 55.7,35.9 68.4,50.6 79.8,41.2 88.7,53.5 	"/>
	<polygon class="st1" points="92.7,59 83.8,53.5 88.4,53 90.2,48.8 	"/>
	<polyline class="st0" points="8.5,43 20.7,57 36.9,31.8 55.4,46.9 67.2,33.1 78,41.9 86.3,30.4 	"/>
	<polygon class="st1" points="90.1,25.2 81.8,30.3 86,30.8 87.8,34.7 	"/>
	<polygon class="st0" points="98,91.4 97.9,71.6 87.9,80.8 81,73.8 75.4,79.4 75.4,57 61.8,70.6 61.8,62.2 54.6,52.9 40.9,64.8
		36.4,59.2 21.9,70.6 21.9,42.8 15.9,47.5 11.5,40.5 6,46.5 6,91.4 	"/>
	<polyline class="st0" points="98,91.4 6,91.4 6,15.4 	"/>
	<polygon class="st1" points="6,8.6 9.9,18.3 6,16 2,18.3 	"/>
</g>
</svg>
