<?xml version="1.0" encoding="utf-8"?>
<!-- Generator: Adobe Illustrator 22.0.1, SVG Export Plug-In . SVG Version: 6.00 Build 0)  -->
<svg version="1.1" id="Layer_1" xmlns="http://www.w3.org/2000/svg" xmlns:xlink="http://www.w3.org/1999/xlink" x="0px" y="0px"
	 viewBox="0 0 100 100" style="enable-background:new 0 0 100 100;" xml:space="preserve">
<style type="text/css">
	.st0{fill:#FFFFFF;}
</style>
<g id="Element_9_">
	<path class="st0" d="M95.9,66.2c-1.3-0.2-2.5,0.8-2.7,2.1l-0.3,2.3l-14.3-15l14-11.5v2.4c0,1.3,1.1,2.4,2.4,2.4s2.4-1.1,2.4-2.4
		v-8.3c0-1.3-1.1-2.4-2.4-2.4h-8.3c-1.3,0-2.4,1.1-2.4,2.4s1.1,2.4,2.4,2.4h2.5L75.3,52L62.7,38.7c-0.5-0.5-1.2-0.8-2-0.7
		C60,38,59.3,38.4,58.9,39L46.3,58.7l-8.4-16.4c-0.1-0.3-0.3-0.5-0.5-0.7L23,28.9c-0.5-0.5-1.3-0.7-2-0.6L6.8,30.7V7.2
		c0-1.3-1.1-2.4-2.4-2.4C3.1,4.8,2,5.9,2,7.2v85.6c0,1.3,1.1,2.4,2.4,2.4H90c1.3,0,2.4-1.1,2.4-2.4c0-1.3-1.1-2.4-2.4-2.4H6.8V58.6
		l8.3,14.1c0.4,0.7,1.2,1.2,2,1.2c0.8,0,1.6-0.4,2.1-1.1l6.3-9.4l6.4,19.6c0.3,0.9,1.1,1.5,2,1.6c0.1,0,0.2,0,0.3,0
		c0.8,0,1.6-0.4,2-1.1l9.7-15.1l3.8,7.4c0.3,0.6,0.9,1.1,1.6,1.3c0.2,0,0.3,0.1,0.5,0.1c0.6,0,1.1-0.2,1.5-0.5l21.7-17.8l14.3,15
		l-2.6-0.3c-1.3-0.2-2.5,0.8-2.7,2.1c-0.2,1.3,0.8,2.5,2.1,2.7l8.2,1.1c0.1,0,0.2,0,0.3,0c1.2,0,2.2-0.9,2.4-2.1l1.1-8.2
		C98.2,67.6,97.2,66.4,95.9,66.2z M34.8,76.6l-6.3-19.5c-0.3-0.9-1-1.5-2-1.6c-0.9-0.1-1.8,0.3-2.3,1.1l-6.9,10.4L8,51.2
		c-0.3-0.5-0.7-0.8-1.2-1V35.6l13.8-2.4l13.2,11.6l9.5,18.5L34.8,76.6z M52.5,70.8l-3.7-7.2l12.5-19.4l10.3,10.9L52.5,70.8z"/>
</g>
</svg>
