<?xml version="1.0" encoding="utf-8"?>
<!-- Generator: Adobe Illustrator 22.0.1, SVG Export Plug-In . SVG Version: 6.00 Build 0)  -->
<svg version="1.1" id="Layer_1" xmlns="http://www.w3.org/2000/svg" xmlns:xlink="http://www.w3.org/1999/xlink" x="0px" y="0px"
	 viewBox="0 0 130 130" style="enable-background:new 0 0 130 130;" xml:space="preserve">
<style type="text/css">
	.st0{fill:#202D5C;}
</style>
<g>
	<polygon class="st0" points="66.6,58.7 66.6,58.7 66.6,58.7 66.6,58.7 66.6,58.7 	"/>
	<path class="st0" d="M116.4,61.7c-0.6-0.3-1.2-0.5-1.9-0.5h-4.1c-0.9,0-1.8,0.3-2.4,0.9c-0.3,0.3-0.6,0.7-0.8,1.1
		c-0.2,0.4-0.3,0.9-0.3,1.4v17.2c0,0.6-0.2,1.1-0.5,1.6c-0.3,0.5-0.8,0.9-1.4,1.2l-10.5,5.3v0c-0.5,0.2-1,0.4-1.5,0.4h0
		c-0.5,0-1.1,0.1-1.6,0.3l0,0c-0.5,0.2-0.9,0.4-1.3,0.8l0,0c-0.9,0.8-2,1.4-3.2,1.8c-1.1,0.4-2.4,0.6-3.7,0.6
		c-1.5,0-2.8-0.3-4.1-0.8c-1.3-0.5-2.4-1.3-3.4-2.2c-0.3-0.3-0.8-0.5-1.2-0.5h-1.1c-1.4,0-2.7,0.3-3.8,0.8c-1.8,0.8-3.3,2-4.3,3.6
		c-1.1,1.6-1.7,3.5-1.7,5.5v14.2c0,0.3,0.1,0.6,0.2,0.9c0.1,0.2,0.1,0.3,0.2,0.5c0.3,0.6,0.7,1,1.2,1.4c0.4,0.4,0.9,0.7,1.4,1
		c0.9,0.5,1.9,0.9,3.1,1.3c1.8,0.6,3.8,1,6.1,1.3c2.3,0.3,4.8,0.5,7.4,0.5c2.4,0,4.7-0.1,6.9-0.4c1.6-0.2,3.1-0.5,4.5-0.8
		c1-0.2,2-0.5,2.8-0.8c0.7-0.2,1.3-0.5,1.8-0.8c0.8-0.4,1.6-0.9,2.2-1.5c0.3-0.3,0.6-0.6,0.8-1c0.1-0.2,0.3-0.5,0.4-0.7
		c0.2-0.3,0.2-0.6,0.2-0.9v-12.7l2.9-2.5c0.7-0.6,0.8-1.8,0.2-2.5c-0.6-0.7-1.8-0.8-2.5-0.2l-3.5,3c-0.4,0.3-0.6,0.8-0.6,1.3v13.1v0
		c0,0,0,0,0,0.1c0,0.1-0.2,0.2-0.4,0.4c-0.2,0.2-0.5,0.4-0.8,0.6c-0.6,0.4-1.4,0.7-2.4,1c-1.5,0.5-3.4,0.9-5.5,1.2
		c-2.1,0.3-4.4,0.4-6.9,0.4c-2.3,0-4.5-0.1-6.5-0.4c-1.5-0.2-2.9-0.4-4.1-0.7c-0.9-0.2-1.7-0.5-2.5-0.7c-0.5-0.2-1-0.4-1.4-0.6
		c-0.6-0.3-1.1-0.6-1.3-0.9c-0.1-0.1-0.2-0.2-0.3-0.3c0-0.1-0.1-0.1-0.1-0.1c0,0,0,0,0,0v-13.8c0-0.9,0.2-1.7,0.5-2.5
		c0.5-1.1,1.3-2.1,2.3-2.8c1-0.7,2.2-1.1,3.5-1.1h0.4c1.2,1,2.5,1.8,4,2.4c1.7,0.7,3.5,1.1,5.4,1.1c1.7,0,3.4-0.3,4.9-0.9
		c1.5-0.6,2.9-1.4,4.2-2.4v0c0.1-0.1,0.2-0.1,0.3-0.2c0.1,0,0.2-0.1,0.3-0.1h0c1.1,0,2.2-0.3,3.1-0.7h0l10.6-5.3
		c1.2-0.6,2.1-1.4,2.8-2.5c0.7-1,1.1-2.3,1.1-3.5v-17h4.1v20.5c0,0.4-0.1,0.8-0.3,1.2c-0.2,0.4-0.5,0.8-0.8,1.1v0l-1.4,1.3
		c-0.7,0.6-0.8,1.8-0.2,2.5c0.6,0.7,1.8,0.8,2.5,0.2l0,0l1.4-1.3l0,0c0.7-0.6,1.3-1.4,1.7-2.2c0.4-0.8,0.6-1.8,0.6-2.7V64.5
		c0-0.5-0.1-1-0.3-1.4C117.4,62.5,116.9,62,116.4,61.7L116.4,61.7L116.4,61.7z"/>
	<path class="st0" d="M25.6,35c1.7,1.2,3.8,1.8,6,1.8c1.5,0,2.9-0.3,4.2-0.8c1.9-0.8,3.5-2.2,4.7-3.9c1.1-1.7,1.8-3.8,1.8-6
		c0-1.5-0.3-2.9-0.8-4.2c-0.8-1.9-2.2-3.6-3.9-4.7c-1.7-1.2-3.8-1.8-6-1.8c-1.5,0-2.9,0.3-4.2,0.8c-1.9,0.8-3.5,2.2-4.7,3.9
		c-1.2,1.7-1.8,3.8-1.8,6c0,1.5,0.3,2.9,0.8,4.2C22.6,32.2,23.9,33.8,25.6,35L25.6,35L25.6,35z M25,23.3c0.5-1.3,1.4-2.4,2.6-3.1
		c1.1-0.8,2.5-1.2,4-1.2c1,0,1.9,0.2,2.8,0.6c1.3,0.5,2.4,1.4,3.1,2.6c0.8,1.1,1.2,2.5,1.2,4c0,1-0.2,1.9-0.6,2.8
		c-0.5,1.3-1.4,2.4-2.6,3.1c-1.1,0.8-2.5,1.2-4,1.2c-1,0-1.9-0.2-2.8-0.6c-1.3-0.5-2.4-1.5-3.1-2.6c-0.8-1.1-1.2-2.5-1.2-4
		C24.5,25.1,24.7,24.2,25,23.3L25,23.3L25,23.3z"/>
	<polygon class="st0" points="33.7,52.7 33.7,52.7 33.7,52.7 33.7,52.7 33.7,52.7 	"/>
	<path class="st0" d="M39.8,38.2L39.8,38.2C39.8,38.2,39.8,38.2,39.8,38.2L39.8,38.2L39.8,38.2L39.8,38.2z"/>
	<path class="st0" d="M18.2,67.3c1.8,0.6,3.8,1,6.1,1.3c2.3,0.3,4.8,0.5,7.4,0.5c1,0,2.8,0,4.6-0.1c0.9,0,1.8,0,2.6-0.1c0,0,0,0,0,0
		v13.3c0,0.3,0.1,0.6,0.2,0.9c0.1,0.2,0.1,0.3,0.2,0.5c0.3,0.6,0.7,1,1.2,1.4c0.4,0.4,0.9,0.7,1.4,1c0.9,0.5,1.9,0.9,3.1,1.3
		c1.8,0.6,3.8,1,6.1,1.3c2.3,0.3,4.8,0.5,7.4,0.5c1.2,0,2.6-0.1,4.1-0.3c2.2-0.2,4.6-0.6,6.8-1c1.1-0.2,2.1-0.4,3-0.6
		c0.9-0.2,1.7-0.4,2.3-0.6c0.1,0,0.1,0,0.2-0.1c0.6,0.8,1.4,1.5,2.3,2.1c1.7,1.2,3.8,1.8,6,1.8c1.5,0,2.9-0.3,4.2-0.8
		c1.9-0.8,3.5-2.2,4.7-3.9c1.2-1.7,1.8-3.8,1.8-6c0-1.5-0.3-2.9-0.8-4.2c-0.8-1.9-2.2-3.6-3.9-4.7c-1-0.7-2.1-1.2-3.2-1.5
		c0.8-1.6,2-3.8,3.1-6.1c1.1-2.1,2.1-4.3,3-6c0.4-0.9,0.8-1.6,1-2.3c0.1-0.3,0.2-0.6,0.3-0.8c0.1-0.1,0.1-0.3,0.1-0.4
		c0-0.1,0-0.1,0-0.2c0-0.1,0-0.2,0-0.3V32.7c0-0.5-0.1-1-0.3-1.4c-0.3-0.6-0.8-1.1-1.3-1.5c-0.6-0.3-1.2-0.5-1.9-0.5h-4.1
		c-0.9,0-1.8,0.3-2.4,0.9c-0.3,0.3-0.6,0.7-0.8,1.1c-0.2,0.4-0.3,0.9-0.3,1.4v17.2c0,0.6-0.2,1.1-0.5,1.6c-0.3,0.5-0.8,0.9-1.4,1.2
		l0,0l-10.5,5.3c-0.5,0.2-1,0.4-1.5,0.4h0l0,0h0c-0.5,0-1.1,0.1-1.6,0.3c-0.5,0.2-1,0.4-1.4,0.8l0,0c-0.9,0.8-2,1.4-3.1,1.8
		c-1.2,0.4-2.4,0.6-3.7,0.6c-1.5,0-2.8-0.3-4.1-0.8c-1.3-0.5-2.4-1.3-3.4-2.2c-0.3-0.3-0.8-0.5-1.2-0.5h-1.1c-1.4,0-2.7,0.3-3.8,0.8
		c-1.8,0.7-3.3,2-4.3,3.6c-0.5,0.8-1,1.7-1.3,2.6c-0.4,0-0.9,0-1.5,0.1c-1.1,0-2.3,0.1-3.4,0.1c-1.1,0-2.1,0-2.7,0
		c-2.3,0-4.5-0.1-6.4-0.4c-1.5-0.2-2.9-0.4-4.1-0.7c-0.9-0.2-1.7-0.5-2.5-0.7c-0.5-0.2-1-0.4-1.4-0.6c-0.6-0.3-1.1-0.6-1.3-0.9
		c-0.1-0.1-0.2-0.2-0.2-0.3c-0.1-0.1-0.1-0.1-0.1-0.1c0,0,0,0,0,0V47.7c0-0.9,0.2-1.7,0.5-2.5c0.5-1.1,1.3-2.1,2.3-2.8
		c1-0.7,2.2-1.1,3.5-1.1h0.4c1.2,1,2.5,1.8,3.9,2.4c1.7,0.7,3.5,1.1,5.4,1.1c1.7,0,3.4-0.3,4.9-0.9c1.5-0.6,2.9-1.4,4.2-2.4l0,0
		c0.1-0.1,0.2-0.2,0.3-0.2l0,0c0.1,0,0.2-0.1,0.3-0.1h0c1.1,0,2.2-0.3,3.1-0.7l10.5-5.3l0,0c1.2-0.6,2.1-1.4,2.8-2.5
		c0.7-1,1.1-2.3,1.1-3.5v-17H63v20.5c0,0.4-0.1,0.8-0.3,1.2c-0.2,0.4-0.5,0.8-0.8,1.1c-0.1,0.1-0.1,0.1-0.2,0.2l-1.8,2.2
		c-0.5-0.1-1-0.1-1.6-0.1c-1.5,0-2.9,0.3-4.2,0.8c-1.9,0.8-3.5,2.2-4.7,3.9c-1.2,1.7-1.8,3.8-1.8,6c0,1.5,0.3,2.9,0.8,4.2
		c0.8,1.9,2.2,3.6,3.9,4.7c1.7,1.2,3.8,1.8,6,1.8c1.5,0,2.9-0.3,4.2-0.8c1.9-0.8,3.5-2.2,4.7-3.9c1.1-1.7,1.8-3.8,1.8-6
		c0-1.5-0.3-2.9-0.8-4.2c-0.8-1.9-2.2-3.6-3.9-4.7c-0.3-0.2-0.5-0.3-0.8-0.5l0.9-1c0.7-0.6,1.2-1.3,1.6-2.1c0.4-0.8,0.6-1.8,0.6-2.7
		V12.2c0-0.5-0.1-1-0.3-1.4C66,10.2,65.5,9.7,65,9.4c-0.6-0.3-1.2-0.5-1.9-0.5h-4.1c-0.9,0-1.8,0.3-2.4,0.9
		c-0.3,0.3-0.6,0.7-0.8,1.1c-0.2,0.4-0.3,0.9-0.3,1.4v17.2c0,0.6-0.2,1.1-0.5,1.6c-0.3,0.5-0.8,0.9-1.4,1.2l0,0l-10.5,5.3
		c-0.5,0.2-1,0.4-1.5,0.4h0c-0.5,0-1.1,0.1-1.6,0.3c-0.5,0.2-1,0.4-1.3,0.8l0,0c-0.9,0.8-2,1.4-3.1,1.8c-1.2,0.4-2.4,0.6-3.7,0.6
		c-1.4,0-2.8-0.3-4.1-0.8c-1.3-0.5-2.4-1.3-3.4-2.2c-0.3-0.3-0.8-0.5-1.2-0.5h-1.1c-1.3,0-2.7,0.3-3.8,0.8c-1.8,0.7-3.3,2-4.3,3.6
		c-1.1,1.6-1.7,3.5-1.7,5.5v14.5c0,0.3,0.1,0.6,0.2,0.9c0.1,0.2,0.1,0.3,0.2,0.5c0.3,0.6,0.7,1,1.2,1.4c0.4,0.4,0.9,0.7,1.4,1
		C16,66.5,17,67,18.2,67.3L18.2,67.3L18.2,67.3z M88.9,75.9c0.8,1.1,1.2,2.5,1.2,4c0,1-0.2,1.9-0.6,2.8C89.1,84,88.2,85,87,85.8
		c-1.1,0.8-2.5,1.2-4,1.2c-1,0-1.9-0.2-2.8-0.6c-1.3-0.5-2.4-1.5-3.1-2.6c-0.8-1.1-1.2-2.5-1.2-4c0-1,0.2-1.9,0.6-2.8
		c0.5-1.3,1.4-2.4,2.6-3.1c1.1-0.8,2.5-1.2,4-1.2c1,0,1.9,0.2,2.8,0.6C87.1,73.8,88.2,74.8,88.9,75.9L88.9,75.9L88.9,75.9z
		 M42.8,65.8c0.5-1.1,1.3-2.1,2.3-2.8c1-0.7,2.2-1.1,3.5-1.1H49c1.2,1,2.5,1.8,4,2.4c1.7,0.7,3.5,1.1,5.4,1.1c1.7,0,3.4-0.3,4.9-0.9
		c1.5-0.6,2.9-1.4,4.2-2.4v0c0.1-0.1,0.2-0.2,0.3-0.2l0,0c0.1,0,0.2-0.1,0.3-0.1h0l0,0h0c1.1,0,2.2-0.3,3.1-0.7l10.5-5.3l0,0
		c1.2-0.6,2.1-1.4,2.8-2.5c0.7-1,1.1-2.3,1.1-3.5v-17h4.1v20.3c0,0,0,0,0,0.1c0,0.1-0.1,0.3-0.2,0.6c-0.2,0.5-0.5,1.1-0.8,1.8
		c-0.6,1.2-1.3,2.8-2.1,4.4c-1.2,2.4-2.5,4.9-3.5,6.8c-0.5,1-0.9,1.8-1.2,2.3c0,0,0,0,0,0c-1.1,0.1-2.1,0.4-3.1,0.8
		c-1.9,0.8-3.5,2.2-4.7,3.9c-1.1,1.7-1.8,3.8-1.8,6c0,1.3,0.2,2.5,0.6,3.6c-0.7,0.2-1.5,0.3-2.4,0.5c-1.9,0.4-4.1,0.8-6.3,1.1
		c-1.1,0.2-2.2,0.3-3.2,0.4c-1,0.1-1.9,0.1-2.7,0.1c-2.3,0-4.5-0.1-6.5-0.4c-1.5-0.2-2.9-0.4-4.1-0.7c-0.9-0.2-1.7-0.5-2.5-0.7
		c-0.5-0.2-1-0.4-1.4-0.6c-0.6-0.3-1.1-0.6-1.3-0.9c-0.1-0.1-0.2-0.2-0.3-0.3c0-0.1-0.1-0.1-0.1-0.1c0,0,0,0,0,0V68.3
		C42.3,67.4,42.5,66.6,42.8,65.8L42.8,65.8L42.8,65.8z M65.5,48.1c0,1-0.2,1.9-0.6,2.8c-0.5,1.3-1.5,2.4-2.6,3.1
		c-1.1,0.8-2.5,1.2-4,1.2c-1,0-1.9-0.2-2.8-0.6c-1.3-0.5-2.4-1.4-3.2-2.6c-0.8-1.1-1.2-2.5-1.2-4c0-1,0.2-1.9,0.6-2.8
		c0.5-1.3,1.4-2.4,2.6-3.1c1.1-0.8,2.5-1.2,4-1.2c1,0,1.9,0.2,2.8,0.6c1.3,0.5,2.4,1.4,3.1,2.6C65.1,45.3,65.5,46.6,65.5,48.1
		L65.5,48.1L65.5,48.1z"/>
</g>
</svg>
