<?xml version="1.0" encoding="utf-8"?>
<!-- Generator: Adobe Illustrator 22.0.1, SVG Export Plug-In . SVG Version: 6.00 Build 0)  -->
<svg version="1.1" id="Layer_1" xmlns="http://www.w3.org/2000/svg" xmlns:xlink="http://www.w3.org/1999/xlink" x="0px" y="0px"
	 viewBox="0 0 100 100" style="enable-background:new 0 0 100 100;" xml:space="preserve">
<style type="text/css">
	.st0{fill:#FFFFFF;}
</style>
<g>
	<path class="st0" d="M72.7,50.4c-0.2,0.5-0.6,0.7-1.1,0.8l0,0.1c2.6,1.3,4.6,3.3,6,6.2c0.1,0.3,0.3,0.5,0.4,0.8c0,0,0,0.1,0,0.1
		c0,0,0.2,0.3,0.4,0.6v-1c0-1.1,0.3-2.2,0.8-3.1c-2.5-4.1-5.9-6.1-9.4-7.1l2,0.9C72.6,48.9,73,49.7,72.7,50.4z"/>
	<path class="st0" d="M19.7,51.9c-0.8-0.3-1.5-0.8-1.9-1.6c-0.4-0.8-0.5-1.6-0.2-2.5c0.3-0.8,0.8-1.5,1.6-1.9
		c0.8-0.4,1.6-0.5,2.5-0.2l0.7,0.2c0.3-0.9,0.6-1.7,0.9-2.5l-0.8-0.3c-1.5-0.5-3.1-0.4-4.5,0.3c-1.4,0.7-2.5,1.9-3,3.4
		c-0.5,1.5-0.4,3.1,0.3,4.5c0.1,0.2,0.2,0.3,0.3,0.5C16.9,51.5,18.3,51.4,19.7,51.9z"/>
	<path class="st0" d="M38.2,69.5c0,0,0.1-0.1,0.1-0.1C38.2,69.4,38.2,69.4,38.2,69.5z"/>
	<path class="st0" d="M37.8,69.8c0.1,0,0.1-0.1,0.2-0.1C37.9,69.8,37.8,69.8,37.8,69.8z"/>
	<path class="st0" d="M36.7,69.9c0.1,0,0.2,0,0.2,0.1C36.9,70,36.8,69.9,36.7,69.9z"/>
	<path class="st0" d="M38.3,69.3C38.3,69.3,38.3,69.3,38.3,69.3C38.3,69.3,38.3,69.3,38.3,69.3C38.3,69.3,38.3,69.3,38.3,69.3z"/>
	<path class="st0" d="M37.3,70c0.1,0,0.1,0,0.2,0C37.4,70,37.3,70,37.3,70z"/>
	<path class="st0" d="M37.5,69.9c0.1,0,0.1,0,0.2-0.1C37.7,69.9,37.6,69.9,37.5,69.9z"/>
	<path class="st0" d="M38.1,69.5c0,0-0.1,0.1-0.1,0.1C38,69.6,38.1,69.6,38.1,69.5z"/>
	<path class="st0" d="M37.2,70c-0.1,0-0.1,0-0.2,0C37.1,70,37.1,70,37.2,70C37.1,70,37.2,70,37.2,70z"/>
	<path class="st0" d="M16.9,60.6c-0.8-0.3-1.5-0.8-1.9-1.6c-0.4-0.8-0.5-1.6-0.2-2.4c0.6-1.7,2.4-2.6,4.1-2.1l3.4,1.1
		c-0.2-1-0.4-2-0.5-3l-2-0.7c-1.4-0.4-2.8-0.4-4,0.1c-1.6,0.6-2.9,1.9-3.5,3.7c-0.5,1.5-0.4,3.1,0.3,4.5c0.1,0.2,0.2,0.3,0.3,0.5
		C14.1,60.2,15.5,60.1,16.9,60.6z"/>
	<path class="st0" d="M16.8,70.2L14,69.3c-1.7-0.6-2.6-2.4-2.1-4.1c0.5-1.7,2.4-2.6,4-2.1l20.7,6.8l0,0c0.1,0,0.2,0,0.2,0.1
		c0,0,0.1,0,0.1,0c0.1,0,0.1,0,0.2,0c0,0,0.1,0,0.1,0c0.1,0,0.1,0,0.2,0c0,0,0.1,0,0.1,0c0.1,0,0.1,0,0.2-0.1c0,0,0,0,0,0
		c0.1,0,0.1-0.1,0.2-0.1c0,0,0,0,0.1-0.1c0,0,0.1-0.1,0.1-0.1c0,0,0,0,0.1-0.1c0,0,0.1-0.1,0.1-0.1c0,0,0,0,0-0.1c0,0,0,0,0,0
		c-4.4-0.4-8.4-2.4-11.4-5.4l-10-3.3c-1.4-0.4-2.8-0.4-4,0.1c-1.6,0.6-2.9,1.9-3.5,3.7c-0.8,2.5,0.1,5.1,2.1,6.6
		C13,69.9,14.9,69.5,16.8,70.2z"/>
	<polygon class="st0" points="34.7,76 19,70.9 34.7,76 34.7,76 	"/>
	<path class="st0" d="M78.5,89.4v-0.7H75H63.2c-1.3-0.1-21.9-2-28.7-3.2c-5.2-0.9-20.3-6.6-20.4-6.7c0,0,0,0-0.1,0
		c-1.7-0.6-2.6-2.4-2.1-4c0.6-1.7,2.4-2.6,4-2.1l20.7,6.8c0.7,0.2,1.5-0.2,1.7-0.9c0,0,0,0,0-0.1c0.2-0.7-0.2-1.4-0.9-1.7L34.7,76
		L19,70.9l-2.2-0.7h0c-1.9-0.6-3.8-0.2-5.3,0.8c-1,0.7-1.8,1.7-2.2,3c-1,3.1,0.7,6.4,3.8,7.5c1,0.4,15.5,5.9,20.9,6.8
		c7.1,1.2,28.1,3.1,29,3.2c0,0,0.1,0,0.1,0h15.7C78.6,90.8,78.5,90.1,78.5,89.4z"/>
	<path class="st0" d="M84.7,51.6c-2.3,0-4.4,1.3-5.4,3.2c-0.5,0.9-0.8,2-0.8,3.1v1v29.9v0.7c0,0.7,0.1,1.4,0.3,2
		c0.8,2.5,3.2,4.2,5.9,4.2c3.4,0,6.3-2.8,6.3-6.3V57.9C91,54.4,88.2,51.6,84.7,51.6z M88.3,89.4c0,2-1.6,3.5-3.5,3.5
		c-1.9,0-3.5-1.6-3.5-3.5V57.9c0-1.9,1.6-3.5,3.5-3.5c1.9,0,3.5,1.6,3.5,3.5V89.4z"/>
	<path class="st0" d="M22.4,46c-0.5,1.6-0.7,3.3-0.7,5c0,0.5,0,1,0.1,1.5c0.1,1,0.3,2,0.5,3c0.8,3.2,2.5,6,4.7,8.3c3,3,7,5,11.4,5.4
		c0,0,0,0,0,0c0.5,0,1.1,0.1,1.6,0.1c8.6,0,15.9-6,17.8-14l-2.5-1.1c-1.5,7.1-7.8,12.4-15.3,12.4c-8.6,0-15.6-7-15.6-15.6
		c0-8.6,7-15.6,15.6-15.6c4,0,7.7,1.5,10.5,4c0.5,0.1,1.1,0.2,1.6,0.4l3.6,1.5c-3.2-5.2-9-8.7-15.6-8.7c-7.4,0-13.8,4.4-16.7,10.7
		C22.9,44.3,22.6,45.1,22.4,46z"/>
	<path class="st0" d="M81.2,21.8c0-9.6-7.8-17.5-17.5-17.5c-9.6,0-17.5,7.8-17.5,17.5c0,9.6,7.8,17.5,17.5,17.5
		C73.4,39.3,81.2,31.4,81.2,21.8z M63.7,7c8.1,0,14.8,6.6,14.8,14.8c0,8.1-6.6,14.8-14.8,14.8c-8.1,0-14.8-6.6-14.8-14.8
		C49,13.7,55.6,7,63.7,7z"/>
	<path class="st0" d="M52,39.9c-0.5-0.2-1-0.4-1.6-0.4c-1.7-0.2-3.3,0.3-4.6,1.3c-0.7,0.6-1.3,1.3-1.6,2.2c-0.1,0.2-0.1,0.4-0.2,0.5
		c-0.2,0.6-0.3,1.2-0.3,1.8c0,2.3,1.3,4.5,3.6,5.5l7.9,3.4l2.5,1.1l8.3,3.6c-0.4,1.3-0.7,3.5,0.2,5.8c1.1,2.7,3.6,4.7,7.4,6
		c0.1,0.1,0.3,0.1,0.4,0.1c0.6,0,1.1-0.4,1.3-0.9c0.2-0.7-0.1-1.5-0.8-1.7c-0.2-0.1-0.4-0.2-0.6-0.2c-2.7-1-4.4-2.4-5.1-4.2
		c-1-2.4,0.2-4.9,0.2-4.9c0.2-0.3,0.2-0.7,0.1-1.1c-0.1-0.4-0.4-0.6-0.7-0.8l-20-8.6c-1.6-0.7-2.4-2.6-1.7-4.2
		c0.7-1.6,2.6-2.4,4.2-1.7l20,8.6c0.2,0.1,0.5,0.1,0.7,0.1c0.4-0.1,0.9-0.3,1.1-0.8c0.3-0.7,0-1.5-0.7-1.8l-2-0.9l-14.4-6.2L52,39.9
		z"/>
	<g>
		<path class="st0" d="M59.8,15.1h8.8v0c-0.5,0.8-0.8,1.2-0.9,1.3h-2.3c0.3,0.4,0.5,0.8,0.7,1.4h2.5c0,0,0,0,0,0
			C68,18.6,67.7,19,67.7,19H66c0,0.4-0.2,1-0.6,1.6c-0.5,0.6-1,1-1.4,1.2c-0.9,0.4-1.7,0.6-2.4,0.6v0c0,0.1,1.8,2.2,5.3,6.3h-2.3
			c-3.4-4-5.2-6-5.2-6v-1.2l0,0c0.3,0,0.7,0.1,1.1,0.1c1.9,0,3.1-0.6,3.6-1.9c0.1-0.2,0.1-0.4,0.1-0.6h-5.2c0,0,0,0,0,0
			c0.6-0.8,0.9-1.3,0.9-1.3h4.1v0c-0.2-0.5-0.7-0.9-1.4-1.1c-0.5-0.2-0.9-0.2-1.3-0.2h-2.3v0C59.5,15.5,59.7,15.1,59.8,15.1z"/>
	</g>
	<g>
		<path class="st0" d="M35.1,45.9h8.8v0c-0.5,0.8-0.8,1.2-0.9,1.3h-2.3c0.3,0.4,0.5,0.8,0.7,1.4h2.5c0,0,0,0,0,0
			c-0.6,0.8-0.8,1.3-0.9,1.3h-1.6c0,0.4-0.2,1-0.6,1.6c-0.5,0.6-1,1-1.4,1.2c-0.9,0.4-1.7,0.6-2.4,0.6v0c0,0.1,1.8,2.2,5.3,6.3h-2.3
			c-3.4-4-5.2-6-5.2-6v-1.2l0,0c0.3,0,0.7,0.1,1.1,0.1c1.9,0,3.1-0.6,3.6-1.9c0.1-0.2,0.1-0.4,0.1-0.6h-5.2c0,0,0,0,0,0
			c0.6-0.8,0.9-1.3,0.9-1.3h4.1v0c-0.2-0.5-0.7-0.9-1.4-1.1c-0.5-0.2-0.9-0.2-1.3-0.2h-2.3v0C34.8,46.3,35,45.9,35.1,45.9z"/>
	</g>
</g>
</svg>
